<svg xmlns="http://www.w3.org/2000/svg" width="708" height="708" fill="none"><path fill="#181B21" fill-rule="evenodd" d="m584.929 404.197 96.254-2.022 13.346-21.03-1.213-40.443H701l-4.853-29.119h-103.13V189.85h46.51l-4.853-43.679h-78.46l-25.883-9.706V60.432h-82.503v17.795l-16.987 7.28-1.617-3.235 11.728-5.258-17.39-4.853V35.762h-87.357V48.3h-45.7v10.92H276.35l-12.538 5.257v2.426l-18.199 7.28h-12.942V50.726h-47.722V35.762h-77.246v14.964H99.21v59.451h8.493v169.456h22.243v13.75h-18.199v10.111H95.57v-19.412H7v106.769h17.795v11.728h-4.853v4.853h-4.853v23.457h4.853v25.075h-4.853v23.052h4.853v3.236h4.853v12.133h-2.427v34.376h4.449v6.875h20.221v-6.875H63.62v6.875h3.64v12.538h-3.64v44.891H52.296v53.789h116.071v3.64h13.751v-3.64h29.119v-2.022h5.257v-3.235h13.346v3.235h4.045v21.435h6.066v6.471h21.435v-6.471h11.324v-15.773h17.795v4.449h61.877v-31.546h-10.11v-24.265h14.963v-2.831h15.369v4.853h4.044v5.662h19.817v31.141h3.64v4.449l43.678.808 4.853-33.972 37.208-35.589 38.825-22.648 11.728-12.133c2.292-11.189 10.273-42.142 23.862-76.437v-27.501l24.67-30.737ZM44.612 392.064h6.875v-1.214h20.626v87.761h33.163v25.884H92.334v-9.707h-7.28v-7.684H63.216v7.684H44.612v-12.537h6.875v-25.883h-4.853v-24.67h4.853v-23.457h-4.853v-5.258h-2.022v-10.919Zm192.912-13.751h-21.839v12.537h-4.448v4.045h-18.604v-4.045h-3.236v-8.088h-7.684v-7.28h-13.75v2.831h9.301l-16.986 4.449h-12.537v14.964h-4.044v5.257H120.24v-5.257h-8.493v-50.15h6.471v-12.133h-6.471v-8.493H96.783v25.884h6.067v24.67h-6.067v25.479h8.493v25.479h-8.493v26.288h14.155v-4.044h22.244v4.044h25.074v22.244h19.008v5.257h8.089v6.471h4.853v7.684h16.582v-4.044h12.537v-3.64h23.053v3.64h15.772v4.044h8.493v-17.795h6.067v-6.066h13.75v-19.817h-9.706v-11.324h11.324v-53.385h-50.554v-9.706ZM141.27 74.991h69.562v69.966H141.27V74.991Zm167.029 2.831h65.518v67.135H354v26.693h40.038v46.509h8.898v11.729H385.95v-8.898h-13.751v-34.376h-35.994v3.639h-8.897v-3.639h-10.111v4.885h-12.133v-10.143H293.74V168.01h-12.133v5.257H244.4v-5.257h6.066v-2.831h43.274v2.022h22.244v9.302h7.684v-4.853h7.279v-11.729h-3.639v-2.022h3.639v-9.302h-3.639v-1.617h3.639v-2.023h-22.648V77.822Zm-43.678 56.62h-11.728v12.538h11.728v-12.538Zm256.812 330.014H416.282v-57.833h7.684v-95.445H417.9v-43.274h9.302v-79.268H417.9v-66.731h6.066v-18.604h23.861v13.751h32.355l35.994 38.825v37.207h58.238v118.094h-21.839l-4.045 25.074h4.045v46.914h-14.156l-9.706 41.252-7.28 9.302v30.736Zm-21.03 28.715H470.88v39.634h29.523v-39.634Zm116.476-152.47v40.039h18.603v-40.039h-18.603ZM205.17 168.01h23.053v14.559h-11.324v35.59h88.165v-4.16h12.133v3.351h10.111v-18.604h12.537v9.302h-3.64v97.872h35.994v-45.7h13.751v-8.493h19.008v11.728H385.95v56.216h-64.304v-26.288h-33.568v47.318h-50.554v9.706h-21.839v-16.581h-3.64v-4.045h-19.412v4.045h-3.236v10.919h-7.684v8.089l-12.942 4.449v-2.831l7.685-2.831-12.942-4.045h-15.773v-12.133h15.773V292.17h-5.258v-12.538h8.898v-26.288H141.27v-78.863h59.856v5.257h4.044V168.01Zm-99.894 352.662H92.334v7.684h-4.853v6.067H81.82v13.75h23.457v-27.501Zm175.927 7.684h5.257v2.831h29.119v-2.831h4.853v-33.972h-4.853v-3.64H286.46v3.64h-5.257v33.972Zm-23.053-7.28h8.493v20.626h7.684v8.493h4.449v4.449h44.083v-4.449h4.044v-8.493h8.493v-61.069h-5.662v-10.11h-21.03v-17.795h2.426v-42.87l17.391-17.39h31.95l17.39 14.964v44.487h26.288v32.354h45.701v53.789h-19.009l-31.545 21.031h-22.648v7.279h-3.235v5.662h-15.369v-2.831h-81.29v4.449h-6.875v-7.28h-8.089v-4.853h-20.221v4.853h-8.089v44.892h-3.64v2.427h-12.941v-4.045h-5.662v-3.64H211v-22.522a8.96 8.96 0 0 1-5 1.515 9 9 0 0 1-6.587-15.132 6 6 0 1 1 10.311-2.063c.446.203.873.441 1.276.711v-9.827h-33.736v-23.861h8.089v-7.684h4.853v-6.067h16.582v4.449h12.537v4.044h23.053v-4.044h15.772v-4.449Zm8.493 78.055h2.427v-3.64h7.684v3.64h47.723v24.266H290.1v3.235h-17.39v-5.662h-6.067v-21.839Z" clip-rule="evenodd"/><mask id="a" width="694" height="638" x="7" y="35" maskUnits="userSpaceOnUse" style="mask-type:alpha"><path fill="#181B21" fill-rule="evenodd" d="m584.929 404.197 96.254-2.022 13.346-21.03-1.213-40.443H701l-4.853-29.119h-103.13V189.85h46.51l-4.853-43.679h-78.46l-25.883-9.706V60.432h-82.503v17.795l-16.987 7.28-1.617-3.235 11.728-5.258-17.39-4.853V35.762h-87.357V48.3h-45.7v10.92H276.35l-12.538 5.257v2.426l-18.199 7.28h-12.942V50.726h-47.722V35.762h-77.246v14.964H99.21v59.451h8.493v169.456h22.243v13.75h-18.199v10.111H95.57v-19.412H7v106.769h17.795v11.728h-4.853v4.853h-4.853v23.457h4.853v25.075h-4.853v23.052h4.853v3.236h4.853v12.133h-2.427v34.376h4.449v6.875h20.221v-6.875H63.62v6.875h3.64v12.538h-3.64v44.891H52.296v53.789h116.071v3.64h13.751v-3.64h29.119v-2.022h5.257v-3.235h13.346v3.235h4.045v21.435h6.066v6.471h21.435v-6.471h11.324v-15.773h17.795v4.449h61.877v-31.546h-10.11v-24.265h14.963v-2.831h15.369v4.853h4.044v5.662h19.817v31.141h3.64v4.449l43.678.808 4.853-33.972 37.208-35.589 38.825-22.648 11.728-12.133c2.292-11.189 10.273-42.142 23.862-76.437v-27.501l24.67-30.737ZM44.612 392.064h6.875v-1.214h20.626v87.761h33.163v25.884H92.334v-9.707h-7.28v-7.684H63.216v7.684H44.612v-12.537h6.875v-25.883h-4.853v-24.67h4.853v-23.457h-4.853v-5.258h-2.022v-10.919Zm192.912-13.751h-21.839v12.537h-4.448v4.045h-18.604v-4.045h-3.236v-8.088h-7.684v-7.28h-13.75v2.831h9.301l-16.986 4.449h-12.537v14.964h-4.044v5.257H120.24v-5.257h-8.493v-50.15h6.471v-12.133h-6.471v-8.493H96.783v25.884h6.067v24.67h-6.067v25.479h8.493v25.479h-8.493v26.288h14.155v-4.044h22.244v4.044h25.074v22.244h19.008v5.257h8.089v6.471h4.853v7.684h16.582v-4.044h12.537v-3.64h23.053v3.64h15.772v4.044h8.493v-17.795h6.067v-6.066h13.75v-19.817h-9.706v-11.324h11.324v-53.385h-50.554v-9.706ZM141.27 74.991h69.562v69.966H141.27V74.991Zm167.029 2.831h65.518v67.135H354v26.693h40.038v46.509h8.898v11.729H385.95v-8.898h-13.751v-34.376h-35.994v3.639h-8.897v-3.639h-10.111v4.885h-12.133v-10.143H293.74V168.01h-12.133v5.257H244.4v-5.257h6.066v-2.831h43.274v2.022h22.244v9.302h7.684v-4.853h7.279v-11.729h-3.639v-2.022h3.639v-9.302h-3.639v-1.617h3.639v-2.023h-22.648V77.822Zm-43.678 56.62h-11.728v12.538h11.728v-12.538Zm256.812 330.014H416.282v-57.833h7.684v-95.445H417.9v-43.274h9.302v-79.268H417.9v-66.731h6.066v-18.604h23.861v13.751h32.355l35.994 38.825v37.207h58.238v118.094h-21.839l-4.045 25.074h4.045v46.914h-14.156l-9.706 41.252-7.28 9.302v30.736Zm-21.03 28.715H470.88v39.634h29.523v-39.634Zm116.476-152.47v40.039h18.603v-40.039h-18.603ZM205.17 168.01h23.053v14.559h-11.324v35.59h88.165v-4.16h12.133v3.351h10.111v-18.604h12.537v9.302h-3.64v97.872h35.994v-45.7h13.751v-8.493h19.008v11.728H385.95v56.216h-64.304v-26.288h-33.568v47.318h-50.554v9.706h-21.839v-16.581h-3.64v-4.045h-19.412v4.045h-3.236v10.919h-7.684v8.089l-12.942 4.449v-2.831l7.685-2.831-12.942-4.045h-15.773v-12.133h15.773V292.17h-5.258v-12.538h8.898v-26.288H141.27v-78.863h59.856v5.257h4.044V168.01Zm-99.894 352.662H92.334v7.684h-4.853v6.067H81.82v13.75h23.457v-27.501Zm175.927 7.684h5.257v2.831h29.119v-2.831h4.853v-33.972h-4.853v-3.64H286.46v3.64h-5.257v33.972Zm-23.053-7.28h8.493v20.626h7.684v8.493h4.449v4.449h44.083v-4.449h4.044v-8.493h8.493v-61.069h-5.662v-10.11h-21.03v-17.795h2.426v-42.87l17.391-17.39h31.95l17.39 14.964v44.487h26.288v32.354h45.701v53.789h-19.009l-31.545 21.031h-22.648v7.279h-3.235v5.662h-15.369v-2.831h-81.29v4.449h-6.875v-7.28h-8.089v-4.853h-20.221v4.853h-8.089v44.892h-3.64v2.427h-12.941v-4.045h-5.662v-3.64H211v-22.522a8.96 8.96 0 0 1-5 1.515 9 9 0 0 1-6.587-15.132 6 6 0 1 1 10.311-2.063c.446.203.873.441 1.276.711v-9.827h-33.736v-23.861h8.089v-7.684h4.853v-6.067h16.582v4.449h12.537v4.044h23.053v-4.044h15.772v-4.449Zm8.493 78.055h2.427v-3.64h7.684v3.64h47.723v24.266H290.1v3.235h-17.39v-5.662h-6.067v-21.839Z" clip-rule="evenodd"/></mask><g mask="url(#a)"><path fill="#272A30" d="M373.008 86.72V73.778h12.942V86.72zm-92.211 86.549v-4.853h12.133v4.853zm-63.899 33.162v-9.706h9.706v9.706zm-88.974 0v-15.368h14.559v15.368zm-8.088 196.553v-5.662h24.266v5.662zm8.896 93.828v-16.986h16.986v16.986zm46.106 37.207v-6.471h11.324v6.471zm-.809-45.297v-6.471h11.324v6.471zm45.295 4.854v-4.853h23.457v4.853zm0 35.59v-4.853h23.457v4.853zm22.649 37.207v-4.853h19.413v4.853zm22.648 63.091v-8.897h8.897v8.897zm-24.266 42.869v-5.662h21.03v5.662zM184 605.999v-47h27v47zm-77.107-20.31 8.185-14.884 14.884 8.185-8.185 14.884zm-20.221 37.365 5.816-10.576 10.185 5.6-5.816 10.577z"/><path fill="#272A30" d="m80.201 619.205 2.366-4.301 6.888 3.788-2.366 4.301zm40.444-120.776v-15.368h9.706v15.368zM52.7 432.103h-5.663v-24.266H52.7zm0 47.723h-5.663V455.56H52.7zm-26.692 56.619V532.4h20.22v4.044zm-4.853-56.619h-5.662V455.56h5.662zm-.81-48.532h-5.662v-24.266h5.662zm387.444-143.168v-11.324h10.515v11.324zm-10.516 5.663v-11.324h10.515v11.324zm10.516 6.47v-11.324h10.515v11.324zm-20.223 34.782v-14.559h15.368v14.559z"/><path fill="#272A30" d="M392.42 343.937v-8.897h14.559v8.897zM499.742 88.913l-4.596-12.707 13.5-4.883 4.596 12.707zM394.037 218.564v-43.678h7.28v43.678z"/><circle cx="266.644" cy="609.647" r="9.302" fill="#272A30" transform="rotate(-90 266.644 609.647)"/><path stroke="#272A30" d="M386 319h38"/></g><g class="labels"><rect width="50.958" height="35.59" x="106.895" y="546.152" stroke="#999CA2" stroke-opacity=".25" stroke-width="1.6" rx="2" transform="rotate(-90 106.895 546.152)"/><mask id="b" width="37" height="52" x="106" y="495" maskUnits="userSpaceOnUse" style="mask-type:alpha"><rect width="50.958" height="35.59" x="106.895" y="546.152" fill="#C4C4C4" rx="2" transform="rotate(-90 106.895 546.152)"/></mask><g fill="#999CA2" fill-opacity=".15" mask="url(#b)"><path d="m200.535 522.273-88.596-88.665 1.798-1.8 88.597 88.665zm3.598 10.812-88.596-88.665 1.798-1.8 88.597 88.665zm-3.598 3.6-88.596-88.665 1.798-1.8 88.597 88.665zm-3.599 3.601-88.596-88.665 1.798-1.8 88.597 88.665zm-3.598 3.6-88.596-88.665 1.798-1.8 88.597 88.665zm-3.598 3.602-88.596-88.665 1.798-1.8 88.597 88.665zm-3.597 3.6-88.596-88.665 1.798-1.8 88.597 88.665zm-3.598 3.6-88.596-88.665 1.798-1.8 88.597 88.665zm-3.598 3.601-88.596-88.665 1.798-1.8 88.597 88.665zm-3.597 3.601-88.596-88.665 1.798-1.8 88.597 88.665zm-3.598 3.6-88.596-88.665 1.798-1.8 88.597 88.665zm-3.598 3.601-88.596-88.665 1.798-1.8 88.597 88.665zm-3.597 3.601-88.596-88.665 1.798-1.8 88.597 88.665zm-3.598 3.6-88.596-88.665 1.798-1.8 88.597 88.665zm-3.6 3.601-88.596-88.665 1.798-1.8 88.597 88.665zm-3.597 3.6-88.596-88.665 1.798-1.8 88.597 88.665zm-3.598 3.601-88.596-88.665 1.798-1.8 88.597 88.665zm-3.598 3.6L57.97 502.029l1.798-1.8 88.597 88.665zm-3.597 3.602-88.596-88.665 1.798-1.8 88.597 88.665zm-3.598 3.599L50.775 509.23l1.798-1.8 88.597 88.665zm-3.598 3.601-88.596-88.665 1.798-1.8 88.597 88.665zm-3.597 3.601L43.58 516.432l1.798-1.8 88.597 88.665z"/></g><path fill="#E3E5EA" d="m121.712 526.171.864-2.653h4.199l.863 2.653h2.637l-4.012-11.636h-3.17l-4.017 11.636h2.636Zm1.489-4.573 1.432-4.404h.091l1.432 4.404h-2.955Z"/><path fill="#999CA2" fill-opacity=".25" d="M238.73 160.752v-39.678h-1.6v39.678h1.6Zm40.878 1.2H239.93v1.6h39.678v-1.6Zm1.2-40.878v39.678h1.6v-39.678h-1.6Zm-9.318-1.2h8.118v-1.6h-8.118v1.6Zm-12.126-12.132c6.036 0 10.929 4.893 10.929 10.929h1.6c0-6.92-5.609-12.529-12.529-12.529v1.6Zm-10.928 10.929c0-6.036 4.893-10.929 10.928-10.929v-1.6c-6.919 0-12.528 5.609-12.528 12.529h1.6Zm-8.506 1.203h7.309v-1.6h-7.309v1.6Zm6.906-1.203a.4.4 0 0 1 .403-.397v1.6a1.2 1.2 0 0 0 1.197-1.203h-1.6Zm24.654-.397a.4.4 0 0 1 .403.397h-1.6a1.2 1.2 0 0 0 1.197 1.203v-1.6Zm10.918 2.8a2.8 2.8 0 0 0-2.8-2.8v1.6a1.2 1.2 0 0 1 1.2 1.2h1.6Zm-2.8 42.478a2.8 2.8 0 0 0 2.8-2.8h-1.6a1.2 1.2 0 0 1-1.2 1.2v1.6Zm-40.878-42.478a1.2 1.2 0 0 1 1.2-1.2v-1.6a2.8 2.8 0 0 0-2.8 2.8h1.6Zm-1.6 39.678a2.8 2.8 0 0 0 2.8 2.8v-1.6a1.2 1.2 0 0 1-1.2-1.2h-1.6Z"/><mask id="c" width="694" height="638" x="7" y="35" maskUnits="userSpaceOnUse" style="mask-type:alpha"><path fill="#181B21" fill-rule="evenodd" d="m584.929 404.197 96.254-2.022 13.346-21.03-1.213-40.443H701l-4.853-29.119h-103.13V189.85h46.51l-4.853-43.679h-78.46l-25.883-9.706V60.432h-82.503v17.795l-16.987 7.28-1.617-3.235 11.728-5.258-17.39-4.853V35.762h-87.357V48.3h-45.7v10.92H276.35l-12.538 5.257v2.426l-18.199 7.28h-12.942V50.726h-47.722V35.762h-77.246v14.964H99.21v59.451h8.493v169.456h22.243v13.75h-18.199v10.111H95.57v-19.412H7v106.769h17.795v11.728h-4.853v4.853h-4.853v23.457h4.853v25.075h-4.853v23.052h4.853v3.236h4.853v12.133h-2.427v34.376h4.449v6.875h20.221v-6.875H63.62v6.875h3.64v12.538h-3.64v44.891H52.296v53.789h116.071v3.64h13.751v-3.64h29.119v-2.022h5.257v-3.235h13.346v3.235h4.045v21.435h6.066v6.471h21.435v-6.471h11.324v-15.773h17.795v4.449h61.877v-31.546h-10.11v-24.265h14.963v-2.831h15.369v4.853h4.044v5.662h19.817v31.141h3.64v4.449l43.678.808 4.853-33.972 37.208-35.589 38.825-22.648 11.728-12.133c2.292-11.189 10.273-42.142 23.862-76.437v-27.501l24.67-30.737ZM44.612 392.064h6.875v-1.214h20.626v87.761h33.163v25.884H92.335v-9.706h-7.28v-7.685h-21.84v7.685H44.613v-12.538h6.875v-25.883h-4.853v-24.67h4.853v-23.457h-4.853v-5.258h-2.022v-10.919Zm192.912-13.751h-21.839v12.537h-4.448v4.045h-18.604v-4.045h-3.236v-8.088h-7.684v-7.28h-13.75v2.831h9.302l-16.986 4.449h-12.538v14.964h-4.044v5.257H120.24v-5.257h-8.493v-50.15h6.471v-12.132h-6.471v-8.493H96.783v25.883h6.067v24.67h-6.067v25.479h8.493v25.479h-8.493v26.288h14.155v-4.044h22.244v4.044h25.074v22.244h19.009v5.257h8.088v6.471h4.853v7.684h16.582v-4.044h12.537v-3.64h23.053v3.64h15.772v4.044h8.493v-17.795h6.067v-6.066h13.75v-19.817h-9.706v-11.324h11.324v-53.385h-50.554v-9.706ZM141.27 74.991h69.562v69.966H141.27V74.991Zm167.03 2.831h65.517v67.135H354v26.693h40.038v46.509h8.898v11.729H385.95v-8.898h-13.751v-34.376h-35.994v3.64h-8.897v-3.64h-10.111v4.886h-12.133v-10.144H293.74V168.01h-12.133v5.258H244.4v-5.258h6.066v-2.831h43.274v2.022h22.244v9.302h7.684v-4.853h7.28v-11.729h-3.64v-2.022h3.64v-9.302h-3.64v-1.617h3.64v-2.023H308.3V77.822Zm-43.679 56.62h-11.728v12.538h11.728v-12.538Zm256.813 330.014H416.282v-57.833h7.684v-95.445H417.9v-43.274h9.302v-79.268H417.9v-66.731h6.066v-18.604h23.861v13.751h32.355l35.994 38.825v37.208h58.238v118.093h-21.839l-4.045 25.074h4.045v46.914H538.42l-9.707 41.252-7.279 9.302v30.736Zm-21.031 28.715H470.88v39.634h29.523v-39.634Zm116.476-152.47v40.039h18.603v-40.039h-18.603ZM205.17 168.01h23.053v14.559h-11.324v35.59h88.165V214h12.133v3.35h10.111v-18.603h12.537v9.301h-3.64v97.872h35.994v-45.7h13.751v-8.493h19.008v11.728H385.95v56.216h-64.304v-26.288h-33.568v47.318h-50.554v9.706h-21.839v-16.581h-3.64v-4.044h-19.412v4.044h-3.236v10.919h-7.684v8.089l-12.941 4.449v-2.831l7.684-2.831-12.942-4.045h-15.773v-12.132h15.773V292.17h-5.258v-12.538h8.898v-26.288H141.27v-78.863h59.856v5.257h4.044V168.01Zm-99.894 352.662H92.335v7.684H87.48v6.067h-5.66v13.75h23.457v-27.501Zm175.927 7.684h5.257v2.831h29.119v-2.831h4.853v-33.972h-4.853v-3.64H286.46v3.64h-5.257v33.972Zm-23.053-7.28h8.493v20.626h7.685v8.493h4.448v4.449h44.083v-4.449h4.044v-8.493h8.493v-61.068h-5.662v-10.111h-21.03v-17.795h2.427v-42.87l17.39-17.39h31.95l17.39 14.964v44.487h26.288v32.354h45.701v53.789h-19.009l-31.545 21.031h-22.648v7.279h-3.235v5.662h-15.369v-2.831h-81.29v4.449h-6.875v-7.28h-8.089v-4.853h-20.221v4.853h-8.089v44.892h-3.64v2.427h-12.941v-4.045h-5.662v-3.64H211v-47.318h-33.735v-23.861h8.088v-7.684h4.853v-6.067h16.582v4.449h12.537v4.044h23.053v-4.044h15.772v-4.449Zm8.493 78.055h2.427v-3.64h7.684v3.64h47.723v24.266H290.1v3.235h-17.39v-5.662h-6.067v-21.839Z" clip-rule="evenodd"/></mask><g mask="url(#c)"><mask id="d" width="45" height="57" x="237" y="106" maskUnits="userSpaceOnUse" style="mask-type:alpha"><path fill="#C4C4C4" fill-rule="evenodd" d="M239.93 119.073a2 2 0 0 0-2 2v39.678a2 2 0 0 0 2 2h39.678a2 2 0 0 0 2-2v-39.678a2 2 0 0 0-2-2h-8.118a.4.4 0 0 1-.397-.403c0-6.478-5.251-11.729-11.729-11.729-6.477 0-11.728 5.251-11.728 11.729a.4.4 0 0 1-.397.403h-7.309Z" clip-rule="evenodd"/></mask><g fill="#999CA2" fill-opacity=".15" mask="url(#d)"><path d="m345.535 142.273-88.596-88.665 1.798-1.8 88.597 88.665zm3.598 10.812L260.537 64.42l1.798-1.8 88.597 88.665zm-3.598 3.6L256.939 68.02l1.798-1.8 88.597 88.665zm-3.599 3.601L253.34 71.621l1.798-1.8 88.597 88.665zm-3.598 3.6-88.596-88.665 1.798-1.8 88.597 88.665zm-3.598 3.602-88.596-88.665 1.798-1.8 88.597 88.665zm-3.597 3.6-88.596-88.665 1.798-1.8 88.597 88.665zm-3.598 3.6-88.596-88.665 1.798-1.8 88.597 88.665zm-3.598 3.601-88.596-88.665 1.798-1.8 88.597 88.665zm-3.597 3.601-88.596-88.665 1.798-1.8 88.597 88.665zm-3.598 3.6-88.596-88.665 1.798-1.8 88.597 88.665zm-3.598 3.601-88.596-88.665 1.798-1.8 88.597 88.665zm-3.597 3.601-88.596-88.665 1.798-1.8 88.597 88.665zm-3.598 3.6-88.596-88.665 1.798-1.8 88.597 88.665zm-3.6 3.601-88.596-88.665 1.798-1.8 88.597 88.665zm-3.597 3.6-88.596-88.665 1.798-1.8 88.597 88.665zm-3.598 3.601-88.596-88.665 1.798-1.8 88.597 88.665zm-3.598 3.6-88.596-88.665 1.798-1.8 88.597 88.665zm-3.597 3.602-88.596-88.665 1.798-1.8 88.597 88.665zm-3.598 3.599-88.596-88.665 1.798-1.8 88.597 88.665zm-3.598 3.601-88.596-88.665 1.798-1.8 88.597 88.665zm-3.597 3.601-88.596-88.665 1.798-1.8 88.597 88.665z"/></g><path fill="#E3E5EA" d="M255.402 112.171h4.972c2.613 0 4.005-1.363 4.005-3.216 0-1.721-1.233-2.761-2.557-2.823v-.114c1.211-.273 2.103-1.131 2.103-2.5 0-1.744-1.296-2.983-3.864-2.983h-4.659v11.636Zm2.46-2.011v-3.091h2.063c1.182 0 1.914.682 1.914 1.642 0 .875-.596 1.449-1.971 1.449h-2.006Zm0-4.756v-2.88h1.87c1.09 0 1.71.562 1.71 1.403 0 .921-.75 1.477-1.756 1.477h-1.824Z"/></g><rect width="97.872" height="85.739" x="9.021" y="383.571" fill="#30D9D4" fill-opacity=".25" stroke="#30D9D4" stroke-width="1.5" rx="2" transform="rotate(-90 9.021 383.571)"/><mask id="e" width="694" height="638" x="7" y="35" maskUnits="userSpaceOnUse" style="mask-type:alpha"><path fill="#181B21" fill-rule="evenodd" d="m584.929 404.197 96.254-2.022 13.346-21.03-1.213-40.443H701l-4.853-29.119h-103.13V189.85h46.51l-4.853-43.679h-78.46l-25.883-9.706V60.432h-82.503v17.795l-16.987 7.28-1.617-3.235 11.728-5.258-17.39-4.853V35.762h-87.357V48.3h-45.7v10.92H276.35l-12.538 5.257v2.426l-18.199 7.28h-12.942V50.726h-47.722V35.762h-77.246v14.964H99.21v59.451h8.493v169.456h22.243v13.75h-18.199v10.111H95.57v-19.412H7v106.769h17.795v11.728h-4.853v4.853h-4.853v23.457h4.853v25.075h-4.853v23.052h4.853v3.236h4.853v12.133h-2.427v34.376h4.449v6.875h20.221v-6.875H63.62v6.875h3.64v12.538h-3.64v44.891H52.296v53.789h116.071v3.64h13.751v-3.64h29.119v-2.022h5.257v-3.235h13.346v3.235h4.045v21.435h6.066v6.471h21.435v-6.471h11.324v-15.773h17.795v4.449h61.877v-31.546h-10.11v-24.265h14.963v-2.831h15.369v4.853h4.044v5.662h19.817v31.141h3.64v4.449l43.678.808 4.853-33.972 37.208-35.589 38.825-22.648 11.728-12.133c2.292-11.189 10.273-42.142 23.862-76.437v-27.501l24.67-30.737ZM44.612 392.064h6.875v-1.214h20.626v87.761h33.163v25.884H92.335v-9.706h-7.28v-7.685h-21.84v7.685H44.613v-12.538h6.875v-25.883h-4.853v-24.67h4.853v-23.457h-4.853v-5.258h-2.022v-10.919Zm192.912-13.751h-21.839v12.537h-4.448v4.045h-18.604v-4.045h-3.236v-8.088h-7.684v-7.28h-13.75v2.831h9.302l-16.986 4.449h-12.538v14.964h-4.044v5.257H120.24v-5.257h-8.493v-50.15h6.471v-12.132h-6.471v-8.493H96.783v25.883h6.067v24.67h-6.067v25.479h8.493v25.479h-8.493v26.288h14.155v-4.044h22.244v4.044h25.074v22.244h19.009v5.257h8.088v6.471h4.853v7.684h16.582v-4.044h12.537v-3.64h23.053v3.64h15.772v4.044h8.493v-17.795h6.067v-6.066h13.75v-19.817h-9.706v-11.324h11.324v-53.385h-50.554v-9.706ZM141.27 74.991h69.562v69.966H141.27V74.991Zm167.03 2.831h65.517v67.135H354v26.693h40.038v46.509h8.898v11.729H385.95v-8.898h-13.751v-34.376h-35.994v3.64h-8.897v-3.64h-10.111v13.75h-12.133v-19.008H293.74V168.01h-12.133v5.258H244.4v-5.258h6.066v-2.831h43.274v2.022h22.244v9.302h7.684v-4.853h7.28v-11.729h-3.64v-2.022h3.64v-9.302h-3.64v-1.617h3.64v-2.023H308.3V77.822Zm-43.679 56.62h-11.728v12.538h11.728v-12.538Zm256.813 330.014H416.282v-57.833h7.684v-95.445H417.9v-43.274h9.302v-79.268H417.9v-66.731h6.066v-18.604h23.861v13.751h32.355l35.994 38.825v37.208h58.238v118.093h-21.839l-4.045 25.074h4.045v46.914H538.42l-9.707 41.252-7.279 9.302v30.736Zm-21.031 28.715H470.88v39.634h29.523v-39.634Zm116.476-152.47v40.039h18.603v-40.039h-18.603ZM205.17 168.01h23.053v14.559h-11.324v35.59h88.165v-8.088h12.133v7.279h10.111v-18.603h12.537v9.301h-3.64v97.872h35.994v-45.7h13.751v-8.493h19.008v11.728H385.95v56.216h-64.304v-26.288h-33.568v47.318h-50.554v9.706h-21.839v-16.581h-3.64v-4.044h-19.412v4.044h-3.236v10.919h-7.684v8.089l-12.941 4.449v-2.831l7.684-2.831-12.942-4.045h-15.773v-12.132h15.773V292.17h-5.258v-12.538h8.898v-26.288H141.27v-78.863h59.856v5.257h4.044V168.01Zm-99.894 352.662H92.335v7.684H87.48v6.067h-5.66v13.75h23.457v-27.501Zm175.927 7.684h5.257v2.831h29.119v-2.831h4.853v-33.972h-4.853v-3.64H286.46v3.64h-5.257v33.972Zm-23.053-7.28h8.493v20.626h7.685v8.493h4.448v4.449h44.083v-4.449h4.044v-8.493h8.493v-61.068h-5.662v-10.111h-21.03v-17.795h2.427v-42.87l17.39-17.39h31.95l17.39 14.964v44.487h26.288v32.354h45.701v53.789h-19.009l-31.545 21.031h-22.648v7.279h-3.235v5.662h-15.369v-2.831h-81.29v4.449h-6.875v-7.28h-8.089v-4.853h-20.221v4.853h-8.089v44.892h-3.64v2.427h-12.941v-4.045h-5.662v-3.64H184.14v-47.318h-6.875v-23.861h8.088v-7.684h4.853v-6.067h16.582v4.449h12.537v4.044h23.053v-4.044h15.772v-4.449Zm8.493 78.055h2.427v-3.64h7.684v3.64h47.723v24.266H290.1v3.235h-17.39v-5.662h-6.067v-21.839Z" clip-rule="evenodd"/></mask><g fill="#E44C4D" mask="url(#e)"><path fill-opacity=".25" stroke="#E44C4D" stroke-width="1.5" d="m693.664 313.185-73.662-.668a2 2 0 0 0-2.018 2v80.529a2 2 0 0 0 1.978 2l60.907.667a1.997 1.997 0 0 0 1.718-.94l9.212-14.738c.198-.318.304-.685.304-1.06v-39.487a2 2 0 0 1 2-2h3.317a2 2 0 0 0 1.972-2.334l-3.774-22.303a2 2 0 0 0-1.954-1.666Z"/><path d="M655.418 355.294h2.672v7.206h1.824v-7.206h2.672v-1.522h-7.168v1.522Z"/></g><path fill="#30D9D4" d="M51.993 333.828c-.243-2.016-1.768-3.175-3.788-3.175-2.305 0-4.065 1.628-4.065 4.483 0 2.846 1.73 4.483 4.065 4.483 2.237 0 3.588-1.487 3.788-3.094l-1.866-.008c-.175.933-.908 1.47-1.892 1.47-1.325 0-2.225-.985-2.225-2.851 0-1.815.887-2.851 2.238-2.851 1.01 0 1.738.584 1.879 1.543h1.866Zm.883-1.534h2.672v7.206h1.824v-7.206h2.672v-1.522h-7.168v1.522Z"/><path fill="#7F838B" d="M282.05 481.596h2.004V487h1.368v-5.404h2.004v-1.141h-5.376v1.141Zm8.635 3.314c.003.658-.447 1.003-.936 1.003-.515 0-.847-.361-.851-.939v-2.883h-1.361v3.126c.003 1.147.674 1.847 1.662 1.847.738 0 1.269-.38 1.489-.956h.051V487h1.307v-4.909h-1.361v2.819Zm3.731-.748c.003-.633.38-1.004.93-1.004.547 0 .876.358.873.959V487h1.361v-3.126c0-1.144-.671-1.847-1.694-1.847-.729 0-1.256.358-1.476.93h-.058v-.866h-1.298V487h1.362v-2.838Zm5.518 0c.003-.633.38-1.004.93-1.004.546 0 .875.358.872.959V487h1.362v-3.126c0-1.144-.671-1.847-1.694-1.847-.729 0-1.256.358-1.477.93h-.057v-.866h-1.298V487h1.362v-2.838Zm6.393 2.934c1.214 0 2.033-.591 2.224-1.502l-1.259-.083c-.137.374-.489.569-.943.569-.68 0-1.112-.451-1.112-1.183v-.003h3.343v-.374c0-1.668-1.01-2.493-2.307-2.493-1.445 0-2.381 1.026-2.381 2.541 0 1.556.923 2.528 2.435 2.528Zm-1.09-3.046a1.038 1.038 0 0 1 1.058-1.007c.591 0 1 .422 1.004 1.007h-2.062Zm5.512-3.595h-1.361V487h1.361v-6.545Zm5.094 3.036c-.121-.905-.85-1.464-2.09-1.464-1.256 0-2.084.582-2.08 1.528-.004.735.46 1.211 1.419 1.403l.85.169c.428.086.623.243.629.489-.006.291-.322.499-.799.499-.485 0-.808-.208-.891-.608l-1.34.071c.128.939.927 1.518 2.228 1.518 1.272 0 2.183-.649 2.186-1.617-.003-.71-.466-1.135-1.419-1.33l-.888-.179c-.457-.099-.627-.256-.624-.492-.003-.294.33-.486.752-.486.473 0 .754.259.821.575l1.246-.076ZM156.96 541h2.797c1.47 0 2.253-.768 2.253-1.809 0-.969-.693-1.554-1.438-1.589v-.064c.681-.153 1.182-.636 1.182-1.406 0-.981-.728-1.678-2.173-1.678h-2.621V541Zm1.384-1.132v-1.739h1.16c.665 0 1.077.384 1.077.924 0 .492-.335.815-1.109.815h-1.128Zm0-2.675v-1.62h1.052c.613 0 .962.316.962.789 0 .518-.422.831-.988.831h-1.026Zm6.678 3.902c1.489 0 2.416-1.019 2.416-2.531 0-1.521-.927-2.537-2.416-2.537-1.489 0-2.416 1.016-2.416 2.537 0 1.512.927 2.531 2.416 2.531Zm.006-1.054c-.687 0-1.038-.63-1.038-1.486 0-.857.351-1.49 1.038-1.49.675 0 1.026.633 1.026 1.49 0 .856-.351 1.486-1.026 1.486Zm5.433 1.054c1.489 0 2.416-1.019 2.416-2.531 0-1.521-.927-2.537-2.416-2.537-1.49 0-2.417 1.016-2.417 2.537 0 1.512.927 2.531 2.417 2.531Zm.006-1.054c-.687 0-1.039-.63-1.039-1.486 0-.857.352-1.49 1.039-1.49.674 0 1.026.633 1.026 1.49 0 .856-.352 1.486-1.026 1.486Zm7.299-2.551c-.122-.904-.851-1.463-2.091-1.463-1.256 0-2.083.581-2.08 1.527-.003.735.46 1.211 1.419 1.403l.85.17c.428.086.623.243.63.489-.007.29-.323.498-.799.498-.486 0-.809-.208-.892-.607l-1.339.07c.128.94.927 1.518 2.227 1.518 1.272 0 2.183-.648 2.186-1.617-.003-.709-.466-1.134-1.419-1.329l-.888-.179c-.457-.099-.626-.256-.623-.493-.003-.294.329-.485.751-.485.473 0 .754.259.821.575l1.247-.077Zm3.499-1.4h-.924v-1.176h-1.361v1.176h-.671v1.023h.671v2.557c-.007.962.649 1.438 1.636 1.397.352-.013.601-.083.738-.128l-.214-1.013c-.067.012-.211.044-.338.044-.272 0-.461-.102-.461-.479v-2.378h.924v-1.023Zm-59.132-62.995h2.004v5.405h1.368v-5.405h2.004v-1.141h-5.376v1.141Zm5.645 5.405h1.362v-2.778c0-.604.441-1.019 1.041-1.019.189 0 .448.032.576.073v-1.208a2.033 2.033 0 0 0-.428-.048c-.55 0-1.001.32-1.18.927h-.051v-.857h-1.32v4.91Zm3.602 0h1.361v-4.91h-1.361v4.91Zm.684-5.542c.406 0 .738-.31.738-.691 0-.377-.332-.687-.738-.687-.403 0-.735.31-.735.687 0 .381.332.691.735.691Zm1.687 7.382h1.361v-2.627h.042c.188.409.601.866 1.393.866 1.119 0 1.991-.885 1.991-2.528 0-1.687-.91-2.524-1.987-2.524-.822 0-1.215.488-1.397.888h-.061v-.825h-1.342v6.75Zm1.333-4.295c0-.876.37-1.435 1.032-1.435.674 0 1.032.585 1.032 1.435 0 .857-.364 1.451-1.032 1.451-.655 0-1.032-.575-1.032-1.451Zm4.281 4.295h1.362v-2.627h.041c.189.409.601.866 1.394.866 1.118 0 1.991-.885 1.991-2.528 0-1.687-.911-2.524-1.988-2.524-.822 0-1.215.488-1.397.888h-.061v-.825h-1.342v6.75Zm1.333-4.295c0-.876.371-1.435 1.032-1.435.675 0 1.033.585 1.033 1.435 0 .857-.365 1.451-1.033 1.451-.655 0-1.032-.575-1.032-1.451Zm5.643-4.091h-1.362v6.546h1.362v-6.546Zm3.247 6.641c1.214 0 2.033-.591 2.224-1.502l-1.259-.083c-.137.374-.489.569-.943.569-.681 0-1.112-.451-1.112-1.182v-.004h3.343v-.374c0-1.668-1.01-2.492-2.307-2.492-1.445 0-2.382 1.025-2.382 2.54 0 1.557.924 2.528 2.436 2.528Zm-1.09-3.045a1.037 1.037 0 0 1 1.058-1.007c.591 0 1 .422 1.003 1.007h-2.061ZM23.315 502.095h2.004v5.405h1.368v-5.405h2.004v-1.141h-5.376v1.141Zm7.68 5.5c1.214 0 2.033-.591 2.224-1.502l-1.259-.083c-.137.374-.489.569-.943.569-.68 0-1.112-.451-1.112-1.182v-.004h3.343v-.374c0-1.668-1.01-2.492-2.307-2.492-1.445 0-2.382 1.025-2.382 2.54 0 1.557.924 2.528 2.436 2.528Zm-1.09-3.045a1.037 1.037 0 0 1 1.058-1.007c.591 0 1 .422 1.003 1.007h-2.061Zm4.15 2.95h1.362v-2.947c0-.544.345-.905.799-.905.447 0 .748.307.748.79v3.062h1.32v-2.998c0-.509.29-.854.786-.854.435 0 .76.272.76.818v3.034h1.359v-3.302c0-1.064-.633-1.671-1.547-1.671-.719 0-1.278.367-1.48.93h-.05c-.157-.569-.66-.93-1.334-.93-.661 0-1.163.351-1.367.93h-.058v-.867h-1.297v4.91Zm8.129 1.84h1.361v-2.627h.041c.19.409.601.866 1.394.866 1.119 0 1.991-.885 1.991-2.528 0-1.687-.91-2.524-1.988-2.524-.821 0-1.214.488-1.396.888h-.061v-.825h-1.343v6.75Zm1.332-4.295c0-.876.371-1.435 1.032-1.435.675 0 1.033.585 1.033 1.435 0 .857-.364 1.451-1.033 1.451-.655 0-1.032-.575-1.032-1.451Zm5.643-4.091h-1.361v6.546h1.361v-6.546Zm3.247 6.641c1.215 0 2.033-.591 2.225-1.502l-1.26-.083c-.137.374-.489.569-.943.569-.68 0-1.112-.451-1.112-1.182v-.004h3.343v-.374c0-1.668-1.01-2.492-2.307-2.492-1.445 0-2.381 1.025-2.381 2.54 0 1.557.923 2.528 2.435 2.528Zm-1.09-3.045a1.037 1.037 0 0 1 1.058-1.007c.591 0 1 .422 1.004 1.007h-2.062Zm1.875 130.949h1.384v-2.122h1.164c1.505 0 2.38-.898 2.38-2.205 0-1.301-.86-2.218-2.345-2.218H53.19v6.545Zm1.384-3.231v-2.183h.933c.8 0 1.186.435 1.186 1.087 0 .649-.387 1.096-1.18 1.096h-.939Zm5.698-3.314h-1.361v6.545h1.361v-6.545Zm2.41 6.638c.725 0 1.195-.316 1.435-.773h.038v.68h1.291v-3.311c0-1.169-.99-1.662-2.083-1.662-1.176 0-1.95.563-2.138 1.458l1.259.102c.093-.326.383-.566.872-.566.464 0 .729.234.729.636v.02c0 .316-.336.358-1.189.441-.971.089-1.844.415-1.844 1.511 0 .972.694 1.464 1.63 1.464Zm.39-.939c-.419 0-.72-.195-.72-.569 0-.384.317-.572.797-.64.297-.041.783-.111.946-.22v.521c0 .514-.426.908-1.023.908Zm5.961-4.063h-.924v-1.176h-1.36v1.176h-.671v1.023h.67v2.557c-.006.962.65 1.438 1.637 1.397.352-.013.601-.083.738-.128l-.214-1.013c-.067.012-.21.044-.339.044-.271 0-.46-.102-.46-.479v-2.378h.924v-1.023Zm38.461-12.091h2.797c1.47 0 2.253-.767 2.253-1.808 0-.969-.694-1.554-1.438-1.589v-.064c.68-.153 1.182-.636 1.182-1.406 0-.981-.729-1.678-2.173-1.678h-2.621v6.545Zm1.384-1.131v-1.739h1.16c.665 0 1.077.384 1.077.924 0 .492-.335.815-1.109.815h-1.128Zm0-2.675v-1.62h1.051c.614 0 .962.316.962.789 0 .518-.422.831-.987.831h-1.026Zm4.46 3.806h1.361v-4.909h-1.361v4.909Zm.684-5.541c.405 0 .738-.31.738-.691 0-.377-.333-.687-.738-.687-.403 0-.736.31-.736.687 0 .381.333.691.736.691Zm3.898 7.485c1.403 0 2.401-.64 2.401-1.896v-4.957h-1.352v.825h-.051c-.183-.4-.582-.889-1.403-.889-1.078 0-1.988.838-1.988 2.509 0 1.634.885 2.394 1.991 2.394.783 0 1.221-.393 1.4-.799h.057v.898c0 .675-.431.937-1.023.937-.6 0-.904-.262-1.016-.56l-1.259.17c.163.773.92 1.368 2.243 1.368Zm.029-3.037c-.668 0-1.032-.53-1.032-1.377 0-.834.358-1.419 1.032-1.419.662 0 1.033.559 1.033 1.419 0 .866-.378 1.377-1.033 1.377Zm5.402 1.093h2.796c1.47 0 2.253-.767 2.253-1.808 0-.969-.693-1.554-1.438-1.589v-.064c.681-.153 1.183-.636 1.183-1.406 0-.981-.729-1.678-2.174-1.678h-2.62v6.545Zm1.384-1.131v-1.739h1.16c.664 0 1.077.384 1.077.924 0 .492-.336.815-1.109.815h-1.128Zm0-2.675v-1.62h1.051c.614 0 .962.316.962.789 0 .518-.422.831-.988.831h-1.025Zm6.677 3.902c1.49 0 2.417-1.019 2.417-2.531 0-1.521-.927-2.538-2.417-2.538-1.489 0-2.416 1.017-2.416 2.538 0 1.512.927 2.531 2.416 2.531Zm.007-1.054c-.687 0-1.039-.63-1.039-1.486 0-.857.352-1.49 1.039-1.49.674 0 1.026.633 1.026 1.49 0 .856-.352 1.486-1.026 1.486Zm4.167-3.951h-1.406l1.406 2.455-1.457 2.454h1.406l.952-1.697.969 1.697h1.39l-1.461-2.454 1.423-2.455h-1.397l-.924 1.717-.901-1.717Zm-50.002-25.254h1.326c-.019-1.166-.978-1.971-2.435-1.971-1.435 0-2.487.792-2.48 1.981-.003.965.677 1.518 1.783 1.783l.713.179c.712.173 1.109.378 1.112.819-.003.479-.457.805-1.16.805-.72 0-1.237-.332-1.282-.988h-1.339c.035 1.416 1.048 2.148 2.637 2.148 1.598 0 2.538-.764 2.54-1.962-.002-1.09-.824-1.669-1.962-1.924l-.588-.141c-.569-.131-1.045-.342-1.035-.812 0-.421.374-.732 1.051-.732.662 0 1.068.301 1.119.815Zm2.24 4.663h1.361v-4.909h-1.361v4.909Zm.684-5.541c.406 0 .738-.31.738-.691 0-.377-.332-.687-.738-.687-.403 0-.735.31-.735.687 0 .381.332.691.735.691Zm3.049 2.703c.003-.632.38-1.003.93-1.003.546 0 .875.358.872.959v2.882h1.362v-3.125c0-1.144-.671-1.848-1.694-1.848-.729 0-1.256.358-1.477.931h-.057v-.867h-1.298v4.909h1.362v-2.838Zm6.367 4.782c1.404 0 2.401-.64 2.401-1.896v-4.957h-1.352v.825h-.051c-.183-.4-.582-.889-1.404-.889-1.077 0-1.987.838-1.987 2.509 0 1.634.885 2.394 1.99 2.394.784 0 1.222-.393 1.4-.799h.058v.898c0 .675-.431.937-1.023.937-.6 0-.904-.262-1.016-.56l-1.26.17c.164.773.921 1.368 2.244 1.368Zm.03-3.037c-.669 0-1.033-.53-1.033-1.377 0-.834.358-1.419 1.032-1.419.662 0 1.033.559 1.033 1.419 0 .866-.378 1.377-1.033 1.377Zm4.735-5.452h-1.362v6.545h1.362v-6.545Zm3.246 6.641c1.215 0 2.033-.591 2.225-1.502l-1.259-.083c-.138.374-.489.569-.943.569-.681 0-1.112-.451-1.112-1.183v-.003h3.343v-.374c0-1.668-1.01-2.493-2.308-2.493-1.444 0-2.381 1.026-2.381 2.541 0 1.557.924 2.528 2.435 2.528Zm-1.089-3.045a1.035 1.035 0 0 1 1.057-1.007c.592 0 1.001.422 1.004 1.007h-2.061Zm364.475-40.596 2.388 4.232V556h1.374v-2.314l2.388-4.232h-1.55l-1.493 2.819h-.064l-1.492-2.819h-1.551Zm7.25 6.638c.725 0 1.195-.316 1.435-.773h.038V556h1.291v-3.312c0-1.169-.991-1.661-2.084-1.661-1.176 0-1.949.562-2.138 1.457l1.259.102c.093-.326.384-.566.873-.566.463 0 .729.234.729.636v.02c0 .316-.336.358-1.189.441-.972.089-1.844.415-1.844 1.511 0 .972.693 1.464 1.63 1.464Zm.389-.939c-.418 0-.719-.195-.719-.569 0-.384.317-.572.796-.64.297-.041.783-.111.946-.22v.521c0 .514-.425.908-1.023.908Zm3.35.847h1.362v-2.778c0-.604.441-1.019 1.042-1.019.188 0 .447.032.575.073v-1.208a2.025 2.025 0 0 0-.428-.048c-.55 0-1.001.32-1.179.927h-.052v-.857h-1.32V556Zm5.182.079c.793 0 1.205-.457 1.394-.866h.057V556h1.343v-6.546h-1.359v2.461h-.041c-.182-.4-.575-.888-1.397-.888-1.077 0-1.988.837-1.988 2.524 0 1.643.873 2.528 1.991 2.528Zm.432-1.083c-.668 0-1.032-.594-1.032-1.451 0-.85.358-1.435 1.032-1.435.662 0 1.032.559 1.032 1.435s-.377 1.451-1.032 1.451Zm-97.653-104.75c-.183-1.512-1.327-2.381-2.842-2.381-1.729 0-3.049 1.22-3.049 3.362 0 2.135 1.298 3.362 3.049 3.362 1.678 0 2.691-1.115 2.842-2.32l-1.4-.007c-.131.7-.681 1.103-1.419 1.103-.994 0-1.669-.738-1.669-2.138 0-1.362.665-2.138 1.678-2.138.758 0 1.304.438 1.41 1.157h1.4Zm3.103 4.349c1.49 0 2.417-1.019 2.417-2.531 0-1.521-.927-2.537-2.417-2.537-1.489 0-2.416 1.016-2.416 2.537 0 1.512.927 2.531 2.416 2.531Zm.007-1.054c-.687 0-1.039-.63-1.039-1.486 0-.857.352-1.49 1.039-1.49.674 0 1.026.633 1.026 1.49 0 .856-.352 1.486-1.026 1.486Zm4.575-1.88c.004-.632.381-1.003.93-1.003.547 0 .876.358.873.959v2.883h1.362v-3.126c0-1.144-.672-1.847-1.694-1.847-.729 0-1.256.357-1.477.93h-.057v-.867h-1.298v4.91h1.361v-2.839Zm5.518 0c.003-.632.38-1.003.93-1.003.547 0 .876.358.873.959v2.883h1.361v-3.126c0-1.144-.671-1.847-1.694-1.847-.728 0-1.256.357-1.476.93h-.058v-.867h-1.297v4.91h1.361v-2.839Zm6.393 2.934c1.215 0 2.033-.591 2.225-1.502l-1.259-.083c-.138.374-.489.569-.943.569-.681 0-1.112-.451-1.112-1.182v-.004h3.343v-.374c0-1.668-1.01-2.492-2.308-2.492-1.445 0-2.381 1.025-2.381 2.54 0 1.557.924 2.528 2.435 2.528Zm-1.089-3.045a1.035 1.035 0 0 1 1.057-1.007c.592 0 1.001.422 1.004 1.007h-2.061Zm6.368 3.045c1.307 0 2.129-.767 2.193-1.895h-1.285c-.08.524-.425.818-.892.818-.636 0-1.048-.533-1.048-1.473 0-.927.415-1.457 1.048-1.457.499 0 .818.329.892.818h1.285c-.058-1.135-.918-1.879-2.199-1.879-1.49 0-2.41 1.032-2.41 2.537 0 1.493.904 2.531 2.416 2.531Zm5.594-5.005h-.923v-1.176h-1.362v1.176h-.671v1.023h.671v2.557c-.006.962.649 1.438 1.637 1.397.351-.013.601-.083.738-.128l-.214-1.013c-.067.012-.211.044-.339.044-.272 0-.46-.102-.46-.479v-2.378h.923v-1.023Zm2.972 5.005c1.489 0 2.416-1.019 2.416-2.531 0-1.521-.927-2.537-2.416-2.537-1.49 0-2.416 1.016-2.416 2.537 0 1.512.926 2.531 2.416 2.531Zm.006-1.054c-.687 0-1.039-.63-1.039-1.486 0-.857.352-1.49 1.039-1.49.674 0 1.026.633 1.026 1.49 0 .856-.352 1.486-1.026 1.486Zm3.214.959h1.362v-2.778c0-.604.441-1.019 1.042-1.019.188 0 .447.032.575.073v-1.208a2.033 2.033 0 0 0-.428-.048c-.55 0-1.001.32-1.18.927h-.051v-.857h-1.32v4.91Zm-83.084-208.254c-.182-1.512-1.327-2.381-2.841-2.381-1.729 0-3.049 1.22-3.049 3.362 0 2.135 1.297 3.362 3.049 3.362 1.677 0 2.691-1.115 2.841-2.32l-1.4-.007c-.131.7-.681 1.103-1.419 1.103-.994 0-1.668-.738-1.668-2.138 0-1.362.664-2.138 1.678-2.138.757 0 1.303.438 1.409 1.157h1.4Zm2.247 1.415c.003-.632.39-1.003.946-1.003.553 0 .879.355.876.959v2.883h1.361v-3.126c.004-1.151-.674-1.847-1.697-1.847-.744 0-1.243.351-1.467.93h-.057v-2.503h-1.323v6.546h1.361v-2.839Zm6.411 2.934c1.215 0 2.033-.591 2.224-1.502l-1.259-.083c-.137.374-.489.569-.943.569-.68 0-1.112-.451-1.112-1.182v-.004h3.343v-.374c0-1.668-1.01-2.492-2.307-2.492-1.445 0-2.381 1.025-2.381 2.54 0 1.557.923 2.528 2.435 2.528Zm-1.09-3.045a1.037 1.037 0 0 1 1.058-1.007c.591 0 1 .422 1.004 1.007h-2.062Zm6.388 3.045c1.214 0 2.033-.591 2.224-1.502l-1.259-.083c-.137.374-.489.569-.943.569-.68 0-1.112-.451-1.112-1.182v-.004h3.343v-.374c0-1.668-1.01-2.492-2.307-2.492-1.445 0-2.381 1.025-2.381 2.54 0 1.557.923 2.528 2.435 2.528Zm-1.09-3.045a1.037 1.037 0 0 1 1.058-1.007c.591 0 1 .422 1.004 1.007h-2.062Zm6.762-1.96h-.924v-1.176h-1.361v1.176h-.672v1.023h.672v2.557c-.007.962.648 1.438 1.636 1.397.352-.013.601-.083.738-.128l-.214-1.013c-.067.012-.211.044-.339.044-.271 0-.46-.102-.46-.479v-2.378h.924v-1.023Zm2.206 5.002c.725 0 1.195-.316 1.435-.773h.038v.681h1.291v-3.312c0-1.169-.991-1.661-2.084-1.661-1.176 0-1.949.562-2.138 1.457l1.259.102c.093-.326.384-.566.873-.566.463 0 .729.234.729.636v.02c0 .316-.336.358-1.189.441-.972.089-1.844.415-1.844 1.511 0 .972.693 1.464 1.63 1.464Zm.389-.939c-.418 0-.719-.195-.719-.569 0-.384.317-.572.796-.64.297-.041.783-.111.946-.22v.521c0 .514-.425.908-1.023.908Zm4.712-1.992c.003-.632.39-1.003.946-1.003.553 0 .879.355.876.959v2.883h1.361v-3.126c.003-1.151-.674-1.847-1.697-1.847-.745 0-1.243.351-1.467.93h-.057v-2.503h-1.324v6.546h1.362v-2.839Zm-112.467-51.415c-.182-1.512-1.327-2.381-2.842-2.381-1.729 0-3.049 1.22-3.049 3.362 0 2.135 1.298 3.362 3.049 3.362 1.678 0 2.691-1.115 2.842-2.32l-1.4-.007c-.131.7-.681 1.103-1.419 1.103-.994 0-1.669-.738-1.669-2.138 0-1.362.665-2.138 1.678-2.138.758 0 1.304.438 1.41 1.157h1.4Zm2.285 4.346c.726 0 1.196-.316 1.435-.773h.039v.681h1.291v-3.312c0-1.169-.991-1.661-2.084-1.661-1.176 0-1.949.562-2.138 1.457l1.259.102c.093-.326.384-.566.873-.566.463 0 .728.234.728.636v.02c0 .316-.335.358-1.189.441-.971.089-1.844.415-1.844 1.511 0 .972.694 1.464 1.63 1.464Zm.39-.939c-.418 0-.719-.195-.719-.569 0-.384.317-.572.796-.64.297-.041.783-.111.946-.22v.521c0 .514-.425.908-1.023.908Zm7.751-4.063h-1.441l-1.017 3.513h-.051l-1.019-3.513h-1.439l1.717 4.91h1.534l1.716-4.91Zm2.686 5.005c1.215 0 2.033-.591 2.224-1.502l-1.259-.083c-.137.374-.489.569-.943.569-.68 0-1.112-.451-1.112-1.182v-.004h3.343v-.374c0-1.668-1.01-2.492-2.307-2.492-1.445 0-2.381 1.025-2.381 2.54 0 1.557.923 2.528 2.435 2.528Zm-1.09-3.045a1.037 1.037 0 0 1 1.058-1.007c.591 0 1 .422 1.004 1.007h-2.062ZM140.7 69.837h1.326c-.019-1.167-.978-1.972-2.435-1.972-1.435 0-2.487.792-2.481 1.981-.003.965.678 1.518 1.784 1.783l.713.18c.712.172 1.109.377 1.112.818-.003.479-.457.805-1.16.805-.719 0-1.237-.332-1.282-.987h-1.339c.035 1.415 1.048 2.147 2.637 2.147 1.598 0 2.537-.764 2.54-1.962-.003-1.09-.824-1.668-1.962-1.924l-.588-.14c-.569-.132-1.045-.343-1.035-.813 0-.421.373-.731 1.051-.731.662 0 1.067.3 1.119.814Zm6.845 6.503v-6.75h-1.342v.825h-.061c-.182-.4-.575-.889-1.397-.889-1.077 0-1.987.838-1.987 2.525 0 1.643.872 2.528 1.991 2.528.792 0 1.205-.457 1.393-.866h.042v2.627h1.361Zm-1.333-4.295c0 .876-.377 1.451-1.032 1.451-.668 0-1.032-.594-1.032-1.451 0-.85.358-1.435 1.032-1.435.662 0 1.032.56 1.032 1.435Zm5.49.364c.003.659-.447 1.004-.936 1.004-.515 0-.847-.361-.85-.94V69.59h-1.362v3.126c.003 1.148.674 1.847 1.662 1.847.738 0 1.269-.38 1.489-.955h.051v.891h1.308V69.59h-1.362v2.82Zm3.77 2.183c.725 0 1.195-.316 1.435-.773h.038v.68h1.291v-3.31c0-1.17-.991-1.662-2.084-1.662-1.176 0-1.949.562-2.138 1.457l1.259.102c.093-.326.384-.566.873-.566.463 0 .729.234.729.636v.02c0 .316-.336.358-1.189.44-.972.09-1.844.416-1.844 1.512 0 .972.693 1.464 1.63 1.464Zm.389-.94c-.418 0-.719-.194-.719-.568 0-.384.317-.572.796-.64.297-.041.783-.111.946-.22v.52c0 .516-.425.909-1.023.909Zm3.35.847h1.362v-2.777c0-.604.441-1.02 1.042-1.02.188 0 .447.033.575.074v-1.208a2.045 2.045 0 0 0-.428-.048c-.55 0-1.001.32-1.18.927h-.051v-.857h-1.32v4.91Zm5.611.096c1.214 0 2.032-.59 2.224-1.502l-1.259-.083c-.138.374-.489.57-.943.57-.681 0-1.112-.452-1.112-1.183v-.004h3.343v-.374c0-1.668-1.01-2.493-2.308-2.493-1.444 0-2.381 1.026-2.381 2.541 0 1.557.924 2.528 2.436 2.528Zm-1.09-3.045a1.037 1.037 0 0 1 1.058-1.007c.591 0 1 .422 1.003 1.007h-2.061Zm45.688-13.213h1.326c-.019-1.167-.978-1.972-2.435-1.972-1.435 0-2.487.792-2.48 1.981-.003.965.677 1.518 1.783 1.784l.713.178c.713.173 1.109.378 1.112.819-.003.479-.457.805-1.16.805-.719 0-1.237-.332-1.282-.988h-1.339c.035 1.416 1.048 2.148 2.637 2.148 1.598 0 2.537-.764 2.541-1.962-.004-1.09-.825-1.669-1.963-1.924l-.588-.14c-.569-.132-1.045-.343-1.035-.813 0-.422.374-.731 1.051-.731.662 0 1.068.3 1.119.815Zm4.851-.247h-.924v-1.176h-1.361v1.176h-.671v1.023h.671v2.557c-.006.962.649 1.438 1.636 1.397.352-.013.601-.084.739-.128l-.215-1.013c-.067.012-.21.044-.338.044-.272 0-.461-.102-.461-.479v-2.378h.924V58.09Zm2.206 5.002c.725 0 1.195-.316 1.435-.773h.038v.68h1.291v-3.31c0-1.17-.99-1.663-2.083-1.663-1.177 0-1.95.563-2.139 1.458l1.26.102c.092-.326.383-.566.872-.566.464 0 .729.234.729.636v.02c0 .316-.336.358-1.189.44-.972.09-1.844.416-1.844 1.512 0 .972.693 1.464 1.63 1.464Zm.39-.94c-.419 0-.719-.194-.719-.568 0-.384.316-.572.795-.64.298-.041.783-.111.946-.22v.52c0 .516-.425.909-1.022.909Zm3.35.847h1.361V58.09h-1.361V63Zm.684-5.541c.406 0 .738-.31.738-.69 0-.378-.332-.688-.738-.688-.403 0-.735.31-.735.687 0 .38.332.69.735.69Zm1.687 5.541h1.361v-2.777c0-.604.441-1.02 1.042-1.02.189 0 .448.033.576.074v-1.208a2.055 2.055 0 0 0-.429-.048c-.549 0-1 .32-1.179.927h-.051v-.857h-1.32V63Zm7.686-3.509c-.121-.904-.85-1.464-2.09-1.464-1.256 0-2.084.582-2.081 1.528-.003.735.46 1.212 1.419 1.403l.85.17c.429.086.624.242.63.489-.006.29-.323.498-.799.498-.486 0-.809-.207-.892-.607l-1.339.07c.128.94.927 1.518 2.228 1.518 1.272 0 2.183-.648 2.186-1.617-.003-.71-.467-1.134-1.419-1.33l-.889-.178c-.457-.1-.626-.256-.623-.492-.003-.294.329-.486.751-.486.473 0 .754.259.822.575l1.246-.077ZM100.099 162.5h2.797c1.47 0 2.253-.768 2.253-1.809 0-.969-.693-1.554-1.438-1.589v-.064c.681-.153 1.182-.636 1.182-1.406 0-.981-.728-1.678-2.173-1.678h-2.621v6.546Zm1.384-1.132v-1.739h1.16c.665 0 1.078.384 1.078.924 0 .492-.336.815-1.11.815h-1.128Zm0-2.675v-1.62h1.052c.613 0 .962.316.962.789 0 .518-.422.831-.988.831h-1.026Zm5.86 3.899c.725 0 1.195-.316 1.435-.773h.038v.681h1.291v-3.312c0-1.169-.99-1.661-2.083-1.661-1.176 0-1.95.562-2.138 1.457l1.259.102c.092-.326.383-.566.872-.566.464 0 .729.234.729.636v.02c0 .316-.336.358-1.189.441-.972.089-1.844.415-1.844 1.511 0 .972.693 1.464 1.63 1.464Zm.39-.939c-.419 0-.719-.195-.719-.569 0-.384.316-.572.796-.64.297-.041.783-.111.946-.22v.521c0 .514-.426.908-1.023.908Zm5.568.942c1.307 0 2.128-.767 2.192-1.895h-1.285c-.079.524-.425.818-.891.818-.636 0-1.049-.533-1.049-1.473 0-.927.416-1.457 1.049-1.457.498 0 .818.329.891.818h1.285c-.057-1.135-.917-1.879-2.199-1.879-1.489 0-2.409 1.032-2.409 2.537 0 1.493.904 2.531 2.416 2.531Zm2.983-.095h1.361v-1.56l.368-.419 1.339 1.979h1.595l-1.914-2.784 1.821-2.126h-1.563l-1.572 1.864h-.074v-3.5h-1.361v6.546Zm7.185 0h1.384v-2.704h2.809v2.704h1.381v-6.546h-1.381v2.701h-2.809v-2.701h-1.384v6.546Zm8.008.092c.725 0 1.195-.316 1.435-.773h.038v.681h1.292v-3.312c0-1.169-.991-1.661-2.084-1.661-1.176 0-1.95.562-2.138 1.457l1.259.102c.092-.326.383-.566.872-.566.464 0 .729.234.729.636v.02c0 .316-.336.358-1.189.441-.972.089-1.844.415-1.844 1.511 0 .972.694 1.464 1.63 1.464Zm.39-.939c-.419 0-.719-.195-.719-.569 0-.384.316-.572.796-.64.297-.041.783-.111.946-.22v.521c0 .514-.425.908-1.023.908Zm4.711-5.699h-1.361v6.546h1.361v-6.546Zm2.371 0h-1.361v6.546h1.361v-6.546Zm5.095 3.036c-.122-.904-.851-1.463-2.091-1.463-1.256 0-2.083.581-2.08 1.527-.003.735.46 1.211 1.419 1.403l.85.17c.428.086.623.243.63.489-.007.29-.323.498-.799.498-.486 0-.809-.208-.892-.607l-1.339.07c.128.94.927 1.518 2.227 1.518 1.272 0 2.183-.648 2.186-1.617-.003-.709-.466-1.134-1.419-1.329l-.888-.179c-.457-.099-.626-.256-.623-.493-.003-.294.329-.485.751-.485.473 0 .754.259.821.575l1.247-.077ZM186.598 367h1.384v-2.704h2.809V367h1.381v-6.546h-1.381v2.701h-2.809v-2.701h-1.384V367Zm8.826.095c1.49 0 2.417-1.019 2.417-2.531 0-1.521-.927-2.537-2.417-2.537-1.489 0-2.416 1.016-2.416 2.537 0 1.512.927 2.531 2.416 2.531Zm.007-1.054c-.687 0-1.039-.63-1.039-1.486 0-.857.352-1.49 1.039-1.49.674 0 1.026.633 1.026 1.49 0 .856-.352 1.486-1.026 1.486Zm6.362-1.132c.003.659-.447 1.004-.936 1.004-.515 0-.847-.361-.851-.94v-2.883h-1.361v3.126c.003 1.148.674 1.847 1.662 1.847.738 0 1.269-.38 1.489-.955h.051V367h1.307v-4.91h-1.361v2.819Zm6.454-1.419c-.121-.904-.85-1.463-2.09-1.463-1.256 0-2.084.581-2.081 1.527-.003.735.46 1.211 1.419 1.403l.85.17c.429.086.624.243.63.489-.006.29-.323.498-.799.498-.486 0-.809-.208-.892-.607l-1.339.07c.128.94.927 1.518 2.228 1.518 1.272 0 2.183-.648 2.186-1.617-.003-.709-.467-1.134-1.419-1.329l-.889-.179c-.457-.099-.626-.256-.623-.493-.003-.294.329-.485.751-.485.473 0 .754.259.822.575l1.246-.077Zm3.125 3.605c1.215 0 2.033-.591 2.225-1.502l-1.259-.083c-.138.374-.489.569-.943.569-.681 0-1.112-.451-1.112-1.182v-.004h3.343v-.374c0-1.668-1.01-2.492-2.308-2.492-1.444 0-2.381 1.025-2.381 2.54 0 1.557.924 2.528 2.435 2.528Zm-1.089-3.045a1.035 1.035 0 0 1 1.057-1.007c.592 0 1.001.422 1.004 1.007h-2.061Zm35.776-1.955h2.004v5.405h1.368v-5.405h2.004v-1.141h-5.376v1.141Zm7.661 5.5c1.489 0 2.416-1.019 2.416-2.531 0-1.521-.927-2.537-2.416-2.537-1.49 0-2.416 1.016-2.416 2.537 0 1.512.926 2.531 2.416 2.531Zm.006-1.054c-.687 0-1.039-.63-1.039-1.486 0-.857.352-1.49 1.039-1.49.675 0 1.026.633 1.026 1.49 0 .856-.351 1.486-1.026 1.486Zm3.214 2.799h1.362v-2.627h.041c.189.409.601.866 1.394.866 1.118 0 1.991-.885 1.991-2.528 0-1.687-.911-2.524-1.988-2.524-.821 0-1.215.488-1.397.888h-.06v-.825h-1.343v6.75Zm1.333-4.295c0-.876.371-1.435 1.032-1.435.675 0 1.033.585 1.033 1.435 0 .857-.365 1.451-1.033 1.451-.655 0-1.032-.575-1.032-1.451Zm6.309-4.091v6.546h1.342v-4.277h.055l1.694 4.245h.914l1.694-4.229h.054v4.261h1.342v-6.546h-1.706l-1.803 4.398h-.077l-1.802-4.398h-1.707Zm8.129 6.546h1.361v-4.91h-1.361v4.91Zm.684-5.542c.406 0 .738-.31.738-.691 0-.377-.332-.687-.738-.687-.403 0-.735.31-.735.687 0 .381.332.691.735.691Zm3.496 5.621c.793 0 1.205-.457 1.393-.866h.058v.787h1.342v-6.546h-1.358v2.461h-.042c-.182-.4-.575-.888-1.396-.888-1.077 0-1.988.837-1.988 2.524 0 1.643.872 2.528 1.991 2.528Zm.431-1.083c-.667 0-1.032-.594-1.032-1.451 0-.85.358-1.435 1.032-1.435.662 0 1.033.559 1.033 1.435s-.377 1.451-1.033 1.451Zm-38.584 260.503.486-1.492h2.362l.486 1.492h1.483l-2.257-6.545h-1.783l-2.259 6.545h1.482Zm.838-2.572.805-2.477h.051l.806 2.477h-1.662Zm6.688-3.973v6.545h1.342v-4.276h.054l1.694 4.245h.914l1.694-4.229h.055v4.26h1.342v-6.545h-1.707l-1.802 4.398h-.077l-1.803-4.398h-1.706Zm9.528 6.638c.726 0 1.196-.316 1.435-.773h.039v.68h1.291v-3.311c0-1.169-.991-1.662-2.084-1.662-1.176 0-1.949.563-2.138 1.458l1.259.102c.093-.326.384-.566.873-.566.463 0 .728.234.728.636v.02c0 .316-.335.358-1.189.441-.971.089-1.844.415-1.844 1.511 0 .972.694 1.464 1.63 1.464Zm.39-.939c-.418 0-.719-.195-.719-.569 0-.384.317-.572.796-.64.297-.041.783-.111.946-.22v.521c0 .514-.425.908-1.023.908Zm3.35.846h1.362v-4.909h-1.362v4.909Zm.684-5.541c.406 0 .738-.31.738-.691 0-.377-.332-.687-.738-.687-.403 0-.735.31-.735.687 0 .381.332.691.735.691Zm3.049 2.703c.003-.632.38-1.003.93-1.003.546 0 .876.358.872.959v2.882h1.362v-3.125c0-1.144-.671-1.848-1.694-1.848-.729 0-1.256.358-1.477.931h-.057v-.867h-1.298v4.909h1.362v-2.838ZM398.038 189h4.19v-1.141h-2.806v-5.405h-1.384V189Zm6.4.092c.725 0 1.195-.316 1.435-.773h.038V189h1.291v-3.312c0-1.169-.99-1.661-2.083-1.661-1.177 0-1.95.562-2.139 1.457l1.26.102c.092-.326.383-.566.872-.566.464 0 .729.234.729.636v.02c0 .316-.336.358-1.189.441-.972.089-1.844.415-1.844 1.511 0 .972.693 1.464 1.63 1.464Zm.39-.939c-.419 0-.719-.195-.719-.569 0-.384.316-.572.795-.64.298-.041.783-.111.946-.22v.521c0 .514-.425.908-1.022.908Zm4.711-1.992c.003-.632.38-1.003.93-1.003.547 0 .876.358.873.959V189h1.361v-3.126c0-1.144-.671-1.847-1.694-1.847-.728 0-1.256.357-1.476.93h-.058v-.867h-1.297V189h1.361v-2.839Zm6.393 2.934c1.215 0 2.033-.591 2.225-1.502l-1.259-.083c-.138.374-.489.569-.943.569-.681 0-1.112-.451-1.112-1.182v-.004h3.343v-.374c0-1.668-1.01-2.492-2.308-2.492-1.444 0-2.381 1.025-2.381 2.54 0 1.557.924 2.528 2.435 2.528Zm-1.089-3.045a1.036 1.036 0 0 1 1.058-1.007c.591 0 1 .422 1.003 1.007h-2.061ZM380.17 301h1.349l1.243-4.28h.051l1.247 4.28h1.348l1.873-6.546h-1.512l-1.083 4.558h-.057l-1.193-4.558h-1.294l-1.195 4.548h-.055l-1.083-4.548h-1.512L380.17 301Zm7.745 0h1.362v-4.91h-1.362V301Zm.684-5.542c.406 0 .739-.31.739-.691 0-.377-.333-.687-.739-.687-.402 0-.735.31-.735.687 0 .381.333.691.735.691Zm3.049 2.703c.003-.632.38-1.003.93-1.003.547 0 .876.358.873.959V301h1.361v-3.126c0-1.144-.671-1.847-1.694-1.847-.729 0-1.256.357-1.476.93h-.058v-.867h-1.298V301h1.362v-2.839Zm5.965 2.918c.793 0 1.205-.457 1.394-.866h.057V301h1.342v-6.546h-1.358v2.461h-.041c-.183-.4-.576-.888-1.397-.888-1.077 0-1.988.837-1.988 2.524 0 1.643.872 2.528 1.991 2.528Zm.432-1.083c-.668 0-1.033-.594-1.033-1.451 0-.85.358-1.435 1.033-1.435.661 0 1.032.559 1.032 1.435s-.377 1.451-1.032 1.451Zm5.618 1.099c1.489 0 2.416-1.019 2.416-2.531 0-1.521-.927-2.537-2.416-2.537-1.49 0-2.416 1.016-2.416 2.537 0 1.512.926 2.531 2.416 2.531Zm.006-1.054c-.687 0-1.039-.63-1.039-1.486 0-.857.352-1.49 1.039-1.49.675 0 1.026.633 1.026 1.49 0 .856-.351 1.486-1.026 1.486Zm4.06.959h1.438l.844-3.088h.06l.844 3.088h1.441l1.333-4.91h-1.374l-.748 3.28h-.041l-.806-3.28h-1.352l-.792 3.299h-.045l-.761-3.299h-1.377l1.336 4.91Zm-110.681 12.246c-.182-1.512-1.326-2.381-2.841-2.381-1.729 0-3.049 1.22-3.049 3.362 0 2.135 1.297 3.362 3.049 3.362 1.678 0 2.691-1.115 2.841-2.32l-1.4-.007c-.131.7-.681 1.103-1.419 1.103-.994 0-1.668-.738-1.668-2.138 0-1.362.665-2.138 1.678-2.138.757 0 1.304.438 1.409 1.157h1.4Zm4.034 2.163c.003.659-.447 1.004-.936 1.004-.515 0-.847-.361-.851-.94v-2.883h-1.361v3.126c.003 1.148.674 1.847 1.662 1.847.738 0 1.269-.38 1.489-.955h.051v.892h1.307v-4.91h-1.361v2.819Zm2.395 2.091h1.342v-.787h.061c.189.409.601.866 1.394.866 1.118 0 1.991-.885 1.991-2.528 0-1.687-.911-2.524-1.988-2.524-.822 0-1.215.488-1.397.888h-.041v-2.461h-1.362v6.546Zm1.333-2.455c0-.876.371-1.435 1.032-1.435.675 0 1.032.585 1.032 1.435 0 .857-.364 1.451-1.032 1.451-.655 0-1.032-.575-1.032-1.451Zm4.308 2.455h1.342v-.787h.061c.188.409.601.866 1.393.866 1.119 0 1.991-.885 1.991-2.528 0-1.687-.91-2.524-1.988-2.524-.821 0-1.214.488-1.396.888h-.042v-2.461h-1.361v6.546Zm1.333-2.455c0-.876.37-1.435 1.032-1.435.674 0 1.032.585 1.032 1.435 0 .857-.364 1.451-1.032 1.451-.655 0-1.032-.575-1.032-1.451Zm4.955 4.295c1.014 0 1.551-.517 1.829-1.31l1.908-5.433-1.442-.007-1.026 3.606h-.051l-1.016-3.606h-1.432l1.761 5.05-.08.208c-.179.46-.521.482-1 .335l-.307 1.017c.195.083.511.14.856.14ZM412.89 90c1.994 0 3.202-1.234 3.202-3.28 0-2.039-1.208-3.266-3.183-3.266h-2.34V90h2.321Zm-.937-1.186V84.64h.882c1.228 0 1.876.626 1.876 2.08 0 1.461-.648 2.094-1.879 2.094h-.879Zm7.276 1.281c1.489 0 2.416-1.02 2.416-2.53 0-1.522-.927-2.538-2.416-2.538-1.49 0-2.417 1.016-2.417 2.537 0 1.512.927 2.531 2.417 2.531Zm.006-1.054c-.687 0-1.039-.63-1.039-1.486 0-.857.352-1.49 1.039-1.49.674 0 1.026.633 1.026 1.49 0 .856-.352 1.486-1.026 1.486Zm5.432 1.054c1.489 0 2.416-1.02 2.416-2.53 0-1.522-.927-2.538-2.416-2.538-1.489 0-2.416 1.016-2.416 2.537 0 1.512.927 2.531 2.416 2.531Zm.007-1.054c-.688 0-1.039-.63-1.039-1.486 0-.857.351-1.49 1.039-1.49.674 0 1.025.633 1.025 1.49 0 .856-.351 1.486-1.025 1.486Zm3.214.959h1.361v-2.778c0-.604.441-1.02 1.042-1.02.189 0 .447.033.575.074v-1.208a2.045 2.045 0 0 0-.428-.048c-.55 0-1 .32-1.179.927h-.051v-.857h-1.32V90Zm7.686-3.51c-.122-.904-.85-1.463-2.09-1.463-1.256 0-2.084.581-2.081 1.527-.003.735.46 1.212 1.419 1.403l.85.17c.428.086.623.243.63.489-.007.29-.323.498-.799.498-.486 0-.809-.208-.892-.607l-1.339.07c.128.94.927 1.518 2.228 1.518 1.272 0 2.182-.648 2.186-1.617-.004-.71-.467-1.134-1.419-1.33l-.889-.178c-.457-.1-.626-.256-.623-.492-.003-.294.329-.486.751-.486.473 0 .754.259.821.575l1.247-.077ZM342.175 59.5h1.384v-2.32h1.01l1.24 2.32h1.527l-1.39-2.544c.745-.32 1.157-.969 1.157-1.864 0-1.3-.86-2.138-2.346-2.138h-2.582V59.5Zm1.384-3.433v-1.982h.933c.799 0 1.186.355 1.186 1.007 0 .649-.387.975-1.18.975h-.939Zm5.815 3.525c.726 0 1.196-.316 1.435-.773h.039v.68h1.291v-3.31c0-1.17-.991-1.663-2.084-1.663-1.176 0-1.95.563-2.138 1.458l1.259.102c.093-.326.384-.566.873-.566.463 0 .728.234.728.636v.02c0 .316-.335.358-1.189.44-.971.09-1.844.416-1.844 1.512 0 .972.694 1.464 1.63 1.464Zm.39-.94c-.418 0-.719-.194-.719-.568 0-.384.317-.572.796-.64.297-.041.783-.111.946-.22v.52c0 .516-.425.909-1.023.909Zm3.35.847h1.362v-2.946c0-.543.345-.905.799-.905.447 0 .748.307.748.79v3.061h1.319v-2.997c0-.509.291-.854.787-.854.434 0 .76.272.76.819v3.032h1.359v-3.301c0-1.064-.633-1.672-1.547-1.672-.719 0-1.279.368-1.48.93h-.051c-.157-.568-.658-.93-1.333-.93-.661 0-1.163.352-1.368.93h-.057v-.866h-1.298v4.91Zm8.128 1.841h1.362v-2.627h.041c.189.41.601.866 1.394.866 1.118 0 1.991-.885 1.991-2.528 0-1.687-.911-2.525-1.988-2.525-.822 0-1.215.49-1.397.889h-.061v-.825h-1.342v6.75Zm1.333-4.295c0-.876.371-1.435 1.032-1.435.675 0 1.033.585 1.033 1.435 0 .856-.365 1.451-1.033 1.451-.655 0-1.032-.575-1.032-1.451ZM310.384 161h1.349l1.243-4.28h.052l1.246 4.28h1.349l1.873-6.546h-1.512l-1.084 4.558h-.057l-1.192-4.558h-1.295l-1.195 4.548h-.054l-1.084-4.548h-1.511l1.872 6.546Zm9.436.095c1.49 0 2.417-1.019 2.417-2.531 0-1.521-.927-2.537-2.417-2.537-1.489 0-2.416 1.016-2.416 2.537 0 1.512.927 2.531 2.416 2.531Zm.007-1.054c-.687 0-1.039-.63-1.039-1.486 0-.857.352-1.49 1.039-1.49.674 0 1.026.633 1.026 1.49 0 .856-.352 1.486-1.026 1.486Zm5.432 1.054c1.489 0 2.416-1.019 2.416-2.531 0-1.521-.927-2.537-2.416-2.537-1.489 0-2.416 1.016-2.416 2.537 0 1.512.927 2.531 2.416 2.531Zm.006-1.054c-.687 0-1.038-.63-1.038-1.486 0-.857.351-1.49 1.038-1.49.675 0 1.026.633 1.026 1.49 0 .856-.351 1.486-1.026 1.486Zm5.023 1.038c.793 0 1.205-.457 1.394-.866h.057V161h1.343v-6.546h-1.359v2.461h-.041c-.182-.4-.575-.888-1.397-.888-1.077 0-1.988.837-1.988 2.524 0 1.643.873 2.528 1.991 2.528Zm.432-1.083c-.668 0-1.032-.594-1.032-1.451 0-.85.357-1.435 1.032-1.435.661 0 1.032.559 1.032 1.435s-.377 1.451-1.032 1.451ZM472.426 93.5h1.384v-2.32h1.01l1.24 2.32h1.528l-1.39-2.544c.744-.32 1.156-.969 1.156-1.864 0-1.3-.859-2.138-2.345-2.138h-2.583V93.5Zm1.384-3.433v-1.982h.933c.799 0 1.186.355 1.186 1.007 0 .649-.387.975-1.179.975h-.94Zm7.564 1.342c.003.659-.447 1.004-.936 1.004-.515 0-.847-.361-.851-.94V88.59h-1.361v3.126c.003 1.148.674 1.847 1.662 1.847.738 0 1.269-.38 1.489-.955h.051v.891h1.307V88.59h-1.361v2.82Zm2.37 2.09h1.361V88.59h-1.361v4.91Zm.683-5.541c.406 0 .739-.31.739-.69 0-.378-.333-.688-.739-.688-.402 0-.735.31-.735.687 0 .38.333.69.735.69Zm3.049 2.703c.003-.632.38-1.003.93-1.003.547 0 .876.358.873.959v2.882h1.361v-3.125c0-1.144-.671-1.847-1.694-1.847-.728 0-1.256.358-1.476.93h-.058v-.867h-1.297v4.91h1.361v-2.84Zm8.241-.67c-.122-.905-.85-1.465-2.09-1.465-1.256 0-2.084.582-2.081 1.528-.003.735.46 1.212 1.419 1.403l.85.17c.428.086.623.243.63.489-.007.29-.323.498-.799.498-.486 0-.809-.208-.892-.607l-1.339.07c.128.94.927 1.518 2.228 1.518 1.272 0 2.182-.648 2.186-1.617-.004-.71-.467-1.134-1.419-1.33l-.889-.178c-.457-.1-.626-.256-.623-.492-.003-.294.329-.486.751-.486.473 0 .754.259.821.575l1.247-.077Zm72.82 160.604h2.004V256h1.368v-5.405h2.003v-1.141h-5.375v1.141Zm8.634 3.314c.004.659-.447 1.004-.936 1.004-.515 0-.847-.361-.85-.94v-2.883h-1.362v3.126c.003 1.148.675 1.847 1.662 1.847.738 0 1.269-.38 1.49-.955h.051V256h1.307v-4.91h-1.362v2.819Zm3.731-.748c.004-.632.381-1.003.93-1.003.547 0 .876.358.873.959V256h1.361v-3.126c0-1.144-.671-1.847-1.693-1.847-.729 0-1.257.357-1.477.93h-.058v-.867h-1.297V256h1.361v-2.839Zm5.518 0c.003-.632.38-1.003.93-1.003.547 0 .876.358.873.959V256h1.361v-3.126c0-1.144-.671-1.847-1.694-1.847-.729 0-1.256.357-1.476.93h-.058v-.867h-1.298V256h1.362v-2.839Zm6.393 2.934c1.215 0 2.033-.591 2.225-1.502l-1.259-.083c-.138.374-.489.569-.943.569-.681 0-1.113-.451-1.113-1.182v-.004h3.344v-.374c0-1.668-1.01-2.492-2.308-2.492-1.445 0-2.381 1.025-2.381 2.54 0 1.557.924 2.528 2.435 2.528Zm-1.09-3.045a1.037 1.037 0 0 1 1.058-1.007c.592 0 1.001.422 1.004 1.007h-2.062Zm5.513-3.596h-1.362V256h1.362v-6.546Zm-263.791 105.5v6.546h1.343v-4.277h.054l1.694 4.245h.914l1.694-4.229h.054v4.261h1.342v-6.546h-1.706l-1.803 4.398h-.076l-1.803-4.398h-1.707Zm8.129 6.546h1.362v-4.91h-1.362v4.91Zm.684-5.542c.406 0 .738-.31.738-.691 0-.377-.332-.687-.738-.687-.403 0-.735.31-.735.687 0 .381.332.691.735.691Zm3.496 5.621c.793 0 1.205-.457 1.394-.866h.057v.787h1.343v-6.546h-1.359v2.461h-.041c-.183-.4-.576-.888-1.397-.888-1.077 0-1.988.837-1.988 2.524 0 1.643.873 2.528 1.991 2.528Zm.432-1.083c-.668 0-1.033-.594-1.033-1.451 0-.85.358-1.435 1.033-1.435.661 0 1.032.559 1.032 1.435s-.377 1.451-1.032 1.451Z"/></g></svg>