<svg xmlns="http://www.w3.org/2000/svg" width="708" height="708" fill="none"><path fill="#181B21" fill-rule="evenodd" d="M701.93 288.966v84.002h-18.065v110.918h2.71v125.732h-5.6V677h-65.756l-23.665-23.846h-62.505v-4.335h-34.685v2.348h-80.208v-22.942h-14.271v-30.53h-40.827v20.775h-10.839v15.174h-2.529v3.794h2.529v32.517h-62.323v-21.136h-59.615v21.136h-42.452v-5.6h-3.613v9.213h-36.852v-9.213h-3.975v5.6h-15.897v-8.13H6.07v-39.742h43.717v-60.337l16.259-25.833h9.393v-1.987h3.433v-5.961h-1.987v-38.479h22.761V371.703h43.356v-44.981l-12.826-14.272h-28v-29.987h74.427v1.806h8.31v19.872l10.658 16.077v51.485h28.723v-10.658h12.646v10.658h15.355l-6.865 13.007 1.445.903 7.949-13.91h11.742v-29.445H256.45v-33.421h10.116v-28.903h-29.988v1.626h-29.807v-6.504h-29.084v4.878h-72.982v-5.6H76.523v6.142h-9.755v-122.48H19.077V64.419h47.691v-4.877h78.763V34.071L182.564 31h36.311v12.464h7.587v7.587l18.968 10.84h42.091v2.348h56.363l3.793-31.433h118.867v29.807h-5.238v3.071h25.471v52.388h-25.471v3.071h19.871v48.595h-66.659v-2.168h-14.994l-10.478 9.936v13.006h-2.168v9.575h2.168v3.974h1.084l7.587 11.562 1.265-1.084-7.046-10.478h2.891v-7.406h67.201v7.406h.903l7.046 11.02 1.084-.542-6.504-10.478h3.794v-2.529h2.71v-4.877l55.278 1.083 53.472-3.793v40.465h-5.419v24.388h39.02v-12.465h61.601v42.633h26.917ZM144.628 528.325h-52.93v6.142h52.93v-.722l13.368 7.406v-1.987l-13.368-7.226v-3.613Zm158.248-23.303h3.613v22.219h2.168v4.155h-2.168v33.42h2.168v3.613h-2.168v17.162h-20.774v38.298h1.806v2.348h-61.42v-29.626h30.168v-20.414l-17.162-8.31-30.71-29.265h-27.82v-4.155h-6.323v-.722l-13.187-5.962v-1.806l13.187 5.961v-3.613h6.323v-8.852h4.697v-33.6h-4.697v-26.736h4.697v-20.052h-4.697v-23.846h68.105v-12.826h2.529l7.406-13.549 1.265.723-6.503 12.826h21.497v5.961h-9.394v103.332h1.626v4.877h33.962v-4.877h1.806v-6.684Zm311.439-102.609H482.08v27.459l-52.207 9.574v-16.8h-33.601V401.69h-23.484v5.42h-40.646v-5.42h-37.575v6.684h8.309v74.247h.635l.876-.001c25.619-.016 44.736-.029 44.736 44.621h-1.988v4.155h1.988v32.336h-1.988v4.697h3.433v-2.167h8.852v8.671h40.465v-31.614h13.729v-16.078h16.259l56.001-8.49c7.467-.241 22.4-.578 22.4 0v15.897l9.575 9.574h24.749l10.297-10.297v-29.626h-15.898v-31.794h77.318v-70.092ZM191.416 121.865v55.821h-5.6v60.517h112.725v35.407h2.348v57.266l9.394 9.394h114.712l9.575-9.575v-87.434h29.987v1.987h6.142v-12.284h-2.348v-1.806h-2.168l-7.587-12.284-1.084.903 7.045 11.381h-1.987v6.503h-67.021v-6.503h-1.987l-7.045-11.381h-1.445l6.503 11.381h-3.252v3.613h-1.806v6.864h-61.601l-8.13-38.117v-81.653h-50.039v3.432h-41.369v-3.432h-33.962Zm361.117 178.481v5.42h25.472l9.935 9.935v14.994h-5.058v36.491l-10.477 10.478h-29.988v3.252h-66.479l-9.755-9.755v-60.337l10.478-10.478h75.872ZM309.199 601.307h-3.793v-3.974h3.793v3.974Zm36.672 0h3.794v-3.974h-3.794v3.974ZM567.166 206.23a1.445 1.445 0 1 0-2.89 0 1.445 1.445 0 0 0 2.89 0Z" clip-rule="evenodd"/><mask id="a" width="696" height="647" x="6" y="30" maskUnits="userSpaceOnUse" style="mask-type:alpha"><path fill="#181B21" fill-rule="evenodd" d="M701.93 288.966v84.002h-18.065v110.918h2.71v125.732h-5.6V677h-65.756l-23.665-23.846h-62.505v-4.335h-34.685v2.348h-80.208v-22.942h-14.271v-30.53h-40.827v20.775h-10.839v15.174h-2.529v3.794h2.529v32.517h-62.323v-21.136h-59.615v21.136h-42.452v-5.6h-3.613v9.213h-36.852v-9.213h-3.975v5.6h-15.897v-8.13H6.07v-39.742h43.717v-60.337l16.259-25.833h9.393v-1.987h3.433v-5.961h-1.987v-38.479h22.761V371.703h43.356v-44.981l-12.826-14.272h-28v-29.987h74.427v1.806h8.31v19.872l10.658 16.077v51.485h28.723v-10.658h12.646v10.658h15.355l-6.865 13.007 1.445.903 7.949-13.91h11.742v-29.445H256.45v-33.421h10.116v-28.903h-29.988v1.626h-29.807v-6.504h-29.084v4.878h-72.982v-5.6H76.523v6.142h-9.755v-122.48H19.077V64.419h47.691v-4.877h78.763V34.071L182.564 31h36.311v12.464h7.587v7.587l18.968 10.84h42.091v2.348h56.363l3.793-31.433h118.867v29.807h-5.238v3.071h25.471v52.388h-25.471v3.071h19.871v48.595h-66.659v-2.168h-14.994l-10.478 9.936v13.006h-2.168v9.575h2.168v3.974h1.084l7.587 11.562 1.265-1.084-7.046-10.478h2.891v-7.406h67.201v7.406h.903l7.046 11.02 1.084-.542-6.504-10.478h3.794v-2.529h2.71v-4.877l55.278 1.083 53.472-3.793v40.465h-5.419v24.388h39.02v-12.465h61.601v42.633h26.917ZM144.628 528.325h-52.93v6.142h52.93v-.722l13.368 7.406v-1.987l-13.368-7.226v-3.613Zm158.248-23.303h3.613v22.219h2.168v4.155h-2.168v33.42h2.168v3.613h-2.168v17.162h-20.774v38.298h1.806v2.348h-61.42v-29.626h30.168v-20.414l-17.162-8.31-30.71-29.265h-27.82v-4.155h-6.323v-.722l-13.187-5.962v-1.806l13.187 5.961v-3.613h6.323v-8.852h4.697v-33.6h-4.697v-26.736h4.697v-20.052h-4.697v-23.846h68.105v-12.826h2.529l7.406-13.549 1.265.723-6.503 12.826h21.497v5.961h-9.394v103.332h1.626v4.877h33.962v-4.877h1.806v-6.684Zm311.439-102.609H482.08v27.459l-52.207 9.574v-16.8h-33.601V401.69h-23.484v5.42h-40.646v-5.42h-37.575v6.684h8.309v74.247h.635l.876-.001c25.619-.016 44.736-.029 44.736 44.621h-1.988v4.155h1.988v32.336h-1.988v4.697h3.433v-2.167h8.852v8.671h40.465v-31.614h13.729v-16.078h16.259l56.001-8.49c7.467-.241 22.4-.578 22.4 0v15.897l9.575 9.574h24.749l10.297-10.297v-29.626h-15.898v-31.794h77.318v-70.092ZM191.416 121.865v55.821h-5.6v60.517h112.725v35.407h2.348v57.266l9.394 9.394h114.712l9.575-9.575v-87.434h29.987v1.987h6.142v-12.284h-2.348v-1.806h-2.168l-7.587-12.284-1.084.903 7.045 11.381h-1.987v6.503h-67.021v-6.503h-1.987l-7.045-11.381h-1.445l6.503 11.381h-3.252v3.613h-1.806v6.864h-61.601l-8.13-38.117v-81.653h-50.039v3.432h-41.369v-3.432h-33.962Zm361.117 178.481v5.42h25.472l9.935 9.935v14.994h-5.058v36.491l-10.477 10.478h-29.988v3.252h-66.479l-9.755-9.755v-60.337l10.478-10.478h75.872ZM309.199 601.307h-3.793v-3.974h3.793v3.974Zm36.672 0h3.794v-3.974h-3.794v3.974ZM567.166 206.23a1.445 1.445 0 1 0-2.89 0 1.445 1.445 0 0 0 2.89 0Z" clip-rule="evenodd"/></mask><g mask="url(#a)"><path fill="#13161C" d="M185.998 280.837v-43.356h-81.654v37.033l-4.697 5.058-1.626 35.046 44.44 56.543h53.653l4.335-48.414-14.451-41.91Z"/><path fill="#272A30" d="M649.543 645.566v-27.82h12.645v27.82zm-97.551-45.072.28-10.474 10.321.276-.28 10.475zm-12.972-12.012-1.118-10.418 10.265-1.102 1.118 10.419zm-32.057-38.544 1.71-6.649 9.999 2.572-1.71 6.648zm-9.109-12.564 6.031-4.878 6.574 8.128-6.03 4.878z"/><circle cx="539.526" cy="572.764" r="2.71" fill="#272A30" transform="rotate(-90 539.526 572.764)"/><circle cx="504.662" cy="522.003" r="2.168" fill="#272A30" transform="rotate(-90 504.662 522.003)"/><circle cx="543.501" cy="567.346" r="2.71" fill="#272A30" transform="rotate(-90 543.501 567.346)"/><path fill="#272A30" d="M520.197 553.073v-9.394h10.478v9.394zm-93.937 11.563v-40.465h3.613v40.465zm-118.867-26.375v-5.058h11.562v5.058zm-39.381-23.846v-11.562h11.562v11.562zM214.9 617.746v-12.284h11.2v12.284zm-90.324-.362v-16.258h15.897v16.258zm-4.697 45.885v-26.375h3.252v26.375z"/><path fill="#272A30" d="M113.016 656.767V643.76h6.865v13.007zm-62.506-2.89v-9.032h10.116v9.032zm48.775-67.202v-10.478h10.84v10.478zM88.447 554.52v-19.872h10.84v19.871zm-11.924-9.394v-10.478h11.923v10.478zm2.53-10.479v-6.865h12.645v6.865z"/><path fill="#272A30" d="M77.246 527.784v-10.839h19.871v10.84z"/><path stroke="#272A30" d="M305.947 505.383c3.613 0 24.388-2.349 24.388 11.561"/><path fill="#272A30" d="M77.246 496.712v-8.31H97.84v8.31zm95.744 3.613v-11.923h11.562v11.923zm10.479-157.165v-11.923h11.562v11.923zm2.529-91.409v-11.923h11.923v11.923zm-57.809-18.426v-27.459h17.704v27.459z"/><path fill="#272A30" d="M128.189 205.866v-6.865h6.142v6.865zm16.62 149.216v-11.923h11.562v11.923z"/><path fill="#272A30" d="m144.807 350.748-.721-11.901 11.54-.7.722 11.902z"/><path fill="#272A30" d="m148.781 355.805-.721-11.901 11.54-.7.722 11.902zm-4.562-29.626-12.844-13.936 12.712-11.716 12.844 13.936zm22.99 171.617v-5.419h5.058v5.419zm3.613 8.676.768-5.364 12.193 1.746-.768 5.364zm-68.285-92.587 4.475-40.898 14.032 1.535-4.475 40.898zM10.768 635.09v-12.284H22.69v12.284zm12.644-6.866v-5.419h6.142v5.42zm.99 13.367-.564-11.425 6.135-.303.564 11.425zm41.168-66.493 4.437-8.271 8.785 4.712-4.437 8.271zm54.309 42.286v-21.678h3.252v21.678zm-72.982-21.678h72.982v3.252H46.897zm243.515-138.375v-11.562h11.562v11.562zm-23.123 43.737.702-11.54 11.54.7-.701 11.542zm-28.793 82.721-6.933-7.123 7.907-7.695 6.933 7.123zm-22.533 5.415-15.142-23.743 8.66-5.522 15.141 23.743zm70.113 80.569v-20.955h20.955v20.955zm140.184-15.174v-48.414h3.613v48.414zm-5.735-37.937-.932-6.062 5.222-.802.932 6.062zm-109.73-1.277-10.267-6.81 4.184-6.309 10.267 6.81zm11.271-82.302-11.422-1.86.863-5.299 11.422 1.86zm-2.888-7.034-12.146-1.36 1.222-10.911 12.146 1.36zm213.484 80.317V543.5h3.613v46.607h13.007v12.646h63.95v3.613h-80.57Z"/><circle cx="66.95" cy="604.198" r="3.071" fill="#272A30" transform="rotate(-90 66.95 604.198)"/><circle cx="85.737" cy="610.341" r="3.071" fill="#272A30" transform="rotate(-90 85.737 610.341)"/><circle cx="131.983" cy="538.08" r="3.071" fill="#272A30" transform="rotate(-90 131.983 538.08)"/><circle cx="138.126" cy="538.08" r="2.71" fill="#272A30" transform="rotate(-90 138.126 538.08)"/><circle cx="90.073" cy="615.397" r="2.71" fill="#272A30" transform="rotate(-90 90.073 615.397)"/><circle cx="120.963" cy="203.337" r="2.89" fill="#272A30" transform="rotate(-90 120.963 203.337)"/><circle cx="103.26" cy="232.964" r="2.89" fill="#272A30" transform="rotate(-90 103.26 232.964)"/><circle cx="96.035" cy="236.578" r="2.89" fill="#272A30" transform="rotate(-90 96.035 236.578)"/><circle cx="71.828" cy="275.959" r="2.89" fill="#272A30" transform="rotate(-90 71.828 275.959)"/><circle cx="70.021" cy="270.177" r="2.89" fill="#272A30" transform="rotate(-90 70.021 270.177)"/><circle cx="70.021" cy="263.314" r="2.89" fill="#272A30" transform="rotate(-90 70.021 263.314)"/><circle cx="74.717" cy="258.978" r="2.89" fill="#272A30" transform="rotate(-90 74.717 258.978)"/><circle cx="76.523" cy="265.48" r="2.89" fill="#272A30" transform="rotate(-90 76.523 265.48)"/><circle cx="77.969" cy="270.539" r="2.89" fill="#272A30" transform="rotate(-90 77.969 270.539)"/><circle cx="70.021" cy="183.107" r="2.89" fill="#272A30" transform="rotate(-90 70.021 183.107)"/><circle cx="75.078" cy="182.382" r="2.89" fill="#272A30" transform="rotate(-90 75.078 182.382)"/><circle cx="80.859" cy="180.214" r="2.89" fill="#272A30" transform="rotate(-90 80.86 180.214)"/><circle cx="57.736" cy="112.651" r="2.89" fill="#272A30" transform="rotate(-90 57.736 112.651)"/><circle cx="56.652" cy="105.065" r="2.89" fill="#272A30" transform="rotate(-90 56.652 105.065)"/><path fill="#272A30" d="M140.834 119.336c0-.722-52.629-.301-78.943 0v-3.613h82.376v40.827h-16.62v77.318h58.891v3.613h-62.323v-84.544h16.619v-33.601Z"/><circle cx="120.963" cy="196.474" r="2.89" fill="#272A30" transform="rotate(-90 120.963 196.474)"/><circle cx="382.543" cy="188.163" r="2.89" fill="#272A30" transform="rotate(-90 382.543 188.163)"/><circle cx="505.023" cy="297.275" r="2.89" fill="#272A30" transform="rotate(-90 505.023 297.275)"/><circle cx="611.244" cy="262.23" r="2.89" fill="#272A30" transform="rotate(-90 611.244 262.23)"/><circle cx="543.32" cy="478.286" r="1.806" fill="#272A30" transform="rotate(-90 543.32 478.286)"/><circle cx="542.598" cy="475.757" r="1.806" fill="#272A30" transform="rotate(-90 542.598 475.757)"/><circle cx="540.068" cy="476.841" r="1.806" fill="#272A30" transform="rotate(-90 540.068 476.841)"/><circle cx="422.648" cy="356.889" r="2.89" fill="#272A30" transform="rotate(-90 422.648 356.889)"/><circle cx="422.648" cy="351.83" r="2.89" fill="#272A30" transform="rotate(-90 422.648 351.83)"/><path fill="#272A30" d="M67.13 227.544v-9.755h11.563v9.755zm42.995-68.647v-9.755h11.562v9.755zm-13.731-5.806 2.766-9.354 11.088 3.278-2.766 9.355zm8.311-22.374v-10.478h11.562v10.478zm69.281-70.453-3.657-11.547 30.842-9.77 3.658 11.546zm-52.3 54.916v-2.529h11.2v2.529zM69.002 216.706l-1.137-6.15 11.37-2.102 1.136 6.15zm-.734-7.224-1.03-5.573 11.369-2.101 1.03 5.572zm10.81-18.79-3.277-4.623 3.174-2.25 3.277 4.623zM348.22 44.728V34.613h4.697v10.115zm-29.988 161.138V176.24h20.233v29.626zm80.569 3.977v-11.562h19.51v11.562zm125.01 89.239v-10.478h11.2v10.478zm91.769 174.145v-9.755h9.032v9.755zm-36.851 14.451v-11.2h32.517v11.2zm-40.467 15.899v-7.949h7.587v7.949zm0-101.887v-5.781h6.142v5.781z"/><path fill="#272A30" d="M532.121 399.522v-5.781h6.503v5.781z"/><path fill="#272A30" d="m527.424 399.051 2.026-5.415 6.09 2.279-2.025 5.415z"/><path fill="#272A30" d="M518.391 401.69v-11.562h13.368v11.562zm-121.036 16.621v-11.562h11.2v11.562zm76.834 11.897-.6-3.588 6.572-1.098.6 3.588zm-208.707-68.622v-4.697h122.841v4.697z"/><path fill="#272A30" d="M275.961 376.76v-15.175h15.175v15.175zm14.451-125.009v-11.923h6.142v11.923zm-7.588 0v-11.923h6.142v11.923z"/><path stroke="#272A30" d="M236.217 237.48v13.549h24.568"/><path fill="#272A30" d="M568.973 204.061v-8.31h9.394v8.31zm-56.293 96.466-2.6-10.15 10.85-2.779 2.6 10.15zm-110.627-83.821v-5.781h10.839v5.781z"/><path fill="#272A30" d="m408.627 215.261-3.322-4.731 8.871-6.228 3.322 4.731zm98.111 8.949-3.161-11.603 31.522-8.589 3.162 11.603zm-188.506-48.692v-11.923h11.923v11.923zm69.37-54.557v-2.89h73.705v2.89zm0-55.277v-2.89h73.705v2.89zm222.919 337.812v-83.821h3.613v83.821z"/></g><g class="labels"><path stroke="#999CA2" stroke-opacity=".25" stroke-width="1.6" d="M137.75 120.422H95.143a2 2 0 0 0-2 2v40.44a2 2 0 0 0 2 2h26.168a2 2 0 0 0 2-2v-9.188a2 2 0 0 1 2-2h12.439a2 2 0 0 0 2-2v-27.252a2 2 0 0 0-2-2Z"/><mask id="b" width="47" height="45" x="93" y="120" maskUnits="userSpaceOnUse" style="mask-type:alpha"><path fill="#C4C4C4" d="M137.75 120.422H95.143a2 2 0 0 0-2 2v40.44a2 2 0 0 0 2 2h26.168a2 2 0 0 0 2-2v-9.188a2 2 0 0 1 2-2h12.439a2 2 0 0 0 2-2v-27.252a2 2 0 0 0-2-2Z"/></mask><g fill="#999CA2" fill-opacity=".15" mask="url(#b)"><path d="m192.533 144.274-88.596-88.665 1.798-1.8 88.597 88.665zm3.598 10.812-88.596-88.665 1.798-1.8 88.597 88.665zm-3.598 3.6-88.596-88.665 1.798-1.8 88.597 88.665zm-3.599 3.601-88.596-88.665 1.798-1.8 88.597 88.665zm-3.598 3.6L96.74 77.222l1.798-1.8 88.597 88.665zm-3.598 3.602L93.142 80.824l1.798-1.8 88.597 88.665zm-3.597 3.6L89.545 84.424l1.798-1.8 88.597 88.665zm-3.598 3.6L85.947 88.024l1.798-1.8 88.597 88.665zm-3.598 3.601L82.349 91.625l1.798-1.8 88.597 88.665zm-3.597 3.601L78.752 95.226l1.798-1.8 88.597 88.665zm-3.598 3.6L75.154 98.826l1.798-1.8 88.597 88.665zm-3.598 3.601-88.596-88.665 1.798-1.8 88.597 88.665zm-3.597 3.601-88.596-88.665 1.798-1.8 88.597 88.665zm-3.598 3.6-88.596-88.665 1.798-1.8 88.597 88.665zm-3.6 3.601-88.596-88.665 1.798-1.8 88.597 88.665zm-3.597 3.6-88.596-88.665 1.798-1.8 88.597 88.665zm-3.598 3.601L53.566 120.43l1.798-1.8 88.597 88.665zm-3.598 3.6L49.968 124.03l1.798-1.8 88.597 88.665zm-3.597 3.602-88.596-88.665 1.798-1.8 88.597 88.665zm-3.598 3.599-88.596-88.665 1.798-1.8 88.597 88.665zm-3.598 3.601-88.596-88.665 1.798-1.8 88.597 88.665zm-3.597 3.601-88.596-88.665 1.798-1.8 88.597 88.665z"/></g><path stroke="#999CA2" stroke-opacity=".25" stroke-width="1.6" d="M74.162 538.081h-5.044a2 2 0 0 0-1.677.911l-15.163 23.341c-.21.325-.323.703-.323 1.09v28.66a2 2 0 0 0 2 2h61.576a2 2 0 0 0 2-2v-53.627a2 2 0 0 0-2-2h-14.427a2 2 0 0 0-2 2v14.606a2 2 0 0 1-2 2h-7.2a2 2 0 0 1-2-2v-5.393a2 2 0 0 0-2-2h-7.742a2 2 0 0 1-2-2v-3.588a2 2 0 0 0-2-2Z"/><mask id="c" width="67" height="59" x="51" y="536" maskUnits="userSpaceOnUse" style="mask-type:alpha"><path fill="#C4C4C4" d="M74.162 538.081h-5.044a2 2 0 0 0-1.677.911l-15.163 23.341c-.21.325-.323.703-.323 1.09v28.66a2 2 0 0 0 2 2h61.576a2 2 0 0 0 2-2v-53.627a2 2 0 0 0-2-2h-14.427a2 2 0 0 0-2 2v14.606a2 2 0 0 1-2 2h-7.2a2 2 0 0 1-2-2v-5.393a2 2 0 0 0-2-2h-7.742a2 2 0 0 1-2-2v-3.588a2 2 0 0 0-2-2Z"/></mask><g fill="#999CA2" fill-opacity=".15" mask="url(#c)"><path d="m160.535 567.274-88.596-88.665 1.798-1.8 88.597 88.665zm3.598 10.812-88.596-88.665 1.798-1.8 88.597 88.665zm-3.598 3.6-88.596-88.665 1.798-1.8 88.597 88.665zm-3.599 3.601L68.34 496.622l1.798-1.8 88.597 88.665zm-3.598 3.6-88.596-88.665 1.798-1.8 88.597 88.665zm-3.598 3.602-88.596-88.665 1.798-1.8 88.597 88.665zm-3.597 3.6-88.596-88.665 1.798-1.8 88.597 88.665zm-3.598 3.6-88.596-88.665 1.798-1.8 88.597 88.665zm-3.598 3.601-88.596-88.665 1.798-1.8 88.597 88.665zm-3.597 3.601-88.596-88.665 1.798-1.8 88.597 88.665zm-3.598 3.6-88.596-88.665 1.798-1.8 88.597 88.665zm-3.598 3.601-88.596-88.665 1.798-1.8 88.597 88.665zm-3.597 3.601-88.596-88.665 1.798-1.8 88.597 88.665zm-3.598 3.6-88.596-88.665 1.798-1.8 88.597 88.665zm-3.6 3.601-88.596-88.665 1.798-1.8 88.597 88.665zm-3.597 3.6-88.596-88.665 1.798-1.8 88.597 88.665zm-3.598 3.601L21.568 543.43l1.798-1.8 88.597 88.665zm-3.598 3.6L17.97 547.03l1.798-1.8 88.597 88.665zm-3.597 3.602-88.596-88.665 1.798-1.8 88.597 88.665zm-3.598 3.599-88.596-88.665 1.798-1.8 88.597 88.665zm-3.598 3.601L7.177 557.832l1.799-1.8 88.596 88.665zm-3.597 3.601L3.58 561.433l1.798-1.8 88.596 88.665z"/></g><path fill="#E3E5EA" d="M83.402 574.172h4.972c2.613 0 4.005-1.363 4.005-3.216 0-1.721-1.233-2.761-2.557-2.823v-.114c1.21-.273 2.103-1.131 2.103-2.5 0-1.744-1.296-2.983-3.864-2.983h-4.659v11.636Zm2.46-2.011v-3.091h2.063c1.181 0 1.915.682 1.915 1.642 0 .875-.597 1.449-1.972 1.449h-2.006Zm0-4.756v-2.88h1.87c1.09 0 1.71.562 1.71 1.403 0 .92-.75 1.477-1.756 1.477h-1.824Zm26.85-423.233.864-2.653h4.199l.863 2.653h2.637l-4.012-11.636h-3.17l-4.017 11.636h2.636Zm1.489-4.574 1.432-4.403h.091l1.432 4.403h-2.955Z"/><path fill="#30D9D4" fill-opacity=".25" stroke="#30D9D4" stroke-width="1.5" d="M173.519 240.914h-67.898a2 2 0 0 0-2 2v66.092a2 2 0 0 0 2 2h67.898a2 2 0 0 0 2-2v-66.092a2 2 0 0 0-2-2Z"/><path fill="#E44C4D" fill-opacity=".25" stroke="#E44C4D" stroke-width="1.5" d="M615.581 372.259v101.06c0 .948-.769 1.716-1.716 1.716-.948 0-1.717.768-1.717 1.716v30.788a2 2 0 0 0 2 2h55.253a2 2 0 0 0 2-2v-135.28a2 2 0 0 0-2-2h-51.82a2 2 0 0 0-2 2Z"/><path fill="#E44C4D" d="M638.418 437.294h2.672v7.206h1.824v-7.206h2.672v-1.521h-7.168v1.521Z"/><path fill="#30D9D4" d="M139.993 274.828c-.243-2.016-1.768-3.175-3.788-3.175-2.305 0-4.065 1.628-4.065 4.483 0 2.847 1.73 4.483 4.065 4.483 2.237 0 3.588-1.487 3.788-3.093l-1.866-.009c-.175.933-.908 1.47-1.892 1.47-1.326 0-2.225-.984-2.225-2.851 0-1.815.887-2.85 2.238-2.85 1.009 0 1.738.583 1.879 1.542h1.866Zm.883-1.534h2.672v7.206h1.824v-7.206h2.672v-1.521h-7.168v1.521Z"/><path fill="#7F838B" d="M302.522 589.955v4.132c0 .748-.524 1.288-1.33 1.288-.802 0-1.329-.54-1.329-1.288v-4.132h-1.384v4.25c0 1.432 1.08 2.388 2.713 2.388 1.627 0 2.714-.956 2.714-2.388v-4.25h-1.384Zm2.416 8.386h1.361v-2.627h.042c.188.409.601.866 1.393.866 1.119 0 1.991-.885 1.991-2.528 0-1.688-.911-2.525-1.988-2.525-.821 0-1.214.489-1.396.888h-.061v-.824h-1.342v6.75Zm1.332-4.296c0-.875.371-1.435 1.033-1.435.674 0 1.032.585 1.032 1.435 0 .857-.364 1.451-1.032 1.451-.656 0-1.033-.575-1.033-1.451Zm4.282 4.296h1.361v-2.627h.042c.189.409.601.866 1.393.866 1.119 0 1.992-.885 1.992-2.528 0-1.688-.911-2.525-1.988-2.525-.822 0-1.215.489-1.397.888h-.061v-.824h-1.342v6.75Zm1.333-4.296c0-.875.37-1.435 1.032-1.435.674 0 1.032.585 1.032 1.435 0 .857-.364 1.451-1.032 1.451-.655 0-1.032-.575-1.032-1.451Zm6.518 2.551c1.215 0 2.033-.591 2.225-1.502l-1.259-.083c-.138.374-.489.569-.943.569-.681 0-1.112-.451-1.112-1.183v-.003h3.343v-.374c0-1.668-1.01-2.493-2.308-2.493-1.444 0-2.381 1.026-2.381 2.541 0 1.556.924 2.528 2.435 2.528Zm-1.089-3.046a1.036 1.036 0 0 1 1.057-1.007c.592 0 1.001.422 1.004 1.007h-2.061Zm4.15 2.95h1.362v-2.777c0-.604.441-1.02 1.042-1.02.188 0 .447.032.575.074v-1.208a2.033 2.033 0 0 0-.428-.048c-.55 0-1.001.319-1.18.926h-.051v-.856h-1.32v4.909Zm5.38-5.404h2.004v5.404h1.368v-5.404h2.004v-1.141h-5.376v1.141Zm8.635 3.314c.003.658-.448 1.003-.937 1.003-.514 0-.847-.361-.85-.939v-2.883h-1.361v3.126c.003 1.147.674 1.847 1.661 1.847.739 0 1.269-.38 1.49-.956h.051v.892h1.307v-4.909h-1.361v2.819Zm3.731-.748c.003-.633.38-1.004.93-1.004.546 0 .875.358.872.959v2.883h1.362v-3.126c0-1.144-.671-1.847-1.694-1.847-.729 0-1.256.358-1.477.93h-.057v-.866h-1.298v4.909h1.362v-2.838Zm5.517 0c.003-.633.381-1.004.93-1.004.547 0 .876.358.873.959v2.883h1.361v-3.126c0-1.144-.671-1.847-1.694-1.847-.728 0-1.256.358-1.476.93h-.058v-.866h-1.297v4.909h1.361v-2.838Zm6.394 2.934c1.214 0 2.032-.591 2.224-1.502l-1.259-.083c-.138.374-.489.569-.943.569-.681 0-1.112-.451-1.112-1.183v-.003h3.343v-.374c0-1.668-1.01-2.493-2.308-2.493-1.444 0-2.381 1.026-2.381 2.541 0 1.556.924 2.528 2.436 2.528Zm-1.09-3.046a1.038 1.038 0 0 1 1.058-1.007c.591 0 1 .422 1.003 1.007h-2.061Zm5.512-3.595h-1.362v6.545h1.362v-6.545ZM254.439 453.5h4.19v-1.141h-2.806v-5.404h-1.384v6.545Zm7.218.096c1.489 0 2.416-1.02 2.416-2.531 0-1.522-.927-2.538-2.416-2.538-1.489 0-2.416 1.016-2.416 2.538 0 1.511.927 2.531 2.416 2.531Zm.007-1.055c-.688 0-1.039-.629-1.039-1.486 0-.856.351-1.489 1.039-1.489.674 0 1.025.633 1.025 1.489 0 .857-.351 1.486-1.025 1.486Zm4.059.959h1.438l.844-3.087h.061l.843 3.087h1.442l1.333-4.909h-1.375l-.748 3.279h-.041l-.806-3.279h-1.351l-.793 3.298h-.045l-.76-3.298h-1.378l1.336 4.909Zm8.72.096c1.214 0 2.033-.591 2.224-1.502l-1.259-.083c-.137.374-.489.569-.943.569-.68 0-1.112-.451-1.112-1.183v-.003h3.343v-.374c0-1.668-1.01-2.493-2.307-2.493-1.445 0-2.381 1.026-2.381 2.541 0 1.556.923 2.528 2.435 2.528Zm-1.09-3.046a1.038 1.038 0 0 1 1.058-1.007c.591 0 1 .422 1.004 1.007h-2.062Zm4.151 2.95h1.361v-2.777c0-.604.441-1.02 1.042-1.02.189 0 .448.032.575.074v-1.208a2.018 2.018 0 0 0-.428-.048c-.55 0-1 .319-1.179.926h-.051v-.856h-1.32v4.909Zm5.38-5.404h2.004v5.404h1.367v-5.404h2.004v-1.141h-5.375v1.141Zm8.634 3.314c.003.658-.447 1.003-.936 1.003-.515 0-.847-.361-.85-.939v-2.883h-1.362v3.126c.003 1.147.674 1.847 1.662 1.847.738 0 1.269-.38 1.489-.956h.051v.892h1.308v-4.909h-1.362v2.819Zm3.731-.748c.003-.633.381-1.004.93-1.004.547 0 .876.358.873.959v2.883h1.361v-3.126c0-1.144-.671-1.847-1.694-1.847-.728 0-1.256.358-1.476.93h-.058v-.866h-1.297v4.909h1.361v-2.838Zm5.518 0c.003-.633.38-1.004.93-1.004.546 0 .876.358.872.959v2.883h1.362v-3.126c0-1.144-.671-1.847-1.694-1.847-.729 0-1.256.358-1.477.93h-.057v-.866h-1.298v4.909h1.362v-2.838Zm6.393 2.934c1.215 0 2.033-.591 2.225-1.502l-1.26-.083c-.137.374-.489.569-.942.569-.681 0-1.113-.451-1.113-1.183v-.003h3.343v-.374c0-1.668-1.01-2.493-2.307-2.493-1.445 0-2.381 1.026-2.381 2.541 0 1.556.923 2.528 2.435 2.528Zm-1.09-3.046a1.038 1.038 0 0 1 1.058-1.007c.591 0 1.001.422 1.004 1.007h-2.062Zm5.512-3.595h-1.361v6.545h1.361v-6.545Zm-83.137-67.5V386h1.343v-4.276h.054l1.694 4.244h.914l1.694-4.228h.054V386h1.342v-6.545h-1.706l-1.803 4.397h-.076l-1.803-4.397h-1.707Zm8.129 6.545h1.362v-4.909h-1.362V386Zm.684-5.542c.406 0 .738-.31.738-.69 0-.377-.332-.687-.738-.687-.403 0-.735.31-.735.687 0 .38.332.69.735.69Zm3.496 5.622c.793 0 1.205-.457 1.394-.866h.057V386h1.343v-6.545h-1.359v2.46h-.041c-.183-.399-.576-.888-1.397-.888-1.077 0-1.988.837-1.988 2.525 0 1.643.873 2.528 1.991 2.528Zm.432-1.084c-.668 0-1.033-.594-1.033-1.451 0-.85.358-1.435 1.033-1.435.661 0 1.032.56 1.032 1.435 0 .876-.377 1.451-1.032 1.451ZM225.89 398c1.994 0 3.202-1.234 3.202-3.279 0-2.039-1.208-3.266-3.183-3.266h-2.34V398h2.321Zm-.937-1.186v-4.174h.882c1.228 0 1.876.627 1.876 2.081 0 1.46-.648 2.093-1.879 2.093h-.879Zm7.276 1.282c1.489 0 2.416-1.02 2.416-2.531 0-1.522-.927-2.538-2.416-2.538-1.49 0-2.417 1.016-2.417 2.538 0 1.511.927 2.531 2.417 2.531Zm.006-1.055c-.687 0-1.039-.629-1.039-1.486 0-.856.352-1.489 1.039-1.489.674 0 1.026.633 1.026 1.489 0 .857-.352 1.486-1.026 1.486Zm5.432 1.055c1.489 0 2.416-1.02 2.416-2.531 0-1.522-.927-2.538-2.416-2.538-1.489 0-2.416 1.016-2.416 2.538 0 1.511.927 2.531 2.416 2.531Zm.007-1.055c-.688 0-1.039-.629-1.039-1.486 0-.856.351-1.489 1.039-1.489.674 0 1.025.633 1.025 1.489 0 .857-.351 1.486-1.025 1.486Zm3.214.959h1.361v-2.777c0-.604.441-1.02 1.042-1.02.189 0 .447.032.575.074v-1.208a2.025 2.025 0 0 0-.428-.048c-.55 0-1 .319-1.179.926h-.051v-.856h-1.32V398Zm7.686-3.509c-.122-.905-.85-1.464-2.09-1.464-1.256 0-2.084.582-2.081 1.528-.003.735.46 1.211 1.419 1.403l.85.169c.428.086.623.243.63.489-.007.291-.323.499-.799.499-.486 0-.809-.208-.892-.608l-1.339.071c.128.939.927 1.518 2.228 1.518 1.272 0 2.182-.649 2.186-1.617-.004-.71-.467-1.135-1.419-1.33l-.889-.179c-.457-.099-.626-.256-.623-.492-.003-.294.329-.486.751-.486.473 0 .754.259.821.575l1.247-.076Zm25.085-33.536h-1.569l2.01 3.272-2.049 3.273h1.586l1.342-2.234h.051l1.342 2.234h1.592l-2.042-3.273 1.997-3.272h-1.563l-1.326 2.23h-.051l-1.32-2.23Zm5.055 6.545h1.342v-.786h.061c.189.409.601.866 1.393.866 1.119 0 1.992-.885 1.992-2.528 0-1.688-.911-2.525-1.988-2.525-.822 0-1.215.489-1.397.888h-.042v-2.46h-1.361v6.545Zm1.333-2.455c0-.875.37-1.435 1.032-1.435.674 0 1.032.585 1.032 1.435 0 .857-.364 1.451-1.032 1.451-.655 0-1.032-.575-1.032-1.451Zm6.5 2.551c1.489 0 2.416-1.02 2.416-2.531 0-1.522-.927-2.538-2.416-2.538-1.489 0-2.416 1.016-2.416 2.538 0 1.511.927 2.531 2.416 2.531Zm.006-1.055c-.687 0-1.038-.629-1.038-1.486 0-.856.351-1.489 1.038-1.489.675 0 1.026.633 1.026 1.489 0 .857-.351 1.486-1.026 1.486Zm4.168-3.95h-1.407l1.407 2.454-1.458 2.455h1.407l.952-1.697.968 1.697h1.391l-1.461-2.455 1.422-2.454h-1.396l-.924 1.716-.901-1.716Zm49.724 18.364v6.545h1.343v-4.276h.054l1.694 4.244h.914l1.694-4.228h.054v4.26h1.342v-6.545h-1.706l-1.803 4.397h-.076l-1.803-4.397h-1.707Zm8.129 6.545h1.362v-4.909h-1.362v4.909Zm.684-5.542c.406 0 .738-.31.738-.69 0-.377-.332-.687-.738-.687-.403 0-.735.31-.735.687 0 .38.332.69.735.69Zm3.496 5.622c.793 0 1.205-.457 1.394-.866h.057v.786h1.343v-6.545h-1.359v2.46h-.041c-.183-.399-.576-.888-1.397-.888-1.077 0-1.988.837-1.988 2.525 0 1.643.873 2.528 1.991 2.528Zm.432-1.084c-.668 0-1.033-.594-1.033-1.451 0-.85.358-1.435 1.033-1.435.661 0 1.032.56 1.032 1.435 0 .876-.377 1.451-1.032 1.451Zm-37.625-41.75c-.182-1.512-1.327-2.381-2.842-2.381-1.729 0-3.049 1.221-3.049 3.362 0 2.135 1.298 3.362 3.049 3.362 1.678 0 2.692-1.115 2.842-2.32l-1.4-.006c-.131.7-.681 1.102-1.419 1.102-.994 0-1.668-.738-1.668-2.138 0-1.361.664-2.138 1.677-2.138.758 0 1.304.438 1.41 1.157h1.4Zm2.285 4.347c.726 0 1.196-.317 1.435-.774h.039V349h1.291v-3.311c0-1.17-.991-1.662-2.084-1.662-1.176 0-1.949.562-2.138 1.457l1.259.103c.093-.326.384-.566.873-.566.463 0 .728.233.728.636v.019c0 .317-.335.358-1.188.441-.972.09-1.845.416-1.845 1.512 0 .971.694 1.464 1.63 1.464Zm.39-.94c-.418 0-.719-.195-.719-.569 0-.383.317-.572.796-.639.297-.042.783-.112.946-.221v.521c0 .515-.425.908-1.023.908Zm5.961-4.062h-.923v-1.176h-1.362v1.176h-.671v1.023h.671v2.556c-.006.962.649 1.439 1.637 1.397.351-.013.6-.083.738-.128l-.214-1.013c-.067.013-.211.045-.339.045-.272 0-.46-.102-.46-.48v-2.377h.923v-1.023Zm1.775 4.909h1.438l.844-3.087h.06l.844 3.087h1.442l1.332-4.909h-1.374l-.748 3.279h-.041l-.806-3.279h-1.352l-.792 3.298h-.045l-.761-3.298h-1.377l1.336 4.909Zm8.005.093c.726 0 1.196-.317 1.435-.774h.039V349h1.291v-3.311c0-1.17-.991-1.662-2.084-1.662-1.176 0-1.949.562-2.138 1.457l1.259.103c.093-.326.384-.566.873-.566.463 0 .728.233.728.636v.019c0 .317-.335.358-1.188.441-.972.09-1.845.416-1.845 1.512 0 .971.694 1.464 1.63 1.464Zm.39-.94c-.418 0-.719-.195-.719-.569 0-.383.317-.572.796-.639.297-.042.783-.112.946-.221v.521c0 .515-.425.908-1.023.908Zm4.712-5.698h-1.362V349h1.362v-6.545Zm1.009 6.545h1.362v-1.56l.367-.418 1.34 1.978h1.594l-1.914-2.784 1.822-2.125h-1.563l-1.573 1.863h-.073v-3.499h-1.362V349Zm-142.036-95.163h1.326c-.019-1.167-.978-1.972-2.435-1.972-1.435 0-2.487.793-2.48 1.982-.004.965.677 1.518 1.783 1.783l.713.179c.712.173 1.109.377 1.112.818-.003.48-.457.806-1.16.806-.719 0-1.237-.333-1.282-.988h-1.339c.035 1.416 1.048 2.148 2.637 2.148 1.598 0 2.537-.764 2.541-1.963-.004-1.09-.825-1.668-1.963-1.924l-.588-.14c-.569-.131-1.045-.342-1.035-.812 0-.422.374-.732 1.051-.732.662 0 1.068.3 1.119.815Zm3.601 1.825c.004-.633.39-1.004.946-1.004.553 0 .879.355.876.959v2.883h1.362v-3.126c.003-1.15-.675-1.847-1.698-1.847-.744 0-1.243.352-1.467.93h-.057v-2.502h-1.323v6.545h1.361v-2.838Zm6.392 2.934c1.489 0 2.416-1.02 2.416-2.531 0-1.522-.927-2.538-2.416-2.538-1.489 0-2.416 1.016-2.416 2.538 0 1.511.927 2.531 2.416 2.531Zm.006-1.055c-.687 0-1.038-.629-1.038-1.486 0-.856.351-1.489 1.038-1.489.675 0 1.026.633 1.026 1.489 0 .857-.351 1.486-1.026 1.486Zm3.215.959h1.361v-2.777c0-.604.441-1.02 1.042-1.02.189 0 .447.032.575.074v-1.208a2.025 2.025 0 0 0-.428-.048c-.55 0-1 .319-1.179.926h-.051v-.856h-1.32v4.909Zm6.458-4.909h-.923v-1.176h-1.362v1.176h-.671v1.023h.671v2.556c-.006.962.649 1.439 1.637 1.397.351-.013.6-.083.738-.128l-.214-1.013c-.067.013-.211.045-.339.045-.272 0-.46-.102-.46-.48v-2.377h.923v-1.023ZM124.96 220h2.797c1.47 0 2.253-.767 2.253-1.809 0-.968-.693-1.553-1.438-1.588v-.064c.681-.154 1.182-.636 1.182-1.407 0-.981-.728-1.677-2.173-1.677h-2.621V220Zm1.384-1.131v-1.739h1.16c.665 0 1.077.383 1.077.924 0 .492-.335.815-1.109.815h-1.128Zm0-2.675v-1.621h1.052c.613 0 .962.317.962.79 0 .517-.422.831-.988.831h-1.026Zm6.678 3.902c1.489 0 2.416-1.02 2.416-2.531 0-1.522-.927-2.538-2.416-2.538-1.489 0-2.416 1.016-2.416 2.538 0 1.511.927 2.531 2.416 2.531Zm.006-1.055c-.687 0-1.038-.629-1.038-1.486 0-.856.351-1.489 1.038-1.489.675 0 1.026.633 1.026 1.489 0 .857-.351 1.486-1.026 1.486Zm5.433 1.055c1.489 0 2.416-1.02 2.416-2.531 0-1.522-.927-2.538-2.416-2.538-1.49 0-2.417 1.016-2.417 2.538 0 1.511.927 2.531 2.417 2.531Zm.006-1.055c-.687 0-1.039-.629-1.039-1.486 0-.856.352-1.489 1.039-1.489.674 0 1.026.633 1.026 1.489 0 .857-.352 1.486-1.026 1.486Zm7.299-2.55c-.122-.905-.851-1.464-2.091-1.464-1.256 0-2.083.582-2.08 1.528-.003.735.46 1.211 1.419 1.403l.85.169c.428.086.623.243.63.489-.007.291-.323.499-.799.499-.486 0-.809-.208-.892-.608l-1.339.071c.128.939.927 1.518 2.227 1.518 1.272 0 2.183-.649 2.186-1.617-.003-.71-.466-1.135-1.419-1.33l-.888-.179c-.457-.099-.626-.256-.623-.492-.003-.294.329-.486.751-.486.473 0 .754.259.821.575l1.247-.076Zm3.499-1.4h-.924v-1.176h-1.361v1.176h-.671v1.023h.671v2.556c-.007.962.649 1.439 1.636 1.397.352-.013.601-.083.738-.128l-.214-1.013c-.067.013-.211.045-.338.045-.272 0-.461-.102-.461-.48v-2.377h.924v-1.023Zm-81.23 17.864h-1.378v4.116H66.6l-2.825-4.116H62.56v6.545h1.384v-4.12h.048l2.848 4.12h1.195v-6.545Zm1.037 6.545h1.361v-4.909h-1.361v4.909Zm.683-5.542c.406 0 .739-.31.739-.69 0-.377-.333-.687-.739-.687-.402 0-.734.31-.734.687 0 .38.332.69.734.69Zm3.05 2.704c.002-.633.38-1.004.93-1.004.546 0 .875.358.872.959v2.883h1.361v-3.126c0-1.144-.67-1.847-1.694-1.847-.728 0-1.256.358-1.476.93h-.058v-.866h-1.297v4.909h1.361v-2.838Zm4.155-2.071v5.13c0 .37-.156.556-.594.556-.058 0-.109 0-.18-.007v1.065c.1.003.18.006.276.006 1.157 0 1.86-.46 1.86-1.598v-5.152H76.96Zm.678-.633c.406 0 .738-.31.738-.69 0-.377-.332-.687-.738-.687-.403 0-.735.31-.735.687 0 .38.332.69.735.69Zm3.093 5.635c.726 0 1.196-.317 1.435-.774h.039v.681h1.29v-3.311c0-1.17-.99-1.662-2.083-1.662-1.176 0-1.95.562-2.138 1.457l1.26.103c.092-.326.383-.566.872-.566.463 0 .728.233.728.636v.019c0 .317-.335.358-1.189.441-.971.09-1.844.416-1.844 1.512 0 .971.694 1.464 1.63 1.464Zm.39-.94c-.418 0-.719-.195-.719-.569 0-.383.317-.572.796-.639.297-.042.783-.112.946-.221v.521c0 .515-.425.908-1.023.908ZM62.84 173h1.383v-2.122h1.163c1.506 0 2.382-.898 2.382-2.205 0-1.301-.86-2.218-2.346-2.218h-2.583V173Zm1.383-3.231v-2.183h.933c.8 0 1.186.435 1.186 1.087 0 .648-.387 1.096-1.18 1.096h-.939ZM68.56 173h1.361v-4.909H68.56V173Zm.684-5.542c.406 0 .738-.31.738-.69 0-.377-.332-.687-.738-.687-.403 0-.735.31-.735.687 0 .38.332.69.735.69ZM70.906 173h4.125v-1.087h-2.339v-.035l2.256-2.902v-.885h-3.96v1.087h2.32v.035l-2.403 2.975V173Zm5.06 0h4.126v-1.087h-2.34v-.035l2.257-2.902v-.885h-3.96v1.087h2.32v.035l-2.403 2.975V173Zm6.486.093c.726 0 1.195-.317 1.435-.774h.038V173h1.292v-3.311c0-1.17-.991-1.662-2.084-1.662-1.176 0-1.95.562-2.138 1.457l1.259.103c.093-.326.383-.566.872-.566.464 0 .73.233.73.636v.019c0 .317-.336.358-1.19.441-.971.09-1.844.416-1.844 1.512 0 .971.694 1.464 1.63 1.464Zm.39-.94c-.419 0-.72-.195-.72-.569 0-.383.317-.572.797-.639.297-.042.783-.112.946-.221v.521c0 .515-.425.908-1.023.908ZM37.216 110.5h2.796c1.47 0 2.253-.767 2.253-1.809 0-.968-.693-1.553-1.438-1.588v-.064c.681-.154 1.183-.636 1.183-1.407 0-.981-.729-1.677-2.174-1.677h-2.62v6.545Zm1.384-1.131v-1.739h1.16c.665 0 1.077.383 1.077.924 0 .492-.336.815-1.11.815H38.6Zm0-2.675v-1.621h1.051c.614 0 .962.317.962.79 0 .517-.422.831-.987.831H38.6Zm5.86 3.899c.725 0 1.194-.317 1.434-.774h.039v.681h1.29v-3.311c0-1.17-.99-1.662-2.083-1.662-1.176 0-1.95.562-2.138 1.457l1.259.103c.093-.326.384-.566.872-.566.464 0 .73.233.73.636v.019c0 .317-.336.358-1.19.441-.971.09-1.844.416-1.844 1.512 0 .971.694 1.464 1.63 1.464Zm.39-.94c-.42 0-.72-.195-.72-.569 0-.383.316-.572.796-.639.297-.042.783-.112.946-.221v.521c0 .515-.425.908-1.023.908Zm3.349.847h1.361v-2.777c0-.604.442-1.02 1.042-1.02.189 0 .448.032.576.074v-1.208a2.027 2.027 0 0 0-.428-.048c-.55 0-1 .319-1.18.926h-.051v-.856h-1.32v4.909Zm3.602 0h1.361v-2.777c0-.604.441-1.02 1.042-1.02.189 0 .447.032.575.074v-1.208a2.027 2.027 0 0 0-.428-.048c-.55 0-1 .319-1.18.926h-.05v-.856H51.8v4.909Zm5.61.096c1.215 0 2.033-.591 2.224-1.502l-1.259-.083c-.137.374-.489.569-.943.569-.68 0-1.112-.451-1.112-1.183v-.003h3.343v-.374c0-1.668-1.01-2.493-2.307-2.493-1.445 0-2.381 1.026-2.381 2.541 0 1.556.923 2.528 2.435 2.528Zm-1.09-3.046a1.037 1.037 0 0 1 1.058-1.007c.591 0 1 .422 1.004 1.007H56.32Zm5.512-3.595h-1.361v6.545h1.361v-6.545Zm5.094 3.036c-.121-.905-.85-1.464-2.09-1.464-1.256 0-2.084.582-2.08 1.528-.004.735.46 1.211 1.419 1.403l.85.169c.428.086.623.243.63.489-.007.291-.324.499-.8.499-.485 0-.808-.208-.891-.608l-1.34.071c.128.939.927 1.518 2.228 1.518 1.272 0 2.183-.649 2.186-1.617-.003-.71-.466-1.135-1.419-1.33l-.888-.179c-.457-.099-.627-.256-.624-.492-.003-.294.33-.486.751-.486.474 0 .755.259.822.575l1.246-.076ZM22.912 148.57h1.406c-.179-1.294-1.32-2.205-2.8-2.205-1.729 0-3.061 1.247-3.061 3.369 0 2.071 1.246 3.355 3.09 3.355 1.653 0 2.832-1.045 2.832-2.767v-.825h-2.74v1.042h1.407c-.019.812-.572 1.326-1.492 1.326-1.04 0-1.694-.776-1.694-2.144 0-1.362.68-2.132 1.68-2.132.713 0 1.196.368 1.372.981Zm4.618 4.526c1.49 0 2.416-1.02 2.416-2.531 0-1.522-.927-2.538-2.416-2.538-1.49 0-2.416 1.016-2.416 2.538 0 1.511.927 2.531 2.416 2.531Zm.006-1.055c-.687 0-1.039-.629-1.039-1.486 0-.856.352-1.489 1.04-1.489.674 0 1.025.633 1.025 1.489 0 .857-.351 1.486-1.026 1.486Zm5.432 1.055c1.49 0 2.417-1.02 2.417-2.531 0-1.522-.927-2.538-2.417-2.538-1.489 0-2.416 1.016-2.416 2.538 0 1.511.927 2.531 2.416 2.531Zm.007-1.055c-.687 0-1.039-.629-1.039-1.486 0-.856.352-1.489 1.039-1.489.674 0 1.026.633 1.026 1.489 0 .857-.352 1.486-1.026 1.486Zm7.298-2.55c-.121-.905-.85-1.464-2.09-1.464-1.256 0-2.084.582-2.08 1.528-.004.735.46 1.211 1.419 1.403l.85.169c.428.086.623.243.63.489-.007.291-.323.499-.8.499-.485 0-.808-.208-.891-.608l-1.34.071c.128.939.927 1.518 2.228 1.518 1.272 0 2.183-.649 2.186-1.617-.003-.71-.466-1.135-1.419-1.33l-.888-.179c-.457-.099-.627-.256-.623-.492-.004-.294.329-.486.75-.486.474 0 .755.259.822.575l1.246-.076Zm3.126 3.605c1.214 0 2.032-.591 2.224-1.502l-1.259-.083c-.137.374-.489.569-.943.569-.68 0-1.112-.451-1.112-1.183v-.003h3.343v-.374c0-1.668-1.01-2.493-2.308-2.493-1.444 0-2.38 1.026-2.38 2.541 0 1.556.923 2.528 2.435 2.528Zm-1.09-3.046a1.037 1.037 0 0 1 1.058-1.007c.591 0 1 .422 1.003 1.007h-2.06ZM94.976 89l.486-1.493h2.362L98.31 89h1.483l-2.257-6.546h-1.783L93.493 89h1.483Zm.838-2.573.805-2.477h.051l.805 2.477h-1.661ZM102.5 89h1.384v-2.32h1.01l1.24 2.32h1.528l-1.39-2.544c.744-.32 1.157-.968 1.157-1.863 0-1.301-.86-2.139-2.346-2.139H102.5V89Zm1.384-3.433v-1.981h.934c.799 0 1.185.355 1.185 1.007 0 .648-.386.974-1.179.974h-.94Zm5.816 3.526c.726 0 1.195-.317 1.435-.774h.038V89h1.292v-3.311c0-1.17-.991-1.662-2.084-1.662-1.176 0-1.95.563-2.138 1.457l1.259.103c.093-.326.383-.566.872-.566.464 0 .729.233.729.636v.02c0 .316-.336.357-1.189.44-.971.09-1.844.416-1.844 1.512 0 .971.694 1.464 1.63 1.464Zm.39-.94c-.419 0-.719-.195-.719-.569 0-.383.316-.572.796-.639.297-.042.783-.112.946-.22v.52c0 .515-.425.908-1.023.908Zm3.35.847h1.361v-2.947c0-.543.346-.904.799-.904.448 0 .748.307.748.79V89h1.32v-2.998c0-.508.291-.853.786-.853.435 0 .761.272.761.818V89h1.358v-3.302c0-1.064-.632-1.671-1.546-1.671-.72 0-1.279.367-1.48.93h-.051c-.157-.569-.659-.93-1.333-.93-.662 0-1.163.352-1.368.93h-.058v-.866h-1.297V89Zm8.128 1.84h1.361v-2.626h.042c.188.409.601.866 1.393.866 1.119 0 1.991-.885 1.991-2.528 0-1.688-.91-2.525-1.987-2.525-.822 0-1.215.489-1.397.888h-.061v-.824h-1.342v6.75Zm1.333-4.294c0-.876.37-1.436 1.032-1.436.674 0 1.032.585 1.032 1.436 0 .856-.364 1.45-1.032 1.45-.655 0-1.032-.575-1.032-1.45Zm61.689-42.8c-.183-1.512-1.327-2.38-2.842-2.38-1.729 0-3.049 1.22-3.049 3.361 0 2.135 1.298 3.363 3.049 3.363 1.678 0 2.691-1.116 2.842-2.32l-1.4-.007c-.131.7-.681 1.102-1.419 1.102-.994 0-1.669-.738-1.669-2.138 0-1.361.665-2.138 1.678-2.138.758 0 1.304.438 1.41 1.157h1.4Zm2.285 4.347c.726 0 1.196-.317 1.435-.774h.039V48h1.291v-3.311c0-1.17-.991-1.662-2.084-1.662-1.176 0-1.95.563-2.138 1.457l1.259.103c.093-.326.384-.566.873-.566.463 0 .728.233.728.636v.02c0 .316-.335.357-1.189.44-.971.09-1.844.416-1.844 1.512 0 .971.694 1.464 1.63 1.464Zm.39-.94c-.418 0-.719-.195-.719-.569 0-.383.317-.572.796-.639.297-.042.783-.112.946-.22v.52c0 .515-.425.908-1.023.908Zm3.35.847h1.362v-2.777c0-.604.441-1.02 1.042-1.02.188 0 .447.032.575.074v-1.209a2.053 2.053 0 0 0-.428-.047c-.55 0-1.001.32-1.18.926h-.051v-.856h-1.32V48Zm59.115 47h4.19v-1.141h-2.806v-5.404h-1.384V95Zm7.218.096c1.49 0 2.417-1.02 2.417-2.531 0-1.522-.927-2.538-2.417-2.538-1.489 0-2.416 1.016-2.416 2.538 0 1.511.927 2.53 2.416 2.53Zm.007-1.055c-.687 0-1.039-.63-1.039-1.486 0-.857.352-1.49 1.039-1.49.674 0 1.026.633 1.026 1.49s-.352 1.486-1.026 1.486Zm4.575-1.88c.004-.632.381-1.003.93-1.003.547 0 .876.358.873.96V95h1.361v-3.126c0-1.144-.671-1.847-1.693-1.847-.729 0-1.257.358-1.477.93h-.058v-.866h-1.297V95h1.361v-2.838Zm6.368 4.782c1.403 0 2.4-.639 2.4-1.895V90.09h-1.352v.825h-.051c-.182-.4-.581-.889-1.403-.889-1.077 0-1.988.837-1.988 2.509 0 1.633.886 2.394 1.991 2.394.783 0 1.221-.393 1.4-.8h.058v.899c0 .674-.432.936-1.023.936-.601 0-.904-.262-1.016-.56l-1.259.17c.163.774.92 1.368 2.243 1.368Zm.029-3.036c-.668 0-1.032-.53-1.032-1.377 0-.835.358-1.42 1.032-1.42.661 0 1.032.56 1.032 1.42 0 .866-.377 1.377-1.032 1.377ZM433.761 95h1.384v-2.122h1.163c1.506 0 2.381-.898 2.381-2.205 0-1.301-.859-2.219-2.345-2.219h-2.583V95Zm1.384-3.231v-2.183h.933c.799 0 1.186.435 1.186 1.087 0 .648-.387 1.096-1.179 1.096h-.94ZM439.482 95h1.361v-4.91h-1.361V95Zm.684-5.542c.406 0 .738-.31.738-.69 0-.377-.332-.687-.738-.687-.403 0-.735.31-.735.687 0 .38.332.69.735.69Zm4.298.633h-.924v-1.176h-1.361v1.176h-.671v1.023h.671v2.556c-.006.962.649 1.439 1.636 1.397.352-.013.601-.083.739-.128l-.215-1.013c-.067.013-.21.045-.338.045-.272 0-.461-.102-.461-.48v-2.377h.924V90.09ZM396.73 44h4.19v-1.141h-2.806v-5.404h-1.384V44Zm7.218.096c1.49 0 2.417-1.02 2.417-2.531 0-1.522-.927-2.538-2.417-2.538-1.489 0-2.416 1.016-2.416 2.538 0 1.511.927 2.53 2.416 2.53Zm.007-1.055c-.687 0-1.039-.63-1.039-1.486s.352-1.49 1.039-1.49c.674 0 1.026.634 1.026 1.49 0 .857-.352 1.486-1.026 1.486Zm4.575-1.88c.004-.632.381-1.003.93-1.003.547 0 .876.358.873.96V44h1.361v-3.126c0-1.144-.671-1.847-1.693-1.847-.729 0-1.257.358-1.477.93h-.058v-.866h-1.297V44h1.361v-2.838Zm6.368 4.782c1.403 0 2.4-.639 2.4-1.895V39.09h-1.352v.825h-.051c-.182-.4-.581-.889-1.403-.889-1.077 0-1.988.837-1.988 2.509 0 1.633.886 2.394 1.991 2.394.783 0 1.221-.393 1.4-.8h.058v.899c0 .674-.432.936-1.023.936-.601 0-.904-.262-1.016-.56l-1.259.17c.163.774.92 1.368 2.243 1.368Zm.029-3.036c-.668 0-1.032-.53-1.032-1.377 0-.835.358-1.42 1.032-1.42.661 0 1.032.56 1.032 1.42 0 .866-.377 1.377-1.032 1.377ZM399.191 56h1.384v-2.122h1.164c1.505 0 2.381-.898 2.381-2.205 0-1.301-.86-2.218-2.346-2.218h-2.583V56Zm1.384-3.231v-2.183h.933c.799 0 1.186.435 1.186 1.087 0 .648-.387 1.096-1.179 1.096h-.94Zm5.698-3.314h-1.361V56h1.361v-6.545Zm2.41 6.638c.725 0 1.195-.317 1.435-.774h.038V56h1.292v-3.311c0-1.17-.991-1.662-2.084-1.662-1.176 0-1.95.563-2.138 1.457l1.259.103c.092-.326.383-.566.872-.566.464 0 .729.233.729.636v.02c0 .316-.336.357-1.189.44-.972.09-1.844.416-1.844 1.512 0 .971.694 1.464 1.63 1.464Zm.39-.94c-.419 0-.719-.195-.719-.569 0-.383.316-.572.796-.639.297-.042.783-.112.946-.22v.52c0 .515-.425.908-1.023.908Zm5.961-4.062h-.924v-1.176h-1.361v1.176h-.671v1.023h.671v2.556c-.007.962.649 1.439 1.636 1.397.352-.013.601-.083.738-.128l-.214-1.013c-.067.013-.211.045-.338.045-.272 0-.461-.102-.461-.48v-2.377h.924V51.09Zm-4.518 86.246h1.326c-.019-1.167-.978-1.972-2.435-1.972-1.435 0-2.486.793-2.48 1.982-.003.965.677 1.518 1.783 1.783l.713.179c.713.173 1.109.377 1.112.818-.003.48-.457.806-1.16.806-.719 0-1.237-.333-1.282-.988h-1.339c.036 1.416 1.049 2.148 2.637 2.148 1.598 0 2.538-.764 2.541-1.963-.003-1.09-.825-1.668-1.962-1.924l-.589-.14c-.568-.131-1.045-.342-1.035-.812 0-.422.374-.732 1.051-.732.662 0 1.068.3 1.119.815Zm2.24 4.663h1.362v-4.909h-1.362V142Zm.684-5.542c.406 0 .738-.31.738-.69 0-.377-.332-.687-.738-.687-.403 0-.735.31-.735.687 0 .38.332.69.735.69Zm3.496 5.622c.793 0 1.205-.457 1.394-.866h.057V142h1.343v-6.545h-1.359v2.46h-.041c-.182-.399-.576-.888-1.397-.888-1.077 0-1.988.837-1.988 2.525 0 1.643.873 2.528 1.991 2.528Zm.432-1.084c-.668 0-1.033-.594-1.033-1.451 0-.85.358-1.435 1.033-1.435.661 0 1.032.56 1.032 1.435 0 .876-.377 1.451-1.032 1.451Zm5.637 1.1c1.215 0 2.033-.591 2.225-1.502l-1.26-.083c-.137.374-.489.569-.942.569-.681 0-1.113-.451-1.113-1.183v-.003h3.343v-.374c0-1.668-1.01-2.493-2.307-2.493-1.445 0-2.381 1.026-2.381 2.541 0 1.556.924 2.528 2.435 2.528Zm-1.09-3.046a1.038 1.038 0 0 1 1.058-1.007c.592 0 1.001.422 1.004 1.007h-2.062ZM410.761 154h1.384v-2.122h1.163c1.506 0 2.381-.898 2.381-2.205 0-1.301-.859-2.218-2.345-2.218h-2.583V154Zm1.384-3.231v-2.183h.933c.799 0 1.186.435 1.186 1.087 0 .648-.387 1.096-1.179 1.096h-.94Zm4.337 3.231h1.361v-4.909h-1.361V154Zm.684-5.542c.406 0 .738-.31.738-.69 0-.377-.332-.687-.738-.687-.403 0-.735.31-.735.687 0 .38.332.69.735.69Zm4.298.633h-.924v-1.176h-1.361v1.176h-.671v1.023h.671v2.556c-.006.962.649 1.439 1.636 1.397.352-.013.601-.083.739-.128l-.215-1.013c-.067.013-.21.045-.338.045-.272 0-.461-.102-.461-.48v-2.377h.924v-1.023ZM321 210h2.797c1.47 0 2.253-.767 2.253-1.809 0-.968-.693-1.553-1.438-1.588v-.064c.681-.154 1.182-.636 1.182-1.407 0-.981-.728-1.677-2.173-1.677H321V210Zm1.384-1.131v-1.739h1.16c.665 0 1.078.383 1.078.924 0 .492-.336.815-1.109.815h-1.129Zm0-2.675v-1.621h1.052c.613 0 .962.317.962.79 0 .517-.422.831-.988.831h-1.026Zm5.822-2.739h-1.362V210h1.362v-6.545Zm4.157 4.455c.004.658-.447 1.003-.936 1.003-.515 0-.847-.361-.85-.939v-2.883h-1.362v3.126c.003 1.147.675 1.847 1.662 1.847.738 0 1.269-.38 1.49-.956h.051V210h1.307v-4.909h-1.362v2.819Zm4.607 2.186c1.215 0 2.033-.591 2.225-1.502l-1.26-.083c-.137.374-.489.569-.943.569-.68 0-1.112-.451-1.112-1.183v-.003h3.343v-.374c0-1.668-1.01-2.493-2.307-2.493-1.445 0-2.381 1.026-2.381 2.541 0 1.556.923 2.528 2.435 2.528Zm-1.09-3.046a1.038 1.038 0 0 1 1.058-1.007c.591 0 1 .422 1.004 1.007h-2.062ZM119.751 166h4.424v-1.141h-3.04v-1.563h2.8v-1.141h-2.8v-1.559h3.027v-1.141h-4.411V166Zm6.766-6.545h-1.362V166h1.362v-6.545Zm3.247 6.641c1.214 0 2.033-.591 2.224-1.502l-1.259-.083c-.137.374-.489.569-.943.569-.681 0-1.112-.451-1.112-1.183v-.003h3.343v-.374c0-1.668-1.01-2.493-2.307-2.493-1.445 0-2.382 1.026-2.382 2.541 0 1.556.924 2.528 2.436 2.528Zm-1.09-3.046a1.038 1.038 0 0 1 1.058-1.007c.591 0 1 .422 1.003 1.007h-2.061Zm8.587-1.959h-1.442l-1.016 3.512h-.051l-1.02-3.512h-1.438L134.01 166h1.534l1.717-4.909Zm1.875 5.002c.725 0 1.195-.317 1.435-.774h.038V166h1.291v-3.311c0-1.17-.991-1.662-2.084-1.662-1.176 0-1.949.562-2.138 1.457l1.259.103c.093-.326.384-.566.873-.566.463 0 .729.233.729.636v.019c0 .317-.336.358-1.189.441-.972.09-1.844.416-1.844 1.512 0 .971.693 1.464 1.63 1.464Zm.39-.94c-.419 0-.72-.195-.72-.569 0-.383.317-.572.796-.639.297-.042.783-.112.946-.221v.521c0 .515-.425.908-1.022.908Zm5.961-4.062h-.924v-1.176h-1.362v1.176h-.671v1.023h.671v2.556c-.006.962.649 1.439 1.637 1.397.351-.013.601-.083.738-.128l-.214-1.013c-.067.013-.211.045-.339.045-.271 0-.46-.102-.46-.48v-2.377h.924v-1.023Zm2.971 5.005c1.489 0 2.416-1.02 2.416-2.531 0-1.522-.927-2.538-2.416-2.538-1.49 0-2.416 1.016-2.416 2.538 0 1.511.926 2.531 2.416 2.531Zm.006-1.055c-.687 0-1.039-.629-1.039-1.486 0-.856.352-1.489 1.039-1.489.675 0 1.026.633 1.026 1.489 0 .857-.351 1.486-1.026 1.486Zm3.214.959h1.362v-2.777c0-.604.441-1.02 1.042-1.02.188 0 .447.032.575.074v-1.208a2.025 2.025 0 0 0-.428-.048c-.55 0-1.001.319-1.18.926h-.051v-.856h-1.32V166Zm-2.038 18.746c-.182-1.512-1.326-2.381-2.841-2.381-1.729 0-3.049 1.221-3.049 3.362 0 2.135 1.298 3.362 3.049 3.362 1.678 0 2.691-1.115 2.841-2.32l-1.4-.006c-.131.7-.68 1.102-1.419 1.102-.994 0-1.668-.738-1.668-2.138 0-1.361.665-2.138 1.678-2.138.757 0 1.304.438 1.409 1.157h1.4Zm.662-1.15h2.004V189h1.368v-5.404h2.004v-1.141h-5.376v1.141Zm8.182 5.404h1.384v-2.32h1.01l1.24 2.32h1.528l-1.39-2.544c.744-.32 1.157-.968 1.157-1.863 0-1.301-.86-2.138-2.346-2.138h-2.583V189Zm1.384-3.433v-1.981h.934c.799 0 1.185.355 1.185 1.007 0 .648-.386.974-1.179.974h-.94Zm5.816 3.526c.725 0 1.195-.317 1.435-.774h.038V189h1.292v-3.311c0-1.17-.991-1.662-2.084-1.662-1.176 0-1.95.562-2.138 1.457l1.259.103c.092-.326.383-.566.872-.566.464 0 .729.233.729.636v.019c0 .317-.336.358-1.189.441-.971.09-1.844.416-1.844 1.512 0 .971.694 1.464 1.63 1.464Zm.39-.94c-.419 0-.719-.195-.719-.569 0-.383.316-.572.796-.639.297-.042.783-.112.946-.221v.521c0 .515-.425.908-1.023.908Zm3.35.847h1.361v-2.947c0-.543.345-.904.799-.904.448 0 .748.307.748.789V189h1.32v-2.998c0-.508.291-.853.786-.853.435 0 .761.271.761.818V189h1.358v-3.301c0-1.065-.632-1.672-1.547-1.672-.719 0-1.278.368-1.479.93h-.051c-.157-.569-.659-.93-1.333-.93-.662 0-1.164.352-1.368.93h-.058v-.866h-1.297V189Zm8.128 1.841h1.361v-2.627h.042c.188.409.601.866 1.393.866 1.119 0 1.991-.885 1.991-2.528 0-1.688-.91-2.525-1.987-2.525-.822 0-1.215.489-1.397.888h-.061v-.824h-1.342v6.75Zm1.333-4.296c0-.875.37-1.435 1.032-1.435.674 0 1.032.585 1.032 1.435 0 .857-.364 1.451-1.032 1.451-.655 0-1.032-.575-1.032-1.451Zm60.535 74.792h1.326c-.019-1.167-.978-1.972-2.435-1.972-1.435 0-2.487.793-2.48 1.982-.003.965.677 1.518 1.783 1.783l.713.179c.713.173 1.109.377 1.112.818-.003.48-.457.806-1.16.806-.719 0-1.237-.333-1.282-.988h-1.339c.035 1.416 1.048 2.148 2.637 2.148 1.598 0 2.537-.764 2.541-1.963-.004-1.09-.825-1.668-1.963-1.924l-.588-.14c-.569-.131-1.045-.342-1.035-.812 0-.422.374-.732 1.051-.732.662 0 1.068.3 1.119.815Zm4.851-.246h-.924v-1.176h-1.361v1.176h-.671v1.023h.671v2.556c-.006.962.649 1.439 1.636 1.397.352-.013.601-.083.739-.128l-.215-1.013c-.067.013-.21.045-.338.045-.272 0-.461-.102-.461-.48v-2.377h.924v-1.023Zm2.206 5.002c.725 0 1.195-.317 1.435-.774h.038V266h1.291v-3.311c0-1.17-.99-1.662-2.083-1.662-1.177 0-1.95.562-2.139 1.457l1.26.103c.092-.326.383-.566.872-.566.464 0 .729.233.729.636v.019c0 .317-.336.358-1.189.441-.972.09-1.844.416-1.844 1.512 0 .971.693 1.464 1.63 1.464Zm.39-.94c-.419 0-.719-.195-.719-.569 0-.383.316-.572.795-.639.298-.042.783-.112.946-.221v.521c0 .515-.425.908-1.022.908Zm3.35.847h1.361v-4.909h-1.361V266Zm.684-5.542c.406 0 .738-.31.738-.69 0-.377-.332-.687-.738-.687-.403 0-.735.31-.735.687 0 .38.332.69.735.69Zm1.687 5.542h1.361v-2.777c0-.604.441-1.02 1.042-1.02.189 0 .448.032.576.074v-1.208a2.035 2.035 0 0 0-.429-.048c-.549 0-1 .319-1.179.926h-.051v-.856h-1.32V266Zm7.686-3.509c-.121-.905-.85-1.464-2.09-1.464-1.256 0-2.084.582-2.081 1.528-.003.735.46 1.211 1.419 1.403l.85.169c.429.086.624.243.63.489-.006.291-.323.499-.799.499-.486 0-.809-.208-.892-.608l-1.339.071c.128.939.927 1.518 2.228 1.518 1.272 0 2.183-.649 2.186-1.617-.003-.71-.467-1.135-1.419-1.33l-.889-.179c-.457-.099-.626-.256-.623-.492-.003-.294.329-.486.751-.486.473 0 .754.259.822.575l1.246-.076ZM124.107 441.955v6.545h1.343v-4.276h.054l1.694 4.244h.914l1.694-4.228h.054v4.26h1.342v-6.545h-1.706l-1.803 4.397h-.076l-1.803-4.397h-1.707Zm8.129 6.545h1.362v-4.909h-1.362v4.909Zm.684-5.542c.406 0 .738-.31.738-.69 0-.377-.332-.687-.738-.687-.403 0-.735.31-.735.687 0 .38.332.69.735.69Zm3.496 5.622c.793 0 1.205-.457 1.394-.866h.057v.786h1.342v-6.545h-1.358v2.46h-.041c-.183-.399-.576-.888-1.397-.888-1.077 0-1.988.837-1.988 2.525 0 1.643.873 2.528 1.991 2.528Zm.432-1.084c-.668 0-1.033-.594-1.033-1.451 0-.85.358-1.435 1.033-1.435.661 0 1.032.56 1.032 1.435 0 .876-.377 1.451-1.032 1.451Zm8.013-3.905h-.924v-1.176h-1.361v1.176h-.671v1.023h.671v2.556c-.007.962.649 1.439 1.636 1.397.352-.013.601-.083.739-.128l-.215-1.013c-.067.013-.211.045-.338.045-.272 0-.461-.102-.461-.48v-2.377h.924v-1.023Zm2.971 5.005c1.49 0 2.416-1.02 2.416-2.531 0-1.522-.926-2.538-2.416-2.538-1.489 0-2.416 1.016-2.416 2.538 0 1.511.927 2.531 2.416 2.531Zm.007-1.055c-.688 0-1.039-.629-1.039-1.486 0-.856.351-1.489 1.039-1.489.674 0 1.026.633 1.026 1.489 0 .857-.352 1.486-1.026 1.486Zm5.241.959h2.797c1.47 0 2.253-.767 2.253-1.809 0-.968-.694-1.553-1.438-1.588v-.064c.681-.154 1.182-.636 1.182-1.407 0-.981-.728-1.677-2.173-1.677h-2.621v6.545Zm1.384-1.131v-1.739h1.16c.665 0 1.077.383 1.077.924 0 .492-.335.815-1.109.815h-1.128Zm0-2.675v-1.621h1.052c.613 0 .962.317.962.79 0 .517-.422.831-.988.831h-1.026Zm62.126 123.052c-.183-1.512-1.327-2.381-2.842-2.381-1.729 0-3.049 1.221-3.049 3.362 0 2.135 1.298 3.362 3.049 3.362 1.678 0 2.691-1.115 2.842-2.32l-1.4-.006c-.131.7-.681 1.102-1.419 1.102-.994 0-1.669-.738-1.669-2.138 0-1.361.665-2.138 1.678-2.138.758 0 1.304.438 1.41 1.157h1.4Zm2.285 4.347c.726 0 1.196-.317 1.435-.774h.039V572h1.291v-3.311c0-1.17-.991-1.662-2.084-1.662-1.176 0-1.95.562-2.138 1.457l1.259.103c.093-.326.384-.566.873-.566.463 0 .728.233.728.636v.019c0 .317-.335.358-1.189.441-.971.09-1.844.416-1.844 1.512 0 .971.694 1.464 1.63 1.464Zm.39-.94c-.418 0-.719-.195-.719-.569 0-.383.317-.572.796-.639.297-.042.783-.112.946-.221v.521c0 .515-.425.908-1.023.908Zm3.35.847h1.362v-2.777c0-.604.441-1.02 1.042-1.02.188 0 .447.032.575.074v-1.208a2.033 2.033 0 0 0-.428-.048c-.55 0-1.001.319-1.18.926h-.051v-.856h-1.32V572Zm5.597 17.246c-.183-1.512-1.327-2.381-2.842-2.381-1.729 0-3.049 1.221-3.049 3.362 0 2.135 1.298 3.362 3.049 3.362 1.678 0 2.691-1.115 2.842-2.32l-1.4-.006c-.131.7-.681 1.102-1.419 1.102-.994 0-1.669-.738-1.669-2.138 0-1.361.665-2.138 1.678-2.138.758 0 1.304.438 1.41 1.157h1.4Zm2.247-2.291h-1.362v6.545h1.362v-6.545Zm3.228 6.641c1.489 0 2.416-1.02 2.416-2.531 0-1.522-.927-2.538-2.416-2.538-1.49 0-2.417 1.016-2.417 2.538 0 1.511.927 2.531 2.417 2.531Zm.006-1.055c-.687 0-1.039-.629-1.039-1.486 0-.856.352-1.489 1.039-1.489.674 0 1.026.633 1.026 1.489 0 .857-.352 1.486-1.026 1.486Zm7.299-2.55c-.122-.905-.851-1.464-2.091-1.464-1.256 0-2.083.582-2.08 1.528-.003.735.46 1.211 1.419 1.403l.85.169c.428.086.623.243.63.489-.007.291-.323.499-.799.499-.486 0-.809-.208-.892-.608l-1.339.071c.128.939.927 1.518 2.227 1.518 1.272 0 2.183-.649 2.186-1.617-.003-.71-.466-1.135-1.419-1.33l-.888-.179c-.457-.099-.626-.256-.623-.492-.003-.294.329-.486.751-.486.473 0 .754.259.821.575l1.247-.076Zm3.125 3.605c1.215 0 2.033-.591 2.224-1.502l-1.259-.083c-.137.374-.489.569-.943.569-.68 0-1.112-.451-1.112-1.183v-.003h3.343v-.374c0-1.668-1.01-2.493-2.307-2.493-1.445 0-2.381 1.026-2.381 2.541 0 1.556.923 2.528 2.435 2.528Zm-1.09-3.046a1.038 1.038 0 0 1 1.058-1.007c.591 0 1 .422 1.004 1.007h-2.062Zm6.762-1.959h-.924v-1.176h-1.361v1.176h-.671v1.023h.671v2.556c-.007.962.649 1.439 1.636 1.397.352-.013.601-.083.738-.128l-.214-1.013c-.067.013-.211.045-.339.045-.271 0-.46-.102-.46-.48v-2.377h.924v-1.023ZM116.495 611.5h2.797c1.47 0 2.253-.767 2.253-1.809 0-.968-.694-1.553-1.438-1.588v-.064c.68-.154 1.182-.636 1.182-1.407 0-.981-.729-1.677-2.173-1.677h-2.621v6.545Zm1.384-1.131v-1.739h1.16c.665 0 1.077.383 1.077.924 0 .492-.335.815-1.109.815h-1.128Zm0-2.675v-1.621h1.051c.614 0 .962.317.962.79 0 .517-.422.831-.987.831h-1.026Zm4.46 3.806h1.361v-4.909h-1.361v4.909Zm.684-5.542c.405 0 .738-.31.738-.69 0-.377-.333-.687-.738-.687-.403 0-.736.31-.736.687 0 .38.333.69.736.69Zm3.898 7.485c1.403 0 2.401-.639 2.401-1.895v-4.957h-1.352v.824h-.051c-.183-.399-.582-.888-1.403-.888-1.078 0-1.988.837-1.988 2.509 0 1.633.885 2.394 1.991 2.394.783 0 1.221-.393 1.4-.799h.057v.898c0 .674-.431.936-1.023.936-.6 0-.904-.262-1.016-.559l-1.259.169c.163.774.92 1.368 2.243 1.368Zm.029-3.036c-.668 0-1.032-.531-1.032-1.378 0-.834.358-1.419 1.032-1.419.662 0 1.033.56 1.033 1.419 0 .867-.378 1.378-1.033 1.378Zm5.402 1.093h2.796c1.47 0 2.253-.767 2.253-1.809 0-.968-.693-1.553-1.438-1.588v-.064c.681-.154 1.183-.636 1.183-1.407 0-.981-.729-1.677-2.174-1.677h-2.62v6.545Zm1.384-1.131v-1.739h1.16c.664 0 1.077.383 1.077.924 0 .492-.336.815-1.109.815h-1.128Zm0-2.675v-1.621h1.051c.614 0 .962.317.962.79 0 .517-.422.831-.988.831h-1.025Zm6.677 3.902c1.49 0 2.417-1.02 2.417-2.531 0-1.522-.927-2.538-2.417-2.538-1.489 0-2.416 1.016-2.416 2.538 0 1.511.927 2.531 2.416 2.531Zm.007-1.055c-.687 0-1.039-.629-1.039-1.486 0-.856.352-1.489 1.039-1.489.674 0 1.026.633 1.026 1.489 0 .857-.352 1.486-1.026 1.486Zm4.167-3.95h-1.406l1.406 2.454-1.457 2.455h1.406l.952-1.697.969 1.697h1.39l-1.461-2.455 1.423-2.454h-1.397l-.924 1.716-.901-1.716Zm3.872 59.909h1.384v-2.704h2.663v-1.141h-2.663v-1.559h2.95v-1.141h-4.334v6.545Zm7.035.096c1.215 0 2.033-.591 2.225-1.502l-1.259-.083c-.138.374-.489.569-.943.569-.681 0-1.112-.451-1.112-1.183v-.003h3.343v-.374c0-1.668-1.01-2.493-2.308-2.493-1.445 0-2.381 1.026-2.381 2.541 0 1.556.924 2.528 2.435 2.528Zm-1.089-3.046a1.036 1.036 0 0 1 1.057-1.007c.592 0 1.001.422 1.004 1.007h-2.061Zm5.512.112c.003-.633.38-1.004.93-1.004.546 0 .875.358.872.959v2.883h1.362v-3.126c0-1.144-.672-1.847-1.694-1.847-.729 0-1.256.358-1.477.93h-.057v-.866h-1.298v4.909h1.362v-2.838Zm6.374 2.934c1.307 0 2.128-.767 2.192-1.895h-1.285c-.08.524-.425.818-.891.818-.636 0-1.049-.534-1.049-1.474 0-.926.416-1.457 1.049-1.457.498 0 .818.329.891.818h1.285c-.057-1.134-.917-1.879-2.199-1.879-1.489 0-2.409 1.032-2.409 2.538 0 1.492.904 2.531 2.416 2.531Zm5.22 0c1.215 0 2.033-.591 2.225-1.502l-1.26-.083c-.137.374-.489.569-.943.569-.68 0-1.112-.451-1.112-1.183v-.003h3.343v-.374c0-1.668-1.01-2.493-2.307-2.493-1.445 0-2.381 1.026-2.381 2.541 0 1.556.923 2.528 2.435 2.528Zm-1.09-3.046a1.038 1.038 0 0 1 1.058-1.007c.591 0 1.001.422 1.004 1.007h-2.062Zm32.499-5.304c-.182-1.512-1.326-2.381-2.841-2.381-1.729 0-3.049 1.221-3.049 3.362 0 2.135 1.297 3.362 3.049 3.362 1.678 0 2.691-1.115 2.841-2.32l-1.4-.006c-.131.7-.68 1.102-1.419 1.102-.994 0-1.668-.738-1.668-2.138 0-1.361.665-2.138 1.678-2.138.757 0 1.304.438 1.409 1.157h1.4Zm2.247-2.291h-1.361v6.545h1.361v-6.545Zm3.228 6.641c1.489 0 2.416-1.02 2.416-2.531 0-1.522-.927-2.538-2.416-2.538-1.489 0-2.416 1.016-2.416 2.538 0 1.511.927 2.531 2.416 2.531Zm.007-1.055c-.688 0-1.039-.629-1.039-1.486 0-.856.351-1.489 1.039-1.489.674 0 1.025.633 1.025 1.489 0 .857-.351 1.486-1.025 1.486Zm7.298-2.55c-.121-.905-.85-1.464-2.09-1.464-1.256 0-2.084.582-2.081 1.528-.003.735.461 1.211 1.419 1.403l.851.169c.428.086.623.243.629.489-.006.291-.323.499-.799.499-.486 0-.808-.208-.892-.608l-1.339.071c.128.939.927 1.518 2.228 1.518 1.272 0 2.183-.649 2.186-1.617-.003-.71-.467-1.135-1.419-1.33l-.889-.179c-.457-.099-.626-.256-.623-.492-.003-.294.329-.486.751-.486.473 0 .755.259.822.575l1.246-.076Zm3.126 3.605c1.214 0 2.032-.591 2.224-1.502l-1.259-.083c-.138.374-.489.569-.943.569-.681 0-1.112-.451-1.112-1.183v-.003h3.343v-.374c0-1.668-1.01-2.493-2.308-2.493-1.444 0-2.381 1.026-2.381 2.541 0 1.556.924 2.528 2.436 2.528Zm-1.09-3.046a1.037 1.037 0 0 1 1.058-1.007c.591 0 1 .422 1.003 1.007h-2.061ZM60 631h1.384v-2.122h1.163c1.505 0 2.381-.898 2.381-2.205 0-1.301-.86-2.218-2.346-2.218H60V631Zm1.384-3.231v-2.183h.933c.799 0 1.186.435 1.186 1.087 0 .648-.387 1.096-1.18 1.096h-.94Zm5.698-3.314H65.72V631h1.362v-6.545Zm2.41 6.638c.725 0 1.195-.317 1.434-.774h.039V631h1.291v-3.311c0-1.17-.99-1.662-2.084-1.662-1.176 0-1.95.562-2.138 1.457l1.26.103c.092-.326.383-.566.872-.566.463 0 .728.233.728.636v.019c0 .317-.335.358-1.188.441-.972.09-1.844.416-1.844 1.512 0 .971.693 1.464 1.63 1.464Zm.39-.94c-.42 0-.72-.195-.72-.569 0-.383.317-.572.796-.639.297-.042.783-.112.946-.221v.521c0 .515-.425.908-1.023.908Zm5.96-4.062h-.923v-1.176h-1.362v1.176h-.67v1.023h.67v2.556c-.006.962.65 1.439 1.637 1.397.351-.013.6-.083.738-.128l-.214-1.013c-.067.013-.211.045-.339.045-.272 0-.46-.102-.46-.48v-2.377h.923v-1.023Zm3.446 0h-.974v-.329c0-.333.134-.528.533-.528.163 0 .33.036.438.071l.24-1.023a3.594 3.594 0 0 0-.962-.134c-.924 0-1.611.521-1.611 1.588v.355h-.694v1.023h.694V631h1.362v-3.886h.974v-1.023Zm2.793 5.005c1.49 0 2.416-1.02 2.416-2.531 0-1.522-.926-2.538-2.416-2.538-1.49 0-2.416 1.016-2.416 2.538 0 1.511.927 2.531 2.416 2.531Zm.007-1.055c-.688 0-1.039-.629-1.039-1.486 0-.856.351-1.489 1.039-1.489.674 0 1.026.633 1.026 1.489 0 .857-.352 1.486-1.026 1.486Zm3.214.959h1.361v-2.777c0-.604.441-1.02 1.042-1.02.189 0 .448.032.576.074v-1.208a2.029 2.029 0 0 0-.429-.048c-.55 0-1 .319-1.18.926h-.05v-.856h-1.32V631Zm3.601 0h1.362v-2.947c0-.543.345-.904.799-.904.447 0 .748.307.748.789V631h1.32v-2.998c0-.508.29-.853.786-.853.435 0 .76.271.76.818V631h1.359v-3.301c0-1.065-.633-1.672-1.547-1.672-.72 0-1.278.368-1.48.93h-.05c-.157-.569-.66-.93-1.334-.93-.661 0-1.163.352-1.368.93h-.057v-.866h-1.298V631ZM16.49 648.5h1.385v-2.704h2.809v2.704h1.38v-6.545h-1.38v2.7h-2.81v-2.7h-1.383v6.545Zm8.846.096c1.215 0 2.033-.591 2.225-1.502l-1.26-.083c-.137.374-.489.569-.943.569-.68 0-1.112-.451-1.112-1.183v-.003h3.343v-.374c0-1.668-1.01-2.493-2.307-2.493-1.445 0-2.381 1.026-2.381 2.541 0 1.556.923 2.528 2.435 2.528Zm-1.09-3.046a1.037 1.037 0 0 1 1.058-1.007c.591 0 1 .422 1.004 1.007h-2.062Zm5.55 3.043c.726 0 1.196-.317 1.436-.774h.038v.681h1.291v-3.311c0-1.17-.99-1.662-2.084-1.662-1.176 0-1.95.562-2.138 1.457l1.26.103c.092-.326.383-.566.872-.566.463 0 .729.233.729.636v.019c0 .317-.336.358-1.19.441-.97.09-1.843.416-1.843 1.512 0 .971.693 1.464 1.63 1.464Zm.39-.94c-.418 0-.719-.195-.719-.569 0-.383.317-.572.796-.639.297-.042.783-.112.946-.221v.521c0 .515-.425.908-1.023.908Zm5.16.927c.792 0 1.204-.457 1.393-.866h.057v.786h1.343v-6.545H36.78v2.46h-.041c-.182-.399-.575-.888-1.397-.888-1.077 0-1.988.837-1.988 2.525 0 1.643.873 2.528 1.991 2.528Zm.43-1.084c-.667 0-1.031-.594-1.031-1.451 0-.85.358-1.435 1.032-1.435.661 0 1.032.56 1.032 1.435 0 .876-.377 1.451-1.032 1.451Zm7.486-2.505c-.122-.905-.85-1.464-2.09-1.464-1.257 0-2.084.582-2.081 1.528-.003.735.46 1.211 1.419 1.403l.85.169c.428.086.623.243.63.489-.007.291-.323.499-.8.499-.485 0-.808-.208-.891-.608l-1.34.071c.129.939.928 1.518 2.228 1.518 1.273 0 2.183-.649 2.187-1.617-.004-.71-.467-1.135-1.42-1.33l-.888-.179c-.457-.099-.626-.256-.623-.492-.003-.294.329-.486.75-.486.474 0 .755.259.822.575l1.247-.076Zm2.25.671c.003-.633.39-1.004.945-1.004.553 0 .88.355.876.959v2.883h1.362v-3.126c.003-1.15-.675-1.847-1.697-1.847-.745 0-1.244.352-1.467.93h-.058v-2.502H44.15v6.545h1.361v-2.838Zm6.391 2.934c1.49 0 2.416-1.02 2.416-2.531 0-1.522-.927-2.538-2.416-2.538-1.49 0-2.416 1.016-2.416 2.538 0 1.511.927 2.531 2.416 2.531Zm.007-1.055c-.688 0-1.04-.629-1.04-1.486 0-.856.352-1.489 1.04-1.489.674 0 1.025.633 1.025 1.489 0 .857-.351 1.486-1.026 1.486Zm5.825-3.95h-.924v-1.176H55.45v1.176h-.672v1.023h.672v2.556c-.007.962.648 1.439 1.636 1.397.352-.013.6-.083.738-.128l-.214-1.013c-.067.013-.21.045-.339.045-.271 0-.46-.102-.46-.48v-2.377h.924v-1.023ZM69.17 535h1.349l1.243-4.279h.051L73.06 535h1.348l1.873-6.545H74.77l-1.083 4.557h-.058l-1.192-4.557h-1.294l-1.195 4.547h-.055l-1.083-4.547h-1.512L69.17 535Zm7.745 0h1.362v-4.909h-1.362V535Zm.684-5.542c.406 0 .739-.31.739-.69 0-.377-.333-.687-.739-.687-.402 0-.735.31-.735.687 0 .38.333.69.735.69Zm3.049 2.704c.003-.633.38-1.004.93-1.004.546 0 .876.358.873.959V535h1.361v-3.126c0-1.144-.671-1.847-1.694-1.847-.729 0-1.256.358-1.476.93h-.058v-.866h-1.297V535h1.361v-2.838Zm5.965 2.918c.793 0 1.205-.457 1.394-.866h.057V535h1.342v-6.545h-1.358v2.46h-.041c-.183-.399-.576-.888-1.397-.888-1.077 0-1.988.837-1.988 2.525 0 1.643.872 2.528 1.991 2.528Zm.431-1.084c-.668 0-1.032-.594-1.032-1.451 0-.85.358-1.435 1.032-1.435.662 0 1.033.56 1.033 1.435 0 .876-.377 1.451-1.032 1.451Zm5.619 1.1c1.49 0 2.416-1.02 2.416-2.531 0-1.522-.927-2.538-2.416-2.538-1.49 0-2.416 1.016-2.416 2.538 0 1.511.927 2.531 2.416 2.531Zm.006-1.055c-.687 0-1.038-.629-1.038-1.486 0-.856.351-1.489 1.038-1.489.675 0 1.026.633 1.026 1.489 0 .857-.351 1.486-1.026 1.486Zm4.06.959h1.438l.844-3.087h.06l.844 3.087h1.441l1.333-4.909h-1.374l-.748 3.279h-.041l-.806-3.279h-1.352l-.792 3.298h-.045l-.76-3.298h-1.378L96.729 535Zm44.905-1h2.796c1.47 0 2.253-.767 2.253-1.809 0-.968-.693-1.553-1.438-1.588v-.064c.681-.154 1.183-.636 1.183-1.407 0-.981-.729-1.677-2.174-1.677h-2.62V534Zm1.384-1.131v-1.739h1.16c.664 0 1.077.383 1.077.924 0 .492-.336.815-1.109.815h-1.128Zm0-2.675v-1.621h1.051c.614 0 .962.317.962.79 0 .517-.422.831-.988.831h-1.025Zm8.807 3.806c1.995 0 3.203-1.234 3.203-3.279 0-2.039-1.208-3.266-3.184-3.266h-2.339V534h2.32Zm-.936-1.186v-4.174h.882c1.227 0 1.876.627 1.876 2.081 0 1.46-.649 2.093-1.879 2.093h-.879Zm7.275 1.282c1.49 0 2.416-1.02 2.416-2.531 0-1.522-.926-2.538-2.416-2.538-1.489 0-2.416 1.016-2.416 2.538 0 1.511.927 2.531 2.416 2.531Zm.007-1.055c-.688 0-1.039-.629-1.039-1.486 0-.856.351-1.489 1.039-1.489.674 0 1.026.633 1.026 1.489 0 .857-.352 1.486-1.026 1.486Zm5.432 1.055c1.489 0 2.416-1.02 2.416-2.531 0-1.522-.927-2.538-2.416-2.538-1.49 0-2.416 1.016-2.416 2.538 0 1.511.926 2.531 2.416 2.531Zm.006-1.055c-.687 0-1.039-.629-1.039-1.486 0-.856.352-1.489 1.039-1.489.674 0 1.026.633 1.026 1.489 0 .857-.352 1.486-1.026 1.486Zm3.214.959h1.362v-2.777c0-.604.441-1.02 1.042-1.02.188 0 .447.032.575.074v-1.208a2.033 2.033 0 0 0-.428-.048c-.55 0-1.001.319-1.18.926h-.051v-.856h-1.32V534Zm7.686-3.509c-.121-.905-.85-1.464-2.09-1.464-1.256 0-2.084.582-2.08 1.528-.004.735.46 1.211 1.419 1.403l.85.169c.428.086.623.243.629.489-.006.291-.322.499-.799.499-.485 0-.808-.208-.891-.608l-1.339.071c.127.939.926 1.518 2.227 1.518 1.272 0 2.183-.649 2.186-1.617-.003-.71-.466-1.135-1.419-1.33l-.888-.179c-.457-.099-.627-.256-.624-.492-.003-.294.33-.486.752-.486.473 0 .754.259.821.575l1.246-.076ZM161.445 503.5h2.796c1.47 0 2.253-.767 2.253-1.809 0-.968-.693-1.553-1.438-1.588v-.064c.681-.154 1.183-.636 1.183-1.407 0-.981-.729-1.677-2.174-1.677h-2.62v6.545Zm1.384-1.131v-1.739h1.16c.665 0 1.077.383 1.077.924 0 .492-.336.815-1.109.815h-1.128Zm0-2.675v-1.621h1.051c.614 0 .962.317.962.79 0 .517-.422.831-.987.831h-1.026Zm6.487 3.806h2.796c1.471 0 2.254-.767 2.254-1.809 0-.968-.694-1.553-1.439-1.588v-.064c.681-.154 1.183-.636 1.183-1.407 0-.981-.729-1.677-2.173-1.677h-2.621v6.545Zm1.384-1.131v-1.739h1.16c.665 0 1.077.383 1.077.924 0 .492-.336.815-1.109.815H170.7Zm0-2.675v-1.621h1.051c.614 0 .962.317.962.79 0 .517-.422.831-.987.831H170.7Zm6.678 3.902c1.489 0 2.416-1.02 2.416-2.531 0-1.522-.927-2.538-2.416-2.538-1.49 0-2.417 1.016-2.417 2.538 0 1.511.927 2.531 2.417 2.531Zm.006-1.055c-.687 0-1.039-.629-1.039-1.486 0-.856.352-1.489 1.039-1.489.674 0 1.026.633 1.026 1.489 0 .857-.352 1.486-1.026 1.486Zm4.167-3.95h-1.406l1.406 2.454-1.457 2.455h1.406l.953-1.697.968 1.697h1.39l-1.46-2.455 1.422-2.454h-1.397l-.923 1.716-.902-1.716Zm6.002 5.005c1.215 0 2.033-.591 2.225-1.502l-1.26-.083c-.137.374-.489.569-.943.569-.68 0-1.112-.451-1.112-1.183v-.003h3.343v-.374c0-1.668-1.01-2.493-2.307-2.493-1.445 0-2.381 1.026-2.381 2.541 0 1.556.923 2.528 2.435 2.528Zm-1.09-3.046a1.038 1.038 0 0 1 1.058-1.007c.591 0 1.001.422 1.004 1.007h-2.062Zm8.235-.559c-.121-.905-.85-1.464-2.09-1.464-1.256 0-2.084.582-2.08 1.528-.004.735.46 1.211 1.419 1.403l.85.169c.428.086.623.243.629.489-.006.291-.322.499-.799.499-.486 0-.808-.208-.891-.608l-1.34.071c.128.939.927 1.518 2.228 1.518 1.272 0 2.183-.649 2.186-1.617-.003-.71-.466-1.135-1.419-1.33l-.888-.179c-.457-.099-.627-.256-.624-.492-.003-.294.33-.486.751-.486.474 0 .755.259.822.575l1.246-.076Zm233.361-120.895h2.004v5.404h1.368v-5.404h2.004v-1.141h-5.376v1.141Zm7.661 5.5c1.489 0 2.416-1.02 2.416-2.531 0-1.522-.927-2.538-2.416-2.538-1.49 0-2.416 1.016-2.416 2.538 0 1.511.926 2.531 2.416 2.531Zm.006-1.055c-.687 0-1.039-.629-1.039-1.486 0-.856.352-1.489 1.039-1.489.675 0 1.026.633 1.026 1.489 0 .857-.351 1.486-1.026 1.486Zm3.214 2.8h1.362v-2.627h.041c.189.409.601.866 1.394.866 1.118 0 1.991-.885 1.991-2.528 0-1.688-.911-2.525-1.988-2.525-.821 0-1.215.489-1.397.888h-.06v-.824h-1.343v6.75Zm1.333-4.296c0-.875.371-1.435 1.032-1.435.675 0 1.033.585 1.033 1.435 0 .857-.365 1.451-1.033 1.451-.655 0-1.032-.575-1.032-1.451Zm6.309-4.09v6.545h1.342v-4.276h.055l1.694 4.244h.914l1.694-4.228h.054v4.26h1.342v-6.545h-1.706l-1.803 4.397h-.077l-1.802-4.397h-1.707Zm8.129 6.545h1.361v-4.909h-1.361v4.909Zm.684-5.542c.406 0 .738-.31.738-.69 0-.377-.332-.687-.738-.687-.403 0-.735.31-.735.687 0 .38.332.69.735.69Zm3.496 5.622c.793 0 1.205-.457 1.393-.866h.058v.786h1.342v-6.545h-1.358v2.46h-.042c-.182-.399-.575-.888-1.396-.888-1.077 0-1.988.837-1.988 2.525 0 1.643.872 2.528 1.991 2.528Zm.431-1.084c-.667 0-1.032-.594-1.032-1.451 0-.85.358-1.435 1.032-1.435.662 0 1.033.56 1.033 1.435 0 .876-.377 1.451-1.033 1.451Zm72.649 9.341h1.326c-.019-1.167-.978-1.972-2.435-1.972-1.435 0-2.486.793-2.48 1.982-.003.965.677 1.518 1.783 1.783l.713.179c.713.173 1.109.377 1.112.818-.003.48-.457.806-1.16.806-.719 0-1.237-.333-1.282-.988h-1.339c.036 1.416 1.049 2.148 2.637 2.148 1.598 0 2.538-.764 2.541-1.963-.003-1.09-.825-1.668-1.962-1.924l-.589-.14c-.568-.131-1.045-.342-1.035-.812 0-.422.374-.732 1.051-.732.662 0 1.068.3 1.119.815Zm5.388 2.573c.003.658-.447 1.003-.936 1.003-.515 0-.847-.361-.85-.939v-2.883h-1.362v3.126c.003 1.147.675 1.847 1.662 1.847.738 0 1.269-.38 1.489-.956h.052v.892h1.307v-4.909h-1.362v2.819Zm2.37 2.09h1.361v-4.909h-1.361v4.909Zm.684-5.542c.406 0 .738-.31.738-.69 0-.377-.332-.687-.738-.687-.403 0-.735.31-.735.687 0 .38.332.69.735.69Zm3.905 5.638c1.307 0 2.129-.767 2.192-1.895h-1.284c-.08.524-.425.818-.892.818-.636 0-1.048-.534-1.048-1.474 0-.926.415-1.457 1.048-1.457.499 0 .818.329.892.818h1.284c-.057-1.134-.917-1.879-2.198-1.879-1.49 0-2.41 1.032-2.41 2.538 0 1.492.904 2.531 2.416 2.531Zm2.983-.096h1.362v-4.909h-1.362v4.909Zm.684-5.542c.406 0 .738-.31.738-.69 0-.377-.332-.687-.738-.687-.403 0-.735.31-.735.687 0 .38.332.69.735.69Zm3.496 5.622c.793 0 1.205-.457 1.394-.866h.057v.786h1.343v-6.545h-1.359v2.46h-.041c-.182-.399-.576-.888-1.397-.888-1.077 0-1.988.837-1.988 2.525 0 1.643.873 2.528 1.991 2.528Zm.432-1.084c-.668 0-1.033-.594-1.033-1.451 0-.85.358-1.435 1.033-1.435.661 0 1.032.56 1.032 1.435 0 .876-.377 1.451-1.032 1.451Zm5.637 1.1c1.215 0 2.033-.591 2.225-1.502l-1.26-.083c-.137.374-.489.569-.942.569-.681 0-1.113-.451-1.113-1.183v-.003h3.343v-.374c0-1.668-1.01-2.493-2.307-2.493-1.445 0-2.381 1.026-2.381 2.541 0 1.556.924 2.528 2.435 2.528Zm-1.09-3.046a1.038 1.038 0 0 1 1.058-1.007c.592 0 1.001.422 1.004 1.007h-2.062Zm12.516 160.546h2.004v5.404h1.368v-5.404h2.003v-1.141h-5.375v1.141Zm8.182 5.404h1.384v-2.122h1.163c1.505 0 2.381-.898 2.381-2.205 0-1.301-.86-2.218-2.346-2.218h-2.582v6.545Zm1.384-3.231v-2.183h.933c.799 0 1.186.435 1.186 1.087 0 .648-.387 1.096-1.18 1.096h-.939Zm5.698-3.314h-1.362v6.545h1.362v-6.545Zm2.409 6.638c.726 0 1.196-.317 1.435-.774h.039v.681h1.291v-3.311c0-1.17-.991-1.662-2.084-1.662-1.176 0-1.95.562-2.138 1.457l1.259.103c.093-.326.384-.566.873-.566.463 0 .728.233.728.636v.019c0 .317-.335.358-1.189.441-.971.09-1.844.416-1.844 1.512 0 .971.694 1.464 1.63 1.464Zm.39-.94c-.418 0-.719-.195-.719-.569 0-.383.317-.572.796-.639.297-.042.783-.112.946-.221v.521c0 .515-.425.908-1.023.908Zm5.961-4.062h-.923v-1.176h-1.362v1.176h-.671v1.023h.671v2.556c-.006.962.649 1.439 1.637 1.397.351-.013.6-.083.738-.128l-.214-1.013c-.067.013-.211.045-.339.045-.272 0-.46-.102-.46-.48v-2.377H593v-1.023Zm-79.51-310.364c0-2.141-1.329-3.362-3.065-3.362-1.745 0-3.065 1.221-3.065 3.362 0 2.132 1.32 3.362 3.065 3.362 1.736 0 3.065-1.22 3.065-3.362Zm-1.403 0c0 1.387-.658 2.138-1.662 2.138-1.006 0-1.662-.751-1.662-2.138s.656-2.138 1.662-2.138c1.004 0 1.662.751 1.662 2.138Zm5.47 1.183c.003.658-.447 1.003-.936 1.003-.515 0-.847-.361-.851-.939v-2.883h-1.361v3.126c.003 1.147.674 1.847 1.662 1.847.738 0 1.269-.38 1.489-.956h.051v.892h1.308v-4.909h-1.362v2.819Zm4.981-2.819h-.924v-1.176h-1.361v1.176h-.672v1.023h.672v2.556c-.007.962.648 1.439 1.636 1.397.351-.013.601-.083.738-.128l-.214-1.013c-.067.013-.211.045-.339.045-.271 0-.46-.102-.46-.48v-2.377h.924v-1.023Zm4.82 1.4c-.122-.905-.85-1.464-2.09-1.464-1.256 0-2.084.582-2.081 1.528-.003.735.46 1.211 1.419 1.403l.85.169c.428.086.623.243.63.489-.007.291-.323.499-.799.499-.486 0-.809-.208-.892-.608l-1.339.071c.128.939.927 1.518 2.228 1.518 1.272 0 2.182-.649 2.186-1.617-.004-.71-.467-1.135-1.419-1.33l-.889-.179c-.457-.099-.626-.256-.623-.492-.003-.294.329-.486.751-.486.473 0 .754.259.821.575l1.247-.076Zm.888 3.509h1.362v-4.909h-1.362v4.909Zm.684-5.542c.406 0 .738-.31.738-.69 0-.377-.332-.687-.738-.687-.403 0-.735.31-.735.687 0 .38.332.69.735.69Zm3.496 5.622c.793 0 1.205-.457 1.394-.866h.057v.786h1.342v-6.545h-1.358v2.46h-.041c-.183-.399-.576-.888-1.397-.888-1.077 0-1.988.837-1.988 2.525 0 1.643.873 2.528 1.991 2.528Zm.432-1.084c-.668 0-1.033-.594-1.033-1.451 0-.85.358-1.435 1.033-1.435.661 0 1.032.56 1.032 1.435 0 .876-.377 1.451-1.032 1.451Zm5.637 1.1c1.215 0 2.033-.591 2.224-1.502l-1.259-.083c-.137.374-.489.569-.943.569-.68 0-1.112-.451-1.112-1.183v-.003h3.343v-.374c0-1.668-1.01-2.493-2.307-2.493-1.445 0-2.381 1.026-2.381 2.541 0 1.556.923 2.528 2.435 2.528Zm-1.09-3.046a1.038 1.038 0 0 1 1.058-1.007c.591 0 1 .422 1.004 1.007h-2.062ZM513.73 260.5h4.19v-1.141h-2.806v-5.404h-1.384v6.545Zm7.218.096c1.49 0 2.417-1.02 2.417-2.531 0-1.522-.927-2.538-2.417-2.538-1.489 0-2.416 1.016-2.416 2.538 0 1.511.927 2.531 2.416 2.531Zm.007-1.055c-.687 0-1.039-.629-1.039-1.486 0-.856.352-1.489 1.039-1.489.674 0 1.026.633 1.026 1.489 0 .857-.352 1.486-1.026 1.486Zm4.575-1.879c.004-.633.381-1.004.93-1.004.547 0 .876.358.873.959v2.883h1.361v-3.126c0-1.144-.671-1.847-1.693-1.847-.729 0-1.257.358-1.477.93h-.058v-.866h-1.297v4.909h1.361v-2.838Zm6.368 4.781c1.403 0 2.4-.639 2.4-1.895v-4.957h-1.352v.824h-.051c-.182-.399-.581-.888-1.403-.888-1.077 0-1.988.837-1.988 2.509 0 1.633.886 2.394 1.991 2.394.783 0 1.221-.393 1.4-.799h.058v.898c0 .674-.432.936-1.023.936-.601 0-.904-.262-1.016-.559l-1.259.169c.163.774.92 1.368 2.243 1.368Zm.029-3.036c-.668 0-1.032-.531-1.032-1.378 0-.834.358-1.419 1.032-1.419.661 0 1.032.56 1.032 1.419 0 .867-.377 1.378-1.032 1.378ZM425.73 214h4.19v-1.141h-2.806v-5.404h-1.384V214Zm7.218.096c1.49 0 2.417-1.02 2.417-2.531 0-1.522-.927-2.538-2.417-2.538-1.489 0-2.416 1.016-2.416 2.538 0 1.511.927 2.531 2.416 2.531Zm.007-1.055c-.687 0-1.039-.629-1.039-1.486 0-.856.352-1.489 1.039-1.489.674 0 1.026.633 1.026 1.489 0 .857-.352 1.486-1.026 1.486Zm4.575-1.879c.004-.633.381-1.004.93-1.004.547 0 .876.358.873.959V214h1.361v-3.126c0-1.144-.671-1.847-1.693-1.847-.729 0-1.257.358-1.477.93h-.058v-.866h-1.297V214h1.361v-2.838Zm6.368 4.781c1.403 0 2.4-.639 2.4-1.895v-4.957h-1.352v.824h-.051c-.182-.399-.581-.888-1.403-.888-1.077 0-1.988.837-1.988 2.509 0 1.633.886 2.394 1.991 2.394.783 0 1.221-.393 1.4-.799h.058v.898c0 .674-.432.936-1.023.936-.601 0-.904-.262-1.016-.559l-1.259.169c.163.774.92 1.368 2.243 1.368Zm.029-3.036c-.668 0-1.032-.531-1.032-1.378 0-.834.358-1.419 1.032-1.419.661 0 1.032.56 1.032 1.419 0 .867-.377 1.378-1.032 1.378ZM425.89 226c1.994 0 3.202-1.234 3.202-3.279 0-2.039-1.208-3.266-3.183-3.266h-2.34V226h2.321Zm-.937-1.186v-4.174h.882c1.228 0 1.876.627 1.876 2.081 0 1.46-.648 2.093-1.879 2.093h-.879Zm7.276 1.282c1.489 0 2.416-1.02 2.416-2.531 0-1.522-.927-2.538-2.416-2.538-1.49 0-2.417 1.016-2.417 2.538 0 1.511.927 2.531 2.417 2.531Zm.006-1.055c-.687 0-1.039-.629-1.039-1.486 0-.856.352-1.489 1.039-1.489.674 0 1.026.633 1.026 1.489 0 .857-.352 1.486-1.026 1.486Zm5.432 1.055c1.489 0 2.416-1.02 2.416-2.531 0-1.522-.927-2.538-2.416-2.538-1.489 0-2.416 1.016-2.416 2.538 0 1.511.927 2.531 2.416 2.531Zm.007-1.055c-.688 0-1.039-.629-1.039-1.486 0-.856.351-1.489 1.039-1.489.674 0 1.025.633 1.025 1.489 0 .857-.351 1.486-1.025 1.486Zm3.214.959h1.361v-2.777c0-.604.441-1.02 1.042-1.02.189 0 .447.032.575.074v-1.208a2.025 2.025 0 0 0-.428-.048c-.55 0-1 .319-1.179.926h-.051v-.856h-1.32V226Zm7.686-3.509c-.122-.905-.85-1.464-2.09-1.464-1.256 0-2.084.582-2.081 1.528-.003.735.46 1.211 1.419 1.403l.85.169c.428.086.623.243.63.489-.007.291-.323.499-.799.499-.486 0-.809-.208-.892-.608l-1.339.071c.128.939.927 1.518 2.228 1.518 1.272 0 2.182-.649 2.186-1.617-.004-.71-.467-1.135-1.419-1.33l-.889-.179c-.457-.099-.626-.256-.623-.492-.003-.294.329-.486.751-.486.473 0 .754.259.821.575l1.247-.076Zm14.916 358.736c0-2.141-1.329-3.362-3.065-3.362-1.745 0-3.065 1.221-3.065 3.362 0 2.132 1.32 3.362 3.065 3.362 1.736 0 3.065-1.22 3.065-3.362Zm-1.403 0c0 1.387-.658 2.138-1.662 2.138-1.006 0-1.662-.751-1.662-2.138s.656-2.138 1.662-2.138c1.004 0 1.662.751 1.662 2.138Zm5.47 1.183c.003.658-.447 1.003-.936 1.003-.515 0-.847-.361-.851-.939v-2.883h-1.361v3.126c.003 1.147.674 1.847 1.662 1.847.738 0 1.269-.38 1.489-.956h.051v.892h1.308v-4.909h-1.362v2.819Zm4.981-2.819h-.924v-1.176h-1.361v1.176h-.672v1.023h.672v2.556c-.007.962.648 1.439 1.636 1.397.351-.013.601-.083.738-.128l-.214-1.013c-.067.013-.211.045-.339.045-.271 0-.46-.102-.46-.48v-2.377h.924v-1.023Zm4.82 1.4c-.122-.905-.85-1.464-2.09-1.464-1.256 0-2.084.582-2.081 1.528-.003.735.46 1.211 1.419 1.403l.85.169c.428.086.623.243.63.489-.007.291-.323.499-.799.499-.486 0-.809-.208-.892-.608l-1.339.071c.128.939.927 1.518 2.228 1.518 1.272 0 2.182-.649 2.186-1.617-.004-.71-.467-1.135-1.419-1.33l-.889-.179c-.457-.099-.626-.256-.623-.492-.003-.294.329-.486.751-.486.473 0 .754.259.821.575l1.247-.076Zm.888 3.509h1.362v-4.909h-1.362v4.909Zm.684-5.542c.406 0 .738-.31.738-.69 0-.377-.332-.687-.738-.687-.403 0-.735.31-.735.687 0 .38.332.69.735.69Zm3.496 5.622c.793 0 1.205-.457 1.394-.866h.057v.786h1.342v-6.545h-1.358v2.46h-.041c-.183-.399-.576-.888-1.397-.888-1.077 0-1.988.837-1.988 2.525 0 1.643.873 2.528 1.991 2.528Zm.432-1.084c-.668 0-1.033-.594-1.033-1.451 0-.85.358-1.435 1.033-1.435.661 0 1.032.56 1.032 1.435 0 .876-.377 1.451-1.032 1.451Zm5.637 1.1c1.215 0 2.033-.591 2.224-1.502l-1.259-.083c-.137.374-.489.569-.943.569-.68 0-1.112-.451-1.112-1.183v-.003h3.343v-.374c0-1.668-1.01-2.493-2.307-2.493-1.445 0-2.381 1.026-2.381 2.541 0 1.556.923 2.528 2.435 2.528Zm-1.09-3.046a1.038 1.038 0 0 1 1.058-1.007c.591 0 1 .422 1.004 1.007h-2.062Zm-27.868 9.546h2.004v5.404h1.368v-5.404h2.003v-1.141h-5.375v1.141Zm8.634 3.314c.004.658-.447 1.003-.936 1.003-.515 0-.847-.361-.85-.939v-2.883h-1.362v3.126c.003 1.147.675 1.847 1.662 1.847.738 0 1.269-.38 1.49-.956h.051v.892h1.307v-4.909h-1.362v2.819Zm3.731-.748c.004-.633.381-1.004.93-1.004.547 0 .876.358.873.959v2.883h1.361v-3.126c0-1.144-.671-1.847-1.693-1.847-.729 0-1.257.358-1.477.93h-.058v-.866h-1.297v4.909h1.361v-2.838Zm5.518 0c.003-.633.38-1.004.93-1.004.547 0 .876.358.873.959v2.883h1.361v-3.126c0-1.144-.671-1.847-1.694-1.847-.729 0-1.256.358-1.476.93h-.058v-.866h-1.298v4.909h1.362v-2.838Zm6.393 2.934c1.215 0 2.033-.591 2.225-1.502l-1.259-.083c-.138.374-.489.569-.943.569-.681 0-1.113-.451-1.113-1.183v-.003h3.344v-.374c0-1.668-1.01-2.493-2.308-2.493-1.445 0-2.381 1.026-2.381 2.541 0 1.556.924 2.528 2.435 2.528Zm-1.09-3.046a1.038 1.038 0 0 1 1.058-1.007c.592 0 1.001.422 1.004 1.007h-2.062Zm5.513-3.595h-1.362v6.545h1.362v-6.545Z"/></g></svg>