<svg xmlns="http://www.w3.org/2000/svg" width="708" height="708" fill="none"><path fill="#181B21" fill-rule="evenodd" d="M691.58 128.59h-7.577v-1.704l-14.774-2.084-9.093 16.858v2.842h-4.925v-2.842h3.599v-34.095h-19.699v4.546h-14.964v-9.661h-7.956V66.46H580.77v2.084h-6.63v-2.083h-11.934v2.083h-6.629v-2.083h-36.369v32.77h-24.624v-2.084h-5.683V96.01h3.978v-51.9h-19.7v16.1h-22.73v2.652h-66.866V32.365H365.21l-1.516 1.137h-3.977v-4.357l-52.659-1.894V21h-29.36v19.89h-1.894v-3.6h-46.976v46.218h-2.463c.063.632-.151 1.895-1.515 1.895-1.364 0-1.579-1.263-1.516-1.895h-92.247v18.753h-17.995v-42.62H88.467l-43.945 1.705-19.7 6.062h-3.977l-.947 24.246h4.924v30.686h-3.977v55.878l2.84 22.352h6.062v25.003h25.761l2.084 51.144H42.817v12.312h13.45v16.29H54.75v-6.63H15.73l.568 42.43h10.796v2.842h-.947v34.285H64.98v1.894H51.531v14.964h2.273v5.493h-3.978v4.168l-12.123 28.981-6.82 76.525 14.018 1.705 8.713 5.683-2.462 19.699 21.404 5.683v15.343l5.872 24.435 5.115 4.925 14.017-13.449 17.995 17.995h48.302l2.841-2.652 5.304 5.304h7.008c2.399-1.389 8.335-4.167 12.881-4.167v-10.229h10.986v10.229l7.577 1.515 5.304 3.41h18.752v4.925h-14.017v38.262h36.179c0-3.22 2.463-4.356 3.978-4.356 1.515 0 4.357.947 4.357 4.356 0 2.842-2.463 3.789-4.357 3.789v22.541a3.978 3.978 0 0 1 3.978 3.978v.947h22.541a4.357 4.357 0 0 1 4.357-4.357h.757v-3.41h5.115v21.594L324.485 687h40.346v-18.563h-1.515v-47.734h40.725l1.326-1.326h4.925v5.683h-1.516v8.902h16.29V506.483h-15.343v2.652h-4.924v-2.652H322.59v-42.62h42.62l55.689-105.506h15.911v-18.564h-23.109v-60.046h97.93v-16.669h38.453v-33.716h48.68v3.409h21.215v-26.708h6.441V177.65h8.713l-.947 64.403 2.084 31.822h7.197v.569h7.956l40.347-8.903-6.441-23.488v-16.669l5.304-48.681.947-48.113Zm-49.438 12.881v2.273h-7.198v16.29H603.5v20.836h-4.167v29.55h-44.514v-32.959h1.705v-3.22h6.63v3.22h11.554c-.126-1.074.114-3.22 2.084-3.22V145.07h-2.084v-6.251h2.084v-32.77h-2.084V99.23h7.009v3.031h14.964v39.21h45.461Zm-79.746 3.22h-6.44v-6.44h6.44v6.44Zm-6.44-39.02h6.44v-6.44h-6.44v6.44Zm-40.726 97.551h4.168v-57.016h-29.739v1.137h11.175v3.22h.948v-2.652h13.448v55.311Zm-13.638-42.051h-1.326v20.836h-5.114v19.51h-25.193v-5.304h-2.273v-1.136h-1.326v6.44h-52.28v-24.246h6.63l2.083-2.083h-4.167v-8.524h-34.474v1.894h-8.524v-22.73h-58.72v6.44h-2.463v11.554h2.463v44.514h58.152v-4.735h45.46v49.628h65.161v-49.628h15.343l.568-42.43Zm-31.633-65.54v2.463H440.41v10.797h-57.205v-16.29h-5.683v-2.084h5.683V82.94h58.152l9.092-2.462V95.63h19.51Zm-163.09 2.652V92.79H296.45V73.66h10.419V49.602h45.839l7.009-1.704h4.925v1.704h2.083v41.105h2.463v2.083h-2.463v5.493h-59.856Zm125.964 76.715.757 1.894h10.608v-29.549h21.973v30.686h1.136v-30.686h3.22v-1.137h-28.981v28.792h-8.713Zm-155.324-73.873V49.792h-2.274l-5.872 4.356h-23.298V83.32h9.092v17.806h-9.092v36.368h2.273v-33.717h9.092V96.58h17.995v4.546h2.084Zm0 36.747h-1.516v-9.85h1.516v9.85Zm-1.516-20.836h1.516v-9.85h-1.516v9.85Zm1.705 87.133v-58.531h-2.084v5.115h-26.518v-3.789h-2.842v50.954h-17.616v-4.735h-1.326v10.986h50.386Zm-46.787-20.457h-3.978v-31.065h-5.682v-10.608h-3.031v-3.599h3.031v-17.047h-90.922v-4.357h1.137v2.462h14.964v-17.237h76.904v-1.136h2.652v1.136h2.842v19.132h-2.842v14.585h2.842v14.206h2.083v33.528Zm-34.853-41.294h-3.788v-3.788h3.788v3.788Zm-65.16 27.087v-5.493h5.493v1.326h53.606v-1.326h5.872v5.493h-4.925v28.034h4.925v5.683h-4.925v49.249h4.925v6.061h-4.925v28.413h4.925v5.683h-5.872v-2.084h-95.09v-40.725h38.453V243h-2.084v-4.925h5.115V243h-1.516v6.819h15.912V167.99h-14.396v1.515h-5.493Zm145.663 77.473v-14.017h-50.385v35.611h-8.524v49.438h11.365l2.084 15.533h-13.449v-4.168h-60.993v53.227h23.298v168.205h38.831v-13.449h68.002v-61.75h-8.903v-40.726h-9.092v-17.426l14.396 3.03h61.372l7.956-7.576 13.07-24.436 2.462 1.137 16.48-32.959-7.009-3.789v-32.58h14.585v-21.025h3.221v-45.082h-31.823v-11.365h-22.162v7.955H316.34l-22.163-5.304-17.616 1.516ZM45.28 352.863v-8.902h-1.326v-3.031H54.75v-26.708h1.515c-.252 3.599-.606 10.797 0 10.797h42.81v3.788h36.746v52.659H78.997v-1.515h-5.872v-1.516h5.872v-34.474H47.363v8.902H45.28Zm46.218 47.924h-5.682v-5.683h5.682v5.683Zm32.959 0h5.683v-5.683h-5.683v5.683Zm43.188 0h-5.683v-5.683h5.683v5.683Zm-23.867 15.532h5.683v-5.682h-5.683v5.682Zm23.867 98.498h-5.683v-5.682h5.683v5.682Zm-5.683 36.748h5.683v-5.683h-5.683v5.683ZM83.164 471.63v2.652h78.23l.758 2.273h5.872v-6.062h-1.137v-37.694H84.679v38.831h-1.515Zm216.128 173.319v3.978h-7.577v-6.445a4.167 4.167 0 1 1 3.961-3.784h31.856a4.167 4.167 0 0 1 4.529-4.529v-28.826a4.168 4.168 0 0 1-4.529-4.529h-31.856a4.167 4.167 0 1 1-8.301 0H264.99l.009.115.005.105.003.159a4.167 4.167 0 1 1-8.318-.379h-6.078v-5.872h4.167v-31.065h42.43v31.065h40.915v50.007h-38.831Zm111.568-58.152h-6.44v-6.44h6.44v6.44Zm-6.44-37.884h6.44v-6.44h-6.44v6.44Z" clip-rule="evenodd"/><path fill="#13161C" d="M395.328 254.176h-20.457v-8.713h20.457zm-10.986-8.714h-9.471v-99.635h9.471z"/><mask id="a" width="677" height="666" x="15" y="21" maskUnits="userSpaceOnUse" style="mask-type:alpha"><path fill="#181B21" fill-rule="evenodd" d="M691.58 128.59h-7.577v-1.704l-14.774-2.084-9.093 16.858v2.842h-4.925v-2.842h3.599v-34.095h-19.699v4.546h-14.964v-9.661h-7.956V66.46H580.77v2.084h-6.63v-2.083h-11.934v2.083h-6.629v-2.083h-36.369v32.77h-24.624v-2.084h-5.683V96.01h3.978v-51.9h-19.7v16.1h-22.73v2.652h-66.866V32.365H365.21l-1.516 1.137h-3.977v-4.357l-52.659-1.894V21h-29.36v19.89h-1.894v-3.6h-46.976v46.218h-2.463c.063.632-.151 1.895-1.515 1.895-1.364 0-1.579-1.263-1.516-1.895h-92.247v18.753h-17.995v-42.62H88.467l-43.945 1.705-19.7 6.062h-3.977l-.947 24.246h4.924v30.686h-3.977v55.878l2.84 22.352h6.062v25.003h25.761l2.084 51.144H42.817v12.312h13.45v16.29H54.75v-6.63H15.73l.568 42.43h10.796v2.842h-.947v34.285H64.98v1.894H51.531v14.964h2.273v5.493h-3.978v4.168l-12.123 28.981-6.82 76.525 14.018 1.705 8.713 5.683-2.462 19.699 21.404 5.683v15.343l5.872 24.435 5.115 4.925 14.017-13.449 17.995 17.995h48.302l2.841-2.652 5.304 5.304h7.008c2.399-1.389 8.335-4.167 12.881-4.167v-10.229h10.986v10.229l7.577 1.515 5.304 3.41h18.752v4.925h-14.017v38.262h36.179c0-3.22 2.463-4.356 3.978-4.356 1.515 0 4.357.947 4.357 4.356 0 2.842-2.463 3.789-4.357 3.789v22.541a3.978 3.978 0 0 1 3.978 3.978v.947h22.541a4.357 4.357 0 0 1 4.357-4.357h.757v-3.41h5.115v21.594L324.485 687h40.346v-18.563h-1.515v-47.734h40.725l1.326-1.326h4.925v5.683h-1.516v8.902h16.29V506.483h-15.343v2.652h-4.924v-2.652H322.59v-42.62h42.62l55.689-105.506h15.911v-18.564h-23.109v-60.046h97.93v-16.669h38.453v-33.716h48.68v3.409h21.215v-26.708h6.441V177.65h8.713l-.947 64.403 2.084 31.822h7.197v.569h7.956l40.347-8.903-6.441-23.488v-16.669l5.304-48.681.947-48.113Zm-49.438 12.881v2.273h-7.198v16.29H603.5v20.836h-4.167v29.55h-44.514v-32.959h1.705v-3.22h6.63v3.22h11.554c-.126-1.074.114-3.22 2.084-3.22V145.07h-2.084v-6.251h2.084v-32.77h-2.084V99.23h7.009v3.031h14.964v39.21h45.461Zm-79.746 3.22h-6.44v-6.44h6.44v6.44Zm-6.44-39.02h6.44v-6.44h-6.44v6.44Zm-40.726 97.551h4.168v-57.016h-29.739v1.137h11.175v3.22h.948v-2.652h13.448v55.311Zm-13.638-42.051h-1.326v20.836h-5.114v19.51h-25.193v-5.304h-2.273v-1.136h-1.326v6.44h-52.28v-24.246h6.63l2.083-2.083h-4.167v-8.524h-34.474v1.894h-8.524v-22.73h-58.72v6.44h-2.463v11.554h2.463v44.514h58.152v-4.735h45.46v49.628h65.161v-49.628h15.343l.568-42.43Zm-31.633-65.54v2.463H440.41v10.797h-57.205v-16.29h-5.683v-2.084h5.683V82.94h58.152l9.092-2.462V95.63h19.51Zm-163.09 2.652V92.79H296.45V73.66h10.419V49.602h45.839l7.009-1.704h4.925v1.704h2.083v41.105h2.463v2.083h-2.463v5.493h-59.856Zm125.964 76.715.757 1.894h10.608v-29.549h21.973v30.686h1.136v-30.686h3.22v-1.137h-28.981v28.792h-8.713Zm-155.324-73.873V49.792h-2.274l-5.872 4.356h-23.298V83.32h9.092v17.806h-9.092v36.368h2.273v-33.717h9.092V96.58h17.995v4.546h2.084Zm0 36.747h-1.516v-9.85h1.516v9.85Zm-1.516-20.836h1.516v-9.85h-1.516v9.85Zm1.705 87.133v-58.531h-2.084v5.115h-26.518v-3.789h-2.842v50.954h-17.616v-4.735h-1.326v10.986h50.386Zm-46.787-20.457h-3.978v-31.065h-5.682v-10.608h-3.031v-3.599h3.031v-17.047h-90.922v-4.357h1.137v2.462h14.964v-17.237h76.904v-1.136h2.652v1.136h2.842v19.132h-2.842v14.585h2.842v14.206h2.083v33.528Zm-34.853-41.294h-3.788v-3.788h3.788v3.788Zm-65.16 27.087v-5.493h5.493v1.326h53.606v-1.326h5.872v5.493h-4.925v28.034h4.925v5.683h-4.925v49.249h4.925v6.061h-4.925v28.413h4.925v5.683h-5.872v-2.084h-95.09v-40.725h38.453V243h-2.084v-4.925h5.115V243h-1.516v6.819h15.912V167.99h-14.396v1.515h-5.493Zm145.663 77.473v-14.017h-50.385v35.611h-8.524v49.438h11.365l2.084 15.533h-13.449v-4.168h-60.993v53.227h23.298v168.205h38.831v-13.449h68.002v-61.75h-8.903v-40.726h-9.092v-17.426l14.396 3.03h61.372l7.956-7.576 13.07-24.436 2.462 1.137 16.48-32.959-7.009-3.789v-32.58h14.585v-21.025h3.221v-45.082h-31.823v-11.365h-22.162v7.955H316.34l-22.163-5.304-17.616 1.516ZM45.28 352.863v-8.902h-1.326v-3.031H54.75v-26.708h1.515c-.252 3.599-.606 10.797 0 10.797h42.81v3.788h36.746v52.659H78.997v-1.515h-5.872v-1.516h5.872v-34.474H47.363v8.902H45.28Zm46.218 47.924h-5.682v-5.683h5.682v5.683Zm32.959 0h5.683v-5.683h-5.683v5.683Zm43.188 0h-5.683v-5.683h5.683v5.683Zm-23.867 15.532h5.683v-5.682h-5.683v5.682Zm23.867 98.498h-5.683v-5.682h5.683v5.682Zm-5.683 36.748h5.683v-5.683h-5.683v5.683ZM83.164 471.63v2.652h78.23l.758 2.273h5.872v-6.062h-1.137v-37.694H84.679v38.831h-1.515Zm216.128 173.319v3.978h-7.577v-6.445a4.167 4.167 0 1 1 3.961-3.784h31.856a4.167 4.167 0 0 1 4.529-4.529v-28.826a4.168 4.168 0 0 1-4.529-4.529h-31.856a4.167 4.167 0 1 1-8.301 0H264.99l.009.115.005.105.003.159a4.167 4.167 0 1 1-8.318-.379h-6.078v-5.872h4.167v-31.065h42.43v31.065h40.915v50.007h-38.831Zm111.568-58.152h-6.44v-6.44h6.44v6.44Zm-6.44-37.884h6.44v-6.44h-6.44v6.44Z" clip-rule="evenodd"/></mask><g mask="url(#a)"><circle cx="688.36" cy="263.457" r="2.084" fill="#272A30" transform="rotate(180 688.36 263.457)"/><circle cx="686.086" cy="194.509" r="1.326" fill="#272A30" transform="rotate(180 686.086 194.509)"/><circle cx="638.542" cy="146.964" r="2.652" fill="#272A30" transform="rotate(180 638.542 146.964)"/><circle cx="603.311" cy="137.872" r="2.652" fill="#272A30" transform="rotate(180 603.311 137.872)"/><circle cx="599.901" cy="134.463" r="2.652" fill="#272A30" transform="rotate(180 599.901 134.463)"/><circle cx="599.901" cy="138.251" r="2.652" fill="#272A30" transform="rotate(180 599.901 138.251)"/><circle cx="515.797" cy="103.398" r="3.031" fill="#272A30" transform="rotate(180 515.797 103.398)"/><circle cx="551.409" cy="202.275" r="3.031" fill="#272A30" transform="rotate(180 551.409 202.275)"/><circle cx="522.997" cy="205.306" r="3.031" fill="#272A30" transform="rotate(180 522.997 205.306)"/><circle cx="469.77" cy="167.99" r="1.705" fill="#272A30" transform="rotate(180 469.77 167.99)"/><circle cx="438.135" cy="143.555" r="3.031" fill="#272A30" transform="rotate(180 438.135 143.555)"/><circle cx="408.586" cy="115.142" r="3.031" fill="#272A30" transform="rotate(180 408.586 115.142)"/><circle cx="280.539" cy="148.859" r="2.273" fill="#272A30" transform="rotate(180 280.539 148.859)"/><circle cx="273.719" cy="148.48" r="1.515" fill="#272A30" transform="rotate(180 273.719 148.48)"/><circle cx="164.614" cy="162.876" r="2.273" fill="#272A30" transform="rotate(180 164.614 162.876)"/><circle cx="123.7" cy="138.251" r="2.273" fill="#272A30" transform="rotate(180 123.7 138.251)"/><circle cx="59.865" cy="113.437" r="2.462" fill="#272A30" transform="rotate(180 59.865 113.437)"/><circle cx="51.152" cy="147.154" r="2.462" fill="#272A30" transform="rotate(180 51.152 147.154)"/><circle cx="114.417" cy="174.052" r="2.462" fill="#272A30" transform="rotate(180 114.417 174.052)"/><circle cx="117.828" cy="176.703" r="2.462" fill="#272A30" transform="rotate(180 117.828 176.703)"/><circle cx="114.417" cy="179.355" r="2.462" fill="#272A30" transform="rotate(180 114.417 179.355)"/><circle cx="59.486" cy="109.27" r="2.462" fill="#272A30" transform="rotate(180 59.486 109.27)"/><circle cx="453.1" cy="93.359" r="1.705" fill="#272A30" transform="rotate(180 453.1 93.359)"/><circle cx="470.528" cy="63.052" r="2.084" fill="#272A30" transform="rotate(180 470.528 63.052)"/><circle cx="413.891" cy="207.579" r="3.031" fill="#272A30" transform="rotate(180 413.891 207.579)"/><circle cx="378.659" cy="206.821" r="3.031" fill="#272A30" transform="rotate(180 378.659 206.821)"/><circle cx="361.231" cy="212.125" r="2.273" fill="#272A30" transform="rotate(180 361.231 212.125)"/><circle cx="367.293" cy="451.551" r="3.031" fill="#272A30" transform="rotate(180 367.293 451.551)"/><circle cx="365.778" cy="446.247" r="3.031" fill="#272A30" transform="rotate(180 365.778 446.247)"/><circle cx="361.231" cy="449.278" r="3.031" fill="#272A30" transform="rotate(180 361.231 449.278)"/><circle cx="355.549" cy="446.626" r="3.031" fill="#272A30" transform="rotate(180 355.549 446.626)"/><circle cx="343.047" cy="523.528" r="2.273" fill="#272A30" transform="rotate(180 343.047 523.528)"/><circle cx="340.016" cy="527.317" r="2.273" fill="#272A30" transform="rotate(180 340.016 527.317)"/><circle cx="395.895" cy="604.41" r="2.462" fill="#272A30" transform="rotate(180 395.895 604.41)"/><circle cx="390.971" cy="604.41" r="2.462" fill="#272A30" transform="rotate(180 390.971 604.41)"/><circle cx="386.045" cy="604.031" r="2.462" fill="#272A30" transform="rotate(180 386.045 604.031)"/><circle cx="228.448" cy="592.29" r="1.705" fill="#272A30" transform="rotate(180 228.448 592.29)"/><circle cx="126.73" cy="526.94" r="8.713" fill="#272A30" transform="rotate(180 126.73 526.94)"/><circle cx="158.552" cy="517.469" r="2.273" fill="#272A30" transform="rotate(180 158.552 517.469)"/><circle cx="104.378" cy="499.664" r="2.273" fill="#272A30" transform="rotate(180 104.378 499.664)"/><circle cx="83.542" cy="583.766" r="2.273" fill="#272A30" transform="rotate(180 83.542 583.766)"/><circle cx="99.832" cy="498.148" r="1.515" fill="#272A30" transform="rotate(180 99.832 498.148)"/><circle cx="104.757" cy="430.336" r="1.894" fill="#272A30" transform="rotate(180 104.757 430.336)"/><circle cx="51.152" cy="347.56" r="2.084" fill="#272A30" transform="rotate(180 51.152 347.56)"/><circle cx="51.91" cy="326.345" r="2.084" fill="#272A30" transform="rotate(180 51.91 326.345)"/><circle cx="18.951" cy="303.993" r="2.084" fill="#272A30" transform="rotate(180 18.95 303.993)"/><circle cx="389.077" cy="599.864" r="2.462" fill="#272A30" transform="rotate(180 389.077 599.864)"/><circle cx="394" cy="599.864" r="2.462" fill="#272A30" transform="rotate(180 394 599.864)"/><circle cx="338.123" cy="523.149" r="2.273" fill="#272A30" transform="rotate(180 338.123 523.149)"/><circle cx="333.955" cy="525.043" r="2.273" fill="#272A30" transform="rotate(180 333.955 525.043)"/><circle cx="330.545" cy="523.149" r="2.273" fill="#272A30" transform="rotate(180 330.545 523.149)"/><circle cx="355.17" cy="212.125" r="2.273" fill="#272A30" transform="rotate(180 355.17 212.125)"/><circle cx="540.612" cy="259.669" r="2.841" fill="#272A30" transform="rotate(180 540.612 259.669)"/><path fill="#272A30" d="m685.76 212.125-3.15-.139.524-11.871 3.15.139zm3.023-24.625-3.15-.139.524-11.871 3.15.139zm-70.008-46.763-.151-2.334 8.173-.53.152 2.333zM599.598 69.31l.247-2.325 10.664 1.128-.246 2.326zm-3.487 0-.246-2.326-10.665 1.129.247 2.326zm7.578 62.501h-6.44v-12.502h6.44zm-41.671 37.884h-4.925v-18.942h4.925zm-335.653 420.68-1.278 4.756-18.293-4.915 1.278-4.756zM83.921 476.555v-2.273h13.45l-2.084 2.273H83.92ZM562.018 93.169h-4.925V74.227h4.925zm-62.51 86.376h-3.788v-7.198h3.788zm-28.033-14.396h-3.41v-11.744h3.41zm-6.063-12.123h-6.44v-4.925h6.44zm2.652-57.962h-11.365v-4.167h11.365zm-13.259-5.304h-3.41v-3.41h3.41zm37.127-18.184h-3.788v-12.88h3.788zm.166-22.673-2.773 3.238-4.603-3.942 2.772-3.238zm-18.182-.276 2.653 3.611 5.135-3.772-2.652-3.611zm-25.551 110.081h-3.031v-5.304h3.031zm-23.867-23.403-1.716 2.947-3.405-1.984 1.717-2.946zm23.867 42.724h-3.031v-17.427h3.031zm6.061 0h-6.061v-3.788h6.061zm-3.03 22.731h-14.017v-6.061h14.017zm2.651-1.137h-2.273v-4.546h2.273zm22.73-2.264-2.714 2.642-3.964-4.072 2.714-2.642zm-39.513 2.887-.923.514-1.4-2.518.922-.513zm44.439-1.75-2.714 2.642-2.707-2.78 2.714-2.642zm-31.443-4.555h-4.167v-1.894h4.167zm-4.926.378h-4.167v-1.894h4.167zm-29.17-15.911v4.925h-1.515v-4.925zm-27.656 25.761v11.744h-3.031v-11.744zm-58.721 41.294v4.546h-12.123v-4.546zm111.379-95.847v11.744h-3.031v-11.744zm-54.553-40.157v11.365h-3.41v-11.365zm-133.73 17.427v3.788h-3.788v-3.788zm37.885 24.624v2.652h-12.88v-2.652zm-136.761-29.928v4.925h-11.365v-4.925zm-5.683 47.355v11.365h-11.365v-11.365zm45.84 1.516v7.577h-1.894v-7.577zm-17.638-7.475-1.036 2.55-10.53-4.278 1.037-2.55zm-45.629 41.57v4.167h-4.167v-4.167zm18.942 14.396v11.365h-11.365v-11.365zm-33.338 19.321v11.744h-11.365v-11.744zm45.082 54.173v1.515h-11.744v-1.515zm165.554 128.806v9.85h-15.911v-9.85zm15.152 85.236v14.396h-14.017V506.48zm25.762 0v14.396h-7.198V506.48zm42.429 22.352v13.259h-6.819v-13.259zm-9.849 78.041v13.259h-14.396v-13.259zm-55.311-8.335v7.198h-7.198v-7.198zm-40.156 2.652v9.471h-7.198v-9.471zm-31.066-63.642v2.273h-19.321v-2.273zm51.523-31.065h2.273v25.761h-2.273zm0 50.007h2.273v38.642h-2.273zm-2.273 112.136h2.273v18.563h-2.273z"/><path stroke="#272A30" d="M162.151 476.365v48.492m23.298 26.14v2.462h-23.488V540.2m-56.636 41.861v-32.769H84.3v-1.137l-11.744-3.599m50.385-70.274v24.435h39.21"/><path fill="#272A30" d="M161.583 479.206v17.427h-4.546v-17.427zm-46.976-97.361v4.546h-12.502v-4.546zm-74.631-7.577v3.41H27.853v-3.41zm28.792-29.171v3.41H53.614v-3.41zm-25.761-45.461v3.41h-8.334v-3.41zm-9.851 0v3.41H21.033v-3.41zm-12.122 6.82V318.2h-3.788v-11.744zm6.062 30.686v3.41h-4.167v-3.41zm-4.355.231-2.844 3.178-3.222-2.884 2.844-3.178zm31.631-31.823-.599.67-7.356-6.584.599-.669zm83.208 215.836-2.7 15.47-19.48-3.4 2.7-15.47zm-68.812 17.298-.599 2.425-12.133-2.994.598-2.424zm14.749 40.2-4.29 1.094-3.006-11.786 4.29-1.095zm-45.76-86.039-4.42-.256.704-12.144 4.42.256zm2.208-20.676-4.41-.382.768-8.87 4.41.382zm1.487-17.966-4.422-.208.551-11.729 4.422.208zM228.639 628.09l2.831 7.816-7.705 2.791-2.831-7.816zm76.525 1.134v9.471h-7.198v-9.471zm-1.516 46.6 3.362 6.641-3.344 1.693-3.362-6.641z"/><path fill="#272A30" d="m302.086 672.05 1.92 3.794-3.702 1.874-1.92-3.794zm-1.504 5.571 2.43 4.799-2.687 1.36-2.43-4.799zm46.416-68.555-1.326-3.22h-6.44l-.758 3.22 3.22 11.934h2.084l3.22-11.934Zm-8.496-26.628-1.326-3.221h-6.44l-.758 3.221 3.22 11.933h2.084l3.22-11.933Z"/><path fill="#272A30" d="m334.713 582.438-1.12-3.221h-5.438l-.64 3.221 2.719 11.933h1.76l2.719-11.933ZM158.932 290.923v1.515h-11.744v-1.515zM60.434 217.05l-1.282 13.232-3.207-.31 1.282-13.232zm51.556-43.559-2.13 11.358-11.358-2.13 2.13-11.358zm15.682 25.815-1.25 11.488-11.487-1.249 1.249-11.488zm12.317-77.724v6.819h-5.304v-6.819z"/><path fill="#272A30" d="M134.686 121.582v14.396h-26.14v-14.396zm-109.942 1.122-3.14 8.728-1.425-.512 3.14-8.729zm236.854-25.746v3.788h-4.167v-3.788zm-150.78-36.369v3.788H99.074v-3.788zM104 120.067v1.515H93.393v-1.515zm-48.113 18.184v1.894H20.655v-1.894z"/><path fill="#272A30" d="M95.665 98.852v21.215h-2.273V98.852zm-39.778 12.88v18.563h-2.273v-18.563zm0 26.898v22.352h-2.273V138.63zm.379 38.27-1.209 50-2.272-.054 1.208-50.002zm196.996-72.744v7.577h-3.788v-7.577zm4.166 17.452-4.217 4.142-4.142-4.217 4.217-4.142zm158.357 41.647v2.652h-8.713v-2.652zm-16.291-.758v3.41h-12.502v-3.41zm100.393 6.44h-3.031v-3.41h3.031z"/><path stroke="#272A30" d="M490.605 146.206v-48.87m-21.593 48.87v-48.87m-26.899 48.871v-6.82h-57.394v27.466m-93.762-26.897v44.324"/><path fill="#272A30" d="M543.453 251.524h-4.167v-12.88h4.167zm-31.443 28.792h-18.184v-5.683h18.184zm-12.502-5.683h-5.683v-5.683h5.683zm-10.404-32.201-2.457-3.366 9.293-6.783 2.457 3.366zM408.43 379.761l-3.684-1.946 12.279-23.243 3.684 1.946zm-44.547 38.451-2.225 2.32-8.505-8.16 2.225-2.319zm-3.43 35.342-.78 1.407-9.072-5.034.781-1.407z"/><path stroke="#272A30" d="M519.018 203.222v17.048h-15.533m-17.805 10.228h33.338m-19.7 34.664v3.788M221.25 146.206c-.303-.151-19.068-.063-28.413 0v-24.814m-4.357.001v6.25h-13.827v-6.25m-5.493 0v6.25h-13.827v-6.25m122.364 10.796h8.713v-17.237h-8.713m-.188-23.298h5.303V74.227h-5.303m-146.99 47.166H104V82.94h9.092M43.386 195.456c.757-15.912-2.917-35.081 11.175-35.233m19.131 218.212 5.683-5.682m421.27-222.19-9.471-3.409M49.825 401.734H61.76m13.638 0h92.058"/><circle cx="369.498" cy="559.5" r="4.5" fill="#272A30" transform="rotate(180 369.498 559.5)"/></g><g class="labels"><path fill="#999CA2" fill-opacity=".25" d="m402.27 591.753.471.647-.471-.647Zm-6.985 5.079-.47-.647.47.647Zm-58.113-18.348-.725.337.725-.337Zm2.091 4.503-.726.337.726-.337Zm21.776-4.046.566-.566-.566.566Zm-3.763-3.079-.784-.157.784.157Zm-.527-2.571.521-.607-.521.607Zm.66 1.911.784.157-.784-.157Zm-2.325-3.338.521-.607-.521.607Zm-4.45-21.2-.583-.548.583.548Zm1.863-3.282-.202.775.202-.775Zm2.305-.314-.533-.597.533.597Zm-1.823.44.202-.774-.202.774Zm3.891-3.593.786-.151-.786.151Zm-.631 1.867.534.596-.534-.596Zm.421-2.962.786-.15-.786.15Zm3.989-3.014-.553-.578.553.578Zm18.344 0 .553-.578-.553.578Zm3.787 3.285.757.258-.757-.258Zm.204 2.839-.578.553.578-.553Zm4.16 1.348.163.783-.163-.783Zm-1.079-.121-.314.736.314-.736Zm1.445.045.163.783-.163-.783Zm2.075 2.351.565-.566-.565.566Zm-.605 19.315.525.605-.525-.605Zm-2.731 3.093-.157.785.157-.785Zm-1.094-.218.157-.785-.157.785Zm-30.946-.088.194.776-.194-.776Zm-.849.212.194.776-.194-.776Zm25.279 7.038-.569-.562.569.562Zm4.322-32.999.577-.554-.577.554Zm-32.148 23.155.571-.56-.571.56Zm31.159 6.928.785-.157-.785.157Zm19.828 15.117-6.985 5.079.941 1.294 6.985-5.079-.941-1.294Zm.494-.971c0 .384-.184.745-.494.971l.941 1.294a2.802 2.802 0 0 0 1.153-2.265h-1.6Zm0-61.384v61.384h1.6v-61.384h-1.6Zm-1.2-1.2a1.2 1.2 0 0 1 1.2 1.2h1.6a2.8 2.8 0 0 0-2.8-2.8v1.6Zm-56.152 0h56.152v-1.6h-56.152v1.6Zm-.526.526c0-.291.235-.526.526-.526v-1.6a2.126 2.126 0 0 0-2.126 2.126h1.6Zm-2.126 2.126a2.126 2.126 0 0 0 2.126-2.126h-1.6c0 .29-.236.526-.526.526v1.6Zm-3.304 0h3.304v-1.6h-3.304v1.6Zm-1.2 1.2a1.2 1.2 0 0 1 1.2-1.2v-1.6a2.8 2.8 0 0 0-2.8 2.8h1.6Zm0 46.239v-46.239h-1.6v46.239h1.6Zm.112.505a1.189 1.189 0 0 1-.112-.505h-1.6c0 .407.089.81.261 1.179l1.451-.674Zm2.09 4.503-2.09-4.503-1.451.674 2.09 4.503 1.451-.674Zm.261 1.179c0-.407-.089-.81-.261-1.179l-1.451.674c.074.158.112.33.112.505h1.6Zm0 11.386v-11.386h-1.6v11.386h1.6Zm1.2 1.2a1.2 1.2 0 0 1-1.2-1.2h-1.6a2.8 2.8 0 0 0 2.8 2.8v-1.6Zm52.66 0h-52.66v1.6h52.66v-1.6Zm.706-.23c-.205.15-.452.23-.706.23v1.6c.592 0 1.168-.187 1.647-.536l-.941-1.294ZM381.01 575.26l.178.886 1.569-.314-.178-.886-1.569.314Zm1.773-3.536-1.007 1.007 1.131 1.131 1.007-1.007-1.131-1.131Zm3.623-.547-1.094-.219-.314 1.569 1.094.219.314-1.569Zm6.142-12.248c0 3.813-1.614 7.185-4.092 9.335l1.049 1.209c2.838-2.464 4.643-6.281 4.643-10.544h-1.6Zm-3.529-8.81c2.157 2.154 3.529 5.295 3.529 8.81h1.6c0-3.931-1.534-7.482-3.998-9.942l-1.131 1.132Zm-1.712-2.058.366-.076-.327-1.566-.366.076.327 1.566Zm-3.331-.729a9.541 9.541 0 0 1 1.775.561l.627-1.472a11.203 11.203 0 0 0-2.07-.655l-.332 1.566Zm-1.593-.873.023.024 1.155-1.107-.023-.024-1.155 1.107Zm-.36-3.627-.268.785 1.514.517.268-.785-1.514-.517Zm-1.52-1.588h.385v-1.6h-.385v1.6Zm-10.682-4.201c3.413 0 6.473 1.293 8.62 3.342l1.105-1.157c-2.45-2.339-5.908-3.785-9.725-3.785v1.6Zm-8.62 3.342c2.147-2.049 5.207-3.342 8.62-3.342v-1.6c-3.817 0-7.275 1.446-9.725 3.785l1.105 1.157Zm-2.576.859h.514v-1.6h-.514v1.6Zm-.969 2.52-.21-1.094-1.571.301.21 1.094 1.571-.301Zm-2.321 3.9 1.438-1.286-1.067-1.192-1.437 1.285 1.066 1.193Zm-3.04.493.482.125.404-1.548-.482-.126-.404 1.549Zm-1 2.29v-1.518h-1.6v1.518h1.6Zm-3.361 9.322c0-3.38 1.268-6.414 3.283-8.557l-1.166-1.096c-2.299 2.445-3.717 5.874-3.717 9.653h1.6Zm3.45 8.732c-2.111-2.151-3.45-5.259-3.45-8.732h-1.6c0 3.884 1.497 7.396 3.909 9.853l1.141-1.121Zm2.631 2.378-.849.212.388 1.552.849-.212-.388-1.552Zm3.255 1.805-1.665-1.427-1.041 1.215 1.664 1.427 1.042-1.215Zm.791 3.335.132-.66-1.569-.314-.132.66 1.569.314Zm1.418 1.436h-.241v1.6h.241v-1.6Zm10.343 4.201c-3.285 0-6.216-1.278-8.217-3.281l-1.132 1.131c2.309 2.311 5.65 3.75 9.349 3.75v-1.6Zm8.248-3.313c-2.001 2.021-4.946 3.313-8.248 3.313v1.6c3.718 0 7.076-1.455 9.385-3.788l-1.137-1.125Zm-18.591.712c.344 0 .701.157.994.451l1.132-1.131c-.54-.541-1.289-.92-2.126-.92v1.6Zm-2.987-3.35a2.8 2.8 0 0 0 2.746 3.35v-1.6a1.2 1.2 0 0 1-1.177-1.436l-1.569-.314Zm-.264-1.806c.33.282.481.72.396 1.146l1.569.314a2.8 2.8 0 0 0-.923-2.675l-1.042 1.215Zm-1.718-1.457a.172.172 0 0 1 .054.03l1.041-1.215a1.789 1.789 0 0 0-.525-.311l-.57 1.496Zm-3.935-21.115c-.641 0-.947-.76-.524-1.211l1.166 1.096c.521-.554.141-1.485-.642-1.485v1.6Zm-.88-.88c0 .486.394.88.88.88v-1.6a.72.72 0 0 1 .72.72h-1.6Zm3.004-3.839a2.399 2.399 0 0 0-3.004 2.321h1.6a.798.798 0 0 1 1-.772l.404-1.549Zm1.57-.137a1.183 1.183 0 0 1-1.088.263l-.404 1.548a2.78 2.78 0 0 0 2.558-.618l-1.066-1.193Zm1.816-2.406c.079.414-.065.84-.379 1.121l1.067 1.192a2.8 2.8 0 0 0 .883-2.614l-1.571.301Zm2.54-4.421a2.8 2.8 0 0 0-2.75 3.327l1.571-.301a1.2 1.2 0 0 1 1.179-1.426v-1.6Zm1.471-.416c-.284.271-.627.416-.957.416v1.6c.802 0 1.527-.348 2.062-.859l-1.105-1.157Zm20.407.416c-.33 0-.673-.145-.957-.416l-1.105 1.157c.535.511 1.259.859 2.062.859v-1.6Zm3.034 3.705a2.8 2.8 0 0 0-2.649-3.705v1.6a1.2 1.2 0 0 1 1.135 1.588l1.514.517Zm.771 2.417a1.435 1.435 0 0 1-.747-.39l-1.155 1.107c.44.459 1.003.729 1.57.849l.332-1.566Zm2.672.729c-.181.038-.39.016-.602-.074l-.627 1.472c.47.2 1.012.282 1.556.168l-.327-1.566Zm2.966 2.037a2.158 2.158 0 0 0-2.6-2.113l.327 1.566a.56.56 0 0 1 .673.547h1.6Zm.204.455a.653.653 0 0 1-.204-.455h-1.6c0 .618.266 1.18.673 1.587l1.131-1.132Zm-1.043 21.287c0-.281.137-.575.398-.801l-1.049-1.209c-.561.487-.949 1.204-.949 2.01h1.6Zm-3.015 2.472a2.52 2.52 0 0 0 3.015-2.472h-1.6a.92.92 0 0 1-1.101.903l-.314 1.569Zm-2.178.109a1.202 1.202 0 0 1 1.084-.328l.314-1.569a2.802 2.802 0 0 0-2.529.766l1.131 1.131Zm-29.511-.424a.178.178 0 0 1 .107.011l.57-1.496a1.775 1.775 0 0 0-1.065-.067l.388 1.552Zm28.176 2.515c-.078-.393.045-.8.328-1.084l-1.131-1.131a2.802 2.802 0 0 0-.766 2.529l1.569-.314Zm-32.043-4.659a2.429 2.429 0 0 0 3.018 2.356l-.388-1.552a.829.829 0 0 1-1.03-.804h-1.6Zm29.579 7.168c-.806 0-1.526.364-2.045.888l1.137 1.125c.268-.27.595-.413.908-.413v-1.6Zm3.423-32.103a1.2 1.2 0 0 1-.269-1.218l-1.514-.517a2.8 2.8 0 0 0 .628 2.842l1.155-1.107Zm-33.295 24.27a.965.965 0 0 1 .293.665h1.6c0-.696-.3-1.326-.752-1.786l-1.141 1.121Zm29.872 9.433c1.7 0 2.975-1.556 2.642-3.223l-1.569.314a1.095 1.095 0 0 1-1.073 1.309v1.6Z"/><mask id="b" width="68" height="72" x="336" y="526" maskUnits="userSpaceOnUse" style="mask-type:alpha"><path fill="#C4C4C4" fill-rule="evenodd" d="m395.285 596.832 6.985-5.079a2 2 0 0 0 .824-1.618v-61.384a2 2 0 0 0-2-2h-56.152c-.732 0-1.326.593-1.326 1.326 0 .732-.594 1.326-1.326 1.326h-3.304a2 2 0 0 0-2 2v46.239c0 .291.064.578.186.842l2.091 4.503c.122.264.186.551.186.842v11.386a2 2 0 0 0 2 2h52.66c.423 0 .834-.134 1.176-.383Zm-16.052-18.577h3.192l-.84-4.202 2.521-2.52 4.201.84v-2.963c3.039-2.261 5.041-6.111 5.041-10.481 0-3.953-1.639-7.482-4.202-9.792v-2.277l-2.562.535a10.403 10.403 0 0 0-3.122-.966l-1.343-1.402 1.566-4.583h-4.072c-2.311-2.563-5.839-4.201-9.792-4.201-3.953 0-7.482 1.638-9.792 4.201h-3.824l.878 4.583-3.074 2.75-3.514-.917v3.667h.27c-2.233 2.302-3.631 5.591-3.631 9.242 0 3.954 1.639 7.483 4.202 9.794v2.81l3.172-.793c.148.061.297.119.447.173l2.683 2.3-.84 4.202h3.612c2.146 2.551 5.563 4.201 9.412 4.201 3.848 0 7.265-1.65 9.411-4.201Z" clip-rule="evenodd"/></mask><g fill="#999CA2" fill-opacity=".15" mask="url(#b)"><path d="m372.273 486.466-88.665 88.596-1.8-1.798 88.665-88.597zm10.813-3.597-88.665 88.596-1.8-1.798 88.665-88.597zm3.6 3.597-88.665 88.596-1.8-1.798 88.665-88.597zm3.601 3.599-88.665 88.596-1.8-1.798 88.665-88.597zm3.6 3.597-88.665 88.596-1.8-1.798 88.665-88.597zm3.601 3.598-88.665 88.596-1.8-1.798 88.665-88.597zm3.6 3.598-88.665 88.596-1.8-1.798 88.665-88.597zm3.601 3.598-88.665 88.596-1.8-1.798 88.665-88.597zm3.6 3.598-88.665 88.596-1.8-1.798 88.665-88.597zm3.602 3.597-88.665 88.596-1.8-1.798 88.665-88.597zm3.599 3.598-88.665 88.596-1.8-1.798 88.665-88.597zm3.602 3.598-88.665 88.596-1.8-1.798 88.665-88.597zm3.599 3.598-88.665 88.596-1.8-1.798 88.665-88.597zm3.602 3.598-88.665 88.596-1.8-1.798 88.665-88.597zm3.6 3.598-88.665 88.596-1.8-1.798 88.665-88.597zm3.601 3.598-88.665 88.596-1.8-1.798 88.665-88.597zm3.6 3.597-88.665 88.596-1.8-1.798 88.665-88.597zm3.601 3.598L352.03 629.03l-1.8-1.798 88.665-88.597zm3.602 3.598-88.665 88.596-1.8-1.798 88.665-88.597zm3.599 3.597-88.665 88.596-1.8-1.798 88.665-88.597zm3.6 3.599-88.665 88.596-1.8-1.798 88.665-88.597zm3.602 3.597-88.665 88.596-1.8-1.798 88.665-88.597z"/></g><path fill="#E3E5EA" d="M386.574 589.641h4.971c2.614 0 4.006-1.364 4.006-3.216 0-1.722-1.233-2.762-2.557-2.824v-.114c1.211-.273 2.103-1.131 2.103-2.5 0-1.744-1.296-2.983-3.864-2.983h-4.659v11.637Zm2.46-2.012v-3.091h2.063c1.181 0 1.914.682 1.914 1.642 0 .875-.596 1.449-1.971 1.449h-2.006Zm0-4.756v-2.88h1.869c1.091 0 1.711.562 1.711 1.403 0 .921-.75 1.477-1.756 1.477h-1.824Z"/><mask id="c" width="677" height="667" x="15" y="20" maskUnits="userSpaceOnUse" style="mask-type:alpha"><path fill="#181B21" fill-rule="evenodd" d="M691.58 128.59h-7.577v-1.704l-14.774-2.084-9.093 16.858v2.842h-4.925v-2.842h3.599v-34.095h-19.699v4.546h-14.964v-9.661h-7.956V66.46H580.77v2.084h-6.63v-2.083h-11.934v2.083h-6.629v-2.083h-36.369v32.77h-24.624v-2.084h-5.683V96.01h3.978v-51.9h-19.7v16.1h-22.73v2.652h-66.866V32.365H365.21l-1.516 1.137h-3.977v-4.357l-52.659-1.894V21h-29.36v19.889h-1.894V37.29h-46.976v46.218h-2.463c.063.632-.151 1.895-1.515 1.895-1.364 0-1.579-1.263-1.516-1.895h-92.247v18.753h-17.995v-42.62H88.467l-43.945 1.705-19.7 6.062h-3.977l-.947 24.245h4.924v30.687h-3.977v55.878l2.84 22.352h6.062v25.003h25.761l2.084 51.144H42.817v12.312h13.45v16.29H54.75v-6.63H15.73l.568 42.43h10.796v2.842h-.947v34.285H64.98v1.894H51.531v14.964h2.273v5.493h-3.978v4.167l-12.123 28.982-6.82 76.525 14.018 1.705 8.713 5.683-2.462 19.699 21.404 5.683v15.343l5.872 24.435 5.115 4.925 14.017-13.449 17.995 17.995h48.302l2.841-2.652 5.304 5.304h7.008c2.399-1.389 8.335-4.167 12.881-4.167v-10.229h10.986v10.229l7.577 1.515 5.304 3.41h18.752v4.924h-14.017v38.263h36.179c0-3.22 2.463-4.356 3.978-4.356 1.515 0 4.357.947 4.357 4.356 0 2.842-2.463 3.789-4.357 3.789v22.541a3.978 3.978 0 0 1 3.978 3.977v.948h22.541a4.356 4.356 0 0 1 4.357-4.357h.757v-3.41h5.115v21.594L324.485 687h40.346v-18.563h-1.515v-47.734h40.725l1.326-1.326h4.925v5.683h-1.516v8.902h16.29V506.483h-15.343v2.652h-4.924v-2.652H322.59v-42.62h42.62l55.689-105.506h15.911v-18.564h-23.109v-60.046h97.93v-16.669h38.453v-33.716h48.68v3.409h21.215v-26.708h6.441V177.65h8.713l-.947 64.403 2.084 31.822h7.197v.569h7.956l40.347-8.903-6.441-23.488v-16.669l5.304-48.681.947-48.113Zm-49.438 12.881v2.273h-7.198v16.29H603.5v20.836h-4.167v29.55h-44.514v-32.959h1.705v-3.221h6.63v3.221h11.554c-.126-1.074.114-3.221 2.084-3.221v-29.17h-2.084v-6.251h2.084v-32.77h-2.084V99.23h7.009v3.031h14.964v39.21h45.461Zm-79.746 3.22h-6.44v-6.44h6.44v6.44Zm-6.44-39.02h6.44v-6.44h-6.44v6.44Zm-40.726 97.551h4.168v-57.016h-29.739v1.137h11.175v3.22h.948v-2.652h13.448v55.311Zm-13.638-42.051h-1.326v20.836h-5.114v19.51h-25.193v-5.304h-2.273v-1.136h-1.326v6.44h-52.28v-24.246h6.63l2.083-2.083h-4.167v-8.524h-34.474v1.894h-8.524v-22.73h-58.72v6.44h-2.463v11.554h2.463v44.514h58.152v-4.735h45.46v49.628h65.161v-49.628h15.343l.568-42.43Zm-31.633-65.54v2.463H440.41v10.797h-57.205v-16.29h-5.683v-2.084h5.683V82.94h58.152l9.092-2.462V95.63h19.51Zm-163.09 2.652V92.79H296.45V73.659h10.419V49.602h45.839l7.009-1.704h4.925v1.704h2.083v41.104h2.463v2.084h-2.463v5.493h-59.856Zm125.964 76.715.757 1.894h10.608v-29.549h21.973v30.686h1.136v-30.686h3.22v-1.137h-28.981v28.792h-8.713Zm-155.324-73.874V49.792h-2.274l-5.872 4.356h-23.298V83.32h9.092v17.805h-9.092v36.369h2.273v-33.717h9.092v-7.198h17.995v4.546h2.084Zm0 36.748h-1.516v-9.85h1.516v9.85Zm-1.516-20.836h1.516v-9.85h-1.516v9.85Zm1.705 87.133v-58.531h-2.084v5.114h-26.518v-3.788h-2.842v50.954h-17.616v-4.736h-1.326v10.987h50.386Zm-46.787-20.457h-3.978v-31.065h-5.682v-10.608h-3.031v-3.599h3.031v-17.048h-90.922v-4.356h1.137v2.462h14.964v-17.237h76.904v-1.137h2.652v1.137h2.842v19.131h-2.842v14.586h2.842v14.206h2.083v33.528Zm-34.853-41.294h-3.788v-3.788h3.788v3.788Zm-65.16 27.087v-5.493h5.493v1.326h53.606v-1.326h5.872v5.493h-4.925v28.034h4.925v5.683h-4.925v49.249h4.925v6.061h-4.925v28.413h4.925v5.683h-5.872v-2.084h-95.09v-40.725h38.453V243h-2.084v-4.925h5.115V243h-1.516v6.819h15.912V167.99h-14.396v1.515h-5.493Zm145.663 77.473v-14.017h-50.385v35.611h-8.524v49.438h11.365l2.084 15.533h-13.449v-4.168h-60.993v53.227h23.298v168.205h38.831v-13.449h68.002v-61.751h-8.903v-40.725h-9.092v-17.426l14.396 3.03h61.372l7.956-7.577 13.07-24.435 2.462 1.137 16.48-32.959-7.009-3.789v-32.58h14.585v-21.025h3.221v-45.082h-31.823v-11.365h-22.162v7.955H316.34l-22.163-5.304-17.616 1.516ZM45.28 352.863v-8.902h-1.326v-3.031H54.75v-26.708h1.515c-.252 3.599-.606 10.797 0 10.797h42.81v3.788h36.746v52.659H78.997v-1.516h-5.872v-1.515h5.872v-34.474H47.363v8.902H45.28Zm46.218 47.924h-5.682v-5.683h5.682v5.683Zm32.959 0h5.683v-5.683h-5.683v5.683Zm43.188 0h-5.683v-5.683h5.683v5.683Zm-23.867 15.532h5.683v-5.683h-5.683v5.683Zm23.867 98.498h-5.683v-5.682h5.683v5.682Zm-5.683 36.748h5.683v-5.683h-5.683v5.683ZM83.164 471.63v2.651h78.23l.758 2.274h5.872v-6.062h-1.137v-37.694H84.679v38.831h-1.515Zm216.128 173.319v3.978h-7.577v-6.445a4.167 4.167 0 1 1 3.961-3.784h31.856a4.167 4.167 0 0 1 4.529-4.529v-28.826a4.168 4.168 0 0 1-4.529-4.529h-31.856a4.167 4.167 0 1 1-8.301 0H264.99l.009.115.005.105.003.159a4.167 4.167 0 1 1-8.318-.379h-6.078v-5.872h4.167v-31.065h42.43v31.065h40.915v50.007h-38.831Zm111.568-58.152h-6.44v-6.44h6.44v6.44Zm-6.44-37.884h6.44v-6.44h-6.44v6.44Z" clip-rule="evenodd"/></mask><g mask="url(#c)"><path stroke="#999CA2" stroke-opacity=".25" stroke-width="1.6" d="M147.84 248.682h-45.818a2 2 0 0 1-2-1.999v-75.746a2 2 0 0 1 2-2h45.818a2 2 0 0 1 2 2v75.745a2 2 0 0 1-2 2Z"/></g><mask id="e" width="52" height="82" x="99" y="168" maskUnits="userSpaceOnUse" style="mask-type:alpha"><mask id="d" width="677" height="667" x="15" y="20" maskUnits="userSpaceOnUse" style="mask-type:alpha"><path fill="#181B21" fill-rule="evenodd" d="M691.58 128.59h-7.577v-1.704l-14.774-2.084-9.093 16.858v2.842h-4.925v-2.842h3.599v-34.095h-19.699v4.546h-14.964v-9.661h-7.956V66.46H580.77v2.084h-6.63v-2.083h-11.934v2.083h-6.629v-2.083h-36.369v32.77h-24.624v-2.084h-5.683V96.01h3.978v-51.9h-19.7v16.1h-22.73v2.652h-66.866V32.365H365.21l-1.516 1.137h-3.977v-4.357l-52.659-1.894V21h-29.36v19.889h-1.894V37.29h-46.976v46.218h-2.463c.063.632-.151 1.895-1.515 1.895-1.364 0-1.579-1.263-1.516-1.895h-92.247v18.753h-17.995v-42.62H88.467l-43.945 1.705-19.7 6.062h-3.977l-.947 24.245h4.924v30.686h-3.977v55.879l2.84 22.352h6.062v25.003h25.761l2.084 51.144H42.817v12.312h13.45v16.29H54.75v-6.63H15.73l.568 42.43h10.796v2.842h-.947v34.285H64.98v1.894H51.531v14.964h2.273v5.493h-3.978v4.167l-12.123 28.982-6.82 76.525 14.018 1.705 8.713 5.683-2.462 19.699 21.404 5.683v15.343l5.872 24.435 5.115 4.925 14.017-13.449 17.995 17.995h48.302l2.841-2.652 5.304 5.304h7.008c2.399-1.389 8.335-4.167 12.881-4.167v-10.229h10.986v10.229l7.577 1.515 5.304 3.41h18.752v4.924h-14.017v38.263h36.179c0-3.22 2.463-4.356 3.978-4.356 1.515 0 4.357.947 4.357 4.356 0 2.842-2.463 3.789-4.357 3.789v22.541a3.978 3.978 0 0 1 3.978 3.977v.948h22.541a4.356 4.356 0 0 1 4.357-4.357h.757v-3.41h5.115v21.594L324.485 687h40.346v-18.563h-1.515v-47.734h40.725l1.326-1.326h4.925v5.683h-1.516v8.902h16.29V506.483h-15.343v2.652h-4.924v-2.652H322.59v-42.62h42.62l55.689-105.506h15.911v-18.564h-23.109v-60.046h97.93v-16.669h38.453v-33.716h48.68v3.409h21.215v-26.708h6.441V177.65h8.713l-.947 64.403 2.084 31.822h7.197v.569h7.956l40.347-8.903-6.441-23.488v-16.669l5.304-48.681.947-48.113Zm-49.438 12.881v2.273h-7.198v16.29H603.5v20.836h-4.167v29.55h-44.514v-32.959h1.705v-3.221h6.63v3.221h11.554c-.126-1.074.114-3.221 2.084-3.221v-29.17h-2.084v-6.251h2.084v-32.77h-2.084V99.23h7.009v3.031h14.964v39.21h45.461Zm-79.746 3.22h-6.44v-6.44h6.44v6.44Zm-6.44-39.02h6.44v-6.44h-6.44v6.44Zm-40.726 97.551h4.168v-57.016h-29.739v1.137h11.175v3.22h.948v-2.652h13.448v55.311Zm-13.638-42.051h-1.326v20.836h-5.114v19.51h-25.193v-5.304h-2.273v-1.136h-1.326v6.44h-52.28v-24.246h6.63l2.083-2.083h-4.167v-8.524h-34.474v1.894h-8.524v-22.731l-58.72.001v6.44h-2.463v11.554h2.463v44.514h58.152v-4.735h45.46v49.628h65.161v-49.628h15.343l.568-42.43Zm-31.633-65.54v2.463H440.41v10.797h-57.205v-16.29h-5.683v-2.084h5.683V82.94h58.152l9.092-2.462V95.63h19.51Zm-163.09 2.652V92.79H296.45V73.659h10.419V49.602h45.839l7.009-1.705h4.925v1.705h2.083v41.104h2.463v2.084h-2.463v5.493h-59.856Zm125.964 76.715.757 1.894h10.608v-29.549h21.973v30.686h1.136v-30.686h3.22v-1.137h-28.981v28.792h-8.713Zm-155.324-73.874V49.792h-2.274l-5.872 4.356h-23.298V83.32h9.092v17.805h-9.092v36.369h2.273v-33.717h9.092v-7.198h17.995v4.546h2.084Zm0 36.748h-1.516v-9.85h1.516v9.85Zm-1.516-20.836h1.516v-9.85h-1.516v9.85Zm1.705 87.133v-58.531h-2.084v5.114h-26.518v-3.788h-2.842v50.954h-17.616v-4.736h-1.326v10.987h50.386Zm-46.787-20.458h-3.978v-31.064h-5.682v-10.608h-3.031v-3.599h3.031v-17.048h-90.922v-4.356h1.137v2.462h14.964v-17.237h76.904v-1.137h2.652v1.137h2.842v19.131h-2.842v14.586h2.842v14.206h2.083v33.527Zm-34.853-41.293h-3.788v-3.788h3.788v3.788Zm-65.16 27.087v-5.493h5.493v1.326h53.606v-1.326h5.872v5.493h-4.925v28.034h4.925v5.683h-4.925v49.249h4.925v6.061h-4.925v28.413h4.925v5.683h-5.872v-2.084h-95.09v-40.725h38.453V243h-2.084v-4.925h5.115V243h-1.516v6.819h15.912V167.99h-14.396v1.515h-5.493Zm145.663 77.473v-14.017h-50.385v35.611h-8.524v49.438h11.365l2.084 15.533h-13.449v-4.168h-60.993v53.227h23.298v168.205h38.831v-13.449h68.002v-61.751h-8.903v-40.725h-9.092v-17.427l14.396 3.031h61.372l7.956-7.577 13.07-24.435 2.462 1.137 16.48-32.959-7.009-3.789v-32.58h14.585v-21.025h3.221v-45.082h-31.823V242.81h-22.162v7.956H316.34l-22.163-5.304-17.616 1.516ZM45.28 352.863v-8.902h-1.326v-3.031H54.75v-26.708h1.515c-.252 3.599-.606 10.797 0 10.797h42.81v3.788h36.746v52.659H78.997v-1.516h-5.872v-1.515h5.872v-34.474H47.363v8.902H45.28Zm46.218 47.924h-5.682v-5.683h5.682v5.683Zm32.959 0h5.683v-5.683h-5.683v5.683Zm43.188 0h-5.683v-5.683h5.683v5.683Zm-23.867 15.532h5.683v-5.683h-5.683v5.683Zm23.867 98.498h-5.683v-5.682h5.683v5.682Zm-5.683 36.748h5.683v-5.683h-5.683v5.683ZM83.164 471.63v2.651h78.23l.758 2.273h5.872v-6.061h-1.137v-37.694H84.679v38.831h-1.515Zm216.128 173.319v3.977h-7.577v-6.444l-.052.002-.033.001-.026.001h-.078a4.167 4.167 0 1 1 4.15-3.788h31.856a4.167 4.167 0 0 1 4.529-4.529v-28.826a4.168 4.168 0 0 1-4.529-4.529h-31.856a4.167 4.167 0 1 1-8.301 0H264.99l.009.115.005.105.003.159a4.167 4.167 0 1 1-8.318-.379h-6.078v-5.872h4.167v-31.065h42.43v31.065h40.915v50.007h-38.831Zm111.568-58.152h-6.44v-6.44h6.44v6.44Zm-6.44-37.884h6.44v-6.44h-6.44v6.44Z" clip-rule="evenodd"/></mask><g mask="url(#d)"><path fill="#C4C4C4" stroke="#999CA2" stroke-opacity=".25" stroke-width="1.6" d="M147.84 248.682h-45.818a2 2 0 0 1-2-1.999v-75.746a2 2 0 0 1 2-2h45.818a2 2 0 0 1 2 2v75.745a2 2 0 0 1-2 2Z"/></g></mask><g fill="#999CA2" fill-opacity=".15" mask="url(#e)"><path d="m127.273 133.466-88.665 88.596-1.8-1.798 88.665-88.597zm10.813-3.597-88.665 88.596-1.8-1.798 88.665-88.597zm3.6 3.597-88.665 88.596-1.8-1.798 88.665-88.597zm3.6 3.599-88.665 88.596-1.8-1.798 88.665-88.597zm3.601 3.597-88.665 88.596-1.8-1.798 88.665-88.597zm3.601 3.598-88.665 88.596-1.8-1.798 88.665-88.597zm3.6 3.598-88.665 88.596-1.8-1.798 88.665-88.597zm3.6 3.598-88.665 88.596-1.8-1.798 88.665-88.597zm3.601 3.598L74.624 243.65l-1.8-1.798 88.665-88.597zm3.602 3.597-88.665 88.596-1.8-1.798 88.665-88.597zm3.599 3.598-88.665 88.596-1.8-1.798 88.665-88.597zm3.601 3.598-88.665 88.596-1.8-1.798 88.665-88.597zm3.601 3.598-88.665 88.596-1.8-1.798 88.665-88.597zm3.601 3.598-88.665 88.596-1.8-1.798 88.665-88.597zm3.601 3.598-88.665 88.596-1.8-1.798 88.665-88.597zm3.6 3.598-88.665 88.596-1.8-1.798 88.665-88.597zm3.6 3.597-88.665 88.596-1.8-1.798 88.665-88.597zm3.601 3.598L107.03 276.03l-1.8-1.798 88.665-88.597zm3.602 3.598-88.665 88.596-1.8-1.798 88.665-88.597zm3.599 3.597-88.665 88.596-1.8-1.798 88.665-88.597zm3.6 3.599-88.665 88.596-1.8-1.798 88.665-88.597zm3.602 3.597-88.665 88.596-1.8-1.798 88.665-88.597z"/></g><path fill="#E3E5EA" d="m118.884 216.641.864-2.654h4.199l.863 2.654h2.637l-4.012-11.637h-3.17l-4.017 11.637h2.636Zm1.489-4.574 1.432-4.404h.091l1.431 4.404h-2.954Z"/><path fill="#7F838B" d="M551.271 120h1.384v-2.704h2.662v-1.141h-2.662v-1.559h2.95v-1.141h-4.334V120Zm6.496.093c.726 0 1.196-.317 1.435-.774h.039V120h1.291v-3.311c0-1.17-.991-1.662-2.084-1.662-1.176 0-1.949.562-2.138 1.457l1.259.103c.093-.326.384-.566.873-.566.463 0 .728.233.728.636v.019c0 .317-.335.358-1.188.441-.972.09-1.845.416-1.845 1.512 0 .971.694 1.464 1.63 1.464Zm.39-.94c-.418 0-.719-.195-.719-.569 0-.383.317-.572.796-.639.297-.042.783-.112.946-.221v.521c0 .515-.425.908-1.023.908Zm3.35.847h1.362v-1.56l.367-.418 1.339 1.978h1.595l-1.914-2.784 1.822-2.125h-1.563l-1.573 1.863h-.073v-3.499h-1.362V120Zm7.193.096c1.214 0 2.032-.591 2.224-1.502l-1.259-.083c-.138.374-.489.569-.943.569-.681 0-1.112-.451-1.112-1.183v-.003h3.343v-.374c0-1.668-1.01-2.493-2.308-2.493-1.444 0-2.381 1.026-2.381 2.541 0 1.556.924 2.528 2.436 2.528Zm-1.09-3.046a1.037 1.037 0 0 1 1.058-1.007c.591 0 1 .422 1.003 1.007h-2.061ZM547.141 132l.486-1.493h2.361l.486 1.493h1.483l-2.256-6.545h-1.784L545.658 132h1.483Zm.837-2.573.806-2.477h.051l.805 2.477h-1.662Zm4.66 2.573H554v-2.777c0-.604.441-1.02 1.042-1.02.188 0 .447.032.575.074v-1.208a2.025 2.025 0 0 0-.428-.048c-.55 0-1 .319-1.179.926h-.052v-.856h-1.32V132Zm5.592.096c1.307 0 2.128-.767 2.192-1.895h-1.285c-.08.524-.425.818-.891.818-.636 0-1.049-.534-1.049-1.474 0-.926.416-1.457 1.049-1.457.498 0 .818.329.891.818h1.285c-.057-1.134-.917-1.879-2.199-1.879-1.489 0-2.41 1.032-2.41 2.538 0 1.492.905 2.531 2.417 2.531Zm4.344-2.934c.003-.633.39-1.004.946-1.004.553 0 .879.355.876.959V132h1.362v-3.126c.003-1.15-.675-1.847-1.698-1.847-.744 0-1.243.352-1.467.93h-.057v-2.502h-1.323V132h1.361v-2.838Zm6.411 2.934c1.215 0 2.033-.591 2.225-1.502l-1.26-.083c-.137.374-.489.569-.942.569-.681 0-1.113-.451-1.113-1.183v-.003h3.343v-.374c0-1.668-1.01-2.493-2.307-2.493-1.445 0-2.381 1.026-2.381 2.541 0 1.556.923 2.528 2.435 2.528Zm-1.09-3.046a1.038 1.038 0 0 1 1.058-1.007c.592 0 1.001.422 1.004 1.007h-2.062Zm8.235-.559c-.121-.905-.85-1.464-2.09-1.464-1.256 0-2.084.582-2.08 1.528-.004.735.46 1.211 1.419 1.403l.85.169c.428.086.623.243.629.489-.006.291-.322.499-.799.499-.485 0-.808-.208-.891-.608l-1.339.071c.127.939.926 1.518 2.227 1.518 1.272 0 2.183-.649 2.186-1.617-.003-.71-.466-1.135-1.419-1.33l-.888-.179c-.457-.099-.627-.256-.623-.492-.004-.294.329-.486.751-.486.473 0 .754.259.821.575l1.246-.076ZM465.831 126h2.796c1.471 0 2.254-.767 2.254-1.809 0-.968-.694-1.553-1.439-1.588v-.064c.681-.154 1.183-.636 1.183-1.407 0-.981-.729-1.677-2.173-1.677h-2.621V126Zm1.384-1.131v-1.739h1.16c.665 0 1.077.383 1.077.924 0 .492-.336.815-1.109.815h-1.128Zm0-2.675v-1.621h1.051c.614 0 .962.317.962.79 0 .517-.422.831-.987.831h-1.026Zm4.46 3.806h1.361v-2.777c0-.604.441-1.02 1.042-1.02.189 0 .447.032.575.074v-1.208a2.025 2.025 0 0 0-.428-.048c-.55 0-1 .319-1.179.926h-.051v-.856h-1.32V126Zm3.601 0h1.362v-4.909h-1.362V126Zm.684-5.542c.406 0 .738-.31.738-.69 0-.377-.332-.687-.738-.687-.403 0-.735.31-.735.687 0 .38.332.69.735.69Zm3.496 5.622c.793 0 1.205-.457 1.394-.866h.057V126h1.343v-6.545h-1.359v2.46h-.041c-.182-.399-.576-.888-1.397-.888-1.077 0-1.988.837-1.988 2.525 0 1.643.873 2.528 1.991 2.528Zm.432-1.084c-.668 0-1.033-.594-1.033-1.451 0-.85.358-1.435 1.033-1.435.661 0 1.032.56 1.032 1.435 0 .876-.377 1.451-1.032 1.451Zm5.612 2.947c1.403 0 2.4-.639 2.4-1.895v-4.957h-1.352v.824h-.051c-.182-.399-.582-.888-1.403-.888-1.077 0-1.988.837-1.988 2.509 0 1.633.885 2.394 1.991 2.394.783 0 1.221-.393 1.4-.799h.057v.898c0 .674-.431.936-1.022.936-.601 0-.905-.262-1.017-.559l-1.259.169c.163.774.921 1.368 2.244 1.368Zm.028-3.036c-.668 0-1.032-.531-1.032-1.378 0-.834.358-1.419 1.032-1.419.662 0 1.033.56 1.033 1.419 0 .867-.377 1.378-1.033 1.378Zm5.612 1.189c1.214 0 2.032-.591 2.224-1.502l-1.259-.083c-.138.374-.489.569-.943.569-.681 0-1.112-.451-1.112-1.183v-.003h3.343v-.374c0-1.668-1.01-2.493-2.308-2.493-1.444 0-2.381 1.026-2.381 2.541 0 1.556.924 2.528 2.436 2.528Zm-1.09-3.046a1.037 1.037 0 0 1 1.058-1.007c.591 0 1 .422 1.003 1.007h-2.061Zm-33.664 54.546h2.004V183h1.368v-5.404h2.004v-1.141h-5.376v1.141Zm9.311 5.404.485-1.493h2.362l.486 1.493h1.483l-2.256-6.545h-1.784L464.214 183h1.483Zm.837-2.573.805-2.477h.051l.806 2.477h-1.662Zm4.66 4.414h1.362v-2.627h.041c.189.409.601.866 1.394.866 1.118 0 1.991-.885 1.991-2.528 0-1.688-.911-2.525-1.988-2.525-.821 0-1.215.489-1.397.888h-.06v-.824h-1.343v6.75Zm1.333-4.296c0-.875.371-1.435 1.032-1.435.675 0 1.033.585 1.033 1.435 0 .857-.365 1.451-1.033 1.451-.655 0-1.032-.575-1.032-1.451Zm4.282 4.296h1.361v-2.627h.042c.188.409.6.866 1.393.866 1.119 0 1.991-.885 1.991-2.528 0-1.688-.911-2.525-1.988-2.525-.821 0-1.214.489-1.396.888h-.061v-.824h-1.342v6.75Zm1.332-4.296c0-.875.371-1.435 1.033-1.435.674 0 1.032.585 1.032 1.435 0 .857-.364 1.451-1.032 1.451-.656 0-1.033-.575-1.033-1.451Zm8.366-1.054c-.121-.905-.85-1.464-2.09-1.464-1.256 0-2.084.582-2.08 1.528-.004.735.46 1.211 1.419 1.403l.85.169c.428.086.623.243.629.489-.006.291-.322.499-.799.499-.485 0-.808-.208-.891-.608l-1.339.071c.127.939.926 1.518 2.227 1.518 1.272 0 2.183-.649 2.186-1.617-.003-.71-.466-1.135-1.419-1.33l-.888-.179c-.457-.099-.627-.256-.624-.492-.003-.294.33-.486.752-.486.473 0 .754.259.821.575l1.246-.076ZM414.229 72.337h1.327c-.02-1.166-.978-1.972-2.436-1.972-1.435 0-2.486.793-2.48 1.982-.003.965.678 1.518 1.783 1.783l.713.179c.713.172 1.109.377 1.112.818-.003.48-.457.806-1.16.806-.719 0-1.237-.333-1.281-.988h-1.34c.036 1.416 1.049 2.148 2.637 2.148 1.598 0 2.538-.764 2.541-1.963-.003-1.09-.825-1.668-1.962-1.924l-.588-.14c-.569-.131-1.045-.342-1.036-.812 0-.422.374-.732 1.052-.732.661 0 1.067.3 1.118.815Zm4.478 4.759c1.214 0 2.032-.591 2.224-1.502l-1.259-.083c-.138.374-.489.569-.943.569-.681 0-1.112-.451-1.112-1.183v-.003h3.343v-.374c0-1.668-1.01-2.493-2.308-2.493-1.444 0-2.381 1.026-2.381 2.54 0 1.557.924 2.529 2.436 2.529Zm-1.09-3.046a1.037 1.037 0 0 1 1.058-1.007c.591 0 1 .422 1.003 1.007h-2.061Zm6.368 3.046c1.307 0 2.129-.767 2.193-1.895h-1.285c-.08.524-.425.818-.892.818-.636 0-1.048-.534-1.048-1.474 0-.926.415-1.457 1.048-1.457.499 0 .818.33.892.818h1.285c-.058-1.134-.918-1.879-2.199-1.879-1.489 0-2.41 1.032-2.41 2.538 0 1.492.905 2.53 2.416 2.53Zm5.201 0c1.49 0 2.417-1.02 2.417-2.531 0-1.522-.927-2.538-2.417-2.538-1.489 0-2.416 1.016-2.416 2.538 0 1.511.927 2.53 2.416 2.53Zm.007-1.055c-.687 0-1.039-.63-1.039-1.486 0-.857.352-1.49 1.039-1.49.674 0 1.026.633 1.026 1.49s-.352 1.486-1.026 1.486Zm4.575-1.88c.004-.632.381-1.003.931-1.003.546 0 .875.358.872.96V77h1.362v-3.126c0-1.144-.672-1.847-1.694-1.847-.729 0-1.256.358-1.477.93h-.057v-.866h-1.298V77h1.361v-2.838Zm5.966 2.919c.792 0 1.204-.457 1.393-.866h.058V77h1.342v-6.546h-1.358v2.462h-.042c-.182-.4-.575-.889-1.397-.889-1.077 0-1.988.837-1.988 2.525 0 1.643.873 2.528 1.992 2.528Zm.431-1.084c-.668 0-1.032-.594-1.032-1.45 0-.85.358-1.436 1.032-1.436.662 0 1.032.56 1.032 1.436 0 .875-.377 1.45-1.032 1.45Zm5.179-4.4h2.003V77h1.368v-5.404h2.004v-1.142h-5.375v1.142Zm9.31 5.404.486-1.493h2.361l.486 1.493h1.483l-2.256-6.546h-1.784L453.171 77h1.483Zm.837-2.573.806-2.477h.051l.805 2.477h-1.662Zm4.66 4.414h1.362v-2.627h.042c.188.409.6.866 1.393.866 1.119 0 1.991-.885 1.991-2.528 0-1.688-.911-2.525-1.988-2.525-.821 0-1.214.489-1.396.888h-.061v-.824h-1.343v6.75Zm1.333-4.295c0-.876.371-1.436 1.033-1.436.674 0 1.032.585 1.032 1.436 0 .856-.365 1.45-1.032 1.45-.656 0-1.033-.575-1.033-1.45Zm4.282 4.295h1.361v-2.627h.042c.188.409.601.866 1.393.866 1.119 0 1.991-.885 1.991-2.528 0-1.688-.91-2.525-1.988-2.525-.821 0-1.214.489-1.396.888h-.061v-.824h-1.342v6.75Zm1.333-4.295c0-.876.37-1.436 1.032-1.436.674 0 1.032.585 1.032 1.436 0 .856-.364 1.45-1.032 1.45-.655 0-1.032-.575-1.032-1.45Zm8.366-1.055c-.122-.905-.851-1.464-2.091-1.464-1.256 0-2.083.582-2.08 1.528-.003.735.46 1.211 1.419 1.403l.85.17c.428.085.623.242.63.488-.007.291-.323.499-.799.499-.486 0-.809-.208-.892-.608l-1.339.07c.128.94.927 1.519 2.227 1.519 1.272 0 2.183-.649 2.186-1.617-.003-.71-.466-1.135-1.419-1.33l-.888-.179c-.457-.099-.626-.255-.623-.492-.003-.294.329-.486.751-.486.473 0 .754.26.821.575l1.247-.076ZM298.972 43h2.796c1.471 0 2.254-.767 2.254-1.809 0-.968-.694-1.553-1.439-1.588v-.064c.681-.154 1.183-.636 1.183-1.407 0-.98-.729-1.677-2.173-1.677h-2.621V43Zm1.384-1.131V40.13h1.16c.665 0 1.077.383 1.077.924 0 .492-.336.815-1.109.815h-1.128Zm0-2.675v-1.62h1.051c.614 0 .962.316.962.789 0 .517-.422.83-.987.83h-1.026Zm5.859 3.899c.726 0 1.196-.317 1.435-.774h.039V43h1.291v-3.311c0-1.17-.991-1.662-2.084-1.662-1.176 0-1.949.563-2.138 1.457l1.259.103c.093-.326.384-.566.873-.566.463 0 .729.233.729.636v.02c0 .316-.336.357-1.189.44-.972.09-1.845.416-1.845 1.512 0 .971.694 1.464 1.63 1.464Zm.39-.94c-.418 0-.719-.195-.719-.569 0-.383.317-.572.796-.639.297-.042.783-.112.946-.22v.52c0 .515-.425.908-1.023.908Zm5.568.943c1.308 0 2.129-.767 2.193-1.895h-1.285c-.08.524-.425.818-.892.818-.636 0-1.048-.534-1.048-1.474 0-.926.416-1.457 1.048-1.457.499 0 .818.33.892.818h1.285c-.058-1.134-.917-1.879-2.199-1.879-1.489 0-2.41 1.032-2.41 2.538 0 1.492.905 2.53 2.416 2.53Zm2.984-.096h1.361v-1.56l.368-.418L318.225 43h1.595l-1.915-2.784 1.822-2.125h-1.563l-1.572 1.863h-.074v-3.5h-1.361V43Zm8.313 0 .485-1.492h2.362l.486 1.492h1.483l-2.256-6.545h-1.784L321.987 43h1.483Zm.837-2.573.805-2.477h.051l.806 2.477h-1.662Zm6.022-3.972h-1.362V43h1.362v-6.545Zm2.371 0h-1.362V43h1.362v-6.545Zm3.247 6.64c1.214 0 2.032-.59 2.224-1.501l-1.259-.083c-.137.374-.489.569-.943.569-.681 0-1.112-.451-1.112-1.183v-.003h3.343v-.374c0-1.668-1.01-2.493-2.308-2.493-1.444 0-2.381 1.026-2.381 2.54 0 1.557.924 2.529 2.436 2.529Zm-1.09-3.045a1.037 1.037 0 0 1 1.058-1.007c.591 0 1 .422 1.003 1.007h-2.061Zm4.85 4.79c1.014 0 1.55-.517 1.828-1.31l1.909-5.433-1.442-.006-1.026 3.605h-.051l-1.016-3.605h-1.432l1.761 5.05-.08.207c-.179.46-.521.483-1 .336l-.307 1.016c.195.083.511.14.856.14ZM174.903 96l.486-1.493h2.362l.486 1.493h1.483l-2.256-6.546h-1.784L173.421 96h1.482Zm.838-2.573.805-2.477h.051l.806 2.477h-1.662ZM183.557 96l.486-1.493h2.362L186.89 96h1.483l-2.256-6.546h-1.783L182.074 96h1.483Zm.837-2.573.806-2.477h.051l.805 2.477h-1.662Zm4.661 4.414h1.361v-2.627h.042c.188.409.6.866 1.393.866 1.119 0 1.991-.885 1.991-2.528 0-1.688-.911-2.525-1.988-2.525-.821 0-1.214.489-1.396.888h-.061v-.824h-1.342v6.75Zm1.332-4.295c0-.876.371-1.436 1.033-1.436.674 0 1.032.585 1.032 1.436 0 .856-.364 1.45-1.032 1.45-.656 0-1.033-.575-1.033-1.45Zm4.282 4.295h1.361v-2.627h.042c.189.409.601.866 1.393.866 1.119 0 1.992-.885 1.992-2.528 0-1.688-.911-2.525-1.988-2.525-.822 0-1.215.489-1.397.888h-.061v-.824h-1.342v6.75Zm1.333-4.295c0-.876.37-1.436 1.032-1.436.674 0 1.032.585 1.032 1.436 0 .856-.364 1.45-1.032 1.45-.655 0-1.032-.575-1.032-1.45Zm8.366-1.055c-.122-.905-.85-1.464-2.09-1.464-1.257 0-2.084.582-2.081 1.528-.003.735.46 1.211 1.419 1.403l.85.17c.428.085.623.242.63.488-.007.291-.323.499-.799.499-.486 0-.809-.208-.892-.608l-1.339.07c.128.94.927 1.519 2.228 1.519 1.272 0 2.182-.649 2.186-1.617-.004-.71-.467-1.135-1.419-1.33l-.889-.179c-.457-.099-.626-.255-.623-.492-.003-.294.329-.486.751-.486.473 0 .754.26.821.575l1.247-.076Zm121.171 31.846h1.326c-.019-1.167-.978-1.972-2.435-1.972-1.435 0-2.487.793-2.48 1.982-.003.965.677 1.518 1.783 1.783l.713.179c.713.173 1.109.377 1.112.818-.003.48-.457.806-1.16.806-.719 0-1.237-.333-1.282-.988h-1.339c.035 1.416 1.048 2.148 2.637 2.148 1.598 0 2.538-.764 2.541-1.963-.003-1.09-.825-1.668-1.963-1.924l-.588-.14c-.569-.131-1.045-.342-1.035-.812 0-.422.374-.732 1.051-.732.662 0 1.068.3 1.119.815Zm4.477 4.759c1.215 0 2.033-.591 2.225-1.502l-1.26-.083c-.137.374-.489.569-.942.569-.681 0-1.113-.451-1.113-1.183v-.003h3.343v-.374c0-1.668-1.01-2.493-2.307-2.493-1.445 0-2.381 1.026-2.381 2.541 0 1.556.923 2.528 2.435 2.528Zm-1.09-3.046a1.038 1.038 0 0 1 1.058-1.007c.591 0 1.001.422 1.004 1.007h-2.062Zm6.369 3.046c1.307 0 2.128-.767 2.192-1.895h-1.284c-.08.524-.425.818-.892.818-.636 0-1.048-.534-1.048-1.474 0-.926.415-1.457 1.048-1.457.498 0 .818.329.892.818h1.284c-.057-1.134-.917-1.879-2.198-1.879-1.49 0-2.41 1.032-2.41 2.538 0 1.492.904 2.531 2.416 2.531Zm5.201 0c1.489 0 2.416-1.02 2.416-2.531 0-1.522-.927-2.538-2.416-2.538-1.489 0-2.416 1.016-2.416 2.538 0 1.511.927 2.531 2.416 2.531Zm.007-1.055c-.688 0-1.039-.629-1.039-1.486 0-.856.351-1.489 1.039-1.489.674 0 1.025.633 1.025 1.489 0 .857-.351 1.486-1.025 1.486Zm4.575-1.879c.003-.633.38-1.004.93-1.004.547 0 .876.358.873.959V129h1.361v-3.126c0-1.144-.671-1.847-1.694-1.847-.728 0-1.256.358-1.476.93h-.058v-.866h-1.297V129h1.361v-2.838Zm5.965 2.918c.793 0 1.205-.457 1.394-.866h.057V129h1.343v-6.545h-1.359v2.46h-.041c-.182-.399-.576-.888-1.397-.888-1.077 0-1.988.837-1.988 2.525 0 1.643.873 2.528 1.991 2.528Zm.432-1.084c-.668 0-1.033-.594-1.033-1.451 0-.85.358-1.435 1.033-1.435.661 0 1.032.56 1.032 1.435 0 .876-.377 1.451-1.032 1.451Zm5.428-5.541V129h1.342v-4.276h.054l1.694 4.244h.914l1.694-4.228h.054V129h1.343v-6.545h-1.707l-1.803 4.397h-.076l-1.803-4.397h-1.706Zm8.128 6.545h1.362v-4.909h-1.362V129Zm.684-5.542c.406 0 .739-.31.739-.69 0-.377-.333-.687-.739-.687-.402 0-.735.31-.735.687 0 .38.333.69.735.69Zm3.496 5.622c.793 0 1.205-.457 1.394-.866h.057V129h1.343v-6.545h-1.359v2.46h-.041c-.182-.399-.575-.888-1.397-.888-1.077 0-1.988.837-1.988 2.525 0 1.643.873 2.528 1.991 2.528Zm.432-1.084c-.668 0-1.032-.594-1.032-1.451 0-.85.358-1.435 1.032-1.435.661 0 1.032.56 1.032 1.435 0 .876-.377 1.451-1.032 1.451Zm19.893 21.6h2.004V155h1.367v-5.404h2.004v-1.141h-5.375v1.141Zm8.182 5.404h2.796c1.47 0 2.253-.767 2.253-1.809 0-.968-.693-1.553-1.438-1.588v-.064c.681-.154 1.183-.636 1.183-1.407 0-.981-.729-1.677-2.174-1.677h-2.62V155Zm1.384-1.131v-1.739h1.16c.665 0 1.077.383 1.077.924 0 .492-.336.815-1.109.815h-1.128Zm0-2.675v-1.621h1.051c.614 0 .962.317.962.79 0 .517-.422.831-.987.831h-1.026Zm5.859 3.899c.726 0 1.196-.317 1.435-.774h.039V155h1.291v-3.311c0-1.17-.991-1.662-2.084-1.662-1.176 0-1.95.562-2.138 1.457l1.259.103c.093-.326.384-.566.873-.566.463 0 .728.233.728.636v.019c0 .317-.335.358-1.189.441-.971.09-1.844.416-1.844 1.512 0 .971.694 1.464 1.63 1.464Zm.39-.94c-.419 0-.719-.195-.719-.569 0-.383.316-.572.796-.639.297-.042.783-.112.946-.221v.521c0 .515-.425.908-1.023.908Zm4.712-5.698h-1.362V155h1.362v-6.545Zm3.227 6.641c1.307 0 2.129-.767 2.193-1.895h-1.285c-.08.524-.425.818-.892.818-.636 0-1.048-.534-1.048-1.474 0-.926.415-1.457 1.048-1.457.499 0 .818.329.892.818h1.285c-.058-1.134-.918-1.879-2.199-1.879-1.49 0-2.41 1.032-2.41 2.538 0 1.492.905 2.531 2.416 2.531Zm5.201 0c1.49 0 2.417-1.02 2.417-2.531 0-1.522-.927-2.538-2.417-2.538-1.489 0-2.416 1.016-2.416 2.538 0 1.511.927 2.531 2.416 2.531Zm.007-1.055c-.687 0-1.039-.629-1.039-1.486 0-.856.352-1.489 1.039-1.489.674 0 1.026.633 1.026 1.489 0 .857-.352 1.486-1.026 1.486Zm4.575-1.879c.004-.633.381-1.004.93-1.004.547 0 .876.358.873.959V155h1.362v-3.126c0-1.144-.672-1.847-1.694-1.847-.729 0-1.256.358-1.477.93h-.057v-.866h-1.298V155h1.361v-2.838Zm4.821 4.679c1.013 0 1.55-.518 1.828-1.31l1.909-5.434-1.442-.006-1.026 3.605h-.051l-1.016-3.605h-1.432l1.761 5.05-.08.207c-.179.461-.521.483-1 .336l-.307 1.016c.195.083.511.141.856.141Zm-117.949 63.614V227h1.343v-4.276h.054l1.694 4.244h.914l1.694-4.228h.054V227h1.342v-6.545h-1.706l-1.803 4.397h-.076l-1.803-4.397h-1.707Zm8.129 6.545h1.362v-4.909h-1.362V227Zm.684-5.542c.406 0 .738-.31.738-.69 0-.377-.332-.687-.738-.687-.403 0-.735.31-.735.687 0 .38.332.69.735.69Zm3.496 5.622c.793 0 1.205-.457 1.394-.866h.057V227h1.343v-6.545h-1.359v2.46h-.041c-.183-.399-.576-.888-1.397-.888-1.077 0-1.988.837-1.988 2.525 0 1.643.873 2.528 1.991 2.528Zm.432-1.084c-.668 0-1.033-.594-1.033-1.451 0-.85.358-1.435 1.033-1.435.661 0 1.032.56 1.032 1.435 0 .876-.377 1.451-1.032 1.451Zm38.265-43.541v4.132c0 .748-.525 1.288-1.33 1.288-.802 0-1.33-.54-1.33-1.288v-4.132h-1.383v4.25c0 1.432 1.08 2.388 2.713 2.388 1.627 0 2.713-.956 2.713-2.388v-4.25h-1.383Zm3.777 3.707c.003-.633.38-1.004.93-1.004.546 0 .876.358.872.959V189h1.362v-3.126c0-1.144-.671-1.847-1.694-1.847-.729 0-1.256.358-1.476.93h-.058v-.866h-1.298V189h1.362v-2.838Zm5.965 2.918c.793 0 1.205-.457 1.393-.866h.058V189h1.342v-6.545h-1.358v2.46h-.042c-.182-.399-.575-.888-1.396-.888-1.077 0-1.988.837-1.988 2.525 0 1.643.872 2.528 1.991 2.528Zm.431-1.084c-.668 0-1.032-.594-1.032-1.451 0-.85.358-1.435 1.032-1.435.662 0 1.033.56 1.033 1.435 0 .876-.377 1.451-1.033 1.451Zm5.638 1.1c1.214 0 2.033-.591 2.224-1.502l-1.259-.083c-.137.374-.489.569-.943.569-.68 0-1.112-.451-1.112-1.183v-.003h3.343v-.374c0-1.668-1.01-2.493-2.307-2.493-1.445 0-2.381 1.026-2.381 2.541 0 1.556.923 2.528 2.435 2.528Zm-1.09-3.046a1.038 1.038 0 0 1 1.058-1.007c.591 0 1 .422 1.004 1.007h-2.062Zm4.151 2.95h1.361v-2.777c0-.604.441-1.02 1.042-1.02.189 0 .447.032.575.074v-1.208a2.025 2.025 0 0 0-.428-.048c-.55 0-1 .319-1.179.926h-.051v-.856h-1.32V189Zm3.601 1.841h1.362v-2.627h.041c.189.409.601.866 1.394.866 1.118 0 1.991-.885 1.991-2.528 0-1.688-.911-2.525-1.988-2.525-.821 0-1.215.489-1.397.888h-.06v-.824h-1.343v6.75Zm1.333-4.296c0-.875.371-1.435 1.032-1.435.675 0 1.033.585 1.033 1.435 0 .857-.365 1.451-1.033 1.451-.655 0-1.032-.575-1.032-1.451Zm5.681 2.548c.726 0 1.196-.317 1.435-.774h.039V189h1.291v-3.311c0-1.17-.991-1.662-2.084-1.662-1.176 0-1.949.562-2.138 1.457l1.259.103c.093-.326.384-.566.873-.566.463 0 .728.233.728.636v.019c0 .317-.335.358-1.188.441-.972.09-1.845.416-1.845 1.512 0 .971.694 1.464 1.63 1.464Zm.39-.94c-.418 0-.719-.195-.719-.569 0-.383.317-.572.796-.639.297-.042.783-.112.946-.221v.521c0 .515-.425.908-1.023.908Zm7.435-2.662c-.122-.905-.85-1.464-2.09-1.464-1.256 0-2.084.582-2.081 1.528-.003.735.46 1.211 1.419 1.403l.85.169c.428.086.623.243.63.489-.007.291-.323.499-.799.499-.486 0-.809-.208-.892-.608l-1.339.071c.128.939.927 1.518 2.228 1.518 1.272 0 2.182-.649 2.186-1.617-.004-.71-.467-1.135-1.419-1.33l-.889-.179c-.457-.099-.626-.256-.623-.492-.003-.294.329-.486.751-.486.473 0 .754.259.821.575l1.247-.076Zm4.972 0c-.121-.905-.85-1.464-2.09-1.464-1.256 0-2.084.582-2.08 1.528-.004.735.46 1.211 1.419 1.403l.85.169c.428.086.623.243.629.489-.006.291-.322.499-.799.499-.485 0-.808-.208-.891-.608l-1.339.071c.127.939.926 1.518 2.227 1.518 1.272 0 2.183-.649 2.186-1.617-.003-.71-.466-1.135-1.419-1.33l-.888-.179c-.457-.099-.627-.256-.623-.492-.004-.294.329-.486.751-.486.473 0 .754.259.821.575l1.246-.076ZM442.675 270h1.384v-2.32h1.01l1.24 2.32h1.527l-1.39-2.544c.745-.32 1.157-.968 1.157-1.863 0-1.301-.86-2.138-2.346-2.138h-2.582V270Zm1.384-3.433v-1.981h.933c.799 0 1.186.355 1.186 1.007 0 .648-.387.974-1.18.974h-.939Zm5.815 3.526c.726 0 1.196-.317 1.435-.774h.039V270h1.291v-3.311c0-1.17-.991-1.662-2.084-1.662-1.176 0-1.95.562-2.138 1.457l1.259.103c.093-.326.384-.566.873-.566.463 0 .728.233.728.636v.019c0 .317-.335.358-1.189.441-.971.09-1.844.416-1.844 1.512 0 .971.694 1.464 1.63 1.464Zm.39-.94c-.418 0-.719-.195-.719-.569 0-.383.317-.572.796-.639.297-.042.783-.112.946-.221v.521c0 .515-.425.908-1.023.908Zm3.35.847h1.362v-2.947c0-.543.345-.904.799-.904.447 0 .748.307.748.789V270h1.319v-2.998c0-.508.291-.853.787-.853.434 0 .76.271.76.818V270h1.359v-3.301c0-1.065-.633-1.672-1.547-1.672-.719 0-1.279.368-1.48.93h-.051c-.157-.569-.658-.93-1.333-.93-.661 0-1.163.352-1.368.93h-.057v-.866h-1.298V270Zm8.128 1.841h1.362v-2.627h.041c.189.409.601.866 1.394.866 1.118 0 1.991-.885 1.991-2.528 0-1.688-.911-2.525-1.988-2.525-.822 0-1.215.489-1.397.888h-.061v-.824h-1.342v6.75Zm1.333-4.296c0-.875.371-1.435 1.032-1.435.675 0 1.033.585 1.033 1.435 0 .857-.365 1.451-1.033 1.451-.655 0-1.032-.575-1.032-1.451ZM359.867 402h2.796c1.47 0 2.253-.767 2.253-1.809 0-.968-.693-1.553-1.438-1.588v-.064c.681-.154 1.183-.636 1.183-1.407 0-.981-.729-1.677-2.174-1.677h-2.62V402Zm1.383-1.131v-1.739h1.161c.664 0 1.077.383 1.077.924 0 .492-.336.815-1.109.815h-1.129Zm0-2.675v-1.621h1.052c.614 0 .962.317.962.79 0 .517-.422.831-.988.831h-1.026Zm5.86 3.899c.726 0 1.195-.317 1.435-.774h.038V402h1.292v-3.311c0-1.17-.991-1.662-2.084-1.662-1.176 0-1.95.562-2.138 1.457l1.259.103c.093-.326.383-.566.872-.566.464 0 .729.233.729.636v.019c0 .317-.335.358-1.189.441-.971.09-1.844.416-1.844 1.512 0 .971.694 1.464 1.63 1.464Zm.39-.94c-.419 0-.719-.195-.719-.569 0-.383.316-.572.796-.639.297-.042.783-.112.946-.221v.521c0 .515-.425.908-1.023.908Zm4.711-1.991c.004-.633.381-1.004.93-1.004.547 0 .876.358.873.959V402h1.362v-3.126c0-1.144-.672-1.847-1.694-1.847-.729 0-1.256.358-1.477.93h-.057v-.866h-1.298V402h1.361v-2.838Zm5.556 2.931c.726 0 1.196-.317 1.435-.774h.039V402h1.291v-3.311c0-1.17-.991-1.662-2.084-1.662-1.176 0-1.949.562-2.138 1.457l1.259.103c.093-.326.384-.566.873-.566.463 0 .728.233.728.636v.019c0 .317-.335.358-1.188.441-.972.09-1.845.416-1.845 1.512 0 .971.694 1.464 1.63 1.464Zm.39-.94c-.418 0-.719-.195-.719-.569 0-.383.317-.572.796-.639.297-.042.783-.112.946-.221v.521c0 .515-.425.908-1.023.908Zm4.712-1.991c.003-.633.38-1.004.93-1.004.546 0 .876.358.872.959V402h1.362v-3.126c0-1.144-.671-1.847-1.694-1.847-.729 0-1.256.358-1.477.93h-.057v-.866h-1.298V402h1.362v-2.838Zm5.556 2.931c.725 0 1.195-.317 1.435-.774h.038V402h1.291v-3.311c0-1.17-.99-1.662-2.083-1.662-1.177 0-1.95.562-2.139 1.457l1.26.103c.092-.326.383-.566.872-.566.464 0 .729.233.729.636v.019c0 .317-.336.358-1.189.441-.972.09-1.844.416-1.844 1.512 0 .971.693 1.464 1.63 1.464Zm.39-.94c-.419 0-.719-.195-.719-.569 0-.383.316-.572.795-.639.298-.042.783-.112.946-.221v.521c0 .515-.425.908-1.022.908Zm-102.477 25.184h1.327c-.02-1.167-.978-1.972-2.436-1.972-1.435 0-2.486.793-2.48 1.982-.003.965.678 1.518 1.783 1.783l.713.179c.713.173 1.109.377 1.112.818-.003.48-.457.806-1.16.806-.719 0-1.237-.333-1.281-.988h-1.339c.035 1.416 1.048 2.148 2.636 2.148 1.598 0 2.538-.764 2.541-1.963-.003-1.09-.825-1.668-1.962-1.924l-.588-.14c-.569-.131-1.045-.342-1.036-.812 0-.422.374-.732 1.052-.732.661 0 1.067.3 1.118.815Zm3.64 4.756c.726 0 1.196-.317 1.435-.774h.039V431h1.291v-3.311c0-1.17-.991-1.662-2.084-1.662-1.176 0-1.95.562-2.138 1.457l1.259.103c.093-.326.384-.566.873-.566.463 0 .728.233.728.636v.019c0 .317-.335.358-1.189.441-.971.09-1.844.416-1.844 1.512 0 .971.694 1.464 1.63 1.464Zm.39-.94c-.419 0-.719-.195-.719-.569 0-.383.316-.572.796-.639.297-.042.783-.112.946-.221v.521c0 .515-.425.908-1.023.908Zm4.712-1.991c.003-.633.38-1.004.93-1.004.546 0 .875.358.872.959V431h1.362v-3.126c0-1.144-.672-1.847-1.694-1.847-.729 0-1.256.358-1.477.93h-.057v-.866h-1.298V431h1.362v-2.838Zm5.965 2.918c.792 0 1.205-.457 1.393-.866h.058V431h1.342v-6.545h-1.358v2.46h-.042c-.182-.399-.575-.888-1.397-.888-1.077 0-1.987.837-1.987 2.525 0 1.643.872 2.528 1.991 2.528Zm.431-1.084c-.668 0-1.032-.594-1.032-1.451 0-.85.358-1.435 1.032-1.435.662 0 1.032.56 1.032 1.435 0 .876-.377 1.451-1.032 1.451Zm3.426 1.004h1.342v-.786h.061c.189.409.601.866 1.393.866 1.119 0 1.992-.885 1.992-2.528 0-1.688-.911-2.525-1.988-2.525-.822 0-1.215.489-1.397.888h-.042v-2.46h-1.361V431Zm1.333-2.455c0-.875.37-1.435 1.032-1.435.674 0 1.032.585 1.032 1.435 0 .857-.364 1.451-1.032 1.451-.655 0-1.032-.575-1.032-1.451Zm5.682 2.548c.725 0 1.195-.317 1.435-.774h.038V431h1.291v-3.311c0-1.17-.99-1.662-2.083-1.662-1.176 0-1.95.562-2.138 1.457l1.259.103c.092-.326.383-.566.872-.566.464 0 .729.233.729.636v.019c0 .317-.336.358-1.189.441-.972.09-1.844.416-1.844 1.512 0 .971.693 1.464 1.63 1.464Zm.39-.94c-.419 0-.719-.195-.719-.569 0-.383.316-.572.796-.639.297-.042.783-.112.946-.221v.521c0 .515-.426.908-1.023.908Zm5.561 2.79c1.403 0 2.401-.639 2.401-1.895v-4.957h-1.352v.824h-.051c-.183-.399-.582-.888-1.404-.888-1.077 0-1.987.837-1.987 2.509 0 1.633.885 2.394 1.991 2.394.783 0 1.221-.393 1.4-.799h.057v.898c0 .674-.431.936-1.023.936-.601 0-.904-.262-1.016-.559l-1.259.169c.163.774.92 1.368 2.243 1.368Zm.029-3.036c-.668 0-1.032-.531-1.032-1.378 0-.834.358-1.419 1.032-1.419.662 0 1.032.56 1.032 1.419 0 .867-.377 1.378-1.032 1.378Zm7.459-2.416c-.122-.905-.851-1.464-2.091-1.464-1.256 0-2.083.582-2.08 1.528-.003.735.46 1.211 1.419 1.403l.85.169c.428.086.623.243.63.489-.007.291-.323.499-.799.499-.486 0-.809-.208-.892-.608l-1.339.071c.128.939.927 1.518 2.227 1.518 1.272 0 2.183-.649 2.186-1.617-.003-.71-.466-1.135-1.419-1.33l-.888-.179c-.457-.099-.627-.256-.623-.492-.004-.294.329-.486.751-.486.473 0 .754.259.821.575l1.247-.076Zm6.36 30.509h2.796c1.47 0 2.253-.767 2.253-1.809 0-.968-.693-1.553-1.438-1.588v-.064c.681-.154 1.183-.636 1.183-1.407 0-.981-.729-1.677-2.174-1.677h-2.62V458Zm1.384-1.131v-1.739h1.16c.665 0 1.077.383 1.077.924 0 .492-.336.815-1.109.815H333.1Zm0-2.675v-1.621h1.051c.614 0 .962.317.962.79 0 .517-.422.831-.987.831H333.1Zm5.859 3.899c.726 0 1.195-.317 1.435-.774h.039V458h1.291v-3.311c0-1.17-.991-1.662-2.084-1.662-1.176 0-1.95.562-2.138 1.457l1.259.103c.093-.326.384-.566.873-.566.463 0 .728.233.728.636v.019c0 .317-.335.358-1.189.441-.971.09-1.844.416-1.844 1.512 0 .971.694 1.464 1.63 1.464Zm.39-.94c-.419 0-.719-.195-.719-.569 0-.383.316-.572.796-.639.297-.042.783-.112.946-.221v.521c0 .515-.425.908-1.023.908Zm3.35.847h1.362v-2.777c0-.604.441-1.02 1.041-1.02.189 0 .448.032.576.074v-1.208a2.035 2.035 0 0 0-.429-.048c-.549 0-1 .319-1.179.926h-.051v-.856h-1.32V458Zm3.602 0h1.361v-2.777c0-.604.441-1.02 1.042-1.02.189 0 .448.032.575.074v-1.208a2.018 2.018 0 0 0-.428-.048c-.55 0-1 .319-1.179.926h-.051v-.856h-1.32V458Zm5.61.096c1.214 0 2.033-.591 2.224-1.502l-1.259-.083c-.137.374-.489.569-.943.569-.68 0-1.112-.451-1.112-1.183v-.003h3.343v-.374c0-1.668-1.01-2.493-2.307-2.493-1.445 0-2.381 1.026-2.381 2.541 0 1.556.923 2.528 2.435 2.528Zm-1.09-3.046a1.038 1.038 0 0 1 1.058-1.007c.591 0 1 .422 1.004 1.007h-2.062Zm5.512-3.595h-1.361V458h1.361v-6.545Zm5.094 3.036c-.121-.905-.85-1.464-2.09-1.464-1.256 0-2.084.582-2.08 1.528-.004.735.46 1.211 1.419 1.403l.85.169c.428.086.623.243.629.489-.006.291-.322.499-.799.499-.485 0-.808-.208-.891-.608l-1.34.071c.128.939.927 1.518 2.228 1.518 1.272 0 2.183-.649 2.186-1.617-.003-.71-.466-1.135-1.419-1.33l-.888-.179c-.457-.099-.627-.256-.624-.492-.003-.294.33-.486.751-.486.474 0 .755.259.822.575l1.246-.076ZM299.442 584h1.348l1.244-4.28h.051l1.246 4.28h1.349l1.873-6.545h-1.512l-1.083 4.557h-.058l-1.192-4.557h-1.294l-1.196 4.547h-.054l-1.084-4.547h-1.511l1.873 6.545Zm8.617.093c.726 0 1.196-.317 1.435-.774h.039V584h1.291v-3.311c0-1.17-.991-1.662-2.084-1.662-1.176 0-1.949.562-2.138 1.457l1.259.103c.093-.326.384-.566.873-.566.463 0 .728.233.728.636v.019c0 .317-.335.358-1.189.441-.971.09-1.844.416-1.844 1.512 0 .971.694 1.464 1.63 1.464Zm.39-.94c-.418 0-.719-.195-.719-.569 0-.383.317-.572.796-.639.297-.042.783-.112.946-.221v.521c0 .515-.425.908-1.023.908Zm5.961-4.062h-.923v-1.176h-1.362v1.176h-.671v1.023h.671v2.556c-.006.962.649 1.439 1.637 1.397.351-.013.6-.083.738-.128l-.214-1.013c-.067.013-.211.045-.339.045-.272 0-.46-.102-.46-.48v-2.377h.923v-1.023Zm2.991 5.005c1.214 0 2.032-.591 2.224-1.502l-1.259-.083c-.138.374-.489.569-.943.569-.681 0-1.112-.451-1.112-1.183v-.003h3.343v-.374c0-1.668-1.01-2.493-2.308-2.493-1.444 0-2.381 1.026-2.381 2.541 0 1.556.924 2.528 2.436 2.528Zm-1.09-3.046a1.038 1.038 0 0 1 1.058-1.007c.591 0 1 .422 1.003 1.007h-2.061Zm4.15 2.95h1.362v-2.777c0-.604.441-1.02 1.042-1.02.188 0 .447.032.575.074v-1.208a2.025 2.025 0 0 0-.428-.048c-.55 0-1.001.319-1.18.926h-.051v-.856h-1.32V584Zm-92.877-44.404h2.004V545h1.368v-5.404h2.004v-1.141h-5.376v1.141Zm5.645 5.404h1.361v-2.777c0-.604.441-1.02 1.042-1.02.189 0 .448.032.576.074v-1.208a2.035 2.035 0 0 0-.429-.048c-.549 0-1 .319-1.179.926h-.051v-.856h-1.32V545Zm5.61.096c1.215 0 2.033-.591 2.225-1.502l-1.26-.083c-.137.374-.489.569-.942.569-.681 0-1.113-.451-1.113-1.183v-.003h3.343v-.374c0-1.668-1.01-2.493-2.307-2.493-1.445 0-2.381 1.026-2.381 2.541 0 1.556.923 2.528 2.435 2.528Zm-1.09-3.046a1.038 1.038 0 0 1 1.058-1.007c.591 0 1.001.422 1.004 1.007h-2.062Zm6.388 3.046c1.215 0 2.033-.591 2.224-1.502l-1.259-.083c-.137.374-.489.569-.943.569-.68 0-1.112-.451-1.112-1.183v-.003h3.343v-.374c0-1.668-1.01-2.493-2.307-2.493-1.445 0-2.381 1.026-2.381 2.541 0 1.556.923 2.528 2.435 2.528Zm-1.09-3.046a1.038 1.038 0 0 1 1.058-1.007c.591 0 1 .422 1.004 1.007h-2.062Zm-86.354 37.696c-.182-1.512-1.326-2.381-2.841-2.381-1.729 0-3.049 1.221-3.049 3.362 0 2.135 1.298 3.362 3.049 3.362 1.678 0 2.691-1.115 2.841-2.32l-1.399-.006c-.131.7-.681 1.102-1.419 1.102-.994 0-1.669-.738-1.669-2.138 0-1.361.665-2.138 1.678-2.138.758 0 1.304.438 1.41 1.157h1.399Zm.663-1.15h2.003V584h1.368v-5.404h2.004v-1.141h-5.375v1.141Zm8.182 5.404h1.383v-2.122h1.164c1.505 0 2.381-.898 2.381-2.205 0-1.301-.86-2.218-2.346-2.218h-2.582V584Zm1.383-3.231v-2.183h.934c.799 0 1.185.435 1.185 1.087 0 .648-.386 1.096-1.179 1.096h-.94Zm4.337 3.231h1.362v-4.909h-1.362V584Zm.684-5.542c.406 0 .738-.31.738-.69 0-.377-.332-.687-.738-.687-.403 0-.735.31-.735.687 0 .38.332.69.735.69Zm3.049-1.003h-1.362V584h1.362v-6.545Zm2.371 0H176V584h1.362v-6.545Zm2.409 6.638c.726 0 1.196-.317 1.435-.774h.039V584h1.291v-3.311c0-1.17-.991-1.662-2.084-1.662-1.176 0-1.949.562-2.138 1.457l1.259.103c.093-.326.384-.566.873-.566.463 0 .729.233.729.636v.019c0 .317-.336.358-1.189.441-.972.09-1.845.416-1.845 1.512 0 .971.694 1.464 1.63 1.464Zm.39-.94c-.418 0-.719-.195-.719-.569 0-.383.317-.572.796-.639.297-.042.783-.112.946-.221v.521c0 .515-.425.908-1.023.908Zm3.35.847h1.362v-2.777c0-.604.441-1.02 1.042-1.02.188 0 .447.032.575.074v-1.208a2.025 2.025 0 0 0-.428-.048c-.55 0-1.001.319-1.18.926h-.051v-.856h-1.32V584Zm-59.024-98.254c-.182-1.512-1.326-2.381-2.841-2.381-1.729 0-3.049 1.221-3.049 3.362 0 2.135 1.297 3.362 3.049 3.362 1.678 0 2.691-1.115 2.841-2.32l-1.4-.006c-.131.7-.681 1.102-1.419 1.102-.994 0-1.668-.738-1.668-2.138 0-1.361.665-2.138 1.678-2.138.757 0 1.304.438 1.409 1.157h1.4Zm.662-1.15h2.004V490h1.368v-5.404h2.004v-1.141h-5.376v1.141Zm8.182 5.404h1.384v-2.32h1.01l1.24 2.32h1.528l-1.391-2.544c.745-.32 1.157-.968 1.157-1.863 0-1.301-.859-2.138-2.346-2.138h-2.582V490Zm1.384-3.433v-1.981h.933c.799 0 1.186.355 1.186 1.007 0 .648-.387.974-1.179.974h-.94Zm6.555 3.529c1.489 0 2.416-1.02 2.416-2.531 0-1.522-.927-2.538-2.416-2.538-1.49 0-2.416 1.016-2.416 2.538 0 1.511.926 2.531 2.416 2.531Zm.006-1.055c-.687 0-1.039-.629-1.039-1.486 0-.856.352-1.489 1.039-1.489.674 0 1.026.633 1.026 1.489 0 .857-.352 1.486-1.026 1.486Zm5.432 1.055c1.49 0 2.416-1.02 2.416-2.531 0-1.522-.926-2.538-2.416-2.538-1.489 0-2.416 1.016-2.416 2.538 0 1.511.927 2.531 2.416 2.531Zm.007-1.055c-.688 0-1.039-.629-1.039-1.486 0-.856.351-1.489 1.039-1.489.674 0 1.026.633 1.026 1.489 0 .857-.352 1.486-1.026 1.486Zm5.854-3.95h-.975v-.329c0-.333.134-.528.534-.528.163 0 .329.036.437.071l.24-1.023a3.589 3.589 0 0 0-.962-.134c-.923 0-1.611.521-1.611 1.588v.355h-.693v1.023h.693V490h1.362v-3.886h.975v-1.023Zm1.811-31.754h1.327c-.02-1.167-.978-1.972-2.436-1.972-1.435 0-2.486.793-2.48 1.982-.003.965.678 1.518 1.783 1.783l.713.179c.713.173 1.109.377 1.112.818-.003.48-.457.806-1.16.806-.719 0-1.237-.333-1.281-.988h-1.339c.035 1.416 1.048 2.148 2.636 2.148 1.598 0 2.538-.764 2.541-1.963-.003-1.09-.825-1.668-1.962-1.924l-.588-.14c-.569-.131-1.045-.342-1.036-.812 0-.422.374-.732 1.052-.732.661 0 1.067.3 1.118.815Zm2.24 6.504h1.362v-2.627h.041c.189.409.601.866 1.394.866 1.118 0 1.991-.885 1.991-2.528 0-1.688-.911-2.525-1.988-2.525-.821 0-1.214.489-1.397.888h-.06v-.824h-1.343v6.75Zm1.333-4.296c0-.875.371-1.435 1.032-1.435.675 0 1.033.585 1.033 1.435 0 .857-.365 1.451-1.033 1.451-.655 0-1.032-.575-1.032-1.451Zm6.519 2.551c1.214 0 2.033-.591 2.224-1.502l-1.259-.083c-.137.374-.489.569-.943.569-.681 0-1.112-.451-1.112-1.183v-.003h3.343v-.374c0-1.668-1.01-2.493-2.307-2.493-1.445 0-2.382 1.026-2.382 2.541 0 1.556.924 2.528 2.436 2.528Zm-1.09-3.046a1.038 1.038 0 0 1 1.058-1.007c.591 0 1 .422 1.003 1.007h-2.061Zm6.388 3.046c1.214 0 2.032-.591 2.224-1.502l-1.259-.083c-.137.374-.489.569-.943.569-.681 0-1.112-.451-1.112-1.183v-.003h3.343v-.374c0-1.668-1.01-2.493-2.308-2.493-1.444 0-2.381 1.026-2.381 2.541 0 1.556.924 2.528 2.436 2.528Zm-1.09-3.046a1.038 1.038 0 0 1 1.058-1.007c.591 0 1 .422 1.003 1.007h-2.061Zm5.959 3.03c.793 0 1.205-.457 1.394-.866h.057V458h1.343v-6.545h-1.359v2.46h-.041c-.182-.399-.575-.888-1.397-.888-1.077 0-1.988.837-1.988 2.525 0 1.643.873 2.528 1.991 2.528Zm.432-1.084c-.668 0-1.032-.594-1.032-1.451 0-.85.358-1.435 1.032-1.435.661 0 1.032.56 1.032 1.435 0 .876-.377 1.451-1.032 1.451ZM179.44 458h1.438l.843-3.087h.061l.844 3.087h1.441l1.333-4.909h-1.374l-.748 3.279h-.042l-.805-3.279h-1.352l-.793 3.298h-.044l-.761-3.298h-1.377L179.44 458Zm8.005.093c.726 0 1.196-.317 1.435-.774h.039V458h1.291v-3.311c0-1.17-.991-1.662-2.084-1.662-1.176 0-1.95.562-2.138 1.457l1.259.103c.093-.326.384-.566.873-.566.463 0 .728.233.728.636v.019c0 .317-.335.358-1.189.441-.971.09-1.844.416-1.844 1.512 0 .971.694 1.464 1.63 1.464Zm.39-.94c-.418 0-.719-.195-.719-.569 0-.383.316-.572.796-.639.297-.042.783-.112.946-.221v.521c0 .515-.425.908-1.023.908Zm4.015 2.688c1.013 0 1.55-.518 1.828-1.31l1.908-5.434-1.441-.006-1.026 3.605h-.051l-1.017-3.605h-1.432l1.761 5.05-.079.207c-.179.461-.521.483-1.001.336l-.307 1.016c.195.083.512.141.857.141ZM137.776 357l.486-1.493h2.362l.486 1.493h1.483l-2.257-6.545h-1.783l-2.26 6.545h1.483Zm.837-2.573.806-2.477h.051l.805 2.477h-1.662Zm4.661 2.573h1.361v-2.777c0-.604.441-1.02 1.042-1.02.189 0 .448.032.575.074v-1.208a2.018 2.018 0 0 0-.428-.048c-.55 0-1 .319-1.179.926h-.051v-.856h-1.32V357Zm5.591.096c1.307 0 2.128-.767 2.192-1.895h-1.284c-.08.524-.425.818-.892.818-.636 0-1.048-.534-1.048-1.474 0-.926.415-1.457 1.048-1.457.498 0 .818.329.892.818h1.284c-.057-1.134-.917-1.879-2.198-1.879-1.49 0-2.41 1.032-2.41 2.538 0 1.492.904 2.531 2.416 2.531Zm4.345-2.934c.003-.633.39-1.004.946-1.004.553 0 .879.355.875.959V357h1.362v-3.126c.003-1.15-.675-1.847-1.697-1.847-.745 0-1.244.352-1.467.93h-.058v-2.502h-1.323V357h1.362v-2.838ZM135.73 314h4.19v-1.141h-2.806v-5.404h-1.384V314Zm7.218.096c1.49 0 2.417-1.02 2.417-2.531 0-1.522-.927-2.538-2.417-2.538-1.489 0-2.416 1.016-2.416 2.538 0 1.511.927 2.531 2.416 2.531Zm.007-1.055c-.687 0-1.039-.629-1.039-1.486 0-.856.352-1.489 1.039-1.489.674 0 1.026.633 1.026 1.489 0 .857-.352 1.486-1.026 1.486Zm4.575-1.879c.004-.633.381-1.004.93-1.004.547 0 .876.358.873.959V314h1.361v-3.126c0-1.144-.671-1.847-1.693-1.847-.729 0-1.257.358-1.477.93h-.058v-.866h-1.297V314h1.361v-2.838Zm6.368 4.781c1.403 0 2.4-.639 2.4-1.895v-4.957h-1.352v.824h-.051c-.182-.399-.581-.888-1.403-.888-1.077 0-1.988.837-1.988 2.509 0 1.633.886 2.394 1.991 2.394.783 0 1.221-.393 1.4-.799h.058v.898c0 .674-.432.936-1.023.936-.601 0-.904-.262-1.016-.559l-1.259.169c.163.774.92 1.368 2.243 1.368Zm.029-3.036c-.668 0-1.032-.531-1.032-1.378 0-.834.358-1.419 1.032-1.419.661 0 1.032.56 1.032 1.419 0 .867-.377 1.378-1.032 1.378ZM20.738 323h4.19v-1.141h-2.806v-5.404h-1.384V323Zm5 0h1.361v-4.909h-1.361V323Zm.684-5.542c.405 0 .738-.31.738-.69 0-.377-.333-.687-.738-.687-.403 0-.736.31-.736.687 0 .38.333.69.736.69ZM28.134 323h1.343v-.786h.06c.189.409.601.866 1.394.866 1.118 0 1.99-.885 1.99-2.528 0-1.688-.91-2.525-1.987-2.525-.821 0-1.215.489-1.397.888h-.041v-2.46h-1.362V323Zm1.333-2.455c0-.875.37-1.435 1.032-1.435.675 0 1.033.585 1.033 1.435 0 .857-.365 1.451-1.033 1.451-.655 0-1.032-.575-1.032-1.451ZM33.749 323h1.362v-2.777c0-.604.44-1.02 1.042-1.02.188 0 .447.032.575.074v-1.208a2.029 2.029 0 0 0-.428-.048c-.55 0-1 .319-1.18.926h-.05v-.856h-1.32V323Zm4.861.093c.726 0 1.196-.317 1.435-.774h.039V323h1.29v-3.311c0-1.17-.99-1.662-2.083-1.662-1.176 0-1.95.562-2.138 1.457l1.26.103c.092-.326.383-.566.872-.566.463 0 .728.233.728.636v.019c0 .317-.335.358-1.189.441-.971.09-1.844.416-1.844 1.512 0 .971.694 1.464 1.63 1.464Zm.39-.94c-.419 0-.719-.195-.719-.569 0-.383.316-.572.796-.639.297-.042.783-.112.946-.221v.521c0 .515-.425.908-1.023.908Zm3.35.847h1.362v-2.777c0-.604.44-1.02 1.041-1.02.189 0 .448.032.576.074v-1.208a2.029 2.029 0 0 0-.428-.048c-.55 0-1 .319-1.18.926h-.051v-.856h-1.32V323Zm4.592 1.841c1.013 0 1.55-.518 1.828-1.31l1.908-5.434-1.442-.006-1.025 3.605h-.052l-1.016-3.605h-1.432l1.761 5.05-.08.207c-.179.461-.52.483-1 .336l-.307 1.016c.195.083.511.141.857.141Zm-19.544-43.504h1.326c-.02-1.167-.978-1.972-2.435-1.972-1.435 0-2.487.793-2.48 1.982-.004.965.677 1.518 1.783 1.783l.713.179c.712.173 1.109.377 1.112.818-.003.48-.457.806-1.16.806-.72 0-1.237-.333-1.282-.988h-1.339c.035 1.416 1.048 2.148 2.637 2.148 1.598 0 2.537-.764 2.54-1.963-.003-1.09-.824-1.668-1.962-1.924l-.588-.14c-.569-.131-1.045-.342-1.035-.812 0-.422.374-.732 1.051-.732.662 0 1.068.3 1.119.815Zm2.24 4.663h1.361v-2.947c0-.543.346-.904.8-.904.447 0 .747.307.747.789V286h1.32v-2.998c0-.508.291-.853.786-.853.435 0 .761.271.761.818V286h1.358v-3.301c0-1.065-.632-1.672-1.547-1.672-.719 0-1.278.368-1.48.93h-.05c-.157-.569-.659-.93-1.333-.93-.662 0-1.163.352-1.368.93h-.057v-.866h-1.298V286Zm9.528.093c.725 0 1.195-.317 1.435-.774h.038V286h1.291v-3.311c0-1.17-.99-1.662-2.084-1.662-1.176 0-1.95.562-2.138 1.457l1.26.103c.092-.326.383-.566.872-.566.463 0 .729.233.729.636v.019c0 .317-.336.358-1.19.441-.97.09-1.843.416-1.843 1.512 0 .971.693 1.464 1.63 1.464Zm.39-.94c-.419 0-.72-.195-.72-.569 0-.383.317-.572.796-.639.298-.042.783-.112.946-.221v.521c0 .515-.425.908-1.022.908Zm4.711-5.698h-1.361V286h1.361v-6.545Zm2.371 0h-1.361V286h1.361v-6.545ZM49.675 286h1.384v-2.122h1.164c1.505 0 2.38-.898 2.38-2.205 0-1.301-.859-2.218-2.345-2.218h-2.583V286Zm1.384-3.231v-2.183h.934c.799 0 1.185.435 1.185 1.087 0 .648-.386 1.096-1.179 1.096h-.94ZM55.396 286h1.361v-4.909h-1.361V286Zm.684-5.542c.406 0 .738-.31.738-.69 0-.377-.332-.687-.738-.687-.403 0-.735.31-.735.687 0 .38.332.69.735.69Zm4.298.633h-.923v-1.176h-1.362v1.176h-.671v1.023h.671v2.556c-.006.962.649 1.439 1.636 1.397.352-.013.601-.083.739-.128l-.214-1.013c-.067.013-.211.045-.34.045-.27 0-.46-.102-.46-.48v-2.377h.924v-1.023ZM21.08 178.57h1.405c-.178-1.294-1.32-2.205-2.8-2.205-1.728 0-3.061 1.247-3.061 3.369 0 2.071 1.247 3.355 3.09 3.355 1.653 0 2.832-1.045 2.832-2.767v-.825h-2.739v1.042h1.407c-.02.812-.573 1.326-1.493 1.326-1.039 0-1.694-.776-1.694-2.144 0-1.362.68-2.132 1.681-2.132.713 0 1.196.368 1.371.981Zm2.4 4.43h1.36v-2.777c0-.604.442-1.02 1.043-1.02.188 0 .447.032.575.074v-1.208a2.029 2.029 0 0 0-.428-.048c-.55 0-1 .319-1.18.926h-.05v-.856h-1.32V183Zm4.86.093c.726 0 1.195-.317 1.435-.774h.038V183h1.292v-3.311c0-1.17-.991-1.662-2.084-1.662-1.176 0-1.95.562-2.138 1.457l1.259.103c.093-.326.383-.566.872-.566.464 0 .73.233.73.636v.019c0 .317-.337.358-1.19.441-.971.09-1.844.416-1.844 1.512 0 .971.694 1.464 1.63 1.464Zm.39-.94c-.419 0-.72-.195-.72-.569 0-.383.317-.572.797-.639.297-.042.783-.112.946-.221v.521c0 .515-.425.908-1.023.908Zm7.75-4.062h-1.44l-1.017 3.512h-.051l-1.02-3.512h-1.438L33.23 183h1.535l1.716-4.909Zm2.687 5.005c1.214 0 2.032-.591 2.224-1.502l-1.259-.083c-.137.374-.489.569-.943.569-.68 0-1.112-.451-1.112-1.183v-.003h3.343v-.374c0-1.668-1.01-2.493-2.308-2.493-1.444 0-2.38 1.026-2.38 2.541 0 1.556.923 2.528 2.435 2.528Zm-1.09-3.046a1.037 1.037 0 0 1 1.058-1.007c.591 0 1 .422 1.003 1.007h-2.061Zm4.85 4.791c1.014 0 1.55-.518 1.828-1.31l1.908-5.434-1.44-.006-1.027 3.605h-.05l-1.017-3.605h-1.432l1.76 5.05-.079.207c-.179.461-.52.483-1 .336l-.307 1.016c.195.083.511.141.856.141Zm5.611-1.748c.726 0 1.196-.317 1.436-.774h.038V183h1.291v-3.311c0-1.17-.99-1.662-2.084-1.662-1.176 0-1.95.562-2.138 1.457l1.26.103c.092-.326.383-.566.872-.566.463 0 .729.233.729.636v.019c0 .317-.336.358-1.19.441-.971.09-1.844.416-1.844 1.512 0 .971.694 1.464 1.63 1.464Zm.39-.94c-.418 0-.719-.195-.719-.569 0-.383.317-.572.796-.639.297-.042.783-.112.946-.221v.521c0 .515-.425.908-1.023.908Zm3.35.847h1.362v-2.777c0-.604.44-1.02 1.042-1.02.188 0 .447.032.575.074v-1.208a2.027 2.027 0 0 0-.428-.048c-.55 0-1 .319-1.18.926h-.05v-.856h-1.32V183Zm5.182.08c.793 0 1.205-.457 1.394-.866h.057V183h1.343v-6.545h-1.359v2.46h-.041c-.182-.399-.575-.888-1.397-.888-1.077 0-1.988.837-1.988 2.525 0 1.643.873 2.528 1.991 2.528Zm.432-1.084c-.668 0-1.032-.594-1.032-1.451 0-.85.358-1.435 1.032-1.435.661 0 1.032.56 1.032 1.435 0 .876-.377 1.451-1.032 1.451ZM35.761 120h1.384v-2.122h1.163c1.506 0 2.382-.898 2.382-2.205 0-1.301-.86-2.218-2.346-2.218H35.76V120Zm1.384-3.231v-2.183h.933c.8 0 1.186.435 1.186 1.087 0 .648-.387 1.096-1.18 1.096h-.939ZM41.482 120h1.361v-4.909h-1.361V120Zm.684-5.542c.406 0 .738-.31.738-.69 0-.377-.332-.687-.738-.687-.403 0-.735.31-.735.687 0 .38.332.69.735.69Zm4.298.633h-.924v-1.176h-1.36v1.176h-.671v1.023h.67v2.556c-.005.962.65 1.439 1.637 1.397.352-.013.601-.083.739-.128l-.215-1.013c-.067.013-.21.045-.338.045-.272 0-.46-.102-.46-.48v-2.377h.923v-1.023ZM91.751 111h2.797c1.47 0 2.253-.767 2.253-1.809 0-.968-.694-1.553-1.438-1.588v-.064c.68-.154 1.182-.636 1.182-1.407 0-.981-.728-1.677-2.173-1.677h-2.62V111Zm1.384-1.131v-1.739h1.16c.665 0 1.077.383 1.077.924 0 .492-.335.815-1.109.815h-1.128Zm0-2.675v-1.621h1.052c.613 0 .962.317.962.79 0 .517-.422.831-.988.831h-1.026Zm5.86 3.899c.725 0 1.195-.317 1.435-.774h.038V111h1.291v-3.311c0-1.17-.99-1.662-2.083-1.662-1.177 0-1.95.562-2.139 1.457l1.26.103c.092-.326.383-.566.872-.566.464 0 .729.233.729.636v.019c0 .317-.336.358-1.189.441-.972.09-1.844.416-1.844 1.512 0 .971.693 1.464 1.63 1.464Zm.39-.94c-.419 0-.72-.195-.72-.569 0-.383.317-.572.796-.639.298-.042.783-.112.946-.221v.521c0 .515-.425.908-1.022.908Zm4.711-5.698h-1.361V111h1.361v-6.545Zm3.228 6.641c1.307 0 2.128-.767 2.192-1.895h-1.284c-.08.524-.426.818-.892.818-.636 0-1.048-.534-1.048-1.474 0-.926.415-1.457 1.048-1.457.498 0 .818.329.892.818h1.284c-.057-1.134-.917-1.879-2.199-1.879-1.489 0-2.409 1.032-2.409 2.538 0 1.492.904 2.531 2.416 2.531Zm5.201 0c1.489 0 2.416-1.02 2.416-2.531 0-1.522-.927-2.538-2.416-2.538-1.489 0-2.416 1.016-2.416 2.538 0 1.511.927 2.531 2.416 2.531Zm.006-1.055c-.687 0-1.038-.629-1.038-1.486 0-.856.351-1.489 1.038-1.489.675 0 1.026.633 1.026 1.489 0 .857-.351 1.486-1.026 1.486Zm4.576-1.879c.003-.633.38-1.004.93-1.004.547 0 .876.358.873.959V111h1.361v-3.126c0-1.144-.671-1.847-1.694-1.847-.728 0-1.256.358-1.476.93h-.058v-.866h-1.297V111h1.361v-2.838Zm4.821 4.679c1.013 0 1.55-.518 1.828-1.31l1.908-5.434-1.441-.006-1.026 3.605h-.051l-1.017-3.605h-1.431l1.761 5.05-.08.207c-.179.461-.521.483-1.001.336l-.307 1.016c.195.083.512.141.857.141Zm17.624 33.496h1.326c-.019-1.167-.978-1.972-2.435-1.972-1.435 0-2.487.793-2.48 1.982-.004.965.677 1.518 1.783 1.783l.713.179c.712.173 1.109.377 1.112.818-.003.48-.457.806-1.16.806-.719 0-1.237-.333-1.282-.988h-1.339c.035 1.416 1.048 2.148 2.637 2.148 1.598 0 2.537-.764 2.541-1.963-.004-1.09-.825-1.668-1.963-1.924l-.588-.14c-.569-.131-1.045-.342-1.035-.812 0-.422.374-.732 1.051-.732.662 0 1.068.3 1.119.815Zm3.601 1.825c.004-.633.39-1.004.946-1.004.553 0 .879.355.876.959V151h1.362v-3.126c.003-1.15-.675-1.847-1.698-1.847-.744 0-1.243.352-1.467.93h-.057v-2.502h-1.323V151h1.361v-2.838Zm6.392 2.934c1.489 0 2.416-1.02 2.416-2.531 0-1.522-.927-2.538-2.416-2.538-1.489 0-2.416 1.016-2.416 2.538 0 1.511.927 2.531 2.416 2.531Zm.006-1.055c-.687 0-1.038-.629-1.038-1.486 0-.856.351-1.489 1.038-1.489.675 0 1.026.633 1.026 1.489 0 .857-.351 1.486-1.026 1.486Zm3.215.959h1.361v-2.777c0-.604.441-1.02 1.042-1.02.189 0 .447.032.575.074v-1.208a2.025 2.025 0 0 0-.428-.048c-.55 0-1 .319-1.179.926h-.051v-.856h-1.32V151Zm6.458-4.909h-.923v-1.176h-1.362v1.176h-.671v1.023h.671v2.556c-.006.962.649 1.439 1.637 1.397.351-.013.6-.083.738-.128l-.214-1.013c-.067.013-.211.045-.339.045-.272 0-.46-.102-.46-.48v-2.377h.923v-1.023Zm39.691-13.364c0-2.141-1.33-3.362-3.065-3.362-1.745 0-3.065 1.221-3.065 3.362 0 2.132 1.32 3.362 3.065 3.362.409 0 .796-.067 1.147-.201l.528.649h1.291l-.937-1.176c.639-.572 1.036-1.467 1.036-2.634Zm-3.545.997.838 1.106a1.796 1.796 0 0 1-.358.035c-1.007 0-1.662-.751-1.662-2.138s.655-2.138 1.662-2.138c1.003 0 1.662.751 1.662 2.138 0 .713-.176 1.26-.48 1.621l-.485-.624h-1.177Zm7.611.186c.004.658-.447 1.003-.936 1.003-.515 0-.847-.361-.85-.939v-2.883h-1.362v3.126c.004 1.147.675 1.847 1.662 1.847.739 0 1.269-.38 1.49-.956h.051V136h1.307v-4.909h-1.362v2.819Zm3.77 2.183c.725 0 1.195-.317 1.435-.774h.038V136h1.291v-3.311c0-1.17-.99-1.662-2.083-1.662-1.177 0-1.95.562-2.139 1.457l1.26.103c.092-.326.383-.566.872-.566.464 0 .729.233.729.636v.019c0 .317-.336.358-1.189.441-.972.09-1.844.416-1.844 1.512 0 .971.693 1.464 1.63 1.464Zm.39-.94c-.419 0-.719-.195-.719-.569 0-.383.316-.572.795-.639.298-.042.783-.112.946-.221v.521c0 .515-.425.908-1.022.908Zm5.159.927c.792 0 1.205-.457 1.393-.866h.058V136h1.342v-6.545h-1.358v2.46h-.042c-.182-.399-.575-.888-1.397-.888-1.077 0-1.988.837-1.988 2.525 0 1.643.873 2.528 1.992 2.528Zm.431-1.084c-.668 0-1.032-.594-1.032-1.451 0-.85.358-1.435 1.032-1.435.662 0 1.032.56 1.032 1.435 0 .876-.377 1.451-1.032 1.451ZM223.054 189h2.796c1.47 0 2.253-.767 2.253-1.809 0-.968-.693-1.553-1.438-1.588v-.064c.681-.154 1.183-.636 1.183-1.407 0-.981-.729-1.677-2.174-1.677h-2.62V189Zm1.383-1.131v-1.739h1.161c.664 0 1.077.383 1.077.924 0 .492-.336.815-1.109.815h-1.129Zm0-2.675v-1.621h1.052c.614 0 .962.317.962.79 0 .517-.422.831-.988.831h-1.026Zm6.678 3.902c1.49 0 2.416-1.02 2.416-2.531 0-1.522-.926-2.538-2.416-2.538-1.489 0-2.416 1.016-2.416 2.538 0 1.511.927 2.531 2.416 2.531Zm.007-1.055c-.687 0-1.039-.629-1.039-1.486 0-.856.352-1.489 1.039-1.489.674 0 1.026.633 1.026 1.489 0 .857-.352 1.486-1.026 1.486Zm3.214.959h1.361v-4.909h-1.361V189Zm.684-5.542c.406 0 .738-.31.738-.69 0-.377-.332-.687-.738-.687-.403 0-.735.31-.735.687 0 .38.332.69.735.69Zm3.048-1.003h-1.361V189h1.361v-6.545Zm3.247 6.641c1.215 0 2.033-.591 2.225-1.502l-1.26-.083c-.137.374-.489.569-.942.569-.681 0-1.113-.451-1.113-1.183v-.003h3.343v-.374c0-1.668-1.009-2.493-2.307-2.493-1.445 0-2.381 1.026-2.381 2.541 0 1.556.924 2.528 2.435 2.528Zm-1.09-3.046a1.038 1.038 0 0 1 1.058-1.007c.592 0 1.001.422 1.004 1.007h-2.062Zm4.151 2.95h1.361v-2.777c0-.604.442-1.02 1.042-1.02.189 0 .448.032.576.074v-1.208a2.035 2.035 0 0 0-.429-.048c-.549 0-1 .319-1.179.926h-.051v-.856h-1.32V189Zm3.794-63h1.349l1.243-4.279h.051L252.06 126h1.348l1.873-6.545h-1.512l-1.083 4.557h-.057l-1.193-4.557h-1.294l-1.195 4.547h-.055l-1.083-4.547h-1.512L248.17 126Zm7.745 0h1.362v-4.909h-1.362V126Zm.684-5.542c.406 0 .739-.31.739-.69 0-.377-.333-.687-.739-.687-.402 0-.735.31-.735.687 0 .38.333.69.735.69Zm3.049 2.704c.003-.633.38-1.004.93-1.004.547 0 .876.358.873.959V126h1.361v-3.126c0-1.144-.671-1.847-1.694-1.847-.729 0-1.256.358-1.476.93h-.058v-.866h-1.298V126h1.362v-2.838Zm5.965 2.918c.793 0 1.205-.457 1.394-.866h.057V126h1.342v-6.545h-1.358v2.46h-.041c-.183-.399-.576-.888-1.397-.888-1.077 0-1.988.837-1.988 2.525 0 1.643.872 2.528 1.991 2.528Zm.432-1.084c-.668 0-1.033-.594-1.033-1.451 0-.85.358-1.435 1.033-1.435.661 0 1.032.56 1.032 1.435 0 .876-.377 1.451-1.032 1.451Zm5.618 1.1c1.489 0 2.416-1.02 2.416-2.531 0-1.522-.927-2.538-2.416-2.538-1.49 0-2.416 1.016-2.416 2.538 0 1.511.926 2.531 2.416 2.531Zm.006-1.055c-.687 0-1.039-.629-1.039-1.486 0-.856.352-1.489 1.039-1.489.675 0 1.026.633 1.026 1.489 0 .857-.351 1.486-1.026 1.486Zm4.06.959h1.438l.844-3.087h.06l.844 3.087h1.441l1.333-4.909h-1.374l-.748 3.279h-.041l-.806-3.279h-1.352l-.792 3.298h-.045l-.761-3.298h-1.377l1.336 4.909Zm-67.181 196.746c-.182-1.512-1.326-2.381-2.841-2.381-1.729 0-3.049 1.221-3.049 3.362 0 2.135 1.297 3.362 3.049 3.362 1.678 0 2.691-1.115 2.841-2.32l-1.4-.006c-.131.7-.681 1.102-1.419 1.102-.994 0-1.668-.738-1.668-2.138 0-1.361.665-2.138 1.678-2.138.757 0 1.304.438 1.409 1.157h1.4Zm4.034 2.164c.003.658-.447 1.003-.936 1.003-.515 0-.847-.361-.851-.939v-2.883h-1.361v3.126c.003 1.147.674 1.847 1.662 1.847.738 0 1.269-.38 1.489-.956h.051V327h1.307v-4.909h-1.361v2.819Zm2.395 2.09h1.342v-.786h.061c.189.409.601.866 1.394.866 1.118 0 1.991-.885 1.991-2.528 0-1.688-.911-2.525-1.988-2.525-.822 0-1.215.489-1.397.888h-.041v-2.46h-1.362V327Zm1.333-2.455c0-.875.371-1.435 1.032-1.435.675 0 1.032.585 1.032 1.435 0 .857-.364 1.451-1.032 1.451-.655 0-1.032-.575-1.032-1.451Zm4.308 2.455h1.342v-.786h.061c.188.409.601.866 1.393.866 1.119 0 1.991-.885 1.991-2.528 0-1.688-.91-2.525-1.988-2.525-.821 0-1.214.489-1.396.888h-.042v-2.46h-1.361V327Zm1.333-2.455c0-.875.37-1.435 1.032-1.435.674 0 1.032.585 1.032 1.435 0 .857-.364 1.451-1.032 1.451-.655 0-1.032-.575-1.032-1.451Zm4.955 4.296c1.014 0 1.551-.518 1.829-1.31l1.908-5.434-1.442-.006-1.026 3.605h-.051l-1.016-3.605h-1.432l1.761 5.05-.08.207c-.179.461-.521.483-1 .336l-.307 1.016c.195.083.511.141.856.141Zm108.5 285.905c-.182-1.512-1.326-2.381-2.841-2.381-1.729 0-3.049 1.221-3.049 3.362 0 2.135 1.297 3.362 3.049 3.362 1.678 0 2.691-1.115 2.841-2.32l-1.4-.006c-.131.7-.681 1.102-1.419 1.102-.994 0-1.668-.738-1.668-2.138 0-1.361.665-2.138 1.678-2.138.757 0 1.304.438 1.409 1.157h1.4Zm3.104 4.35c1.489 0 2.416-1.02 2.416-2.531 0-1.522-.927-2.538-2.416-2.538-1.49 0-2.416 1.016-2.416 2.538 0 1.511.926 2.531 2.416 2.531Zm.006-1.055c-.687 0-1.038-.629-1.038-1.486s.351-1.489 1.038-1.489c.675 0 1.026.632 1.026 1.489 0 .857-.351 1.486-1.026 1.486Zm5.854-3.95h-.975v-.329c0-.333.135-.528.534-.528.163 0 .329.036.438.071l.24-1.023a3.603 3.603 0 0 0-.962-.134c-.924 0-1.611.521-1.611 1.588v.355h-.694v1.023h.694V619h1.361v-3.886h.975v-1.023Zm3.391 0h-.975v-.329c0-.333.134-.528.534-.528.163 0 .329.036.438.071l.239-1.023a3.589 3.589 0 0 0-.962-.134c-.923 0-1.61.521-1.61 1.588v.355h-.694v1.023h.694V619h1.361v-3.886h.975v-1.023Zm.751 4.909h1.361v-4.909h-1.361V619Zm.684-5.542c.406 0 .738-.31.738-.69 0-.377-.332-.687-.738-.687-.403 0-.735.31-.735.687 0 .38.332.69.735.69Zm3.048 2.704c.004-.633.381-1.004.93-1.004.547 0 .876.358.873.959V619h1.361v-3.126c0-1.144-.671-1.847-1.694-1.847-.728 0-1.256.358-1.476.93h-.058v-.866h-1.297V619h1.361v-2.838Zm-33.243 44.408h1.406c-.178-1.294-1.319-2.205-2.799-2.205-1.729 0-3.062 1.246-3.062 3.369 0 2.071 1.246 3.355 3.091 3.355 1.652 0 2.831-1.045 2.831-2.767v-.825h-2.739v1.042h1.406c-.019.812-.572 1.326-1.492 1.326-1.039 0-1.694-.776-1.694-2.144 0-1.362.681-2.132 1.681-2.132.713 0 1.195.368 1.371.981Zm3.8 4.523c.726 0 1.195-.317 1.435-.774h.038V665h1.292v-3.311c0-1.17-.991-1.662-2.084-1.662-1.176 0-1.95.562-2.138 1.457l1.259.103c.093-.326.383-.566.872-.566.464 0 .729.233.729.636v.019c0 .317-.336.358-1.189.441-.971.09-1.844.416-1.844 1.512 0 .971.694 1.464 1.63 1.464Zm.39-.94c-.419 0-.719-.195-.719-.569 0-.383.316-.572.796-.639.297-.042.783-.112.946-.221v.521c0 .515-.425.908-1.023.908Zm3.35.847h1.361v-2.777c0-.604.441-1.02 1.042-1.02.189 0 .448.032.576.074v-1.208a2.035 2.035 0 0 0-.429-.048c-.549 0-1 .319-1.179.926h-.051v-.856h-1.32V665Zm5.182.08c.793 0 1.205-.457 1.393-.866h.058V665h1.342v-6.545h-1.358v2.46h-.042c-.182-.399-.575-.888-1.396-.888-1.077 0-1.988.837-1.988 2.525 0 1.643.872 2.528 1.991 2.528Zm.431-1.084c-.668 0-1.032-.594-1.032-1.451 0-.85.358-1.435 1.032-1.435.662 0 1.033.56 1.033 1.435 0 .876-.377 1.451-1.033 1.451Zm5.638 1.1c1.214 0 2.033-.591 2.224-1.502l-1.259-.083c-.137.374-.489.569-.943.569-.681 0-1.112-.451-1.112-1.183v-.003h3.343v-.374c0-1.668-1.01-2.493-2.307-2.493-1.445 0-2.382 1.026-2.382 2.541 0 1.556.924 2.528 2.436 2.528Zm-1.09-3.046a1.038 1.038 0 0 1 1.058-1.007c.591 0 1 .422 1.003 1.007h-2.061Zm5.512.112c.003-.633.38-1.004.93-1.004.547 0 .876.358.873.959V665h1.361v-3.126c0-1.144-.671-1.847-1.694-1.847-.728 0-1.256.358-1.476.93h-.058v-.866h-1.297V665h1.361v-2.838Zm-89.835-41.416c-.182-1.512-1.326-2.381-2.841-2.381-1.729 0-3.049 1.221-3.049 3.362 0 2.135 1.297 3.362 3.049 3.362 1.678 0 2.691-1.115 2.841-2.32l-1.4-.006c-.131.7-.68 1.102-1.419 1.102-.994 0-1.668-.738-1.668-2.138 0-1.361.665-2.138 1.678-2.138.757 0 1.304.438 1.409 1.157h1.4Zm2.247 1.416c.004-.633.39-1.004.946-1.004.553 0 .879.355.876.959V625h1.362v-3.126c.003-1.15-.675-1.847-1.697-1.847-.745 0-1.244.352-1.467.93h-.058v-2.502h-1.323V625h1.361v-2.838Zm7.322.748c.003.658-.447 1.003-.936 1.003-.515 0-.847-.361-.85-.939v-2.883H258.8v3.126c.003 1.147.674 1.847 1.662 1.847.738 0 1.269-.38 1.489-.956h.052V625h1.307v-4.909h-1.362v2.819Zm2.37 2.09h1.361v-2.777c0-.604.441-1.02 1.042-1.02.189 0 .448.032.575.074v-1.208a2.018 2.018 0 0 0-.428-.048c-.55 0-1 .319-1.179.926h-.051v-.856h-1.32V625Zm5.591.096c1.307 0 2.128-.767 2.192-1.895h-1.284c-.08.524-.425.818-.892.818-.636 0-1.048-.534-1.048-1.474 0-.926.415-1.457 1.048-1.457.498 0 .818.329.892.818h1.284c-.057-1.134-.917-1.879-2.198-1.879-1.49 0-2.41 1.032-2.41 2.538 0 1.492.904 2.531 2.416 2.531Zm4.345-2.934c.003-.633.39-1.004.946-1.004.553 0 .879.355.875.959V625h1.362v-3.126c.003-1.15-.675-1.847-1.697-1.847-.745 0-1.244.352-1.467.93h-.058v-2.502h-1.323V625h1.362v-2.838ZM351.657 563h1.384v-2.704h2.662v-1.141h-2.662v-1.559h2.95v-1.141h-4.334V563Zm7.016.096c1.489 0 2.416-1.02 2.416-2.531 0-1.522-.927-2.538-2.416-2.538-1.489 0-2.416 1.016-2.416 2.538 0 1.511.927 2.531 2.416 2.531Zm.006-1.055c-.687 0-1.038-.629-1.038-1.486 0-.856.351-1.489 1.038-1.489.675 0 1.026.633 1.026 1.489 0 .857-.351 1.486-1.026 1.486Zm6.362-1.131c.004.658-.447 1.003-.936 1.003-.515 0-.847-.361-.85-.939v-2.883h-1.362v3.126c.004 1.147.675 1.847 1.662 1.847.739 0 1.269-.38 1.49-.956h.051V563h1.307v-4.909h-1.362v2.819Zm3.731-.748c.004-.633.381-1.004.931-1.004.546 0 .875.358.872.959V563h1.362v-3.126c0-1.144-.672-1.847-1.694-1.847-.729 0-1.256.358-1.477.93h-.057v-.866h-1.298V563h1.361v-2.838Zm6.768-2.071h-.924v-1.176h-1.361v1.176h-.672v1.023h.672v2.556c-.007.962.648 1.439 1.636 1.397.352-.013.601-.083.738-.128l-.214-1.013c-.067.013-.211.045-.339.045-.271 0-.46-.102-.46-.48v-2.377h.924v-1.023Zm2.206 5.002c.725 0 1.195-.317 1.435-.774h.038V563h1.291v-3.311c0-1.17-.991-1.662-2.084-1.662-1.176 0-1.949.562-2.138 1.457l1.259.103c.093-.326.384-.566.873-.566.463 0 .729.233.729.636v.019c0 .317-.336.358-1.189.441-.972.09-1.844.416-1.844 1.512 0 .971.693 1.464 1.63 1.464Zm.389-.94c-.418 0-.719-.195-.719-.569 0-.383.317-.572.796-.639.297-.042.783-.112.946-.221v.521c0 .515-.425.908-1.023.908Zm3.35.847h1.362v-4.909h-1.362V563Zm.684-5.542c.406 0 .739-.31.739-.69 0-.377-.333-.687-.739-.687-.402 0-.735.31-.735.687 0 .38.333.69.735.69Zm3.049 2.704c.003-.633.38-1.004.93-1.004.547 0 .876.358.873.959V563h1.361v-3.126c0-1.144-.671-1.847-1.694-1.847-.729 0-1.256.358-1.476.93h-.058v-.866h-1.297V563h1.361v-2.838ZM409.166 625c1.994 0 3.202-1.234 3.202-3.279 0-2.039-1.208-3.266-3.183-3.266h-2.339V625h2.32Zm-.936-1.186v-4.174h.882c1.227 0 1.876.627 1.876 2.081 0 1.46-.649 2.093-1.88 2.093h-.878Zm6.457 1.279c.725 0 1.195-.317 1.435-.774h.038V625h1.291v-3.311c0-1.17-.99-1.662-2.083-1.662-1.177 0-1.95.562-2.139 1.457l1.26.103c.092-.326.383-.566.872-.566.464 0 .729.233.729.636v.019c0 .317-.336.358-1.189.441-.972.09-1.844.416-1.844 1.512 0 .971.693 1.464 1.63 1.464Zm.39-.94c-.419 0-.719-.195-.719-.569 0-.383.316-.572.795-.639.298-.042.783-.112.946-.221v.521c0 .515-.425.908-1.022.908Zm3.35.847h1.361v-2.777c0-.604.441-1.02 1.042-1.02.189 0 .448.032.575.074v-1.208a2.018 2.018 0 0 0-.428-.048c-.55 0-1 .319-1.179.926h-.051v-.856h-1.32V625Zm3.601 0h1.362v-1.56l.367-.418 1.339 1.978h1.595l-1.914-2.784 1.822-2.125h-1.563l-1.573 1.863h-.073v-3.499h-1.362V625Zm-8.712-98.545h-1.377v4.116h-.058l-2.825-4.116h-1.215V533h1.384v-4.12h.048l2.848 4.12h1.195v-6.545Zm3.274 6.641c1.215 0 2.033-.591 2.225-1.502l-1.26-.083c-.137.374-.489.569-.943.569-.68 0-1.112-.451-1.112-1.183v-.003h3.343v-.374c0-1.668-1.01-2.493-2.307-2.493-1.445 0-2.381 1.026-2.381 2.541 0 1.556.923 2.528 2.435 2.528Zm-1.09-3.046a1.038 1.038 0 0 1 1.058-1.007c.591 0 1.001.422 1.004 1.007H415.5Zm5.084 2.95h1.438l.844-3.087h.061l.843 3.087h1.442l1.333-4.909h-1.375l-.748 3.279h-.041l-.805-3.279h-1.352l-.793 3.298h-.045l-.76-3.298h-1.378l1.336 4.909Zm-11.161 12h2.797c1.47 0 2.253-.767 2.253-1.809 0-.968-.693-1.553-1.438-1.588v-.064c.681-.154 1.182-.636 1.182-1.407 0-.981-.728-1.677-2.173-1.677h-2.621V545Zm1.384-1.131v-1.739h1.16c.665 0 1.077.383 1.077.924 0 .492-.335.815-1.109.815h-1.128Zm0-2.675v-1.621h1.052c.613 0 .962.317.962.79 0 .517-.422.831-.988.831h-1.026Zm6.678 3.902c1.489 0 2.416-1.02 2.416-2.531 0-1.522-.927-2.538-2.416-2.538-1.489 0-2.416 1.016-2.416 2.538 0 1.511.927 2.531 2.416 2.531Zm.006-1.055c-.687 0-1.038-.629-1.038-1.486 0-.856.351-1.489 1.038-1.489.675 0 1.026.633 1.026 1.489 0 .857-.351 1.486-1.026 1.486Zm4.168-3.95h-1.407l1.407 2.454-1.458 2.455h1.407l.952-1.697.968 1.697h1.391l-1.461-2.455 1.422-2.454h-1.396l-.924 1.716-.901-1.716Zm-44.993-29.345c-.182-1.512-1.326-2.381-2.841-2.381-1.729 0-3.049 1.221-3.049 3.362 0 2.135 1.298 3.362 3.049 3.362 1.678 0 2.691-1.115 2.841-2.32l-1.4-.006c-.131.7-.68 1.102-1.419 1.102-.994 0-1.668-.738-1.668-2.138 0-1.361.665-2.138 1.678-2.138.757 0 1.304.438 1.409 1.157h1.4Zm.873 4.254h4.667v-1.131h-2.749v-.045l.956-.937c1.345-1.227 1.706-1.84 1.706-2.585 0-1.135-.927-1.937-2.33-1.937-1.374 0-2.317.821-2.314 2.106h1.314c-.003-.626.393-1.01.991-1.01.575 0 1.003.358 1.003.934 0 .52-.319.878-.914 1.451l-2.33 2.157V515Zm-1.926 100.455V622h1.342v-4.276h.054l1.694 4.244h.914l1.694-4.228h.055V622h1.342v-6.545h-1.707l-1.802 4.397h-.077l-1.803-4.397h-1.706Zm11.277 4.455c.003.658-.448 1.003-.937 1.003-.514 0-.847-.361-.85-.939v-2.883h-1.361v3.126c.003 1.147.674 1.847 1.661 1.847.739 0 1.269-.38 1.49-.956h.051V622h1.307v-4.909h-1.361v2.819Zm3.731-4.455h-1.362V622h1.362v-6.545Zm3.62 1.636h-.923v-1.176h-1.362v1.176h-.671v1.023h.671v2.556c-.006.962.649 1.439 1.637 1.397.351-.013.601-.083.738-.128l-.214-1.013c-.067.013-.211.045-.339.045-.272 0-.46-.102-.46-.48v-2.377h.923v-1.023Zm.806 4.909h1.362v-4.909h-1.362V622Zm.684-5.542c.406 0 .739-.31.739-.69 0-.377-.333-.687-.739-.687-.402 0-.735.31-.735.687 0 .38.333.69.735.69Zm-46.932-105.712c-.182-1.512-1.326-2.381-2.841-2.381-1.729 0-3.049 1.221-3.049 3.362 0 2.135 1.297 3.362 3.049 3.362 1.678 0 2.691-1.115 2.841-2.32l-1.4-.006c-.131.7-.68 1.102-1.419 1.102-.994 0-1.668-.738-1.668-2.138 0-1.361.665-2.138 1.678-2.138.757 0 1.304.438 1.409 1.157h1.4Zm3.721-2.291h-1.301l-1.62 1.025v1.228l1.499-.94h.038V515h1.384v-6.545Z"/><path fill="#E44C4D" fill-opacity=".25" stroke="#E44C4D" stroke-width="1.5" d="m684.443 241.726 3.666 14.506a2 2 0 0 1-1.939 2.49h-35.589a2 2 0 0 1-2-2v-74.988a2 2 0 0 1 2-2h35.957a2 2 0 0 1 1.991 2.19l-4.147 43.46v15.852c0 .165.02.33.061.49Z"/><path fill="#30D9D4" fill-opacity=".25" stroke="#30D9D4" stroke-width="1.5" d="m46.516 510.821 10.795 6.371c.308.181.659.277 1.017.277H78.7a2 2 0 0 0 2-2V406.575a2 2 0 0 0-2-2H53.8a2 2 0 0 0-1.84 1.215l-12.048 28.233a2 2 0 0 0-.153.606l-6.44 71.586a2 2 0 0 0 1.593 2.139l10.986 2.229c.218.045.428.125.62.238Z"/><path fill="#30D9D4" d="M57.492 459.328c-.243-2.016-1.768-3.175-3.788-3.175-2.306 0-4.065 1.628-4.065 4.483 0 2.847 1.73 4.483 4.065 4.483 2.237 0 3.588-1.487 3.788-3.093l-1.866-.009c-.175.933-.908 1.47-1.892 1.47-1.326 0-2.225-.984-2.225-2.851 0-1.815.887-2.85 2.238-2.85 1.01 0 1.738.583 1.879 1.542h1.866Zm.883-1.534h2.672V465h1.824v-7.206h2.672v-1.521h-7.168v1.521Z"/><path fill="#E44C4D" d="M662.916 215.794h2.672V223h1.824v-7.206h2.672v-1.521h-7.168v1.521Z"/></g></svg>