<svg xmlns="http://www.w3.org/2000/svg" width="708" height="708" fill="none"><path fill="#181B21" fill-rule="evenodd" d="M20.07 118.808h35.1l7.742-44.904 45.42-4.13v-3.096h25.807V79.58h8.259V69.258h20.645v-3.613h3.613v-2.064h9.807v2.064h28.904v16h3.097V74.42h81.55V109h2.065v-3.097h78.97l2.58-7.742V61h57.808v4.13h4.645l1.033-1.55h37.678v5.678h2.065v-5.677h48.517V61h39.743v27.872h-8.258v6.193h66.066l21.162 5.162v24.259h5.677v-2.065h31.485v73.292h11.355v28.904h4.645v22.194h-4.645v34.066h-4.645v7.226h-2.581v93.937h2.581v38.195h-2.581v37.162H622.41v42.324h11.355v26.323h-5.678v3.613h5.678v34.065h-5.678v10.839h4.646v28.388l-4.646-.516v2.581h-51.098v-3.613h-1.548v6.194h-48.518v-6.194h-9.806v3.613h-19.098v-3.613h-4.645v3.613H453.63v-34.066h-14.968v36.647h-48.001l-4.645-8.775-7.226 3.613-2.581 5.162-54.195 27.355h-5.678l-9.29 4.645 4.129 8.259-105.809-34.582v-2.064h-11.355l-30.969-62.97h-46.969l-1.032-50.066h53.163V332.491h13.419l-2.58-4.129h-50.582v-7.226h-20.646v7.226H59.814v-71.228l1.548-2.065h-9.806v-32.517l7.742-5.161v-3.097l-1.549-1.032v-12.904l1.549-1.032v-3.613H15.942l-1.033-1.548-2.064-67.099H9.748v-2.064l8.775-8.259h1.548v2.065Zm121.81-22.71v6.193h63.486V97.13h3.097v7.226h49.549v5.678h-2.58v36.646l7.742 7.742h27.355v-30.453h1.033v4.129h41.291v1.033h-41.291v25.291h17.032l1.549 1.548h122.842v-43.356l-2.065-1.548-.516-18.065h1.548l-.516-5.678h3.613l1.032 1.549h39.227l-.516-6.194h2.065l.516 4.13h35.097v2.064h30.969v6.193h-51.614l-14.968 3.097v18.065l10.322 1.033 4.646 43.872h-13.936v12.903h13.936v10.323h-14.968v30.452l2.064 1.549v32.001l-30.452 14.968h-2.065l-1.548-1.549h-17.033l-1.032 1.549h-5.162v-1.033h-42.323v1.033h-30.969l-14.452-29.937v-14.452h2.065v-7.742h-1.032l-.517-52.13h-81.034v-10.323h-1.032l-1.032-29.936h-47.486v-15.484h-69.163v-7.226h7.226ZM83.04 133.26h16.517v4.129H87.169v12.387H83.04V133.26Zm65.034 0v16.516h-4.129v-12.387h-12.387v-4.129h16.516Zm55.743 18.581h8.259v11.355h-8.259v-11.355ZM83.04 202.423h16.517v-4.129H87.169v-12.388H83.04v16.517Zm65.034-16.517h-4.129v12.388h-12.387v4.129h16.516v-16.517Zm18.065 69.163h-23.226v2.065h5.161v13.42l10.323 19.613h14.452v-1.032h11.355v1.032h15.484v40.259l-3.097 1.032v1.033h19.614v14.452h15.484v14.452h12.388v-13.42h10.322v-9.291h-3.096v1.033h-3.097v-1.033h-4.129v-56.775h11.355v-1.032l-3.097-.517v-63.485h46.969v-6.194h.516v-7.226h-.516v-4.129h-60.905l-21.162-3.097h-13.936v58.84h-13.936v1.033h-23.226v-1.033Zm106.841 89.809v-15.484h-1.032v78.454h-8.774l-2.581 4.129h6.194V422.3h26.323v9.806h12.387V422.3h27.356v-3.613h-16v-21.678h6.709v-9.291h-6.709v-39.227h14.968v-3.613H272.98Zm-66.582 77.938 3.613-14.968h22.71v-27.872h1.033v27.872h8.258l3.097 4.129h-6.194v53.678h17.033v-10.322h9.806v10.322h39.227l16.001 7.743v14.968h-5.162v69.679h5.162v13.936l-13.42 7.226h-17.033v-3.613h-67.098v-3.613l3.613-1.033v-11.355l-9.807-5.161v-36.13h-3.613v-35.098h13.42v-21.162h-20.646v-39.226Zm-101.68-137.81h-25.29v-26.84l-2.065-1.548v-1.549h53.162v2.065h-8.642v13.936h-17.165v13.936Zm169.811-16.517-1.549 1.549v28.387h-1.032v-16.516h-5.161v-1.032h3.097v-30.969h25.807v-16.517h4.129v30.969l3.097 2.581v2.58h-5.678l-1.032-1.032h-21.678ZM516.6 563.722v10.323h10.322v-10.323H516.6Zm41.291 0h-10.323v10.323h10.323v-10.323Zm30.968 0h-10.322v10.323h10.322v-10.323ZM424.726 440.881v17.032h-11.871v-2.58h-21.678v2.58h-13.42l-2.58 2.065v-38.195h-19.614v-3.613h14.968v-47.485h-9.806v-22.194h-5.162v-4.129h32.001v23.226h153.294V233.392h.516v-4.13h-.516v-5.161h-11.871v-2.065h-4.129l-2.065-3.613v-59.356h-1.032v-2.581l17.033-14.968.516 1.032h3.097v-1.032h22.71l1.032 2.065h23.227l4.129-2.065h14.968l14.452 14.968v13.936h9.807v16.517h-4.13v35.097h-2.064v34.582h6.194v114.583l-6.194 5.162h-60.389v16H546.02v48.518h-4.129v22.194h-8.775v-20.646h-36.13l-1.548 1.548h-8.259v-3.096h-62.453Zm71.744 122.841h2.581v10.323h-2.581v9.291h-23.743V555.98h8.775v-33.033h-17.033v-25.291h21.678v-21.162h10.323v21.162h36.13l1.032-1.548h7.742l2.065 1.548h48.001v-76.905h71.744v15.484h-62.453v94.971l-23.227-.001v-3.613h-21.678v3.613h-8.258v-3.613H525.89v3.613h-29.42v32.517Z" clip-rule="evenodd"/><mask id="a" width="239" height="238" x="170" y="85" maskUnits="userSpaceOnUse" style="mask-type:alpha"><path fill="#343F57" d="m276.217 320.07 129.815-129.715 2.636 2.633-129.815 129.716zm-5.27-5.268 129.815-129.715 2.636 2.633-129.815 129.716zm-5.273-5.268 129.815-129.715 2.636 2.633L268.31 312.168zm-5.272-5.267 129.815-129.715 2.636 2.633-129.815 129.716zm-5.271-5.269 129.815-129.715 2.636 2.633-129.815 129.716zm-5.272-5.267 129.815-129.715 2.636 2.633-129.815 129.716zm-5.271-5.268 129.815-129.715 2.636 2.633-129.815 129.716zm-5.272-5.267 129.815-129.715 2.636 2.633L241.952 285.83zm-5.271-5.268L363.86 148.213l2.636 2.633-129.815 129.716zm-5.272-5.267 129.815-129.715 2.636 2.633L231.41 275.295zm-5.271-5.269 129.815-129.715 2.636 2.633-129.815 129.716zm-5.273-5.266 129.815-129.715 2.636 2.633L220.865 264.76zm-5.272-5.269 129.815-129.715 2.636 2.633-129.815 129.716zm-5.271-5.267 129.815-129.715 2.636 2.633-129.815 129.716zm-5.272-5.268 129.815-129.715 2.636 2.633L205.05 248.956zm-5.271-5.268 129.815-129.715 2.636 2.633L199.78 243.688zm-5.272-5.267 129.815-129.715 2.636 2.633-129.815 129.716zm-5.271-5.267 129.815-129.715 2.636 2.633-129.815 129.716zm-5.272-5.268L311.143 95.537l2.636 2.633-129.815 129.716zm-5.271-5.268L305.872 90.269l2.636 2.633-129.815 129.716zm-5.272-5.268L300.6 85.001l2.636 2.633L173.421 217.35z"/></mask><g mask="url(#a)"><path fill="#181B21" d="M279.998 129h12v25h8v115.5h-3l-1-1h-16V129Z"/></g><mask id="b" width="689" height="587" x="9" y="61" maskUnits="userSpaceOnUse" style="mask-type:alpha"><path fill="#181B21" fill-rule="evenodd" d="M20.07 118.808h35.1l7.742-44.904 45.42-4.13v-3.096h25.807V79.58h8.259V69.258h20.645v-3.613h3.613v-2.064h9.807v2.064h28.904v16h3.097V74.42h81.55V109h2.065v-3.097h78.97l2.58-7.742V61h57.808v4.13h4.645l1.033-1.55h37.678v5.678h2.065v-5.677h48.517V61h39.743v27.872h-8.258v6.193h66.066l21.162 5.162v24.259h5.677v-2.065h31.485v73.292h11.355v28.904h4.645v22.194h-4.645v34.066h-4.645v7.226h-2.581v37.162h2.581v19.613h-2.581v37.162h2.581v38.195h-2.581v37.162H622.41v42.324h11.355v26.323h-5.678v3.613h5.678v34.065h-5.678v10.839h4.646v28.388l-4.646-.516v2.581h-51.098v-3.613h-1.548v6.194h-48.518v-6.194h-9.806v3.613h-19.098v-3.613h-4.645v3.613H453.63v-34.066h-14.968v36.647h-48.001l-4.645-8.775-7.226 3.613-2.581 5.162-54.195 27.355h-5.678l-9.29 4.645 4.129 8.259-105.809-34.582v-2.064h-11.355l-30.969-62.97h-46.969l-1.032-50.066h53.163V332.491h13.419l-2.58-4.129h-50.582v-7.226h-20.646v7.226H59.814v-71.228l1.548-2.065h-9.806v-32.517l7.742-5.161v-3.097l-1.549-1.032v-12.904l1.549-1.032v-3.613H15.942l-1.033-1.548-2.064-67.099H9.748v-2.064l8.775-8.259h1.548v2.065Zm121.81-22.71v6.193h63.486V97.13h3.097v7.226h49.549v5.678h-2.58v36.646l7.742 7.742h27.355v-30.453h1.033v4.129h41.291v1.033h-41.291v25.291h17.032l1.549 1.548h122.842v-43.356l-2.065-1.548-.516-18.065h1.548l-.516-5.678h3.613l1.032 1.549h39.227l-.516-6.194h2.065l.516 4.13h35.097v2.064h30.969v6.193h-51.614l-14.968 3.097v18.065l10.322 1.033 4.646 43.872h-13.936v12.903h13.936v10.323h-14.968v30.452l2.064 1.549v32.001l-30.452 14.968h-2.065l-1.548-1.549h-17.033l-1.032 1.549h-5.162v-1.033h-42.323v1.033h-30.969l-14.452-29.937v-14.452h2.065v-7.742h-1.032l-.517-52.13h-81.034v-10.323h-1.032l-1.032-29.936h-47.486v-15.484h-69.163v-7.226h7.226ZM83.04 133.26h16.517v4.129H87.169v12.387H83.04V133.26Zm65.034 0v16.516h-4.129v-12.387h-12.387v-4.129h16.516Zm55.743 18.581h8.259v11.355h-8.259v-11.355ZM83.04 202.423h16.517v-4.129H87.169v-12.388H83.04v16.517Zm65.034-16.517h-4.129v12.388h-12.387v4.129h16.516v-16.517Zm18.065 69.163h-23.226v2.065h5.161v13.42l10.323 19.613h14.452v-1.032h11.355v1.032h15.484v40.259l-3.097 1.032v1.033h19.614v14.452h15.484v14.452h12.388v-13.42h10.322v-9.291h-3.096v1.033h-3.097v-1.033h-4.129v-56.775h11.355v-1.032l-3.097-.517v-63.485h46.969v-6.194h.516v-7.226h-.516v-4.129h-60.905l-21.162-3.097h-13.936v58.84h-13.936v1.033h-23.226v-1.033Zm106.841 89.809v-15.484h-1.032v78.454h-8.774l-2.581 4.129h6.194V422.3h26.323v9.806h12.387V422.3h27.356v-3.613h-16v-21.678h6.709v-9.291h-6.709v-39.227h14.968v-3.613H272.98Zm-66.582 77.938 3.613-14.968h22.71v-27.872h1.033v27.872h8.258l3.097 4.129h-6.194v53.678h17.033v-10.322h9.806v10.322h39.227l16.001 7.743v14.968h-5.162v69.679h5.162v13.936l-13.42 7.226h-17.033v-3.613h-67.098v-3.613l3.613-1.033v-11.355l-9.807-5.161v-36.13h-3.613v-35.098h13.42v-21.162h-20.646v-39.226Zm-101.68-137.81h-25.29v-26.84l-2.065-1.548v-1.549h53.162v2.065h-8.642v13.936h-17.165v13.936Zm169.811-16.517-1.549 1.549v28.387h-1.032v-16.516h-5.161v-1.032h3.097v-30.969h25.807v-16.517h4.129v30.969l3.097 2.581v2.58h-5.678l-1.032-1.032h-21.678ZM516.6 563.722v10.323h10.322v-10.323H516.6Zm41.291 0h-10.323v10.323h10.323v-10.323Zm30.968 0h-10.322v10.323h10.322v-10.323ZM424.726 440.881v17.032h-11.871v-2.58h-21.678v2.58h-13.42l-2.58 2.065v-38.195h-19.614v-3.613h14.968v-47.485h-9.806v-22.194h-5.162v-4.129h32.001v23.226h153.294V233.392h.516v-4.13h-.516v-5.161h-11.871v-2.065h-4.129l-2.065-3.613v-59.356h-1.032v-2.581l17.033-14.968.516 1.032h3.097v-1.032h22.71l1.032 2.065h23.227l4.129-2.065h14.968l14.452 14.968v13.936h9.807v16.517h-4.13v35.097h-2.064v34.582h6.194v114.583l-6.194 5.162h-60.389v16H546.02v48.518h-4.129v22.194h-8.775v-20.646h-36.13l-1.548 1.548h-8.259v-3.096h-62.453Zm71.744 122.841h2.581v10.323h-2.581v9.291h-23.743V555.98h8.775v-33.033h-17.033v-25.291h21.678v-21.162h10.323v21.162h36.13l1.032-1.548h7.742l2.065 1.548h48.001v-76.905h71.744v15.484h-62.453v94.971l-23.227-.001v-3.613h-21.678v3.613h-8.258v-3.613H525.89v3.613h-29.42v32.517Z" clip-rule="evenodd" opacity=".8"/></mask><g mask="url(#b)"><path fill="#272A30" d="M578.535 497.656h12.904v-76.905h52.13v-9.807l-2.581-2.58H623.44v2.58h-1.549v-2.58H603.31v2.58h-2.065v-2.58h-20.129l-2.581 2.58v86.712Z"/><path fill="#272A30" d="m639.998 408.636 1.18-4.636h20.82v17h-19.119v-9.788l-2.881-2.576ZM60.014 305h4.64v23.2h-4.64zm22.984 14h24.747v9.28H82.998zm64 5h15v4h-15zm-17 0h15v4h-15zm-24-53h15v4h-15zm41.752-2 11.26 21.798-2.75 1.422-11.262-21.799zM44.846 151.841h7.226v17.549h-7.226zM57.94 99l9.058 2-1.941 10h-9.059l1.941-12Zm460.058 7.635 8.99-2.345 2.345 8.99-8.99 2.345z"/><path stroke="#272A30" d="M491.498 184.5V195l-14.5 7.5"/><path fill="#272A30" d="m522.127 95.039 9.29-.039.04 9.291-9.291.039zm34.73-28.877h7.226v18.581h-7.226zm-48.517-2.065h8.258v8.258h-8.258zm17.228.41 6.788-2.474 2.121 5.82-6.788 2.473zm-438.4 72.882h16.517v16.517H87.168zm41.291 0h16.517v16.517h-16.517zm0 36.13h14.452v7.226h-14.452z"/><path fill="#272A30" d="M126.395 179.713h17.549v18.581h-17.549zm-6.557 6.358 5.786-.345.738 12.365-5.786.345zm77.109 9.739 4.631-.371 1.05 13.11-4.631.371-1.05-13.11Zm102.871 4.548h12.387v12.387h-12.387zM243.998 282h11v13h-11z"/><path stroke="#272A30" d="M285.998 250v-9h-16v-24m10 51.5V317l17.5 7.5m-.5-56v32l17.5 7.5m18.5-179.5h71.5m-269.5-26h-27v-33m100.5 28h14.5v7m-137 1-18.5 12.5h-13.5"/><path fill="#272A30" d="M305.164 338h17.787v7.733h-17.787zm-32.166-4v-13h5v13zm189.922 24h13.42v10.323h-13.42zm-145.553 39.525h10.323v10.323h-10.323zm-1.033 93.937h6.194v24.775h-6.194zm0 36.13h6.194v24.775h-6.194z"/><circle cx="319.947" cy="521.915" r="3.613" fill="#272A30"/><path fill="#272A30" d="m335.705 552.64 15.315-8.53 8.53 15.314-15.315 8.53z"/><path fill="#272A30" d="M354.529 544.109h15.484v9.291h-15.484z"/><path fill="#272A30" d="m354.529 542.685 11.798-4.769 3.482 8.614-11.798 4.769zm36.512 11.565 15.69-5.16 4.193 12.749-15.69 5.16z"/><path fill="#272A30" d="m404.902 546.735 5.823-4.279 10.189 13.867-5.823 4.278zm-3.92 34.98 15.28-4.573 4.208 14.062-15.28 4.573z"/><path fill="#272A30" d="m389.48 594.625 13.758-6.481 6.002 12.741-13.758 6.481zm69.77-37.913 13.256 1.042-.964 12.275-13.257-1.042zM289.998 579h18v9h-18zm3.627 33.192 15.705-5.114 5.114 15.706-15.705 5.113z"/><path fill="#272A30" d="m304.98 622.478 13.273-1.98 1.98 13.273-13.273 1.98z"/><circle cx="536.727" cy="255.586" r="2.581" fill="#272A30"/><circle cx="532.598" cy="258.682" r="2.581" fill="#272A30"/><circle cx="492.312" cy="313.883" r="3.093" fill="#272A30"/><circle cx="537.76" cy="259.715" r="2.581" fill="#272A30"/><path fill="#272A30" d="M533.115 259.198h5.161v6.194h-5.161zm1.031 6.194h6.194v5.161h-6.194zm-38.193 39.364 9.108-8.395 8.395 9.108-9.108 8.395z"/><path fill="#272A30" d="m492.855 317.144 7.96-7.336 11.118 12.063-7.96 7.336z"/><path fill="#272A30" d="m487.992 325.815 7.663-7.063 7.064 7.663-7.664 7.063z"/><path fill="#272A30" d="M501.113 327.329H513.5v12.387h-12.387zM545.998 392h20v14h-20zm0 14h7v6h-7zm0 6h7v6h-7zm-86.129 85.656h4.646v14.452h-16.517v-11.24h11.871v-3.212ZM218.998 347h13v12h-13zm2.975 47.428 9.971 2.672-2.672 9.971-9.97-2.672zm30.205-65.215 1.738 1.115-5.015 7.82-1.738-1.114zm0 21.397 1.738 1.115-5.015 7.82-1.738-1.114zm10.451 22.14h9.317v18.581h-9.317V372.75ZM121.998 257h4.64v12.373h-4.64zm179 39h143v1h-143zm189.768 18.656v10.053h-1.547v-10.053z"/><path fill="#272A30" d="M300.998 289.135h9.291v7.226h-9.291zm-1-20.135h1v28h-1z"/><path fill="#272A30" d="m302.334 283.863 1.45-1.47 9.992 9.864-1.45 1.47z"/><circle cx="502.147" cy="491.462" r="4.129" fill="#272A30"/><circle cx="592.847" cy="559.806" r="3.093" fill="#272A30"/><path fill="#272A30" d="M424.998 441h12v17h-12zm12 0h9v11h-9zm-24 17h24v14h-24z"/><path fill="url(#c)" d="M391.392 477.01v-19.097h-13.636l-2.581 2.065v-28.904H363.82v45.936l4.129 4.13h19.314l4.129-4.13Z"/><circle cx="66.006" cy="80.097" r="3.613" fill="#272A30"/><path fill="#272A30" d="m66.941 100.988 11.375 2.378-1.297 6.204-11.375-2.377z"/><path fill="#272A30" d="m61.648 83.909 28.293 5.914-3.38 16.167-28.292-5.913z"/><circle cx="84.072" cy="87.839" r="3.097" fill="#272A30"/><path fill="#272A30" d="M124.33 67.194h9.291v3.097h-9.291zm67.098-1.032h4.129v4.129h-4.129zm9.129 0 4.757 3.967-3.968 4.757-4.756-3.967z"/><path fill="#272A30" fill-rule="evenodd" d="M199.859 290h-7.226v13.043a4.647 4.647 0 1 0 6.656 4.189 4.64 4.64 0 0 0-1.991-3.812h2.561V290Z" clip-rule="evenodd"/><path fill="#272A30" d="M161.492 290h7.226v16.517h-7.226zM50.998 223h6v7h-6zm204-113h3.097v13.42h-3.097z"/><path fill="#272A30" fill-rule="evenodd" d="M290.529 133.26h-6.194v14.452h-18.581v7.226h24.775V133.26Z" clip-rule="evenodd"/><path fill="#272A30" d="M281.998 74h8v29h-8z"/><path fill="#272A30" d="m278.146 72.108 7.964 3.864-3.532 7.279-7.964-3.865z"/><path fill="url(#d)" d="M530.998 113V95h66v21.5h-62.5l-3.5-3.5Z"/><circle cx="688.474" cy="199.842" r="3.613" fill="#272A30"/><circle cx="629.193" cy="253.562" r="2.32" fill="#272A30"/><circle cx="631.127" cy="250.082" r="1.933" fill="#272A30"/><path stroke="#272A30" d="M331.498 348.5V387m24.5-38.5V387m31.5-42.5h88.5m27 114.5h32"/><path fill="#272A30" d="M525.998 527h21.55v8h-21.55zm.984 73.02h48.411v7.5h-48.411zm23.33-1.547h4.64v1.547h-4.64zM555.998 527h21.398v8h-21.398z"/><path fill="#272A30" fill-opacity=".5" stroke="#272A30" d="M449.931 511h15.467v10.179h17.6v6.964h-7.467v12.321h7.467V557.5h-9.067v14h-30.933v-49.786h6.933V511Z"/><path fill="#272A30" d="M661.998 288h1v133h-1V288Z"/><path stroke="#272A30" d="M632.998 186.5h19.5V142m-484.5 266h10v-19"/></g><g class="labels"><mask id="e" width="689" height="587" x="9" y="61" maskUnits="userSpaceOnUse" style="mask-type:alpha"><path fill="#181B21" fill-rule="evenodd" d="M20.07 118.808h35.1l7.742-44.904 45.42-4.13v-3.096h25.807V79.58h8.259V69.258h20.645v-3.613h3.613v-2.064h9.807v2.064h28.904v16h3.097V74.42h81.55V109h2.065v-3.097h78.97l2.58-7.742V61h57.808v4.13h4.645l1.033-1.55h37.678v5.678h2.065v-5.677h48.517V61h39.743v27.872h-8.258v6.193h66.066l21.162 5.162v24.259h5.677v-2.065h31.485v73.292h11.355v28.904h4.645v22.194h-4.645v34.066h-4.645v7.226h-2.581v37.162h2.581v19.613h-2.581v37.162h2.581v38.195h-2.581v37.162H622.41v42.324h11.355v26.323h-5.678v3.613h5.678v34.065h-5.678v10.839h4.646v28.388l-4.646-.516v2.581h-51.098v-3.613h-1.548v6.194h-48.518v-6.194h-9.806v3.613h-19.098v-3.613h-4.645v3.613H453.63v-34.066h-14.968v36.647h-48.001l-4.645-8.775-7.226 3.613-2.581 5.162-54.195 27.355h-5.678l-9.29 4.645 4.129 8.259-105.809-34.582v-2.064h-11.355l-30.969-62.97h-46.969l-1.032-50.066h53.163V332.491h13.419l-2.58-4.129h-50.582v-7.226h-20.646v7.226H59.814v-71.228l1.548-2.065h-9.806v-32.517l7.742-5.161v-3.097l-1.549-1.032v-12.904l1.549-1.032v-3.613H15.942l-1.033-1.548-2.064-67.099H9.748v-2.064l8.775-8.259h1.548v2.065Zm121.81-22.71v6.193h63.486V97.13h3.097v7.226h49.549v5.678h-2.58v36.646l7.742 7.742h27.355v-30.453h1.033v4.129h41.291v1.033h-41.291v25.291h17.032l1.549 1.548h122.842v-43.356l-2.065-1.548-.516-18.065h1.548l-.516-5.678h3.613l1.032 1.549h39.227l-.516-6.194h2.065l.516 4.13h35.097v2.064h30.969v6.193h-51.614l-14.968 3.097v18.065l10.322 1.033 4.646 43.872h-13.936v12.903h13.936v10.323h-14.968v30.452l2.064 1.549v32.001l-30.452 14.968h-2.065l-1.548-1.549h-17.033l-1.032 1.549h-5.162v-1.033h-42.323v1.033h-30.969l-14.452-29.937v-14.452h2.065v-7.742h-1.032l-.517-52.13h-81.034v-10.323h-1.032l-1.032-29.936h-47.486v-15.484h-69.163v-7.226h7.226ZM83.04 133.26h16.517v4.129H87.169v12.387H83.04V133.26Zm65.034 0v16.516h-4.129v-12.387h-12.387v-4.129h16.516Zm55.743 18.581h8.259v11.355h-8.259v-11.355ZM83.04 202.423h16.517v-4.129H87.169v-12.388H83.04v16.517Zm65.034-16.517h-4.129v12.388h-12.387v4.129h16.516v-16.517Zm18.065 69.163h-23.226v2.065h5.161v13.42l10.323 19.613h14.452v-1.032h11.355v1.032h15.484v40.259l-3.097 1.032v1.033h19.614v14.452h15.484v14.452h12.388v-13.42h10.322v-9.291h-3.096v1.033h-3.097v-1.033h-4.129v-56.775h11.355v-1.032l-3.097-.517v-63.485h46.969v-6.194h.516v-7.226h-.516v-4.129h-60.905l-21.162-3.097h-13.936v58.84h-13.936v1.033h-23.226v-1.033Zm106.841 89.809v-15.484h-1.032v78.454h-8.774l-2.581 4.129h6.194V422.3h26.323v9.806h12.387V422.3h27.356v-3.613h-16v-21.678h6.709v-9.291h-6.709v-39.227h14.968v-3.613H272.98Zm-66.582 77.938 3.613-14.968h22.71v-27.872h1.033v27.872h8.258l3.097 4.129h-6.194v53.678h17.033v-10.322h9.806v10.322h39.227l16.001 7.743v14.968h-5.162v69.679h5.162v13.936l-13.42 7.226h-17.033v-3.613h-67.098v-3.613l3.613-1.033v-11.355l-9.807-5.161v-36.13h-3.613v-35.098h13.42v-21.162h-20.646v-39.226Zm-101.68-137.81h-25.29v-26.84l-2.065-1.548v-1.549h53.162v2.065h-8.642v13.936h-17.165v13.936Zm169.811-16.517-1.549 1.549v28.387h-1.032v-16.516h-5.161v-1.032h3.097v-30.969h25.807v-16.517h4.129v30.969l3.097 2.581v2.58h-5.678l-1.032-1.032h-21.678ZM516.6 563.722v10.323h10.322v-10.323H516.6Zm41.291 0h-10.323v10.323h10.323v-10.323Zm30.968 0h-10.322v10.323h10.322v-10.323ZM424.726 440.881v17.032h-11.871v-2.58h-21.678v2.58h-13.42l-2.58 2.065v-38.195h-19.614v-3.613h14.968v-47.485h-9.806v-22.194h-5.162v-4.129h32.001v23.226h153.294V233.392h.516v-4.13h-.516v-5.161h-11.871v-2.065h-4.129l-2.065-3.613v-59.356h-1.032v-2.581l17.033-14.968.516 1.032h3.097v-1.032h22.71l1.032 2.065h23.227l4.129-2.065h14.968l14.452 14.968v13.936h9.807v16.517h-4.13v35.097h-2.064v34.582h6.194v114.583l-6.194 5.162h-60.389v16H546.02v48.518h-4.129v22.194h-8.775v-20.646h-36.13l-1.548 1.548h-8.259v-3.096h-62.453Zm71.744 122.841h2.581v10.323h-2.581v9.291h-23.743V555.98h8.775v-33.033h-17.033v-25.291h21.678v-21.162h10.323v21.162h36.13l1.032-1.548h7.742l2.065 1.548h48.001v-76.905h71.744v15.484h-62.453v94.971l-23.227-.001v-3.613h-21.678v3.613h-8.258v-3.613H525.89v3.613h-29.42v32.517Z" clip-rule="evenodd" opacity=".8"/></mask><g mask="url(#e)"><rect width="59" height="64" x="85.998" y="136" stroke="#999CA2" stroke-opacity=".25" stroke-width="1.6" rx="2"/></g><mask id="g" width="61" height="66" x="85" y="135" maskUnits="userSpaceOnUse" style="mask-type:alpha"><mask id="f" width="689" height="587" x="9" y="61" maskUnits="userSpaceOnUse" style="mask-type:alpha"><path fill="#181B21" fill-rule="evenodd" d="M20.07 118.808h35.1l7.742-44.904 45.42-4.13v-3.096h25.807V79.58h8.259V69.258h20.645v-3.613h3.613v-2.064h9.807v2.064h28.904v16h3.097V74.42h81.55V109h2.065v-3.097h78.97l2.58-7.742V61h57.808v4.13h4.645l1.033-1.55h37.678v5.678h2.065v-5.677h48.517V61h39.743v27.87h-8.258v6.195h66.066l21.162 5.161v24.259h5.677v-2.065h31.485v73.292h11.355v28.904h4.645v22.194h-4.645v34.066h-4.645v7.226h-2.581v37.162h2.581v19.613h-2.581v37.162h2.581v38.195h-2.581v37.162H622.41v42.324h11.355v26.323h-5.678v3.613h5.678v34.066h-5.678v10.838h4.646v28.388l-4.646-.516v2.581h-51.098V601.4h-1.548v6.194h-48.518V601.4h-9.806v3.613h-19.098V601.4h-4.645v3.613H453.63v-34.066h-14.968v36.647h-48.001l-4.645-8.775-7.226 3.613-2.581 5.162-54.195 27.355h-5.678l-9.29 4.645 4.129 8.259-105.809-34.582v-2.064h-11.355l-30.969-62.97h-46.969l-1.032-50.066h53.163v-165.68h13.419l-2.58-4.129h-50.582v-7.226h-20.646v7.226H59.814v-71.228l1.548-2.064h-9.806v-32.517l7.742-5.162v-3.097l-1.549-1.032v-12.904l1.549-1.032v-3.613H15.942l-1.033-1.548-2.064-67.099H9.748v-2.064l8.775-8.259h1.548v2.065Zm121.81-22.71v6.193h63.486V97.13h3.097v7.226h49.549v5.678h-2.58v36.646l7.742 7.742h27.355v-30.453h1.033v4.13h41.291v1.032h-41.291v25.291h17.032l1.549 1.548h122.842v-43.356l-2.065-1.548-.516-18.065h1.548l-.516-5.678h3.613l1.032 1.549h39.227l-.516-6.194h2.065l.516 4.13h35.097v2.064h30.969v6.194h-51.614l-14.968 3.096v18.065l10.322 1.033 4.646 43.872h-13.936v12.903h13.936v10.323h-14.968v30.452l2.064 1.549v32.001l-30.452 14.968h-2.065l-1.548-1.549h-17.033l-1.032 1.549h-5.162v-1.032h-42.323v1.032h-30.969l-14.452-29.936V218.94h2.065v-7.743h-1.032l-.517-52.13h-81.034v-10.323h-1.032l-1.032-29.936h-47.486v-15.484h-69.163v-7.226h7.226ZM83.04 133.26h16.517v4.129H87.169v12.388H83.04V133.26Zm65.034 0v16.517h-4.129v-12.388h-12.387v-4.129h16.516Zm55.743 18.581h8.259v11.355h-8.259v-11.355ZM83.04 202.423h16.517v-4.129H87.169v-12.388H83.04v16.517Zm65.034-16.517h-4.129v12.388h-12.387v4.129h16.516v-16.517Zm18.065 69.164h-23.226v2.064h5.161v13.42l10.323 19.613h14.452v-1.032h11.355v1.032h15.484v40.259l-3.097 1.033v1.032h19.614v14.452h15.484v14.452h12.388v-13.42h10.322v-9.29h-3.096v1.032h-3.097v-1.032h-4.129v-56.776h11.355v-1.032l-3.097-.517v-63.485h46.969v-6.194h.516v-7.226h-.516v-4.129h-60.905l-21.162-3.097h-13.936v58.841h-13.936v1.032h-23.226v-1.032Zm106.841 89.808v-15.484h-1.032v78.454h-8.774l-2.581 4.129h6.194V422.3h26.323v9.806h12.387V422.3h27.356v-3.613h-16v-21.678h6.709v-9.291h-6.709v-39.227h14.968v-3.613H272.98Zm-66.582 77.938 3.613-14.968h22.71v-27.872h1.033v27.872h8.258l3.097 4.129h-6.194v53.678h17.033v-10.322h9.806v10.322h39.227l16.001 7.743v14.968h-5.162v69.679h5.162v13.936l-13.42 7.226h-17.033v-3.613h-67.098v-3.613l3.613-1.033v-11.355l-9.807-5.161v-36.13h-3.613v-35.098h13.42v-21.162h-20.646v-39.226Zm-101.68-137.81h-25.29v-26.84l-2.065-1.548v-1.548h53.162v2.064h-8.642v13.936h-17.165v13.936Zm169.811-16.517-1.549 1.549v28.387h-1.032v-16.516h-5.161v-1.032h3.097v-30.969h25.807v-16.516h4.129v30.968l3.097 2.581v2.58h-5.678l-1.032-1.032h-21.678ZM516.6 563.723v10.322h10.322v-10.322H516.6Zm41.291 0h-10.323v10.322h10.323v-10.322Zm30.968 0h-10.322v10.322h10.322v-10.322ZM424.726 440.881v17.032h-11.871v-2.58h-21.678v2.58h-13.42l-2.58 2.065v-38.195h-19.614v-3.613h14.968v-47.485h-9.806v-22.194h-5.162v-4.129h32.001v23.227h153.294V233.392h.516v-4.13h-.516v-5.161h-11.871v-2.065h-4.129l-2.065-3.613v-59.356h-1.032v-2.581l17.033-14.968.516 1.033h3.097v-1.033h22.71l1.032 2.065h23.227l4.129-2.065h14.968l14.452 14.968v13.936h9.807v16.517h-4.13v35.097h-2.064v34.582h6.194v114.584l-6.194 5.161h-60.389v16H546.02v48.518h-4.129v22.194h-8.775v-20.646h-36.13l-1.548 1.549h-8.259v-3.097h-62.453Zm71.744 122.842h2.581v10.322h-2.581v9.291h-23.743V555.98h8.775v-33.033h-17.033v-25.291h21.678v-21.162h10.323v21.162h36.13l1.032-1.548h7.742l2.065 1.548h48.001v-76.905h71.744v15.484h-62.453v94.971h-23.227v-3.613h-21.678v3.613h-8.258v-3.613H525.89v3.613h-29.42v32.517Z" clip-rule="evenodd" opacity=".8"/></mask><g mask="url(#f)"><rect width="59" height="64" x="85.998" y="136" fill="#C4C4C4" stroke="#999CA2" stroke-opacity=".25" stroke-width="1.6" rx="2"/></g></mask><g fill="#999CA2" fill-opacity=".15" mask="url(#g)"><path d="m115.725 252.533 88.665-88.596 1.8 1.798-88.665 88.597zm-10.813 3.598 88.665-88.596 1.8 1.798-88.665 88.597zm-3.6-3.598 88.665-88.596 1.8 1.798-88.665 88.597zm-3.602-3.598 88.665-88.596 1.8 1.798-88.664 88.597zm-3.599-3.597 88.665-88.596 1.8 1.798-88.665 88.597zm-3.601-3.598 88.665-88.596 1.8 1.798L92.31 243.54zm-3.6-3.598 88.665-88.596 1.8 1.798-88.665 88.597zm-3.601-3.598 88.664-88.596 1.8 1.798-88.664 88.597zm-3.6-3.598 88.665-88.596 1.8 1.798-88.665 88.597zm-3.602-3.597 88.665-88.596 1.8 1.798-88.665 88.597zm-3.599-3.598 88.664-88.596 1.8 1.798-88.664 88.597zm-3.602-3.598 88.665-88.596 1.8 1.798-88.665 88.597zm-3.599-3.598 88.664-88.596 1.8 1.798-88.664 88.597zm-3.602-3.598 88.665-88.596 1.8 1.798-88.665 88.597zm-3.6-3.598 88.665-88.596 1.8 1.798-88.664 88.597zm-3.601-3.598 88.665-88.596 1.8 1.798-88.665 88.597zm-3.6-3.597 88.665-88.596 1.8 1.798-88.665 88.597zm-3.601-3.598 88.664-88.596 1.8 1.798-88.664 88.597zm-3.602-3.598 88.665-88.596 1.8 1.798L45.5 196.767zm-3.599-3.598 88.664-88.596 1.8 1.798-88.664 88.597zm-3.6-3.598 88.665-88.596 1.8 1.798-88.665 88.597zm-3.602-3.598 88.665-88.596 1.8 1.798L34.7 185.973z"/></g><path fill="#E3E5EA" d="M110.869 173h4.971c2.614 0 4.006-1.364 4.006-3.216 0-1.721-1.233-2.761-2.557-2.824v-.113c1.21-.273 2.103-1.131 2.103-2.5 0-1.745-1.296-2.983-3.864-2.983h-4.659V173Zm2.46-2.011v-3.091h2.063c1.181 0 1.914.682 1.914 1.642 0 .875-.596 1.449-1.971 1.449h-2.006Zm0-4.756v-2.881h1.869c1.091 0 1.711.563 1.711 1.404 0 .92-.75 1.477-1.756 1.477h-1.824Z"/><rect width="59.547" height="44.081" x="350.018" y="550.526" stroke="#999CA2" stroke-opacity=".25" stroke-width="1.6" rx="2"/><mask id="h" width="62" height="47" x="349" y="549" maskUnits="userSpaceOnUse" style="mask-type:alpha"><rect width="59.547" height="44.081" x="350.018" y="550.525" fill="#C4C4C4" stroke="#999CA2" stroke-opacity=".25" stroke-width="1.6" rx="2"/></mask><g fill="#999CA2" fill-opacity=".15" mask="url(#h)"><path d="m384.725 642.535 88.665-88.596 1.8 1.798-88.665 88.597zm-10.813 3.598 88.665-88.596 1.8 1.798-88.665 88.597zm-3.6-3.598 88.665-88.596 1.8 1.798-88.665 88.597zm-3.601-3.598 88.665-88.596 1.8 1.798-88.665 88.597zm-3.6-3.598 88.665-88.596 1.8 1.798-88.665 88.597zm-3.601-3.598 88.665-88.596 1.8 1.798-88.665 88.597zm-3.6-3.598 88.665-88.596 1.8 1.798-88.665 88.597zm-3.601-3.597 88.665-88.596 1.8 1.798-88.665 88.597zm-3.6-3.598 88.665-88.596 1.8 1.798-88.665 88.597zm-3.602-3.598 88.665-88.596 1.8 1.798-88.665 88.597zm-3.599-3.598 88.665-88.596 1.8 1.798-88.665 88.597zm-3.602-3.598 88.665-88.596 1.8 1.798-88.665 88.597zm-3.599-3.597 88.665-88.596 1.8 1.798-88.665 88.597zm-3.602-3.598 88.665-88.596 1.8 1.798-88.665 88.597zm-3.6-3.598 88.665-88.596 1.8 1.798-88.665 88.597zm-3.601-3.598 88.665-88.596 1.8 1.798-88.665 88.597zm-3.6-3.598 88.665-88.596 1.8 1.798-88.665 88.597zm-3.601-3.598 88.665-88.596 1.8 1.798-88.665 88.597zm-3.602-3.597 88.665-88.596 1.8 1.798L314.5 586.77zm-3.599-3.598 88.665-88.596 1.8 1.798-88.665 88.597zm-3.6-3.598 88.665-88.596 1.8 1.798-88.665 88.597zm-3.602-3.598 88.665-88.596 1.8 1.798-88.665 88.597z"/></g><path fill="#E3E5EA" d="m377.179 578 .864-2.653h4.199l.863 2.653h2.637l-4.012-11.636h-3.17L374.543 578h2.636Zm1.489-4.574 1.432-4.403h.091l1.431 4.403h-2.954Z"/><path fill="#7F838B" d="M380.943 317.455V324h1.343v-4.276h.054l1.694 4.244h.914l1.694-4.228h.054V324h1.343v-6.545h-1.707l-1.803 4.397h-.076l-1.803-4.397h-1.707Zm8.129 6.545h1.362v-4.909h-1.362V324Zm.684-5.542c.406 0 .738-.31.738-.69 0-.377-.332-.687-.738-.687-.403 0-.735.31-.735.687 0 .38.332.69.735.69Zm3.496 5.622c.793 0 1.205-.457 1.394-.866h.057V324h1.343v-6.545h-1.359v2.46h-.041c-.182-.399-.576-.888-1.397-.888-1.077 0-1.988.837-1.988 2.525 0 1.643.873 2.528 1.991 2.528Zm.432-1.084c-.668 0-1.033-.594-1.033-1.451 0-.85.358-1.435 1.033-1.435.661 0 1.032.56 1.032 1.435 0 .876-.377 1.451-1.032 1.451ZM280.958 341h2.797c1.47 0 2.253-.767 2.253-1.809 0-.968-.693-1.553-1.438-1.588v-.064c.681-.154 1.182-.636 1.182-1.407 0-.981-.728-1.677-2.173-1.677h-2.621V341Zm1.384-1.131v-1.739h1.16c.665 0 1.078.383 1.078.924 0 .492-.336.815-1.109.815h-1.129Zm0-2.675v-1.621h1.052c.613 0 .962.317.962.79 0 .517-.422.831-.988.831h-1.026Zm6.678 3.902c1.489 0 2.416-1.02 2.416-2.531 0-1.522-.927-2.538-2.416-2.538-1.489 0-2.416 1.016-2.416 2.538 0 1.511.927 2.531 2.416 2.531Zm.006-1.055c-.687 0-1.038-.629-1.038-1.486 0-.856.351-1.489 1.038-1.489.675 0 1.026.633 1.026 1.489 0 .857-.351 1.486-1.026 1.486Zm5.433 1.055c1.489 0 2.416-1.02 2.416-2.531 0-1.522-.927-2.538-2.416-2.538-1.49 0-2.417 1.016-2.417 2.538 0 1.511.927 2.531 2.417 2.531Zm.006-1.055c-.687 0-1.039-.629-1.039-1.486 0-.856.352-1.489 1.039-1.489.674 0 1.026.633 1.026 1.489 0 .857-.352 1.486-1.026 1.486Zm7.299-2.55c-.122-.905-.851-1.464-2.091-1.464-1.256 0-2.083.582-2.08 1.528-.003.735.46 1.211 1.419 1.403l.85.169c.428.086.623.243.63.489-.007.291-.323.499-.799.499-.486 0-.809-.208-.892-.608l-1.339.071c.128.939.927 1.518 2.227 1.518 1.272 0 2.183-.649 2.186-1.617-.003-.71-.466-1.135-1.419-1.33l-.888-.179c-.457-.099-.626-.256-.623-.492-.003-.294.329-.486.751-.486.473 0 .754.259.821.575l1.247-.076Zm3.499-1.4h-.924v-1.176h-1.361v1.176h-.671v1.023h.671v2.556c-.007.962.649 1.439 1.636 1.397.352-.013.601-.083.738-.128l-.214-1.013c-.067.013-.211.045-.338.045-.272 0-.461-.102-.461-.48v-2.377h.924v-1.023ZM244.168 314h1.349l1.243-4.279h.051l1.247 4.279h1.348l1.873-6.545h-1.511l-1.084 4.557h-.057l-1.193-4.557h-1.294l-1.195 4.547h-.055l-1.083-4.547h-1.512l1.873 6.545Zm7.745 0h1.362v-4.909h-1.362V314Zm.684-5.542c.406 0 .739-.31.739-.69 0-.377-.333-.687-.739-.687-.402 0-.735.31-.735.687 0 .38.333.69.735.69Zm3.049 2.704c.003-.633.38-1.004.93-1.004.547 0 .876.358.873.959V314h1.361v-3.126c0-1.144-.671-1.847-1.694-1.847-.729 0-1.256.358-1.476.93h-.058v-.866h-1.297V314h1.361v-2.838Zm5.965 2.918c.793 0 1.205-.457 1.394-.866h.057V314h1.342v-6.545h-1.358v2.46h-.041c-.183-.399-.576-.888-1.397-.888-1.077 0-1.988.837-1.988 2.525 0 1.643.872 2.528 1.991 2.528Zm.432-1.084c-.668 0-1.033-.594-1.033-1.451 0-.85.358-1.435 1.033-1.435.661 0 1.032.56 1.032 1.435 0 .876-.377 1.451-1.032 1.451Zm5.618 1.1c1.489 0 2.416-1.02 2.416-2.531 0-1.522-.927-2.538-2.416-2.538-1.489 0-2.416 1.016-2.416 2.538 0 1.511.927 2.531 2.416 2.531Zm.006-1.055c-.687 0-1.038-.629-1.038-1.486 0-.856.351-1.489 1.038-1.489.675 0 1.026.633 1.026 1.489 0 .857-.351 1.486-1.026 1.486Zm4.06.959h1.438l.844-3.087h.06l.844 3.087h1.442l1.332-4.909h-1.374l-.748 3.279h-.041l-.806-3.279h-1.352l-.792 3.298h-.045l-.761-3.298h-1.377l1.336 4.909Zm-25.874-64h4.19v-1.141h-2.806v-5.404h-1.384V250Zm6.4.093c.726 0 1.195-.317 1.435-.774h.039V250h1.291v-3.311c0-1.17-.991-1.662-2.084-1.662-1.176 0-1.95.562-2.138 1.457l1.259.103c.093-.326.384-.566.873-.566.463 0 .728.233.728.636v.019c0 .317-.335.358-1.189.441-.971.09-1.844.416-1.844 1.512 0 .971.694 1.464 1.63 1.464Zm.39-.94c-.419 0-.719-.195-.719-.569 0-.383.316-.572.796-.639.297-.042.783-.112.946-.221v.521c0 .515-.425.908-1.023.908Zm5.159.927c.793 0 1.205-.457 1.393-.866h.058V250h1.342v-6.545h-1.358v2.46h-.042c-.182-.399-.575-.888-1.396-.888-1.077 0-1.988.837-1.988 2.525 0 1.643.872 2.528 1.991 2.528Zm.431-1.084c-.668 0-1.032-.594-1.032-1.451 0-.85.358-1.435 1.032-1.435.662 0 1.033.56 1.033 1.435 0 .876-.377 1.451-1.033 1.451Zm5.21 1.084c.792 0 1.205-.457 1.393-.866h.058V250h1.342v-6.545h-1.358v2.46h-.042c-.182-.399-.575-.888-1.397-.888-1.077 0-1.987.837-1.987 2.525 0 1.643.872 2.528 1.991 2.528Zm.431-1.084c-.668 0-1.032-.594-1.032-1.451 0-.85.358-1.435 1.032-1.435.662 0 1.032.56 1.032 1.435 0 .876-.377 1.451-1.032 1.451Zm5.638 1.1c1.214 0 2.032-.591 2.224-1.502l-1.259-.083c-.138.374-.489.569-.943.569-.681 0-1.112-.451-1.112-1.183v-.003h3.343v-.374c0-1.668-1.01-2.493-2.308-2.493-1.444 0-2.381 1.026-2.381 2.541 0 1.556.924 2.528 2.436 2.528Zm-1.09-3.046a1.038 1.038 0 0 1 1.058-1.007c.591 0 1 .422 1.003 1.007h-2.061Zm4.15 2.95h1.362v-2.777c0-.604.441-1.02 1.042-1.02.188 0 .447.032.575.074v-1.208a2.025 2.025 0 0 0-.428-.048c-.55 0-1.001.319-1.18.926h-.051v-.856h-1.32V250Zm-23.921 12h1.384v-2.32h1.01l1.24 2.32h1.527l-1.39-2.544c.745-.32 1.157-.968 1.157-1.863 0-1.301-.86-2.138-2.346-2.138h-2.582V262Zm1.384-3.433v-1.981h.933c.799 0 1.186.355 1.186 1.007 0 .648-.387.974-1.18.974h-.939Zm6.554 3.529c1.49 0 2.417-1.02 2.417-2.531 0-1.522-.927-2.538-2.417-2.538-1.489 0-2.416 1.016-2.416 2.538 0 1.511.927 2.531 2.416 2.531Zm.007-1.055c-.687 0-1.039-.629-1.039-1.486 0-.856.352-1.489 1.039-1.489.674 0 1.026.633 1.026 1.489 0 .857-.352 1.486-1.026 1.486Zm5.432 1.055c1.489 0 2.416-1.02 2.416-2.531 0-1.522-.927-2.538-2.416-2.538-1.489 0-2.416 1.016-2.416 2.538 0 1.511.927 2.531 2.416 2.531Zm.006-1.055c-.687 0-1.038-.629-1.038-1.486 0-.856.351-1.489 1.038-1.489.675 0 1.026.633 1.026 1.489 0 .857-.351 1.486-1.026 1.486Zm3.214.959h1.362v-2.947c0-.543.345-.904.799-.904.447 0 .748.307.748.789V262h1.32v-2.998c0-.508.291-.853.786-.853.435 0 .761.271.761.818V262h1.358v-3.301c0-1.065-.633-1.672-1.547-1.672-.719 0-1.278.368-1.48.93h-.051c-.156-.569-.658-.93-1.333-.93-.661 0-1.163.352-1.367.93h-.058v-.866h-1.298V262Zm5.701-57.545v4.132c0 .748-.525 1.288-1.33 1.288-.802 0-1.33-.54-1.33-1.288v-4.132h-1.383v4.25c0 1.432 1.08 2.388 2.713 2.388 1.627 0 2.713-.956 2.713-2.388v-4.25h-1.383Zm3.777 3.707c.003-.633.38-1.004.93-1.004.547 0 .876.358.873.959V211h1.361v-3.126c0-1.144-.671-1.847-1.694-1.847-.729 0-1.256.358-1.476.93h-.058v-.866h-1.298V211h1.362v-2.838Zm5.965 2.918c.793 0 1.205-.457 1.393-.866h.058V211h1.342v-6.545h-1.358v2.46h-.042c-.182-.399-.575-.888-1.396-.888-1.077 0-1.988.837-1.988 2.525 0 1.643.872 2.528 1.991 2.528Zm.431-1.084c-.667 0-1.032-.594-1.032-1.451 0-.85.358-1.435 1.032-1.435.662 0 1.033.56 1.033 1.435 0 .876-.377 1.451-1.033 1.451Zm5.638 1.1c1.214 0 2.033-.591 2.224-1.502l-1.259-.083c-.137.374-.489.569-.943.569-.68 0-1.112-.451-1.112-1.183v-.003h3.343v-.374c0-1.668-1.01-2.493-2.307-2.493-1.445 0-2.381 1.026-2.381 2.541 0 1.556.923 2.528 2.435 2.528Zm-1.09-3.046a1.038 1.038 0 0 1 1.058-1.007c.591 0 1 .422 1.004 1.007h-2.062Zm4.151 2.95h1.361v-2.777c0-.604.441-1.02 1.042-1.02.189 0 .448.032.575.074v-1.208a2.018 2.018 0 0 0-.428-.048c-.55 0-1 .319-1.179.926h-.051v-.856h-1.32V211Zm3.601 1.841h1.362v-2.627h.041c.189.409.601.866 1.394.866 1.118 0 1.991-.885 1.991-2.528 0-1.688-.911-2.525-1.988-2.525-.821 0-1.214.489-1.397.888h-.06v-.824h-1.343v6.75Zm1.333-4.296c0-.875.371-1.435 1.032-1.435.675 0 1.033.585 1.033 1.435 0 .857-.365 1.451-1.033 1.451-.655 0-1.032-.575-1.032-1.451Zm5.681 2.548c.726 0 1.196-.317 1.435-.774h.039V211h1.291v-3.311c0-1.17-.991-1.662-2.084-1.662-1.176 0-1.949.562-2.138 1.457l1.259.103c.093-.326.384-.566.873-.566.463 0 .729.233.729.636v.019c0 .317-.336.358-1.189.441-.972.09-1.845.416-1.845 1.512 0 .971.694 1.464 1.63 1.464Zm.39-.94c-.418 0-.719-.195-.719-.569 0-.383.317-.572.796-.639.297-.042.783-.112.946-.221v.521c0 .515-.425.908-1.023.908Zm7.435-2.662c-.122-.905-.85-1.464-2.09-1.464-1.256 0-2.084.582-2.081 1.528-.003.735.46 1.211 1.419 1.403l.85.169c.428.086.623.243.63.489-.007.291-.323.499-.799.499-.486 0-.809-.208-.892-.608l-1.339.071c.128.939.927 1.518 2.228 1.518 1.272 0 2.182-.649 2.186-1.617-.004-.71-.467-1.135-1.419-1.33l-.889-.179c-.457-.099-.626-.256-.623-.492-.003-.294.329-.486.751-.486.473 0 .754.259.821.575l1.247-.076Zm4.973 0c-.122-.905-.851-1.464-2.091-1.464-1.256 0-2.083.582-2.08 1.528-.003.735.46 1.211 1.419 1.403l.85.169c.428.086.623.243.63.489-.007.291-.323.499-.799.499-.486 0-.809-.208-.892-.608l-1.339.071c.128.939.927 1.518 2.227 1.518 1.272 0 2.183-.649 2.186-1.617-.003-.71-.466-1.135-1.419-1.33l-.888-.179c-.457-.099-.627-.256-.623-.492-.004-.294.329-.486.751-.486.473 0 .754.259.821.575l1.247-.076Zm-2.684-28.154h1.326c-.019-1.167-.978-1.972-2.435-1.972-1.435 0-2.487.793-2.48 1.982-.004.965.677 1.518 1.783 1.783l.713.179c.712.173 1.109.377 1.112.818-.003.48-.457.806-1.16.806-.719 0-1.237-.333-1.282-.988h-1.339c.035 1.416 1.048 2.148 2.637 2.148 1.598 0 2.537-.764 2.541-1.963-.004-1.09-.825-1.668-1.963-1.924l-.588-.14c-.569-.131-1.045-.342-1.035-.812 0-.422.374-.732 1.051-.732.662 0 1.068.3 1.119.815Zm3.601 1.825c.004-.633.39-1.004.946-1.004.553 0 .879.355.876.959V184h1.362v-3.126c.003-1.15-.675-1.847-1.697-1.847-.745 0-1.244.352-1.467.93h-.058v-2.502h-1.323V184h1.361v-2.838Zm6.392 2.934c1.489 0 2.416-1.02 2.416-2.531 0-1.522-.927-2.538-2.416-2.538-1.489 0-2.416 1.016-2.416 2.538 0 1.511.927 2.531 2.416 2.531Zm.006-1.055c-.687 0-1.038-.629-1.038-1.486 0-.856.351-1.489 1.038-1.489.675 0 1.026.633 1.026 1.489 0 .857-.351 1.486-1.026 1.486Zm3.215.959h1.361v-2.777c0-.604.441-1.02 1.042-1.02.189 0 .447.032.575.074v-1.208a2.025 2.025 0 0 0-.428-.048c-.55 0-1 .319-1.179.926h-.051v-.856h-1.32V184Zm6.458-4.909h-.923v-1.176h-1.362v1.176h-.671v1.023h.671v2.556c-.006.962.649 1.439 1.637 1.397.351-.013.601-.083.738-.128l-.214-1.013c-.067.013-.211.045-.339.045-.272 0-.46-.102-.46-.48v-2.377h.923v-1.023Zm158.335 54.505h2.004V239h1.368v-5.404h2.004v-1.141h-5.376v1.141Zm7.661 5.5c1.489 0 2.416-1.02 2.416-2.531 0-1.522-.927-2.538-2.416-2.538-1.49 0-2.416 1.016-2.416 2.538 0 1.511.926 2.531 2.416 2.531Zm.006-1.055c-.687 0-1.039-.629-1.039-1.486 0-.856.352-1.489 1.039-1.489.675 0 1.026.633 1.026 1.489 0 .857-.351 1.486-1.026 1.486Zm3.214 2.8h1.362v-2.627h.041c.189.409.601.866 1.394.866 1.118 0 1.991-.885 1.991-2.528 0-1.688-.911-2.525-1.988-2.525-.821 0-1.214.489-1.397.888h-.06v-.824h-1.343v6.75Zm1.333-4.296c0-.875.371-1.435 1.032-1.435.675 0 1.033.585 1.033 1.435 0 .857-.365 1.451-1.033 1.451-.655 0-1.032-.575-1.032-1.451Zm6.309-4.09V239h1.343v-4.276h.054l1.694 4.244h.914l1.694-4.228h.054V239h1.342v-6.545h-1.706l-1.803 4.397h-.077l-1.802-4.397h-1.707Zm8.129 6.545h1.361v-4.909h-1.361V239Zm.684-5.542c.406 0 .738-.31.738-.69 0-.377-.332-.687-.738-.687-.403 0-.735.31-.735.687 0 .38.332.69.735.69Zm3.496 5.622c.793 0 1.205-.457 1.394-.866h.057V239h1.342v-6.545h-1.358v2.46h-.041c-.183-.399-.576-.888-1.397-.888-1.077 0-1.988.837-1.988 2.525 0 1.643.872 2.528 1.991 2.528Zm.432-1.084c-.668 0-1.033-.594-1.033-1.451 0-.85.358-1.435 1.033-1.435.661 0 1.032.56 1.032 1.435 0 .876-.377 1.451-1.032 1.451Zm12.665-163.4h2.004V80h1.368v-5.404h2.004v-1.142h-5.376v1.142Zm7.363-1.142h-1.538l2.26 6.546h1.783l2.257-6.546h-1.534l-1.586 4.974h-.06l-1.582-4.974ZM144.664 90h2.797c1.47 0 2.253-.767 2.253-1.809 0-.968-.693-1.553-1.438-1.588v-.064c.681-.154 1.182-.636 1.182-1.407 0-.98-.728-1.678-2.173-1.678h-2.621V90Zm1.384-1.131V87.13h1.16c.665 0 1.078.383 1.078.924 0 .492-.336.815-1.109.815h-1.129Zm0-2.675v-1.62h1.052c.613 0 .962.316.962.789 0 .517-.422.83-.988.83h-1.026ZM153.664 90l.486-1.493h2.362l.485 1.493h1.483l-2.256-6.546h-1.784L152.181 90h1.483Zm.837-2.573.806-2.477h.051l.805 2.477h-1.662Zm4.661 4.414h1.361v-2.627h.042c.188.409.6.866 1.393.866 1.119 0 1.991-.885 1.991-2.528 0-1.688-.911-2.525-1.988-2.525-.821 0-1.214.489-1.396.888h-.061v-.824h-1.342v6.75Zm1.332-4.295c0-.876.371-1.436 1.033-1.436.674 0 1.032.585 1.032 1.436 0 .856-.364 1.45-1.032 1.45-.656 0-1.033-.575-1.033-1.45Zm4.282 4.295h1.361v-2.627h.042c.188.409.601.866 1.393.866 1.119 0 1.991-.885 1.991-2.528 0-1.688-.91-2.525-1.987-2.525-.822 0-1.215.489-1.397.888h-.061v-.824h-1.342v6.75Zm1.333-4.295c0-.876.37-1.436 1.032-1.436.674 0 1.032.585 1.032 1.436 0 .856-.364 1.45-1.032 1.45-.655 0-1.032-.575-1.032-1.45Zm8.366-1.055c-.122-.905-.85-1.464-2.091-1.464-1.256 0-2.083.582-2.08 1.528-.003.735.46 1.211 1.419 1.403l.85.17c.428.085.623.242.63.488-.007.291-.323.499-.799.499-.486 0-.809-.208-.892-.608l-1.339.07c.128.94.927 1.519 2.227 1.519 1.272 0 2.183-.649 2.187-1.617-.004-.71-.467-1.135-1.42-1.33l-.888-.179c-.457-.099-.626-.255-.623-.492-.003-.294.329-.486.751-.486.473 0 .754.26.821.575l1.247-.076ZM72.588 94.746c-.182-1.512-1.327-2.38-2.842-2.38-1.729 0-3.049 1.22-3.049 3.361 0 2.135 1.298 3.362 3.05 3.362 1.677 0 2.69-1.115 2.84-2.32l-1.4-.006c-.13.7-.68 1.102-1.418 1.102-.994 0-1.669-.738-1.669-2.138 0-1.361.665-2.138 1.678-2.138.758 0 1.304.438 1.41 1.157h1.4Zm2.285 4.347c.726 0 1.196-.317 1.435-.774h.039V99h1.29v-3.311c0-1.17-.99-1.662-2.083-1.662-1.176 0-1.95.563-2.138 1.457l1.26.103c.092-.326.383-.566.872-.566.463 0 .728.233.728.636v.02c0 .316-.335.357-1.188.44-.972.09-1.845.416-1.845 1.512 0 .971.694 1.464 1.63 1.464Zm.39-.94c-.418 0-.719-.195-.719-.569 0-.383.317-.572.796-.639.297-.042.783-.112.946-.22v.52c0 .515-.425.908-1.023.908Zm3.35.847h1.362v-2.777c0-.604.44-1.02 1.042-1.02.188 0 .447.032.575.074v-1.209a2.048 2.048 0 0 0-.428-.047c-.55 0-1 .32-1.18.926h-.05v-.856h-1.32V99Zm-58.797 65h2.796c1.47 0 2.254-.767 2.254-1.809 0-.968-.694-1.553-1.439-1.588v-.064c.681-.154 1.183-.636 1.183-1.407 0-.981-.729-1.677-2.173-1.677h-2.621V164Zm1.384-1.131v-1.739h1.16c.665 0 1.077.383 1.077.924 0 .492-.336.815-1.11.815H21.2Zm0-2.675v-1.621h1.051c.614 0 .962.317.962.79 0 .517-.422.831-.987.831H21.2Zm6.697 3.902c1.214 0 2.032-.591 2.224-1.502l-1.26-.083c-.137.374-.488.569-.942.569-.68 0-1.112-.451-1.112-1.183v-.003h3.343v-.374c0-1.668-1.01-2.493-2.308-2.493-1.444 0-2.38 1.026-2.38 2.541 0 1.556.923 2.528 2.435 2.528Zm-1.09-3.046a1.037 1.037 0 0 1 1.058-1.007c.591 0 1 .422 1.003 1.007h-2.061Zm5.512.112c.003-.633.38-1.004.93-1.004.546 0 .876.358.872.959V164h1.362v-3.126c0-1.144-.671-1.847-1.694-1.847-.729 0-1.256.358-1.477.93h-.057v-.866h-1.298V164h1.362v-2.838Zm6.374 2.934c1.307 0 2.129-.767 2.193-1.895H39.6c-.08.524-.425.818-.892.818-.636 0-1.048-.534-1.048-1.474 0-.926.415-1.457 1.048-1.457.499 0 .818.329.892.818h1.285c-.058-1.134-.918-1.879-2.2-1.879-1.489 0-2.41 1.032-2.41 2.538 0 1.492.905 2.531 2.417 2.531Zm4.345-2.934c.003-.633.39-1.004.946-1.004.553 0 .879.355.875.959V164h1.362v-3.126c.003-1.15-.674-1.847-1.697-1.847-.745 0-1.243.352-1.467.93h-.058v-2.502h-1.323V164h1.362v-2.838ZM122.168 251h1.349l1.243-4.279h.051l1.247 4.279h1.348l1.873-6.545h-1.511l-1.084 4.557h-.057l-1.193-4.557h-1.294l-1.195 4.547h-.055l-1.083-4.547h-1.512l1.873 6.545Zm7.745 0h1.362v-4.909h-1.362V251Zm.684-5.542c.406 0 .739-.31.739-.69 0-.377-.333-.687-.739-.687-.402 0-.735.31-.735.687 0 .38.333.69.735.69Zm3.049 2.704c.003-.633.38-1.004.93-1.004.547 0 .876.358.873.959V251h1.361v-3.126c0-1.144-.671-1.847-1.694-1.847-.729 0-1.256.358-1.476.93h-.058v-.866h-1.297V251h1.361v-2.838Zm5.965 2.918c.793 0 1.205-.457 1.394-.866h.057V251h1.342v-6.545h-1.358v2.46h-.041c-.183-.399-.576-.888-1.397-.888-1.077 0-1.988.837-1.988 2.525 0 1.643.872 2.528 1.991 2.528Zm.432-1.084c-.668 0-1.033-.594-1.033-1.451 0-.85.358-1.435 1.033-1.435.661 0 1.032.56 1.032 1.435 0 .876-.377 1.451-1.032 1.451Zm5.618 1.1c1.489 0 2.416-1.02 2.416-2.531 0-1.522-.927-2.538-2.416-2.538-1.489 0-2.416 1.016-2.416 2.538 0 1.511.927 2.531 2.416 2.531Zm.006-1.055c-.687 0-1.038-.629-1.038-1.486 0-.856.351-1.489 1.038-1.489.675 0 1.026.633 1.026 1.489 0 .857-.351 1.486-1.026 1.486Zm4.06.959h1.438l.844-3.087h.06l.844 3.087h1.442l1.332-4.909h-1.374l-.748 3.279h-.041l-.806-3.279h-1.352l-.792 3.298h-.045l-.761-3.298h-1.377l1.336 4.909Zm39.979-42h4.423v-1.141h-3.04v-1.563h2.8v-1.141h-2.8v-1.559h3.027v-1.141h-4.41V209Zm7.431 0h2.797c1.47 0 2.253-.767 2.253-1.809 0-.968-.694-1.553-1.438-1.588v-.064c.681-.154 1.182-.636 1.182-1.407 0-.981-.728-1.677-2.173-1.677h-2.621V209Zm1.384-1.131v-1.739h1.16c.665 0 1.077.383 1.077.924 0 .492-.335.815-1.109.815h-1.128Zm0-2.675v-1.621h1.052c.613 0 .962.317.962.79 0 .517-.422.831-.988.831h-1.026Zm6.678 3.902c1.489 0 2.416-1.02 2.416-2.531 0-1.522-.927-2.538-2.416-2.538-1.489 0-2.416 1.016-2.416 2.538 0 1.511.927 2.531 2.416 2.531Zm.006-1.055c-.687 0-1.038-.629-1.038-1.486 0-.856.351-1.489 1.038-1.489.675 0 1.026.633 1.026 1.489 0 .857-.351 1.486-1.026 1.486Zm4.168-3.95h-1.407l1.407 2.454-1.458 2.455h1.406l.953-1.697.968 1.697h1.391l-1.461-2.455 1.422-2.454h-1.396l-.924 1.716-.901-1.716Zm15.357-78.345c-.182-1.512-1.327-2.381-2.842-2.381-1.729 0-3.049 1.221-3.049 3.362 0 2.135 1.298 3.362 3.049 3.362 1.678 0 2.691-1.115 2.842-2.32l-1.4-.006c-.131.7-.681 1.102-1.419 1.102-.994 0-1.669-.738-1.669-2.138 0-1.361.665-2.138 1.678-2.138.758 0 1.304.438 1.41 1.157h1.4Zm3.104 4.35c1.489 0 2.416-1.02 2.416-2.531 0-1.522-.927-2.538-2.416-2.538-1.49 0-2.417 1.016-2.417 2.538 0 1.511.927 2.531 2.417 2.531Zm.006-1.055c-.687 0-1.039-.629-1.039-1.486 0-.856.352-1.489 1.039-1.489.674 0 1.026.633 1.026 1.489 0 .857-.352 1.486-1.026 1.486Zm3.214.959h1.362v-2.777c0-.604.441-1.02 1.041-1.02.189 0 .448.032.576.074v-1.208a2.035 2.035 0 0 0-.429-.048c-.549 0-1 .319-1.179.926h-.051v-.856h-1.32V130Zm4.963-2.838c.003-.633.38-1.004.93-1.004.547 0 .876.358.873.959V130h1.361v-3.126c0-1.144-.671-1.847-1.694-1.847-.728 0-1.256.358-1.476.93h-.058v-.866h-1.297V130h1.361v-2.838Zm6.394 2.934c1.214 0 2.032-.591 2.224-1.502l-1.259-.083c-.138.374-.489.569-.943.569-.681 0-1.112-.451-1.112-1.183v-.003h3.343v-.374c0-1.668-1.01-2.493-2.308-2.493-1.444 0-2.381 1.026-2.381 2.541 0 1.556.924 2.528 2.436 2.528Zm-1.09-3.046a1.036 1.036 0 0 1 1.058-1.007c.591 0 1 .422 1.003 1.007h-2.061Zm4.15 2.95h1.362v-2.777c0-.604.441-1.02 1.042-1.02.188 0 .447.032.575.074v-1.208a2.033 2.033 0 0 0-.428-.048c-.55 0-1.001.319-1.18.926h-.051v-.856h-1.32V130Zm17.718 1.337h1.327c-.019-1.167-.978-1.972-2.436-1.972-1.435 0-2.486.793-2.48 1.982-.003.965.678 1.518 1.784 1.783l.712.179c.713.173 1.109.377 1.113.818-.004.48-.457.806-1.161.806-.719 0-1.236-.333-1.281-.988h-1.339c.035 1.416 1.048 2.148 2.636 2.148 1.598 0 2.538-.764 2.541-1.963-.003-1.09-.824-1.668-1.962-1.924l-.588-.14c-.569-.131-1.045-.342-1.036-.812 0-.422.374-.732 1.052-.732.661 0 1.067.3 1.118.815Zm4.852-.246h-.924v-1.176h-1.362v1.176h-.671v1.023h.671v2.556c-.006.962.649 1.439 1.637 1.397.351-.013.601-.083.738-.128l-.214-1.013c-.067.013-.211.045-.339.045-.271 0-.46-.102-.46-.48v-2.377h.924v-1.023Zm2.971 5.005c1.489 0 2.416-1.02 2.416-2.531 0-1.522-.927-2.538-2.416-2.538-1.489 0-2.416 1.016-2.416 2.538 0 1.511.927 2.531 2.416 2.531Zm.006-1.055c-.687 0-1.038-.629-1.038-1.486 0-.856.351-1.489 1.038-1.489.675 0 1.026.633 1.026 1.489 0 .857-.351 1.486-1.026 1.486Zm7.624-3.95h-1.441l-1.017 3.512h-.051l-1.019-3.512h-1.439l1.717 4.909h1.534l1.716-4.909Zm2.686 5.005c1.215 0 2.033-.591 2.224-1.502l-1.259-.083c-.137.374-.489.569-.943.569-.68 0-1.112-.451-1.112-1.183v-.003h3.343v-.374c0-1.668-1.01-2.493-2.307-2.493-1.445 0-2.381 1.026-2.381 2.541 0 1.556.923 2.528 2.435 2.528Zm-1.09-3.046a1.038 1.038 0 0 1 1.058-1.007c.591 0 1 .422 1.004 1.007h-2.062ZM309.931 146h2.797c1.47 0 2.253-.767 2.253-1.809 0-.968-.693-1.553-1.438-1.588v-.064c.681-.154 1.183-.636 1.183-1.407 0-.981-.729-1.677-2.174-1.677h-2.621V146Zm1.384-1.131v-1.739h1.161c.664 0 1.077.383 1.077.924 0 .492-.336.815-1.109.815h-1.129Zm0-2.675v-1.621h1.052c.613 0 .962.317.962.79 0 .517-.422.831-.988.831h-1.026Zm10.038-.857h1.327c-.019-1.167-.978-1.972-2.436-1.972-1.435 0-2.486.793-2.48 1.982-.003.965.678 1.518 1.784 1.783l.712.179c.713.173 1.109.377 1.113.818-.004.48-.457.806-1.161.806-.719 0-1.236-.333-1.281-.988h-1.339c.035 1.416 1.048 2.148 2.636 2.148 1.598 0 2.538-.764 2.541-1.963-.003-1.09-.824-1.668-1.962-1.924l-.588-.14c-.569-.131-1.045-.342-1.036-.812 0-.422.374-.732 1.052-.732.661 0 1.067.3 1.118.815Zm4.852-.246h-.924v-1.176h-1.361v1.176h-.672v1.023h.672v2.556c-.007.962.648 1.439 1.636 1.397.352-.013.601-.083.738-.128l-.214-1.013c-.067.013-.211.045-.339.045-.271 0-.46-.102-.46-.48v-2.377h.924v-1.023Zm2.205 5.002c.726 0 1.196-.317 1.436-.774h.038V146h1.291v-3.311c0-1.17-.991-1.662-2.084-1.662-1.176 0-1.949.562-2.138 1.457l1.259.103c.093-.326.384-.566.873-.566.463 0 .729.233.729.636v.019c0 .317-.336.358-1.189.441-.972.09-1.844.416-1.844 1.512 0 .971.693 1.464 1.629 1.464Zm.39-.94c-.418 0-.719-.195-.719-.569 0-.383.317-.572.796-.639.297-.042.783-.112.946-.221v.521c0 .515-.425.908-1.023.908Zm3.35.847h1.362v-4.909h-1.362V146Zm.684-5.542c.406 0 .739-.31.739-.69 0-.377-.333-.687-.739-.687-.402 0-.735.31-.735.687 0 .38.333.69.735.69Zm1.687 5.542h1.362v-2.777c0-.604.441-1.02 1.042-1.02.188 0 .447.032.575.074v-1.208a2.025 2.025 0 0 0-.428-.048c-.55 0-1 .319-1.179.926h-.052v-.856h-1.32V146Zm7.687-3.509c-.122-.905-.851-1.464-2.091-1.464-1.256 0-2.083.582-2.08 1.528-.003.735.46 1.211 1.419 1.403l.85.169c.428.086.623.243.63.489-.007.291-.323.499-.799.499-.486 0-.809-.208-.892-.608l-1.339.071c.128.939.927 1.518 2.227 1.518 1.272 0 2.183-.649 2.186-1.617-.003-.71-.466-1.135-1.419-1.33l-.888-.179c-.457-.099-.626-.256-.623-.492-.003-.294.329-.486.751-.486.473 0 .754.259.821.575l1.247-.076ZM53.512 230.596h2.004V236h1.368v-5.404h2.004v-1.141h-5.376v1.141ZM59.157 236h1.362v-2.777c0-.604.44-1.02 1.041-1.02.189 0 .448.032.576.074v-1.208a2.027 2.027 0 0 0-.428-.048c-.55 0-1 .319-1.18.926h-.051v-.856h-1.32V236Zm4.86.093c.726 0 1.196-.317 1.436-.774h.038V236h1.291v-3.311c0-1.17-.99-1.662-2.083-1.662-1.176 0-1.95.562-2.139 1.457l1.26.103c.092-.326.383-.566.872-.566.464 0 .729.233.729.636v.019c0 .317-.336.358-1.189.441-.972.09-1.844.416-1.844 1.512 0 .971.694 1.464 1.63 1.464Zm.39-.94c-.418 0-.718-.195-.718-.569 0-.383.316-.572.795-.639.298-.042.784-.112.947-.221v.521c0 .515-.425.908-1.023.908Zm7.435-2.662c-.121-.905-.85-1.464-2.09-1.464-1.256 0-2.084.582-2.08 1.528-.004.735.46 1.211 1.419 1.403l.85.169c.428.086.623.243.63.489-.007.291-.324.499-.8.499-.486 0-.808-.208-.892-.608l-1.339.071c.128.939.927 1.518 2.228 1.518 1.272 0 2.183-.649 2.186-1.617-.003-.71-.466-1.135-1.419-1.33l-.888-.179c-.457-.099-.627-.256-.624-.492-.003-.294.33-.486.751-.486.473 0 .755.259.822.575l1.246-.076Zm2.25.671c.003-.633.39-1.004.946-1.004.553 0 .879.355.876.959V236h1.361v-3.126c.003-1.15-.674-1.847-1.697-1.847-.745 0-1.243.352-1.467.93h-.057v-2.502H72.73V236h1.362v-2.838ZM62.374 271c1.994 0 3.202-1.234 3.202-3.279 0-2.039-1.208-3.266-3.183-3.266h-2.34V271h2.321Zm-.936-1.186v-4.174h.882c1.227 0 1.876.627 1.876 2.081 0 1.46-.65 2.093-1.88 2.093h-.878Zm7.275 1.282c1.49 0 2.416-1.02 2.416-2.531 0-1.522-.927-2.538-2.416-2.538-1.49 0-2.416 1.016-2.416 2.538 0 1.511.927 2.531 2.416 2.531Zm.006-1.055c-.687 0-1.038-.629-1.038-1.486 0-.856.351-1.489 1.038-1.489.675 0 1.026.633 1.026 1.489 0 .857-.351 1.486-1.026 1.486Zm5.433 1.055c1.489 0 2.416-1.02 2.416-2.531 0-1.522-.927-2.538-2.416-2.538-1.49 0-2.417 1.016-2.417 2.538 0 1.511.927 2.531 2.416 2.531Zm.006-1.055c-.687 0-1.039-.629-1.039-1.486 0-.856.352-1.489 1.039-1.489.674 0 1.026.633 1.026 1.489 0 .857-.352 1.486-1.026 1.486Zm3.214.959h1.362v-2.777c0-.604.44-1.02 1.041-1.02.189 0 .448.032.576.074v-1.208a2.027 2.027 0 0 0-.429-.048c-.55 0-1 .319-1.179.926h-.051v-.856h-1.32V271Zm27.372 25.455V303h1.342v-4.276h.054l1.694 4.244h.914l1.694-4.228h.054V303h1.343v-6.545h-1.707l-1.803 4.397h-.076l-1.803-4.397h-1.706Zm9.528 6.638c.726 0 1.196-.317 1.435-.774h.039V303h1.291v-3.311c0-1.17-.991-1.662-2.084-1.662-1.176 0-1.95.562-2.138 1.457l1.259.103c.093-.326.384-.566.873-.566.463 0 .728.233.728.636v.019c0 .317-.335.358-1.189.441-.971.09-1.844.416-1.844 1.512 0 .971.694 1.464 1.63 1.464Zm.39-.94c-.419 0-.719-.195-.719-.569 0-.383.316-.572.796-.639.297-.042.783-.112.946-.221v.521c0 .515-.425.908-1.023.908Zm3.35.847h1.362v-2.777c0-.604.441-1.02 1.041-1.02.189 0 .448.032.576.074v-1.208a2.035 2.035 0 0 0-.429-.048c-.549 0-1 .319-1.179.926h-.051v-.856h-1.32V303Zm3.602 0h1.361v-1.56l.368-.418 1.339 1.978h1.595l-1.915-2.784 1.822-2.125h-1.563l-1.572 1.863h-.074v-3.499h-1.361V303Zm7.192.096c1.215 0 2.033-.591 2.224-1.502l-1.259-.083c-.137.374-.489.569-.943.569-.68 0-1.112-.451-1.112-1.183v-.003h3.343v-.374c0-1.668-1.01-2.493-2.307-2.493-1.445 0-2.381 1.026-2.381 2.541 0 1.556.923 2.528 2.435 2.528Zm-1.09-3.046a1.038 1.038 0 0 1 1.058-1.007c.591 0 1 .422 1.004 1.007h-2.062Zm6.762-1.959h-.924v-1.176h-1.361v1.176h-.671v1.023h.671v2.556c-.007.962.648 1.439 1.636 1.397.352-.013.601-.083.738-.128l-.214-1.013c-.067.013-.211.045-.339.045-.271 0-.46-.102-.46-.48v-2.377h.924v-1.023Zm89.57 69.364h-1.537l2.26 6.545h1.783l2.256-6.545h-1.534l-1.585 4.973h-.061l-1.582-4.973Zm7.118 6.641c1.215 0 2.033-.591 2.225-1.502l-1.26-.083c-.137.374-.489.569-.942.569-.681 0-1.113-.451-1.113-1.183v-.003h3.343v-.374c0-1.668-1.009-2.493-2.307-2.493-1.445 0-2.381 1.026-2.381 2.541 0 1.556.924 2.528 2.435 2.528Zm-1.09-3.046a1.038 1.038 0 0 1 1.058-1.007c.592 0 1.001.422 1.004 1.007h-2.062Zm5.512.112c.004-.633.381-1.004.93-1.004.547 0 .876.358.873.959V374h1.362v-3.126c0-1.144-.672-1.847-1.694-1.847-.729 0-1.256.358-1.477.93h-.057v-.866h-1.298V374h1.361v-2.838Zm6.768-2.071h-.924v-1.176h-1.361v1.176h-.672v1.023h.672v2.556c-.007.962.648 1.439 1.636 1.397.351-.013.601-.083.738-.128l-.214-1.013c-.067.013-.211.045-.339.045-.271 0-.46-.102-.46-.48v-2.377h.924v-1.023Zm19.106 66.364v4.563c-.003.63-.284.962-.796.962-.482 0-.796-.3-.805-.821h-1.378c-.006 1.307.927 1.93 2.113 1.93 1.326 0 2.231-.802 2.234-2.071v-4.563h-1.368Zm5.554 4.455c.003.658-.448 1.003-.937 1.003-.514 0-.847-.361-.85-.939v-2.883h-1.362v3.126c.004 1.147.675 1.847 1.662 1.847.739 0 1.269-.38 1.49-.956h.051V442h1.307v-4.909h-1.361v2.819Zm3.731-.748c.003-.633.38-1.004.93-1.004.546 0 .875.358.872.959V442h1.362v-3.126c0-1.144-.672-1.847-1.694-1.847-.729 0-1.256.358-1.477.93h-.057v-.866h-1.298V442h1.362v-2.838Zm6.367 4.781c1.403 0 2.401-.639 2.401-1.895v-4.957h-1.352v.824h-.051c-.183-.399-.582-.888-1.404-.888-1.077 0-1.987.837-1.987 2.509 0 1.633.885 2.394 1.991 2.394.783 0 1.221-.393 1.4-.799h.057v.898c0 .674-.431.936-1.023.936-.601 0-.904-.262-1.016-.559l-1.259.169c.163.774.92 1.368 2.243 1.368Zm.029-3.036c-.668 0-1.032-.531-1.032-1.378 0-.834.358-1.419 1.032-1.419.662 0 1.032.56 1.032 1.419 0 .867-.377 1.378-1.032 1.378Zm4.736-5.452h-1.362V442h1.362v-6.545Zm3.246 6.641c1.215 0 2.033-.591 2.225-1.502l-1.259-.083c-.138.374-.489.569-.943.569-.681 0-1.112-.451-1.112-1.183v-.003h3.343v-.374c0-1.668-1.01-2.493-2.308-2.493-1.445 0-2.381 1.026-2.381 2.541 0 1.556.924 2.528 2.435 2.528Zm-1.089-3.046a1.036 1.036 0 0 1 1.057-1.007c.592 0 1.001.422 1.004 1.007h-2.061Zm54.734-44.304c-.183-1.512-1.327-2.381-2.842-2.381-1.729 0-3.049 1.221-3.049 3.362 0 2.135 1.298 3.362 3.049 3.362 1.678 0 2.691-1.115 2.842-2.32l-1.4-.006c-.131.7-.681 1.102-1.419 1.102-.994 0-1.669-.738-1.669-2.138 0-1.361.665-2.138 1.678-2.138.758 0 1.304.438 1.41 1.157h1.4Zm3.104 4.35c1.489 0 2.416-1.02 2.416-2.531 0-1.522-.927-2.538-2.416-2.538-1.49 0-2.417 1.016-2.417 2.538 0 1.511.927 2.531 2.417 2.531Zm.006-1.055c-.687 0-1.039-.629-1.039-1.486 0-.856.352-1.489 1.039-1.489.674 0 1.026.633 1.026 1.489 0 .857-.352 1.486-1.026 1.486Zm4.576-1.879c.003-.633.38-1.004.93-1.004.546 0 .875.358.872.959V399h1.362v-3.126c0-1.144-.672-1.847-1.694-1.847-.729 0-1.256.358-1.477.93h-.057v-.866h-1.298V399h1.362v-2.838Zm5.517 0c.003-.633.38-1.004.93-1.004.547 0 .876.358.873.959V399h1.361v-3.126c0-1.144-.671-1.847-1.694-1.847-.728 0-1.256.358-1.476.93h-.058v-.866h-1.297V399h1.361v-2.838Zm6.393 2.934c1.215 0 2.033-.591 2.225-1.502l-1.259-.083c-.138.374-.489.569-.943.569-.681 0-1.112-.451-1.112-1.183v-.003h3.343v-.374c0-1.668-1.01-2.493-2.308-2.493-1.444 0-2.381 1.026-2.381 2.541 0 1.556.924 2.528 2.435 2.528Zm-1.089-3.046a1.036 1.036 0 0 1 1.058-1.007c.591 0 1 .422 1.003 1.007h-2.061Zm6.368 3.046c1.307 0 2.129-.767 2.193-1.895h-1.285c-.08.524-.425.818-.892.818-.636 0-1.048-.534-1.048-1.474 0-.926.415-1.457 1.048-1.457.499 0 .818.329.892.818h1.285c-.058-1.134-.918-1.879-2.199-1.879-1.49 0-2.41 1.032-2.41 2.538 0 1.492.904 2.531 2.416 2.531Zm5.595-5.005h-.924v-1.176h-1.362v1.176h-.671v1.023h.671v2.556c-.006.962.649 1.439 1.637 1.397.351-.013.601-.083.738-.128l-.214-1.013c-.067.013-.211.045-.339.045-.272 0-.46-.102-.46-.48v-2.377h.924v-1.023Zm2.971 5.005c1.489 0 2.416-1.02 2.416-2.531 0-1.522-.927-2.538-2.416-2.538-1.49 0-2.416 1.016-2.416 2.538 0 1.511.926 2.531 2.416 2.531Zm.006-1.055c-.687 0-1.039-.629-1.039-1.486 0-.856.352-1.489 1.039-1.489.674 0 1.026.633 1.026 1.489 0 .857-.352 1.486-1.026 1.486Zm3.214.959h1.362v-2.777c0-.604.441-1.02 1.042-1.02.188 0 .447.032.575.074v-1.208a2.033 2.033 0 0 0-.428-.048c-.55 0-1.001.319-1.18.926h-.051v-.856h-1.32V399Zm-13.013 38.337h1.326c-.019-1.167-.978-1.972-2.435-1.972-1.435 0-2.487.793-2.48 1.982-.003.965.677 1.518 1.783 1.783l.713.179c.713.173 1.109.377 1.112.818-.003.48-.457.806-1.16.806-.719 0-1.237-.333-1.282-.988h-1.339c.035 1.416 1.048 2.148 2.637 2.148 1.598 0 2.538-.764 2.541-1.963-.003-1.09-.825-1.668-1.963-1.924l-.588-.14c-.569-.131-1.045-.342-1.035-.812 0-.422.374-.732 1.051-.732.662 0 1.068.3 1.119.815Zm4.851-.246h-.924v-1.176h-1.361v1.176h-.671v1.023h.671v2.556c-.006.962.649 1.439 1.636 1.397.352-.013.601-.083.739-.128l-.215-1.013c-.067.013-.21.045-.338.045-.272 0-.461-.102-.461-.48v-2.377h.924v-1.023Zm2.206 5.002c.725 0 1.195-.317 1.435-.774h.038V442h1.291v-3.311c0-1.17-.99-1.662-2.083-1.662-1.176 0-1.95.562-2.138 1.457l1.259.103c.092-.326.383-.566.872-.566.464 0 .729.233.729.636v.019c0 .317-.336.358-1.189.441-.972.09-1.844.416-1.844 1.512 0 .971.693 1.464 1.63 1.464Zm.39-.94c-.419 0-.719-.195-.719-.569 0-.383.316-.572.796-.639.297-.042.783-.112.946-.221v.521c0 .515-.426.908-1.023.908Zm3.35.847h1.361v-4.909h-1.361V442Zm.684-5.542c.406 0 .738-.31.738-.69 0-.377-.332-.687-.738-.687-.403 0-.735.31-.735.687 0 .38.332.69.735.69Zm1.687 5.542h1.361v-2.777c0-.604.441-1.02 1.042-1.02.189 0 .448.032.576.074v-1.208a2.035 2.035 0 0 0-.429-.048c-.549 0-1 .319-1.179.926h-.051v-.856h-1.32V442Zm7.686-3.509c-.121-.905-.85-1.464-2.09-1.464-1.256 0-2.084.582-2.081 1.528-.003.735.46 1.211 1.419 1.403l.85.169c.429.086.624.243.63.489-.006.291-.323.499-.799.499-.486 0-.809-.208-.892-.608l-1.339.071c.128.939.927 1.518 2.228 1.518 1.272 0 2.183-.649 2.186-1.617-.003-.71-.467-1.135-1.419-1.33l-.889-.179c-.457-.099-.626-.256-.623-.492-.003-.294.329-.486.751-.486.473 0 .754.259.822.575l1.246-.076Zm44.066 7.105h2.003V451h1.368v-5.404h2.004v-1.141h-5.375v1.141Zm7.679 5.5c1.215 0 2.033-.591 2.225-1.502l-1.26-.083c-.137.374-.489.569-.942.569-.681 0-1.113-.451-1.113-1.183v-.003h3.343v-.374c0-1.668-1.009-2.493-2.307-2.493-1.445 0-2.381 1.026-2.381 2.541 0 1.556.924 2.528 2.435 2.528Zm-1.09-3.046a1.038 1.038 0 0 1 1.058-1.007c.592 0 1.001.422 1.004 1.007h-2.062Zm6.762-1.959h-.924v-1.176h-1.361v1.176h-.671v1.023h.671v2.556c-.006.962.649 1.439 1.636 1.397.352-.013.601-.083.739-.128l-.215-1.013c-.067.013-.21.045-.338.045-.272 0-.461-.102-.461-.48v-2.377h.924v-1.023Zm.806 4.909h1.362v-2.777c0-.604.441-1.02 1.041-1.02.189 0 .448.032.576.074v-1.208a2.035 2.035 0 0 0-.429-.048c-.549 0-1 .319-1.179.926h-.051v-.856h-1.32V451Zm3.602 0h1.361v-4.909h-1.361V451Zm.684-5.542c.405 0 .738-.31.738-.69 0-.377-.333-.687-.738-.687-.403 0-.736.31-.736.687 0 .38.333.69.736.69Zm5.771 2.033c-.121-.905-.85-1.464-2.09-1.464-1.256 0-2.084.582-2.081 1.528-.003.735.461 1.211 1.42 1.403l.85.169c.428.086.623.243.629.489-.006.291-.323.499-.799.499-.486 0-.808-.208-.891-.608l-1.34.071c.128.939.927 1.518 2.228 1.518 1.272 0 2.183-.649 2.186-1.617-.003-.71-.466-1.135-1.419-1.33l-.888-.179c-.457-.099-.627-.256-.624-.492-.003-.294.33-.486.751-.486.473 0 .755.259.822.575l1.246-.076Zm47.905 23.105h2.004V476h1.368v-5.404h2.004v-1.141h-5.376v1.141Zm8.182 5.404h1.384v-2.32h1.01l1.24 2.32h1.528l-1.391-2.544c.745-.32 1.157-.968 1.157-1.863 0-1.301-.859-2.138-2.345-2.138h-2.583V476Zm1.384-3.433v-1.981h.933c.799 0 1.186.355 1.186 1.007 0 .648-.387.974-1.179.974h-.94Zm5.816 3.526c.725 0 1.195-.317 1.435-.774h.038V476h1.291v-3.311c0-1.17-.99-1.662-2.084-1.662-1.176 0-1.949.562-2.138 1.457l1.26.103c.092-.326.383-.566.872-.566.464 0 .729.233.729.636v.019c0 .317-.336.358-1.189.441-.972.09-1.844.416-1.844 1.512 0 .971.693 1.464 1.63 1.464Zm.39-.94c-.419 0-.719-.195-.719-.569 0-.383.316-.572.795-.639.298-.042.783-.112.946-.221v.521c0 .515-.425.908-1.022.908Zm3.35.847h1.361v-2.947c0-.543.345-.904.799-.904.448 0 .748.307.748.789V476h1.32v-2.998c0-.508.291-.853.786-.853.435 0 .761.271.761.818V476h1.358v-3.301c0-1.065-.633-1.672-1.547-1.672-.719 0-1.278.368-1.48.93h-.051c-.156-.569-.658-.93-1.332-.93-.662 0-1.164.352-1.368.93h-.058v-.866h-1.297V476Zm8.128 1.841h1.361v-2.627h.042c.188.409.6.866 1.393.866 1.119 0 1.991-.885 1.991-2.528 0-1.688-.911-2.525-1.988-2.525-.821 0-1.214.489-1.396.888h-.061v-.824h-1.342v6.75Zm1.332-4.296c0-.875.371-1.435 1.033-1.435.674 0 1.032.585 1.032 1.435 0 .857-.364 1.451-1.032 1.451-.656 0-1.033-.575-1.033-1.451ZM541.74 554h1.384v-2.122h1.163c1.505 0 2.381-.898 2.381-2.205 0-1.301-.86-2.218-2.346-2.218h-2.582V554Zm1.384-3.231v-2.183h.933c.799 0 1.185.435 1.185 1.087 0 .648-.386 1.096-1.179 1.096h-.939ZM547.46 554h1.362v-4.909h-1.362V554Zm.684-5.542c.406 0 .738-.31.738-.69 0-.377-.332-.687-.738-.687-.403 0-.735.31-.735.687 0 .38.332.69.735.69Zm3.049-1.003h-1.362V554h1.362v-6.545Zm2.371 0h-1.361V554h1.361v-6.545Zm2.41 6.638c.725 0 1.195-.317 1.435-.774h.038V554h1.291v-3.311c0-1.17-.991-1.662-2.084-1.662-1.176 0-1.949.562-2.138 1.457l1.259.103c.093-.326.384-.566.873-.566.463 0 .729.233.729.636v.019c0 .317-.336.358-1.189.441-.972.09-1.844.416-1.844 1.512 0 .971.693 1.464 1.63 1.464Zm.389-.94c-.418 0-.719-.195-.719-.569 0-.383.317-.572.796-.639.297-.042.783-.112.946-.221v.521c0 .515-.425.908-1.023.908Zm3.35.847h1.362v-2.777c0-.604.441-1.02 1.042-1.02.188 0 .447.032.575.074v-1.208a2.025 2.025 0 0 0-.428-.048c-.55 0-1.001.319-1.18.926h-.051v-.856h-1.32V554Zm7.686-3.509c-.121-.905-.85-1.464-2.09-1.464-1.256 0-2.084.582-2.08 1.528-.004.735.46 1.211 1.419 1.403l.85.169c.428.086.623.243.629.489-.006.291-.322.499-.799.499-.485 0-.808-.208-.891-.608l-1.339.071c.127.939.926 1.518 2.227 1.518 1.272 0 2.183-.649 2.186-1.617-.003-.71-.466-1.135-1.419-1.33l-.888-.179c-.457-.099-.627-.256-.623-.492-.004-.294.329-.486.751-.486.473 0 .754.259.821.575l1.246-.076ZM480.644 595h1.384v-2.122h1.164c1.505 0 2.381-.898 2.381-2.205 0-1.301-.86-2.218-2.346-2.218h-2.583V595Zm1.384-3.231v-2.183h.934c.799 0 1.185.435 1.185 1.087 0 .648-.386 1.096-1.179 1.096h-.94Zm5.605 3.324c.726 0 1.195-.317 1.435-.774h.038V595h1.292v-3.311c0-1.17-.991-1.662-2.084-1.662-1.176 0-1.95.563-2.138 1.457l1.259.103c.093-.326.383-.566.872-.566.464 0 .729.233.729.636v.019c0 .317-.335.358-1.189.441-.971.09-1.844.416-1.844 1.512 0 .972.694 1.464 1.63 1.464Zm.39-.94c-.419 0-.719-.195-.719-.569 0-.383.316-.572.796-.639.297-.042.783-.112.946-.221v.521c0 .515-.425.908-1.023.908Zm4.711-5.698h-1.361V595h1.361v-6.545Zm2.41 6.638c.725 0 1.195-.317 1.435-.774h.038V595h1.291v-3.311c0-1.17-.99-1.662-2.083-1.662-1.176 0-1.95.563-2.138 1.457l1.259.103c.092-.326.383-.566.872-.566.464 0 .729.233.729.636v.019c0 .317-.336.358-1.189.441-.972.09-1.844.416-1.844 1.512 0 .972.693 1.464 1.63 1.464Zm.39-.94c-.419 0-.719-.195-.719-.569 0-.383.316-.572.796-.639.297-.042.783-.112.946-.221v.521c0 .515-.426.908-1.023.908Zm5.568.943c1.307 0 2.128-.767 2.192-1.895h-1.285c-.079.524-.425.818-.891.818-.636 0-1.049-.534-1.049-1.474 0-.926.416-1.457 1.049-1.457.498 0 .818.329.891.818h1.285c-.057-1.134-.917-1.879-2.199-1.879-1.489 0-2.409 1.032-2.409 2.538 0 1.492.904 2.531 2.416 2.531Zm5.22 0c1.215 0 2.033-.591 2.225-1.502l-1.26-.083c-.137.374-.489.569-.942.569-.681 0-1.113-.451-1.113-1.183v-.003h3.343v-.374c0-1.668-1.01-2.493-2.307-2.493-1.445 0-2.381 1.026-2.381 2.541 0 1.556.923 2.528 2.435 2.528Zm-1.09-3.046a1.038 1.038 0 0 1 1.058-1.007c.591 0 1.001.422 1.004 1.007h-2.062Zm-60.666-51.713h1.327c-.02-1.167-.978-1.972-2.436-1.972-1.435 0-2.486.793-2.48 1.982-.003.965.678 1.518 1.784 1.783l.712.179c.713.173 1.109.377 1.112.818-.003.48-.457.806-1.16.806-.719 0-1.237-.333-1.281-.988h-1.339c.035 1.416 1.048 2.148 2.636 2.148 1.598 0 2.538-.764 2.541-1.963-.003-1.09-.824-1.668-1.962-1.924l-.588-.14c-.569-.131-1.045-.342-1.036-.812 0-.422.374-.732 1.052-.732.661 0 1.067.3 1.118.815Zm3.602 1.825c.003-.633.39-1.004.946-1.004.553 0 .879.355.876.959V545h1.361v-3.126c.003-1.15-.674-1.847-1.697-1.847-.745 0-1.243.352-1.467.93h-.057v-2.502h-1.324V545h1.362v-2.838Zm5.573 2.931c.726 0 1.196-.317 1.436-.774h.038V545h1.291v-3.311c0-1.17-.991-1.662-2.084-1.662-1.176 0-1.949.562-2.138 1.457l1.259.103c.093-.326.384-.566.873-.566.463 0 .729.233.729.636v.019c0 .317-.336.358-1.189.441-.972.09-1.844.416-1.844 1.512 0 .971.693 1.464 1.629 1.464Zm.39-.94c-.418 0-.719-.195-.719-.569 0-.383.317-.572.796-.639.297-.042.783-.112.946-.221v.521c0 .515-.425.908-1.023.908Zm5.159.927c.793 0 1.205-.457 1.394-.866h.057V545h1.343v-6.545h-1.359v2.46h-.041c-.182-.399-.576-.888-1.397-.888-1.077 0-1.988.837-1.988 2.525 0 1.643.873 2.528 1.991 2.528Zm.432-1.084c-.668 0-1.033-.594-1.033-1.451 0-.85.358-1.435 1.033-1.435.661 0 1.032.56 1.032 1.435 0 .876-.377 1.451-1.032 1.451Zm5.618 1.1c1.489 0 2.416-1.02 2.416-2.531 0-1.522-.927-2.538-2.416-2.538-1.489 0-2.416 1.016-2.416 2.538 0 1.511.927 2.531 2.416 2.531Zm.006-1.055c-.687 0-1.038-.629-1.038-1.486 0-.856.351-1.489 1.038-1.489.675 0 1.026.633 1.026 1.489 0 .857-.351 1.486-1.026 1.486Zm4.06.959h1.438l.844-3.087h.061l.843 3.087h1.442l1.332-4.909h-1.374l-.748 3.279h-.041l-.806-3.279h-1.352l-.792 3.298h-.045l-.761-3.298h-1.377l1.336 4.909Zm-71.272 7c1.994 0 3.203-1.234 3.203-3.279 0-2.039-1.209-3.266-3.184-3.266h-2.339V552h2.32Zm-.936-1.186v-4.174h.882c1.227 0 1.876.627 1.876 2.081 0 1.46-.649 2.093-1.879 2.093h-.879Zm7.294 1.282c1.215 0 2.033-.591 2.225-1.502l-1.259-.083c-.138.374-.489.569-.943.569-.681 0-1.112-.451-1.112-1.183v-.003h3.343v-.374c0-1.668-1.01-2.493-2.308-2.493-1.445 0-2.381 1.026-2.381 2.541 0 1.556.924 2.528 2.435 2.528Zm-1.089-3.046a1.036 1.036 0 0 1 1.057-1.007c.592 0 1.001.422 1.004 1.007h-2.061Zm6.79-1.959h-.975v-.329c0-.333.134-.528.534-.528.163 0 .329.036.438.071l.239-1.023a3.589 3.589 0 0 0-.962-.134c-.923 0-1.61.521-1.61 1.588v.355h-.694v1.023h.694V552h1.361v-3.886h.975v-1.023Zm1.975 5.002c.725 0 1.195-.317 1.435-.774h.038V552h1.291v-3.311c0-1.17-.99-1.662-2.083-1.662-1.177 0-1.95.562-2.139 1.457l1.26.103c.092-.326.383-.566.872-.566.464 0 .729.233.729.636v.019c0 .317-.336.358-1.189.441-.972.09-1.844.416-1.844 1.512 0 .971.693 1.464 1.63 1.464Zm.39-.94c-.419 0-.719-.195-.719-.569 0-.383.316-.572.795-.639.298-.042.783-.112.946-.221v.521c0 .515-.425.908-1.022.908Zm6.498-1.243c.003.658-.448 1.003-.937 1.003-.514 0-.847-.361-.85-.939v-2.883h-1.361v3.126c.003 1.147.674 1.847 1.662 1.847.738 0 1.268-.38 1.489-.956h.051V552h1.307v-4.909h-1.361v2.819Zm3.731-4.455h-1.362V552h1.362v-6.545Zm3.621 1.636h-.924v-1.176h-1.362v1.176h-.671v1.023h.671v2.556c-.006.962.649 1.439 1.637 1.397.351-.013.601-.083.738-.128l-.214-1.013c-.067.013-.211.045-.339.045-.272 0-.46-.102-.46-.48v-2.377h.924v-1.023ZM411.923 604h1.384v-2.704h2.662v-1.141h-2.662v-1.559h2.95v-1.141h-4.334V604Zm5.158 0h1.361v-4.909h-1.361V604Zm.684-5.542c.406 0 .738-.31.738-.69 0-.377-.332-.687-.738-.687-.403 0-.735.31-.735.687 0 .38.332.69.735.69Zm1.687 5.542h1.361v-2.777c0-.604.442-1.02 1.042-1.02.189 0 .448.032.576.074v-1.208a2.035 2.035 0 0 0-.429-.048c-.549 0-1 .319-1.179.926h-.051v-.856h-1.32V604Zm5.61.096c1.215 0 2.033-.591 2.225-1.502l-1.26-.083c-.137.374-.489.569-.942.569-.681 0-1.113-.451-1.113-1.183v-.003h3.343v-.374c0-1.668-1.009-2.493-2.307-2.493-1.445 0-2.381 1.026-2.381 2.541 0 1.556.924 2.528 2.435 2.528Zm-1.09-3.046a1.038 1.038 0 0 1 1.058-1.007c.592 0 1.001.422 1.004 1.007h-2.062Zm4.177 2.95h1.342v-.786h.061c.188.409.6.866 1.393.866 1.119 0 1.991-.885 1.991-2.528 0-1.688-.911-2.525-1.988-2.525-.821 0-1.214.489-1.396.889h-.042v-2.461h-1.361V604Zm1.332-2.455c0-.875.371-1.435 1.033-1.435.674 0 1.032.585 1.032 1.435 0 .857-.364 1.451-1.032 1.451-.656 0-1.033-.575-1.033-1.451Zm6.501 2.551c1.489 0 2.416-1.02 2.416-2.531 0-1.522-.927-2.538-2.416-2.538-1.49 0-2.417 1.016-2.417 2.538 0 1.511.927 2.531 2.417 2.531Zm.006-1.055c-.687 0-1.039-.629-1.039-1.486 0-.856.352-1.489 1.039-1.489.674 0 1.026.633 1.026 1.489 0 .857-.352 1.486-1.026 1.486Zm4.167-3.95h-1.406l1.406 2.454-1.457 2.455h1.406l.953-1.697.968 1.697h1.39l-1.46-2.455 1.422-2.454h-1.397l-.923 1.716-.902-1.716Zm-63.622-2.636h-1.378v4.116h-.057l-2.825-4.116h-1.215V603h1.384v-4.12h.048l2.848 4.12h1.195v-6.545ZM377.57 603h1.361v-4.909h-1.361V603Zm.684-5.542c.405 0 .738-.31.738-.69 0-.377-.333-.687-.738-.687-.403 0-.736.31-.736.687 0 .38.333.69.736.69Zm3.048 2.704c.003-.633.381-1.004.93-1.004.547 0 .876.358.873.959V603h1.361v-3.126c0-1.144-.671-1.847-1.694-1.847-.728 0-1.256.358-1.476.93h-.058v-.866h-1.297V603h1.361v-2.838Zm4.156-2.071v5.13c0 .37-.156.556-.594.556-.058 0-.109 0-.179-.007v1.065c.099.003.179.006.275.006 1.157 0 1.86-.46 1.86-1.598v-5.152h-1.362Zm.678-.633c.406 0 .738-.31.738-.69 0-.377-.332-.687-.738-.687-.403 0-.735.31-.735.687 0 .38.332.69.735.69Zm3.093 5.635c.726 0 1.196-.317 1.435-.774h.039V603h1.291v-3.311c0-1.17-.991-1.662-2.084-1.662-1.176 0-1.949.563-2.138 1.457l1.259.103c.093-.326.384-.566.873-.566.463 0 .728.233.728.636v.019c0 .317-.335.358-1.188.441-.972.09-1.845.416-1.845 1.512 0 .972.694 1.464 1.63 1.464Zm.39-.94c-.418 0-.719-.195-.719-.569 0-.383.317-.572.796-.639.297-.042.783-.112.946-.221v.521c0 .515-.425.908-1.023.908Zm-53.18-71.557h2.004V536h1.367v-5.404h2.004v-1.141h-5.375v1.141Zm5.644 5.404h1.362v-2.777c0-.604.441-1.02 1.042-1.02.188 0 .447.032.575.074v-1.208a2.025 2.025 0 0 0-.428-.048c-.55 0-1.001.319-1.18.926h-.051v-.856h-1.32V536Zm3.602 0h1.361v-4.909h-1.361V536Zm.684-5.542c.406 0 .738-.31.738-.69 0-.377-.332-.687-.738-.687-.403 0-.735.31-.735.687 0 .38.332.69.735.69Zm1.687 7.383h1.362v-2.627h.041c.189.409.601.866 1.394.866 1.118 0 1.991-.885 1.991-2.528 0-1.688-.911-2.525-1.988-2.525-.822 0-1.215.489-1.397.888h-.061v-.824h-1.342v6.75Zm1.333-4.296c0-.875.371-1.435 1.032-1.435.674 0 1.032.585 1.032 1.435 0 .857-.364 1.451-1.032 1.451-.655 0-1.032-.575-1.032-1.451Zm5.643-4.09h-1.362V536h1.362v-6.545Zm3.247 6.641c1.214 0 2.032-.591 2.224-1.502l-1.259-.083c-.138.374-.489.569-.943.569-.681 0-1.112-.451-1.112-1.183v-.003h3.343v-.374c0-1.668-1.01-2.493-2.308-2.493-1.444 0-2.381 1.026-2.381 2.541 0 1.556.924 2.528 2.436 2.528Zm-1.09-3.046a1.038 1.038 0 0 1 1.058-1.007c.591 0 1 .422 1.003 1.007h-2.061ZM340.921 548h2.797c1.47 0 2.253-.767 2.253-1.809 0-.968-.693-1.553-1.438-1.588v-.064c.681-.154 1.182-.636 1.182-1.407 0-.981-.728-1.677-2.173-1.677h-2.621V548Zm1.384-1.131v-1.739h1.16c.665 0 1.077.383 1.077.924 0 .492-.335.815-1.109.815h-1.128Zm0-2.675v-1.621h1.052c.613 0 .962.317.962.79 0 .517-.422.831-.988.831h-1.026Zm6.678 3.902c1.489 0 2.416-1.02 2.416-2.531 0-1.522-.927-2.538-2.416-2.538-1.489 0-2.416 1.016-2.416 2.538 0 1.511.927 2.531 2.416 2.531Zm.006-1.055c-.687 0-1.038-.629-1.038-1.486 0-.856.351-1.489 1.038-1.489.675 0 1.026.633 1.026 1.489 0 .857-.351 1.486-1.026 1.486Zm4.168-3.95h-1.407l1.407 2.454-1.458 2.455h1.407l.952-1.697.968 1.697h1.391l-1.461-2.455 1.422-2.454h-1.396l-.924 1.716-.901-1.716ZM307.914 514h1.383v-2.122h1.164c1.505 0 2.381-.898 2.381-2.205 0-1.301-.86-2.218-2.346-2.218h-2.582V514Zm1.383-3.231v-2.183h.934c.799 0 1.185.435 1.185 1.087 0 .648-.386 1.096-1.179 1.096h-.94Zm5.605 3.324c.726 0 1.195-.317 1.435-.774h.038V514h1.292v-3.311c0-1.17-.991-1.662-2.084-1.662-1.176 0-1.95.562-2.138 1.457l1.259.103c.093-.326.383-.566.872-.566.464 0 .729.233.729.636v.019c0 .317-.335.358-1.189.441-.971.09-1.844.416-1.844 1.512 0 .971.694 1.464 1.63 1.464Zm.39-.94c-.419 0-.719-.195-.719-.569 0-.383.316-.572.796-.639.297-.042.783-.112.946-.221v.521c0 .515-.425.908-1.023.908Zm4.711-5.698h-1.361V514h1.361v-6.545Zm1.01 6.545h1.362v-2.947c0-.543.345-.904.799-.904.447 0 .747.307.747.789V514h1.32v-2.998c0-.508.291-.853.787-.853.434 0 .76.271.76.818V514h1.359v-3.301c0-1.065-.633-1.672-1.547-1.672-.719 0-1.279.368-1.48.93h-.051c-.157-.569-.659-.93-1.333-.93-.661 0-1.163.352-1.368.93h-.057v-.866h-1.298V514Zm12.213-3.509c-.122-.905-.851-1.464-2.091-1.464-1.256 0-2.083.582-2.08 1.528-.003.735.46 1.211 1.419 1.403l.85.169c.428.086.623.243.63.489-.007.291-.323.499-.799.499-.486 0-.809-.208-.892-.608l-1.339.071c.128.939.927 1.518 2.227 1.518 1.272 0 2.183-.649 2.186-1.617-.003-.71-.466-1.135-1.419-1.33l-.888-.179c-.457-.099-.626-.256-.623-.492-.003-.294.329-.486.751-.486.473 0 .754.259.821.575l1.247-.076Zm-69.714 69.105h2.004V585h1.368v-5.404h2.004v-1.141h-5.376v1.141Zm5.645 5.404h1.362v-2.777c0-.604.441-1.02 1.041-1.02.189 0 .448.032.576.074v-1.208a2.035 2.035 0 0 0-.429-.048c-.549 0-1 .319-1.179.926h-.051v-.856h-1.32V585Zm4.861.093c.725 0 1.195-.317 1.435-.774h.038V585h1.291v-3.311c0-1.17-.99-1.662-2.083-1.662-1.176 0-1.95.562-2.138 1.457l1.259.103c.092-.326.383-.566.872-.566.464 0 .729.233.729.636v.019c0 .317-.336.358-1.189.441-.972.09-1.844.416-1.844 1.512 0 .971.693 1.464 1.63 1.464Zm.39-.94c-.419 0-.719-.195-.719-.569 0-.383.316-.572.796-.639.297-.042.783-.112.946-.221v.521c0 .515-.426.908-1.023.908Zm7.434-2.662c-.121-.905-.85-1.464-2.09-1.464-1.256 0-2.084.582-2.081 1.528-.003.735.461 1.211 1.419 1.403l.851.169c.428.086.623.243.629.489-.006.291-.323.499-.799.499-.486 0-.808-.208-.891-.608l-1.34.071c.128.939.927 1.518 2.228 1.518 1.272 0 2.183-.649 2.186-1.617-.003-.71-.467-1.135-1.419-1.33l-.888-.179c-.457-.099-.627-.256-.624-.492-.003-.294.33-.486.751-.486.473 0 .755.259.822.575l1.246-.076Zm2.25.671c.003-.633.39-1.004.946-1.004.553 0 .879.355.876.959V585h1.361v-3.126c.003-1.15-.674-1.847-1.697-1.847-.745 0-1.243.352-1.467.93h-.057v-2.502h-1.324V585h1.362v-2.838Zm-56.259 16.584c-.183-1.512-1.327-2.381-2.842-2.381-1.729 0-3.049 1.221-3.049 3.362 0 2.135 1.298 3.362 3.049 3.362 1.678 0 2.691-1.115 2.842-2.32l-1.4-.006c-.131.7-.681 1.102-1.419 1.102-.994 0-1.669-.738-1.669-2.138 0-1.361.665-2.138 1.678-2.138.758 0 1.304.438 1.41 1.157h1.4Zm.662-1.15h2.004V603h1.368v-5.404h2.003v-1.141h-5.375v1.141Zm11.733.741h1.326c-.019-1.167-.978-1.972-2.435-1.972-1.436 0-2.487.793-2.481 1.982-.003.965.678 1.518 1.784 1.783l.712.179c.713.173 1.11.377 1.113.818-.003.48-.457.806-1.16.806-.72 0-1.237-.333-1.282-.988h-1.339c.035 1.416 1.048 2.148 2.637 2.148 1.598 0 2.537-.764 2.54-1.963-.003-1.09-.824-1.668-1.962-1.924l-.588-.14c-.569-.131-1.045-.342-1.036-.812 0-.422.374-.732 1.052-.732.661 0 1.067.3 1.119.815Zm4.851-.246h-.924v-1.176h-1.361v1.176h-.672v1.023h.672v2.556c-.007.962.648 1.439 1.636 1.397.352-.013.601-.083.738-.128l-.214-1.013c-.067.013-.211.045-.339.045-.271 0-.46-.102-.46-.48v-2.377h.924v-1.023Zm2.206 5.002c.725 0 1.195-.317 1.435-.774h.038V603h1.291v-3.311c0-1.17-.991-1.662-2.084-1.662-1.176 0-1.949.562-2.138 1.457l1.259.103c.093-.326.384-.566.873-.566.463 0 .729.233.729.636v.019c0 .317-.336.358-1.189.441-.972.09-1.844.416-1.844 1.512 0 .971.693 1.464 1.63 1.464Zm.389-.94c-.418 0-.719-.195-.719-.569 0-.383.317-.572.796-.639.297-.042.783-.112.946-.221v.521c0 .515-.425.908-1.023.908Zm3.35.847h1.362v-4.909h-1.362V603Zm.684-5.542c.406 0 .739-.31.739-.69 0-.377-.333-.687-.739-.687-.402 0-.735.31-.735.687 0 .38.333.69.735.69Zm1.688 5.542h1.361v-2.777c0-.604.441-1.02 1.042-1.02.189 0 .447.032.575.074v-1.208a2.025 2.025 0 0 0-.428-.048c-.55 0-1 .319-1.179.926h-.052v-.856h-1.319V603Zm7.686-3.509c-.122-.905-.85-1.464-2.091-1.464-1.256 0-2.083.582-2.08 1.528-.003.735.46 1.211 1.419 1.403l.85.169c.428.086.623.243.63.489-.007.291-.323.499-.799.499-.486 0-.809-.208-.892-.608l-1.339.071c.128.939.927 1.518 2.227 1.518 1.272 0 2.183-.649 2.187-1.617-.004-.71-.467-1.135-1.419-1.33l-.889-.179c-.457-.099-.626-.256-.623-.492-.003-.294.329-.486.751-.486.473 0 .754.259.821.575l1.247-.076Zm19.609 24.105h2.003V629h1.368v-5.404h2.004v-1.141h-5.375v1.141Zm6.154 5.404h1.362v-4.909h-1.362V629Zm.684-5.542c.406 0 .738-.31.738-.69 0-.377-.332-.687-.738-.687-.403 0-.735.31-.735.687 0 .38.332.69.735.69Zm3.905 5.638c1.307 0 2.129-.767 2.193-1.895h-1.285c-.08.524-.425.818-.892.818-.636 0-1.048-.534-1.048-1.474 0-.926.415-1.457 1.048-1.457.499 0 .818.329.892.818h1.285c-.058-1.134-.918-1.879-2.199-1.879-1.49 0-2.41 1.032-2.41 2.538 0 1.492.904 2.531 2.416 2.531Zm2.983-.096h1.362v-1.56l.367-.418 1.34 1.978h1.594l-1.914-2.784 1.822-2.125h-1.563l-1.573 1.863h-.073v-3.499h-1.362V629Zm7.193.096c1.214 0 2.032-.591 2.224-1.502l-1.259-.083c-.138.374-.489.569-.943.569-.681 0-1.112-.451-1.112-1.183v-.003h3.343v-.374c0-1.668-1.01-2.493-2.308-2.493-1.444 0-2.381 1.026-2.381 2.541 0 1.556.924 2.528 2.436 2.528Zm-1.09-3.046a1.038 1.038 0 0 1 1.058-1.007c.591 0 1 .422 1.003 1.007h-2.061Zm6.762-1.959h-.924v-1.176h-1.362v1.176h-.671v1.023h.671v2.556c-.006.962.649 1.439 1.637 1.397.351-.013.601-.083.738-.128l-.214-1.013c-.067.013-.211.045-.339.045-.272 0-.46-.102-.46-.48v-2.377h.924v-1.023Zm79.897-161.754h1.326c-.019-1.167-.978-1.972-2.435-1.972-1.435 0-2.486.793-2.48 1.982-.003.965.677 1.518 1.783 1.783l.713.179c.713.173 1.109.377 1.112.818-.003.48-.457.806-1.16.806-.719 0-1.237-.333-1.282-.988h-1.339c.035 1.416 1.049 2.148 2.637 2.148 1.598 0 2.538-.764 2.541-1.963-.003-1.09-.825-1.668-1.962-1.924l-.589-.14c-.568-.131-1.045-.342-1.035-.812 0-.422.374-.732 1.051-.732.662 0 1.068.3 1.119.815Zm3.64 4.756c.726 0 1.195-.317 1.435-.774h.038V467h1.292v-3.311c0-1.17-.991-1.662-2.084-1.662-1.176 0-1.95.562-2.138 1.457l1.259.103c.093-.326.383-.566.872-.566.464 0 .729.233.729.636v.019c0 .317-.336.358-1.189.441-.971.09-1.844.416-1.844 1.512 0 .971.694 1.464 1.63 1.464Zm.39-.94c-.419 0-.719-.195-.719-.569 0-.383.316-.572.796-.639.297-.042.783-.112.946-.221v.521c0 .515-.425.908-1.023.908Zm4.711-1.991c.004-.633.381-1.004.93-1.004.547 0 .876.358.873.959V467h1.361v-3.126c0-1.144-.671-1.847-1.693-1.847-.729 0-1.256.358-1.477.93h-.058v-.866h-1.297V467h1.361v-2.838Zm5.965 2.918c.793 0 1.205-.457 1.394-.866h.057V467h1.343v-6.545h-1.359v2.46h-.041c-.182-.399-.575-.888-1.397-.888-1.077 0-1.988.837-1.988 2.525 0 1.643.873 2.528 1.991 2.528Zm.432-1.084c-.668 0-1.032-.594-1.032-1.451 0-.85.358-1.435 1.032-1.435.661 0 1.032.56 1.032 1.435 0 .876-.377 1.451-1.032 1.451Zm4.369 1.004h1.438l.844-3.087h.06l.844 3.087h1.441l1.333-4.909h-1.374l-.748 3.279h-.042l-.805-3.279h-1.352l-.792 3.298h-.045l-.761-3.298h-1.377l1.336 4.909Zm6.605 0h1.362v-4.909h-1.362V467Zm.684-5.542c.406 0 .739-.31.739-.69 0-.377-.333-.687-.739-.687-.402 0-.735.31-.735.687 0 .38.333.69.735.69Zm3.906 5.638c1.307 0 2.128-.767 2.192-1.895h-1.285c-.08.524-.425.818-.891.818-.636 0-1.049-.534-1.049-1.474 0-.926.416-1.457 1.049-1.457.498 0 .818.329.891.818h1.285c-.057-1.134-.917-1.879-2.199-1.879-1.489 0-2.41 1.032-2.41 2.538 0 1.492.905 2.531 2.417 2.531Zm4.344-2.934c.004-.633.39-1.004.946-1.004.553 0 .879.355.876.959V467h1.362v-3.126c.003-1.15-.675-1.847-1.698-1.847-.744 0-1.243.352-1.466.93h-.058v-2.502h-1.323V467h1.361v-2.838Zm99.718-158.707V312h1.343v-4.276h.054l1.694 4.244h.914l1.694-4.228h.054V312h1.343v-6.545h-1.707l-1.803 4.397h-.076l-1.803-4.397h-1.707Zm8.129 6.545h1.362v-4.909h-1.362V312Zm.684-5.542c.406 0 .738-.31.738-.69 0-.377-.332-.687-.738-.687-.403 0-.735.31-.735.687 0 .38.332.69.735.69Zm3.496 5.622c.793 0 1.205-.457 1.394-.866h.057V312h1.343v-6.545h-1.359v2.46h-.041c-.182-.399-.576-.888-1.397-.888-1.077 0-1.988.837-1.988 2.525 0 1.643.873 2.528 1.991 2.528Zm.432-1.084c-.668 0-1.033-.594-1.033-1.451 0-.85.358-1.435 1.033-1.435.661 0 1.032.56 1.032 1.435 0 .876-.377 1.451-1.032 1.451ZM516.878 324h2.797c1.47 0 2.253-.767 2.253-1.809 0-.968-.693-1.553-1.438-1.588v-.064c.681-.154 1.182-.636 1.182-1.407 0-.981-.728-1.677-2.173-1.677h-2.621V324Zm1.384-1.131v-1.739h1.16c.665 0 1.077.383 1.077.924 0 .492-.335.815-1.109.815h-1.128Zm0-2.675v-1.621h1.052c.613 0 .962.317.962.79 0 .517-.422.831-.988.831h-1.026Zm6.678 3.902c1.489 0 2.416-1.02 2.416-2.531 0-1.522-.927-2.538-2.416-2.538-1.489 0-2.416 1.016-2.416 2.538 0 1.511.927 2.531 2.416 2.531Zm.006-1.055c-.687 0-1.038-.629-1.038-1.486 0-.856.351-1.489 1.038-1.489.675 0 1.026.633 1.026 1.489 0 .857-.351 1.486-1.026 1.486Zm4.168-3.95h-1.407l1.407 2.454-1.458 2.455h1.407l.952-1.697.968 1.697h1.391l-1.461-2.455 1.422-2.454h-1.396l-.924 1.716-.901-1.716Zm6.002 5.005c1.214 0 2.032-.591 2.224-1.502l-1.259-.083c-.138.374-.489.569-.943.569-.681 0-1.112-.451-1.112-1.183v-.003h3.343v-.374c0-1.668-1.01-2.493-2.308-2.493-1.444 0-2.381 1.026-2.381 2.541 0 1.556.924 2.528 2.436 2.528Zm-1.09-3.046a1.037 1.037 0 0 1 1.058-1.007c.591 0 1 .422 1.003 1.007h-2.061Zm8.235-.559c-.122-.905-.85-1.464-2.09-1.464-1.256 0-2.084.582-2.081 1.528-.003.735.46 1.211 1.419 1.403l.85.169c.428.086.623.243.63.489-.007.291-.323.499-.799.499-.486 0-.809-.208-.892-.608l-1.339.071c.128.939.927 1.518 2.228 1.518 1.272 0 2.182-.649 2.186-1.617-.004-.71-.467-1.135-1.419-1.33l-.889-.179c-.457-.099-.626-.256-.623-.492-.003-.294.329-.486.751-.486.473 0 .754.259.821.575l1.247-.076Zm-142.626 35.255c-.183-1.512-1.327-2.381-2.842-2.381-1.729 0-3.049 1.221-3.049 3.362 0 2.135 1.298 3.362 3.049 3.362 1.678 0 2.691-1.115 2.842-2.32l-1.4-.006c-.131.7-.681 1.102-1.419 1.102-.994 0-1.669-.738-1.669-2.138 0-1.361.665-2.138 1.678-2.138.758 0 1.304.438 1.41 1.157h1.4Zm2.247 1.416c.003-.633.39-1.004.946-1.004.553 0 .879.355.876.959V360h1.361v-3.126c.003-1.15-.674-1.847-1.697-1.847-.745 0-1.243.352-1.467.93h-.058v-2.502h-1.323V360h1.362v-2.838Zm5.573 2.931c.726 0 1.196-.317 1.435-.774h.039V360h1.291v-3.311c0-1.17-.991-1.662-2.084-1.662-1.176 0-1.949.562-2.138 1.457l1.259.103c.093-.326.384-.566.873-.566.463 0 .728.233.728.636v.019c0 .317-.335.358-1.188.441-.972.09-1.845.416-1.845 1.512 0 .971.694 1.464 1.63 1.464Zm.39-.94c-.418 0-.719-.195-.719-.569 0-.383.317-.572.796-.639.297-.042.783-.112.946-.221v.521c0 .515-.425.908-1.023.908Zm3.35.847h1.362v-4.909h-1.362V360Zm.684-5.542c.406 0 .738-.31.738-.69 0-.377-.332-.687-.738-.687-.403 0-.735.31-.735.687 0 .38.332.69.735.69Zm1.687 5.542h1.362v-2.777c0-.604.441-1.02 1.042-1.02.188 0 .447.032.575.074v-1.208a2.025 2.025 0 0 0-.428-.048c-.55 0-1.001.319-1.18.926h-.051v-.856h-1.32V360Zm-36.007-83.254c-.182-1.512-1.327-2.381-2.841-2.381-1.73 0-3.049 1.221-3.049 3.362 0 2.135 1.297 3.362 3.049 3.362 1.677 0 2.691-1.115 2.841-2.32l-1.4-.006c-.131.7-.681 1.102-1.419 1.102-.994 0-1.668-.738-1.668-2.138 0-1.361.664-2.138 1.677-2.138.758 0 1.304.438 1.41 1.157h1.4Zm2.285 4.347c.726 0 1.196-.317 1.435-.774h.039V281h1.291v-3.311c0-1.17-.991-1.662-2.084-1.662-1.176 0-1.949.562-2.138 1.457l1.259.103c.093-.326.384-.566.873-.566.463 0 .728.233.728.636v.019c0 .317-.335.358-1.188.441-.972.09-1.845.416-1.845 1.512 0 .971.694 1.464 1.63 1.464Zm.39-.94c-.418 0-.719-.195-.719-.569 0-.383.317-.572.796-.639.297-.042.783-.112.946-.221v.521c0 .515-.425.908-1.023.908Zm5.961-4.062h-.923v-1.176h-1.362v1.176h-.671v1.023h.671v2.556c-.006.962.649 1.439 1.637 1.397.351-.013.6-.083.738-.128l-.214-1.013c-.067.013-.211.045-.339.045-.272 0-.46-.102-.46-.48v-2.377h.923v-1.023ZM387.97 281h1.438l.844-3.087h.06l.844 3.087h1.442l1.332-4.909h-1.374l-.748 3.279h-.041l-.806-3.279h-1.352l-.792 3.298h-.045l-.761-3.298h-1.377L387.97 281Zm8.005.093c.726 0 1.196-.317 1.435-.774h.039V281h1.291v-3.311c0-1.17-.991-1.662-2.084-1.662-1.176 0-1.949.562-2.138 1.457l1.259.103c.093-.326.384-.566.873-.566.463 0 .729.233.729.636v.019c0 .317-.336.358-1.189.441-.972.09-1.845.416-1.845 1.512 0 .971.694 1.464 1.63 1.464Zm.39-.94c-.418 0-.719-.195-.719-.569 0-.383.317-.572.796-.639.297-.042.783-.112.946-.221v.521c0 .515-.425.908-1.023.908Zm4.712-5.698h-1.362V281h1.362v-6.545Zm1.009 6.545h1.362v-1.56l.368-.418 1.339 1.978h1.594l-1.914-2.784 1.822-2.125h-1.563l-1.573 1.863h-.073v-3.499h-1.362V281Z"/><path fill="#30D9D4" fill-opacity=".25" stroke="#30D9D4" stroke-width="1.5" d="M213.524 469.392v10.596c0 .559-.453 1.012-1.012 1.012-.559 0-1.012.453-1.012 1.012v37.476c0 .559.453 1.012 1.012 1.012.559 0 1.012.453 1.012 1.012v42.868a2 2 0 0 1-2 2h-34.326c-.729 0-1.4-.396-1.751-1.034l-10.377-18.813a2.001 2.001 0 0 0-1.751-1.034h-42.586a2 2 0 0 1-1.999-1.943l-1.175-41.24a2 2 0 0 1 1.999-2.057h50.206a2 2 0 0 0 2-2v-28.867a2 2 0 0 1 2-2h37.76a2 2 0 0 1 2 2Z"/><path fill="#E44C4D" fill-opacity=".25" stroke="#E44C4D" stroke-width="1.5" d="M678.69 195.495v-2.186a2 2 0 0 0-2-2h-40.467a2 2 0 0 0-2 2v82.227a2 2 0 0 0 2 2h52.454a2 2 0 0 0 2-2v-76.041a2 2 0 0 0-2-2h-7.987a2 2 0 0 1-2-2Z"/><path fill="#E44C4D" d="M657.918 230.794h2.672V238h1.824v-7.206h2.672v-1.521h-7.168v1.521Z"/><path fill="#30D9D4" d="M170.493 520.328c-.243-2.015-1.768-3.174-3.788-3.174-2.305 0-4.065 1.627-4.065 4.483 0 2.846 1.73 4.483 4.065 4.483 2.237 0 3.588-1.488 3.788-3.094l-1.866-.009c-.175.934-.908 1.47-1.892 1.47-1.326 0-2.225-.984-2.225-2.85 0-1.816.887-2.851 2.238-2.851 1.009 0 1.738.584 1.879 1.542h1.866Zm.883-1.534h2.672V526h1.824v-7.206h2.672v-1.521h-7.168v1.521Z"/></g><defs><linearGradient id="c" x1="376.208" x2="376.208" y1="470.5" y2="432.622" gradientUnits="userSpaceOnUse"><stop stop-color="#22252B"/><stop offset="1" stop-color="#22252B" stop-opacity="0"/></linearGradient><linearGradient id="d" x1="557.498" x2="596.998" y1="105" y2="105" gradientUnits="userSpaceOnUse"><stop stop-color="#272A30"/><stop offset="1" stop-color="#272A30" stop-opacity="0"/></linearGradient></defs></svg>