<svg xmlns="http://www.w3.org/2000/svg" width="708" height="708" fill="none"><path fill="#181B21" fill-rule="evenodd" d="M702 180.917v76.873l-51.503-3.243v-28.231h-89.271v-22.89h-35.098v22.127h-46.161v-12.399h-1.717v7.439h-4.006l-47.306 47.879v19.838h-14.115l.381-53.22h4.006v-2.098h-4.006v-18.694h-2.861v28.995h-1.717v1.144h-5.532v2.861h7.249v22.127h-4.96v11.064h-20.028v-3.243h-2.099v9.919h-14.115v2.098h4.196v40.249l-4.196 4.196h-18.884v5.913h-.763v4.578h.763v49.786h-15.642v-2.098h-4.387v2.098h.763v21.555h-33.572v-21.555h.763v-2.098h-4.578v2.098h-14.307v-3.052h-2.289v-3.243h2.289v-4.196h-2.289v-39.485h2.289v-4.578h-2.289v-6.677h-25.56v-44.063h5.341v-1.717h-21.173l-1.908-1.907v-14.879h-1.335v18.503H9.004v-14.115l-2.289.381L5 263.512l4.005-.763v-57.416h39.867v36.815h45.59l.356-.091a43.509 43.509 0 0 0 14.777 13.405l-1.208 2.137 2.861 1.526 1.255-2.196a43.143 43.143 0 0 0 18.012 3.913c6.192 0 12.082-1.3 17.409-3.642l1.284 1.925 2.861-1.526-1.144-1.86c10.699-5.728 18.711-15.821 21.658-27.9l3.52.766.573-2.861-3.508-.702c.173-.991.312-1.994.417-3.007l.419-.106h16.214V194.27h-21.745v-47.306h10.491v-3.243h-3.052v1.907h-18.503v-1.907h-1.335v-15.069h1.335v-2.289h-1.335V99.848h1.335v-2.48h-1.335V83.445h1.335v-2.48h-1.335V67.421h1.335v-1.145h17.74v.954h2.48v-.954h19.265v.954h2.48v-.954H221.5v30.711h-1.335v2.67h2.48v-5.34h1.716V92.6h15.833v2.289h1.526v4.769h1.335V92.6h8.202V74.288h-1.526V90.12h-1.335v1.335h-24.035V89.74h-1.144V64.56h-10.873V52.925h37.387v2.67h.954v-4.578h45.78l102.624 33 60.086 89.462h4.769v7.248h14.306v12.208h2.098v-12.208h26.514v-3.052h57.798v-7.439h17.358v24.035h44.826v-3.052h-.953v-2.862h.953v-1.716h-.953v-2.862h.953v-2.861H702ZM269.761 287.356v1.907h5.151v26.896h2.098v-22.318h1.335v-3.242h18.121v2.098h3.815v-2.098h49.977v25.56h2.67v-26.705h4.197v-2.48h-4.197v1.526h-77.253v-1.144h-2.289v-1.145h-1.336v1.145h-2.289Zm83.549-40.821v-39.676h1.144v35.098l2.289 2.289h9.919l1.526-1.526h.763v1.526h21.746v2.289h-4.96v17.74h-2.289v-17.74H353.31Zm76.681-13.734v2.099h6.486v-44.636h-23.272v-22.127h-58.56v-14.879h-23.271v-27.277h-41.012v27.277h-17.167v78.399h-3.624l3.624 3.624v17.358h-1.526v1.526h-18.694v1.336h18.694v1.716h1.144v6.867h2.671v-60.086h2.861v-45.589h22.127v1.526h3.434v-6.677h-9.919v-1.716h-1.717v-21.555h1.717v-2.289h33.381v2.289h2.098v21.555h-1.335v1.716h-3.815v6.677h3.815v-1.526h21.555v11.826h4.005v6.867h1.336v-6.867h23.843v1.526h2.289v-1.526h27.659v2.098h2.289v19.075h-15.641v2.289H409.2v2.48h1.716v-2.48h1.145v2.48h2.48v-2.48h18.312v2.48h1.335v36.624h-4.197Zm-47.878-40.82v2.098h-14.306v14.688h-1.908v-14.688h-9.346v2.48h-8.584v-4.578h-1.526v-1.526h-12.59v1.526h-1.335v26.896h1.335v1.526h3.243v1.144h-6.295v-32.618h17.168v-1.526h5.722v-3.243h1.336v5.913h1.526v1.908h25.56Zm-34.526 29.185v-1.145h-4.196v1.145h4.196Zm-89.652 11.445v-1.145h-23.463l-.381-.381v-.573h-1.526v27.85h1.335v-2.861h6.295v-.954h-4.006l-2.289-2.289v-18.503h1.717v-1.144h22.318Zm-35.48-106.63v4.769h2.098v1.335h16.214v-1.335h1.526v-4.006h-.763v-.763h1.717v7.439h-20.792v13.353H198.23v-1.145h.763v-1.335h2.098l1.335 1.335h17.359v-1.335h1.716v-15.641h-1.716v-2.671h2.67Z" clip-rule="evenodd"/><mask id="a" width="698" height="365" x="4" y="51" maskUnits="userSpaceOnUse" style="mask-type:alpha"><path fill="#181B21" fill-rule="evenodd" d="M702 180.917v76.873l-51.503-3.243v-28.231h-89.271v-22.89h-35.098v22.127h-46.161v-12.399h-1.717v7.439h-4.006l-47.306 47.879v19.838h-14.115l.381-53.22h4.006v-2.098h-4.006v-18.694h-2.861v28.995h-1.717v1.144h-5.532v2.861h7.249v22.127h-4.96v11.064h-20.028v-3.243h-2.099v9.919h-14.115v2.098h4.196v40.249l-4.196 4.196h-18.884v5.913h-.763v4.578h.763v49.786h-15.642v-2.098h-4.387v2.098h.763v21.555h-33.572v-21.555h.763v-2.098h-4.578v2.098h-14.307v-3.052h-2.289v-3.243h2.289v-4.196h-2.289v-39.485h2.289v-4.578h-2.289v-6.677h-25.56v-44.063h5.341v-1.717h-21.173l-1.908-1.907v-14.879h-1.335v18.503H9.004v-14.115l-2.289.381L5 263.512l4.005-.763v-57.416h39.867v36.815h45.59l.356-.091a43.509 43.509 0 0 0 14.777 13.405l-1.208 2.137 2.861 1.526 1.255-2.196a43.143 43.143 0 0 0 18.012 3.913c6.192 0 12.082-1.3 17.409-3.642l1.284 1.925 2.861-1.526-1.144-1.86c10.699-5.728 18.711-15.821 21.658-27.9l3.52.766.573-2.861-3.508-.702c.173-.991.312-1.994.417-3.007l.419-.106h16.214V194.27h-21.745v-47.306h10.491v-3.243h-3.052v1.907h-18.503v-1.907h-1.335v-15.069h1.335v-2.289h-1.335V99.848h1.335v-2.48h-1.335V83.445h1.335v-2.48h-1.335V67.421h1.335v-1.145h17.74v.954h2.48v-.954h19.265v.954h2.48v-.954H221.5v30.711h-1.335v2.67h2.48v-5.34h1.716V92.6h15.833v2.289h1.526v4.769h1.335V92.6h8.202V74.288h-1.526V90.12h-1.335v1.335h-24.035V89.74h-1.144V64.56h-10.873V52.925h37.387v2.67h.954v-4.578h45.78l102.624 33 60.086 89.462h4.769v7.248h14.306v12.208h2.098v-12.208h26.514v-3.052h57.798v-7.439h17.358v24.035h44.826v-3.052h-.953v-2.862h.953v-1.716h-.953v-2.862h.953v-2.861H702ZM269.761 289.263v-1.907h2.289v-1.145h1.336v1.145h2.289v1.144h77.253v-1.526h4.197v2.48h-4.197v26.705h-2.67v-25.56h-49.977v2.098h-3.815v-2.098h-18.121v3.242h-1.335v22.318h-2.098v-26.896h-5.151Zm83.549-82.404v39.676h30.138v17.74h2.289v-17.74h4.96v-2.289h-21.746v-1.526h-.763l-1.526 1.526h-9.919l-2.289-2.289v-35.098h-1.144Zm76.681 28.041v-2.099h4.197v-36.624h-1.335v-2.48h-18.312v2.48h-2.48v-2.48h-1.145v2.48H409.2v-2.48h-13.734v-2.289h15.641v-19.075h-2.289v-2.098h-27.659v1.526h-2.289v-1.526h-23.843v6.867h-1.336v-6.867h-4.005v-11.826h-21.555v1.526h-3.815v-6.677h3.815v-1.716h1.335v-21.555h-2.098v-2.289h-33.381v2.289h-1.717v21.555h1.717v1.716h9.919v6.677h-3.434v-1.526h-22.127v45.589h-2.861v60.086h-2.671v-6.867h-1.144v-1.716h-18.694v-1.336h18.694v-1.526h1.526v-17.358l-3.624-3.624h3.624v-78.399h17.167v-27.277h41.012v27.277h23.271v14.879h58.56v22.127h23.272V234.9h-6.486Zm-47.878-40.821v-2.098h-25.56v-1.908h-1.526v-5.913h-1.336v3.243h-5.722v1.526h-17.168v32.618h6.295v-1.144h-3.243v-1.526h-1.335v-26.896h1.335v-1.526h12.59v1.526h1.526v4.578h8.584v-2.48h9.346v14.688h1.908v-14.688h14.306Zm-34.526 25.942v1.145h-4.196v-1.145h4.196Zm-89.652 11.445v1.145h-22.318v1.144H233.9v18.503l2.289 2.289h4.006v.954H233.9v2.861h-1.335v-27.85h1.526v.573l.381.381h23.463Zm43.109 80.878v2.48h-3.815v-9.538h3.815v2.48h25.179v-2.48h4.388v9.538h-4.388v-2.48h-25.179Zm-78.589-186.363v4.769h2.098v1.335h16.214v-1.335h1.526v-4.006h-.763v-.763h1.717v7.439h-20.792v13.353H198.23v-1.145h.763v-1.335h2.098l1.335 1.335h17.359v-1.335h1.716v-15.641h-1.716v-2.671h2.67Z" clip-rule="evenodd"/></mask><g mask="url(#a)"><circle cx="372.958" cy="140.287" r="22.509" fill="#272A30" transform="rotate(180 372.958 140.287)"/><path fill="#272A30" d="M699.141 193.697h-2.289v-2.289h2.289zm-26.705 0h-2.289v-2.289h2.289zm-25.18 0h-2.289v-2.289h2.289zm6.869 27.468h-2.289v-2.289h2.289zm3.814 22.89h-2.289v-2.289h2.289zm-26.707-22.89h-2.289v-2.289h2.289zm-17.546 0h-2.289v-2.289h2.289zm-24.418 0h-2.289v-2.289h2.289zm-16.024 0h-2.289v-2.289h2.289zm-6.103-35.86h-2.289v-2.289h2.289zm-12.588-5.342h-2.289v-2.289h2.289zm-11.448 0h-2.289v-2.289h2.289zm-14.876 0h-2.289v-2.289h2.289zm-15.641 0h-2.289v-2.289h2.289zM515 194h-35v-14h35zm-120.678-19.378h-6.486v-3.433h6.486zM384 168h-29v-5h29z"/><path fill="#272A30" d="M361.514 163.177h-6.867v-3.815h6.867zm21.746 99.191h-3.433v-13.352h3.433zm-26.26 0h-3.433v-13.352H357z"/><path stroke="#272A30" d="M275 264v23.5"/><path fill="#272A30" d="M349.305 304.714h-5.341v-12.208h5.341zm-5.342-1.907h-5.723v-5.341h5.723zm-1.525-5.341h-4.96v-6.104h4.96z"/><path fill="#272A30" d="M337.479 298.61h-7.249v-7.63h7.249zm-6.104-16.404H322.6v-8.775h8.775zm-18.285-42.739-10.528-2.223.388-1.835 10.528 2.222zm17.521-41.192h-7.63V189.5h7.63zm-32.808-30.901h-8.012v-8.775h8.012zm-30.52 9.537h-8.012v-8.775h8.012zm-101.097-32.809h-8.393v-8.012h8.393zm.761-19.456h-9.919v-11.063h9.919zm25.942-47.306h-10.682V66.277h10.682zm24.035-6.485h-7.249v-4.197h7.249zm1.597 29.105-10.297-.231.617-27.461 10.297.231zm-.46 44.142-7.348-2.504 2.396-7.034 7.348 2.504zm-50.987-48.069-9.813-.844.913-10.6 9.812.845zM84.162 288.691h-9.919v-9.919h9.92zm-12.209 0H55.167v-9.919h16.786zm17.549-38.913h-7.63v-7.63h7.63zm-60.278 21.458L6.7 274.368l-1.51-10.855 22.526-3.133zm62.567-22.221h-2.289v-2.289h2.289zm-23.27-.381h-2.289v-2.289h2.289zm-26.323 0h-2.29v-2.289h2.29zm147.868-11.064-8.312-.507.535-8.759 8.311.507zm78.743-61.04h-1.526v-4.96h1.526zm104.15-51.884h-14.116v-12.971h14.116zm14.115-11.064h-8.393v-8.775h8.393zm-25.943-3.052h-9.538v-10.3h9.538zm1.525-10.3h-6.486v-6.104h6.486zm-43.107 0h-6.486v-6.104h6.486zm1.906-6.104h-7.249V85.35h7.249z"/><path fill="#272A30" d="M328.703 85.352h-27.849V73.144h27.849zm-91.715 82.022-5.395-27.6 11.982-2.342 5.394 27.6zm85.992 28.994h-4.96v-6.104h4.96zm14.879 152.6h-8.775v-8.393h8.775zm-11.826 56.844h-8.775v-7.63h8.775z"/><path fill="#272A30" d="M329.086 348.205h-9.919v-9.538h9.919z"/><path fill="#272A30" d="M336.334 340.575h-7.63v-3.815h7.63zm-30.52 8.393h-3.433v-1.907h3.433zm24.415-51.502h-6.104v-6.104h6.104zm8.775 5.238-4.729 3.36-3.36-4.728 4.729-3.36zm4.197 4.541-3.854 4.336-4.336-3.854 3.854-4.336z"/><path fill="#272A30" d="m349.379 308.534-2.4 6.217-6.217-2.4 2.4-6.217zm81.631-117.587-10.682.053-.132-26.574 10.682-.053zm-29.821-17.072-6.387 1.129-.538-3.046 6.387-1.129zm125.131 35.846h-5.341v-1.907h5.341zm0 6.485h-5.341v-1.907h5.341zM523 226h-15v-4h15zm-20 0h-14v-3h14zm-15 0h-8v-9h8z"/><circle cx="559.13" cy="179.582" r="1.907" fill="#272A30" transform="rotate(180 559.13 179.582)"/><circle cx="355.028" cy="267.709" r="1.907" fill="#272A30" transform="rotate(180 355.028 267.709)"/><circle cx="314.398" cy="243.865" r="6.676" fill="#272A30" transform="rotate(180 314.398 243.865)"/><circle cx="300.664" cy="243.865" r="6.676" fill="#272A30" transform="rotate(180 300.664 243.865)"/><circle cx="338.241" cy="150.969" r="1.907" fill="#272A30" transform="rotate(180 338.241 150.969)"/><circle cx="247.827" cy="229.177" r="1.907" fill="#272A30" transform="rotate(180 247.827 229.177)"/><circle cx="243.247" cy="229.177" r="1.907" fill="#272A30" transform="rotate(180 243.247 229.177)"/><circle cx="230.276" cy="286.402" r="1.907" fill="#272A30" transform="rotate(180 230.276 286.402)"/><circle cx="226.462" cy="286.402" r="1.907" fill="#272A30" transform="rotate(180 226.462 286.402)"/><circle cx="222.645" cy="286.402" r="1.907" fill="#272A30" transform="rotate(180 222.645 286.402)"/><circle cx="214.634" cy="286.402" r="1.907" fill="#272A30" transform="rotate(180 214.634 286.402)"/><circle cx="210.819" cy="286.402" r="1.907" fill="#272A30" transform="rotate(180 210.819 286.402)"/><circle cx="80.727" cy="245.582" r="2.289" fill="#272A30" transform="rotate(180 80.727 245.582)"/><circle cx="333.282" cy="151.351" r="1.907" fill="#272A30" transform="rotate(180 333.282 151.351)"/><circle cx="350.067" cy="151.351" r="1.907" fill="#272A30" transform="rotate(180 350.067 151.351)"/><circle cx="341.675" cy="151.351" r="1.907" fill="#272A30" transform="rotate(180 341.675 151.351)"/><path stroke="#272A30" d="M223.409 64.941h21.937m-37.577 223.75v-17.549h10.491m0-13.353h-10.491l-.001-73.629M367 244.5v-43.554h-13v6.104m-.689.954h-5.341v74.774h-66.763v-78.017h-5.723M353.5 246.5V287m-120.553-16.812v-11.826m24.988-26.324h12.208M256.791 288h12.971m30.712 93.586V349.35h27.087v32.236M417.212 234h12.78m-75.537-50.031v-6.867m2.671 111.398h12.208"/></g><mask id="c" width="79" height="54" x="488" y="292" maskUnits="userSpaceOnUse" style="mask-type:alpha"><path fill="url(#b)" d="M566.758 345.529h78.208v53.41h-78.208z" transform="rotate(180 566.758 345.529)"/></mask><g mask="url(#c)"><path fill="#181B21" fill-rule="evenodd" d="M973.055 422.017v76.873l-51.503-3.243v-28.231h-89.271v-22.89h-35.098v22.127h-46.162v-12.399h-1.716v7.439h-4.006l-47.306 47.879v19.838h-14.116l.382-53.22h4.006v-2.098h-4.006v-18.693h-2.861v28.994h-1.717v1.144h-5.532v2.861h7.249v22.127h-4.96v11.064h-20.029v-3.243h-2.098v9.919h-14.115v2.098h4.196v40.249l-4.196 4.196h-18.885v5.914h-.763v4.578h.763v49.785H605.67v-2.098h-4.388v2.098h.763v21.555h-33.572v-21.555h.763v-2.098h-4.578v2.098h-14.306v-3.052h-2.289v-3.242h2.289v-4.197h-2.289v-39.485h2.289v-4.578h-2.289v-6.676h-25.56v-44.064h5.341v-1.717H506.67l-1.907-1.907v-14.879h-1.335v18.503H280.059v-14.115l-2.289.381-1.717-11.445 4.006-.763v-57.416h39.867v36.815h45.589l.356-.09a43.511 43.511 0 0 0 14.776 13.404l-1.208 2.137 2.862 1.526 1.254-2.196a43.146 43.146 0 0 0 18.012 3.913c6.193 0 12.082-1.3 17.409-3.642l1.284 1.925 2.861-1.526-1.144-1.86c10.699-5.728 18.712-15.821 21.658-27.899l3.521.765.572-2.861-3.508-.702c.173-.991.312-1.993.417-3.006l.421-.107h16.214V435.37h-21.746v-47.306h10.492v-3.243h-3.052v1.908h-18.503v-1.908h-1.336v-15.069h1.336v-2.289h-1.336v-26.514h1.336v-2.48h-1.336v-13.925h1.336v-2.48h-1.336v-13.543h1.336v-1.145h17.739v.954h2.48v-.954h19.266v.954h2.48v-.954h22.127v30.711h-1.335v2.671h2.479v-5.341h1.717V333.7h15.832v2.289h1.526v4.769h1.336V333.7h8.202v-18.312h-1.526v15.832h-1.335v1.336h-24.035v-1.717h-1.144V305.66h-10.873v-11.636h37.387v2.67h.954v-4.578h45.78l102.623 33 60.087 89.462h4.768v7.249h14.307v12.208h2.098v-12.208h26.514v-3.052h57.797v-7.44h17.359v24.035h44.826v-3.052h-.954v-2.861h.954v-1.717h-.954v-2.861h.954v-2.862h75.156ZM540.814 530.363v-1.907h2.289v-1.145h1.336v1.145h2.289v1.144h77.253v-1.526h4.197v2.48h-4.197v26.705h-2.67v-25.56h-49.977v2.098h-3.815v-2.098h-18.121v3.242h-1.335v22.318h-2.098v-26.896h-5.151Zm83.549-82.404v39.676h30.138v17.74h2.289v-17.74h4.96v-2.289h-21.746v-1.526h-.763l-1.526 1.526h-9.919l-2.289-2.289v-35.098h-1.144ZM701.045 476v-2.099h4.196v-36.624h-1.335v-2.479h-18.312v2.479h-2.48v-2.479h-1.145v2.479h-1.716v-2.479h-13.734v-2.289h15.641v-19.075h-2.289v-2.099h-27.659v1.526h-2.289v-1.526H626.08v6.867h-1.336v-6.867h-4.005v-11.826h-21.555v1.526h-3.815v-6.676h3.815v-1.717h1.335v-21.555h-2.098v-2.289H565.04v2.289h-1.717v21.555h1.717v1.717h9.919v6.676h-3.434v-1.526h-22.127v45.589h-2.861v60.086h-2.671v-6.867h-1.144v-1.716h-18.694v-1.336h18.694v-1.526h1.526v-17.358l-3.624-3.624h3.624v-78.398h17.167v-27.278h41.012v27.278h23.271v14.878h58.56v22.127h23.272V476h-6.485Zm-47.879-40.821v-2.098h-25.56v-1.908h-1.526v-5.913h-1.336v3.243h-5.722v1.526h-17.168v32.618h6.295v-1.144h-3.243v-1.526h-1.335v-26.896h1.335v-1.526h12.59v1.526h1.526v4.578h8.584v-2.48h9.346v14.688h1.908v-14.688h14.306Zm-34.526 25.942v1.145h-4.196v-1.145h4.196Zm-89.652 11.445v1.145H506.67v1.144h-1.717v18.503l2.289 2.289h4.006v.954h-6.295v2.861h-1.335v-27.85h1.526v.573l.382.381h23.462Zm43.109 80.878v2.48h-3.815v-9.538h3.815v2.48h25.179v-2.48h4.388v9.538h-4.388v-2.48h-25.179Zm-78.589-186.363v4.769h2.098v1.335h16.214v-1.335h1.526v-4.006h-.763v-.763h1.717v7.44h-20.792v13.352h-24.225v-1.144h.763v-1.336h2.098l1.335 1.336h17.359v-1.336h1.716v-15.641h-1.716v-2.671h2.67Z" clip-rule="evenodd"/></g><mask id="e" width="78" height="98" x="546" y="560" maskUnits="userSpaceOnUse" style="mask-type:alpha"><path fill="url(#d)" d="M623.221 657.984h76.682v97.664h-76.682z" transform="rotate(180 623.221 657.984)"/></mask><g mask="url(#e)"><path fill="#181B21" fill-rule="evenodd" d="M973.055 422.017v76.873l-51.503-3.243v-28.231h-89.271v-22.89h-35.098v22.127h-46.162v-12.399h-1.716v7.439h-4.006l-47.306 47.879v19.838h-14.116l.382-53.22h4.006v-2.098h-4.006v-18.693h-2.861v28.994h-1.717v1.144h-5.532v2.861h7.249v22.128h-4.96v11.063h-20.029v-3.243h-2.098v9.919h-14.115v2.099h4.196v40.248l-4.196 4.196h-18.885v5.914h-.763v4.578h.763v49.785H605.67v-2.098h-4.388v2.098h.763v21.555h-33.572v-21.555h.763v-2.098h-4.578v2.098h-14.306v-3.052h-2.289v-3.242h2.289v-4.197h-2.289v-39.485h2.289v-4.578h-2.289v-6.676h-25.56v-44.064h5.341v-1.716H506.67l-1.907-1.908v-14.878h-1.335v18.502H280.059v-14.115l-2.289.381-1.717-11.445 4.006-.763v-57.416h39.867v36.815h45.589l.356-.09a43.511 43.511 0 0 0 14.776 13.404l-1.208 2.137 2.862 1.526 1.254-2.196a43.146 43.146 0 0 0 18.012 3.913c6.193 0 12.082-1.3 17.409-3.642l1.284 1.925 2.861-1.526-1.144-1.859c10.699-5.729 18.712-15.822 21.658-27.9l3.521.765.572-2.861-3.508-.702c.173-.991.312-1.993.417-3.006l.421-.107h16.214V435.37h-21.746v-47.306h10.492v-3.243h-3.052v1.908h-18.503v-1.908h-1.336v-15.069h1.336v-2.289h-1.336v-26.514h1.336v-2.48h-1.336v-13.925h1.336v-2.48h-1.336v-13.543h1.336v-1.144h17.739v.953h2.48v-.953h19.266v.953h2.48v-.953h22.127v30.71h-1.335v2.671h2.479v-5.341h1.717V333.7h15.832v2.289h1.526v4.769h1.336V333.7h8.202v-18.312h-1.526v15.832h-1.335v1.336h-24.035v-1.717h-1.144V305.66h-10.873v-11.636h37.387v2.671h.954v-4.578h45.78l102.623 32.999 60.087 89.462h4.768v7.249h14.307v12.208h2.098v-12.208h26.514v-3.052h57.797v-7.44h17.359v24.035h44.826v-3.052h-.954v-2.861h.954v-1.717h-.954v-2.861h.954v-2.862h75.156ZM540.814 530.364v-1.908h2.289v-1.144h1.336v1.144h2.289v1.145h77.253v-1.526h4.197v2.479h-4.197v26.705h-2.67v-25.56h-49.977v2.098h-3.815v-2.098h-18.121v3.243h-1.335v22.317h-2.098v-26.895h-5.151Zm83.549-82.405v39.676h30.138v17.74h2.289v-17.74h4.96v-2.289h-21.746v-1.526h-.763l-1.526 1.526h-9.919l-2.289-2.289v-35.098h-1.144ZM701.045 476v-2.099h4.196v-36.624h-1.335v-2.479h-18.312v2.479h-2.48v-2.479h-1.145v2.479h-1.716v-2.479h-13.734v-2.289h15.641v-19.075h-2.289v-2.099h-27.659v1.526h-2.289v-1.526H626.08v6.867h-1.336v-6.867h-4.005v-11.826h-21.555v1.526h-3.815v-6.676h3.815v-1.717h1.335v-21.555h-2.098v-2.289H565.04v2.289h-1.717v21.555h1.717v1.717h9.919v6.676h-3.434v-1.526h-22.127v45.589h-2.861v60.086h-2.671v-6.867h-1.144v-1.716h-18.694v-1.336h18.694v-1.526h1.526v-17.358l-3.624-3.624h3.624v-78.398h17.167v-27.278h41.012v27.278h23.271v14.878h58.56v22.127h23.272V476h-6.485Zm-47.879-40.821v-2.098h-25.56v-1.908h-1.526v-5.913h-1.336v3.243h-5.722v1.526h-17.168v32.618h6.295v-1.144h-3.243v-1.526h-1.335v-26.896h1.335v-1.526h12.59v1.526h1.526v4.578h8.584v-2.48h9.346v14.688h1.908v-14.688h14.306Zm-34.526 25.942v1.145h-4.196v-1.145h4.196Zm-89.652 11.445v1.145H506.67v1.144h-1.717v18.503l2.289 2.289h4.006v.954h-6.295v2.861h-1.335v-27.85h1.526v.573l.382.381h23.462Zm43.109 80.878v2.48h-3.815v-9.537h3.815v2.479h25.179v-2.479h4.388v9.537h-4.388v-2.48h-25.179Zm-78.589-186.363v4.769h2.098v1.335h16.214v-1.335h1.526v-4.006h-.763v-.763h1.717v7.44h-20.792v13.352h-24.225v-1.144h.763v-1.336h2.098l1.335 1.336h17.359v-1.336h1.716v-15.641h-1.716v-2.671h2.67Z" clip-rule="evenodd"/></g><path fill="#181B21" fill-rule="evenodd" d="m486.452 294.032-3.434.954v22.508h-2.48v2.099c.382.063 1.145.381 1.145 1.144 0 .763-.763 1.081-1.145 1.145v.763c.573.19 1.717.724 1.717 1.335 0 .61-1.144 1.144-1.717 1.335v.382c.573.127 1.717.534 1.717 1.144 0 .61-1.144 1.017-1.717 1.145v.381c.573.127 1.717.534 1.717 1.145 0 .61-1.144.763-1.717.763v.953c.763.128 2.289.408 2.289 1.324 0 .916-1.526 1.22-2.289 1.156v1.145c.763.063 2.289.381 2.289 1.144 0 .763-1.526.954-2.289.954v.763h2.289v3.624h2.289v1.526h-8.393v25.942h42.538v-5.15h5.913v29.757h.954v3.052h-.954v20.792h.954v2.289h-.954v23.462l.954.572v2.862h-3.052v-.954h-20.792v.954h-3.052v-.954h-2.48v14.688h7.63v24.797h-2.48v32.046h3.052v2.289h36.434l1.144-1.144v-4.769h5.341v3.624h4.006v12.399l6.676 6.676v29.376l3.243 3.242h9.537v53.601h1.336V591.03h26.323v30.711h1.526v-53.029h8.012l4.578-3.242v-42.347l7.248-7.248v-96.329h1.145v2.289h24.225v-26.133h-4.578l-.763-1.526h12.208v-2.098h1.526v-13.353h-1.526v-2.289h-31.092v.954h-3.052v-.954h-17.74v.954h-3.052v-.954h-52.647v.954h-3.434v-3.434h.954v-31.092H498.66v-1.526h2.289v-2.861h.763v-6.295l1.335-1.335v-6.867l-1.335-1.335v-3.815H493.7v-11.827h22.89v-1.717h-3.052v-11.254h-27.086Zm113.304 260.374v-1.717h-28.04v1.717h-2.48v-8.202h2.48v2.861h28.04v-2.861h2.098v8.202h-2.098Zm-73.82-91.941H524.6v3.052h18.312v-5.723h-.381v-.763l.763-.763.763.763v1.717h4.578l2.098 2.098v24.225h-2.67v4.197h-5.914v-6.104h-12.971l-1.335 1.335h-2.098v-1.717h-4.197v-24.225h.763l.382-1.144h2.67l.573.572v2.48Zm16.404-45.399v-2.289h8.966c.127 9.283.305 27.85 0 27.85-.306 0-2.162 2.034-3.053 3.052h-4.387v1.335h-1.526v-3.624h-.763v-2.289h.763v-21.364h-.763v-2.671h.763Zm46.734-22.699v6.676h20.22v7.058h-32.428v1.526h43.11v3.815h1.335v-18.121h5.15v-.954h-5.15v-.572h-2.861v.572h-17.931v-.572h-3.052v.572h-8.393Zm-47.688-.954v3.243h.954v11.254h26.515v-6.676h12.971v-7.058h-36.815v-.763h-3.625Z" clip-rule="evenodd"/><mask id="f" width="179" height="329" x="476" y="294" maskUnits="userSpaceOnUse" style="mask-type:alpha"><path fill="#181B21" fill-rule="evenodd" d="m486.452 294.032-3.434.954v22.508h-2.48v2.099c.382.063 1.145.381 1.145 1.144 0 .763-.763 1.081-1.145 1.145v.763c.573.19 1.717.724 1.717 1.335 0 .61-1.144 1.144-1.717 1.335v.382c.573.127 1.717.534 1.717 1.144 0 .61-1.144 1.017-1.717 1.145v.381c.573.127 1.717.534 1.717 1.145 0 .61-1.144.763-1.717.763v.953c.763.128 2.289.408 2.289 1.324 0 .916-1.526 1.22-2.289 1.156v1.145c.763.063 2.289.381 2.289 1.144 0 .763-1.526.954-2.289.954v.763h2.289v3.624h2.289v1.526h-8.393v25.942h42.538v-5.15h5.913v29.757h.954v3.052h-.954v20.792h.954v2.289h-.954v23.462l.954.572v2.862h-3.052v-.954h-20.792v.954h-3.052v-.954h-2.48v14.688h7.63v24.797h-2.48v32.046h3.052v2.289h36.434l1.144-1.144v-4.769h5.341v3.624h4.006v12.399l6.676 6.676v29.376l3.243 3.242h9.537v53.601h1.336V591.03h26.323v30.711h1.526v-53.029h8.012l4.578-3.242v-42.347l7.248-7.248v-96.329h1.145v2.289h24.225v-26.133h-4.578l-.763-1.526h12.208v-2.098h1.526v-13.353h-1.526v-2.289h-31.092v.954h-3.052v-.954h-17.74v.954h-3.052v-.954h-52.647v.954h-3.434v-3.434h.954v-31.092H498.66v-1.526h2.289v-2.861h.763v-6.295l1.335-1.335v-6.867l-1.335-1.335v-3.815H493.7v-11.827h22.89v-1.717h-3.052v-11.254h-27.086Zm113.304 260.374v-1.717h-28.04v1.717h-2.48v-8.202h2.48v2.861h28.04v-2.861h2.098v8.202h-2.098Zm-73.82-91.941H524.6v3.052h18.312v-5.723h-.381v-.763l.763-.763.763.763v1.717h4.578l2.098 2.098v24.225h-2.67v4.197h-5.914v-6.104h-12.971l-1.335 1.335h-2.098v-1.717h-4.197v-24.225h.763l.382-1.144h2.67l.573.572v2.48Zm16.404-45.399v-2.289h8.966c.127 9.283.305 27.85 0 27.85-.306 0-2.162 2.034-3.053 3.052h-4.387v1.335h-1.526v-3.624h-.763v-2.289h.763v-21.364h-.763v-2.671h.763Zm46.734-22.699v6.676h20.22v7.058h-32.428v1.526h43.11v3.815h1.335v-18.121h5.15v-.954h-5.15v-.572h-2.861v.572h-17.931v-.572h-3.052v.572h-8.393Zm-47.688-.954v3.243h.954v11.254h26.515v-6.676h12.971v-7.058h-36.815v-.763h-3.625Z" clip-rule="evenodd"/></mask><g mask="url(#f)"><path fill="#272A30" d="M513.346 369.188h-28.994v-9.538h28.994zm3.052-62.185H496.56v-1.526h19.838zm128.565 108.728h-3.052v-6.867h3.052zm-86.459 15.116-6.084-.494.463-5.704 6.084.494zm8.377 2.232-6.104-.075.075-6.101 6.104.074zm78.082-26.504h-3.052v-6.867h3.052zm-19.457 0h-3.815v-6.867h3.815zm-56.08 100.334h-7.249v-7.249h7.249zm-29.916 9.919-2.507-.922.922-2.507 2.507.922zm5.117-4.196h-6.104v-20.601h6.104zM484.352 364.61h-2.671v-2.289h2.671z"/><circle cx="585.83" cy="431.754" r="6.867" fill="#272A30" transform="rotate(180 585.83 431.754)"/><path stroke="#272A30" d="M588.998 395h-7m-39 19.968v-7.058m8 7.09h26.396v-6h.604m42.738 90.852H596.32v25.751m-20.791 0v-26.514h-6.104v30.329h-17.55"/><path stroke="#272A30" d="M612.535 499.852v-78.78h-52.838v101.097h9.729M549.998 486v31"/></g><g class="labels"><path fill="#7F838B" d="M220.377 57.337h1.327c-.019-1.167-.978-1.972-2.436-1.972-1.435 0-2.486.793-2.48 1.981-.003.966.678 1.519 1.784 1.784l.712.179c.713.172 1.109.377 1.113.818-.004.48-.458.805-1.161.805-.719 0-1.236-.332-1.281-.987h-1.339c.035 1.416 1.048 2.148 2.636 2.148 1.598 0 2.538-.764 2.541-1.963-.003-1.09-.824-1.668-1.962-1.924l-.588-.14c-.569-.131-1.045-.342-1.036-.812 0-.422.374-.732 1.052-.732.661 0 1.067.3 1.118.815Zm4.478 4.759c1.214 0 2.032-.591 2.224-1.502l-1.259-.083c-.138.373-.489.569-.943.569-.681 0-1.112-.451-1.112-1.183v-.003h3.343v-.374c0-1.669-1.01-2.493-2.308-2.493-1.444 0-2.381 1.026-2.381 2.54 0 1.557.924 2.529 2.436 2.529Zm-1.09-3.046a1.037 1.037 0 0 1 1.058-1.007c.591 0 1 .422 1.003 1.007h-2.061Zm6.368 3.046c1.308 0 2.129-.767 2.193-1.895h-1.285c-.08.524-.425.818-.892.818-.636 0-1.048-.534-1.048-1.474 0-.927.416-1.457 1.048-1.457.499 0 .819.33.892.818h1.285c-.058-1.134-.917-1.88-2.199-1.88-1.489 0-2.41 1.033-2.41 2.539 0 1.492.905 2.53 2.416 2.53Zm2.984-.096h1.361v-2.777c0-.605.441-1.02 1.042-1.02.189 0 .447.032.575.074v-1.209a2.038 2.038 0 0 0-.428-.047c-.55 0-1 .32-1.179.926h-.051v-.856h-1.32V62Zm5.61.096c1.214 0 2.033-.591 2.224-1.502l-1.259-.083c-.137.373-.489.569-.943.569-.68 0-1.112-.451-1.112-1.183v-.003h3.343v-.374c0-1.669-1.01-2.493-2.307-2.493-1.445 0-2.381 1.026-2.381 2.54 0 1.557.923 2.529 2.435 2.529Zm-1.09-3.046a1.037 1.037 0 0 1 1.058-1.007c.591 0 1 .422 1.004 1.007h-2.062Zm6.762-1.96h-.924v-1.175h-1.361v1.176h-.672v1.023h.672v2.556c-.007.962.648 1.439 1.636 1.397.352-.013.601-.083.738-.128l-.214-1.013c-.067.013-.211.045-.339.045-.271 0-.46-.102-.46-.48v-2.377h.924V57.09ZM302.675 372h1.384v-2.32h1.01l1.24 2.32h1.527l-1.39-2.544c.745-.32 1.157-.968 1.157-1.863 0-1.301-.86-2.139-2.346-2.139h-2.582V372Zm1.384-3.433v-1.981h.933c.799 0 1.186.355 1.186 1.007 0 .648-.387.974-1.18.974h-.939Zm5.815 3.526c.726 0 1.196-.317 1.435-.774h.039V372h1.291v-3.311c0-1.17-.991-1.662-2.084-1.662-1.176 0-1.95.562-2.138 1.457l1.259.103c.093-.326.384-.566.873-.566.463 0 .728.233.728.636v.019c0 .316-.335.358-1.189.441-.971.09-1.844.416-1.844 1.512 0 .971.694 1.464 1.63 1.464Zm.39-.94c-.418 0-.719-.195-.719-.569 0-.383.317-.572.796-.639.297-.042.783-.112.946-.221v.521c0 .515-.425.908-1.023.908Zm3.35.847h1.362v-2.947c0-.543.345-.904.799-.904.447 0 .748.307.748.789V372h1.319v-2.998c0-.508.291-.853.787-.853.434 0 .76.271.76.818V372h1.359v-3.302c0-1.064-.633-1.671-1.547-1.671-.719 0-1.279.367-1.48.93h-.051c-.157-.569-.658-.93-1.333-.93-.661 0-1.163.351-1.368.93h-.057v-.866h-1.298V372Zm8.128 1.841h1.362v-2.627h.041c.189.409.601.866 1.394.866 1.118 0 1.991-.885 1.991-2.528 0-1.688-.911-2.525-1.988-2.525-.822 0-1.215.489-1.397.888h-.061v-.824h-1.342v6.75Zm1.333-4.296c0-.875.371-1.435 1.032-1.435.675 0 1.033.585 1.033 1.435 0 .857-.365 1.451-1.033 1.451-.655 0-1.032-.575-1.032-1.451ZM294.991 412h1.383v-2.704h2.81V412h1.38v-6.546h-1.38v2.701h-2.81v-2.701h-1.383V412Zm8.845.096c1.215 0 2.033-.591 2.225-1.502l-1.26-.083c-.137.374-.489.568-.943.568-.68 0-1.112-.45-1.112-1.182v-.003h3.343v-.374c0-1.668-1.01-2.493-2.307-2.493-1.445 0-2.381 1.026-2.381 2.541 0 1.556.923 2.528 2.435 2.528Zm-1.09-3.046a1.038 1.038 0 0 1 1.058-1.007c.591 0 1 .422 1.004 1.007h-2.062Zm5.551 3.043c.725 0 1.195-.317 1.435-.774h.038V412h1.291v-3.311c0-1.17-.991-1.662-2.084-1.662-1.176 0-1.949.562-2.138 1.457l1.259.103c.093-.326.384-.566.873-.566.463 0 .729.233.729.636v.019c0 .316-.336.358-1.189.441-.972.09-1.844.416-1.844 1.512 0 .971.693 1.464 1.63 1.464Zm.39-.94c-.419 0-.72-.195-.72-.569 0-.383.317-.572.796-.639.297-.042.783-.112.946-.221v.521c0 .515-.425.908-1.022.908Zm5.158.927c.793 0 1.205-.457 1.394-.866h.057V412h1.343v-6.546h-1.359v2.461h-.041c-.182-.399-.575-.888-1.397-.888-1.077 0-1.988.837-1.988 2.525 0 1.643.873 2.528 1.991 2.528Zm.432-1.084c-.668 0-1.032-.594-1.032-1.451 0-.85.358-1.435 1.032-1.435.661 0 1.032.56 1.032 1.435 0 .876-.377 1.451-1.032 1.451Zm7.485-2.505c-.122-.905-.85-1.464-2.091-1.464-1.256 0-2.083.582-2.08 1.528-.003.735.46 1.211 1.419 1.403l.85.169c.428.086.623.243.63.489-.007.291-.323.499-.799.499-.486 0-.809-.208-.892-.608l-1.339.071c.128.939.927 1.518 2.227 1.518 1.272 0 2.183-.649 2.187-1.617-.004-.71-.467-1.135-1.42-1.33l-.888-.179c-.457-.099-.626-.256-.623-.492-.003-.294.329-.486.751-.486.473 0 .754.259.821.575l1.247-.076Zm2.249.671c.004-.633.39-1.004.946-1.004.553 0 .879.355.876.959V412h1.362v-3.126c.003-1.15-.675-1.847-1.697-1.847-.745 0-1.244.351-1.467.93h-.058v-2.503h-1.323V412h1.361v-2.838Zm6.392 2.934c1.489 0 2.416-1.02 2.416-2.531 0-1.522-.927-2.538-2.416-2.538-1.489 0-2.416 1.016-2.416 2.538 0 1.511.927 2.531 2.416 2.531Zm.006-1.055c-.687 0-1.038-.629-1.038-1.486s.351-1.489 1.038-1.489c.675 0 1.026.632 1.026 1.489 0 .857-.351 1.486-1.026 1.486Zm5.826-3.95h-.924v-1.176h-1.361v1.176h-.672v1.023h.672v2.556c-.007.962.648 1.439 1.636 1.397.352-.013.601-.083.738-.128l-.214-1.013c-.067.013-.211.045-.339.045-.271 0-.46-.102-.46-.48v-2.377h.924v-1.023ZM293.995 342h2.797c1.47 0 2.253-.767 2.253-1.809 0-.968-.694-1.553-1.438-1.588v-.064c.68-.154 1.182-.636 1.182-1.407 0-.981-.729-1.678-2.173-1.678h-2.621V342Zm1.384-1.131v-1.739h1.16c.665 0 1.077.383 1.077.924 0 .492-.335.815-1.109.815h-1.128Zm0-2.676v-1.62h1.051c.614 0 .962.316.962.79 0 .517-.422.83-.987.83h-1.026Zm4.46 3.807h1.361v-4.909h-1.361V342Zm.684-5.542c.405 0 .738-.31.738-.69 0-.377-.333-.687-.738-.687-.403 0-.736.31-.736.687 0 .38.333.69.736.69Zm3.898 7.485c1.403 0 2.401-.639 2.401-1.895v-4.957h-1.352v.824h-.051c-.183-.399-.582-.888-1.403-.888-1.078 0-1.988.837-1.988 2.509 0 1.633.885 2.394 1.991 2.394.783 0 1.221-.393 1.4-.799h.057v.898c0 .674-.431.936-1.023.936-.6 0-.904-.262-1.016-.559l-1.259.169c.163.774.92 1.368 2.243 1.368Zm.029-3.036c-.668 0-1.032-.531-1.032-1.378 0-.834.358-1.419 1.032-1.419.662 0 1.033.56 1.033 1.419 0 .867-.378 1.378-1.033 1.378Zm5.402 1.093h2.796c1.47 0 2.253-.767 2.253-1.809 0-.968-.693-1.553-1.438-1.588v-.064c.681-.154 1.183-.636 1.183-1.407 0-.981-.729-1.678-2.174-1.678h-2.62V342Zm1.384-1.131v-1.739h1.16c.664 0 1.077.383 1.077.924 0 .492-.336.815-1.109.815h-1.128Zm0-2.676v-1.62h1.051c.614 0 .962.316.962.79 0 .517-.422.83-.988.83h-1.025Zm6.677 3.903c1.49 0 2.417-1.02 2.417-2.531 0-1.522-.927-2.538-2.417-2.538-1.489 0-2.416 1.016-2.416 2.538 0 1.511.927 2.531 2.416 2.531Zm.007-1.055c-.687 0-1.039-.629-1.039-1.486s.352-1.489 1.039-1.489c.674 0 1.026.632 1.026 1.489 0 .857-.352 1.486-1.026 1.486Zm4.167-3.95h-1.406l1.406 2.454L320.63 342h1.406l.952-1.697.969 1.697h1.39l-1.461-2.455 1.423-2.454h-1.397l-.924 1.716-.901-1.716ZM313.122 306l.486-1.493h2.362l.486 1.493h1.483l-2.257-6.546h-1.783l-2.26 6.546h1.483Zm.838-2.573.805-2.477h.051l.806 2.477h-1.662Zm6.649 2.669c1.308 0 2.129-.767 2.193-1.895h-1.285c-.08.524-.425.818-.892.818-.636 0-1.048-.534-1.048-1.474 0-.926.416-1.457 1.048-1.457.499 0 .819.329.892.818h1.285c-.058-1.134-.917-1.879-2.199-1.879-1.489 0-2.41 1.032-2.41 2.538 0 1.492.905 2.531 2.416 2.531Zm5.202 0c1.307 0 2.128-.767 2.192-1.895h-1.285c-.08.524-.425.818-.891.818-.636 0-1.049-.534-1.049-1.474 0-.926.416-1.457 1.049-1.457.498 0 .818.329.891.818h1.285c-.057-1.134-.917-1.879-2.199-1.879-1.489 0-2.41 1.032-2.41 2.538 0 1.492.905 2.531 2.417 2.531Zm5.22 0c1.215 0 2.033-.591 2.224-1.502l-1.259-.083c-.137.374-.489.568-.943.568-.68 0-1.112-.45-1.112-1.182v-.003h3.343v-.374c0-1.668-1.01-2.493-2.307-2.493-1.445 0-2.381 1.026-2.381 2.541 0 1.556.923 2.528 2.435 2.528Zm-1.09-3.046a1.038 1.038 0 0 1 1.058-1.007c.591 0 1 .422 1.004 1.007h-2.062Zm8.235-.559c-.121-.905-.85-1.464-2.09-1.464-1.256 0-2.084.582-2.081 1.528-.003.735.461 1.211 1.419 1.403l.851.169c.428.086.623.243.629.489-.006.291-.323.499-.799.499-.486 0-.808-.208-.891-.608l-1.34.071c.128.939.927 1.518 2.228 1.518 1.272 0 2.183-.649 2.186-1.617-.003-.71-.466-1.135-1.419-1.33l-.888-.179c-.457-.099-.627-.256-.624-.492-.003-.294.33-.486.751-.486.473 0 .755.259.822.575l1.246-.076Zm4.973 0c-.121-.905-.85-1.464-2.09-1.464-1.256 0-2.084.582-2.081 1.528-.003.735.46 1.211 1.419 1.403l.85.169c.429.086.624.243.63.489-.006.291-.323.499-.799.499-.486 0-.809-.208-.892-.608l-1.339.071c.128.939.927 1.518 2.228 1.518 1.272 0 2.183-.649 2.186-1.617-.003-.71-.467-1.135-1.419-1.33l-.889-.179c-.457-.099-.626-.256-.623-.492-.003-.294.329-.486.751-.486.473 0 .754.259.822.575l1.246-.076Zm-65.936-1.154h1.327c-.02-1.167-.978-1.972-2.436-1.972-1.435 0-2.486.793-2.48 1.982-.003.965.678 1.518 1.784 1.783l.712.179c.713.172 1.109.377 1.112.818-.003.479-.457.805-1.16.805-.719 0-1.237-.332-1.281-.987h-1.339c.035 1.416 1.048 2.148 2.636 2.148 1.598 0 2.538-.764 2.541-1.963-.003-1.09-.824-1.668-1.962-1.924l-.588-.14c-.569-.131-1.045-.342-1.036-.812 0-.422.374-.732 1.052-.732.661 0 1.067.3 1.118.815Zm4.852-.246h-.924v-1.176h-1.362v1.176h-.671v1.023h.671v2.556c-.006.962.649 1.439 1.637 1.397.351-.013.601-.083.738-.128l-.214-1.013c-.067.013-.211.045-.339.045-.272 0-.46-.102-.46-.48v-2.377h.924v-1.023Zm2.205 5.002c.726 0 1.196-.317 1.435-.774h.039V306h1.291v-3.311c0-1.17-.991-1.662-2.084-1.662-1.176 0-1.949.562-2.138 1.457l1.259.103c.093-.326.384-.566.873-.566.463 0 .728.233.728.636v.019c0 .316-.335.358-1.189.441-.971.09-1.844.416-1.844 1.512 0 .971.694 1.464 1.63 1.464Zm.39-.94c-.418 0-.719-.195-.719-.569 0-.383.317-.572.796-.639.297-.042.783-.112.946-.221v.521c0 .515-.425.908-1.023.908Zm5.568.943c1.307 0 2.129-.767 2.193-1.895h-1.285c-.08.524-.425.818-.892.818-.636 0-1.048-.534-1.048-1.474 0-.926.415-1.457 1.048-1.457.499 0 .818.329.892.818h1.285c-.058-1.134-.918-1.879-2.199-1.879-1.49 0-2.41 1.032-2.41 2.538 0 1.492.904 2.531 2.416 2.531Zm2.983-.096h1.362v-1.56l.367-.418 1.34 1.978h1.594l-1.914-2.784 1.822-2.125h-1.563l-1.573 1.863h-.073v-3.5h-1.362V306Zm-47.095 10 .486-1.493h2.362l.486 1.493h1.483l-2.257-6.546h-1.783l-2.26 6.546h1.483Zm.838-2.573.805-2.477h.051l.806 2.477h-1.662Zm6.241 2.653c.792 0 1.204-.457 1.393-.866h.057V316h1.343v-6.546h-1.358v2.461h-.042c-.182-.399-.575-.888-1.397-.888-1.077 0-1.988.837-1.988 2.525 0 1.643.873 2.528 1.992 2.528Zm.431-1.084c-.668 0-1.032-.594-1.032-1.451 0-.85.358-1.435 1.032-1.435.662 0 1.032.56 1.032 1.435 0 .876-.377 1.451-1.032 1.451Zm3.4 1.004h1.362v-2.947c0-.543.345-.904.799-.904.447 0 .748.307.748.789V316h1.32v-2.998c0-.508.29-.853.786-.853.434 0 .76.271.76.818V316h1.359v-3.302c0-1.064-.633-1.671-1.547-1.671-.719 0-1.279.367-1.48.93h-.051c-.157-.569-.658-.93-1.333-.93-.661 0-1.163.351-1.368.93h-.057v-.866h-1.298V316Zm8.128 0h1.362v-4.909h-1.362V316Zm.684-5.542c.406 0 .738-.31.738-.69 0-.377-.332-.687-.738-.687-.403 0-.735.31-.735.687 0 .38.332.69.735.69Zm3.049 2.704c.003-.633.38-1.004.93-1.004.546 0 .876.358.872.959V316h1.362v-3.126c0-1.144-.671-1.847-1.694-1.847-.729 0-1.256.358-1.477.93h-.057v-.866h-1.298V316h1.362v-2.838ZM237.855 273h4.19v-1.141h-2.806v-5.405h-1.384V273Zm6.4.093c.726 0 1.195-.317 1.435-.774h.038V273h1.292v-3.311c0-1.17-.991-1.662-2.084-1.662-1.176 0-1.95.562-2.138 1.457l1.259.103c.093-.326.383-.566.872-.566.464 0 .729.233.729.636v.019c0 .316-.335.358-1.189.441-.971.09-1.844.416-1.844 1.512 0 .971.694 1.464 1.63 1.464Zm.39-.94c-.419 0-.719-.195-.719-.569 0-.383.316-.572.796-.639.297-.042.783-.112.946-.221v.521c0 .515-.425.908-1.023.908Zm5.159.927c.793 0 1.205-.457 1.393-.866h.058V273h1.342v-6.546h-1.358v2.461h-.042c-.182-.399-.575-.888-1.396-.888-1.077 0-1.988.837-1.988 2.525 0 1.643.872 2.528 1.991 2.528Zm.431-1.084c-.668 0-1.032-.594-1.032-1.451 0-.85.358-1.435 1.032-1.435.662 0 1.033.56 1.033 1.435 0 .876-.377 1.451-1.033 1.451Zm5.21 1.084c.792 0 1.204-.457 1.393-.866h.058V273h1.342v-6.546h-1.358v2.461h-.042c-.182-.399-.575-.888-1.397-.888-1.077 0-1.988.837-1.988 2.525 0 1.643.873 2.528 1.992 2.528Zm.431-1.084c-.668 0-1.032-.594-1.032-1.451 0-.85.358-1.435 1.032-1.435.662 0 1.032.56 1.032 1.435 0 .876-.377 1.451-1.032 1.451Zm5.638 1.1c1.214 0 2.032-.591 2.224-1.502l-1.259-.083c-.138.374-.489.568-.943.568-.681 0-1.112-.45-1.112-1.182v-.003h3.343v-.374c0-1.668-1.01-2.493-2.308-2.493-1.444 0-2.381 1.026-2.381 2.541 0 1.556.924 2.528 2.436 2.528Zm-1.09-3.046a1.037 1.037 0 0 1 1.058-1.007c.591 0 1 .422 1.003 1.007h-2.061Zm4.15 2.95h1.362v-2.777c0-.604.441-1.02 1.042-1.02.188 0 .447.032.575.074v-1.209a2.102 2.102 0 0 0-.428-.047c-.55 0-1.001.319-1.18.926h-.051v-.856h-1.32V273Zm-25.806-26h4.19v-1.141h-2.806v-5.405h-1.384V247Zm7.218.096c1.49 0 2.417-1.02 2.417-2.531 0-1.522-.927-2.538-2.417-2.538-1.489 0-2.416 1.016-2.416 2.538 0 1.511.927 2.531 2.416 2.531Zm.007-1.055c-.687 0-1.039-.629-1.039-1.486s.352-1.489 1.039-1.489c.674 0 1.026.632 1.026 1.489 0 .857-.352 1.486-1.026 1.486Zm5.432 1.055c1.307 0 2.128-.767 2.192-1.895h-1.284c-.08.524-.425.818-.892.818-.636 0-1.048-.534-1.048-1.474 0-.926.415-1.457 1.048-1.457.498 0 .818.329.892.818h1.284c-.057-1.134-.917-1.879-2.198-1.879-1.49 0-2.41 1.032-2.41 2.538 0 1.492.904 2.531 2.416 2.531Zm2.983-.096h1.362v-1.56l.367-.418 1.339 1.978h1.595l-1.914-2.784 1.821-2.125h-1.562l-1.573 1.863h-.073v-3.5h-1.362V247Zm7.192.096c1.215 0 2.033-.591 2.225-1.502l-1.259-.083c-.138.374-.489.568-.943.568-.681 0-1.112-.45-1.112-1.182v-.003h3.343v-.374c0-1.668-1.01-2.493-2.308-2.493-1.444 0-2.381 1.026-2.381 2.541 0 1.556.924 2.528 2.435 2.528Zm-1.089-3.046a1.036 1.036 0 0 1 1.057-1.007c.592 0 1.001.422 1.004 1.007h-2.061Zm4.15 2.95h1.362v-2.777c0-.604.441-1.02 1.042-1.02.188 0 .447.032.575.074v-1.209a2.102 2.102 0 0 0-.428-.047c-.55 0-1.001.319-1.18.926h-.051v-.856h-1.32V247Zm-38.009-93.254c-.183-1.512-1.327-2.381-2.842-2.381-1.729 0-3.049 1.221-3.049 3.362 0 2.135 1.298 3.362 3.049 3.362 1.678 0 2.691-1.115 2.842-2.32l-1.4-.006c-.131.7-.681 1.102-1.419 1.102-.994 0-1.669-.738-1.669-2.138 0-1.361.665-2.138 1.678-2.138.758 0 1.304.438 1.41 1.157h1.4Zm.662-1.151h2.004V158h1.367v-5.405h2.004v-1.141h-5.375v1.141Zm8.182 5.405h1.384v-2.32h1.009l1.241 2.32h1.527l-1.39-2.544c.745-.32 1.157-.968 1.157-1.863 0-1.301-.86-2.139-2.346-2.139h-2.582V158Zm1.384-3.433v-1.981h.933c.799 0 1.186.355 1.186 1.007 0 .648-.387.974-1.18.974h-.939Zm6.573 3.529c1.215 0 2.033-.591 2.225-1.502l-1.259-.083c-.138.374-.489.568-.943.568-.681 0-1.112-.45-1.112-1.182v-.003h3.343v-.374c0-1.668-1.01-2.493-2.308-2.493-1.444 0-2.381 1.026-2.381 2.541 0 1.556.924 2.528 2.435 2.528Zm-1.089-3.046a1.036 1.036 0 0 1 1.058-1.007c.591 0 1 .422 1.003 1.007h-2.061Zm5.959 3.03c.793 0 1.205-.457 1.394-.866h.057V158h1.342v-6.546h-1.358v2.461h-.041c-.183-.399-.576-.888-1.397-.888-1.077 0-1.988.837-1.988 2.525 0 1.643.873 2.528 1.991 2.528Zm.432-1.084c-.668 0-1.033-.594-1.033-1.451 0-.85.358-1.435 1.033-1.435.661 0 1.032.56 1.032 1.435 0 .876-.377 1.451-1.032 1.451Zm-67.596-45.426h1.407c-.179-1.294-1.32-2.205-2.8-2.205-1.729 0-3.062 1.246-3.062 3.369 0 2.071 1.247 3.355 3.091 3.355 1.652 0 2.831-1.045 2.831-2.767v-.825h-2.739v1.042h1.407c-.02.812-.572 1.326-1.493 1.326-1.039 0-1.694-.776-1.694-2.144 0-1.362.681-2.132 1.681-2.132.713 0 1.196.368 1.371.981Zm3.8 4.523c.726 0 1.196-.317 1.435-.774h.039V116h1.291v-3.311c0-1.17-.991-1.662-2.084-1.662-1.176 0-1.95.562-2.138 1.457l1.259.103c.093-.326.384-.566.873-.566.463 0 .728.233.728.636v.019c0 .316-.335.358-1.189.441-.971.09-1.844.416-1.844 1.512 0 .971.694 1.464 1.63 1.464Zm.39-.94c-.419 0-.719-.195-.719-.569 0-.383.316-.572.796-.639.297-.042.783-.112.946-.221v.521c0 .515-.425.908-1.023.908Zm3.35.847h1.362v-2.777c0-.604.441-1.02 1.041-1.02.189 0 .448.032.576.074v-1.209a2.104 2.104 0 0 0-.429-.047c-.549 0-1 .319-1.179.926h-.051v-.856h-1.32V116Zm4.861.093c.725 0 1.195-.317 1.435-.774h.038V116h1.291v-3.311c0-1.17-.99-1.662-2.083-1.662-1.176 0-1.95.562-2.138 1.457l1.259.103c.092-.326.383-.566.872-.566.464 0 .729.233.729.636v.019c0 .316-.336.358-1.189.441-.972.09-1.844.416-1.844 1.512 0 .971.693 1.464 1.63 1.464Zm.39-.94c-.419 0-.719-.195-.719-.569 0-.383.316-.572.796-.639.297-.042.783-.112.946-.221v.521c0 .515-.426.908-1.023.908Zm5.561 2.79c1.403 0 2.401-.639 2.401-1.895v-4.957h-1.352v.824h-.051c-.183-.399-.582-.888-1.403-.888-1.078 0-1.988.837-1.988 2.509 0 1.633.885 2.394 1.991 2.394.783 0 1.221-.393 1.4-.799h.057v.898c0 .674-.431.936-1.023.936-.6 0-.904-.262-1.016-.559l-1.259.169c.163.774.92 1.368 2.243 1.368Zm.029-3.036c-.668 0-1.032-.531-1.032-1.378 0-.834.358-1.419 1.032-1.419.662 0 1.032.56 1.032 1.419 0 .867-.377 1.378-1.032 1.378Zm5.611 1.189c1.215 0 2.033-.591 2.225-1.502l-1.26-.083c-.137.374-.489.568-.942.568-.681 0-1.113-.45-1.113-1.182v-.003h3.343v-.374c0-1.668-1.009-2.493-2.307-2.493-1.445 0-2.381 1.026-2.381 2.541 0 1.556.924 2.528 2.435 2.528Zm-1.09-3.046a1.038 1.038 0 0 1 1.058-1.007c.592 0 1.001.422 1.004 1.007h-2.062Zm66.929-6.323c0-2.141-1.329-3.362-3.065-3.362-1.745 0-3.065 1.221-3.065 3.362 0 2.132 1.32 3.362 3.065 3.362 1.736 0 3.065-1.22 3.065-3.362Zm-1.403 0c0 1.387-.658 2.138-1.662 2.138-1.006 0-1.662-.751-1.662-2.138s.656-2.138 1.662-2.138c1.004 0 1.662.751 1.662 2.138Zm5.47 1.183c.003.658-.447 1.003-.936 1.003-.515 0-.847-.361-.851-.939v-2.883h-1.361v3.126c.003 1.147.674 1.847 1.662 1.847.738 0 1.269-.38 1.489-.956h.051V110h1.308v-4.909h-1.362v2.819Zm4.981-2.819h-.924v-1.176h-1.361v1.176h-.672v1.023h.672v2.556c-.007.962.648 1.439 1.636 1.397.351-.013.601-.083.738-.128l-.214-1.013c-.067.013-.211.045-.339.045-.271 0-.46-.102-.46-.48v-2.377h.924v-1.023Zm4.82 1.4c-.122-.905-.85-1.464-2.09-1.464-1.256 0-2.084.582-2.081 1.528-.003.735.46 1.211 1.419 1.403l.85.169c.428.086.623.243.63.489-.007.291-.323.499-.799.499-.486 0-.809-.208-.892-.608l-1.339.071c.128.939.927 1.518 2.228 1.518 1.272 0 2.182-.649 2.186-1.617-.004-.71-.467-1.135-1.419-1.33l-.889-.179c-.457-.099-.626-.256-.623-.492-.003-.294.329-.486.751-.486.473 0 .754.259.821.575l1.247-.076Zm.888 3.509h1.362v-4.909h-1.362V110Zm.684-5.542c.406 0 .738-.31.738-.69 0-.377-.332-.687-.738-.687-.403 0-.735.31-.735.687 0 .38.332.69.735.69Zm3.496 5.622c.793 0 1.205-.457 1.394-.866h.057V110h1.342v-6.546h-1.358v2.461h-.041c-.183-.399-.576-.888-1.397-.888-1.077 0-1.988.837-1.988 2.525 0 1.643.873 2.528 1.991 2.528Zm.432-1.084c-.668 0-1.033-.594-1.033-1.451 0-.85.358-1.435 1.033-1.435.661 0 1.032.56 1.032 1.435 0 .876-.377 1.451-1.032 1.451Zm5.637 1.1c1.215 0 2.033-.591 2.224-1.502l-1.259-.083c-.137.374-.489.568-.943.568-.68 0-1.112-.45-1.112-1.182v-.003h3.343v-.374c0-1.668-1.01-2.493-2.307-2.493-1.445 0-2.381 1.026-2.381 2.541 0 1.556.923 2.528 2.435 2.528Zm-1.09-3.046a1.038 1.038 0 0 1 1.058-1.007c.591 0 1 .422 1.004 1.007h-2.062Zm8.565-41.454h2.004V71h1.368v-5.404h2.004v-1.142h-5.376v1.142ZM311.652 71h1.384v-2.32h1.01l1.24 2.32h1.528l-1.39-2.544c.744-.32 1.157-.969 1.157-1.863 0-1.301-.86-2.139-2.346-2.139h-2.583V71Zm1.384-3.433v-1.981h.934c.799 0 1.185.355 1.185 1.007 0 .648-.386.974-1.179.974h-.94Zm6.574 3.529c1.215 0 2.033-.591 2.225-1.502l-1.26-.083c-.137.374-.489.569-.942.569-.681 0-1.113-.451-1.113-1.183v-.003h3.343v-.374c0-1.668-1.01-2.493-2.307-2.493-1.445 0-2.381 1.026-2.381 2.54 0 1.557.923 2.529 2.435 2.529Zm-1.09-3.046a1.037 1.037 0 0 1 1.058-1.007c.591 0 1.001.422 1.004 1.007h-2.062Zm5.96 3.03c.792 0 1.205-.457 1.393-.866h.058V71h1.342v-6.546h-1.358v2.461h-.042c-.182-.4-.575-.888-1.396-.888-1.077 0-1.988.837-1.988 2.525 0 1.642.872 2.528 1.991 2.528Zm.431-1.084c-.668 0-1.032-.594-1.032-1.45 0-.85.358-1.436 1.032-1.436.662 0 1.033.56 1.033 1.435 0 .876-.378 1.451-1.033 1.451Zm42.67 68.341h1.326c-.019-1.167-.978-1.972-2.435-1.972-1.436 0-2.487.793-2.481 1.982-.003.965.678 1.518 1.784 1.783l.712.179c.713.172 1.11.377 1.113.818-.003.479-.457.805-1.16.805-.72 0-1.237-.332-1.282-.987h-1.339c.035 1.416 1.048 2.148 2.637 2.148 1.598 0 2.537-.764 2.54-1.963-.003-1.09-.824-1.668-1.962-1.924l-.588-.14c-.569-.131-1.045-.342-1.036-.812 0-.422.374-.732 1.052-.732.661 0 1.067.3 1.119.815Zm2.24 4.663h1.361v-4.909h-1.361V143Zm.684-5.542c.405 0 .738-.31.738-.69 0-.377-.333-.687-.738-.687-.403 0-.735.31-.735.687 0 .38.332.69.735.69Zm3.048-1.004h-1.361V143h1.361v-6.546Zm3.228 6.642c1.489 0 2.416-1.02 2.416-2.531 0-1.522-.927-2.538-2.416-2.538-1.489 0-2.416 1.016-2.416 2.538 0 1.511.927 2.531 2.416 2.531Zm.006-1.055c-.687 0-1.038-.629-1.038-1.486s.351-1.489 1.038-1.489c.675 0 1.026.632 1.026 1.489 0 .857-.351 1.486-1.026 1.486Zm-74.966-5.587V143h1.343v-4.276h.054l1.694 4.244h.914l1.694-4.228h.054V143h1.342v-6.546h-1.706l-1.803 4.398h-.077l-1.802-4.398h-1.707ZM309.95 143h1.362v-4.909h-1.362V143Zm.684-5.542c.406 0 .738-.31.738-.69 0-.377-.332-.687-.738-.687-.403 0-.735.31-.735.687 0 .38.332.69.735.69Zm3.049 2.704c.003-.633.38-1.004.93-1.004.546 0 .875.358.872.959V143h1.362v-3.126c0-1.144-.671-1.847-1.694-1.847-.729 0-1.256.358-1.477.93h-.057v-.866h-1.298V143h1.362v-2.838Zm4.156 2.838h1.361v-4.909h-1.361V143Zm.684-5.542c.406 0 .738-.31.738-.69 0-.377-.332-.687-.738-.687-.403 0-.735.31-.735.687 0 .38.332.69.735.69Zm9.527 22.996h-1.537l2.259 6.546h1.784l2.256-6.546h-1.534l-1.585 4.973h-.061l-1.582-4.973Zm7.118 6.642c1.215 0 2.033-.591 2.225-1.502l-1.26-.083c-.137.374-.489.568-.942.568-.681 0-1.113-.45-1.113-1.182v-.003h3.343v-.374c0-1.668-1.01-2.493-2.307-2.493-1.445 0-2.381 1.026-2.381 2.541 0 1.556.923 2.528 2.435 2.528Zm-1.09-3.046a1.038 1.038 0 0 1 1.058-1.007c.592 0 1.001.422 1.004 1.007h-2.062Zm5.512.112c.004-.633.381-1.004.93-1.004.547 0 .876.358.873.959V167h1.361v-3.126c0-1.144-.671-1.847-1.693-1.847-.729 0-1.256.358-1.477.93h-.058v-.866h-1.297V167h1.361v-2.838Zm6.768-2.071h-.924v-1.176h-1.361v1.176h-.672v1.023h.672v2.556c-.007.962.648 1.439 1.636 1.397.351-.013.601-.083.738-.128l-.214-1.013c-.067.013-.211.045-.339.045-.271 0-.46-.102-.46-.48v-2.377h.924v-1.023ZM295.732 285h1.384v-2.32h1.01l1.24 2.32h1.528l-1.39-2.544c.744-.32 1.157-.968 1.157-1.863 0-1.301-.86-2.139-2.346-2.139h-2.583V285Zm1.384-3.433v-1.981h.933c.799 0 1.186.355 1.186 1.007 0 .648-.387.974-1.179.974h-.94Zm5.816 3.526c.725 0 1.195-.317 1.435-.774h.038V285h1.291v-3.311c0-1.17-.99-1.662-2.083-1.662-1.177 0-1.95.562-2.139 1.457l1.26.103c.092-.326.383-.566.872-.566.464 0 .729.233.729.636v.019c0 .316-.336.358-1.189.441-.972.09-1.844.416-1.844 1.512 0 .971.693 1.464 1.63 1.464Zm.39-.94c-.419 0-.719-.195-.719-.569 0-.383.316-.572.795-.639.298-.042.783-.112.946-.221v.521c0 .515-.425.908-1.022.908Zm5.99-4.062h-.975v-.329c0-.333.134-.528.534-.528.163 0 .329.035.437.071l.24-1.023a3.589 3.589 0 0 0-.962-.134c-.924 0-1.611.521-1.611 1.588v.355h-.693v1.023h.693V285h1.362v-3.886h.975v-1.023Zm3.362 0h-.924v-1.176h-1.362v1.176h-.671v1.023h.671v2.556c-.006.962.649 1.439 1.637 1.397.351-.013.601-.083.738-.128l-.214-1.013c-.067.013-.211.045-.339.045-.272 0-.46-.102-.46-.48v-2.377h.924v-1.023Zm2.99 5.005c1.214 0 2.033-.591 2.224-1.502l-1.259-.083c-.137.374-.489.568-.943.568-.68 0-1.112-.45-1.112-1.182v-.003h3.343v-.374c0-1.668-1.01-2.493-2.307-2.493-1.445 0-2.381 1.026-2.381 2.541 0 1.556.923 2.528 2.435 2.528Zm-1.09-3.046a1.038 1.038 0 0 1 1.058-1.007c.591 0 1 .422 1.003 1.007h-2.061Zm4.151 2.95h1.361v-2.777c0-.604.441-1.02 1.042-1.02.189 0 .447.032.575.074v-1.209a2.094 2.094 0 0 0-.428-.047c-.55 0-1 .319-1.179.926h-.051v-.856h-1.32V285Zm7.686-3.509c-.122-.905-.85-1.464-2.09-1.464-1.257 0-2.084.582-2.081 1.528-.003.735.46 1.211 1.419 1.403l.85.169c.428.086.623.243.63.489-.007.291-.323.499-.799.499-.486 0-.809-.208-.892-.608l-1.339.071c.128.939.927 1.518 2.228 1.518 1.272 0 2.182-.649 2.186-1.617-.004-.71-.467-1.135-1.419-1.33l-.889-.179c-.457-.099-.626-.256-.623-.492-.003-.294.329-.486.751-.486.473 0 .754.259.821.575l1.247-.076ZM331.744 210h1.384v-2.704h2.809V210h1.381v-6.546h-1.381v2.701h-2.809v-2.701h-1.384V210Zm9.756-2.09c.004.658-.447 1.003-.936 1.003-.515 0-.847-.361-.85-.939v-2.883h-1.362v3.126c.004 1.147.675 1.847 1.662 1.847.739 0 1.269-.38 1.49-.956h.051V210h1.307v-4.909H341.5v2.819Zm4.981-2.819h-.923v-1.176h-1.362v1.176h-.671v1.023h.671v2.556c-.006.962.649 1.439 1.636 1.397.352-.013.601-.083.739-.128l-.214-1.013c-.068.013-.211.045-.339.045-.272 0-.46-.102-.46-.48v-2.377h.923v-1.023Zm21.691-23.754h1.326c-.019-1.167-.978-1.972-2.435-1.972-1.435 0-2.487.793-2.48 1.982-.004.965.677 1.518 1.783 1.783l.713.179c.712.172 1.109.377 1.112.818-.003.479-.457.805-1.16.805-.719 0-1.237-.332-1.282-.987h-1.339c.035 1.416 1.048 2.148 2.637 2.148 1.598 0 2.537-.764 2.541-1.963-.004-1.09-.825-1.668-1.963-1.924l-.588-.14c-.569-.131-1.045-.342-1.035-.812 0-.422.374-.732 1.051-.732.662 0 1.068.3 1.119.815Zm6.845 6.504v-6.75h-1.342v.824h-.061c-.182-.399-.575-.888-1.396-.888-1.077 0-1.988.837-1.988 2.525 0 1.643.872 2.528 1.991 2.528.792 0 1.205-.457 1.393-.866h.042v2.627h1.361Zm-1.332-4.296c0 .876-.378 1.451-1.033 1.451-.668 0-1.032-.594-1.032-1.451 0-.85.358-1.435 1.032-1.435.662 0 1.033.56 1.033 1.435Zm5.489.365c.003.658-.447 1.003-.936 1.003-.515 0-.847-.361-.85-.939v-2.883h-1.362v3.126c.003 1.147.675 1.847 1.662 1.847.738 0 1.269-.38 1.489-.956h.052V186h1.307v-4.909h-1.362v2.819Zm4.607 2.186c1.215 0 2.033-.591 2.224-1.502l-1.259-.083c-.137.374-.489.568-.943.568-.68 0-1.112-.45-1.112-1.182v-.003h3.343v-.374c0-1.668-1.01-2.493-2.307-2.493-1.445 0-2.381 1.026-2.381 2.541 0 1.556.923 2.528 2.435 2.528Zm-1.09-3.046a1.038 1.038 0 0 1 1.058-1.007c.591 0 1 .422 1.004 1.007h-2.062Zm5.551 3.043c.725 0 1.195-.317 1.435-.774h.038V186h1.291v-3.311c0-1.17-.991-1.662-2.084-1.662-1.176 0-1.949.562-2.138 1.457l1.259.103c.093-.326.384-.566.873-.566.463 0 .729.233.729.636v.019c0 .316-.336.358-1.189.441-.972.09-1.844.416-1.844 1.512 0 .971.693 1.464 1.63 1.464Zm.389-.94c-.418 0-.719-.195-.719-.569 0-.383.317-.572.796-.639.297-.042.783-.112.946-.221v.521c0 .515-.425.908-1.023.908Zm3.35.847h1.362v-1.56l.367-.418 1.34 1.978h1.594l-1.914-2.784 1.822-2.125h-1.563l-1.573 1.863h-.073v-3.5h-1.362V186Zm6.077 1.841c1.013 0 1.55-.518 1.828-1.311l1.909-5.433-1.442-.006-1.026 3.605h-.051l-1.016-3.605h-1.432l1.761 5.05-.08.207c-.179.461-.521.483-1 .336l-.307 1.016c.195.083.511.141.856.141ZM413.021 216h1.384v-2.32h1.01l1.24 2.32h1.528l-1.39-2.544c.744-.32 1.157-.968 1.157-1.863 0-1.301-.86-2.139-2.346-2.139h-2.583V216Zm1.384-3.433v-1.981h.934c.799 0 1.185.355 1.185 1.007 0 .648-.386.974-1.179.974h-.94Zm6.555 3.529c1.489 0 2.416-1.02 2.416-2.531 0-1.522-.927-2.538-2.416-2.538-1.489 0-2.416 1.016-2.416 2.538 0 1.511.927 2.531 2.416 2.531Zm.006-1.055c-.687 0-1.038-.629-1.038-1.486s.351-1.489 1.038-1.489c.675 0 1.026.632 1.026 1.489 0 .857-.351 1.486-1.026 1.486Zm5.433 1.055c1.489 0 2.416-1.02 2.416-2.531 0-1.522-.927-2.538-2.416-2.538-1.49 0-2.417 1.016-2.417 2.538 0 1.511.927 2.531 2.417 2.531Zm.006-1.055c-.687 0-1.039-.629-1.039-1.486s.352-1.489 1.039-1.489c.674 0 1.026.632 1.026 1.489 0 .857-.352 1.486-1.026 1.486Zm5.854-3.95h-.975v-.329c0-.333.134-.528.534-.528.163 0 .329.035.438.071l.24-1.023a3.603 3.603 0 0 0-.962-.134c-.924 0-1.611.521-1.611 1.588v.355h-.694v1.023h.694V216h1.361v-3.886h.975v-1.023Zm-57.322 6.363V224h1.342v-4.276h.055l1.694 4.244h.914l1.693-4.228h.055V224h1.342v-6.546h-1.707l-1.802 4.398h-.077l-1.802-4.398h-1.707Zm9.529 6.639c.725 0 1.195-.317 1.435-.774h.038V224h1.291v-3.311c0-1.17-.991-1.662-2.084-1.662-1.176 0-1.949.562-2.138 1.457l1.259.103c.093-.326.384-.566.873-.566.463 0 .729.233.729.636v.019c0 .316-.336.358-1.189.441-.972.09-1.844.416-1.844 1.512 0 .971.693 1.464 1.63 1.464Zm.39-.94c-.419 0-.72-.195-.72-.569 0-.383.317-.572.796-.639.297-.042.783-.112.946-.221v.521c0 .515-.425.908-1.022.908Zm3.349.847h1.362v-4.909h-1.362V224Zm.684-5.542c.406 0 .739-.31.739-.69 0-.377-.333-.687-.739-.687-.402 0-.735.31-.735.687 0 .38.333.69.735.69Zm3.049 2.704c.003-.633.38-1.004.93-1.004.547 0 .876.358.873.959V224h1.361v-3.126c0-1.144-.671-1.847-1.694-1.847-.728 0-1.256.358-1.476.93h-.058v-.866h-1.297V224h1.361v-2.838Zm-9.751 36.292h-1.537l2.259 6.546h1.783l2.257-6.546h-1.534l-1.585 4.973h-.061l-1.582-4.973Zm7.118 6.642c1.214 0 2.033-.591 2.224-1.502l-1.259-.083c-.137.374-.489.568-.943.568-.681 0-1.112-.45-1.112-1.182v-.003h3.343v-.374c0-1.668-1.01-2.493-2.307-2.493-1.445 0-2.382 1.026-2.382 2.541 0 1.556.924 2.528 2.436 2.528Zm-1.09-3.046a1.038 1.038 0 0 1 1.058-1.007c.591 0 1 .422 1.003 1.007h-2.061Zm5.512.112c.003-.633.38-1.004.93-1.004.547 0 .876.358.873.959V264h1.361v-3.126c0-1.144-.671-1.847-1.694-1.847-.728 0-1.256.358-1.476.93h-.058v-.866h-1.297V264h1.361v-2.838Zm5.965 2.918c.793 0 1.205-.457 1.394-.866h.057V264h1.342v-6.546h-1.358v2.461h-.041c-.183-.399-.576-.888-1.397-.888-1.077 0-1.988.837-1.988 2.525 0 1.643.873 2.528 1.991 2.528Zm.432-1.084c-.668 0-1.033-.594-1.033-1.451 0-.85.358-1.435 1.033-1.435.661 0 1.032.56 1.032 1.435 0 .876-.377 1.451-1.032 1.451Zm3.4 1.004h1.361v-4.909h-1.361V264Zm.684-5.542c.406 0 .738-.31.738-.69 0-.377-.332-.687-.738-.687-.403 0-.735.31-.735.687 0 .38.332.69.735.69Zm3.049 2.704c.003-.633.38-1.004.93-1.004.546 0 .875.358.872.959V264h1.362v-3.126c0-1.144-.672-1.847-1.694-1.847-.729 0-1.256.358-1.477.93h-.057v-.866h-1.298V264h1.362v-2.838Zm6.367 4.781c1.403 0 2.4-.639 2.4-1.895v-4.957h-1.351v.824h-.052c-.182-.399-.581-.888-1.403-.888-1.077 0-1.988.837-1.988 2.509 0 1.633.886 2.394 1.992 2.394.783 0 1.22-.393 1.399-.799h.058v.898c0 .674-.431.936-1.023.936-.601 0-.904-.262-1.016-.559l-1.259.169c.163.774.92 1.368 2.243 1.368Zm.029-3.036c-.668 0-1.032-.531-1.032-1.378 0-.834.358-1.419 1.032-1.419.662 0 1.032.56 1.032 1.419 0 .867-.377 1.378-1.032 1.378Zm-62.073 4.688h2.004V273h1.368v-5.405h2.003v-1.141h-5.375v1.141Zm5.644 5.405h1.362v-2.777c0-.604.441-1.02 1.042-1.02.188 0 .447.032.575.074v-1.209a2.094 2.094 0 0 0-.428-.047c-.55 0-1.001.319-1.18.926h-.051v-.856h-1.32V273Zm5.592.096c1.489 0 2.416-1.02 2.416-2.531 0-1.522-.927-2.538-2.416-2.538-1.49 0-2.417 1.016-2.417 2.538 0 1.511.927 2.531 2.417 2.531Zm.006-1.055c-.687 0-1.039-.629-1.039-1.486s.352-1.489 1.039-1.489c.674 0 1.026.632 1.026 1.489 0 .857-.352 1.486-1.026 1.486Zm3.214 2.8h1.362v-2.627h.041c.189.409.601.866 1.394.866 1.118 0 1.991-.885 1.991-2.528 0-1.688-.911-2.525-1.988-2.525-.822 0-1.215.489-1.397.888h-.061v-.824h-1.342v6.75Zm1.333-4.296c0-.875.371-1.435 1.032-1.435.674 0 1.032.585 1.032 1.435 0 .857-.364 1.451-1.032 1.451-.655 0-1.032-.575-1.032-1.451Zm5.643-.383c.003-.633.39-1.004.946-1.004.553 0 .879.355.876.959V273h1.361v-3.126c.003-1.15-.674-1.847-1.697-1.847-.745 0-1.243.351-1.467.93h-.058v-2.503h-1.323V273h1.362v-2.838Zm4.838 4.679c1.013 0 1.55-.518 1.828-1.311l1.908-5.433-1.441-.006-1.026 3.605h-.051l-1.016-3.605h-1.432l1.761 5.05-.08.207c-.179.461-.521.483-1 .336l-.307 1.016c.195.083.511.141.856.141Zm-20.168 36.905c-.182-1.512-1.326-2.381-2.841-2.381-1.729 0-3.049 1.221-3.049 3.362 0 2.135 1.298 3.362 3.049 3.362 1.678 0 2.691-1.115 2.841-2.32l-1.4-.006c-.131.7-.68 1.102-1.419 1.102-.994 0-1.668-.738-1.668-2.138 0-1.361.665-2.138 1.678-2.138.757 0 1.304.438 1.409 1.157h1.4Zm3.104 4.35c1.49 0 2.416-1.02 2.416-2.531 0-1.522-.926-2.538-2.416-2.538-1.489 0-2.416 1.016-2.416 2.538 0 1.511.927 2.531 2.416 2.531Zm.007-1.055c-.688 0-1.039-.629-1.039-1.486s.351-1.489 1.039-1.489c.674 0 1.025.632 1.025 1.489 0 .857-.351 1.486-1.025 1.486Zm4.575-1.879c.003-.633.38-1.004.93-1.004.547 0 .876.358.873.959V316h1.361v-3.126c0-1.144-.671-1.847-1.694-1.847-.728 0-1.256.358-1.476.93h-.058v-.866h-1.297V316h1.361v-2.838Zm6.767-2.071h-.923v-1.176h-1.362v1.176h-.671v1.023h.671v2.556c-.006.962.649 1.439 1.637 1.397.351-.013.6-.083.738-.128l-.214-1.013c-.067.013-.211.045-.339.045-.272 0-.46-.102-.46-.48v-2.377h.923v-1.023Zm.806 4.909h1.362v-2.777c0-.604.441-1.02 1.042-1.02.188 0 .447.032.575.074v-1.209a2.094 2.094 0 0 0-.428-.047c-.55 0-1.001.319-1.18.926h-.051v-.856h-1.32V316Zm5.591.096c1.49 0 2.417-1.02 2.417-2.531 0-1.522-.927-2.538-2.417-2.538-1.489 0-2.416 1.016-2.416 2.538 0 1.511.927 2.531 2.416 2.531Zm.007-1.055c-.687 0-1.039-.629-1.039-1.486s.352-1.489 1.039-1.489c.674 0 1.026.632 1.026 1.489 0 .857-.352 1.486-1.026 1.486Zm4.575-5.587h-1.361V316h1.361v-6.546Z"/><path fill="#E3E5EA" d="M155.139 344h2.46v-4.807h4.733v-2.028h-4.733v-2.773h5.244v-2.028h-7.704V344Zm11.59-11.636h-2.42V344h2.42v-11.636Zm5.738 11.806c2.648 0 4.296-1.812 4.296-4.5 0-2.704-1.648-4.511-4.296-4.511-2.648 0-4.295 1.807-4.295 4.511 0 2.688 1.647 4.5 4.295 4.5Zm.012-1.875c-1.222 0-1.847-1.119-1.847-2.642 0-1.522.625-2.647 1.847-2.647 1.198 0 1.823 1.125 1.823 2.647 0 1.523-.625 2.642-1.823 2.642Zm9.657 1.875c2.647 0 4.295-1.812 4.295-4.5 0-2.704-1.648-4.511-4.295-4.511-2.648 0-4.296 1.807-4.296 4.511 0 2.688 1.648 4.5 4.296 4.5Zm.011-1.875c-1.222 0-1.847-1.119-1.847-2.642 0-1.522.625-2.647 1.847-2.647 1.199 0 1.824 1.125 1.824 2.647 0 1.523-.625 2.642-1.824 2.642Zm5.714 1.705h2.42v-4.938c0-1.073.785-1.812 1.853-1.812.335 0 .795.057 1.022.131v-2.148a3.634 3.634 0 0 0-.761-.085c-.977 0-1.778.568-2.097 1.647h-.09v-1.522h-2.347V344Zm14.502.256c2.926 0 4.693-2.228 4.699-6.063.005-3.807-1.784-5.989-4.699-5.989-2.921 0-4.693 2.177-4.699 5.989-.011 3.824 1.767 6.057 4.699 6.063Zm0-2.04c-1.335 0-2.199-1.341-2.193-4.023.005-2.642.863-3.971 2.193-3.971 1.324 0 2.187 1.329 2.187 3.971.006 2.682-.858 4.023-2.187 4.023Z"/><path stroke="#999CA2" stroke-opacity=".25" stroke-width="1.6" d="M609.865 443.771v35.387a2 2 0 0 1-2 2h-7.086c-.418 0-.825-.13-1.164-.373l-18.413-13.178a1.998 1.998 0 0 0-1.164-.374h-15.86a2 2 0 0 1-2-2v-8.205c0-.895.726-1.621 1.621-1.621a1.62 1.62 0 0 0 1.621-1.621v-34.529a2 2 0 0 1 2-2h36.63a2 2 0 0 1 2 2v20.699c0 1.054.854 1.908 1.908 1.908 1.053 0 1.907.854 1.907 1.907Z"/><mask id="g" width="48" height="65" x="562" y="417" maskUnits="userSpaceOnUse" style="mask-type:alpha"><path fill="#C4C4C4" d="M609.865 443.771v35.387a2 2 0 0 1-2 2h-7.086c-.418 0-.825-.131-1.164-.374l-18.413-13.177a1.998 1.998 0 0 0-1.164-.374h-15.86a2 2 0 0 1-2-2v-8.205c0-.895.726-1.621 1.621-1.621a1.62 1.62 0 0 0 1.621-1.622v-34.528a2 2 0 0 1 2-2h36.63a2 2 0 0 1 2 2v20.699c0 1.054.854 1.908 1.908 1.908 1.053 0 1.907.854 1.907 1.907Z"/></mask><g fill="#999CA2" fill-opacity=".15" mask="url(#g)"><path d="m588.273 375.466-88.665 88.596-1.8-1.798 88.665-88.597zm10.813-3.597-88.665 88.596-1.8-1.798 88.665-88.597zm3.6 3.597-88.665 88.596-1.8-1.798 88.665-88.597zm3.601 3.599-88.665 88.596-1.8-1.798 88.665-88.597zm3.6 3.597-88.665 88.596-1.8-1.798 88.665-88.597zm3.601 3.598-88.665 88.596-1.8-1.798 88.665-88.597zm3.6 3.598-88.665 88.596-1.8-1.798 88.665-88.597zm3.601 3.598-88.665 88.596-1.8-1.798 88.665-88.597zm3.6 3.598-88.665 88.596-1.8-1.798 88.665-88.597zm3.602 3.597-88.665 88.596-1.8-1.798 88.665-88.597zm3.599 3.598-88.665 88.596-1.8-1.798 88.665-88.597zm3.602 3.598-88.665 88.596-1.8-1.798 88.665-88.597zm3.599 3.598-88.665 88.596-1.8-1.798 88.665-88.597zm3.602 3.598-88.665 88.596-1.8-1.798 88.665-88.597zm3.6 3.598-88.665 88.596-1.8-1.798 88.665-88.597zm3.601 3.598-88.665 88.596-1.8-1.798 88.665-88.597zm3.6 3.597-88.665 88.596-1.8-1.798 88.665-88.597zm3.601 3.598L568.03 518.03l-1.8-1.798 88.665-88.597zm3.602 3.598-88.665 88.596-1.8-1.798 88.665-88.597zm3.599 3.597-88.665 88.596-1.8-1.798 88.665-88.597zm3.6 3.599-88.665 88.596-1.8-1.798 88.665-88.597zm3.602 3.597-88.665 88.596-1.8-1.798 88.665-88.597z"/></g><path fill="#E3E5EA" d="M587.574 459.641h4.971c2.614 0 4.006-1.364 4.006-3.216 0-1.722-1.233-2.762-2.557-2.824v-.114c1.211-.273 2.103-1.13 2.103-2.5 0-1.744-1.296-2.983-3.864-2.983h-4.659v11.637Zm2.46-2.012v-3.091h2.063c1.181 0 1.914.682 1.914 1.642 0 .875-.596 1.449-1.971 1.449h-2.006Zm0-4.755v-2.881h1.869c1.091 0 1.711.562 1.711 1.403 0 .921-.75 1.478-1.756 1.478h-1.824Z"/><rect width="38.913" height="45.399" x="326.793" y="263.512" stroke="#999CA2" stroke-opacity=".25" stroke-width="1.6" rx="2" transform="rotate(180 326.793 263.512)"/><mask id="h" width="40" height="46" x="287" y="218" maskUnits="userSpaceOnUse" style="mask-type:alpha"><rect width="38.913" height="45.399" x="326.793" y="263.512" fill="#C4C4C4" rx="2" transform="rotate(180 326.793 263.512)"/></mask><g fill="#999CA2" fill-opacity=".15" mask="url(#h)"><path d="m309.273 166.466-88.665 88.596-1.8-1.798 88.665-88.597zm10.813-3.597-88.665 88.596-1.8-1.798 88.665-88.597zm3.6 3.597-88.665 88.596-1.8-1.798 88.665-88.597zm3.601 3.599-88.665 88.596-1.8-1.798 88.665-88.597zm3.6 3.597-88.665 88.596-1.8-1.798 88.665-88.597zm3.601 3.598-88.665 88.596-1.8-1.798 88.665-88.597zm3.6 3.598-88.665 88.596-1.8-1.798 88.665-88.597zm3.601 3.598-88.665 88.596-1.8-1.798 88.665-88.597zm3.6 3.598-88.665 88.596-1.8-1.798 88.665-88.597zm3.602 3.597-88.665 88.596-1.8-1.798 88.665-88.597zm3.599 3.598-88.665 88.596-1.8-1.798 88.665-88.597zm3.602 3.598-88.665 88.596-1.8-1.798 88.665-88.597zm3.599 3.598-88.665 88.596-1.8-1.798 88.665-88.597zm3.602 3.598-88.665 88.596-1.8-1.798 88.665-88.597zm3.6 3.598-88.665 88.596-1.8-1.798 88.665-88.597zm3.601 3.598-88.665 88.596-1.8-1.798 88.665-88.597zm3.6 3.597-88.665 88.596-1.8-1.798 88.665-88.597zm3.601 3.598L289.03 309.03l-1.8-1.798 88.665-88.597zm3.602 3.598-88.665 88.596-1.8-1.798 88.665-88.597zm3.599 3.597-88.665 88.596-1.8-1.798 88.665-88.597zm3.6 3.599-88.665 88.596-1.8-1.798 88.665-88.597zm3.602 3.597-88.665 88.596-1.8-1.798 88.665-88.597z"/></g><path fill="#E3E5EA" d="m303.884 245.641.864-2.654h4.199l.863 2.654h2.637l-4.012-11.637h-3.17l-4.017 11.637h2.636Zm1.489-4.574 1.432-4.404h.091l1.431 4.404h-2.954Z"/><path fill="#7F838B" d="M557.166 517c1.994 0 3.202-1.234 3.202-3.279 0-2.039-1.208-3.267-3.183-3.267h-2.339V517h2.32Zm-.936-1.186v-4.174h.882c1.227 0 1.876.627 1.876 2.081 0 1.46-.649 2.093-1.88 2.093h-.878Zm6.457 1.279c.725 0 1.195-.317 1.435-.774h.038V517h1.291v-3.311c0-1.17-.99-1.662-2.083-1.662-1.177 0-1.95.562-2.139 1.457l1.26.103c.092-.326.383-.566.872-.566.464 0 .729.233.729.636v.019c0 .316-.336.358-1.189.441-.972.09-1.844.416-1.844 1.512 0 .971.693 1.464 1.63 1.464Zm.39-.94c-.419 0-.719-.195-.719-.569 0-.383.316-.572.795-.639.298-.042.783-.112.946-.221v.521c0 .515-.425.908-1.022.908Zm3.35.847h1.361v-2.777c0-.604.441-1.02 1.042-1.02.189 0 .448.032.575.074v-1.209a2.086 2.086 0 0 0-.428-.047c-.55 0-1 .319-1.179.926h-.051v-.856h-1.32V517Zm3.601 0h1.362v-1.56l.367-.418 1.339 1.978h1.595l-1.914-2.784 1.822-2.125h-1.563l-1.573 1.863h-.073v-3.5h-1.362V517Zm25.685 25.595h2.004V548h1.368v-5.405h2.004v-1.141h-5.376v1.141Zm7.661 5.501c1.489 0 2.416-1.02 2.416-2.531 0-1.522-.927-2.538-2.416-2.538-1.49 0-2.417 1.016-2.417 2.538 0 1.511.927 2.531 2.417 2.531Zm.006-1.055c-.687 0-1.039-.629-1.039-1.486s.352-1.489 1.039-1.489c.674 0 1.026.632 1.026 1.489 0 .857-.352 1.486-1.026 1.486Zm4.167-3.95h-1.406l1.406 2.454L606.09 548h1.406l.953-1.697.968 1.697h1.39l-1.46-2.455 1.422-2.454h-1.397l-.923 1.716-.902-1.716Zm3.95 4.909h1.361v-4.909h-1.361V548Zm.683-5.542c.406 0 .739-.31.739-.69 0-.377-.333-.687-.739-.687-.402 0-.735.31-.735.687 0 .38.333.69.735.69Zm3.906 5.638c1.307 0 2.128-.767 2.192-1.895h-1.285c-.08.524-.425.818-.891.818-.636 0-1.049-.534-1.049-1.474 0-.926.416-1.457 1.049-1.457.498 0 .818.329.891.818h1.285c-.057-1.134-.917-1.879-2.199-1.879-1.489 0-2.41 1.032-2.41 2.538 0 1.492.905 2.531 2.417 2.531ZM573.675 584h1.384v-2.32h1.01l1.24 2.32h1.527l-1.39-2.544c.745-.32 1.157-.969 1.157-1.863 0-1.301-.86-2.139-2.346-2.139h-2.582V584Zm1.384-3.433v-1.981h.933c.799 0 1.186.355 1.186 1.007 0 .648-.387.974-1.18.974h-.939Zm5.815 3.526c.726 0 1.196-.317 1.435-.774h.039V584h1.291v-3.311c0-1.17-.991-1.662-2.084-1.662-1.176 0-1.95.562-2.138 1.457l1.259.103c.093-.326.384-.566.873-.566.463 0 .728.233.728.636v.019c0 .316-.335.358-1.189.441-.971.09-1.844.416-1.844 1.512 0 .971.694 1.464 1.63 1.464Zm.39-.94c-.418 0-.719-.195-.719-.569 0-.383.317-.572.796-.639.297-.042.783-.112.946-.221v.521c0 .515-.425.908-1.023.908Zm3.35.847h1.362v-2.947c0-.543.345-.904.799-.904.447 0 .748.307.748.789V584h1.319v-2.998c0-.508.291-.853.787-.853.434 0 .76.271.76.818V584h1.359v-3.302c0-1.064-.633-1.671-1.547-1.671-.719 0-1.279.367-1.48.93h-.051c-.157-.569-.658-.93-1.333-.93-.661 0-1.163.351-1.368.93h-.057v-.866h-1.298V584Zm8.128 1.841h1.362v-2.627h.041c.189.409.601.866 1.394.866 1.118 0 1.991-.885 1.991-2.528 0-1.688-.911-2.525-1.988-2.525-.822 0-1.215.489-1.397.888h-.061v-.824h-1.342v6.75Zm1.333-4.296c0-.875.371-1.435 1.032-1.435.675 0 1.033.585 1.033 1.435 0 .857-.365 1.451-1.033 1.451-.655 0-1.032-.575-1.032-1.451ZM490.377 298.337h1.327c-.019-1.167-.978-1.972-2.436-1.972-1.435 0-2.486.793-2.48 1.982-.003.965.678 1.518 1.784 1.783l.712.179c.713.172 1.109.377 1.113.818-.004.479-.458.805-1.161.805-.719 0-1.236-.332-1.281-.987h-1.339c.035 1.416 1.048 2.148 2.636 2.148 1.598 0 2.538-.764 2.541-1.963-.003-1.09-.824-1.668-1.962-1.924l-.588-.14c-.569-.131-1.045-.342-1.036-.812 0-.422.374-.732 1.052-.732.661 0 1.067.3 1.118.815Zm4.478 4.759c1.214 0 2.032-.591 2.224-1.502l-1.259-.083c-.138.374-.489.568-.943.568-.681 0-1.112-.45-1.112-1.182v-.003h3.343v-.374c0-1.668-1.01-2.493-2.308-2.493-1.444 0-2.381 1.026-2.381 2.541 0 1.556.924 2.528 2.436 2.528Zm-1.09-3.046a1.038 1.038 0 0 1 1.058-1.007c.591 0 1 .422 1.003 1.007h-2.061Zm6.368 3.046c1.308 0 2.129-.767 2.193-1.895h-1.285c-.08.524-.425.818-.892.818-.636 0-1.048-.534-1.048-1.474 0-.926.416-1.457 1.048-1.457.499 0 .819.329.892.818h1.285c-.058-1.134-.917-1.879-2.199-1.879-1.489 0-2.41 1.032-2.41 2.538 0 1.492.905 2.531 2.416 2.531Zm2.984-.096h1.361v-2.777c0-.604.441-1.02 1.042-1.02.189 0 .447.032.575.074v-1.209a2.094 2.094 0 0 0-.428-.047c-.55 0-1 .319-1.179.926h-.051v-.856h-1.32V303Zm5.61.096c1.214 0 2.033-.591 2.224-1.502l-1.259-.083c-.137.374-.489.568-.943.568-.68 0-1.112-.45-1.112-1.182v-.003h3.343v-.374c0-1.668-1.01-2.493-2.307-2.493-1.445 0-2.381 1.026-2.381 2.541 0 1.556.923 2.528 2.435 2.528Zm-1.09-3.046a1.038 1.038 0 0 1 1.058-1.007c.591 0 1 .422 1.004 1.007h-2.062Zm6.762-1.959h-.924v-1.176h-1.361v1.176h-.672v1.023h.672v2.556c-.007.962.648 1.439 1.636 1.397.352-.013.601-.083.738-.128l-.214-1.013c-.067.013-.211.045-.339.045-.271 0-.46-.102-.46-.48v-2.377h.924v-1.023ZM509.17 505h1.349l1.243-4.28h.051l1.247 4.28h1.348l1.873-6.546h-1.512l-1.083 4.558h-.057l-1.193-4.558h-1.294l-1.195 4.548h-.055l-1.083-4.548h-1.512L509.17 505Zm7.745 0h1.362v-4.909h-1.362V505Zm.684-5.542c.406 0 .739-.31.739-.69 0-.377-.333-.687-.739-.687-.402 0-.735.31-.735.687 0 .38.333.69.735.69Zm3.049 2.704c.003-.633.38-1.004.93-1.004.547 0 .876.358.873.959V505h1.361v-3.126c0-1.144-.671-1.847-1.694-1.847-.729 0-1.256.358-1.476.93h-.058v-.866h-1.298V505h1.362v-2.838Zm5.965 2.918c.793 0 1.205-.457 1.394-.866h.057V505h1.342v-6.546h-1.358v2.461h-.041c-.183-.399-.576-.888-1.397-.888-1.077 0-1.988.837-1.988 2.525 0 1.643.872 2.528 1.991 2.528Zm.432-1.084c-.668 0-1.033-.594-1.033-1.451 0-.85.358-1.435 1.033-1.435.661 0 1.032.56 1.032 1.435 0 .876-.377 1.451-1.032 1.451Zm5.618 1.1c1.489 0 2.416-1.02 2.416-2.531 0-1.522-.927-2.538-2.416-2.538-1.49 0-2.416 1.016-2.416 2.538 0 1.511.926 2.531 2.416 2.531Zm.006-1.055c-.687 0-1.039-.629-1.039-1.486s.352-1.489 1.039-1.489c.675 0 1.026.632 1.026 1.489 0 .857-.351 1.486-1.026 1.486Zm4.06.959h1.438l.844-3.087h.06l.844 3.087h1.441l1.333-4.909h-1.374l-.748 3.279h-.041l-.806-3.279h-1.352l-.792 3.298h-.045l-.761-3.298h-1.377l1.336 4.909Zm-13.747-54c1.995 0 3.203-1.234 3.203-3.279 0-2.039-1.208-3.267-3.183-3.267h-2.34V451h2.32Zm-.936-1.186v-4.174h.882c1.227 0 1.876.627 1.876 2.081 0 1.46-.649 2.093-1.879 2.093h-.879Zm7.275 1.282c1.49 0 2.417-1.02 2.417-2.531 0-1.522-.927-2.538-2.417-2.538-1.489 0-2.416 1.016-2.416 2.538 0 1.511.927 2.531 2.416 2.531Zm.007-1.055c-.687 0-1.039-.629-1.039-1.486s.352-1.489 1.039-1.489c.674 0 1.026.632 1.026 1.489 0 .857-.352 1.486-1.026 1.486Zm6.362-1.131c.003.658-.448 1.003-.937 1.003-.514 0-.846-.361-.85-.939v-2.883h-1.361v3.126c.003 1.147.674 1.847 1.662 1.847.738 0 1.269-.38 1.489-.956h.051V451h1.307v-4.909h-1.361v2.819Zm2.395 2.09h1.342v-.786h.061c.189.409.601.866 1.394.866 1.118 0 1.991-.885 1.991-2.528 0-1.688-.911-2.525-1.988-2.525-.822 0-1.215.489-1.397.888h-.041v-2.461h-1.362V451Zm1.333-2.455c0-.875.371-1.435 1.032-1.435.674 0 1.032.585 1.032 1.435 0 .857-.364 1.451-1.032 1.451-.655 0-1.032-.575-1.032-1.451Zm5.644-4.091H543.7V451h1.362v-6.546Zm3.247 6.642c1.214 0 2.032-.591 2.224-1.502l-1.259-.083c-.138.374-.489.568-.943.568-.681 0-1.112-.45-1.112-1.182v-.003h3.343v-.374c0-1.668-1.01-2.493-2.308-2.493-1.444 0-2.381 1.026-2.381 2.541 0 1.556.924 2.528 2.436 2.528Zm-1.09-3.046a1.037 1.037 0 0 1 1.058-1.007c.591 0 1 .422 1.003 1.007h-2.061ZM527.876 463c1.994 0 3.202-1.234 3.202-3.279 0-2.039-1.208-3.267-3.183-3.267h-2.339V463h2.32Zm-.936-1.186v-4.174h.882c1.227 0 1.876.627 1.876 2.081 0 1.46-.649 2.093-1.88 2.093h-.878Zm7.275 1.282c1.489 0 2.416-1.02 2.416-2.531 0-1.522-.927-2.538-2.416-2.538-1.489 0-2.416 1.016-2.416 2.538 0 1.511.927 2.531 2.416 2.531Zm.006-1.055c-.687 0-1.038-.629-1.038-1.486s.351-1.489 1.038-1.489c.675 0 1.026.632 1.026 1.489 0 .857-.351 1.486-1.026 1.486Zm5.432 1.055c1.49 0 2.417-1.02 2.417-2.531 0-1.522-.927-2.538-2.417-2.538-1.489 0-2.416 1.016-2.416 2.538 0 1.511.927 2.531 2.416 2.531Zm.007-1.055c-.687 0-1.039-.629-1.039-1.486s.352-1.489 1.039-1.489c.674 0 1.026.632 1.026 1.489 0 .857-.352 1.486-1.026 1.486Zm3.214.959h1.361v-2.777c0-.604.442-1.02 1.042-1.02.189 0 .448.032.576.074v-1.209a2.104 2.104 0 0 0-.429-.047c-.549 0-1 .319-1.179.926h-.051v-.856h-1.32V463Zm21.176-59.546h-1.537l2.259 6.546h1.784l2.256-6.546h-1.534l-1.585 4.973h-.061l-1.582-4.973Zm7.118 6.642c1.215 0 2.033-.591 2.225-1.502l-1.26-.083c-.137.374-.489.568-.942.568-.681 0-1.113-.45-1.113-1.182v-.003h3.343v-.374c0-1.668-1.01-2.493-2.307-2.493-1.445 0-2.381 1.026-2.381 2.541 0 1.556.923 2.528 2.435 2.528Zm-1.09-3.046a1.038 1.038 0 0 1 1.058-1.007c.592 0 1.001.422 1.004 1.007h-2.062Zm5.512.112c.004-.633.381-1.004.93-1.004.547 0 .876.358.873.959V410h1.361v-3.126c0-1.144-.671-1.847-1.693-1.847-.729 0-1.256.358-1.477.93h-.058v-.866h-1.297V410h1.361v-2.838Zm6.768-2.071h-.924v-1.176h-1.361v1.176h-.672v1.023h.672v2.556c-.007.962.648 1.439 1.636 1.397.351-.013.601-.083.738-.128l-.214-1.013c-.067.013-.211.045-.339.045-.271 0-.46-.102-.46-.48v-2.377h.924v-1.023ZM563.732 389h2.796c1.47 0 2.253-.767 2.253-1.809 0-.968-.693-1.553-1.438-1.588v-.064c.681-.154 1.183-.636 1.183-1.407 0-.981-.729-1.678-2.174-1.678h-2.62V389Zm1.384-1.131v-1.739h1.16c.665 0 1.077.383 1.077.924 0 .492-.336.815-1.109.815h-1.128Zm0-2.676v-1.62h1.051c.614 0 .962.316.962.79 0 .517-.422.83-.987.83h-1.026Zm5.859 3.9c.726 0 1.196-.317 1.435-.774h.039V389h1.291v-3.311c0-1.17-.991-1.662-2.084-1.662-1.176 0-1.95.562-2.138 1.457l1.259.103c.093-.326.384-.566.873-.566.463 0 .728.233.728.636v.019c0 .316-.335.358-1.189.441-.971.09-1.844.416-1.844 1.512 0 .971.694 1.464 1.63 1.464Zm.39-.94c-.419 0-.719-.195-.719-.569 0-.383.316-.572.796-.639.297-.042.783-.112.946-.221v.521c0 .515-.425.908-1.023.908Zm5.568.943c1.307 0 2.129-.767 2.193-1.895h-1.285c-.08.524-.425.818-.892.818-.636 0-1.048-.534-1.048-1.474 0-.926.415-1.457 1.048-1.457.499 0 .818.329.892.818h1.285c-.058-1.134-.918-1.879-2.199-1.879-1.49 0-2.41 1.032-2.41 2.538 0 1.492.904 2.531 2.416 2.531Zm2.983-.096h1.362v-1.56l.367-.418 1.339 1.978h1.595l-1.914-2.784 1.822-2.125h-1.563l-1.573 1.863h-.073v-3.5h-1.362V389Zm8.368-6.546h-1.538l2.26 6.546h1.783l2.257-6.546h-1.534l-1.586 4.973h-.06l-1.582-4.973Zm7.118 6.642c1.214 0 2.032-.591 2.224-1.502l-1.259-.083c-.138.374-.489.568-.943.568-.681 0-1.112-.45-1.112-1.182v-.003h3.343v-.374c0-1.668-1.01-2.493-2.308-2.493-1.444 0-2.381 1.026-2.381 2.541 0 1.556.924 2.528 2.436 2.528Zm-1.09-3.046a1.038 1.038 0 0 1 1.058-1.007c.591 0 1 .422 1.003 1.007h-2.061Zm5.512.112c.003-.633.38-1.004.93-1.004.546 0 .876.358.872.959V389h1.362v-3.126c0-1.144-.671-1.847-1.694-1.847-.729 0-1.256.358-1.476.93h-.058v-.866h-1.298V389h1.362v-2.838Zm6.767-2.071h-.923v-1.176h-1.362v1.176h-.671v1.023h.671v2.556c-.006.962.649 1.439 1.636 1.397.352-.013.601-.083.739-.128l-.214-1.013c-.068.013-.211.045-.339.045-.272 0-.46-.102-.46-.48v-2.377h.923v-1.023Zm4.82 1.4c-.121-.905-.85-1.464-2.09-1.464-1.256 0-2.084.582-2.081 1.528-.003.735.461 1.211 1.42 1.403l.85.169c.428.086.623.243.629.489-.006.291-.323.499-.799.499-.486 0-.808-.208-.891-.608l-1.34.071c.128.939.927 1.518 2.228 1.518 1.272 0 2.183-.649 2.186-1.617-.003-.71-.466-1.135-1.419-1.33l-.888-.179c-.457-.099-.627-.256-.624-.492-.003-.294.33-.486.751-.486.473 0 .755.259.822.575l1.246-.076ZM626.388 412c1.994 0 3.202-1.234 3.202-3.279 0-2.039-1.208-3.267-3.183-3.267h-2.34V412h2.321Zm-.937-1.186v-4.174h.882c1.228 0 1.876.627 1.876 2.081 0 1.46-.648 2.093-1.879 2.093h-.879Zm7.295 1.282c1.214 0 2.032-.592 2.224-1.502l-1.259-.083c-.137.373-.489.568-.943.568-.681 0-1.112-.45-1.112-1.182v-.003h3.343v-.374c0-1.669-1.01-2.493-2.308-2.493-1.444 0-2.381 1.026-2.381 2.541 0 1.556.924 2.528 2.436 2.528Zm-1.09-3.046a1.038 1.038 0 0 1 1.058-1.007c.591 0 1 .422 1.003 1.007h-2.061Zm6.369 3.046c1.307 0 2.128-.767 2.192-1.895h-1.285c-.08.524-.425.818-.891.818-.636 0-1.049-.534-1.049-1.474 0-.927.416-1.457 1.049-1.457.498 0 .818.329.891.818h1.285c-.058-1.134-.917-1.879-2.199-1.879-1.489 0-2.41 1.032-2.41 2.538 0 1.492.905 2.531 2.417 2.531Zm5.201 0c1.489 0 2.416-1.02 2.416-2.531 0-1.522-.927-2.538-2.416-2.538-1.49 0-2.416 1.016-2.416 2.538 0 1.511.926 2.531 2.416 2.531Zm.006-1.055c-.687 0-1.039-.63-1.039-1.486 0-.857.352-1.489 1.039-1.489.675 0 1.026.632 1.026 1.489 0 .856-.351 1.486-1.026 1.486Zm4.576-1.879c.003-.633.38-1.004.93-1.004.546 0 .876.358.872.959V412h1.362v-3.126c0-1.144-.671-1.847-1.694-1.847-.729 0-1.256.358-1.477.93h-.057v-.866h-1.298V412h1.362v-2.838ZM491.55 349.595h2.004V355h1.368v-5.405h2.004v-1.141h-5.376v1.141Zm8.635 3.315c.003.658-.447 1.003-.936 1.003-.515 0-.847-.361-.851-.939v-2.883h-1.361v3.126c.003 1.147.674 1.847 1.662 1.847.738 0 1.269-.38 1.489-.956h.051V355h1.307v-4.909h-1.361v2.819Zm3.731-.748c.003-.633.38-1.004.93-1.004.547 0 .876.358.873.959V355h1.361v-3.126c0-1.144-.671-1.847-1.694-1.847-.729 0-1.256.358-1.476.93h-.058v-.866h-1.298V355h1.362v-2.838Zm5.518 0c.003-.633.38-1.004.93-1.004.546 0 .875.358.872.959V355h1.362v-3.126c0-1.144-.671-1.847-1.694-1.847-.729 0-1.256.358-1.477.93h-.057v-.866h-1.298V355h1.362v-2.838Zm6.393 2.934c1.214 0 2.033-.591 2.224-1.502l-1.259-.083c-.137.374-.489.568-.943.568-.68 0-1.112-.45-1.112-1.182v-.003h3.343v-.374c0-1.668-1.01-2.493-2.307-2.493-1.445 0-2.381 1.026-2.381 2.541 0 1.556.923 2.528 2.435 2.528Zm-1.09-3.046a1.038 1.038 0 0 1 1.058-1.007c.591 0 1 .422 1.004 1.007h-2.062Zm5.512-3.596h-1.361V355h1.361v-6.546Zm5.094 3.037c-.121-.905-.85-1.464-2.09-1.464-1.256 0-2.084.582-2.08 1.528-.004.735.46 1.211 1.419 1.403l.85.169c.428.086.623.243.629.489-.006.291-.322.499-.799.499-.485 0-.808-.208-.891-.608l-1.34.071c.128.939.927 1.518 2.228 1.518 1.272 0 2.183-.649 2.186-1.617-.003-.71-.466-1.135-1.419-1.33l-.888-.179c-.457-.099-.627-.256-.624-.492-.003-.294.33-.486.752-.486.473 0 .754.259.821.575l1.246-.076Z"/><path fill="#E3E5EA" d="M455.054 603h2.461v-4.807h4.733v-2.028h-4.733v-2.773h5.244v-2.028h-7.705V603Zm11.591-11.636h-2.421V603h2.421v-11.636Zm5.738 11.806c2.648 0 4.295-1.812 4.295-4.5 0-2.704-1.647-4.511-4.295-4.511-2.648 0-4.296 1.807-4.296 4.511 0 2.688 1.648 4.5 4.296 4.5Zm.011-1.875c-1.221 0-1.846-1.119-1.846-2.642 0-1.522.625-2.647 1.846-2.647 1.199 0 1.824 1.125 1.824 2.647 0 1.523-.625 2.642-1.824 2.642Zm9.657 1.875c2.648 0 4.296-1.812 4.296-4.5 0-2.704-1.648-4.511-4.296-4.511-2.647 0-4.295 1.807-4.295 4.511 0 2.688 1.648 4.5 4.295 4.5Zm.012-1.875c-1.222 0-1.847-1.119-1.847-2.642 0-1.522.625-2.647 1.847-2.647 1.199 0 1.824 1.125 1.824 2.647 0 1.523-.625 2.642-1.824 2.642Zm5.714 1.705h2.42v-4.938c0-1.073.784-1.812 1.852-1.812.336 0 .796.057 1.023.131v-2.148a3.642 3.642 0 0 0-.761-.085c-.977 0-1.779.568-2.097 1.647h-.091v-1.522h-2.346V603Zm15.399-5.739h-5.307v1.921h5.307v-1.921Zm6.958-5.897h-2.312l-2.881 1.823v2.182l2.665-1.67h.068V603h2.46v-11.636Z"/><path fill="#E44C4D" fill-opacity=".25" stroke="#E44C4D" stroke-width="1.5" d="M632.186 184.252v37.775a2 2 0 0 1-2 2h-66.387a2 2 0 0 1-2-2v-20.223c0-.79-.641-1.43-1.431-1.43a1.43 1.43 0 0 1-1.431-1.431v-20.315c0-.28 12.545-.153 20.356-.032a1.994 1.994 0 0 1 1.962 1.998v13.202a2 2 0 0 0 2 2h42.734a2 2 0 0 0 2-2v-9.544a2 2 0 0 1 2-2h.197a2 2 0 0 1 2 2Z"/><path fill="#E44C4D" d="M600.082 211.206h-2.672V204h-1.824v7.206h-2.672v1.521h7.168v-1.521Z"/><g fill="#30D9D4"><path fill-opacity=".25" fill-rule="evenodd" d="M164.375 287.928a2 2 0 0 0 2-2V245.93a.157.157 0 0 0-.157-.158.156.156 0 0 0-.126.064c-8.173 10.96-21.238 18.058-35.96 18.058-11.811 0-22.555-4.568-30.562-12.033a2.048 2.048 0 0 0-1.395-.557H87.497a2 2 0 0 0-2 2v32.624a2 2 0 0 0 2 2h76.878Z" clip-rule="evenodd"/><path d="m99.57 251.861-.511.548.511-.548Zm66.522-6.025-.602-.449.602.449Zm-.467.094v39.998h1.5V245.93h-1.5Zm-.135-.543c-8.036 10.779-20.882 17.757-35.358 17.757v1.5c14.969 0 28.253-7.218 36.561-18.36l-1.203-.897Zm-35.358 17.757c-11.614 0-22.177-4.491-30.05-11.832l-1.023 1.097c8.14 7.59 19.065 12.235 31.073 12.235v-1.5Zm-42.635-11.09h10.678v-1.5H87.497v1.5Zm-1.25 33.874v-32.624h-1.5v32.624h1.5Zm78.128 1.25H87.497v1.5h76.878v-1.5Zm-79.628-1.25a2.75 2.75 0 0 0 2.75 2.75v-1.5a1.25 1.25 0 0 1-1.25-1.25h-1.5Zm15.335-34.616a2.802 2.802 0 0 0-1.907-.758v1.5a1.3 1.3 0 0 1 .884.355l1.023-1.097Zm66.136-6.29a.908.908 0 0 0-.728.365l1.203.897a.594.594 0 0 1-.475.238v-1.5Zm-.593 40.906c0 .691-.56 1.25-1.25 1.25v1.5a2.75 2.75 0 0 0 2.75-2.75h-1.5Zm-78.128-35.374a2.75 2.75 0 0 0-2.75 2.75h1.5c0-.69.56-1.25 1.25-1.25v-1.5Zm79.628-4.624a.908.908 0 0 0-.907-.908v1.5a.592.592 0 0 1-.593-.592h1.5Z"/></g><path fill="#30D9D4" d="M126.493 273.328c-.243-2.016-1.768-3.175-3.788-3.175-2.305 0-4.065 1.628-4.065 4.483 0 2.847 1.73 4.483 4.065 4.483 2.237 0 3.588-1.487 3.788-3.093l-1.866-.009c-.175.933-.908 1.47-1.892 1.47-1.326 0-2.225-.984-2.225-2.851 0-1.815.887-2.851 2.238-2.851 1.009 0 1.738.584 1.879 1.543h1.866Zm.883-1.534h2.672V279h1.824v-7.206h2.672v-1.521h-7.168v1.521Z"/></g><defs><linearGradient id="b" x1="629.324" x2="566.758" y1="398.939" y2="367.465" gradientUnits="userSpaceOnUse"><stop stop-color="#C4C4C4" stop-opacity=".5"/><stop offset="1" stop-color="#C4C4C4" stop-opacity="0"/></linearGradient><linearGradient id="d" x1="661.752" x2="661.752" y1="740.388" y2="657.984" gradientUnits="userSpaceOnUse"><stop stop-color="#C4C4C4" stop-opacity="0"/><stop offset="1" stop-color="#C4C4C4" stop-opacity=".5"/></linearGradient></defs></svg>