<svg xmlns="http://www.w3.org/2000/svg" width="708" height="708" fill="none"><path fill="#181B21" fill-rule="evenodd" d="m569.486 564.589-23.22-46.264-2.462-2.99 4.221-2.639 1.408 1.935L635.1 470.83l-54.004-97.628v-6.509h-4.046v-2.814h4.046v-30.784h-22.868v-1.583h2.463v-69.308h-31.839l-1.584-1.583v-57.698h2.463v23.748h33.774l30.96 30.959 1.935-1.935 4.222 4.222-1.759 1.759 17.415 17.415 1.935-1.935 4.045 4.046-1.935 1.935 17.239 17.239 2.287-2.287 4.046 4.046-2.463 2.463 17.239 17.239 2.111-2.111 1.583 1.583 37.82-36.061-2.11-2.111 3.166-3.166-17.591-17.591-2.462 2.463-3.87-3.87 2.638-2.639-17.591-17.591-2.814 2.815-3.87-3.87 2.814-2.815-17.59-17.59-2.815 2.814-3.518-3.518 2.814-2.815-46.263-46.263v-25.155h-3.167v-1.759h-1.759V140.3h-9.147v2.287h-35.709v3.342h-9.675l-1.935-1.935 1.407-2.111-14.248-12.665-1.583 1.759-2.991-2.639v-8.795h2.111v-19.35h-2.814V89.99h-11.962V87H478.19v3.87h-1.583v56.466l-46.616 23.748-.703-2.287 11.61-6.509V97.73h-67.549l-53.828 27.618v23.571h-42.569v-10.73l-83.204-41.514-28.849 56.994 24.979 13.369v25.858h-25.507v69.308l-19.35 37.996 8.444 4.046-3.167 7.036 5.805 3.518-1.407 2.991-3.174-1.143 15.312 51.805 12.489-1.759 2.815 6.157-1.759 5.662 26.386 12.28L221.013 363l-7.036-3.166.704-1.584 6.332 2.639v-5.453h15.304v7.916h34.478v-7.916h14.952v7.916h10.555l26.738-12.138v-3.694h7.388v-17.943h-7.388l-.88-.879h-37.468l-1.583 1.583h-12.314v-5.453h8.444v-2.639l-9.323-36.237 2.814-.703 10.379 39.051 1.583 1.583h64.558v-3.166h1.935v30.784l6.86-3.87 14.249 14.248.879-.879h15.48v23.396l10.555 10.73-1.759 1.583-11.258-11.434V377.6H383.2l-25.155-25.858-18.822 10.027-.879-1.584 11.786-6.156h-13.369v7.388l-28.849 14.248v1.759h-5.805v-1.759h-51.365v1.759h-5.629v-1.759h-20.757l-16.887 32.015-35.886-16.535 7.213-13.369 1.583-4.925-1.935-4.398-12.314 1.935-15.831-54.18.812.292-.813-.292-5.277-14.249-8.267 17.943H54.253v65.789H39.3v7.036H6.758v59.281H51.79l8.444-16.535h1.935l2.638-5.453h2.111l-.88 2.111 18.999 9.499-2.111 11.082 25.682 28.673 1.056 4.925 9.147 7.916 2.463 4.398 13.545 8.092 3.869-6.861 4.574 1.583v2.111l41.338 21.109 1.935-1.231 4.574 2.287v1.935l30.608 15.655 1.583-1.055 5.453 2.638-1.231 2.639L265.87 620h192.794l110.822-55.411ZM79.76 401.172l1.407.879-1.76 2.991-17.414-8.268-16.184 30.256 1.76 1.232-4.046 7.74H34.55v-3.87h2.639V430.9h1.935v-8.091h7.564l14.424-28.146 17.767 8.268.88-1.759Zm-10.203-14.425h-2.11v-1.759l3.517-1.231 22.165 11.258-4.222 7.74-7.564-3.87-.704 1.056-11.082-5.805v-7.389Zm53.476-37.644L93.656 335.91l7.057-16.007h2.463l-6.705 14.072 3.694 1.935h16.008v8.62l6.332 2.638 12.69-27.265h1.408l-13.57 29.2Zm378.201 149.522 17.415 33.598-14.952 8.795h-61.92v1.584h-5.629v-1.584H398.68v1.584h-5.805v-1.584h-25.682v16.184h1.231v3.342h-27.793v-3.342h9.675l13.017-13.017v-80.038h-2.815v-8.62h6.685v59.985h101.674l32.367-16.887Zm29.553-10.555 5.277-2.638-2.815-4.75V458.87l.704-7.916-.704-5.453v-13.018l-1.231-6.156 1.935-8.796-.704-6.332 1.408-3.694-2.287-13.721 8.443-17.591 8.444-3.694 4.574-3.87 15.304-1.759v-2.991h-40.283v120.673l1.935 3.518Zm47.495-36.237 14.776-10.554-15.832-6.509 1.056 17.063ZM459.72 488.774l-9.499-18.998 24.979-14.249 10.73 18.647-26.21 14.6Zm-2.463-59.105-22.164 11.434-21.285-41.69h-2.814v-46.44h5.277v-17.239h16.711v18.471h42.394v-5.278h12.313v-29.552h37.117v-18.822h2.638v-9.147h10.555v40.634h1.935v1.407h-25.859l-70.011 69.836 13.193 26.386ZM389.885 363h6.86v-1.759h-6.86V363Zm4.221-25.683h-16.359v-1.583h16.359v1.583Zm-28.848 98.685h1.231v-9.851l-19.526-19.878h-34.654v-7.212h-1.407v8.795h35.358l18.998 19.174v8.972Zm-71.419-36.941h1.583v8.795h-35.533l-18.998 19.174v8.796h-1.231v-9.675l20.229-19.878h33.95v-7.212Zm51.717 65.086v40.107l-12.314 12.313h-20.053v40.811h6.157v2.99h-34.478l-1.407-1.407h-1.408v-40.459l-39.051-1.407-1.407 1.935-5.102-2.463.88-1.231-32.367-15.832-1.232 2.111-4.749-2.814.88-1.759-49.079-23.044 2.815-5.278 1.759.88 9.499-18.294 47.319 23.395h27.442v-19.174h6.508v4.222h13.017v-4.925h4.046v-16.712l6.157-6.156h20.933v5.629h25.858v-5.629h21.461l5.629 5.629v17.942h4.574v8.62h-2.287Zm158.317-293.59h2.287v129.82h-44.505v17.415h-68.428v-5.278h-42.042v3.343h-1.935v-4.926h28.497v-60.16H367.72v-70.715h26.211l23.043 46.791 17.239-4.397v-15.128h23.924v7.564l45.736-30.432v-13.897Zm-184.175 8.092h28.848v69.483h-29.728v-44.504h-66.669V169.15h67.549v9.499Zm-19.526 52.772-26.386-1.935-4.574 52.069 26.738 2.111 4.222-52.245Zm-67.373 77.223h-2.814l-3.518 15.656h-4.398l-1.056 1.056h-24.627l-2.99-2.111-4.75 8.795-17.239-9.147-1.759 2.99 15.304 7.564-5.101 8.796 12.314 6.684-4.574 8.62 7.916 4.397 4.925-8.795-5.101-3.166 1.935-3.694-4.75-2.639 7.564-14.776h20.582l.879.879h14.776V324.3h-6.86l3.342-15.656Zm322.263 78.279-.704-2.286 9.499-3.343 12.138 4.926-1.055 1.935-5.102-1.935-.632-.069a5.805 5.805 0 1 1-8.83-.963l-.213-.024-5.101 1.759ZM403.43 603.466a4.222 4.222 0 1 0-8.445 0 4.222 4.222 0 0 0 8.445 0Zm56.114-7.74a2.287 2.287 0 1 1 0 4.574 2.287 2.287 0 0 1 0-4.574Zm-82.149-9.675a2.287 2.287 0 1 0-4.574 0 2.287 2.287 0 0 0 4.574 0Zm-75.464 14.952a2.287 2.287 0 1 1 0 4.574 2.287 2.287 0 0 1 0-4.574Zm-42.746-27.618a2.285 2.285 0 1 0-4.573 0 2.287 2.287 0 0 0 4.573 0Zm-35.533-371.341c6.606 0 11.962 5.356 11.962 11.962s-5.356 11.962-11.962 11.962-11.962-5.356-11.962-11.962 5.356-11.962 11.962-11.962Z" clip-rule="evenodd"/><mask id="a" width="696" height="533" x="6" y="87" maskUnits="userSpaceOnUse" style="mask-type:alpha"><path fill="#181B21" fill-rule="evenodd" d="m569.486 564.589-23.22-46.264-2.462-2.99 4.221-2.639 1.408 1.935L635.1 470.83l-54.004-97.628v-6.509h-4.046v-2.814h4.046v-30.784h-22.868v-1.583h2.463v-69.308h-31.839l-1.584-1.583v-57.698h2.463v23.748h33.774l30.96 30.959 1.935-1.935 4.222 4.222-1.759 1.759 17.415 17.415 1.935-1.935 4.045 4.046-1.935 1.935 17.239 17.239 2.287-2.287 4.046 4.046-2.463 2.463 17.239 17.239 2.111-2.111 1.583 1.583 37.82-36.061-2.11-2.111 3.166-3.166-17.591-17.591-2.462 2.463-3.87-3.87 2.638-2.639-17.591-17.591-2.814 2.815-3.87-3.87 2.814-2.815-17.59-17.59-2.815 2.814-3.518-3.518 2.814-2.815-46.263-46.263v-25.155h-3.167v-1.759h-1.759V140.3h-9.147v2.287h-35.709v3.342h-9.675l-1.935-1.935 1.407-2.111-14.248-12.665-1.583 1.759-2.991-2.639v-8.795h2.111v-19.35h-2.814V89.99h-11.962V87H478.19v3.87h-1.583v56.466l-46.616 23.748-.703-2.287 11.61-6.509V97.73h-67.549l-53.828 27.618v23.571h-42.569v-10.73l-83.204-41.514-28.849 56.994 24.979 13.369v25.858h-25.507v69.308l-19.35 37.996 8.444 4.046-3.167 7.036 5.805 3.518-1.407 2.991-3.174-1.143 15.312 51.805 12.489-1.759 2.815 6.157-1.759 5.662 26.386 12.28L221.013 363l-7.036-3.166.704-1.584 6.332 2.639v-5.453h15.304v7.916h34.478v-7.916h14.952v7.916h10.555l26.738-12.138v-3.694h7.388v-17.943h-7.388l-.88-.879h-37.468l-1.583 1.583h-12.314v-5.453h8.444v-2.639l-9.323-36.237 2.814-.703 10.379 39.051 1.583 1.583h64.558v-3.166h1.935v30.784l6.86-3.87 14.249 14.248.879-.879h15.48v23.396l10.555 10.73-1.759 1.583-11.258-11.434V377.6H383.2l-25.155-25.858-18.822 10.027-.879-1.584 11.786-6.156h-13.369v7.388l-28.849 14.248v1.759h-5.805v-1.759h-51.365v1.759h-5.629v-1.759h-20.757l-16.887 32.015-35.886-16.535 7.213-13.369 1.583-4.925-1.935-4.398-12.314 1.935-15.831-54.18.812.292-.813-.292-5.277-14.249-8.267 17.943H54.253v65.789H39.3v7.036H6.758v59.281H51.79l8.444-16.535h1.935l2.638-5.453h2.111l-.88 2.111 18.999 9.499-2.111 11.082 25.682 28.673 1.056 4.925 9.147 7.916 2.463 4.398 13.545 8.092 3.869-6.861 4.574 1.583v2.111l41.338 21.109 1.935-1.231 4.574 2.287v1.935l30.608 15.655 1.583-1.055 5.453 2.638-1.231 2.639L265.87 620h192.794l110.822-55.411ZM79.76 401.172l1.407.879-1.76 2.991-17.414-8.268-16.184 30.256 1.76 1.232-4.046 7.74H34.55v-3.87h2.639V430.9h1.935v-8.091h7.564l14.424-28.146 17.767 8.268.88-1.759Zm-10.203-14.425h-2.11v-1.759l3.517-1.231 22.165 11.258-4.222 7.74-7.564-3.87-.704 1.056-11.082-5.805v-7.389Zm53.476-37.644L93.656 335.91l7.057-16.007h2.463l-6.705 14.072 3.694 1.935h16.008v8.62l6.332 2.638 12.69-27.265h1.408l-13.57 29.2Zm378.201 149.522 17.415 33.598-14.952 8.795h-61.92v1.584h-5.629v-1.584H398.68v1.584h-5.805v-1.584h-25.682v16.184h1.231v3.342h-27.793v-3.342h9.675l13.017-13.017v-80.038h-2.815v-8.62h6.685v59.985h101.674l32.367-16.887Zm29.553-10.555 5.277-2.638-2.815-4.75V458.87l.704-7.916-.704-5.453v-13.018l-1.231-6.156 1.935-8.796-.704-6.332 1.408-3.694-2.287-13.721 8.443-17.591 8.444-3.694 4.574-3.87 15.304-1.759v-2.991h-40.283v120.673l1.935 3.518Zm47.495-36.237 14.776-10.554-15.832-6.509 1.056 17.063ZM459.72 488.774l-9.499-18.998 24.979-14.249 10.73 18.647-26.21 14.6Zm-2.463-59.105-22.164 11.434-21.285-41.69h-2.814v-46.44h5.277v-17.239h16.711v18.471h42.394v-5.278h12.313v-29.552h37.117v-18.822h2.638v-9.147h10.555v40.634h1.935v1.407h-25.859l-70.011 69.836 13.193 26.386ZM389.885 363h6.86v-1.759h-6.86V363Zm4.221-25.683h-16.359v-1.583h16.359v1.583Zm-28.848 98.685h1.231v-9.851l-19.526-19.878h-34.654v-7.212h-1.407v8.795h35.358l18.998 19.174v8.972Zm-71.419-36.941h1.583v8.795h-35.533l-18.998 19.174v8.796h-1.231v-9.675l20.229-19.878h33.95v-7.212Zm51.717 65.086v40.107l-12.314 12.313h-20.053v40.811h6.157v2.99h-34.478l-1.407-1.407h-1.408v-40.459l-39.051-1.407-1.407 1.935-5.102-2.463.88-1.231-32.367-15.832-1.232 2.111-4.749-2.814.88-1.759-49.079-23.044 2.815-5.278 1.759.88 9.499-18.294 47.319 23.395h27.442v-19.174h6.508v4.222h13.017v-4.925h4.046v-16.712l6.157-6.156h20.933v5.629h25.858v-5.629h21.461l5.629 5.629v17.942h4.574v8.62h-2.287Zm158.317-293.59h2.287v129.82h-44.505v17.415h-68.428v-5.278h-42.042v3.343h-1.935v-4.926h28.497v-60.16H367.72v-70.715h26.211l23.043 46.791 17.239-4.397v-15.128h23.924v7.564l45.736-30.432v-13.897Zm-184.175 8.092h28.848v69.483h-29.728v-44.504h-66.669V169.15h67.549v9.499Zm-19.526 52.772-26.386-1.935-4.574 52.069 26.738 2.111 4.222-52.245Zm-67.373 77.223h-2.814l-3.518 15.656h-4.398l-1.056 1.056h-24.627l-2.99-2.111-4.75 8.795-17.239-9.147-1.759 2.99 15.304 7.564-5.101 8.796 12.314 6.684-4.574 8.62 7.916 4.397 4.925-8.795-5.101-3.166 1.935-3.694-4.75-2.639 7.564-14.776h20.582l.879.879h14.776V324.3h-6.86l3.342-15.656Zm322.263 78.279-.704-2.286 9.499-3.343 12.138 4.926-1.055 1.935-5.102-1.935-.632-.069a5.805 5.805 0 1 1-8.83-.963l-.213-.024-5.101 1.759ZM403.43 603.466a4.222 4.222 0 1 0-8.445 0 4.222 4.222 0 0 0 8.445 0Zm56.114-7.74a2.287 2.287 0 1 1 0 4.574 2.287 2.287 0 0 1 0-4.574Zm-82.149-9.675a2.287 2.287 0 1 0-4.574 0 2.287 2.287 0 0 0 4.574 0Zm-75.464 14.952a2.287 2.287 0 1 1 0 4.574 2.287 2.287 0 0 1 0-4.574Zm-42.746-27.618a2.285 2.285 0 1 0-4.573 0 2.287 2.287 0 0 0 4.573 0Zm-35.533-371.341c6.606 0 11.962 5.356 11.962 11.962s-5.356 11.962-11.962 11.962-11.962-5.356-11.962-11.962 5.356-11.962 11.962-11.962Z" clip-rule="evenodd"/></mask><g mask="url(#a)"><path fill="#13161C" d="M70.085 423.687H47.04l14.776-27.793 17.24 7.74.879-1.056.88-4.222 8.795-3.342 14.424-26.21 11.786-1.583v-21.989l-11.434-6.684-9.147-3.518 6.86-16.36h33.423l.351 1.759 11.258 4.75 46.264 23.572 2.111 2.99 4.222 1.407 18.118 7.74 5.805 2.639-16.007 29.2-27.794-13.017h-1.935l-10.906-5.101-26.562 7.212-28.497 3.694-20.405 42.218-19.878 1.055-1.583-5.101Z"/><path fill="#272A30" d="M559.988 151.382v-6.684h9.499v6.684zm-27.09 75.289v-7.036h9.499v7.036zm3.87 41.866v-5.277h11.61v5.277zm-11.61 28.145v-3.166h2.815v3.166zm-24.978 15.832v-9.851h4.222v9.851zm-38.7 4.221v-14.776h7.036v14.776zm64.381 103.434v-10.555h2.815v10.555zm0 21.461v-10.555h2.815v10.555zm-135.799 36.237v-5.629h11.258v5.629zm-48.199 87.602v-4.574h10.203v4.574zm-32.718 0v-4.574h10.203v4.574zm-24.979 10.202v-14.776h10.555v14.776zm28.848-28.497v-20.757h2.463v20.757zM271.5 410.318v-2.463h17.943v2.463zm49.254 0v-2.463h15.48v2.463zm-46.088-3.87v-5.629h11.61v5.629zm49.254 0v-5.629h11.61v5.629zm-16.184-80.565v-9.851h17.591v9.851zm-74.232-66.142v-11.258h17.239v11.258zm-31.74 88.154-7.662-3.911 7.465-14.625 7.663 3.911zm2.365 71.922-19.879-9.656 5.427-11.172 19.879 9.656zm-38.174-46.439-25.948 7.128-3.605-13.124 25.948-7.128zm-61.592 61.051-4.198 38.513-15.355-1.674 4.198-38.513zm42.098 6.758-13.136 3.609-3.606-13.124 13.137-3.609z"/><path fill="#272A30" d="m142.551 430.02-13.184-3.43 3.426-13.171 13.184 3.43zm-45.219-15.704-7.72-.26.372-11.034 7.72.26zm-39.418 9.12-4.187-.374.386-4.323 4.188.374zm-4.778.284-5.392-.15.12-4.338 5.393.15zm51.616-52.101-6.344-3.254 4.913-9.58 6.345 3.255zm-27.712 1.224-4.315-2.727 5.888-9.316 4.314 2.727z"/><path stroke="#272A30" d="m153.113 304.598 39.755 20.405m-12.487 17.239-13.193 26.738m64.205-60.16c.14-.282 3.694-17.826 5.453-26.563h13.896v-22.34m18.823 21.109c0 .141-.235 1.701-.352 2.463l.879 2.814m-171.51 81.973-11.434 23.748"/><path fill="#272A30" d="M184.584 461.331 164.9 451.283l4.178-8.183 19.683 10.048zm35.201-52.333-10.205-5.21 6.33-12.4 10.205 5.21zm-16.496-55.248-1.801-.168.661-7.11 1.801.168zm89.32-140.768.79-9.876 8.709.697-.79 9.876zm-91.472 46.759v-9.851h7.388v9.851z"/><path stroke="#272A30" d="M250.743 242.502v17.415h-49.431v-20.229"/><path fill="#272A30" d="m282.617 324.827-1.619-8.469 6.473-1.237 1.619 8.469zm-14.263-2.463-1.426-7.46 10.535-2.015 1.426 7.46zm49.234-14.809.216-2.121 10.69 1.089-.215 2.12zm67.197 196.346 6.237-17.938 9.311 3.238-6.237 17.938zm26.385 2.803.7-18.978 9.852.363-.7 18.979zm32.506 4.543-7.847-17.294 8.977-4.073 7.847 17.294zm30.821 36.807h8.796v3.342l-4.926 8.795-10.554 7.037-7.74-4.926-1.055-4.221 2.814-4.926 5.981-4.398 6.684-.703Zm-69.308 40.986c-.586 1.173-1.864 3.659-2.287 4.222l1.408 10.203 2.814 5.805 2.991 2.638 8.443-.879 4.75-4.926v-4.397l1.407-4.574-2.287-2.639-13.545-5.453h-3.694Zm15.832-111.173v-5.629h11.258v5.629zm164.297 2.462v-3.87h11.258v3.87zm0-21.108v-3.87h11.258v3.87zm-35.875 54.624-1.752-3.45 10.751-5.459 1.752 3.451zm16.518-8.185-1.752-3.45 10.751-5.459 1.752 3.451zm-6.254-82.646-4.571-2.69L566.6 400.84l4.571 2.69zm-169.645-102.76v-7.388h3.166v7.388zm-4.574 41.162v-8.795h5.629v8.795zm36.043 65.438-4.944-9.594 5.004-2.579 4.944 9.594zm-32.525-41.515v-21.461h2.463v21.461zm88.306-36.588v-2.111h9.499v2.111zm-23.22.395 2.605-3.32 4.244 3.33-2.605 3.32zm99.549-86.387 6.714.195-.338 11.605-6.714-.195zm-38.686-77.251v-2.111h12.313v2.111zm-36.939-57.346v-12.665h7.74v12.665zm-70.012 18.647v-7.74h4.222v7.74zm-24.135-16.404-3.56-6.873 4.255-2.204 3.56 6.873z"/><path stroke="#272A30" d="m396.57 185.86 9.675-5.101m26.562-14.249-11.786 6.861 13.018-14.952"/><path fill="#272A30" d="M510.383 110.923v-3.518h3.166v3.518zm-.352 6.306.812-3.423 3.08.73-.811 3.423zm-2.898 4.139 2.547-3.409 2.972 2.22-2.547 3.41zm-24.887 76.806-1.416-1.565 6.178-5.59 1.416 1.565z"/><path stroke="#272A30" d="M505.984 185.684h41.515m-20.405 17.063h20.581"/><path fill="#272A30" d="M543.453 226.671v-7.036h8.795v7.036zm11.609 0v-5.277h5.629v5.277zm45.737-38.763 3.113-3.124 3.384 3.373-3.113 3.124zm11.486 17.584 6.756-6.778 16.307 16.253-6.756 6.778z"/><circle cx="558.23" cy="146.457" r="1.759" fill="#272A30" transform="rotate(-90 558.23 146.457)"/><circle cx="554.007" cy="146.457" r="1.759" fill="#272A30" transform="rotate(-90 554.007 146.457)"/><circle cx="510.031" cy="98.258" r="2.111" fill="#272A30" transform="rotate(-90 510.031 98.258)"/><circle cx="507.216" cy="93.684" r="2.111" fill="#272A30" transform="rotate(-90 507.216 93.684)"/><circle cx="496.662" cy="93.684" r="2.111" fill="#272A30" transform="rotate(-90 496.662 93.684)"/><circle cx="428.41" cy="172.843" r="2.111" fill="#272A30" transform="rotate(-90 428.41 172.843)"/><circle cx="386.368" cy="130.097" r="4.398" fill="#272A30" transform="rotate(-90 386.368 130.097)"/><circle cx="184.25" cy="204.506" r="2.463" fill="#272A30" transform="rotate(-90 184.25 204.506)"/><circle cx="180.731" cy="335.382" r="3.166" fill="#272A30" transform="rotate(-90 180.731 335.382)"/><circle cx="183.547" cy="200.285" r="2.463" fill="#272A30" transform="rotate(-90 183.547 200.285)"/><circle cx="187.767" cy="200.285" r="2.463" fill="#272A30" transform="rotate(-90 187.767 200.285)"/><circle cx="183.547" cy="195.711" r="2.463" fill="#272A30" transform="rotate(-90 183.547 195.711)"/><circle cx="187.767" cy="195.711" r="2.463" fill="#272A30" transform="rotate(-90 187.767 195.711)"/><circle cx="390.062" cy="317.439" r="2.463" fill="#272A30" transform="rotate(-90 390.062 317.439)"/><circle cx="494.55" cy="428.261" r="12.665" fill="#272A30" transform="rotate(-90 494.55 428.261)"/><circle cx="410.467" cy="474.349" r="3.518" fill="#272A30" transform="rotate(-90 410.467 474.349)"/><circle cx="339.047" cy="509.882" r="3.518" fill="#272A30" transform="rotate(-90 339.047 509.882)"/><circle cx="326.735" cy="432.483" r="3.518" fill="#272A30" transform="rotate(-90 326.735 432.483)"/><circle cx="280.647" cy="432.483" r="3.518" fill="#272A30" transform="rotate(-90 280.647 432.483)"/><circle cx="137.634" cy="445.324" r="2.287" fill="#272A30" transform="rotate(-90 137.634 445.324)"/><path fill="#272A30" d="M40.357 422.28v-4.222h9.147v4.222zm-11.609-23.22v-5.277h10.555v5.277zm13.721-7.74v-3.87h10.203v3.87zm-24.276 7.74v-5.277h7.74v5.277zm-5.277 6.685v-4.925h4.925v4.925zm-4.926-3.167v-4.574h4.222v4.574zm0-4.925v-4.574h4.222v4.574zm5.63 2.111v-4.925h3.517v4.925zm-5.63 17.942v-10.555h4.222v10.555z"/><path stroke="#272A30" d="M34.729 435.825H21.008m75.463-99.388-14.073 29.377m195.961-56.994h100.62m-1.055 27.441h-13.545v-7.036m5.101 23.747h19.174v10.731m27.793-27.618h-.704m0 0h-26.21v-3.166l21.461-10.73h4.749v13.896Zm72.652-16.183V300.2m16.535-.704v20.406m-13.369-3.167h10.027v-9.85h-10.027v9.85ZM366.49 477.867h88.834M336.586 361.24v14.424h10.73v4.75h12.49l14.424-14.424m67.372-218.126c-.844.282-23.806 10.085-35.181 14.952h-20.405m7.915 17.591c.704-.563 8.62-4.339 12.49-6.157h-20.405"/></g><path fill="#E44C4D" fill-opacity=".25" stroke="#E44C4D" stroke-width="1.5" d="m639.489 228.944-30.929 30.445a2.002 2.002 0 0 0-.018 2.833l51.013 51.513a2.001 2.001 0 0 0 2.825.018l31.095-30.612a2 2 0 0 0 .013-2.837l-51.18-51.347a2 2 0 0 0-2.819-.013Z"/><path fill="#30D9D4" fill-opacity=".25" stroke="#30D9D4" stroke-width="1.5" d="m156.219 394.527-43.699-20.143a2 2 0 0 0-2.646.963l-12.72 26.993a2 2 0 0 0 .968 2.667l43.853 20.303a2 2 0 0 0 2.655-.975l12.567-27.151a2 2 0 0 0-.978-2.657Z"/><path fill="#30D9D4" d="M126.993 398.828c-.243-2.016-1.768-3.175-3.788-3.175-2.305 0-4.065 1.628-4.065 4.483 0 2.846 1.73 4.483 4.065 4.483 2.237 0 3.588-1.487 3.788-3.094l-1.866-.009c-.175.934-.908 1.471-1.892 1.471-1.326 0-2.225-.985-2.225-2.851 0-1.816.887-2.851 2.238-2.851 1.009 0 1.738.584 1.879 1.543h1.866Zm.883-1.535h2.672v7.206h1.824v-7.206h2.672v-1.521h-7.168v1.521Z"/><path fill="#E44C4D" d="M647.418 268.293h2.672v7.206h1.824v-7.206h2.672v-1.521h-7.168v1.521Z"/><g class="labels"><path stroke="#999CA2" stroke-opacity=".25" stroke-width="1.6" d="m142.06 334.846-37.682 77.552a2 2 0 0 0 .916 2.669l39.716 19.535a2 2 0 0 0 2.666-.888l30.352-59.694a2 2 0 0 0 .067-1.668l-.278-.675a2 2 0 0 0-2.169-1.213l-8.707 1.409a2 2 0 0 1-2.221-1.354l-10.277-31.486a2.006 2.006 0 0 0-1.076-1.201l-8.682-3.934a2 2 0 0 0-2.625.948Z"/><mask id="b" width="75" height="102" x="104" y="333" maskUnits="userSpaceOnUse" style="mask-type:alpha"><path fill="#C4C4C4" d="m142.06 334.846-37.682 77.552a2 2 0 0 0 .916 2.669l39.716 19.535a2 2 0 0 0 2.666-.888l30.352-59.694a2 2 0 0 0 .067-1.668l-.278-.675a2 2 0 0 0-2.169-1.213l-8.707 1.409a2 2 0 0 1-2.221-1.354l-10.277-31.486a2.006 2.006 0 0 0-1.076-1.201l-8.682-3.934a2 2 0 0 0-2.625.948Z"/></mask><g fill="#999CA2" fill-opacity=".15" mask="url(#b)"><path d="m216.535 386.273-88.596-88.665 1.798-1.8 88.597 88.665zm3.598 10.813-88.596-88.665 1.798-1.8 88.597 88.665zm-3.598 3.6-88.596-88.665 1.798-1.8 88.597 88.665zm-3.599 3.601-88.596-88.665 1.798-1.8 88.597 88.665zm-3.598 3.6-88.596-88.665 1.798-1.8 88.597 88.665zm-3.598 3.602-88.596-88.665 1.798-1.8 88.597 88.665zm-3.597 3.6-88.596-88.665 1.798-1.8 88.597 88.665zm-3.598 3.6-88.596-88.665 1.798-1.8 88.597 88.665zm-3.598 3.6-88.596-88.665 1.798-1.8 88.597 88.665zm-3.597 3.602-88.596-88.665 1.798-1.8 88.597 88.665zm-3.598 3.6-88.596-88.665 1.798-1.8 88.597 88.665zm-3.598 3.6-88.596-88.665 1.798-1.8 88.597 88.665zm-3.597 3.601-88.596-88.665 1.798-1.8 88.597 88.665zm-3.598 3.601-88.596-88.665 1.798-1.8 88.597 88.665zm-3.6 3.6-88.596-88.665 1.798-1.8 88.597 88.665zm-3.597 3.601-88.596-88.665 1.798-1.8 88.597 88.665zm-3.598 3.601L77.568 362.43l1.798-1.8 88.597 88.665zm-3.598 3.6L73.97 366.03l1.798-1.8 88.597 88.665zm-3.597 3.601-88.596-88.665 1.798-1.8 88.597 88.665zm-3.598 3.6-88.596-88.665 1.798-1.8 88.597 88.665zm-3.598 3.601-88.596-88.665 1.798-1.8 88.597 88.665zm-3.597 3.601L59.58 380.433l1.798-1.8 88.597 88.665z"/></g><path fill="#E3E5EA" d="m145.712 400.172.864-2.653h4.199l.863 2.653h2.637l-4.012-11.636h-3.17l-4.017 11.636h2.636Zm1.489-4.574 1.432-4.403h.091l1.432 4.403h-2.955Z"/><path fill="#999CA2" fill-opacity=".25" d="m211.31 221.346-.702.383.702-.383Zm25.035 0 .703.383-.703-.383Zm5.36-1.984h-3.467v1.6h3.467v-1.6Zm2.8 37.148v-34.348h-1.6v34.348h1.6Zm-40.138 2.8h37.338v-1.6h-37.338v1.6Zm-2.8-37.148v34.348h1.6v-34.348h-1.6Zm7.851-2.8h-5.051v1.6h5.051v-1.6Zm14.41 8.62a13.446 13.446 0 0 1-11.815-7.019l-1.405.766c2.551 4.677 7.514 7.853 13.22 7.853v-1.6Zm11.815-7.019c-2.282 4.183-6.718 7.019-11.815 7.019v1.6c5.706 0 10.669-3.176 13.22-7.853l-1.405-.766Zm-26.225-.001c.466 0 .927.285 1.19.767l1.405-.766c-.503-.921-1.463-1.601-2.595-1.601v1.6Zm-6.251 1.2a1.2 1.2 0 0 1 1.2-1.2v-1.6a2.8 2.8 0 0 0-2.8 2.8h1.6Zm1.2 35.548a1.2 1.2 0 0 1-1.2-1.2h-1.6a2.8 2.8 0 0 0 2.8 2.8v-1.6Zm38.538-1.2a1.2 1.2 0 0 1-1.2 1.2v1.6a2.8 2.8 0 0 0 2.8-2.8h-1.6Zm-4.667-37.148c-1.132 0-2.093.68-2.595 1.601l1.405.766c.262-.482.724-.767 1.19-.767v-1.6Zm3.467 1.6a1.2 1.2 0 0 1 1.2 1.2h1.6a2.8 2.8 0 0 0-2.8-2.8v1.6Z"/><mask id="c" width="42" height="39" x="202" y="220" maskUnits="userSpaceOnUse" style="mask-type:alpha"><path fill="#C4C4C4" fill-rule="evenodd" d="M236.345 221.346c.383-.702 1.094-1.184 1.893-1.184h3.467a2 2 0 0 1 2 2v34.348a2 2 0 0 1-2 2h-37.338a2 2 0 0 1-2-2v-34.348a2 2 0 0 1 2-2h5.051c.799 0 1.51.482 1.892 1.184 2.417 4.43 7.116 7.436 12.518 7.436 5.402 0 10.101-3.006 12.517-7.436Z" clip-rule="evenodd"/></mask><g fill="#999CA2" fill-opacity=".15" mask="url(#c)"><path d="m298.533 241.274-88.596-88.665 1.798-1.8 88.597 88.665zm3.598 10.812-88.596-88.665 1.798-1.8 88.597 88.665zm-3.598 3.6-88.596-88.665 1.798-1.8 88.597 88.665zm-3.599 3.601-88.596-88.665 1.798-1.8 88.597 88.665zm-3.598 3.6-88.596-88.665 1.798-1.8 88.597 88.665zm-3.598 3.602-88.596-88.665 1.798-1.8 88.597 88.665zm-3.597 3.6-88.596-88.665 1.798-1.8 88.597 88.665zm-3.598 3.6-88.596-88.665 1.798-1.8 88.597 88.665zm-3.598 3.601-88.596-88.665 1.798-1.8 88.597 88.665zm-3.597 3.601-88.596-88.665 1.798-1.8 88.597 88.665zm-3.598 3.6-88.596-88.665 1.798-1.8 88.597 88.665zm-3.598 3.601-88.596-88.665 1.798-1.8 88.597 88.665zm-3.597 3.601-88.596-88.665 1.798-1.8 88.597 88.665zm-3.598 3.6-88.596-88.665 1.798-1.8 88.597 88.665zm-3.6 3.6-88.596-88.665 1.798-1.8 88.597 88.665zm-3.597 3.601-88.596-88.665 1.798-1.8 88.597 88.665zm-3.598 3.601-88.596-88.665 1.798-1.8 88.597 88.665zm-3.598 3.6-88.596-88.665 1.798-1.8 88.597 88.665zm-3.597 3.601-88.596-88.665 1.798-1.8 88.597 88.665zm-3.598 3.6-88.596-88.665 1.798-1.8 88.597 88.665zm-3.598 3.601-88.596-88.665 1.798-1.8 88.597 88.665zm-3.597 3.601-88.596-88.665 1.798-1.8 88.597 88.665z"/></g><path fill="#E3E5EA" d="M218.402 244.172h4.972c2.613 0 4.005-1.363 4.005-3.216 0-1.721-1.233-2.761-2.557-2.824v-.113c1.211-.273 2.103-1.131 2.103-2.5 0-1.744-1.296-2.983-3.864-2.983h-4.659v11.636Zm2.46-2.011v-3.091h2.063c1.182 0 1.914.682 1.914 1.642 0 .875-.596 1.449-1.971 1.449h-2.006Zm0-4.756v-2.88h1.87c1.09 0 1.71.562 1.71 1.403 0 .92-.75 1.477-1.756 1.477h-1.824Z"/><path fill="#7F838B" d="M500.653 204.596h2.004V210h1.368v-5.404h2.004v-1.141h-5.376v1.141Zm11.733.741h1.327c-.02-1.167-.978-1.972-2.436-1.972-1.435 0-2.486.793-2.48 1.982-.003.965.678 1.518 1.783 1.783l.713.179c.713.173 1.109.377 1.112.818-.003.48-.457.806-1.16.806-.719 0-1.237-.333-1.281-.988h-1.34c.036 1.416 1.049 2.148 2.637 2.148 1.598 0 2.538-.764 2.541-1.963-.003-1.09-.825-1.668-1.962-1.924l-.588-.14c-.569-.131-1.045-.342-1.036-.812 0-.422.374-.732 1.052-.732.661 0 1.067.3 1.118.815Zm4.851-.246h-.923v-1.176h-1.362v1.176h-.671v1.023h.671v2.556c-.006.962.649 1.439 1.637 1.397.351-.013.601-.083.738-.128l-.214-1.013c-.067.013-.211.045-.339.045-.272 0-.46-.102-.46-.48v-2.377h.923v-1.023Zm2.206 5.002c.726 0 1.196-.317 1.435-.774h.039V210h1.291v-3.311c0-1.17-.991-1.662-2.084-1.662-1.176 0-1.95.562-2.138 1.457l1.259.103c.093-.326.384-.566.873-.566.463 0 .728.233.728.636v.019c0 .317-.335.358-1.189.441-.971.09-1.844.416-1.844 1.512 0 .971.694 1.464 1.63 1.464Zm.39-.94c-.419 0-.719-.195-.719-.569 0-.383.316-.572.796-.639.297-.042.783-.112.946-.221v.521c0 .515-.425.908-1.023.908Zm3.35.847h1.362v-4.909h-1.362V210Zm.684-5.542c.406 0 .738-.31.738-.69 0-.377-.332-.687-.738-.687-.403 0-.735.31-.735.687 0 .38.332.69.735.69Zm1.687 5.542h1.362v-2.777c0-.604.441-1.02 1.042-1.02.188 0 .447.032.575.074v-1.208a2.033 2.033 0 0 0-.428-.048c-.55 0-1.001.319-1.18.926h-.051v-.856h-1.32V210Zm7.686-3.509c-.121-.905-.85-1.464-2.09-1.464-1.256 0-2.084.582-2.08 1.528-.004.735.46 1.211 1.419 1.403l.85.169c.428.086.623.243.629.489-.006.291-.322.499-.799.499-.485 0-.808-.208-.891-.608l-1.34.071c.128.939.927 1.518 2.228 1.518 1.272 0 2.183-.649 2.186-1.617-.003-.71-.466-1.135-1.419-1.33l-.888-.179c-.457-.099-.627-.256-.624-.492-.003-.294.33-.486.752-.486.473 0 .754.259.821.575l1.246-.076Zm-18.975 57.464v4.132c0 .748-.524 1.288-1.329 1.288-.803 0-1.33-.54-1.33-1.288v-4.132h-1.384v4.25c0 1.432 1.08 2.388 2.714 2.388 1.626 0 2.713-.956 2.713-2.388v-4.25h-1.384Zm2.416 8.386h1.361v-2.627h.042c.189.409.601.866 1.393.866 1.119 0 1.992-.885 1.992-2.528 0-1.688-.911-2.525-1.988-2.525-.822 0-1.215.489-1.397.888h-.061v-.824h-1.342v6.75Zm1.333-4.296c0-.875.37-1.435 1.032-1.435.674 0 1.032.585 1.032 1.435 0 .857-.364 1.451-1.032 1.451-.655 0-1.032-.575-1.032-1.451Zm4.281 4.296h1.362v-2.627h.041c.189.409.601.866 1.394.866 1.118 0 1.991-.885 1.991-2.528 0-1.688-.911-2.525-1.988-2.525-.821 0-1.214.489-1.397.888h-.06v-.824h-1.343v6.75Zm1.333-4.296c0-.875.371-1.435 1.032-1.435.675 0 1.033.585 1.033 1.435 0 .857-.365 1.451-1.033 1.451-.655 0-1.032-.575-1.032-1.451Zm6.519 2.551c1.214 0 2.032-.591 2.224-1.502l-1.259-.083c-.137.374-.489.569-.943.569-.681 0-1.112-.451-1.112-1.183v-.003h3.343v-.374c0-1.668-1.01-2.493-2.308-2.493-1.444 0-2.381 1.026-2.381 2.541 0 1.556.924 2.528 2.436 2.528Zm-1.09-3.046a1.038 1.038 0 0 1 1.058-1.007c.591 0 1 .422 1.003 1.007h-2.061Zm4.15 2.95h1.362v-2.777c0-.604.441-1.02 1.042-1.02.188 0 .447.032.575.074v-1.208a2.025 2.025 0 0 0-.428-.048c-.55 0-1 .319-1.179.926h-.052v-.856h-1.32v4.909Zm-27.157 6.596h2.004v5.404h1.368v-5.404h2.004v-1.141h-5.376v1.141Zm8.635 3.314c.003.658-.447 1.003-.936 1.003-.515 0-.847-.361-.851-.939v-2.883h-1.361v3.126c.003 1.147.674 1.847 1.662 1.847.738 0 1.269-.38 1.489-.956h.051v.892h1.307v-4.909h-1.361v2.819Zm3.731-.748c.003-.633.38-1.004.93-1.004.547 0 .876.358.873.959v2.883h1.361v-3.126c0-1.144-.671-1.847-1.694-1.847-.729 0-1.256.358-1.476.93h-.058v-.866h-1.298v4.909h1.362v-2.838Zm5.518 0c.003-.633.38-1.004.93-1.004.546 0 .875.358.872.959v2.883h1.362v-3.126c0-1.144-.671-1.847-1.694-1.847-.729 0-1.256.358-1.477.93h-.057v-.866h-1.298v4.909h1.362v-2.838Zm6.393 2.934c1.214 0 2.033-.591 2.224-1.502l-1.259-.083c-.137.374-.489.569-.943.569-.68 0-1.112-.451-1.112-1.183v-.003h3.343v-.374c0-1.668-1.01-2.493-2.307-2.493-1.445 0-2.381 1.026-2.381 2.541 0 1.556.923 2.528 2.435 2.528Zm-1.09-3.046a1.038 1.038 0 0 1 1.058-1.007c.591 0 1 .422 1.004 1.007h-2.062Zm5.512-3.595h-1.361v6.545h1.361v-6.545Zm5.094 3.036c-.121-.905-.85-1.464-2.09-1.464-1.256 0-2.084.582-2.08 1.528-.004.735.46 1.211 1.419 1.403l.85.169c.428.086.623.243.629.489-.006.291-.322.499-.799.499-.485 0-.808-.208-.891-.608l-1.34.071c.128.939.927 1.518 2.228 1.518 1.272 0 2.183-.649 2.186-1.617-.003-.71-.466-1.135-1.419-1.33l-.888-.179c-.457-.099-.627-.256-.624-.492-.003-.294.33-.486.752-.486.473 0 .754.259.821.575l1.246-.076ZM480.355 312.5h4.19v-1.141h-2.806v-5.404h-1.384v6.545Zm6.4.093c.726 0 1.195-.317 1.435-.774h.038v.681h1.292v-3.311c0-1.17-.991-1.662-2.084-1.662-1.176 0-1.95.562-2.138 1.457l1.259.103c.093-.326.383-.566.872-.566.464 0 .729.233.729.636v.019c0 .317-.335.358-1.189.441-.971.09-1.844.416-1.844 1.512 0 .971.694 1.464 1.63 1.464Zm.39-.94c-.419 0-.719-.195-.719-.569 0-.383.316-.572.796-.639.297-.042.783-.112.946-.221v.521c0 .515-.425.908-1.023.908Zm5.159.927c.793 0 1.205-.457 1.393-.866h.058v.786h1.342v-6.545h-1.358v2.46h-.042c-.182-.399-.575-.888-1.396-.888-1.077 0-1.988.837-1.988 2.525 0 1.643.872 2.528 1.991 2.528Zm.431-1.084c-.668 0-1.032-.594-1.032-1.451 0-.85.358-1.435 1.032-1.435.662 0 1.033.56 1.033 1.435 0 .876-.377 1.451-1.033 1.451Zm5.21 1.084c.792 0 1.204-.457 1.393-.866h.058v.786h1.342v-6.545h-1.358v2.46h-.042c-.182-.399-.575-.888-1.397-.888-1.077 0-1.988.837-1.988 2.525 0 1.643.873 2.528 1.992 2.528Zm.431-1.084c-.668 0-1.032-.594-1.032-1.451 0-.85.358-1.435 1.032-1.435.662 0 1.032.56 1.032 1.435 0 .876-.377 1.451-1.032 1.451Zm5.638 1.1c1.214 0 2.032-.591 2.224-1.502l-1.259-.083c-.138.374-.489.569-.943.569-.681 0-1.112-.451-1.112-1.183v-.003h3.343v-.374c0-1.668-1.01-2.493-2.308-2.493-1.444 0-2.381 1.026-2.381 2.541 0 1.556.924 2.528 2.436 2.528Zm-1.09-3.046a1.037 1.037 0 0 1 1.058-1.007c.591 0 1 .422 1.003 1.007h-2.061Zm4.15 2.95h1.362v-2.777c0-.604.441-1.02 1.042-1.02.188 0 .447.032.575.074v-1.208a2.033 2.033 0 0 0-.428-.048c-.55 0-1.001.319-1.18.926h-.051v-.856h-1.32v4.909ZM424.183 324h4.19v-1.141h-2.807v-5.404h-1.383V324Zm7.217.096c1.49 0 2.417-1.02 2.417-2.531 0-1.522-.927-2.538-2.417-2.538-1.489 0-2.416 1.016-2.416 2.538 0 1.511.927 2.531 2.416 2.531Zm.007-1.055c-.687 0-1.039-.629-1.039-1.486 0-.856.352-1.489 1.039-1.489.674 0 1.026.633 1.026 1.489 0 .857-.352 1.486-1.026 1.486Zm4.059.959h1.439l.843-3.087h.061l.844 3.087h1.441l1.333-4.909h-1.374l-.748 3.279h-.042l-.805-3.279h-1.352l-.793 3.298h-.044l-.761-3.298h-1.378l1.336 4.909Zm8.72.096c1.215 0 2.033-.591 2.225-1.502l-1.259-.083c-.138.374-.489.569-.943.569-.681 0-1.112-.451-1.112-1.183v-.003h3.343v-.374c0-1.668-1.01-2.493-2.308-2.493-1.445 0-2.381 1.026-2.381 2.541 0 1.556.924 2.528 2.435 2.528Zm-1.089-3.046a1.036 1.036 0 0 1 1.057-1.007c.592 0 1.001.422 1.004 1.007h-2.061Zm4.15 2.95h1.362v-2.777c0-.604.441-1.02 1.041-1.02.189 0 .448.032.576.074v-1.208a2.035 2.035 0 0 0-.429-.048c-.549 0-1 .319-1.179.926h-.051v-.856h-1.32V324Zm-24.71 6.596h2.004V336h1.368v-5.404h2.003v-1.141h-5.375v1.141Zm8.634 3.314c.004.658-.447 1.003-.936 1.003-.515 0-.847-.361-.85-.939v-2.883h-1.362v3.126c.003 1.147.675 1.847 1.662 1.847.738 0 1.269-.38 1.49-.956h.051V336h1.307v-4.909h-1.362v2.819Zm3.731-.748c.004-.633.381-1.004.93-1.004.547 0 .876.358.873.959V336h1.361v-3.126c0-1.144-.671-1.847-1.693-1.847-.729 0-1.257.358-1.477.93h-.058v-.866h-1.297V336h1.361v-2.838Zm5.518 0c.003-.633.38-1.004.93-1.004.547 0 .876.358.873.959V336h1.361v-3.126c0-1.144-.671-1.847-1.694-1.847-.729 0-1.256.358-1.476.93h-.058v-.866h-1.298V336h1.362v-2.838Zm6.393 2.934c1.215 0 2.033-.591 2.225-1.502l-1.259-.083c-.138.374-.489.569-.943.569-.681 0-1.113-.451-1.113-1.183v-.003h3.344v-.374c0-1.668-1.01-2.493-2.308-2.493-1.445 0-2.381 1.026-2.381 2.541 0 1.556.924 2.528 2.435 2.528Zm-1.09-3.046a1.038 1.038 0 0 1 1.058-1.007c.592 0 1.001.422 1.004 1.007h-2.062Zm5.513-3.595h-1.362V336h1.362v-6.545Zm-116.064-12.118h1.326c-.019-1.167-.978-1.972-2.435-1.972-1.435 0-2.487.793-2.48 1.982-.004.965.677 1.518 1.783 1.783l.713.179c.712.173 1.109.377 1.112.818-.003.48-.457.806-1.16.806-.719 0-1.237-.333-1.282-.988h-1.339c.035 1.416 1.048 2.148 2.637 2.148 1.598 0 2.537-.764 2.541-1.963-.004-1.09-.825-1.668-1.963-1.924l-.588-.14c-.569-.131-1.045-.342-1.035-.812 0-.422.374-.732 1.051-.732.662 0 1.068.3 1.119.815Zm6.845 6.504v-6.75h-1.342v.824h-.061c-.182-.399-.575-.888-1.396-.888-1.077 0-1.988.837-1.988 2.525 0 1.643.872 2.528 1.991 2.528.792 0 1.205-.457 1.393-.866h.042v2.627h1.361Zm-1.332-4.296c0 .876-.378 1.451-1.033 1.451-.668 0-1.032-.594-1.032-1.451 0-.85.358-1.435 1.032-1.435.662 0 1.033.56 1.033 1.435Zm5.489.365c.003.658-.447 1.003-.936 1.003-.515 0-.847-.361-.85-.939v-2.883h-1.362v3.126c.003 1.147.675 1.847 1.662 1.847.738 0 1.269-.38 1.489-.956h.052V322h1.307v-4.909h-1.362v2.819Zm4.607 2.186c1.215 0 2.033-.591 2.224-1.502l-1.259-.083c-.137.374-.489.569-.943.569-.68 0-1.112-.451-1.112-1.183v-.003h3.343v-.374c0-1.668-1.01-2.493-2.307-2.493-1.445 0-2.381 1.026-2.381 2.541 0 1.556.923 2.528 2.435 2.528Zm-1.09-3.046a1.038 1.038 0 0 1 1.058-1.007c.591 0 1 .422 1.004 1.007h-2.062Zm5.551 3.043c.725 0 1.195-.317 1.435-.774h.038V322h1.291v-3.311c0-1.17-.991-1.662-2.084-1.662-1.176 0-1.949.562-2.138 1.457l1.259.103c.093-.326.384-.566.873-.566.463 0 .729.233.729.636v.019c0 .317-.336.358-1.189.441-.972.09-1.844.416-1.844 1.512 0 .971.693 1.464 1.63 1.464Zm.389-.94c-.418 0-.719-.195-.719-.569 0-.383.317-.572.796-.639.297-.042.783-.112.946-.221v.521c0 .515-.425.908-1.023.908Zm3.35.847h1.362v-1.56l.367-.418 1.34 1.978h1.594l-1.914-2.784 1.822-2.125h-1.563l-1.573 1.863h-.073v-3.499h-1.362V322Zm6.077 1.841c1.013 0 1.55-.518 1.828-1.31l1.909-5.434-1.442-.006-1.026 3.605h-.051l-1.016-3.605h-1.432l1.761 5.05-.08.207c-.179.461-.521.483-1 .336l-.307 1.016c.195.083.511.141.856.141Zm21.214 40.405c-.183-1.512-1.327-2.381-2.842-2.381-1.729 0-3.049 1.221-3.049 3.362 0 2.135 1.298 3.362 3.049 3.362 1.678 0 2.691-1.115 2.842-2.32l-1.4-.006c-.131.7-.681 1.102-1.419 1.102-.994 0-1.669-.738-1.669-2.138 0-1.361.665-2.138 1.678-2.138.758 0 1.304.438 1.41 1.157h1.4Zm3.103 4.35c1.49 0 2.417-1.02 2.417-2.531 0-1.522-.927-2.538-2.417-2.538-1.489 0-2.416 1.016-2.416 2.538 0 1.511.927 2.531 2.416 2.531Zm.007-1.055c-.687 0-1.039-.629-1.039-1.486 0-.856.352-1.489 1.039-1.489.674 0 1.026.633 1.026 1.489 0 .857-.352 1.486-1.026 1.486Zm4.575-1.879c.004-.633.381-1.004.93-1.004.547 0 .876.358.873.959v2.883h1.362v-3.126c0-1.144-.672-1.847-1.694-1.847-.729 0-1.256.358-1.477.93h-.057v-.866h-1.298v4.909h1.361v-2.838Zm5.518 0c.003-.633.38-1.004.93-1.004.547 0 .876.358.873.959v2.883h1.361v-3.126c0-1.144-.671-1.847-1.694-1.847-.728 0-1.256.358-1.476.93h-.058v-.866h-1.297v4.909h1.361v-2.838Zm6.393 2.934c1.215 0 2.033-.591 2.225-1.502l-1.259-.083c-.138.374-.489.569-.943.569-.681 0-1.112-.451-1.112-1.183v-.003h3.343v-.374c0-1.668-1.01-2.493-2.308-2.493-1.445 0-2.381 1.026-2.381 2.541 0 1.556.924 2.528 2.435 2.528Zm-1.089-3.046a1.036 1.036 0 0 1 1.057-1.007c.592 0 1.001.422 1.004 1.007h-2.061Zm6.368 3.046c1.307 0 2.129-.767 2.193-1.895h-1.285c-.08.524-.425.818-.892.818-.636 0-1.048-.534-1.048-1.474 0-.926.415-1.457 1.048-1.457.499 0 .818.329.892.818h1.285c-.058-1.134-.918-1.879-2.199-1.879-1.49 0-2.41 1.032-2.41 2.538 0 1.492.904 2.531 2.416 2.531Zm5.594-5.005h-.923v-1.176h-1.362v1.176h-.671v1.023h.671v2.556c-.006.962.649 1.439 1.637 1.397.351-.013.601-.083.738-.128l-.214-1.013c-.067.013-.211.045-.339.045-.272 0-.46-.102-.46-.48v-2.377h.923v-1.023Zm2.972 5.005c1.489 0 2.416-1.02 2.416-2.531 0-1.522-.927-2.538-2.416-2.538-1.49 0-2.416 1.016-2.416 2.538 0 1.511.926 2.531 2.416 2.531Zm.006-1.055c-.687 0-1.039-.629-1.039-1.486 0-.856.352-1.489 1.039-1.489.674 0 1.026.633 1.026 1.489 0 .857-.352 1.486-1.026 1.486Zm3.214.959h1.362v-2.777c0-.604.441-1.02 1.042-1.02.188 0 .447.032.575.074v-1.208a2.033 2.033 0 0 0-.428-.048c-.55 0-1.001.319-1.18.926h-.051v-.856h-1.32v4.909ZM534.924 462h1.384v-2.122h1.163c1.506 0 2.381-.898 2.381-2.205 0-1.301-.859-2.218-2.345-2.218h-2.583V462Zm1.384-3.231v-2.183h.933c.799 0 1.186.435 1.186 1.087 0 .648-.387 1.096-1.179 1.096h-.94Zm5.698-3.314h-1.361V462h1.361v-6.545Zm2.41 6.638c.725 0 1.195-.317 1.435-.774h.038V462h1.291v-3.311c0-1.17-.991-1.662-2.084-1.662-1.176 0-1.949.562-2.138 1.457l1.26.103c.092-.326.383-.566.872-.566.463 0 .729.233.729.636v.019c0 .317-.336.358-1.189.441-.972.09-1.844.416-1.844 1.512 0 .971.693 1.464 1.63 1.464Zm.39-.94c-.419 0-.719-.195-.719-.569 0-.383.316-.572.795-.639.298-.042.783-.112.946-.221v.521c0 .515-.425.908-1.022.908Zm4.014 2.688c1.013 0 1.55-.518 1.828-1.31l1.908-5.434-1.441-.006-1.026 3.605h-.051l-1.016-3.605h-1.432l1.761 5.05-.08.207c-.179.461-.521.483-1 .336l-.307 1.016c.195.083.511.141.856.141Zm6.397.102c1.403 0 2.4-.639 2.4-1.895v-4.957h-1.352v.824h-.051c-.182-.399-.582-.888-1.403-.888-1.077 0-1.988.837-1.988 2.509 0 1.633.885 2.394 1.991 2.394.783 0 1.221-.393 1.4-.799h.058v.898c0 .674-.432.936-1.023.936-.601 0-.905-.262-1.017-.559l-1.259.169c.163.774.921 1.368 2.244 1.368Zm.029-3.036c-.668 0-1.033-.531-1.033-1.378 0-.834.358-1.419 1.033-1.419.661 0 1.032.56 1.032 1.419 0 .867-.377 1.378-1.032 1.378ZM558.62 462h1.361v-2.777c0-.604.441-1.02 1.042-1.02.188 0 .447.032.575.074v-1.208a2.025 2.025 0 0 0-.428-.048c-.55 0-1 .319-1.179.926h-.052v-.856h-1.319V462Zm5.591.096c1.489 0 2.416-1.02 2.416-2.531 0-1.522-.927-2.538-2.416-2.538-1.49 0-2.417 1.016-2.417 2.538 0 1.511.927 2.531 2.417 2.531Zm.006-1.055c-.687 0-1.039-.629-1.039-1.486 0-.856.352-1.489 1.039-1.489.674 0 1.026.633 1.026 1.489 0 .857-.352 1.486-1.026 1.486Zm6.362-1.131c.003.658-.447 1.003-.936 1.003-.515 0-.847-.361-.85-.939v-2.883h-1.362v3.126c.003 1.147.675 1.847 1.662 1.847.738 0 1.269-.38 1.489-.956h.052V462h1.307v-4.909h-1.362v2.819Zm3.731-.748c.003-.633.381-1.004.93-1.004.547 0 .876.358.873.959V462h1.361v-3.126c0-1.144-.671-1.847-1.694-1.847-.728 0-1.256.358-1.476.93h-.058v-.866h-1.297V462h1.361v-2.838Zm5.965 2.918c.793 0 1.205-.457 1.394-.866h.057V462h1.343v-6.545h-1.359v2.46h-.041c-.182-.399-.575-.888-1.397-.888-1.077 0-1.988.837-1.988 2.525 0 1.643.873 2.528 1.991 2.528Zm.432-1.084c-.668 0-1.032-.594-1.032-1.451 0-.85.357-1.435 1.032-1.435.661 0 1.032.56 1.032 1.435 0 .876-.377 1.451-1.032 1.451ZM460.757 563h1.384v-2.32h1.01l1.24 2.32h1.527l-1.39-2.544c.745-.32 1.157-.968 1.157-1.863 0-1.301-.86-2.138-2.346-2.138h-2.582V563Zm1.384-3.433v-1.981h.933c.799 0 1.186.355 1.186 1.007 0 .648-.387.974-1.18.974h-.939Zm6.554 3.529c1.49 0 2.417-1.02 2.417-2.531 0-1.522-.927-2.538-2.417-2.538-1.489 0-2.416 1.016-2.416 2.538 0 1.511.927 2.531 2.416 2.531Zm.007-1.055c-.687 0-1.039-.629-1.039-1.486 0-.856.352-1.489 1.039-1.489.674 0 1.026.633 1.026 1.489 0 .857-.352 1.486-1.026 1.486Zm5.432 1.055c1.307 0 2.129-.767 2.192-1.895h-1.284c-.08.524-.425.818-.892.818-.636 0-1.048-.534-1.048-1.474 0-.926.415-1.457 1.048-1.457.499 0 .818.329.892.818h1.284c-.057-1.134-.917-1.879-2.198-1.879-1.49 0-2.41 1.032-2.41 2.538 0 1.492.904 2.531 2.416 2.531Zm2.983-.096h1.362v-1.56l.367-.418 1.339 1.978h1.595l-1.914-2.784 1.821-2.125h-1.562l-1.573 1.863h-.073v-3.499h-1.362V563Zm-77.533 35.596h2.004V604h1.368v-5.404h2.004v-1.141h-5.376v1.141Zm5.645 5.404h1.361v-2.777c0-.604.441-1.02 1.042-1.02.189 0 .448.032.576.074v-1.208a2.035 2.035 0 0 0-.429-.048c-.549 0-1 .319-1.179.926h-.051v-.856h-1.32V604Zm5.61.096c1.215 0 2.033-.591 2.225-1.502l-1.26-.083c-.137.374-.489.569-.942.569-.681 0-1.113-.451-1.113-1.183v-.003h3.343v-.374c0-1.668-1.01-2.493-2.307-2.493-1.445 0-2.381 1.026-2.381 2.541 0 1.556.923 2.528 2.435 2.528Zm-1.09-3.046a1.038 1.038 0 0 1 1.058-1.007c.591 0 1.001.422 1.004 1.007h-2.062Zm6.388 3.046c1.215 0 2.033-.591 2.224-1.502l-1.259-.083c-.137.374-.489.569-.943.569-.68 0-1.112-.451-1.112-1.183v-.003h3.343v-.374c0-1.668-1.01-2.493-2.307-2.493-1.445 0-2.381 1.026-2.381 2.541 0 1.556.923 2.528 2.435 2.528Zm-1.09-3.046a1.038 1.038 0 0 1 1.058-1.007c.591 0 1 .422 1.004 1.007h-2.062Zm-78.515-9.55.486-1.493h2.362l.485 1.493h1.483l-2.256-6.545h-1.783l-2.26 6.545h1.483Zm.837-2.573.806-2.477h.051l.805 2.477h-1.662Zm6.688 2.573h4.19v-1.141h-2.806v-5.404h-1.384v6.545Zm7.218.096c1.489 0 2.416-1.02 2.416-2.531 0-1.522-.927-2.538-2.416-2.538-1.489 0-2.416 1.016-2.416 2.538 0 1.511.927 2.531 2.416 2.531Zm.006-1.055c-.687 0-1.038-.629-1.038-1.486 0-.856.351-1.489 1.038-1.489.675 0 1.026.633 1.026 1.489 0 .857-.351 1.486-1.026 1.486Zm4.576-1.879c.003-.633.38-1.004.93-1.004.547 0 .876.358.873.959v2.883h1.361v-3.126c0-1.144-.671-1.847-1.694-1.847-.728 0-1.256.358-1.476.93h-.058v-.866h-1.297v4.909h1.361v-2.838Zm6.368 4.781c1.403 0 2.4-.639 2.4-1.895v-4.957h-1.352v.824h-.051c-.182-.399-.582-.888-1.403-.888-1.077 0-1.988.837-1.988 2.509 0 1.633.885 2.394 1.991 2.394.783 0 1.221-.393 1.4-.799h.058v.898c0 .674-.432.936-1.023.936-.601 0-.905-.262-1.017-.559l-1.259.169c.163.774.921 1.368 2.244 1.368Zm.029-3.036c-.668 0-1.033-.531-1.033-1.378 0-.834.358-1.419 1.033-1.419.661 0 1.032.56 1.032 1.419 0 .867-.377 1.378-1.032 1.378Zm-91.12-57.161c-.182-1.512-1.326-2.381-2.841-2.381-1.729 0-3.049 1.221-3.049 3.362 0 2.135 1.297 3.362 3.049 3.362 1.678 0 2.691-1.115 2.841-2.32l-1.4-.006c-.131.7-.681 1.102-1.419 1.102-.994 0-1.668-.738-1.668-2.138 0-1.361.665-2.138 1.678-2.138.757 0 1.304.438 1.409 1.157h1.4Zm2.286 4.347c.725 0 1.195-.317 1.435-.774h.038v.681h1.291v-3.311c0-1.17-.99-1.662-2.084-1.662-1.176 0-1.949.562-2.138 1.457l1.26.103c.092-.326.383-.566.872-.566.464 0 .729.233.729.636v.019c0 .317-.336.358-1.189.441-.972.09-1.844.416-1.844 1.512 0 .971.693 1.464 1.63 1.464Zm.39-.94c-.419 0-.719-.195-.719-.569 0-.383.316-.572.795-.639.298-.042.783-.112.946-.221v.521c0 .515-.425.908-1.022.908Zm5.989-4.062h-.974v-.329c0-.333.134-.528.533-.528.163 0 .33.036.438.071l.24-1.023a3.589 3.589 0 0 0-.962-.134c-.924 0-1.611.521-1.611 1.588v.355h-.693v1.023h.693v3.886h1.362v-3.886h.974v-1.023Zm2.813 5.005c1.214 0 2.032-.591 2.224-1.502l-1.259-.083c-.138.374-.489.569-.943.569-.681 0-1.112-.451-1.112-1.183v-.003h3.343v-.374c0-1.668-1.01-2.493-2.308-2.493-1.444 0-2.381 1.026-2.381 2.541 0 1.556.924 2.528 2.436 2.528Zm-1.09-3.046a1.038 1.038 0 0 1 1.058-1.007c.591 0 1 .422 1.003 1.007h-2.061ZM179.92 499.246c-.182-1.512-1.326-2.381-2.841-2.381-1.729 0-3.049 1.221-3.049 3.362 0 2.135 1.297 3.362 3.049 3.362 1.678 0 2.691-1.115 2.841-2.32l-1.4-.006c-.131.7-.68 1.102-1.419 1.102-.994 0-1.668-.738-1.668-2.138 0-1.361.665-2.138 1.678-2.138.757 0 1.304.438 1.409 1.157h1.4Zm2.247-2.291h-1.361v6.545h1.361v-6.545Zm3.228 6.641c1.489 0 2.416-1.02 2.416-2.531 0-1.522-.927-2.538-2.416-2.538-1.489 0-2.416 1.016-2.416 2.538 0 1.511.927 2.531 2.416 2.531Zm.007-1.055c-.688 0-1.039-.629-1.039-1.486 0-.856.351-1.489 1.039-1.489.674 0 1.025.633 1.025 1.489 0 .857-.351 1.486-1.025 1.486Zm7.298-2.55c-.121-.905-.85-1.464-2.09-1.464-1.256 0-2.084.582-2.081 1.528-.003.735.461 1.211 1.419 1.403l.851.169c.428.086.623.243.629.489-.006.291-.323.499-.799.499-.486 0-.808-.208-.892-.608l-1.339.071c.128.939.927 1.518 2.228 1.518 1.272 0 2.183-.649 2.186-1.617-.003-.71-.467-1.135-1.419-1.33l-.889-.179c-.457-.099-.626-.256-.623-.492-.003-.294.329-.486.751-.486.473 0 .755.259.822.575l1.246-.076Zm3.126 3.605c1.214 0 2.032-.591 2.224-1.502l-1.259-.083c-.138.374-.489.569-.943.569-.681 0-1.112-.451-1.112-1.183v-.003h3.343v-.374c0-1.668-1.01-2.493-2.308-2.493-1.444 0-2.381 1.026-2.381 2.541 0 1.556.924 2.528 2.436 2.528Zm-1.09-3.046a1.037 1.037 0 0 1 1.058-1.007c.591 0 1 .422 1.003 1.007h-2.061ZM175.73 515.5h4.19v-1.141h-2.806v-5.404h-1.384v6.545Zm7.218.096c1.49 0 2.417-1.02 2.417-2.531 0-1.522-.927-2.538-2.417-2.538-1.489 0-2.416 1.016-2.416 2.538 0 1.511.927 2.531 2.416 2.531Zm.007-1.055c-.687 0-1.039-.629-1.039-1.486 0-.856.352-1.489 1.039-1.489.674 0 1.026.633 1.026 1.489 0 .857-.352 1.486-1.026 1.486Zm4.575-1.879c.004-.633.381-1.004.93-1.004.547 0 .876.358.873.959v2.883h1.361v-3.126c0-1.144-.671-1.847-1.693-1.847-.729 0-1.257.358-1.477.93h-.058v-.866h-1.297v4.909h1.361v-2.838Zm6.368 4.781c1.403 0 2.4-.639 2.4-1.895v-4.957h-1.352v.824h-.051c-.182-.399-.581-.888-1.403-.888-1.077 0-1.988.837-1.988 2.509 0 1.633.886 2.394 1.991 2.394.783 0 1.221-.393 1.4-.799h.058v.898c0 .674-.432.936-1.023.936-.601 0-.904-.262-1.016-.559l-1.259.169c.163.774.92 1.368 2.243 1.368Zm.029-3.036c-.668 0-1.032-.531-1.032-1.378 0-.834.358-1.419 1.032-1.419.661 0 1.032.56 1.032 1.419 0 .867-.377 1.378-1.032 1.378Zm-95.598-67.452h-1.537l2.26 6.545h1.783l2.256-6.545h-1.534l-1.585 4.973h-.061l-1.582-4.973Zm6.298 6.638c.726 0 1.196-.317 1.435-.774h.039v.681h1.291v-3.311c0-1.17-.991-1.662-2.084-1.662-1.176 0-1.95.562-2.138 1.457l1.259.103c.093-.326.384-.566.873-.566.463 0 .728.233.728.636v.019c0 .317-.335.358-1.189.441-.971.09-1.844.416-1.844 1.512 0 .971.694 1.464 1.63 1.464Zm.39-.94c-.418 0-.719-.195-.719-.569 0-.383.316-.572.796-.639.297-.042.783-.112.946-.221v.521c0 .515-.425.908-1.023.908Zm4.712-1.991c.003-.633.38-1.004.93-1.004.546 0 .875.358.872.959v2.883h1.362v-3.126c0-1.144-.671-1.847-1.694-1.847-.729 0-1.256.358-1.477.93h-.057v-.866h-1.298v4.909h1.362v-2.838ZM52.687 418h2.796c1.47 0 2.253-.767 2.253-1.809 0-.968-.693-1.553-1.438-1.588v-.064c.68-.154 1.182-.636 1.182-1.407 0-.981-.728-1.677-2.173-1.677h-2.62V418Zm1.383-1.131v-1.739h1.16c.665 0 1.078.383 1.078.924 0 .492-.336.815-1.11.815H54.07Zm0-2.675v-1.621h1.052c.614 0 .962.317.962.79 0 .517-.422.831-.988.831H54.07Zm5.86 3.899c.726 0 1.195-.317 1.435-.774h.038V418h1.291v-3.311c0-1.17-.99-1.662-2.083-1.662-1.176 0-1.95.562-2.138 1.457l1.259.103c.093-.326.383-.566.872-.566.464 0 .729.233.729.636v.019c0 .317-.336.358-1.189.441-.971.09-1.844.416-1.844 1.512 0 .971.694 1.464 1.63 1.464Zm.39-.94c-.419 0-.72-.195-.72-.569 0-.383.317-.572.797-.639.297-.042.783-.112.946-.221v.521c0 .515-.426.908-1.023.908Zm4.711-1.991c.003-.633.38-1.004.93-1.004.547 0 .876.358.873.959V418h1.361v-3.126c0-1.144-.67-1.847-1.694-1.847-.728 0-1.255.358-1.476.93h-.058v-.866H63.67V418h1.361v-2.838ZM69.187 418h1.362v-1.56l.367-.418 1.34 1.978h1.594l-1.914-2.784 1.822-2.125h-1.563l-1.572 1.863h-.074v-3.499h-1.362V418Zm70.643-53.904h2.004v5.404h1.368v-5.404h2.003v-1.141h-5.375v1.141Zm5.644 5.404h1.362v-2.777c0-.604.441-1.02 1.042-1.02.188 0 .447.032.575.074v-1.208a2.025 2.025 0 0 0-.428-.048c-.55 0-1.001.319-1.179.926h-.052v-.856h-1.32v4.909Zm6.75-2.09c.003.658-.447 1.003-.936 1.003-.515 0-.847-.361-.85-.939v-2.883h-1.362v3.126c.003 1.147.674 1.847 1.662 1.847.738 0 1.269-.38 1.489-.956h.051v.892h1.308v-4.909h-1.362v2.819Zm4.588 2.186c1.307 0 2.128-.767 2.192-1.895h-1.285c-.08.524-.425.818-.891.818-.636 0-1.049-.534-1.049-1.474 0-.926.416-1.457 1.049-1.457.498 0 .818.329.891.818h1.285c-.057-1.134-.917-1.879-2.199-1.879-1.489 0-2.409 1.032-2.409 2.538 0 1.492.904 2.531 2.416 2.531Zm2.983-.096h1.361v-1.56l.368-.418 1.339 1.978h1.595l-1.915-2.784 1.822-2.125h-1.563l-1.572 1.863h-.074v-3.499h-1.361v6.545Zm-72.781-7.404h2.004v5.404h1.368v-5.404h2.004v-1.141h-5.376v1.141Zm5.645 5.404h1.361v-2.777c0-.604.442-1.02 1.042-1.02.189 0 .448.032.576.074v-1.208a2.029 2.029 0 0 0-.429-.048c-.55 0-1 .319-1.179.926h-.051v-.856h-1.32v4.909Zm4.86.093c.726 0 1.196-.317 1.436-.774h.038v.681h1.291v-3.311c0-1.17-.99-1.662-2.083-1.662-1.176 0-1.95.562-2.138 1.457l1.259.103c.092-.326.383-.566.872-.566.464 0 .729.233.729.636v.019c0 .317-.336.358-1.189.441-.972.09-1.844.416-1.844 1.512 0 .971.693 1.464 1.63 1.464Zm.39-.94c-.418 0-.718-.195-.718-.569 0-.383.316-.572.796-.639.297-.042.782-.112.946-.221v.521c0 .515-.426.908-1.023.908Zm7.435-2.662c-.121-.905-.85-1.464-2.09-1.464-1.256 0-2.084.582-2.081 1.528-.003.735.461 1.211 1.419 1.403l.851.169c.428.086.623.243.629.489-.006.291-.323.499-.799.499-.486 0-.808-.208-.892-.608l-1.339.071c.128.939.927 1.518 2.228 1.518 1.272 0 2.183-.649 2.186-1.617-.003-.71-.467-1.135-1.419-1.33l-.888-.179c-.457-.099-.627-.256-.624-.492-.003-.294.33-.486.751-.486.473 0 .755.259.822.575l1.246-.076Zm2.25.671c.003-.633.39-1.004.946-1.004.553 0 .879.355.876.959v2.883h1.361v-3.126c.003-1.15-.674-1.847-1.697-1.847-.745 0-1.243.352-1.467.93h-.057v-2.502h-1.324v6.545h1.362v-2.838Zm-2.643-38.207v4.132c0 .748-.525 1.288-1.33 1.288-.802 0-1.33-.54-1.33-1.288v-4.132h-1.383v4.25c0 1.432 1.08 2.388 2.713 2.388 1.627 0 2.713-.956 2.713-2.388v-4.25h-1.383Zm3.777 3.707c.003-.633.38-1.004.93-1.004.546 0 .876.358.872.959V333h1.362v-3.126c0-1.144-.671-1.847-1.694-1.847-.729 0-1.256.358-1.476.93h-.058v-.866h-1.298V333h1.362v-2.838Zm5.965 2.918c.793 0 1.205-.457 1.393-.866h.058V333h1.342v-6.545h-1.358v2.46h-.042c-.182-.399-.575-.888-1.396-.888-1.077 0-1.988.837-1.988 2.525 0 1.643.872 2.528 1.991 2.528Zm.431-1.084c-.668 0-1.032-.594-1.032-1.451 0-.85.358-1.435 1.032-1.435.662 0 1.033.56 1.033 1.435 0 .876-.377 1.451-1.033 1.451Zm5.638 1.1c1.214 0 2.033-.591 2.224-1.502l-1.259-.083c-.137.374-.489.569-.943.569-.68 0-1.112-.451-1.112-1.183v-.003h3.343v-.374c0-1.668-1.01-2.493-2.307-2.493-1.445 0-2.381 1.026-2.381 2.541 0 1.556.923 2.528 2.435 2.528Zm-1.09-3.046a1.038 1.038 0 0 1 1.058-1.007c.591 0 1 .422 1.004 1.007h-2.062Zm4.151 2.95h1.361v-2.777c0-.604.441-1.02 1.042-1.02.189 0 .447.032.575.074v-1.208a2.025 2.025 0 0 0-.428-.048c-.55 0-1 .319-1.179.926h-.051v-.856h-1.32V333Zm3.601 1.841h1.362v-2.627h.041c.189.409.601.866 1.394.866 1.118 0 1.991-.885 1.991-2.528 0-1.688-.911-2.525-1.988-2.525-.821 0-1.215.489-1.397.888h-.06v-.824h-1.343v6.75Zm1.333-4.296c0-.875.371-1.435 1.032-1.435.675 0 1.033.585 1.033 1.435 0 .857-.365 1.451-1.033 1.451-.655 0-1.032-.575-1.032-1.451Zm5.681 2.548c.726 0 1.196-.317 1.435-.774h.039V333h1.291v-3.311c0-1.17-.991-1.662-2.084-1.662-1.176 0-1.949.562-2.138 1.457l1.259.103c.093-.326.384-.566.873-.566.463 0 .728.233.728.636v.019c0 .317-.335.358-1.188.441-.972.09-1.845.416-1.845 1.512 0 .971.694 1.464 1.63 1.464Zm.39-.94c-.418 0-.719-.195-.719-.569 0-.383.317-.572.796-.639.297-.042.783-.112.946-.221v.521c0 .515-.425.908-1.023.908Zm7.435-2.662c-.122-.905-.85-1.464-2.09-1.464-1.256 0-2.084.582-2.081 1.528-.003.735.46 1.211 1.419 1.403l.85.169c.428.086.623.243.63.489-.007.291-.323.499-.799.499-.486 0-.809-.208-.892-.608l-1.339.071c.128.939.927 1.518 2.228 1.518 1.272 0 2.182-.649 2.186-1.617-.004-.71-.467-1.135-1.419-1.33l-.889-.179c-.457-.099-.626-.256-.623-.492-.003-.294.329-.486.751-.486.473 0 .754.259.821.575l1.247-.076Zm4.972 0c-.121-.905-.85-1.464-2.09-1.464-1.256 0-2.084.582-2.08 1.528-.004.735.46 1.211 1.419 1.403l.85.169c.428.086.623.243.629.489-.006.291-.322.499-.799.499-.485 0-.808-.208-.891-.608l-1.339.071c.127.939.926 1.518 2.227 1.518 1.272 0 2.183-.649 2.186-1.617-.003-.71-.466-1.135-1.419-1.33l-.888-.179c-.457-.099-.627-.256-.623-.492-.004-.294.329-.486.751-.486.473 0 .754.259.821.575l1.246-.076ZM11.013 418.837h1.326c-.019-1.167-.978-1.972-2.435-1.972-1.435 0-2.486.793-2.48 1.982-.003.965.677 1.518 1.783 1.783l.713.179c.713.173 1.109.377 1.112.818-.003.48-.457.806-1.16.806-.719 0-1.237-.333-1.282-.988H7.251c.035 1.416 1.049 2.148 2.637 2.148 1.598 0 2.538-.764 2.54-1.963-.002-1.09-.824-1.668-1.962-1.924l-.588-.14c-.568-.131-1.045-.342-1.035-.812 0-.422.374-.732 1.051-.732.662 0 1.068.3 1.12.815Zm4.851-.246h-.923v-1.176h-1.362v1.176h-.671v1.023h.671v2.556c-.006.962.649 1.439 1.636 1.397.352-.013.601-.083.739-.128l-.214-1.013c-.067.013-.211.045-.34.045-.27 0-.46-.102-.46-.48v-2.377h.924v-1.023Zm2.971 5.005c1.49 0 2.417-1.02 2.417-2.531 0-1.522-.927-2.538-2.416-2.538-1.49 0-2.417 1.016-2.417 2.538 0 1.511.927 2.531 2.416 2.531Zm.007-1.055c-.687 0-1.039-.629-1.039-1.486 0-.856.352-1.489 1.039-1.489.674 0 1.026.633 1.026 1.489 0 .857-.352 1.486-1.026 1.486Zm3.214.959h1.361v-2.777c0-.604.442-1.02 1.042-1.02.189 0 .448.032.576.074v-1.208a2.027 2.027 0 0 0-.429-.048c-.55 0-1 .319-1.179.926h-.051v-.856h-1.32v4.909Zm4.86.093c.726 0 1.196-.317 1.436-.774h.038v.681h1.291v-3.311c0-1.17-.99-1.662-2.083-1.662-1.176 0-1.95.562-2.139 1.457l1.26.103c.092-.326.383-.566.872-.566.464 0 .729.233.729.636v.019c0 .317-.336.358-1.189.441-.972.09-1.844.416-1.844 1.512 0 .971.693 1.464 1.63 1.464Zm.39-.94c-.418 0-.718-.195-.718-.569 0-.383.316-.572.796-.639.297-.042.782-.112.945-.221v.521c0 .515-.425.908-1.022.908Zm5.562 2.79c1.403 0 2.4-.639 2.4-1.895v-4.957h-1.351v.824h-.052c-.182-.399-.581-.888-1.403-.888-1.077 0-1.988.837-1.988 2.509 0 1.633.886 2.394 1.992 2.394.783 0 1.22-.393 1.4-.799h.057v.898c0 .674-.431.936-1.023.936-.6 0-.904-.262-1.016-.559l-1.26.169c.164.774.921 1.368 2.244 1.368Zm.03-3.036c-.669 0-1.033-.531-1.033-1.378 0-.834.358-1.419 1.032-1.419.662 0 1.032.56 1.032 1.419 0 .867-.377 1.378-1.032 1.378Zm5.61 1.189c1.215 0 2.033-.591 2.225-1.502l-1.26-.083c-.137.374-.489.569-.942.569-.681 0-1.113-.451-1.113-1.183v-.003h3.343v-.374c0-1.668-1.01-2.493-2.307-2.493-1.445 0-2.381 1.026-2.381 2.541 0 1.556.923 2.528 2.435 2.528Zm-1.09-3.046a1.037 1.037 0 0 1 1.058-1.007c.592 0 1 .422 1.004 1.007h-2.062Zm14.1-69.05h2.797c1.47 0 2.253-.767 2.253-1.809 0-.968-.694-1.553-1.438-1.588v-.064c.68-.154 1.182-.636 1.182-1.407 0-.981-.729-1.677-2.173-1.677h-2.621v6.545Zm1.384-1.131v-1.739h1.16c.665 0 1.077.383 1.077.924 0 .492-.336.815-1.109.815h-1.128Zm0-2.675v-1.621h1.051c.614 0 .962.317.962.79 0 .517-.422.831-.987.831h-1.026Zm5.86 3.899c.725 0 1.195-.317 1.434-.774h.039v.681h1.291v-3.311c0-1.17-.99-1.662-2.084-1.662-1.176 0-1.95.562-2.138 1.457l1.26.103c.092-.326.383-.566.872-.566.463 0 .728.233.728.636v.019c0 .317-.335.358-1.188.441-.972.09-1.844.416-1.844 1.512 0 .971.693 1.464 1.63 1.464Zm.39-.94c-.42 0-.72-.195-.72-.569 0-.383.317-.572.796-.639.297-.042.783-.112.946-.221v.521c0 .515-.425.908-1.023.908Zm5.567.943c1.308 0 2.129-.767 2.193-1.895h-1.285c-.08.524-.425.818-.892.818-.636 0-1.048-.534-1.048-1.474 0-.926.416-1.457 1.048-1.457.499 0 .819.329.892.818h1.285c-.058-1.134-.917-1.879-2.199-1.879-1.49 0-2.41 1.032-2.41 2.538 0 1.492.905 2.531 2.416 2.531Zm2.984-.096h1.361v-1.56l.368-.418 1.339 1.978h1.594l-1.914-2.784 1.822-2.125H70.71l-1.572 1.863h-.074v-3.499h-1.361v6.545Zm8.313 0 .485-1.493h2.362l.486 1.493h1.483l-2.256-6.545h-1.784l-2.26 6.545h1.484Zm.837-2.573.805-2.477h.052l.805 2.477h-1.662Zm84.86-141.331h2.004V213h1.368v-5.404h2.004v-1.141h-5.376v1.141Zm7.661 5.5c1.489 0 2.416-1.02 2.416-2.531 0-1.522-.927-2.538-2.416-2.538-1.49 0-2.417 1.016-2.417 2.538 0 1.511.927 2.531 2.417 2.531Zm.006-1.055c-.687 0-1.039-.629-1.039-1.486 0-.856.352-1.489 1.039-1.489.674 0 1.026.633 1.026 1.489 0 .857-.352 1.486-1.026 1.486Zm4.167-3.95h-1.406l1.406 2.454L172.09 213h1.406l.953-1.697.968 1.697h1.39l-1.46-2.455 1.422-2.454h-1.397l-.923 1.716-.902-1.716Zm3.95 4.909h1.361v-4.909h-1.361V213Zm.683-5.542c.406 0 .739-.31.739-.69 0-.377-.333-.687-.739-.687-.402 0-.735.31-.735.687 0 .38.333.69.735.69Zm3.906 5.638c1.307 0 2.128-.767 2.192-1.895h-1.285c-.08.524-.425.818-.891.818-.636 0-1.049-.534-1.049-1.474 0-.926.416-1.457 1.049-1.457.498 0 .818.329.891.818h1.285c-.057-1.134-.917-1.879-2.199-1.879-1.489 0-2.41 1.032-2.41 2.538 0 1.492.905 2.531 2.417 2.531ZM199.728 206h1.384v-2.122h1.163c1.505 0 2.381-.898 2.381-2.205 0-1.301-.86-2.218-2.346-2.218h-2.582V206Zm1.384-3.231v-2.183h.933c.799 0 1.186.435 1.186 1.087 0 .648-.387 1.096-1.18 1.096h-.939Zm4.337 3.231h1.361v-4.909h-1.361V206Zm.683-5.542c.406 0 .739-.31.739-.69 0-.377-.333-.687-.739-.687-.402 0-.735.31-.735.687 0 .38.333.69.735.69Zm3.049-1.003h-1.361V206h1.361v-6.545Zm2.371 0h-1.361V206h1.361v-6.545Zm2.41 6.638c.725 0 1.195-.317 1.435-.774h.038V206h1.291v-3.311c0-1.17-.99-1.662-2.083-1.662-1.177 0-1.95.562-2.139 1.457l1.26.103c.092-.326.383-.566.872-.566.464 0 .729.233.729.636v.019c0 .317-.336.358-1.189.441-.972.09-1.844.416-1.844 1.512 0 .971.693 1.464 1.63 1.464Zm.39-.94c-.419 0-.719-.195-.719-.569 0-.383.316-.572.795-.639.298-.042.783-.112.946-.221v.521c0 .515-.425.908-1.022.908Zm3.35.847h1.361v-2.777c0-.604.441-1.02 1.042-1.02.189 0 .448.032.575.074v-1.208a2.018 2.018 0 0 0-.428-.048c-.55 0-1 .319-1.179.926h-.051v-.856h-1.32V206Zm2.059 69h1.384v-2.122h1.163c1.506 0 2.381-.898 2.381-2.205 0-1.301-.859-2.218-2.345-2.218h-2.583V275Zm1.384-3.231v-2.183h.933c.799 0 1.186.435 1.186 1.087 0 .648-.387 1.096-1.179 1.096h-.94Zm4.337 3.231h1.361v-4.909h-1.361V275Zm.684-5.542c.406 0 .738-.31.738-.69 0-.377-.332-.687-.738-.687-.403 0-.735.31-.735.687 0 .38.332.69.735.69Zm4.298.633h-.924v-1.176h-1.361v1.176h-.671v1.023h.671v2.556c-.006.962.649 1.439 1.636 1.397.352-.013.601-.083.739-.128l-.215-1.013c-.067.013-.21.045-.338.045-.272 0-.461-.102-.461-.48v-2.377h.924v-1.023ZM193.744 374h1.384v-2.704h2.809V374h1.381v-6.545h-1.381v2.7h-2.809v-2.7h-1.384V374Zm9.756-2.09c.004.658-.447 1.003-.936 1.003-.515 0-.847-.361-.85-.939v-2.883h-1.362v3.126c.004 1.147.675 1.847 1.662 1.847.739 0 1.269-.38 1.49-.956h.051V374h1.307v-4.909H203.5v2.819Zm4.981-2.819h-.923v-1.176h-1.362v1.176h-.671v1.023h.671v2.556c-.006.962.649 1.439 1.636 1.397.352-.013.601-.083.739-.128l-.214-1.013c-.068.013-.211.045-.339.045-.272 0-.46-.102-.46-.48v-2.377h.923v-1.023ZM151.16 320.5h1.384v-2.704h2.809v2.704h1.381v-6.545h-1.381v2.7h-2.809v-2.7h-1.384v6.545Zm8.846.096c1.214 0 2.032-.591 2.224-1.502l-1.259-.083c-.138.374-.489.569-.943.569-.681 0-1.112-.451-1.112-1.183v-.003h3.343v-.374c0-1.668-1.01-2.493-2.308-2.493-1.444 0-2.381 1.026-2.381 2.541 0 1.556.924 2.528 2.436 2.528Zm-1.09-3.046a1.037 1.037 0 0 1 1.058-1.007c.591 0 1 .422 1.003 1.007h-2.061Zm5.55 3.043c.726 0 1.195-.317 1.435-.774h.038v.681h1.292v-3.311c0-1.17-.991-1.662-2.084-1.662-1.176 0-1.95.562-2.138 1.457l1.259.103c.093-.326.383-.566.872-.566.464 0 .729.233.729.636v.019c0 .317-.335.358-1.189.441-.971.09-1.844.416-1.844 1.512 0 .971.694 1.464 1.63 1.464Zm.39-.94c-.419 0-.719-.195-.719-.569 0-.383.316-.572.796-.639.297-.042.783-.112.946-.221v.521c0 .515-.425.908-1.023.908Zm7.751-4.062h-1.442l-1.016 3.512h-.051l-1.02-3.512h-1.438l1.717 4.909h1.534l1.716-4.909Zm2.686 5.005c1.214 0 2.032-.591 2.224-1.502l-1.259-.083c-.137.374-.489.569-.943.569-.681 0-1.112-.451-1.112-1.183v-.003h3.343v-.374c0-1.668-1.01-2.493-2.308-2.493-1.444 0-2.381 1.026-2.381 2.541 0 1.556.924 2.528 2.436 2.528Zm-1.09-3.046a1.038 1.038 0 0 1 1.058-1.007c.591 0 1 .422 1.003 1.007h-2.061Zm5.512.112c.003-.633.38-1.004.93-1.004.547 0 .876.358.873.959v2.883h1.361v-3.126c0-1.144-.671-1.847-1.694-1.847-.728 0-1.256.358-1.476.93h-.058v-.866h-1.297v4.909h1.361v-2.838ZM315.942 275.5h1.348l1.244-4.279h.051l1.246 4.279h1.349l1.873-6.545h-1.512l-1.083 4.557h-.058l-1.192-4.557h-1.294l-1.196 4.547h-.054l-1.084-4.547h-1.511l1.873 6.545Zm8.617.093c.726 0 1.196-.317 1.435-.774h.039v.681h1.291v-3.311c0-1.17-.991-1.662-2.084-1.662-1.176 0-1.949.562-2.138 1.457l1.259.103c.093-.326.384-.566.873-.566.463 0 .728.233.728.636v.019c0 .317-.335.358-1.189.441-.971.09-1.844.416-1.844 1.512 0 .971.694 1.464 1.63 1.464Zm.39-.94c-.418 0-.719-.195-.719-.569 0-.383.317-.572.796-.639.297-.042.783-.112.946-.221v.521c0 .515-.425.908-1.023.908Zm5.961-4.062h-.923v-1.176h-1.362v1.176h-.671v1.023h.671v2.556c-.006.962.649 1.439 1.637 1.397.351-.013.6-.083.738-.128l-.214-1.013c-.067.013-.211.045-.339.045-.272 0-.46-.102-.46-.48v-2.377h.923v-1.023Zm2.991 5.005c1.214 0 2.032-.591 2.224-1.502l-1.259-.083c-.138.374-.489.569-.943.569-.681 0-1.112-.451-1.112-1.183v-.003h3.343v-.374c0-1.668-1.01-2.493-2.308-2.493-1.444 0-2.381 1.026-2.381 2.541 0 1.556.924 2.528 2.436 2.528Zm-1.09-3.046a1.038 1.038 0 0 1 1.058-1.007c.591 0 1 .422 1.003 1.007h-2.061Zm4.15 2.95h1.362v-2.777c0-.604.441-1.02 1.042-1.02.188 0 .447.032.575.074v-1.208a2.025 2.025 0 0 0-.428-.048c-.55 0-1.001.319-1.18.926h-.051v-.856h-1.32v4.909Zm-68.909-56.163h1.326c-.019-1.167-.978-1.972-2.435-1.972-1.435 0-2.487.793-2.48 1.982-.004.965.677 1.518 1.783 1.783l.713.179c.712.173 1.109.377 1.112.818-.003.48-.457.806-1.16.806-.719 0-1.237-.333-1.282-.988h-1.339c.035 1.416 1.048 2.148 2.637 2.148 1.598 0 2.537-.764 2.541-1.963-.004-1.09-.825-1.668-1.963-1.924l-.588-.14c-.569-.131-1.045-.342-1.035-.812 0-.422.374-.732 1.051-.732.662 0 1.068.3 1.119.815Zm3.601 1.825c.004-.633.39-1.004.946-1.004.553 0 .879.355.876.959V224h1.362v-3.126c.003-1.15-.675-1.847-1.698-1.847-.744 0-1.243.352-1.467.93h-.057v-2.502h-1.323V224h1.361v-2.838Zm6.392 2.934c1.489 0 2.416-1.02 2.416-2.531 0-1.522-.927-2.538-2.416-2.538-1.489 0-2.416 1.016-2.416 2.538 0 1.511.927 2.531 2.416 2.531Zm.006-1.055c-.687 0-1.038-.629-1.038-1.486 0-.856.351-1.489 1.038-1.489.675 0 1.026.633 1.026 1.489 0 .857-.351 1.486-1.026 1.486Zm3.215.959h1.361v-2.777c0-.604.441-1.02 1.042-1.02.189 0 .447.032.575.074v-1.208a2.025 2.025 0 0 0-.428-.048c-.55 0-1 .319-1.179.926h-.051v-.856h-1.32V224Zm6.458-4.909h-.923v-1.176h-1.362v1.176h-.671v1.023h.671v2.556c-.006.962.649 1.439 1.637 1.397.351-.013.6-.083.738-.128l-.214-1.013c-.067.013-.211.045-.339.045-.272 0-.46-.102-.46-.48v-2.377h.923v-1.023Zm3.614-11.754h1.327c-.02-1.167-.978-1.972-2.436-1.972-1.435 0-2.486.793-2.48 1.982-.003.965.678 1.518 1.783 1.783l.713.179c.713.173 1.109.377 1.112.818-.003.48-.457.806-1.16.806-.719 0-1.237-.333-1.281-.988h-1.339c.035 1.416 1.048 2.148 2.636 2.148 1.598 0 2.538-.764 2.541-1.963-.003-1.09-.825-1.668-1.962-1.924l-.588-.14c-.569-.131-1.045-.342-1.036-.812 0-.422.374-.732 1.052-.732.661 0 1.067.3 1.118.815Zm3.64 4.756c.726 0 1.196-.317 1.435-.774h.039V212h1.291v-3.311c0-1.17-.991-1.662-2.084-1.662-1.176 0-1.95.562-2.138 1.457l1.259.103c.093-.326.384-.566.873-.566.463 0 .728.233.728.636v.019c0 .317-.335.358-1.189.441-.971.09-1.844.416-1.844 1.512 0 .971.694 1.464 1.63 1.464Zm.39-.94c-.419 0-.719-.195-.719-.569 0-.383.316-.572.796-.639.297-.042.783-.112.946-.221v.521c0 .515-.425.908-1.023.908Zm4.712-1.991c.003-.633.38-1.004.93-1.004.546 0 .875.358.872.959V212h1.362v-3.126c0-1.144-.672-1.847-1.694-1.847-.729 0-1.256.358-1.477.93h-.057v-.866h-1.298V212h1.362v-2.838Zm5.965 2.918c.792 0 1.205-.457 1.393-.866h.058V212h1.342v-6.545h-1.358v2.46h-.042c-.182-.399-.575-.888-1.397-.888-1.077 0-1.987.837-1.987 2.525 0 1.643.872 2.528 1.991 2.528Zm.431-1.084c-.668 0-1.032-.594-1.032-1.451 0-.85.358-1.435 1.032-1.435.662 0 1.032.56 1.032 1.435 0 .876-.377 1.451-1.032 1.451Zm3.426 1.004h1.342v-.786h.061c.189.409.601.866 1.393.866 1.119 0 1.992-.885 1.992-2.528 0-1.688-.911-2.525-1.988-2.525-.822 0-1.215.489-1.397.888h-.042v-2.46h-1.361V212Zm1.333-2.455c0-.875.37-1.435 1.032-1.435.674 0 1.032.585 1.032 1.435 0 .857-.364 1.451-1.032 1.451-.655 0-1.032-.575-1.032-1.451Zm5.682 2.548c.725 0 1.195-.317 1.435-.774h.038V212h1.291v-3.311c0-1.17-.99-1.662-2.083-1.662-1.176 0-1.95.562-2.138 1.457l1.259.103c.092-.326.383-.566.872-.566.464 0 .729.233.729.636v.019c0 .317-.336.358-1.189.441-.972.09-1.844.416-1.844 1.512 0 .971.693 1.464 1.63 1.464Zm.39-.94c-.419 0-.719-.195-.719-.569 0-.383.316-.572.796-.639.297-.042.783-.112.946-.221v.521c0 .515-.426.908-1.023.908Zm5.561 2.79c1.403 0 2.401-.639 2.401-1.895v-4.957h-1.352v.824h-.051c-.183-.399-.582-.888-1.404-.888-1.077 0-1.987.837-1.987 2.509 0 1.633.885 2.394 1.991 2.394.783 0 1.221-.393 1.4-.799h.057v.898c0 .674-.431.936-1.023.936-.601 0-.904-.262-1.016-.559l-1.259.169c.163.774.92 1.368 2.243 1.368Zm.029-3.036c-.668 0-1.032-.531-1.032-1.378 0-.834.358-1.419 1.032-1.419.662 0 1.032.56 1.032 1.419 0 .867-.377 1.378-1.032 1.378Zm7.459-2.416c-.122-.905-.851-1.464-2.091-1.464-1.256 0-2.083.582-2.08 1.528-.003.735.46 1.211 1.419 1.403l.85.169c.428.086.623.243.63.489-.007.291-.323.499-.799.499-.486 0-.809-.208-.892-.608l-1.339.071c.128.939.927 1.518 2.227 1.518 1.272 0 2.183-.649 2.186-1.617-.003-.71-.466-1.135-1.419-1.33l-.888-.179c-.457-.099-.627-.256-.623-.492-.004-.294.329-.486.751-.486.473 0 .754.259.821.575l1.247-.076Zm-54.001-54.536v6.545h1.342v-4.276h.055l1.693 4.244h.914l1.694-4.228h.055v4.26h1.342v-6.545h-1.707l-1.802 4.397h-.077l-1.802-4.397h-1.707Zm10.347 6.641c1.489 0 2.416-1.02 2.416-2.531 0-1.522-.927-2.538-2.416-2.538-1.49 0-2.417 1.016-2.417 2.538 0 1.511.927 2.531 2.417 2.531Zm.006-1.055c-.687 0-1.039-.629-1.039-1.486 0-.856.352-1.489 1.039-1.489.674 0 1.026.633 1.026 1.489 0 .857-.352 1.486-1.026 1.486Zm4.576-1.879c.003-.633.38-1.004.93-1.004.546 0 .875.358.872.959v2.883h1.362v-3.126c0-1.144-.671-1.847-1.694-1.847-.729 0-1.256.358-1.477.93h-.057v-.866h-1.298v4.909h1.362v-2.838Zm8.24-.671c-.121-.905-.85-1.464-2.09-1.464-1.256 0-2.084.582-2.08 1.528-.004.735.46 1.211 1.419 1.403l.85.169c.428.086.623.243.629.489-.006.291-.322.499-.799.499-.485 0-.808-.208-.891-.608l-1.34.071c.128.939.927 1.518 2.228 1.518 1.272 0 2.183-.649 2.186-1.617-.003-.71-.466-1.135-1.419-1.33l-.888-.179c-.457-.099-.627-.256-.624-.492-.003-.294.33-.486.751-.486.474 0 .755.259.822.575l1.246-.076Zm3.5-1.4h-.924v-1.176h-1.361v1.176h-.672v1.023h.672v2.556c-.007.962.648 1.439 1.636 1.397.351-.013.601-.083.738-.128l-.214-1.013c-.067.013-.211.045-.339.045-.271 0-.46-.102-.46-.48v-2.377h.924v-1.023Zm2.99 5.005c1.215 0 2.033-.591 2.224-1.502l-1.259-.083c-.137.374-.489.569-.943.569-.68 0-1.112-.451-1.112-1.183v-.003h3.343v-.374c0-1.668-1.01-2.493-2.307-2.493-1.445 0-2.381 1.026-2.381 2.541 0 1.556.923 2.528 2.435 2.528Zm-1.09-3.046a1.038 1.038 0 0 1 1.058-1.007c.591 0 1 .422 1.004 1.007h-2.062Zm4.151 2.95h1.361v-2.777c0-.604.441-1.02 1.042-1.02.189 0 .448.032.575.074v-1.208a2.018 2.018 0 0 0-.428-.048c-.55 0-1 .319-1.179.926h-.051v-.856h-1.32v4.909Zm-93.199-18.254c-.182-1.512-1.326-2.381-2.841-2.381-1.729 0-3.049 1.221-3.049 3.362 0 2.135 1.298 3.362 3.049 3.362 1.678 0 2.691-1.115 2.841-2.32l-1.4-.006c-.131.7-.68 1.102-1.419 1.102-.994 0-1.668-.738-1.668-2.138 0-1.361.665-2.138 1.678-2.138.757 0 1.304.438 1.409 1.157h1.4Zm2.286 4.347c.725 0 1.195-.317 1.435-.774h.038v.681h1.291v-3.311c0-1.17-.99-1.662-2.083-1.662-1.177 0-1.95.562-2.139 1.457l1.26.103c.092-.326.383-.566.872-.566.464 0 .729.233.729.636v.019c0 .317-.336.358-1.189.441-.972.09-1.844.416-1.844 1.512 0 .971.693 1.464 1.63 1.464Zm.39-.94c-.419 0-.719-.195-.719-.569 0-.383.316-.572.795-.639.298-.042.784-.112.947-.221v.521c0 .515-.426.908-1.023.908Zm4.711-1.991c.003-.633.381-1.004.93-1.004.547 0 .876.358.873.959v2.883h1.361v-3.126c0-1.144-.671-1.847-1.694-1.847-.728 0-1.256.358-1.476.93h-.058v-.866h-1.297v4.909h1.361v-2.838Zm5.556 2.931c.726 0 1.196-.317 1.435-.774h.039v.681h1.291v-3.311c0-1.17-.991-1.662-2.084-1.662-1.176 0-1.95.562-2.138 1.457l1.259.103c.093-.326.384-.566.873-.566.463 0 .728.233.728.636v.019c0 .317-.335.358-1.189.441-.971.09-1.844.416-1.844 1.512 0 .971.694 1.464 1.63 1.464Zm.39-.94c-.419 0-.719-.195-.719-.569 0-.383.316-.572.796-.639.297-.042.783-.112.946-.221v.521c0 .515-.425.908-1.023.908Zm4.712-5.698h-1.362v6.545h1.362v-6.545Zm119.682-2.359h2.004V143h1.367v-5.404h2.004v-1.141h-5.375v1.141Zm5.644 5.404h1.362v-2.777c0-.604.441-1.02 1.042-1.02.188 0 .447.032.575.074v-1.208a2.025 2.025 0 0 0-.428-.048c-.55 0-1.001.319-1.18.926h-.051v-.856h-1.32V143Zm4.861.093c.726 0 1.196-.317 1.435-.774h.039V143h1.291v-3.311c0-1.17-.991-1.662-2.084-1.662-1.176 0-1.95.562-2.138 1.457l1.259.103c.093-.326.384-.566.873-.566.463 0 .728.233.728.636v.019c0 .317-.335.358-1.189.441-.971.09-1.844.416-1.844 1.512 0 .971.694 1.464 1.63 1.464Zm.39-.94c-.419 0-.719-.195-.719-.569 0-.383.316-.572.796-.639.297-.042.783-.112.946-.221v.521c0 .515-.425.908-1.023.908Zm5.568.943c1.307 0 2.129-.767 2.193-1.895h-1.285c-.08.524-.425.818-.892.818-.636 0-1.048-.534-1.048-1.474 0-.926.415-1.457 1.048-1.457.499 0 .818.329.892.818h1.285c-.058-1.134-.918-1.879-2.199-1.879-1.49 0-2.41 1.032-2.41 2.538 0 1.492.904 2.531 2.416 2.531Zm2.983-.096h1.362v-1.56l.367-.418 1.339 1.978h1.595l-1.914-2.784 1.822-2.125h-1.563l-1.573 1.863h-.073v-3.499h-1.362V143Zm9.242-3.509c-.121-.905-.85-1.464-2.09-1.464-1.256 0-2.084.582-2.081 1.528-.003.735.46 1.211 1.419 1.403l.85.169c.429.086.624.243.63.489-.006.291-.323.499-.799.499-.486 0-.809-.208-.892-.608l-1.339.071c.128.939.927 1.518 2.228 1.518 1.272 0 2.183-.649 2.186-1.617-.003-.71-.467-1.135-1.419-1.33l-.889-.179c-.457-.099-.626-.256-.623-.492-.003-.294.329-.486.751-.486.473 0 .754.259.822.575l1.246-.076ZM449.785 184l.486-1.493h2.362l.485 1.493h1.483l-2.256-6.545h-1.783l-2.26 6.545h1.483Zm.837-2.573.806-2.477h.051l.805 2.477h-1.662Zm6.022-3.972h-1.361V184h1.361v-6.545Zm2.371 0h-1.361V184h1.361v-6.545Zm3.247 6.641c1.215 0 2.033-.591 2.224-1.502l-1.259-.083c-.137.374-.489.569-.943.569-.68 0-1.112-.451-1.112-1.183v-.003h3.343v-.374c0-1.668-1.01-2.493-2.307-2.493-1.445 0-2.381 1.026-2.381 2.541 0 1.556.923 2.528 2.435 2.528Zm-1.09-3.046a1.038 1.038 0 0 1 1.058-1.007c.591 0 1 .422 1.004 1.007h-2.062Zm4.851 4.791c1.013 0 1.55-.518 1.828-1.31l1.908-5.434-1.442-.006-1.026 3.605h-.051l-1.016-3.605h-1.432l1.761 5.05-.08.207c-.179.461-.521.483-1 .336l-.307 1.016c.195.083.511.141.857.141ZM350.014 221h1.384v-2.122h1.163c1.505 0 2.381-.898 2.381-2.205 0-1.301-.86-2.218-2.346-2.218h-2.582V221Zm1.384-3.231v-2.183h.933c.799 0 1.185.435 1.185 1.087 0 .648-.386 1.096-1.179 1.096h-.939Zm4.336 3.231h1.362v-4.909h-1.362V221Zm.684-5.542c.406 0 .738-.31.738-.69 0-.377-.332-.687-.738-.687-.403 0-.735.31-.735.687 0 .38.332.69.735.69Zm1.687 7.383h1.362v-2.627h.041c.189.409.601.866 1.394.866 1.118 0 1.991-.885 1.991-2.528 0-1.688-.911-2.525-1.988-2.525-.821 0-1.214.489-1.397.888h-.06v-.824h-1.343v6.75Zm1.333-4.296c0-.875.371-1.435 1.032-1.435.675 0 1.033.585 1.033 1.435 0 .857-.365 1.451-1.033 1.451-.655 0-1.032-.575-1.032-1.451Zm6.519 2.551c1.214 0 2.033-.591 2.224-1.502l-1.259-.083c-.137.374-.489.569-.943.569-.68 0-1.112-.451-1.112-1.183v-.003h3.343v-.374c0-1.668-1.01-2.493-2.307-2.493-1.445 0-2.381 1.026-2.381 2.541 0 1.556.923 2.528 2.435 2.528Zm-1.09-3.046a1.038 1.038 0 0 1 1.058-1.007c.591 0 1 .422 1.003 1.007h-2.061ZM410.923 497h1.384v-2.122h1.163c1.505 0 2.381-.898 2.381-2.205 0-1.301-.86-2.218-2.346-2.218h-2.582V497Zm1.384-3.231v-2.183h.933c.799 0 1.186.435 1.186 1.087 0 .648-.387 1.096-1.18 1.096h-.939Zm5.604 3.324c.726 0 1.196-.317 1.435-.774h.039V497h1.291v-3.311c0-1.17-.991-1.662-2.084-1.662-1.176 0-1.949.562-2.138 1.457l1.259.103c.093-.326.384-.566.873-.566.463 0 .728.233.728.636v.019c0 .317-.335.358-1.188.441-.972.09-1.845.416-1.845 1.512 0 .971.694 1.464 1.63 1.464Zm.39-.94c-.418 0-.719-.195-.719-.569 0-.383.317-.572.796-.639.297-.042.783-.112.946-.221v.521c0 .515-.425.908-1.023.908Zm3.35.847h1.362v-2.777c0-.604.441-1.02 1.042-1.02.188 0 .447.032.575.074v-1.208a2.033 2.033 0 0 0-.428-.048c-.55 0-1.001.319-1.18.926h-.051v-.856h-1.32V497Zm6.459-4.909h-.924v-1.176h-1.361v1.176h-.671v1.023h.671v2.556c-.006.962.649 1.439 1.636 1.397.352-.013.601-.083.739-.128l-.215-1.013c-.067.013-.21.045-.338.045-.272 0-.461-.102-.461-.48v-2.377h.924v-1.023Zm1.647 6.75c1.013 0 1.55-.518 1.828-1.31l1.908-5.434-1.442-.006-1.026 3.605h-.051l-1.016-3.605h-1.432l1.761 5.05-.08.207c-.179.461-.521.483-1 .336l-.307 1.016c.195.083.511.141.857.141Zm46.9-71.841h1.384v-2.704h2.662v-1.141h-2.662v-1.559h2.95v-1.141h-4.334V427Zm7.016.096c1.489 0 2.416-1.02 2.416-2.531 0-1.522-.927-2.538-2.416-2.538-1.489 0-2.416 1.016-2.416 2.538 0 1.511.927 2.531 2.416 2.531Zm.006-1.055c-.687 0-1.038-.629-1.038-1.486 0-.856.351-1.489 1.038-1.489.675 0 1.026.633 1.026 1.489 0 .857-.351 1.486-1.026 1.486Zm6.362-1.131c.004.658-.447 1.003-.936 1.003-.515 0-.847-.361-.85-.939v-2.883h-1.362v3.126c.004 1.147.675 1.847 1.662 1.847.739 0 1.269-.38 1.49-.956h.051V427h1.307v-4.909h-1.362v2.819Zm3.731-.748c.004-.633.381-1.004.931-1.004.546 0 .875.358.872.959V427h1.362v-3.126c0-1.144-.672-1.847-1.694-1.847-.729 0-1.256.358-1.477.93h-.057v-.866h-1.298V427h1.361v-2.838Zm6.768-2.071h-.924v-1.176h-1.361v1.176h-.672v1.023h.672v2.556c-.007.962.648 1.439 1.636 1.397.352-.013.601-.083.738-.128l-.214-1.013c-.067.013-.211.045-.339.045-.271 0-.46-.102-.46-.48v-2.377h.924v-1.023Zm2.206 5.002c.725 0 1.195-.317 1.435-.774h.038V427h1.291v-3.311c0-1.17-.991-1.662-2.084-1.662-1.176 0-1.949.562-2.138 1.457l1.259.103c.093-.326.384-.566.873-.566.463 0 .729.233.729.636v.019c0 .317-.336.358-1.189.441-.972.09-1.844.416-1.844 1.512 0 .971.693 1.464 1.63 1.464Zm.389-.94c-.418 0-.719-.195-.719-.569 0-.383.317-.572.796-.639.297-.042.783-.112.946-.221v.521c0 .515-.425.908-1.023.908Zm3.35.847h1.362v-4.909h-1.362V427Zm.684-5.542c.406 0 .739-.31.739-.69 0-.377-.333-.687-.739-.687-.402 0-.735.31-.735.687 0 .38.333.69.735.69Zm3.049 2.704c.003-.633.38-1.004.93-1.004.547 0 .876.358.873.959V427h1.361v-3.126c0-1.144-.671-1.847-1.694-1.847-.729 0-1.256.358-1.476.93h-.058v-.866h-1.297V427h1.361v-2.838ZM332.191 499.5h1.384v-2.122h1.163c1.505 0 2.381-.898 2.381-2.205 0-1.301-.86-2.218-2.346-2.218h-2.582v6.545Zm1.384-3.231v-2.183h.933c.799 0 1.186.435 1.186 1.087 0 .648-.387 1.096-1.18 1.096h-.939Zm5.604 3.324c.726 0 1.196-.317 1.435-.774h.039v.681h1.291v-3.311c0-1.17-.991-1.662-2.084-1.662-1.176 0-1.949.562-2.138 1.457l1.259.103c.093-.326.384-.566.873-.566.463 0 .728.233.728.636v.019c0 .317-.335.358-1.189.441-.971.09-1.844.416-1.844 1.512 0 .971.694 1.464 1.63 1.464Zm.39-.94c-.418 0-.719-.195-.719-.569 0-.383.317-.572.796-.639.297-.042.783-.112.946-.221v.521c0 .515-.425.908-1.023.908Zm3.35.847h1.362v-2.777c0-.604.441-1.02 1.042-1.02.188 0 .447.032.575.074v-1.208a2.033 2.033 0 0 0-.428-.048c-.55 0-1.001.319-1.18.926h-.051v-.856h-1.32v4.909Zm3.602 0h1.361v-1.56l.368-.418 1.339 1.978h1.595l-1.915-2.784 1.822-2.125h-1.563l-1.572 1.863h-.074v-3.499h-1.361v6.545Zm12.96-4.254c-.182-1.512-1.326-2.381-2.841-2.381-1.729 0-3.049 1.221-3.049 3.362 0 2.135 1.297 3.362 3.049 3.362 1.678 0 2.691-1.115 2.841-2.32l-1.4-.006c-.131.7-.681 1.102-1.419 1.102-.994 0-1.668-.738-1.668-2.138 0-1.361.664-2.138 1.678-2.138.757 0 1.304.438 1.409 1.157h1.4Zm3.104 4.35c1.489 0 2.416-1.02 2.416-2.531 0-1.522-.927-2.538-2.416-2.538-1.49 0-2.416 1.016-2.416 2.538 0 1.511.926 2.531 2.416 2.531Zm.006-1.055c-.687 0-1.039-.629-1.039-1.486 0-.856.352-1.489 1.039-1.489.674 0 1.026.633 1.026 1.489 0 .857-.352 1.486-1.026 1.486Zm4.576-1.879c.003-.633.38-1.004.93-1.004.546 0 .875.358.872.959v2.883h1.362v-3.126c0-1.144-.671-1.847-1.694-1.847-.729 0-1.256.358-1.477.93h-.057v-.866h-1.298v4.909h1.362v-2.838Zm5.517 0c.004-.633.381-1.004.93-1.004.547 0 .876.358.873.959v2.883h1.361v-3.126c0-1.144-.671-1.847-1.693-1.847-.729 0-1.257.358-1.477.93h-.058v-.866h-1.297v4.909h1.361v-2.838ZM282.306 424.5h2.797c1.47 0 2.253-.767 2.253-1.809 0-.968-.694-1.553-1.438-1.588v-.064c.68-.154 1.182-.636 1.182-1.407 0-.981-.729-1.677-2.173-1.677h-2.621v6.545Zm1.384-1.131v-1.739h1.16c.665 0 1.077.383 1.077.924 0 .492-.335.815-1.109.815h-1.128Zm0-2.675v-1.621h1.051c.614 0 .962.317.962.79 0 .517-.421.831-.987.831h-1.026Zm5.859 3.899c.726 0 1.196-.317 1.436-.774h.038v.681h1.291v-3.311c0-1.17-.991-1.662-2.084-1.662-1.176 0-1.949.562-2.138 1.457l1.259.103c.093-.326.384-.566.873-.566.463 0 .729.233.729.636v.019c0 .317-.336.358-1.189.441-.972.09-1.844.416-1.844 1.512 0 .971.693 1.464 1.629 1.464Zm.39-.94c-.418 0-.719-.195-.719-.569 0-.383.317-.572.796-.639.297-.042.783-.112.946-.221v.521c0 .515-.425.908-1.023.908Zm5.961-4.062h-.923v-1.176h-1.362v1.176h-.671v1.023h.671v2.556c-.006.962.649 1.439 1.637 1.397.351-.013.601-.083.738-.128l-.214-1.013c-.067.013-.211.045-.339.045-.272 0-.46-.102-.46-.48v-2.377h.923v-1.023Zm2.273 2.071c.004-.633.39-1.004.946-1.004.553 0 .879.355.876.959v2.883h1.362v-3.126c.003-1.15-.675-1.847-1.697-1.847-.745 0-1.244.352-1.467.93h-.058v-2.502h-1.323v6.545h1.361v-2.838Zm4.174 2.838h1.362v-2.777c0-.604.441-1.02 1.041-1.02.189 0 .448.032.576.074v-1.208a2.035 2.035 0 0 0-.429-.048c-.549 0-1 .319-1.179.926h-.051v-.856h-1.32v4.909Zm5.591.096c1.49 0 2.416-1.02 2.416-2.531 0-1.522-.926-2.538-2.416-2.538-1.489 0-2.416 1.016-2.416 2.538 0 1.511.927 2.531 2.416 2.531Zm.007-1.055c-.688 0-1.039-.629-1.039-1.486 0-.856.351-1.489 1.039-1.489.674 0 1.026.633 1.026 1.489 0 .857-.352 1.486-1.026 1.486Zm5.432 1.055c1.489 0 2.416-1.02 2.416-2.531 0-1.522-.927-2.538-2.416-2.538-1.49 0-2.416 1.016-2.416 2.538 0 1.511.926 2.531 2.416 2.531Zm.006-1.055c-.687 0-1.039-.629-1.039-1.486 0-.856.352-1.489 1.039-1.489.674 0 1.026.633 1.026 1.489 0 .857-.352 1.486-1.026 1.486Zm3.214.959h1.362v-2.947c0-.543.345-.904.799-.904.447 0 .748.307.748.789v3.062h1.32v-2.998c0-.508.29-.853.786-.853.434 0 .76.271.76.818v3.033h1.359v-3.301c0-1.065-.633-1.672-1.547-1.672-.719 0-1.279.368-1.48.93h-.051c-.157-.569-.658-.93-1.333-.93-.661 0-1.163.352-1.368.93h-.057v-.866h-1.298v4.909Zm-45.266-40 .486-1.493h2.362l.485 1.493h1.483l-2.256-6.545h-1.783l-2.26 6.545h1.483Zm.837-2.573.806-2.477h.051l.805 2.477h-1.662Zm-7.116 9.91h1.326c-.019-1.167-.978-1.972-2.435-1.972-1.435 0-2.487.793-2.48 1.982-.004.965.677 1.518 1.783 1.783l.713.179c.712.173 1.109.377 1.112.818-.003.48-.457.806-1.16.806-.719 0-1.237-.333-1.282-.988h-1.339c.035 1.416 1.048 2.148 2.637 2.148 1.598 0 2.537-.764 2.541-1.963-.004-1.09-.825-1.668-1.963-1.924l-.588-.14c-.569-.131-1.045-.342-1.035-.812 0-.422.374-.732 1.051-.732.662 0 1.068.3 1.119.815Zm3.601 1.825c.004-.633.39-1.004.946-1.004.553 0 .879.355.876.959v2.883h1.362v-3.126c.003-1.15-.675-1.847-1.698-1.847-.744 0-1.243.352-1.467.93h-.057v-2.502h-1.323v6.545h1.361v-2.838Zm6.392 2.934c1.489 0 2.416-1.02 2.416-2.531 0-1.522-.927-2.538-2.416-2.538-1.489 0-2.416 1.016-2.416 2.538 0 1.511.927 2.531 2.416 2.531Zm.006-1.055c-.687 0-1.038-.629-1.038-1.486 0-.856.351-1.489 1.038-1.489.675 0 1.026.633 1.026 1.489 0 .857-.351 1.486-1.026 1.486Zm3.215.959h1.361v-2.777c0-.604.441-1.02 1.042-1.02.189 0 .447.032.575.074v-1.208a2.025 2.025 0 0 0-.428-.048c-.55 0-1 .319-1.179.926h-.051v-.856h-1.32v4.909Zm6.458-4.909h-.923v-1.176h-1.362v1.176h-.671v1.023h.671v2.556c-.006.962.649 1.439 1.637 1.397.351-.013.6-.083.738-.128l-.214-1.013c-.067.013-.211.045-.339.045-.272 0-.46-.102-.46-.48v-2.377h.923v-1.023ZM172.738 435l.486-1.493h2.362l.486 1.493h1.483l-2.257-6.545h-1.783L171.256 435h1.482Zm.838-2.573.805-2.477h.051l.806 2.477h-1.662Zm6.688-3.972V435h1.342v-4.276h.054l1.694 4.244h.914l1.694-4.228h.055V435h1.342v-6.545h-1.707l-1.802 4.397h-.077l-1.803-4.397h-1.706Zm9.528 6.638c.726 0 1.196-.317 1.435-.774h.039V435h1.291v-3.311c0-1.17-.991-1.662-2.084-1.662-1.176 0-1.949.562-2.138 1.457l1.259.103c.093-.326.384-.566.873-.566.463 0 .728.233.728.636v.019c0 .317-.335.358-1.189.441-.971.09-1.844.416-1.844 1.512 0 .971.694 1.464 1.63 1.464Zm.39-.94c-.418 0-.719-.195-.719-.569 0-.383.317-.572.796-.639.297-.042.783-.112.946-.221v.521c0 .515-.425.908-1.023.908Zm3.35.847h1.362v-4.909h-1.362V435Zm.684-5.542c.406 0 .738-.31.738-.69 0-.377-.332-.687-.738-.687-.403 0-.735.31-.735.687 0 .38.332.69.735.69Zm3.049 2.704c.003-.633.38-1.004.93-1.004.546 0 .876.358.872.959V435h1.362v-3.126c0-1.144-.671-1.847-1.694-1.847-.729 0-1.256.358-1.477.93h-.057v-.866h-1.298V435h1.362v-2.838Zm85.199-93.707v4.563c-.003.63-.285.962-.796.962-.483 0-.796-.3-.805-.821h-1.378c-.006 1.307.927 1.93 2.113 1.93 1.326 0 2.231-.802 2.234-2.071v-4.563h-1.368Zm5.553 4.455c.004.658-.447 1.003-.936 1.003-.514 0-.847-.361-.85-.939v-2.883h-1.362v3.126c.004 1.147.675 1.847 1.662 1.847.739 0 1.269-.38 1.49-.956h.051V345h1.307v-4.909h-1.362v2.819Zm3.732-.748c.003-.633.38-1.004.93-1.004.546 0 .875.358.872.959V345h1.362v-3.126c0-1.144-.672-1.847-1.694-1.847-.729 0-1.256.358-1.477.93h-.057v-.866h-1.298V345h1.362v-2.838Zm6.367 4.781c1.403 0 2.401-.639 2.401-1.895v-4.957h-1.352v.824h-.052c-.182-.399-.581-.888-1.403-.888-1.077 0-1.987.837-1.987 2.509 0 1.633.885 2.394 1.991 2.394.783 0 1.221-.393 1.399-.799h.058v.898c0 .674-.431.936-1.023.936-.601 0-.904-.262-1.016-.559l-1.259.169c.163.774.92 1.368 2.243 1.368Zm.029-3.036c-.668 0-1.032-.531-1.032-1.378 0-.834.358-1.419 1.032-1.419.662 0 1.032.56 1.032 1.419 0 .867-.377 1.378-1.032 1.378Zm4.735-5.452h-1.361V345h1.361v-6.545Zm3.247 6.641c1.215 0 2.033-.591 2.225-1.502l-1.259-.083c-.138.374-.489.569-.943.569-.681 0-1.112-.451-1.112-1.183v-.003h3.343v-.374c0-1.668-1.01-2.493-2.308-2.493-1.445 0-2.381 1.026-2.381 2.541 0 1.556.924 2.528 2.435 2.528Zm-1.089-3.046a1.036 1.036 0 0 1 1.057-1.007c.592 0 1.001.422 1.004 1.007h-2.061ZM256.96 313h2.797c1.47 0 2.253-.767 2.253-1.809 0-.968-.693-1.553-1.438-1.588v-.064c.681-.154 1.182-.636 1.182-1.407 0-.981-.728-1.677-2.173-1.677h-2.621V313Zm1.384-1.131v-1.739h1.16c.665 0 1.077.383 1.077.924 0 .492-.335.815-1.109.815h-1.128Zm0-2.675v-1.621h1.052c.613 0 .962.317.962.79 0 .517-.422.831-.988.831h-1.026Zm6.678 3.902c1.489 0 2.416-1.02 2.416-2.531 0-1.522-.927-2.538-2.416-2.538-1.489 0-2.416 1.016-2.416 2.538 0 1.511.927 2.531 2.416 2.531Zm.006-1.055c-.687 0-1.038-.629-1.038-1.486 0-.856.351-1.489 1.038-1.489.675 0 1.026.633 1.026 1.489 0 .857-.351 1.486-1.026 1.486Zm5.433 1.055c1.489 0 2.416-1.02 2.416-2.531 0-1.522-.927-2.538-2.416-2.538-1.49 0-2.417 1.016-2.417 2.538 0 1.511.927 2.531 2.417 2.531Zm.006-1.055c-.687 0-1.039-.629-1.039-1.486 0-.856.352-1.489 1.039-1.489.674 0 1.026.633 1.026 1.489 0 .857-.352 1.486-1.026 1.486Zm7.299-2.55c-.122-.905-.851-1.464-2.091-1.464-1.256 0-2.083.582-2.08 1.528-.003.735.46 1.211 1.419 1.403l.85.169c.428.086.623.243.63.489-.007.291-.323.499-.799.499-.486 0-.809-.208-.892-.608l-1.339.071c.128.939.927 1.518 2.227 1.518 1.272 0 2.183-.649 2.186-1.617-.003-.71-.466-1.135-1.419-1.33l-.888-.179c-.457-.099-.626-.256-.623-.492-.003-.294.329-.486.751-.486.473 0 .754.259.821.575l1.247-.076Zm3.499-1.4h-.924v-1.176h-1.361v1.176h-.671v1.023h.671v2.556c-.007.962.649 1.439 1.636 1.397.352-.013.601-.083.738-.128l-.214-1.013c-.067.013-.211.045-.338.045-.272 0-.461-.102-.461-.48v-2.377h.924v-1.023Z"/></g></svg>