<svg xmlns="http://www.w3.org/2000/svg" width="708" height="708" fill="none"><g fill="#181B21"><path fill-opacity=".5" d="M384.092 143.16c21.721 6.808 65.356 20.471 66.135 20.664h42.792v-27.716h-16.047l-92.88-39.389V64.868h-61.271v-6.079h-34.04v73.915h34.04v7.051l9.969 3.405 10.941 12.399h40.361V143.16Z"/><path fill-rule="evenodd" d="M700.999 322.498c-5.333-.666-17-2-21-2-5 0-8.5 0-10.5.5-1.438.36-3.911.202-5.745.085-.715-.045-1.334-.085-1.755-.085-1.5 0-10 1-14 2s-16.675 3.605-19.781 4.123c-1.296.215-3.161.732-5.071 1.26-2.671.739-5.43 1.502-6.839 1.502-.265 0-.586-.002-.95-.004-2.954-.02-8.732-.058-10.268.864-.422.254-.823.538-1.229.825-1.255.888-2.553 1.807-4.64 1.938-.822.051-2.64.179-4.833.334-5.17.364-12.423.875-13.635.875-1.225 0-7.667.522-12.167.887-1.84.149-3.356.272-4.057.322a80.41 80.41 0 0 0-4.833.517v3.971h-24.163v-7.423l-9.32-2.762v-4.315l12.254-2.244-14.757-30.031v-7.25l14.757-13.117v-9.148l-15.965-29.341V210.1h5.523l7.422 14.498h4.832v24.681h47.292v-70.247h-34.174v20.884h5.35v27.098h-7.594v-32.489c.008-10.286.019-24.144-13.635-39.484h-44.057v-18.955h-15l-2.609-9.565v-3.479h2.609V93.259l-113.673-3.385v-17.79h-29.09l-6.732 81.019-.427-.034-.001.006-11.238-.737.008-.186-.122-.01.433-6.642.602-12.875h.238l.17-2.601H290.5v1.714h-59.221v12.827h-8.261v-16.958h-51.306v16.958h-6.522c-24.856 22.029-75.22 66.61-77.828 68.697-3.261 2.609-11.957 7.174-16.74 9.131-2.957 4.87-15.435 36.523-21.305 51.741l-1.522 8.913v53.045H13.881c-.362 5.58-1.217 17.957-1.74 22.827-.651 6.087-2.173 29.13-1.956 32.609.156 2.498.088 10.717.037 16.841-.02 2.402-.037 4.482-.037 5.768 0 4.565.218 10.873 1.957 11.525 1.739.652 6.087 4.129 6.74 5.651.137.321.372.779.66 1.341 1.08 2.101 2.91 5.666 3.252 9.096.435 4.348 1.087 15.435 1.087 17.174 0 .606-.132 1.053-.258 1.481-.235.798-.45 1.525.258 3.082.87 1.914 9.493 19.205 13.697 27.611 2.97-.58 9.304-1.698 10.87-1.524.9.1 1.707.844 2.571 1.639 1.015.934 2.107 1.939 3.516 2.057 2.087.173 9.565 1.379 13.044 1.96 1.231-1.667 4.13-5.262 5.87-6.306.408-.245.862-.597 1.377-.997 2.226-1.726 5.581-4.329 11.231-2.916 5.566 1.391 33.335 10.145 46.523 14.348v4.566c16.233 3.261 56.524 5.783 87.829-10.218.522-10.437 1.377-29.713 1.739-38.047h-10.652v-36.305h33.479v23.913h43.697v14.131l-23.696 77.394h4.348l31.523 43.483 9.13-7.394 27.392 27.392 9.349-10.653 23.913 18.696v10.218h-4.348v12.611h4.348v8.042h41.741v-10.653h12.174v3.478h54.784v17.827h48.263v-47.825h52.393v-66.306l8.478-8.478v-65.003h-2.391v-87.176h46.306v24.131h68.62v-74.685Zm-610.61 2.092h76.705v38.921h-21.349c2.331 7.936 7.331 25.317 8.691 31.363 1.367 6.075 4.199 8.487 6.533 10.476.569.485 1.109.945 1.591 1.427 2.456 2.456 5.857 9.446 5.857 14.736v29.851h8.88v4.723l-13.414 2.456h-34.197v-3.024h-20.971v-54.224c0-2.34-.329-5.009-.662-7.712-.285-2.315-.573-4.656-.66-6.835-.181-4.52-5.727-7.83-8.687-9.596l-.007-.004-.189-.113-.186-.111c-2.834-1.701-4.723-5.291-5.668-7.936-.175-.49-.363-.974-.553-1.463-.837-2.151-1.714-4.408-1.714-7.794V324.59Zm57.435-29.755h62.913v11.714h10.958v63.102h-9.824v12.847h33.063v-25.885h24.183v8.125h21.16v-19.082h-18.326v-39.107h71.227v3.399h4.156l1.134-4.508v-72.387h-25.506v-17.571h-82.751v14.359h-31.174V210.57h-46.666v20.216c-2.015.819-6.31 2.683-7.368 3.59-1.323 1.133-2.456 7.179-2.645 9.257h-4.534v13.792h11.146v29.284h-11.146v8.126Zm38.31-150.527h3.498v-3.598h-3.498v3.598Zm18.488 0v-3.898h4.497v3.898h-4.497Zm156.661 24.172 1.522-13.044 1.999-21.511c22.033 1.419 67.48 4.369 73.003 4.823 6.393.526 6.352 4.7 6.311 8.919-.003.337-.006.674-.006 1.01v40.021h-6.305v10h12.392v29.349h-29.131v40.871h38.696v35.653h-30.01c-2.396 0-7.82 0-10.208 1.737-1.961 1.426-8.744 1.245-12.921 1.134l-.005-.001c-.916-.024-1.706-.045-2.292-.045-2.609 0-26.885-1.304-38.697-1.956v-90.437c0-8.696-1.087-39.567-1.956-42.176-.696-2.087-1.884-3.768-2.392-4.347Zm-73.417 218.374h6.567v-6.732h-6.567v6.732Zm0 35.794v-7.389h6.567v7.389h-6.567Zm40.373 35.51h38.172v-78.036h92.907v9.579h3.786v-5.206h17.193v28.708h48.583v-16.72h-3.47v-2.366h-6.31v6.468h-20.506v-26.816h-31.862v-27.13c-9.938-.789-30.791-2.366-34.703-2.366h-39.434v3.154h-44.797v-2.05h-39.907v20.032h20.348v92.749Zm92.389-39.331h-19.022v44.922h14.193v19.9h-16.535l-43.166 11.706h-38.337v33.07c.927 1.024 3.57 3.599 6.731 5.706 2.351 1.568 11.387 5.985 18.935 9.675l.001.001c5.136 2.511 9.583 4.685 10.768 5.396 2.341 1.405 22.632 18.242 32.484 26.485v12.876h25.754v1.17h11.706v-46.676h53.701v-7.464h-46.97c-2.975-20.827-9.043-63.885-9.511-69.504-.469-5.619-.683-33.85-.732-47.263Zm107.989 162.055h4.389v-7.462h-4.389v7.462Zm27.07 0h-8.341v-45.361h8.341v45.361Zm-27.07-17.998h4.389v-27.363h-36.727v7.463h23.265v12.291l9.073 2.927v4.682Zm-65.655-149.681h-3.281v6.84c-8.288 3.971-8.115 11.741-7.597 16.058.145 1.21.439 4.047.811 7.626.953 9.192 2.414 23.275 3.16 27.252.903 4.818 5.484 3.465 8.473 2.582.438-.13.843-.249 1.196-.337 2.21-.553 27.051-9.9 39.195-14.504 2.993-.058 9.496-.138 11.568 0 2.072.138 3.741 1.209 4.317 1.727h12.202v-5.871h-70.044v-41.373Zm17.335 22.898h67.961v24.346h11.223v-99.8h-25.037v2.244H519.1v18.993h6.31v-6.733h20.948v55.252h-66.061v5.698Z" clip-rule="evenodd"/></g><mask id="a" width="691" height="576" x="10" y="72" maskUnits="userSpaceOnUse" style="mask-type:alpha"><path fill="#181B21" fill-rule="evenodd" d="M700.999 322.498c-5.333-.666-17-2-21-2-5 0-8.5 0-10.5.5-1.438.36-3.911.202-5.745.085-.715-.045-1.334-.085-1.755-.085-1.5 0-10 1-14 2s-16.675 3.605-19.781 4.123c-1.296.215-3.161.732-5.071 1.26-2.671.739-5.43 1.502-6.839 1.502-.265 0-.586-.002-.95-.004-2.954-.02-8.732-.058-10.268.864-.422.254-.823.538-1.229.825-1.255.888-2.553 1.807-4.64 1.938-.822.051-2.64.179-4.833.334-5.17.364-12.423.875-13.635.875-1.225 0-7.667.522-12.167.887-1.84.149-3.356.272-4.057.322a80.41 80.41 0 0 0-4.833.517v3.971h-24.163v-7.423l-9.32-2.762v-4.315l12.254-2.244-14.757-30.031v-7.25l14.757-13.117v-9.148l-15.965-29.341V210.1h5.523l7.422 14.498h4.832v24.681h47.292v-70.247h-34.174v20.884h5.35v27.098h-7.594v-32.489c.008-10.286.019-24.144-13.635-39.484h-44.057v-18.955h-15l-2.609-9.565v-3.479h2.609V93.259l-113.673-3.385v-17.79h-29.09l-6.732 81.019-.427-.034-.001.006-11.238-.737.008-.186-.122-.01.433-6.642.602-12.875h.238l.17-2.601H290.5v1.714h-59.221v12.827h-8.261v-16.958h-51.306v16.958h-6.522c-24.856 22.029-75.22 66.61-77.828 68.697-3.261 2.609-11.957 7.174-16.74 9.131-2.957 4.87-15.435 36.523-21.305 51.741l-1.522 8.913v53.045H13.881c-.362 5.58-1.217 17.957-1.74 22.827-.651 6.087-2.173 29.13-1.956 32.609.156 2.498.088 10.717.037 16.841-.02 2.402-.037 4.482-.037 5.768 0 4.565.218 10.873 1.957 11.525 1.739.652 6.087 4.129 6.74 5.651.137.321.372.779.66 1.341 1.08 2.101 2.91 5.666 3.252 9.096.435 4.348 1.087 15.435 1.087 17.174 0 .606-.132 1.053-.258 1.481-.235.798-.45 1.525.258 3.082.87 1.914 9.493 19.205 13.697 27.611 2.97-.58 9.304-1.698 10.87-1.524.9.1 1.707.844 2.571 1.639 1.015.934 2.107 1.939 3.516 2.057 2.087.173 9.565 1.379 13.044 1.96 1.231-1.667 4.13-5.262 5.87-6.306.408-.245.862-.597 1.377-.997 2.226-1.726 5.581-4.329 11.231-2.916 5.566 1.391 33.335 10.145 46.523 14.348v4.566c16.233 3.261 56.524 5.783 87.829-10.218.522-10.437 1.377-29.713 1.739-38.047h-10.652v-36.305h33.479v23.913h43.697v14.131l-23.696 77.394h4.348l31.523 43.483 9.13-7.394 27.392 27.392 9.349-10.653 23.913 18.696v10.218h-4.348v12.611h4.348v8.042h41.741v-10.653h12.174v3.478h54.784v17.827h48.263v-47.825h52.393v-66.306l8.478-8.478v-65.003h-2.391v-87.176h46.306v24.131h68.62v-74.685Zm-610.61 2.092h76.705v38.921h-21.349c2.331 7.936 7.331 25.317 8.691 31.363 1.367 6.075 4.199 8.487 6.533 10.476.569.485 1.109.945 1.591 1.427 2.456 2.456 5.857 9.446 5.857 14.736v29.851h8.88v4.723l-13.414 2.456h-34.197v-3.024h-20.971v-54.224c0-2.34-.329-5.009-.662-7.712-.285-2.315-.573-4.656-.66-6.835-.181-4.52-5.727-7.83-8.687-9.596l-.007-.004-.189-.113-.186-.111c-2.834-1.701-4.723-5.291-5.668-7.936-.175-.49-.363-.974-.553-1.463-.837-2.151-1.714-4.408-1.714-7.794V324.59Zm57.435-29.755h62.913v11.714h10.958v63.102h-9.824v12.847h33.063v-25.885h24.183v8.125h21.16v-19.082h-18.326v-39.107h71.227v3.399h4.156l1.134-4.508v-72.387h-25.506v-17.571h-82.751v14.359h-31.174V210.57h-46.666v20.216c-2.015.819-6.31 2.683-7.368 3.59-1.323 1.133-2.456 7.179-2.645 9.257h-4.534v13.792h11.146v29.284h-11.146v8.126Zm38.31-150.527h3.498v-3.598h-3.498v3.598Zm18.488 0v-3.898h4.497v3.898h-4.497Zm156.661 24.172 1.522-13.044 1.999-21.511c22.033 1.419 67.48 4.369 73.003 4.823 6.393.526 6.352 4.7 6.311 8.919-.003.337-.006.674-.006 1.01v40.021h-6.305v10h12.392v29.349h-29.131v40.871h38.696v35.653h-30.01c-2.396 0-7.82 0-10.208 1.737-1.961 1.426-8.744 1.245-12.921 1.134l-.005-.001c-.916-.024-1.706-.045-2.292-.045-2.609 0-26.885-1.304-38.697-1.956v-90.437c0-8.696-1.087-39.567-1.956-42.176-.696-2.087-1.884-3.768-2.392-4.347Zm-73.417 218.374h6.567v-6.732h-6.567v6.732Zm0 35.794v-7.389h6.567v7.389h-6.567Zm40.373 35.51h38.172v-78.036h92.907v9.579h3.786v-5.206h17.193v28.708h48.583v-16.72h-3.47v-2.366h-6.31v6.468h-20.506v-26.816h-31.862v-27.13c-9.938-.789-30.791-2.366-34.703-2.366h-39.434v3.154h-44.797v-2.05h-39.907v20.032h20.348v92.749Zm92.389-39.331h-19.022v44.922h14.193v19.9h-16.535l-43.166 11.706h-38.337v33.07c.927 1.024 3.57 3.599 6.731 5.706 2.351 1.568 11.387 5.985 18.935 9.675l.001.001c5.136 2.511 9.583 4.685 10.768 5.396 2.341 1.405 22.632 18.242 32.484 26.485v12.876h25.754v1.17h11.706v-46.676h53.701v-7.464h-46.97c-2.975-20.827-9.043-63.885-9.511-69.504-.469-5.619-.683-33.85-.732-47.263Zm107.989 162.055h4.389v-7.462h-4.389v7.462Zm27.07 0h-8.341v-45.361h8.341v45.361Zm-27.07-17.998h4.389v-27.363h-36.727v7.463h23.265v12.291l9.073 2.927v4.682Zm-65.655-149.681h-3.281v6.84c-8.288 3.971-8.115 11.741-7.597 16.058.145 1.21.439 4.047.811 7.626.953 9.192 2.414 23.275 3.16 27.252.903 4.818 5.484 3.465 8.473 2.582.438-.13.843-.249 1.196-.337 2.21-.553 27.051-9.9 39.195-14.504 2.993-.058 9.496-.138 11.568 0 2.072.138 3.741 1.209 4.317 1.727h12.202v-5.871h-70.044v-41.373Zm17.335 22.898h67.961v24.346h11.223v-99.8h-25.037v2.244H519.1v18.993h6.31v-6.733h20.948v55.252h-66.061v5.698Z" clip-rule="evenodd"/></mask><g mask="url(#a)"><g fill="#272A30"><path d="M486.895 648.133v-8.523h12.307v8.523zM479.32 633.121v-12.172h8.114v12.172zM487.434 639.609v-10.195H499.2v10.195zM453.402 569.383v-10.316h12.094v10.316zM465.496 565.809v-5.949h5.289v5.949zM470.785 565.41v-4.758h4.761v4.758zM485.812 596.199v-12.172h12.172v12.172zM423.996 584.742l.639-12.51 7.719.393-.639 12.511zM499.199 555.199V544h13.533v11.199zM464.617 478.137v-4.746h4.606v4.746zM508.547 471.402v-10.43h11.298v10.43zM466.078 374.422v-27.906h13.523v27.906zM460.16 304.863V292.34h16.767v12.523zM464.719 292.34v-8.168h12.205v8.168zM444.52 184.863v-8.715h20.203v8.715zM338.613 232.824v-5.602h5.396v5.602zM316.535 345.457v-9.742h9.826v9.742zM317.902 457.695v-14.043h9.826v14.043zM236.363 389.098v-6.648h8.458v6.648zM301.398 176.516l-.595-11.75 11.583-.588.595 11.751zM215.262 168.422l-1.319-11.692 11.525-1.3 1.319 11.692zM197.031 210.723v-13.262h11.367v13.262z"/><path d="m185.727 211.277-1.383-13.19 11.305-1.185 1.383 13.19zM122.031 274.887l-2.077-4.848 10.448-4.476 2.077 4.847zM107.75 324.445l-.297-33.38 4.426-.039.297 33.38zM494.316 165.32v-10.828h17.528v10.828zM498.055 176.148V165.32h12.784v10.828zM529.375 171.637l7.512-7.798 9.207 8.869-7.512 7.798zM444.52 188.578v-3.715h7.82v3.715zM450.711 215.414v-6.984h10.051v6.984zM422.613 268.305v-17.766h12.205v17.766z"/><path d="M434.242 268.305v-8.883h15.484v8.883zM449.727 228.535l.319-13.121 19.293.469-.319 13.121zM510.238 270.082v-11.723h12.482v11.723z"/><path d="m505.961 281.785-.653-11.705 17.06-.951.653 11.704zM522.016 535.863v-10.797h8.479v10.797z"/><circle cx="429.727" cy="569.047" r="3.637" transform="rotate(-90 429.727 569.047)"/><circle cx="435.991" cy="530.158" r="4.553" transform="rotate(-90 435.991 530.158)"/><circle cx="317.465" cy="211.832" r="3.683" transform="rotate(-90 317.465 211.832)"/><circle cx="294.391" cy="166.148" r="4.223" transform="rotate(-90 294.391 166.148)"/><circle cx="308.465" cy="180.453" r="4.223" transform="rotate(-90 308.465 180.453)"/><circle cx="236.016" cy="135.23" r="4.223" transform="rotate(-90 236.016 135.23)"/><circle cx="166.336" cy="147.461" r="3.301" transform="rotate(-90 166.336 147.461)"/><circle cx="467.701" cy="480.568" r="3.084" transform="rotate(-90 467.701 480.568)"/><circle cx="523.17" cy="464.057" r="3.084" transform="rotate(-90 523.17 464.057)"/><circle cx="422.453" cy="621.941" r="3.637" transform="rotate(-90 422.453 621.941)"/><circle cx="429.728" cy="623.658" r="4.166" transform="rotate(-90 429.728 623.658)"/><circle cx="483.377" cy="643.869" r="4.166" transform="rotate(-90 483.377 643.869)"/><circle cx="484.041" cy="636.596" r="4.166" transform="rotate(-90 484.041 636.596)"/></g><path fill="#13161C" d="M510.691 586.109v62.723h17.828V580.95h19.808V460.327l2.641-27.071h-23.44v-26.081h-39.286v-22.119l-19.148-3.962-9.573 5.943v25.75l.99 44.568h71.309v78.572h-23.109v-14.525h-43.578v14.525h33.674v6.933h-45.229v16.507h43.908l13.205 26.742Z"/><path fill="url(#b)" d="M495.145 430.621h18.059v33.234h-18.059z" transform="rotate(-90 495.145 430.621)"/></g><path stroke="#999CA2" stroke-opacity=".25" stroke-width="1.6" d="M454.375 560.75v67.5a2 2 0 0 0 2 2h40.749a2 2 0 0 0 2-2v-67.5a2 2 0 0 0-2-2h-40.749a2 2 0 0 0-2 2Z"/><mask id="c" width="46" height="73" x="454" y="558" maskUnits="userSpaceOnUse" style="mask-type:alpha"><path fill="#D9D9D9" d="M454.375 560.75v67.5a2 2 0 0 0 2 2h40.749a2 2 0 0 0 2-2v-67.5a2 2 0 0 0-2-2h-40.749a2 2 0 0 0-2 2Z"/></mask><g fill="#999CA2" fill-opacity=".15" mask="url(#c)"><path d="m549.535 593.272-88.596-88.665 1.798-1.8 88.597 88.665zM553.133 604.085l-88.596-88.665 1.798-1.8 88.597 88.665zM549.531 607.686l-88.596-88.665 1.798-1.8 88.597 88.665zM545.934 611.286l-88.596-88.665 1.798-1.8 88.597 88.665zM542.336 614.886l-88.596-88.665 1.798-1.8 88.597 88.665zM538.738 618.488l-88.596-88.665 1.798-1.8 88.597 88.665zM535.141 622.087l-88.596-88.665 1.798-1.8 88.597 88.665zM531.543 625.689l-88.596-88.665 1.798-1.8 88.597 88.665zM527.945 629.289l-88.596-88.665 1.798-1.8 88.597 88.665zM524.348 632.891l-88.596-88.665 1.798-1.8 88.597 88.665zM520.75 636.49l-88.596-88.665 1.798-1.8 88.597 88.665zM517.152 640.092l-88.596-88.665 1.798-1.8 88.597 88.665zM513.555 643.693l-88.596-88.665 1.798-1.8 88.597 88.665zM509.957 647.293l-88.596-88.665 1.798-1.8 88.597 88.665zM506.359 650.893l-88.596-88.665 1.798-1.8 88.597 88.665zM502.762 654.494l-88.596-88.665 1.798-1.8 88.597 88.665zM499.164 658.095l-88.596-88.665 1.798-1.8 88.597 88.665zM495.566 661.694l-88.596-88.665 1.798-1.8 88.597 88.665zM491.969 665.296l-88.596-88.665 1.798-1.8 88.597 88.665zM488.367 668.896l-88.596-88.665 1.798-1.8 88.597 88.665zM484.773 672.496l-88.596-88.665 1.798-1.8 88.597 88.665zM481.176 676.099l-88.596-88.665 1.798-1.8 88.597 88.665z"/></g><path fill="#E3E5EA" d="M469.183 603.82v-11.636h4.659c.856 0 1.57.127 2.142.381.572.253 1.002.606 1.29 1.056.288.447.432.963.432 1.546 0 .454-.091.854-.273 1.199a2.36 2.36 0 0 1-.75.841 3.07 3.07 0 0 1-1.079.46v.114c.443.018.858.143 1.244.375.39.231.706.554.949.971.242.413.364.905.364 1.477 0 .618-.154 1.169-.461 1.654-.303.481-.752.862-1.346 1.142-.595.28-1.328.42-2.199.42h-4.972Zm2.46-2.011h2.006c.686 0 1.186-.131 1.5-.392.315-.265.472-.618.472-1.057 0-.322-.078-.606-.233-.852a1.588 1.588 0 0 0-.665-.58c-.284-.14-.623-.21-1.017-.21h-2.063v3.091Zm0-4.756h1.824c.337 0 .637-.058.898-.176.265-.121.474-.292.625-.511.155-.22.233-.483.233-.79 0-.42-.15-.759-.449-1.017-.295-.258-.716-.386-1.261-.386h-1.87v2.88Z"/><path stroke="#999CA2" stroke-opacity=".25" stroke-width="1.6" d="M500.677 268.832h-77.415a2 2 0 0 1-2-2v-36.848a2 2 0 0 1 2-2h77.415a2 2 0 0 1 2 2v36.848a2 2 0 0 1-2 2Z"/><mask id="d" width="82" height="42" x="421" y="227" maskUnits="userSpaceOnUse" style="mask-type:alpha"><path fill="#D9D9D9" d="M500.677 268.832h-77.415a2 2 0 0 1-2-2v-36.848a2 2 0 0 1 2-2h77.415a2 2 0 0 1 2 2v36.848a2 2 0 0 1-2 2Z"/></mask><g fill="#999CA2" fill-opacity=".15" mask="url(#d)"><path d="m538.531 248.273-88.596-88.665 1.798-1.8 88.597 88.665zM542.129 259.086l-88.596-88.665 1.798-1.8 88.597 88.665zM538.531 262.685l-88.596-88.665 1.798-1.8 88.597 88.665zM534.934 266.286l-88.596-88.665 1.798-1.8 88.597 88.665zM531.336 269.887l-88.596-88.665 1.798-1.8 88.597 88.665zM527.738 273.488l-88.596-88.665 1.798-1.8 88.597 88.665zM524.141 277.088l-88.596-88.665 1.798-1.8 88.597 88.665zM520.543 280.689l-88.596-88.665 1.798-1.8 88.597 88.665zM516.945 284.289l-88.596-88.665 1.798-1.8 88.597 88.665zM513.348 287.89l-88.596-88.665 1.798-1.8 88.597 88.665zM509.75 291.491l-88.596-88.665 1.798-1.8 88.597 88.665zM506.152 295.091l-88.596-88.665 1.798-1.8 88.597 88.665zM502.555 298.692l-88.596-88.665 1.798-1.8 88.597 88.665zM498.957 302.293l-88.596-88.665 1.798-1.8 88.597 88.665zM495.359 305.893l-88.596-88.665 1.798-1.8 88.597 88.665zM491.762 309.494l-88.596-88.665 1.798-1.8 88.597 88.665zM488.164 313.095l-88.596-88.665 1.798-1.8 88.597 88.665zM484.566 316.695 395.97 228.03l1.798-1.8 88.597 88.665zM480.969 320.296l-88.596-88.665 1.798-1.8 88.597 88.665zM477.371 323.896l-88.596-88.665 1.798-1.8 88.597 88.665zM473.77 327.497l-88.596-88.665 1.798-1.8 88.597 88.665zM470.172 331.098l-88.596-88.665 1.798-1.8 88.597 88.665z"/></g><path fill="#E3E5EA" d="M464.103 253.729h-2.636l4.017-11.637h3.17l4.011 11.637h-2.636l-2.915-8.978h-.091l-2.92 8.978Zm-.165-4.574h6.227v1.92h-6.227v-1.92Z"/><path fill="#E44C4D" fill-opacity=".25" stroke="#E44C4D" stroke-width="1.5" d="M86.783 300.376H49.846a2 2 0 0 0-2 2v32.315a2 2 0 0 1-2 2H12.871a2 2 0 0 0-2 2v85.137a2 2 0 0 0 2 2h73.912a2 2 0 0 0 2-2V302.376a2 2 0 0 0-2-2Z"/><path fill="#30D9D4" fill-opacity=".25" stroke="#30D9D4" stroke-width="1.5" d="M600.988 333.177v37.661a2 2 0 0 0 2 2h27.693a2 2 0 0 1 2 2v20.432a2 2 0 0 0 2 2h64.008a2 2 0 0 0 2-2v-70.049a2 2 0 0 0-1.899-1.998l-30.784-1.554h-11.7c-.123 0-.246.011-.367.034l-33.492 6.238-15.516 2.311-4.377.973a2 2 0 0 0-1.566 1.952Z"/><path fill="#E44C4D" d="M50.918 368.294v-1.521h7.168v1.521h-2.672v7.206H53.59v-7.206h-2.672Z"/><path fill="#30D9D4" d="M664.368 355.828h-1.866a1.823 1.823 0 0 0-.209-.643 1.619 1.619 0 0 0-.405-.486 1.774 1.774 0 0 0-.571-.307 2.18 2.18 0 0 0-.694-.106c-.452 0-.846.112-1.181.336-.335.222-.595.546-.78.972-.184.423-.277.937-.277 1.542 0 .623.093 1.145.277 1.569.188.423.449.742.784.958.336.216.723.324 1.164.324.247 0 .476-.032.686-.098a1.8 1.8 0 0 0 .567-.285 1.66 1.66 0 0 0 .409-.465c.11-.182.187-.389.23-.622l1.866.009a3.484 3.484 0 0 1-1.133 2.152 3.656 3.656 0 0 1-1.151.69 4.217 4.217 0 0 1-1.504.251c-.778 0-1.475-.176-2.088-.528-.611-.352-1.094-.862-1.449-1.53-.352-.668-.528-1.476-.528-2.425 0-.951.179-1.761.537-2.429.357-.667.843-1.176 1.457-1.525.614-.352 1.304-.529 2.071-.529.506 0 .974.071 1.406.213.435.143.82.35 1.155.623.335.27.608.6.818.993.213.392.35.84.409 1.346Zm.883-1.534v-1.521h7.168v1.521h-2.672v7.206h-1.824v-7.206h-2.672Z"/><g fill="#7F838B" class="labels"><path d="M241.738 178.998h-1.482l2.259-6.545h1.783l2.257 6.545h-1.483l-1.64-5.05h-.051l-1.643 5.05Zm-.092-2.573h3.503v1.081h-3.503v-1.081Zm7.618-3.972h1.706l1.803 4.397h.077l1.802-4.397h1.707v6.545h-1.342v-4.26h-.055l-1.694 4.228h-.914l-1.694-4.244h-.054v4.276h-1.342v-6.545Zm9.528 6.638a2.04 2.04 0 0 1-.837-.163 1.353 1.353 0 0 1-.582-.489c-.14-.217-.211-.488-.211-.812 0-.273.05-.502.151-.687.1-.185.236-.335.409-.448a1.98 1.98 0 0 1 .588-.255 4.49 4.49 0 0 1 .696-.122c.286-.029.516-.057.691-.083a.97.97 0 0 0 .38-.121.266.266 0 0 0 .118-.237v-.019c0-.202-.064-.359-.191-.47-.126-.11-.305-.166-.537-.166-.245 0-.44.054-.585.163a.753.753 0 0 0-.288.403l-1.259-.102c.064-.299.19-.557.377-.774.188-.219.429-.388.726-.505a2.777 2.777 0 0 1 1.035-.179c.273 0 .534.032.783.096.252.064.474.163.668.297.196.135.351.307.464.518.112.209.169.459.169.751v3.311h-1.291v-.681h-.039a1.363 1.363 0 0 1-.792.678c-.186.064-.4.096-.643.096Zm.39-.94c.201 0 .377-.039.531-.118a.943.943 0 0 0 .361-.326.843.843 0 0 0 .131-.463v-.521a.743.743 0 0 1-.176.076 2.765 2.765 0 0 1-.246.061c-.092.017-.183.033-.275.048l-.249.035c-.16.024-.299.061-.419.112a.665.665 0 0 0-.278.208.504.504 0 0 0-.099.319c0 .186.067.327.201.425a.88.88 0 0 0 .518.144Zm3.35.847v-4.909h1.362v4.909h-1.362Zm.684-5.542a.742.742 0 0 1-.521-.201.65.65 0 0 1-.214-.489.64.64 0 0 1 .214-.483.735.735 0 0 1 .521-.204c.203 0 .375.068.518.204a.636.636 0 0 1 .217.483c0 .19-.072.353-.217.489a.73.73 0 0 1-.518.201Zm3.049 2.704v2.838h-1.362v-4.909h1.298v.866h.057a1.37 1.37 0 0 1 .547-.677c.256-.169.566-.253.93-.253.341 0 .638.075.892.224.253.149.45.362.591.639.141.275.211.603.211.984v3.126h-1.362v-2.883c.003-.3-.074-.534-.23-.703-.155-.17-.369-.255-.642-.255a.977.977 0 0 0-.486.118.83.83 0 0 0-.326.345 1.19 1.19 0 0 0-.118.54ZM398.436 114.498v-6.545h2.583c.494 0 .916.088 1.265.265.352.175.619.423.803.745.185.319.278.695.278 1.128 0 .435-.094.808-.281 1.122-.188.311-.46.549-.815.716-.354.166-.782.249-1.285.249h-1.729v-1.112h1.505c.264 0 .484-.037.658-.109a.778.778 0 0 0 .39-.326c.088-.145.131-.325.131-.54 0-.217-.043-.401-.131-.55a.804.804 0 0 0-.393-.339 1.626 1.626 0 0 0-.661-.118h-.934v5.414h-1.384Zm3.535-2.979 1.627 2.979h-1.528l-1.591-2.979h1.492Zm3.665 3.072a2.04 2.04 0 0 1-.837-.163 1.353 1.353 0 0 1-.582-.489c-.141-.217-.211-.488-.211-.812 0-.273.05-.502.15-.687.1-.185.237-.335.409-.448.173-.112.369-.198.588-.255.222-.058.454-.098.697-.122.286-.029.516-.057.691-.083a.976.976 0 0 0 .38-.121.266.266 0 0 0 .118-.237v-.019c0-.202-.064-.359-.192-.47-.125-.11-.304-.166-.537-.166-.245 0-.44.054-.584.163a.753.753 0 0 0-.288.403l-1.259-.102c.064-.299.189-.557.377-.774.187-.219.429-.388.725-.505a2.786 2.786 0 0 1 1.036-.179c.273 0 .534.032.783.096.251.064.474.163.668.297.196.135.35.307.463.518.113.209.17.459.17.751v3.311h-1.292v-.681h-.038a1.379 1.379 0 0 1-.316.406 1.462 1.462 0 0 1-.477.272 1.962 1.962 0 0 1-.642.096Zm.39-.94c.2 0 .377-.039.53-.118a.946.946 0 0 0 .362-.326.843.843 0 0 0 .131-.463v-.521a.762.762 0 0 1-.176.076 2.95 2.95 0 0 1-.246.061c-.092.017-.183.033-.275.048l-.249.035c-.16.024-.3.061-.419.112a.665.665 0 0 0-.278.208.504.504 0 0 0-.099.319c0 .186.067.327.201.425a.88.88 0 0 0 .518.144Zm3.35.847v-4.909h1.297v.866h.058a1.37 1.37 0 0 1 .511-.681c.239-.166.524-.249.857-.249.337 0 .623.084.86.253.236.166.394.392.473.677h.051c.1-.281.281-.506.543-.674.264-.171.576-.256.937-.256.458 0 .829.146 1.115.438.288.29.431.701.431 1.234v3.301h-1.358v-3.033c0-.273-.072-.477-.217-.613a.76.76 0 0 0-.544-.205c-.247 0-.44.079-.578.236-.139.156-.208.362-.208.617v2.998h-1.32v-3.062c0-.24-.069-.432-.207-.575a.714.714 0 0 0-.541-.214.75.75 0 0 0-.409.115.793.793 0 0 0-.284.316c-.07.135-.106.292-.106.473v2.947h-1.361Zm8.128 1.841v-6.75h1.342v.825h.061c.06-.132.146-.267.259-.403a1.35 1.35 0 0 1 .447-.345c.186-.094.416-.141.691-.141.358 0 .688.094.99.281.303.186.545.466.726.841.181.373.271.841.271 1.403 0 .548-.088 1.01-.265 1.387-.174.375-.413.66-.716.853-.3.192-.637.288-1.01.288-.264 0-.489-.044-.674-.131a1.404 1.404 0 0 1-.451-.329 1.684 1.684 0 0 1-.268-.406h-.042v2.627h-1.361Zm1.333-4.295c0 .292.04.546.121.763.081.218.198.387.352.509a.883.883 0 0 0 .559.179.872.872 0 0 0 .562-.183 1.13 1.13 0 0 0 .349-.511c.081-.219.121-.472.121-.757 0-.284-.039-.533-.118-.748a1.117 1.117 0 0 0-.348-.505.881.881 0 0 0-.566-.182.902.902 0 0 0-.563.175 1.111 1.111 0 0 0-.348.499 2.159 2.159 0 0 0-.121.761ZM339.272 266.15h-1.4a1.368 1.368 0 0 0-.157-.482 1.235 1.235 0 0 0-.303-.365 1.34 1.34 0 0 0-.429-.23 1.645 1.645 0 0 0-.521-.08c-.338 0-.634.084-.885.253a1.62 1.62 0 0 0-.585.728c-.138.318-.208.704-.208 1.157 0 .467.07.859.208 1.177a1.6 1.6 0 0 0 .588.719c.252.162.542.243.873.243.185 0 .357-.025.514-.074a1.234 1.234 0 0 0 .732-.562c.083-.137.141-.292.173-.467l1.4.006a2.608 2.608 0 0 1-.851 1.614c-.24.218-.528.39-.862.518a3.171 3.171 0 0 1-1.129.189 3.085 3.085 0 0 1-1.566-.397 2.806 2.806 0 0 1-1.086-1.147c-.265-.501-.397-1.107-.397-1.819 0-.713.135-1.321.403-1.821a2.808 2.808 0 0 1 1.093-1.144c.46-.265.978-.397 1.553-.397.38 0 .731.053 1.055.16.326.107.615.262.866.467.252.202.456.45.614.744.16.294.262.631.307 1.01Zm3.103 4.35c-.496 0-.925-.105-1.288-.316a2.168 2.168 0 0 1-.834-.889c-.196-.381-.294-.823-.294-1.326 0-.507.098-.95.294-1.33.196-.381.474-.677.834-.888.363-.213.792-.32 1.288-.32.497 0 .925.107 1.285.32.362.211.642.507.838.888.196.38.294.823.294 1.33 0 .503-.098.945-.294 1.326a2.164 2.164 0 0 1-.838.889c-.36.211-.788.316-1.285.316Zm.007-1.055a.852.852 0 0 0 .566-.191c.151-.13.265-.307.342-.531.078-.224.118-.478.118-.764 0-.285-.04-.54-.118-.764a1.197 1.197 0 0 0-.342-.53.84.84 0 0 0-.566-.195.865.865 0 0 0-.575.195c-.154.13-.27.307-.349.53a2.346 2.346 0 0 0-.115.764c0 .286.038.54.115.764.079.224.195.401.349.531a.878.878 0 0 0 .575.191Zm4.575-1.879v2.838h-1.361v-4.909h1.298v.866h.057a1.37 1.37 0 0 1 .547-.677c.255-.169.565-.253.93-.253.341 0 .638.075.891.224.254.149.451.362.592.639.14.275.211.603.211.984v3.126h-1.362v-2.883c.002-.3-.075-.534-.23-.703-.156-.17-.37-.255-.643-.255a.97.97 0 0 0-.485.118.824.824 0 0 0-.326.345 1.202 1.202 0 0 0-.119.54Zm5.518 0v2.838h-1.361v-4.909h1.297v.866h.058c.108-.285.291-.511.546-.677.256-.169.566-.253.93-.253.341 0 .638.075.892.224.253.149.451.362.591.639.141.275.211.603.211.984v3.126h-1.361v-2.883c.002-.3-.075-.534-.23-.703-.156-.17-.37-.255-.643-.255a.977.977 0 0 0-.486.118.83.83 0 0 0-.326.345 1.202 1.202 0 0 0-.118.54Zm6.393 2.934c-.505 0-.939-.102-1.304-.307a2.097 2.097 0 0 1-.837-.875c-.196-.38-.294-.828-.294-1.346 0-.505.098-.948.294-1.33.196-.381.472-.678.828-.891.358-.213.778-.32 1.259-.32.324 0 .625.052.905.157a2.014 2.014 0 0 1 1.227 1.243c.117.311.176.675.176 1.093v.374h-4.146v-.844h2.864c0-.196-.043-.369-.128-.521a.908.908 0 0 0-.355-.354 1.004 1.004 0 0 0-.521-.132c-.206 0-.389.048-.549.144a1.013 1.013 0 0 0-.371.381 1.074 1.074 0 0 0-.137.527v.802c0 .243.044.453.134.63.091.177.22.313.387.409.166.096.363.144.591.144a1.3 1.3 0 0 0 .415-.064.832.832 0 0 0 .528-.505l1.259.083a1.726 1.726 0 0 1-.393.793c-.196.223-.45.398-.761.524a2.881 2.881 0 0 1-1.071.185Zm5.279 0c-.503 0-.935-.106-1.297-.32a2.154 2.154 0 0 1-.831-.894c-.192-.382-.288-.821-.288-1.317 0-.503.097-.944.291-1.323.196-.382.474-.679.834-.892.36-.215.788-.323 1.285-.323.428 0 .803.078 1.125.233.322.156.576.374.764.656.187.281.29.611.31.99h-1.285a.988.988 0 0 0-.288-.591c-.153-.151-.355-.227-.604-.227a.914.914 0 0 0-.553.173 1.1 1.1 0 0 0-.364.495 2.13 2.13 0 0 0-.131.79c0 .313.042.579.128.799.087.219.21.386.367.501a.914.914 0 0 0 .553.173.898.898 0 0 0 .419-.096.803.803 0 0 0 .31-.278c.083-.124.137-.272.163-.444h1.285a2.024 2.024 0 0 1-.307.991 1.852 1.852 0 0 1-.751.664c-.32.16-.698.24-1.135.24Zm5.594-5.005v1.023h-2.956v-1.023h2.956Zm-2.285-1.176h1.362v4.577a.63.63 0 0 0 .057.294.323.323 0 0 0 .16.144c.07.027.151.041.243.041.064 0 .128-.005.192-.016l.147-.029.214 1.013a3.557 3.557 0 0 1-.288.074c-.123.03-.273.048-.45.054a2.068 2.068 0 0 1-.863-.131 1.2 1.2 0 0 1-.572-.466c-.137-.211-.204-.478-.202-.799v-4.756Zm5.257 6.181c-.497 0-.926-.105-1.288-.316a2.168 2.168 0 0 1-.834-.889c-.196-.381-.294-.823-.294-1.326 0-.507.098-.95.294-1.33.196-.381.474-.677.834-.888.362-.213.791-.32 1.288-.32.496 0 .924.107 1.284.32.363.211.642.507.838.888.196.38.294.823.294 1.33 0 .503-.098.945-.294 1.326a2.158 2.158 0 0 1-.838.889c-.36.211-.788.316-1.284.316Zm.006-1.055a.85.85 0 0 0 .566-.191c.151-.13.265-.307.342-.531.079-.224.118-.478.118-.764 0-.285-.039-.54-.118-.764a1.197 1.197 0 0 0-.342-.53.837.837 0 0 0-.566-.195.865.865 0 0 0-.575.195c-.154.13-.27.307-.349.53a2.373 2.373 0 0 0-.115.764c0 .286.039.54.115.764.079.224.195.401.349.531a.878.878 0 0 0 .575.191Zm3.214.959v-4.909h1.32v.857h.051c.09-.305.24-.535.451-.691a1.19 1.19 0 0 1 .729-.236 1.94 1.94 0 0 1 .428.048v1.208a2.386 2.386 0 0 0-.575-.074c-.201 0-.38.044-.537.131a.974.974 0 0 0-.371.358c-.09.154-.134.331-.134.531v2.777h-1.362ZM290.445 316.951h1.707l1.803 4.398h.076l1.803-4.398h1.706v6.545h-1.342v-4.26h-.054l-1.694 4.228h-.914l-1.694-4.244h-.054v4.276h-1.343v-6.545Zm8.129 6.545v-4.909h1.362v4.909h-1.362Zm.684-5.541a.742.742 0 0 1-.521-.202.65.65 0 0 1-.214-.489c0-.187.071-.348.214-.482a.732.732 0 0 1 .521-.205c.202 0 .375.068.518.205a.634.634 0 0 1 .217.482c0 .19-.072.353-.217.489a.732.732 0 0 1-.518.202Zm3.496 5.621a1.86 1.86 0 0 1-1.013-.287c-.3-.194-.539-.479-.716-.854-.175-.377-.262-.839-.262-1.387 0-.562.091-1.03.272-1.403.181-.375.422-.655.722-.84.303-.188.634-.282.994-.282.275 0 .504.047.687.141.186.092.335.207.448.345.115.137.202.271.262.403h.041v-2.461h1.359v6.545h-1.343v-.786h-.057a1.747 1.747 0 0 1-.272.406 1.34 1.34 0 0 1-.451.329 1.541 1.541 0 0 1-.671.131Zm.432-1.083c.219 0 .404-.06.556-.179.153-.122.27-.291.351-.508.083-.218.125-.472.125-.764 0-.292-.041-.546-.121-.761a1.094 1.094 0 0 0-.352-.498.889.889 0 0 0-.559-.176.885.885 0 0 0-.566.182c-.153.122-.27.29-.348.505a2.166 2.166 0 0 0-.119.748c0 .285.04.538.119.757.081.218.197.388.348.512a.885.885 0 0 0 .566.182Zm-12.767 13.003v-6.545h2.621c.481 0 .883.071 1.205.214.321.143.563.341.725.595.162.251.243.541.243.869 0 .256-.051.48-.153.674-.103.192-.243.35-.422.473-.177.122-.38.208-.608.259v.064c.25.011.483.081.7.211.22.13.398.312.534.547.136.232.205.509.205.831 0 .347-.087.657-.259.93-.171.27-.423.484-.758.642-.334.158-.746.236-1.237.236h-2.796Zm1.384-1.131h1.128c.386 0 .667-.073.844-.22a.74.74 0 0 0 .265-.595.88.88 0 0 0-.131-.479.885.885 0 0 0-.374-.326 1.277 1.277 0 0 0-.572-.119h-1.16v1.739Zm0-2.675h1.026c.189 0 .358-.033.505-.099a.834.834 0 0 0 .351-.288.742.742 0 0 0 .131-.444.72.72 0 0 0-.252-.572c-.166-.145-.403-.217-.71-.217h-1.051v1.62Zm6.678 3.902c-.497 0-.926-.105-1.288-.316a2.164 2.164 0 0 1-.835-.889c-.196-.381-.294-.823-.294-1.326 0-.507.098-.95.294-1.329a2.14 2.14 0 0 1 .835-.889c.362-.213.791-.32 1.288-.32.496 0 .924.107 1.284.32.363.211.642.507.838.889.196.379.294.822.294 1.329 0 .503-.098.945-.294 1.326-.196.38-.475.676-.838.889-.36.211-.788.316-1.284.316Zm.006-1.054a.847.847 0 0 0 .566-.192c.151-.13.265-.307.342-.531a2.28 2.28 0 0 0 .118-.763c0-.286-.039-.541-.118-.764a1.194 1.194 0 0 0-.342-.531.84.84 0 0 0-.566-.195.865.865 0 0 0-.575.195c-.154.13-.27.307-.349.531a2.364 2.364 0 0 0-.115.764c0 .285.039.54.115.763.079.224.195.401.349.531a.874.874 0 0 0 .575.192Zm4.176-3.951.901 1.717.924-1.717h1.397l-1.423 2.455 1.461 2.454h-1.39l-.969-1.697-.952 1.697h-1.406l1.457-2.454-1.406-2.455h1.406ZM248.23 400.267v-6.546h2.621c.481 0 .883.072 1.205.215.321.142.563.34.725.594.162.251.243.541.243.869 0 .256-.051.481-.154.675a1.329 1.329 0 0 1-.421.473c-.177.121-.38.207-.608.259v.063a1.492 1.492 0 0 1 1.234.758c.136.232.205.509.205.831 0 .347-.087.657-.259.93a1.738 1.738 0 0 1-.758.642c-.334.158-.747.237-1.237.237h-2.796Zm1.384-1.132h1.128c.386 0 .667-.073.844-.22a.738.738 0 0 0 .265-.595.883.883 0 0 0-.131-.479.892.892 0 0 0-.374-.326 1.28 1.28 0 0 0-.572-.118h-1.16v1.738Zm0-2.675h1.026c.189 0 .358-.033.505-.099a.84.84 0 0 0 .351-.287.748.748 0 0 0 .131-.445.72.72 0 0 0-.252-.572c-.166-.145-.403-.217-.71-.217h-1.051v1.62Zm6.678 3.903c-.497 0-.926-.106-1.288-.317a2.161 2.161 0 0 1-.835-.888c-.196-.382-.294-.824-.294-1.327 0-.507.098-.95.294-1.329a2.14 2.14 0 0 1 .835-.889c.362-.213.791-.319 1.288-.319.496 0 .924.106 1.284.319.363.211.642.508.838.889.196.379.294.822.294 1.329 0 .503-.098.945-.294 1.327a2.155 2.155 0 0 1-.838.888c-.36.211-.788.317-1.284.317Zm.006-1.055a.847.847 0 0 0 .566-.192c.151-.13.265-.307.342-.53.078-.224.118-.479.118-.764 0-.286-.04-.54-.118-.764a1.194 1.194 0 0 0-.342-.531.844.844 0 0 0-.566-.194.87.87 0 0 0-.575.194c-.154.13-.27.307-.349.531a2.368 2.368 0 0 0-.115.764c0 .285.039.54.115.764.079.223.195.4.349.53a.874.874 0 0 0 .575.192Zm4.176-3.95.901 1.716.924-1.716h1.397l-1.423 2.454 1.461 2.455h-1.39l-.969-1.697-.952 1.697h-1.406l1.457-2.455-1.406-2.454h1.406Zm3.949 4.909v-4.909h1.32v.856h.051c.09-.304.24-.535.451-.69.211-.158.454-.237.729-.237a2.205 2.205 0 0 1 .428.048v1.208a2.373 2.373 0 0 0-.575-.073c-.201 0-.38.044-.537.131a.966.966 0 0 0-.371.358c-.09.153-.134.33-.134.531v2.777h-1.362Zm5.591.096c-.496 0-.925-.106-1.288-.317a2.165 2.165 0 0 1-.834-.888c-.196-.382-.294-.824-.294-1.327 0-.507.098-.95.294-1.329.196-.381.474-.678.834-.889.363-.213.792-.319 1.288-.319.497 0 .925.106 1.285.319.362.211.641.508.838.889.196.379.294.822.294 1.329 0 .503-.098.945-.294 1.327a2.168 2.168 0 0 1-.838.888c-.36.211-.788.317-1.285.317Zm.007-1.055a.843.843 0 0 0 .565-.192 1.18 1.18 0 0 0 .342-.53 2.29 2.29 0 0 0 .119-.764c0-.286-.04-.54-.119-.764a1.178 1.178 0 0 0-.342-.531.84.84 0 0 0-.565-.194.874.874 0 0 0-.576.194c-.153.13-.269.307-.348.531a2.341 2.341 0 0 0-.115.764c0 .285.038.54.115.764.079.223.195.4.348.53a.878.878 0 0 0 .576.192Zm5.432 1.055c-.497 0-.926-.106-1.288-.317a2.165 2.165 0 0 1-.834-.888c-.196-.382-.294-.824-.294-1.327 0-.507.098-.95.294-1.329.196-.381.474-.678.834-.889.362-.213.791-.319 1.288-.319.496 0 .925.106 1.285.319.362.211.641.508.837.889.196.379.294.822.294 1.329 0 .503-.098.945-.294 1.327a2.16 2.16 0 0 1-.837.888c-.36.211-.789.317-1.285.317Zm.006-1.055a.846.846 0 0 0 .566-.192c.151-.13.265-.307.342-.53.079-.224.118-.479.118-.764 0-.286-.039-.54-.118-.764a1.194 1.194 0 0 0-.342-.531.842.842 0 0 0-.566-.194.871.871 0 0 0-.575.194c-.153.13-.27.307-.348.531a2.341 2.341 0 0 0-.115.764c0 .285.038.54.115.764.078.223.195.4.348.53a.876.876 0 0 0 .575.192Zm3.214.959v-4.909h1.298v.866h.057c.103-.288.273-.515.512-.681a1.46 1.46 0 0 1 .856-.249c.337 0 .624.084.86.252.237.167.394.392.473.678h.051c.1-.281.282-.506.544-.674.264-.171.576-.256.936-.256.458 0 .83.146 1.115.438.288.289.432.701.432 1.233v3.302h-1.358v-3.033c0-.273-.073-.477-.218-.614a.763.763 0 0 0-.543-.204c-.247 0-.44.078-.579.236-.138.156-.207.361-.207.617v2.998h-1.32v-3.062c0-.241-.069-.432-.208-.575a.71.71 0 0 0-.54-.214.747.747 0 0 0-.409.115.789.789 0 0 0-.285.316 1.01 1.01 0 0 0-.105.473v2.947h-1.362ZM287.129 458.267v-6.546h4.411v1.141h-3.027v1.56h2.8v1.141h-2.8v1.563h3.04v1.141h-4.424Zm7.213.08c-.372 0-.71-.096-1.013-.288-.3-.194-.539-.478-.716-.853-.174-.377-.262-.84-.262-1.387 0-.563.091-1.03.272-1.403.181-.375.422-.656.722-.841.303-.187.634-.281.994-.281.275 0 .504.047.687.14.186.092.335.207.448.346.115.136.202.27.262.402h.041v-2.461h1.359v6.546h-1.343v-.786h-.057a1.79 1.79 0 0 1-.272.406 1.36 1.36 0 0 1-.45.329 1.56 1.56 0 0 1-.672.131Zm.432-1.084a.866.866 0 0 0 .556-.179c.153-.121.271-.291.352-.508.083-.217.124-.472.124-.764 0-.292-.04-.545-.121-.76a1.085 1.085 0 0 0-.352-.499.895.895 0 0 0-.559-.176.887.887 0 0 0-.566.182c-.153.122-.269.29-.348.505a2.17 2.17 0 0 0-.118.748c0 .286.039.538.118.758.081.217.197.388.348.511a.881.881 0 0 0 .566.182Zm4.369 1.004-1.336-4.909h1.377l.761 3.298h.044l.793-3.298h1.352l.805 3.279h.042l.748-3.279h1.374l-1.333 4.909h-1.441l-.844-3.088h-.06l-.844 3.088h-1.438Zm8.005.093c-.313 0-.592-.055-.837-.163a1.353 1.353 0 0 1-.582-.489c-.14-.218-.211-.488-.211-.812 0-.273.05-.502.151-.687.1-.186.236-.335.409-.448.172-.113.368-.198.588-.256a4.49 4.49 0 0 1 .696-.121c.286-.03.516-.057.691-.083.174-.028.301-.068.38-.122a.266.266 0 0 0 .118-.236v-.019c0-.203-.064-.359-.191-.47-.126-.111-.305-.166-.537-.166-.245 0-.44.054-.585.163a.75.75 0 0 0-.288.402l-1.259-.102c.064-.298.19-.556.377-.773.188-.22.429-.388.726-.505.298-.12.643-.179 1.035-.179.273 0 .534.032.783.096.251.064.474.163.668.297.196.134.351.307.463.518.113.209.17.459.17.751v3.311h-1.291v-.681h-.039a1.379 1.379 0 0 1-.316.406 1.467 1.467 0 0 1-.476.272c-.186.064-.4.096-.643.096Zm.39-.94c.2 0 .377-.04.531-.118a.943.943 0 0 0 .361-.326.846.846 0 0 0 .131-.464v-.521a.702.702 0 0 1-.176.077 3.161 3.161 0 0 1-.246.061c-.092.017-.183.033-.275.048l-.249.035a1.68 1.68 0 0 0-.419.112.672.672 0 0 0-.278.207.509.509 0 0 0-.099.32c0 .185.067.327.201.425a.88.88 0 0 0 .518.144Zm3.35.847v-4.909h1.32v.856h.051c.09-.304.24-.535.451-.69.211-.158.454-.237.729-.237a2.205 2.205 0 0 1 .428.048v1.208a2.373 2.373 0 0 0-.575-.073c-.201 0-.38.044-.537.131a.96.96 0 0 0-.371.358c-.09.153-.134.33-.134.531v2.777h-1.362Zm5.182.08c-.373 0-.71-.096-1.013-.288-.3-.194-.539-.478-.716-.853-.175-.377-.262-.84-.262-1.387 0-.563.091-1.03.272-1.403.181-.375.422-.656.722-.841.303-.187.634-.281.994-.281.275 0 .504.047.687.14.185.092.335.207.448.346.115.136.202.27.262.402h.041v-2.461h1.359v6.546h-1.343v-.786h-.057a1.79 1.79 0 0 1-.272.406 1.354 1.354 0 0 1-.451.329 1.556 1.556 0 0 1-.671.131Zm.432-1.084a.868.868 0 0 0 .556-.179c.153-.121.27-.291.351-.508.083-.217.125-.472.125-.764 0-.292-.041-.545-.121-.76a1.092 1.092 0 0 0-.352-.499.895.895 0 0 0-.559-.176.885.885 0 0 0-.566.182c-.153.122-.27.29-.348.505a2.17 2.17 0 0 0-.119.748c0 .286.04.538.119.758.081.217.197.388.348.511a.88.88 0 0 0 .566.182ZM315.367 565.267v-6.546h2.62c.482 0 .884.072 1.205.215.322.142.564.34.726.594.162.251.243.541.243.869 0 .256-.051.481-.154.675a1.331 1.331 0 0 1-.422.473 1.746 1.746 0 0 1-.607.259v.063a1.5 1.5 0 0 1 1.234.758c.136.232.204.509.204.831a1.7 1.7 0 0 1-.259.93 1.73 1.73 0 0 1-.757.642c-.335.158-.747.237-1.237.237h-2.796Zm1.383-1.132h1.129c.385 0 .667-.073.843-.22a.739.739 0 0 0 .266-.595.883.883 0 0 0-.131-.479.898.898 0 0 0-.374-.326 1.28 1.28 0 0 0-.572-.118h-1.161v1.738Zm0-2.675h1.026c.19 0 .358-.033.505-.099a.837.837 0 0 0 .352-.287.755.755 0 0 0 .131-.445.717.717 0 0 0-.253-.572c-.166-.145-.402-.217-.709-.217h-1.052v1.62Zm5.86 3.9c-.313 0-.592-.055-.837-.163a1.353 1.353 0 0 1-.582-.489c-.141-.218-.211-.488-.211-.812 0-.273.05-.502.15-.687.1-.186.237-.335.409-.448.173-.113.369-.198.588-.256.222-.057.454-.098.697-.121.286-.03.516-.057.691-.083.174-.028.301-.068.38-.122a.266.266 0 0 0 .118-.236v-.019c0-.203-.064-.359-.192-.47-.125-.111-.304-.166-.537-.166-.245 0-.44.054-.584.163a.75.75 0 0 0-.288.402l-1.259-.102c.064-.298.189-.556.377-.773.187-.22.429-.388.725-.505.299-.12.644-.179 1.036-.179.273 0 .534.032.783.096.251.064.474.163.668.297.196.134.35.307.463.518.113.209.17.459.17.751v3.311h-1.292v-.681h-.038a1.379 1.379 0 0 1-.316.406 1.462 1.462 0 0 1-.477.272 1.962 1.962 0 0 1-.642.096Zm.39-.94c.2 0 .377-.04.531-.118a.95.95 0 0 0 .361-.326.846.846 0 0 0 .131-.464v-.521a.702.702 0 0 1-.176.077 3.279 3.279 0 0 1-.246.061c-.092.017-.183.033-.275.048a13.87 13.87 0 0 0-.249.035c-.16.023-.3.061-.419.112a.672.672 0 0 0-.278.207.509.509 0 0 0-.099.32c0 .185.067.327.201.425a.88.88 0 0 0 .518.144Zm4.711-1.991v2.838h-1.361v-4.909h1.298v.866h.057c.109-.286.291-.511.547-.678.255-.168.565-.252.93-.252.341 0 .638.074.891.224.254.149.451.362.592.639.14.275.211.603.211.984v3.126h-1.362v-2.883c.002-.3-.075-.535-.23-.703-.156-.171-.37-.256-.643-.256a.981.981 0 0 0-.485.118.821.821 0 0 0-.326.346 1.202 1.202 0 0 0-.119.54Zm5.556 2.931c-.313 0-.592-.055-.837-.163a1.353 1.353 0 0 1-.582-.489c-.14-.218-.211-.488-.211-.812 0-.273.051-.502.151-.687.1-.186.236-.335.409-.448.172-.113.368-.198.588-.256.221-.057.454-.098.697-.121.285-.03.515-.057.69-.083.175-.028.301-.068.38-.122a.266.266 0 0 0 .118-.236v-.019c0-.203-.063-.359-.191-.47-.126-.111-.305-.166-.537-.166-.245 0-.44.054-.585.163a.75.75 0 0 0-.288.402l-1.259-.102c.064-.298.19-.556.377-.773.188-.22.43-.388.726-.505.298-.12.643-.179 1.035-.179.273 0 .534.032.783.096.252.064.474.163.668.297.196.134.351.307.464.518.113.209.169.459.169.751v3.311h-1.291v-.681h-.039a1.363 1.363 0 0 1-.792.678c-.186.064-.4.096-.643.096Zm.39-.94c.201 0 .377-.04.531-.118a.943.943 0 0 0 .361-.326.846.846 0 0 0 .131-.464v-.521a.702.702 0 0 1-.176.077 3.161 3.161 0 0 1-.246.061c-.091.017-.183.033-.275.048l-.249.035a1.68 1.68 0 0 0-.419.112.672.672 0 0 0-.278.207.509.509 0 0 0-.099.32c0 .185.067.327.202.425a.877.877 0 0 0 .517.144Zm4.712-1.991v2.838h-1.362v-4.909h1.298v.866h.057c.109-.286.291-.511.547-.678.256-.168.566-.252.93-.252.341 0 .638.074.892.224.253.149.45.362.591.639.141.275.211.603.211.984v3.126h-1.362v-2.883c.002-.3-.074-.535-.23-.703-.155-.171-.369-.256-.642-.256a.988.988 0 0 0-.486.118.827.827 0 0 0-.326.346 1.19 1.19 0 0 0-.118.54Zm5.556 2.931a2.06 2.06 0 0 1-.838-.163 1.345 1.345 0 0 1-.581-.489c-.141-.218-.211-.488-.211-.812 0-.273.05-.502.15-.687.1-.186.237-.335.409-.448.173-.113.369-.198.588-.256.222-.057.454-.098.697-.121.285-.03.516-.057.69-.083.175-.028.302-.068.381-.122a.268.268 0 0 0 .118-.236v-.019c0-.203-.064-.359-.192-.47-.126-.111-.305-.166-.537-.166-.245 0-.44.054-.585.163a.744.744 0 0 0-.287.402l-1.26-.102c.064-.298.19-.556.378-.773.187-.22.429-.388.725-.505.298-.12.643-.179 1.036-.179.272 0 .533.032.783.096.251.064.474.163.668.297.196.134.35.307.463.518.113.209.169.459.169.751v3.311h-1.291v-.681h-.038a1.382 1.382 0 0 1-.793.678 1.962 1.962 0 0 1-.642.096Zm.39-.94c.2 0 .377-.04.53-.118a.936.936 0 0 0 .361-.326.838.838 0 0 0 .131-.464v-.521a.693.693 0 0 1-.175.077 3.406 3.406 0 0 1-.521.109l-.25.035a1.671 1.671 0 0 0-.418.112.665.665 0 0 0-.278.207.509.509 0 0 0-.099.32c0 .185.067.327.201.425a.878.878 0 0 0 .518.144ZM371.337 628.018v-6.546h2.583c.494 0 .916.089 1.265.266.352.174.619.423.803.744.185.32.278.696.278 1.129 0 .434-.094.808-.282 1.121-.187.312-.459.55-.815.716-.353.167-.782.25-1.284.25h-1.729v-1.113h1.505c.264 0 .484-.036.658-.108a.783.783 0 0 0 .39-.326c.088-.145.131-.325.131-.54 0-.218-.043-.401-.131-.55a.804.804 0 0 0-.393-.339 1.61 1.61 0 0 0-.661-.118h-.934v5.414h-1.384Zm3.535-2.979 1.627 2.979h-1.528l-1.591-2.979h1.492Zm3.665 3.072c-.313 0-.592-.055-.837-.163a1.353 1.353 0 0 1-.582-.489c-.141-.218-.211-.488-.211-.812 0-.273.05-.502.15-.687.1-.186.237-.335.409-.448.173-.113.369-.198.588-.255.222-.058.454-.098.697-.122.286-.03.516-.057.69-.083.175-.028.302-.068.381-.121a.268.268 0 0 0 .118-.237v-.019c0-.203-.064-.359-.192-.47-.125-.111-.304-.166-.537-.166-.245 0-.44.054-.585.163a.753.753 0 0 0-.287.403l-1.259-.103c.063-.298.189-.556.377-.773.187-.22.429-.388.725-.505a2.782 2.782 0 0 1 1.036-.179c.272 0 .533.032.783.096.251.064.474.163.668.297.196.134.35.307.463.518.113.209.169.459.169.751v3.311h-1.291v-.681h-.038a1.379 1.379 0 0 1-.316.406 1.472 1.472 0 0 1-.477.272 1.962 1.962 0 0 1-.642.096Zm.39-.94c.2 0 .377-.039.53-.118a.946.946 0 0 0 .362-.326.846.846 0 0 0 .131-.464v-.521a.719.719 0 0 1-.176.077 3.406 3.406 0 0 1-.521.109l-.249.035c-.16.023-.3.061-.419.112a.665.665 0 0 0-.278.208.504.504 0 0 0-.099.319c0 .185.067.327.201.425a.878.878 0 0 0 .518.144Zm5.961-4.062v1.023h-2.956v-1.023h2.956Zm-2.285-1.176h1.361v4.576a.61.61 0 0 0 .058.294.307.307 0 0 0 .16.144c.07.028.151.042.243.042.063 0 .127-.006.191-.016l.147-.029.214 1.013a3.627 3.627 0 0 1-.287.074c-.124.03-.274.048-.451.054a2.068 2.068 0 0 1-.863-.131 1.202 1.202 0 0 1-.572-.467c-.136-.211-.203-.477-.201-.799v-4.755ZM426.035 547.715v6.545h-1.196l-2.847-4.12h-.048v4.12h-1.384v-6.545h1.214l2.826 4.116h.057v-4.116h1.378Zm1.037 6.545v-4.909h1.361v4.909h-1.361Zm.684-5.542a.738.738 0 0 1-.521-.201.652.652 0 0 1-.215-.489.64.64 0 0 1 .215-.483.732.732 0 0 1 .521-.204c.202 0 .375.068.517.204a.648.648 0 0 1 0 .972.727.727 0 0 1-.517.201Zm3.048 2.704v2.838h-1.361v-4.909h1.297v.866h.058c.109-.285.291-.511.546-.677.256-.169.566-.253.93-.253.341 0 .639.075.892.224.254.149.451.362.591.639.141.275.211.603.211.984v3.126h-1.361v-2.883c.002-.3-.075-.534-.23-.703-.156-.17-.37-.255-.643-.255a.977.977 0 0 0-.486.118.83.83 0 0 0-.326.345 1.202 1.202 0 0 0-.118.54Zm4.156-2.071h1.362v5.152c0 .379-.075.686-.224.92a1.29 1.29 0 0 1-.642.515 2.717 2.717 0 0 1-.994.163c-.047 0-.092-.001-.134-.003l-.141-.003v-1.065c.036.003.068.004.096.004.025.002.053.003.083.003.219 0 .373-.047.46-.141.09-.091.134-.23.134-.415v-5.13Zm.678-.633a.738.738 0 0 1-.518-.201.647.647 0 0 1-.217-.489c0-.188.072-.348.217-.483a.732.732 0 0 1 .518-.204c.204 0 .378.068.521.204a.636.636 0 0 1 .217.483c0 .19-.072.353-.217.489a.735.735 0 0 1-.521.201Zm3.093 5.635c-.313 0-.592-.055-.837-.163a1.353 1.353 0 0 1-.582-.489c-.14-.218-.211-.488-.211-.812 0-.273.05-.502.151-.687.1-.185.236-.335.409-.448a1.98 1.98 0 0 1 .588-.255c.221-.058.454-.098.697-.122.285-.03.515-.057.69-.083a.97.97 0 0 0 .38-.121.266.266 0 0 0 .118-.237v-.019c0-.202-.063-.359-.191-.47-.126-.111-.305-.166-.537-.166-.245 0-.44.054-.585.163a.753.753 0 0 0-.288.403l-1.259-.102c.064-.299.19-.557.377-.774.188-.219.429-.388.726-.505a2.777 2.777 0 0 1 1.035-.179c.273 0 .534.032.783.096.252.064.474.163.668.297.196.134.351.307.464.518.112.209.169.459.169.751v3.311h-1.291v-.681h-.039a1.363 1.363 0 0 1-.792.678c-.186.064-.4.096-.643.096Zm.39-.94c.201 0 .377-.039.531-.118a.943.943 0 0 0 .361-.326.843.843 0 0 0 .131-.463v-.521a.743.743 0 0 1-.176.076 2.765 2.765 0 0 1-.246.061c-.091.017-.183.033-.275.048l-.249.035c-.16.024-.299.061-.419.112a.665.665 0 0 0-.278.208.504.504 0 0 0-.099.319c0 .186.067.327.202.425a.875.875 0 0 0 .517.144ZM501.251 618.199v-6.545h2.621c.482 0 .883.071 1.205.214.322.143.564.341.725.594.162.252.243.542.243.87 0 .255-.051.48-.153.674a1.323 1.323 0 0 1-.422.473 1.717 1.717 0 0 1-.607.259v.064a1.505 1.505 0 0 1 1.234.757c.136.233.204.51.204.831 0 .348-.086.658-.259.93-.17.271-.423.485-.757.643-.335.157-.747.236-1.237.236h-2.797Zm1.384-1.131h1.128c.386 0 .667-.074.844-.221a.737.737 0 0 0 .265-.594.877.877 0 0 0-.131-.48.892.892 0 0 0-.374-.326 1.288 1.288 0 0 0-.572-.118h-1.16v1.739Zm0-2.675h1.026c.19 0 .358-.033.505-.099a.844.844 0 0 0 .352-.288.754.754 0 0 0 .131-.444.716.716 0 0 0-.253-.572c-.166-.145-.402-.218-.709-.218h-1.052v1.621Zm5.86 3.899c-.313 0-.592-.054-.838-.163a1.35 1.35 0 0 1-.581-.489c-.141-.217-.211-.488-.211-.812 0-.273.05-.502.15-.687.1-.185.237-.335.409-.447.173-.113.369-.199.588-.256.222-.058.454-.098.697-.122.285-.029.516-.057.69-.083a.976.976 0 0 0 .381-.121.268.268 0 0 0 .118-.237v-.019c0-.202-.064-.359-.192-.47-.126-.11-.305-.166-.537-.166-.245 0-.44.055-.585.163a.751.751 0 0 0-.287.403l-1.26-.102a1.71 1.71 0 0 1 .378-.774c.187-.219.429-.388.725-.505a2.782 2.782 0 0 1 1.036-.179c.272 0 .533.032.783.096.251.064.474.163.668.297.196.135.35.307.463.518.113.209.169.459.169.751v3.311h-1.291v-.681h-.038a1.366 1.366 0 0 1-.793.678 1.962 1.962 0 0 1-.642.096Zm.39-.94c.2 0 .377-.039.53-.118a.936.936 0 0 0 .361-.326.834.834 0 0 0 .131-.463v-.521a.733.733 0 0 1-.175.076 2.95 2.95 0 0 1-.246.061l-.275.048-.25.035a1.715 1.715 0 0 0-.418.112.659.659 0 0 0-.278.208.506.506 0 0 0-.099.319c0 .186.067.327.201.425a.878.878 0 0 0 .518.144Zm4.711-5.698v6.545h-1.361v-6.545h1.361Zm3.228 6.641c-.503 0-.936-.106-1.298-.319a2.17 2.17 0 0 1-.831-.895 2.907 2.907 0 0 1-.287-1.317c0-.503.097-.944.291-1.323.196-.382.474-.679.834-.892.36-.215.788-.323 1.284-.323.429 0 .804.078 1.125.234.322.155.577.373.764.655.188.281.291.611.31.99h-1.284a.999.999 0 0 0-.288-.591.826.826 0 0 0-.604-.227.914.914 0 0 0-.553.173 1.093 1.093 0 0 0-.364.495 2.11 2.11 0 0 0-.131.79c0 .313.042.579.127.799.088.219.21.386.368.501a.908.908 0 0 0 .553.173.901.901 0 0 0 .419-.096.81.81 0 0 0 .31-.278 1.07 1.07 0 0 0 .163-.444h1.284a2.013 2.013 0 0 1-.306.991 1.854 1.854 0 0 1-.752.664c-.319.16-.697.24-1.134.24Zm5.201 0c-.496 0-.926-.105-1.288-.316a2.168 2.168 0 0 1-.834-.889c-.196-.381-.294-.823-.294-1.326 0-.507.098-.95.294-1.33.196-.381.474-.677.834-.888.362-.213.792-.32 1.288-.32.497 0 .925.107 1.285.32.362.211.641.507.837.888.196.38.294.823.294 1.33 0 .503-.098.945-.294 1.326a2.162 2.162 0 0 1-.837.889c-.36.211-.788.316-1.285.316Zm.006-1.055a.845.845 0 0 0 .566-.191c.151-.13.265-.307.342-.531.079-.224.118-.478.118-.764 0-.285-.039-.54-.118-.764a1.197 1.197 0 0 0-.342-.53.837.837 0 0 0-.566-.195.867.867 0 0 0-.575.195c-.153.13-.269.307-.348.53a2.346 2.346 0 0 0-.115.764c0 .286.038.54.115.764.079.224.195.401.348.531a.875.875 0 0 0 .575.191Zm4.576-1.879v2.838h-1.361v-4.909h1.297v.866h.058c.108-.285.291-.511.546-.677.256-.169.566-.253.93-.253.341 0 .638.075.892.224.253.149.451.362.591.639.141.275.211.603.211.985v3.125h-1.361v-2.883c.002-.3-.075-.534-.23-.703-.156-.17-.37-.255-.643-.255a.977.977 0 0 0-.486.118.83.83 0 0 0-.326.345 1.202 1.202 0 0 0-.118.54Zm4.821 4.679a2.76 2.76 0 0 1-.486-.041 1.833 1.833 0 0 1-.371-.099l.307-1.017c.16.049.304.076.432.08a.546.546 0 0 0 .335-.089.67.67 0 0 0 .234-.326l.08-.208-1.761-5.05h1.431l1.017 3.605h.051l1.026-3.605h1.441l-1.908 5.44a2.286 2.286 0 0 1-.374.69 1.522 1.522 0 0 1-.591.457 2.067 2.067 0 0 1-.863.163ZM531.265 552.216h1.384v4.251c0 .477-.114.895-.342 1.253a2.284 2.284 0 0 1-.949.837c-.407.198-.881.297-1.422.297-.544 0-1.019-.099-1.426-.297a2.284 2.284 0 0 1-.949-.837c-.226-.358-.339-.776-.339-1.253v-4.251h1.384v4.133c0 .249.054.471.163.664.111.194.266.347.467.458.2.11.433.166.7.166.268 0 .501-.056.699-.166.201-.111.355-.264.464-.458a1.31 1.31 0 0 0 .166-.664v-4.133Zm2.416 8.387v-6.75h1.342v.824h.061c.06-.132.146-.266.259-.402.115-.139.264-.254.447-.346.186-.093.416-.14.691-.14.358 0 .688.093.99.281.303.185.545.466.726.841.181.372.272.84.272 1.403 0 .547-.089 1.01-.266 1.387a1.96 1.96 0 0 1-.716.853c-.3.192-.637.288-1.01.288-.264 0-.489-.044-.674-.131a1.42 1.42 0 0 1-.451-.33 1.665 1.665 0 0 1-.268-.406h-.042v2.628h-1.361Zm1.333-4.296c0 .292.04.547.121.764.081.217.198.387.352.508.153.12.34.179.559.179a.882.882 0 0 0 .563-.182c.153-.124.269-.294.348-.511.081-.22.121-.472.121-.758a2.17 2.17 0 0 0-.118-.748 1.122 1.122 0 0 0-.348-.505.887.887 0 0 0-.566-.182.898.898 0 0 0-.562.176 1.095 1.095 0 0 0-.349.499 2.153 2.153 0 0 0-.121.76Zm4.281 4.296v-6.75h1.343v.824h.06c.06-.132.146-.266.259-.402.115-.139.264-.254.448-.346.185-.093.415-.14.69-.14.358 0 .688.093.991.281.302.185.544.466.725.841.181.372.272.84.272 1.403 0 .547-.089 1.01-.265 1.387-.175.375-.414.659-.716.853a1.837 1.837 0 0 1-1.01.288c-.264 0-.489-.044-.675-.131a1.405 1.405 0 0 1-.45-.33 1.67 1.67 0 0 1-.269-.406h-.041v2.628h-1.362Zm1.333-4.296c0 .292.041.547.121.764.081.217.199.387.352.508.153.12.34.179.559.179a.882.882 0 0 0 .563-.182c.153-.124.269-.294.348-.511.081-.22.122-.472.122-.758 0-.283-.04-.532-.119-.748a1.114 1.114 0 0 0-.348-.505.885.885 0 0 0-.566-.182.9.9 0 0 0-.562.176 1.102 1.102 0 0 0-.349.499c-.08.215-.121.468-.121.76Zm6.519 2.551c-.505 0-.94-.103-1.304-.307a2.107 2.107 0 0 1-.838-.876c-.196-.379-.294-.828-.294-1.345 0-.505.098-.949.294-1.33.196-.381.472-.679.828-.892.358-.213.778-.319 1.259-.319.324 0 .626.052.905.156.281.103.526.257.735.464.211.206.375.466.492.78.117.311.176.675.176 1.093v.374h-4.145v-.844h2.863c0-.196-.042-.37-.127-.521a.924.924 0 0 0-.355-.355 1.015 1.015 0 0 0-.521-.131c-.207 0-.39.048-.55.144a1.01 1.01 0 0 0-.371.38 1.08 1.08 0 0 0-.137.528v.802c0 .243.045.453.134.629a.98.98 0 0 0 .387.409c.166.096.363.144.591.144.151 0 .29-.021.416-.064a.836.836 0 0 0 .527-.505l1.259.083a1.721 1.721 0 0 1-.393.793 1.957 1.957 0 0 1-.761.524 2.852 2.852 0 0 1-1.07.186Zm3.06-.096v-4.909h1.32v.856h.052c.089-.305.239-.535.45-.69.211-.158.454-.237.729-.237a2.188 2.188 0 0 1 .428.048v1.208a2.361 2.361 0 0 0-.575-.073c-.2 0-.379.044-.537.131a.96.96 0 0 0-.371.358c-.089.153-.134.33-.134.53v2.778h-1.362ZM554.183 572.262v-6.546h1.383v5.405h2.807v1.141h-4.19Zm7.217.096c-.496 0-.925-.106-1.288-.317a2.165 2.165 0 0 1-.834-.888c-.196-.382-.294-.824-.294-1.327 0-.507.098-.95.294-1.329.196-.382.474-.678.834-.889.363-.213.792-.319 1.288-.319.497 0 .925.106 1.285.319.362.211.642.507.838.889.196.379.294.822.294 1.329 0 .503-.098.945-.294 1.327a2.162 2.162 0 0 1-.838.888c-.36.211-.788.317-1.285.317Zm.007-1.055a.847.847 0 0 0 .566-.192c.151-.13.265-.307.342-.53.078-.224.118-.479.118-.764 0-.286-.04-.54-.118-.764a1.194 1.194 0 0 0-.342-.531.84.84 0 0 0-.566-.195.865.865 0 0 0-.575.195c-.154.13-.27.307-.349.531a2.368 2.368 0 0 0-.115.764c0 .285.039.54.115.764.079.223.195.4.349.53a.874.874 0 0 0 .575.192Zm4.059.959-1.336-4.909h1.378l.761 3.298h.044l.793-3.298h1.352l.805 3.279h.042l.748-3.279h1.374l-1.333 4.909h-1.441l-.844-3.088h-.061l-.843 3.088h-1.439Zm8.72.096c-.505 0-.939-.103-1.304-.307a2.105 2.105 0 0 1-.837-.876c-.196-.379-.294-.828-.294-1.345 0-.505.098-.949.294-1.33.196-.381.472-.679.828-.892.358-.213.777-.319 1.259-.319.324 0 .625.052.904.156.282.103.527.257.736.464.211.206.375.466.492.78.117.311.176.675.176 1.093v.374h-4.146v-.844h2.864c0-.196-.043-.37-.128-.521a.911.911 0 0 0-.355-.355 1.013 1.013 0 0 0-.521-.131c-.206 0-.39.048-.549.144-.158.094-.282.22-.371.38a1.07 1.07 0 0 0-.137.528v.802c0 .243.044.453.134.629.091.177.22.314.386.409.167.096.364.144.592.144.151 0 .289-.021.415-.064a.85.85 0 0 0 .323-.191.848.848 0 0 0 .205-.314l1.259.083a1.721 1.721 0 0 1-.393.793c-.196.224-.45.399-.761.524a2.86 2.86 0 0 1-1.071.186Zm3.061-.096v-4.909h1.32v.856h.051c.09-.304.24-.535.451-.69.211-.158.454-.237.728-.237a2.207 2.207 0 0 1 .429.048v1.208a2.35 2.35 0 0 0-.576-.073c-.2 0-.379.044-.536.131a.953.953 0 0 0-.371.358c-.09.153-.134.33-.134.53v2.778h-1.362ZM488.447 495.216h1.551l1.492 2.819h.064l1.493-2.819h1.55l-2.388 4.232v2.314h-1.374v-2.314l-2.388-4.232Zm7.25 6.638a2.04 2.04 0 0 1-.838-.163 1.331 1.331 0 0 1-.581-.489c-.141-.217-.211-.488-.211-.811 0-.273.05-.502.15-.688.1-.185.236-.334.409-.447.172-.113.369-.198.588-.256.222-.057.454-.098.697-.121.285-.03.515-.058.69-.083.175-.028.302-.068.38-.122a.266.266 0 0 0 .119-.236v-.019c0-.203-.064-.359-.192-.47-.126-.111-.305-.166-.537-.166-.245 0-.44.054-.585.163a.747.747 0 0 0-.288.402l-1.259-.102c.064-.298.19-.556.377-.773.188-.22.43-.388.726-.505.298-.12.643-.179 1.035-.179.273 0 .534.032.783.096.252.064.474.163.668.297.196.134.351.307.464.518.113.208.169.459.169.751v3.311h-1.291v-.681h-.038a1.395 1.395 0 0 1-.317.406 1.485 1.485 0 0 1-.476.272c-.185.063-.4.095-.642.095Zm.389-.939c.201 0 .378-.04.531-.118a.943.943 0 0 0 .361-.326.838.838 0 0 0 .131-.464v-.521a.722.722 0 0 1-.176.077 3.691 3.691 0 0 1-.521.109l-.249.035c-.16.023-.299.06-.418.112a.675.675 0 0 0-.279.207.509.509 0 0 0-.099.32c0 .185.067.327.202.425a.877.877 0 0 0 .517.144Zm3.35.847v-4.909h1.32v.856h.052c.089-.305.239-.535.45-.69.211-.158.454-.237.729-.237a2.188 2.188 0 0 1 .428.048v1.208a2.361 2.361 0 0 0-.575-.073c-.2 0-.379.044-.537.131a.96.96 0 0 0-.371.358c-.089.153-.134.33-.134.53v2.778h-1.362Zm5.182.08c-.372 0-.71-.096-1.013-.288-.3-.194-.539-.478-.716-.853-.174-.377-.262-.84-.262-1.387 0-.563.091-1.031.272-1.403.181-.375.422-.656.722-.841.303-.188.634-.281.994-.281.275 0 .504.047.687.14.186.092.335.207.448.346.115.136.202.27.262.402h.041v-2.461h1.359v6.546h-1.343v-.787h-.057a1.747 1.747 0 0 1-.272.406 1.362 1.362 0 0 1-.45.33 1.56 1.56 0 0 1-.672.131Zm.432-1.084a.866.866 0 0 0 .556-.179c.153-.121.271-.291.352-.508.083-.217.124-.472.124-.764 0-.292-.04-.545-.121-.76a1.085 1.085 0 0 0-.352-.499.895.895 0 0 0-.559-.176.887.887 0 0 0-.566.182c-.153.122-.269.29-.348.505a2.17 2.17 0 0 0-.118.748c0 .286.039.538.118.758.081.217.197.387.348.511a.887.887 0 0 0 .566.182ZM455.92 422.762l-1.873-6.546h1.512l1.083 4.548h.055l1.195-4.548h1.294l1.193 4.558h.057l1.083-4.558h1.512l-1.873 6.546h-1.348l-1.247-4.28h-.051l-1.243 4.28h-1.349Zm7.745 0v-4.909h1.362v4.909h-1.362Zm.684-5.542a.738.738 0 0 1-.521-.202.654.654 0 0 1 0-.971.736.736 0 0 1 .521-.205c.203 0 .375.069.518.205a.634.634 0 0 1 .217.482c0 .19-.072.353-.217.489a.726.726 0 0 1-.518.202Zm3.049 2.704v2.838h-1.362v-4.909h1.298v.866h.058c.108-.286.29-.512.546-.678.256-.168.566-.252.93-.252.341 0 .638.074.892.223.253.15.45.363.591.64.141.274.211.603.211.984v3.126h-1.361v-2.883c.002-.301-.075-.535-.231-.703-.155-.171-.369-.256-.642-.256a.988.988 0 0 0-.486.118.827.827 0 0 0-.326.346 1.202 1.202 0 0 0-.118.54Zm5.965 2.918a1.85 1.85 0 0 1-1.013-.288c-.301-.194-.539-.478-.716-.853-.175-.377-.262-.84-.262-1.387 0-.563.09-1.031.272-1.403.181-.375.421-.656.722-.841.302-.188.634-.281.994-.281.275 0 .504.047.687.14.185.092.335.207.447.346.115.136.203.27.263.402h.041v-2.461h1.358v6.546h-1.342v-.787h-.057a1.747 1.747 0 0 1-.272.406 1.357 1.357 0 0 1-.451.33 1.556 1.556 0 0 1-.671.131Zm.432-1.084a.868.868 0 0 0 .556-.179c.153-.121.27-.291.351-.508.083-.217.125-.472.125-.764 0-.292-.041-.545-.122-.76a1.09 1.09 0 0 0-.351-.499.897.897 0 0 0-.559-.176.885.885 0 0 0-.566.182c-.154.122-.27.29-.349.505a2.195 2.195 0 0 0-.118.748c0 .286.04.538.118.758.081.217.198.387.349.511a.885.885 0 0 0 .566.182Zm5.618 1.1c-.497 0-.926-.106-1.288-.317a2.165 2.165 0 0 1-.834-.888c-.196-.382-.294-.824-.294-1.327 0-.507.098-.95.294-1.329.196-.382.474-.678.834-.889.362-.213.791-.319 1.288-.319.496 0 .925.106 1.285.319.362.211.641.507.837.889.196.379.294.822.294 1.329 0 .503-.098.945-.294 1.327a2.16 2.16 0 0 1-.837.888c-.36.211-.789.317-1.285.317Zm.006-1.055a.846.846 0 0 0 .566-.192c.151-.13.265-.307.342-.53.079-.224.118-.479.118-.764 0-.286-.039-.54-.118-.764a1.194 1.194 0 0 0-.342-.531.837.837 0 0 0-.566-.195.865.865 0 0 0-.575.195c-.153.13-.27.307-.348.531a2.34 2.34 0 0 0-.116.764c0 .285.039.54.116.764.078.223.195.4.348.53a.874.874 0 0 0 .575.192Zm4.06.959-1.336-4.909h1.377l.761 3.298h.045l.792-3.298h1.352l.806 3.279h.041l.748-3.279h1.374l-1.333 4.909h-1.441l-.844-3.088h-.06l-.844 3.088h-1.438ZM498.095 376.837a.811.811 0 0 0-.33-.601c-.193-.143-.457-.214-.789-.214-.226 0-.417.032-.572.096a.802.802 0 0 0-.358.259.622.622 0 0 0-.121.377.537.537 0 0 0 .073.307.767.767 0 0 0 .227.227 1.8 1.8 0 0 0 .332.163c.126.044.26.083.403.115l.588.14c.286.064.548.149.786.256.239.107.446.238.62.393.175.156.31.339.406.55.098.211.148.453.15.725a1.81 1.81 0 0 1-.306 1.042c-.201.292-.49.519-.87.681-.377.16-.832.24-1.364.24-.529 0-.989-.081-1.381-.243a2.023 2.023 0 0 1-.914-.719c-.217-.32-.331-.715-.342-1.186h1.339c.015.219.078.403.189.55.113.145.263.254.45.329.19.072.404.109.643.109.234 0 .438-.035.61-.103a.937.937 0 0 0 .406-.284.658.658 0 0 0 .144-.419.548.548 0 0 0-.131-.371.99.99 0 0 0-.377-.255 3.728 3.728 0 0 0-.604-.192l-.713-.179c-.552-.134-.988-.344-1.307-.63-.32-.285-.479-.67-.476-1.153a1.709 1.709 0 0 1 .316-1.039c.215-.296.51-.527.885-.694a3.128 3.128 0 0 1 1.279-.249c.485 0 .909.083 1.272.249.364.167.647.398.85.694.202.296.307.639.313 1.029h-1.326Zm3.601 1.825v2.838h-1.361v-4.909h1.297v.866h.058a1.38 1.38 0 0 1 .546-.678c.256-.168.566-.252.93-.252.341 0 .639.075.892.224.254.149.451.362.591.639.141.275.211.603.211.984v3.126h-1.361v-2.883c.002-.3-.075-.535-.23-.703-.156-.17-.37-.256-.643-.256a.978.978 0 0 0-.486.119.816.816 0 0 0-.325.345 1.19 1.19 0 0 0-.119.54Zm4.156 2.838v-4.909h1.362v4.909h-1.362Zm.684-5.542a.742.742 0 0 1-.521-.201.657.657 0 0 1 0-.972.735.735 0 0 1 .521-.204c.203 0 .375.068.518.204a.634.634 0 0 1 .217.483.65.65 0 0 1-.217.489.73.73 0 0 1-.518.201Zm1.688 7.383v-6.75h1.342v.824h.061c.059-.132.146-.266.258-.402.116-.139.265-.254.448-.345.185-.094.415-.141.69-.141.358 0 .688.094.991.281.303.186.544.466.726.841.181.373.271.84.271 1.403 0 .547-.088 1.01-.265 1.387-.175.375-.413.659-.716.853-.3.192-.637.288-1.01.288-.264 0-.489-.044-.674-.131a1.382 1.382 0 0 1-.451-.329 1.674 1.674 0 0 1-.268-.406h-.042v2.627h-1.361Zm1.332-4.296c0 .292.041.547.122.764.081.218.198.387.351.508.154.12.34.179.56.179.221 0 .409-.06.562-.182.153-.123.27-.294.348-.511.081-.22.122-.472.122-.758 0-.283-.04-.532-.118-.747a1.105 1.105 0 0 0-.349-.505.879.879 0 0 0-.565-.183.9.9 0 0 0-.563.176 1.106 1.106 0 0 0-.348.499 2.156 2.156 0 0 0-.122.76Zm6.519 2.551c-.505 0-.94-.102-1.304-.307a2.105 2.105 0 0 1-.837-.876c-.196-.379-.294-.827-.294-1.345 0-.505.098-.948.294-1.33.196-.381.472-.678.827-.891.358-.213.778-.32 1.26-.32.324 0 .625.052.904.157.281.102.526.256.735.463.211.207.375.467.492.78.118.311.176.675.176 1.093v.374h-4.145v-.844h2.864c0-.196-.043-.37-.128-.521a.924.924 0 0 0-.355-.355 1.015 1.015 0 0 0-.521-.131c-.207 0-.39.048-.55.144a1.014 1.014 0 0 0-.37.38 1.07 1.07 0 0 0-.138.528v.802c0 .243.045.453.134.63a.992.992 0 0 0 .387.409c.166.096.363.144.591.144.152 0 .29-.022.416-.064a.874.874 0 0 0 .323-.192.842.842 0 0 0 .204-.313l1.259.083a1.699 1.699 0 0 1-.393.792 1.974 1.974 0 0 1-.76.525 2.881 2.881 0 0 1-1.071.185Zm3.061-.096v-4.909h1.32v.856h.051c.089-.304.24-.534.45-.69.211-.158.454-.236.729-.236.068 0 .142.004.221.012.079.009.148.021.207.036v1.208a2.548 2.548 0 0 0-.575-.074c-.2 0-.379.044-.537.131a.973.973 0 0 0-.371.358 1.04 1.04 0 0 0-.134.531v2.777h-1.361ZM561.78 419.41h-1.482l2.259-6.545h1.783l2.257 6.545h-1.483l-1.64-5.05h-.051l-1.643 5.05Zm-.092-2.573h3.503v1.081h-3.503v-1.081Zm6.952-3.972v6.545h-1.362v-6.545h1.362Zm2.371 0v6.545h-1.362v-6.545h1.362Zm3.247 6.641c-.505 0-.94-.102-1.304-.307a2.093 2.093 0 0 1-.838-.875c-.196-.38-.294-.828-.294-1.346 0-.505.098-.948.294-1.33.196-.381.472-.678.828-.891.358-.213.778-.32 1.259-.32.324 0 .626.052.905.157.281.102.526.256.735.463.211.207.375.467.492.78.117.311.176.675.176 1.093v.374h-4.145v-.844h2.863c0-.196-.042-.369-.128-.521a.913.913 0 0 0-.354-.354 1.009 1.009 0 0 0-.521-.132c-.207 0-.39.048-.55.144a1.013 1.013 0 0 0-.371.381 1.074 1.074 0 0 0-.137.527v.802c0 .243.045.453.134.63a.986.986 0 0 0 .387.409c.166.096.363.144.591.144.151 0 .29-.022.416-.064a.832.832 0 0 0 .527-.505l1.259.083a1.726 1.726 0 0 1-.393.793c-.196.223-.45.398-.761.524a2.88 2.88 0 0 1-1.07.185Zm3.769 1.745c-.173 0-.334-.014-.486-.041a1.754 1.754 0 0 1-.37-.1l.306-1.016c.16.049.304.076.432.08a.552.552 0 0 0 .335-.089.67.67 0 0 0 .234-.326l.08-.208-1.761-5.05h1.431l1.017 3.605h.051l1.026-3.605h1.441l-1.908 5.44a2.264 2.264 0 0 1-.374.69 1.522 1.522 0 0 1-.591.457 2.067 2.067 0 0 1-.863.163ZM522.212 260.801h-1.4a1.38 1.38 0 0 0-.157-.483 1.23 1.23 0 0 0-.303-.364 1.34 1.34 0 0 0-.429-.23 1.617 1.617 0 0 0-.521-.08c-.338 0-.634.084-.885.252a1.617 1.617 0 0 0-.585.729c-.138.317-.208.703-.208 1.157 0 .467.07.859.208 1.176.141.318.337.557.588.719.252.162.542.243.873.243.185 0 .357-.024.514-.073a1.34 1.34 0 0 0 .425-.215 1.22 1.22 0 0 0 .307-.348c.083-.136.141-.292.173-.467l1.4.007c-.037.3-.127.59-.272.869a2.64 2.64 0 0 1-1.441 1.263 3.194 3.194 0 0 1-1.129.188 3.094 3.094 0 0 1-1.566-.396 2.809 2.809 0 0 1-1.086-1.148c-.265-.5-.397-1.106-.397-1.818 0-.714.135-1.321.403-1.822.269-.5.633-.882 1.093-1.144.46-.264.978-.396 1.553-.396.38 0 .731.053 1.055.16.326.106.615.262.866.466.252.203.456.451.614.745.16.294.262.631.307 1.01Zm2.247-2.292v6.546h-1.362v-6.546h1.362Zm3.228 6.642c-.497 0-.926-.106-1.288-.317a2.167 2.167 0 0 1-.835-.888c-.196-.382-.294-.824-.294-1.327 0-.507.098-.95.294-1.329a2.14 2.14 0 0 1 .835-.889c.362-.213.791-.319 1.288-.319.496 0 .924.106 1.284.319.363.211.642.507.838.889.196.379.294.822.294 1.329 0 .503-.098.945-.294 1.327a2.155 2.155 0 0 1-.838.888c-.36.211-.788.317-1.284.317Zm.006-1.055a.847.847 0 0 0 .566-.192c.151-.13.265-.307.342-.53.079-.224.118-.479.118-.764 0-.286-.039-.54-.118-.764a1.194 1.194 0 0 0-.342-.531.84.84 0 0 0-.566-.195.865.865 0 0 0-.575.195c-.154.13-.27.307-.349.531a2.368 2.368 0 0 0-.115.764c0 .285.039.54.115.764.079.223.195.4.349.53a.874.874 0 0 0 .575.192Zm7.299-2.551-1.247.077a.643.643 0 0 0-.137-.287.728.728 0 0 0-.278-.208.951.951 0 0 0-.406-.08c-.211 0-.389.045-.534.134-.145.087-.217.205-.217.352a.38.38 0 0 0 .14.297c.094.081.255.146.483.195l.888.179c.478.098.834.256 1.068.473.234.217.351.503.351.856 0 .322-.094.604-.284.847a1.838 1.838 0 0 1-.773.569 2.95 2.95 0 0 1-1.129.202c-.649 0-1.167-.136-1.553-.406a1.584 1.584 0 0 1-.674-1.113l1.339-.07c.04.198.138.35.294.454.155.102.355.153.598.153.238 0 .43-.045.575-.137.147-.094.221-.214.224-.361a.38.38 0 0 0-.157-.304c-.102-.081-.26-.143-.473-.185l-.85-.17c-.48-.095-.836-.262-1.071-.498-.232-.237-.348-.538-.348-.905 0-.315.085-.587.256-.815.172-.228.414-.403.725-.527.313-.124.68-.185 1.099-.185.62 0 1.108.131 1.464.393.358.262.567.619.627 1.07Zm3.125 3.606c-.505 0-.94-.103-1.304-.307a2.105 2.105 0 0 1-.837-.876c-.196-.379-.294-.828-.294-1.345 0-.505.098-.949.294-1.33a2.18 2.18 0 0 1 .827-.892c.358-.213.778-.319 1.26-.319.324 0 .625.052.904.156.281.103.526.257.735.464.211.206.375.466.492.78.118.311.176.675.176 1.093v.374h-4.145v-.844h2.864c0-.196-.043-.37-.128-.521a.918.918 0 0 0-.355-.355 1.015 1.015 0 0 0-.521-.131c-.207 0-.39.048-.55.144-.157.094-.281.22-.37.38a1.07 1.07 0 0 0-.138.528v.802c0 .243.045.452.134.629a.98.98 0 0 0 .387.409c.166.096.363.144.591.144.152 0 .29-.021.416-.064a.858.858 0 0 0 .323-.191.846.846 0 0 0 .204-.314l1.259.083a1.702 1.702 0 0 1-.393.793 1.972 1.972 0 0 1-.76.524 2.86 2.86 0 0 1-1.071.186Zm5.672-5.005v1.022h-2.956v-1.022h2.956Zm-2.285-1.177h1.361v4.577a.61.61 0 0 0 .058.294.315.315 0 0 0 .16.144.65.65 0 0 0 .242.042c.064 0 .128-.006.192-.016l.147-.029.214 1.013a3.704 3.704 0 0 1-.287.073c-.124.03-.274.048-.451.055a2.068 2.068 0 0 1-.863-.131 1.202 1.202 0 0 1-.572-.467c-.136-.211-.203-.477-.201-.799v-4.756ZM538.376 227.555h-2.32v-6.546h2.339c.658 0 1.225.131 1.7.393.476.26.841.634 1.097 1.122.257.488.386 1.072.386 1.752 0 .681-.129 1.267-.386 1.757-.256.49-.624.867-1.103 1.129-.477.262-1.048.393-1.713.393Zm-.936-1.186h.878c.41 0 .754-.072 1.033-.217.281-.147.492-.374.633-.681.142-.309.214-.708.214-1.195 0-.484-.072-.879-.214-1.186a1.39 1.39 0 0 0-.63-.678c-.279-.145-.623-.217-1.032-.217h-.882v4.174Zm7.275 1.282c-.496 0-.926-.106-1.288-.317a2.165 2.165 0 0 1-.834-.888c-.196-.382-.294-.824-.294-1.327 0-.507.098-.95.294-1.329.196-.382.474-.678.834-.889.362-.213.792-.319 1.288-.319s.925.106 1.285.319c.362.211.641.507.837.889.196.379.294.822.294 1.329 0 .503-.098.945-.294 1.327a2.16 2.16 0 0 1-.837.888c-.36.211-.789.317-1.285.317Zm.006-1.055a.846.846 0 0 0 .566-.192c.151-.13.265-.307.342-.53.079-.224.118-.479.118-.764 0-.286-.039-.54-.118-.764a1.194 1.194 0 0 0-.342-.531.837.837 0 0 0-.566-.195.867.867 0 0 0-.575.195c-.153.13-.269.307-.348.531a2.341 2.341 0 0 0-.115.764c0 .285.038.54.115.764.079.223.195.4.348.53a.876.876 0 0 0 .575.192Zm5.432 1.055c-.496 0-.925-.106-1.288-.317a2.165 2.165 0 0 1-.834-.888c-.196-.382-.294-.824-.294-1.327 0-.507.098-.95.294-1.329.196-.382.474-.678.834-.889.363-.213.792-.319 1.288-.319.497 0 .925.106 1.285.319.362.211.642.507.838.889.196.379.294.822.294 1.329 0 .503-.098.945-.294 1.327a2.162 2.162 0 0 1-.838.888c-.36.211-.788.317-1.285.317Zm.007-1.055a.847.847 0 0 0 .566-.192c.151-.13.265-.307.342-.53.078-.224.118-.479.118-.764 0-.286-.04-.54-.118-.764a1.194 1.194 0 0 0-.342-.531.84.84 0 0 0-.566-.195.865.865 0 0 0-.575.195c-.154.13-.27.307-.349.531a2.368 2.368 0 0 0-.115.764c0 .285.039.54.115.764.079.223.195.4.349.53a.874.874 0 0 0 .575.192Zm3.214.959v-4.909h1.32v.856h.051c.09-.305.24-.535.451-.69.211-.158.454-.237.728-.237a2.207 2.207 0 0 1 .429.048v1.208a2.361 2.361 0 0 0-.576-.073c-.2 0-.379.043-.537.131a.957.957 0 0 0-.37.358c-.09.153-.135.33-.135.53v2.778h-1.361ZM511.232 170.734h-1.4a1.368 1.368 0 0 0-.157-.482 1.247 1.247 0 0 0-.732-.595 1.64 1.64 0 0 0-.521-.08c-.338 0-.634.085-.885.253a1.617 1.617 0 0 0-.585.729c-.138.317-.208.703-.208 1.157 0 .466.07.858.208 1.176a1.6 1.6 0 0 0 .588.719c.252.162.543.243.873.243.185 0 .357-.025.514-.074a1.234 1.234 0 0 0 .732-.562c.083-.137.141-.292.173-.467l1.4.006a2.622 2.622 0 0 1-.85 1.614c-.241.218-.529.39-.863.518a3.171 3.171 0 0 1-1.129.189 3.085 3.085 0 0 1-1.566-.397 2.806 2.806 0 0 1-1.086-1.147c-.265-.501-.397-1.107-.397-1.818 0-.714.135-1.321.403-1.822a2.808 2.808 0 0 1 1.093-1.144c.46-.265.978-.397 1.553-.397.38 0 .731.054 1.055.16.326.107.615.262.866.467.252.202.456.45.614.744.16.294.262.631.307 1.01Zm3.104 4.35c-.497 0-.926-.105-1.288-.316a2.158 2.158 0 0 1-.835-.889c-.196-.381-.294-.823-.294-1.326 0-.507.098-.95.294-1.33.196-.381.474-.677.835-.888.362-.213.791-.32 1.288-.32.496 0 .924.107 1.284.32.363.211.642.507.838.888.196.38.294.823.294 1.33 0 .503-.098.945-.294 1.326-.196.38-.475.676-.838.889-.36.211-.788.316-1.284.316Zm.006-1.055a.847.847 0 0 0 .566-.191c.151-.13.265-.307.342-.531.078-.224.118-.478.118-.764 0-.285-.04-.54-.118-.764a1.197 1.197 0 0 0-.342-.53.84.84 0 0 0-.566-.195.865.865 0 0 0-.575.195c-.154.13-.27.307-.349.53a2.373 2.373 0 0 0-.115.764c0 .286.039.54.115.764.079.224.195.401.349.531a.873.873 0 0 0 .575.191Zm3.214.959v-4.909h1.32v.857h.051c.09-.305.24-.535.451-.691.211-.157.454-.236.728-.236a1.945 1.945 0 0 1 .429.048v1.208a1.83 1.83 0 0 0-.266-.051 2.374 2.374 0 0 0-.31-.023c-.2 0-.379.044-.537.131a.971.971 0 0 0-.505.889v2.777h-1.361Zm4.963-2.838v2.838h-1.361v-4.909h1.297v.866h.058c.108-.285.291-.511.546-.677.256-.169.566-.253.93-.253.341 0 .638.075.892.224.254.149.451.362.591.639.141.275.211.603.211.985v3.125h-1.361v-2.883c.002-.3-.075-.534-.23-.703-.156-.17-.37-.255-.643-.255a.977.977 0 0 0-.486.118.83.83 0 0 0-.326.345 1.202 1.202 0 0 0-.118.54Zm6.393 2.934c-.505 0-.939-.102-1.304-.307a2.097 2.097 0 0 1-.837-.875c-.196-.38-.294-.828-.294-1.346 0-.505.098-.948.294-1.329a2.17 2.17 0 0 1 .828-.892c.358-.213.778-.32 1.259-.32.324 0 .625.052.905.157a2.014 2.014 0 0 1 1.227 1.243c.117.311.176.676.176 1.093v.374h-4.146v-.844h2.864c0-.196-.043-.369-.128-.521a.908.908 0 0 0-.355-.354 1.003 1.003 0 0 0-.521-.131c-.206 0-.389.048-.549.143a1.013 1.013 0 0 0-.371.381 1.074 1.074 0 0 0-.137.527v.802c0 .243.044.453.134.63.091.177.22.313.387.409.166.096.363.144.591.144.151 0 .29-.021.415-.064a.824.824 0 0 0 .528-.505l1.259.083a1.721 1.721 0 0 1-.393.793c-.196.223-.45.398-.761.524a2.881 2.881 0 0 1-1.071.185Zm3.061-.096v-4.909h1.32v.857h.051c.09-.305.24-.535.451-.691a1.19 1.19 0 0 1 .729-.236 1.94 1.94 0 0 1 .428.048v1.208a2.386 2.386 0 0 0-.575-.074c-.201 0-.38.044-.537.131a.974.974 0 0 0-.371.358c-.09.154-.134.331-.134.531v2.777h-1.362ZM424.749 189.337a.81.81 0 0 0-.329-.601c-.194-.143-.457-.214-.79-.214-.226 0-.416.032-.572.096a.808.808 0 0 0-.358.259.622.622 0 0 0-.121.377.537.537 0 0 0 .073.307.779.779 0 0 0 .227.227c.096.061.207.116.333.163.125.044.26.083.402.115l.588.14c.286.064.548.149.787.256.238.107.445.238.62.393.174.156.31.339.405.55.098.211.149.453.151.725a1.811 1.811 0 0 1-.307 1.042c-.2.292-.49.519-.869.681-.378.16-.832.24-1.365.24-.529 0-.989-.081-1.381-.243a2.028 2.028 0 0 1-.914-.719c-.217-.32-.331-.715-.342-1.186h1.339c.015.219.078.403.189.55.113.145.263.254.45.329.19.072.404.109.643.109.234 0 .438-.035.61-.103a.937.937 0 0 0 .406-.284.658.658 0 0 0 .144-.419.548.548 0 0 0-.131-.371.99.99 0 0 0-.377-.255 3.728 3.728 0 0 0-.604-.192l-.713-.179c-.552-.134-.987-.344-1.307-.63-.32-.285-.478-.67-.476-1.153a1.715 1.715 0 0 1 .316-1.039c.215-.296.51-.527.885-.694a3.132 3.132 0 0 1 1.279-.249c.486 0 .91.083 1.272.249.364.167.648.398.85.694.202.296.307.639.313 1.029h-1.326Zm3.64 4.756a2.06 2.06 0 0 1-.838-.163 1.35 1.35 0 0 1-.581-.489c-.141-.218-.211-.488-.211-.812 0-.273.05-.502.15-.687.1-.186.237-.335.409-.448.173-.113.369-.198.588-.255.222-.058.454-.098.697-.122.285-.03.516-.057.69-.083.175-.028.302-.068.381-.121a.27.27 0 0 0 .118-.237v-.019c0-.202-.064-.359-.192-.47-.126-.111-.305-.166-.537-.166-.245 0-.44.054-.585.163a.747.747 0 0 0-.287.403l-1.26-.103c.064-.298.19-.556.378-.773.187-.22.429-.388.725-.505a2.782 2.782 0 0 1 1.036-.179c.272 0 .533.032.783.096.251.064.474.163.668.297.196.134.35.307.463.518.113.209.169.459.169.751V194h-1.291v-.681h-.038a1.366 1.366 0 0 1-.793.678 1.962 1.962 0 0 1-.642.096Zm.39-.94c.2 0 .377-.039.53-.118a.936.936 0 0 0 .361-.326.838.838 0 0 0 .131-.464v-.521a.693.693 0 0 1-.175.077 3.406 3.406 0 0 1-.521.109l-.25.035a1.671 1.671 0 0 0-.418.112.659.659 0 0 0-.278.208.504.504 0 0 0-.099.319c0 .186.067.327.201.425a.878.878 0 0 0 .518.144Zm4.711-1.991V194h-1.361v-4.909h1.297v.866h.058c.108-.285.291-.511.546-.678.256-.168.566-.252.93-.252.341 0 .638.075.892.224.254.149.451.362.591.639.141.275.211.603.211.984V194h-1.361v-2.883c.002-.3-.075-.535-.23-.703-.156-.17-.37-.256-.643-.256a.978.978 0 0 0-.486.119.824.824 0 0 0-.326.345 1.202 1.202 0 0 0-.118.54Zm5.965 2.918c-.373 0-.71-.096-1.013-.288-.3-.194-.539-.478-.716-.853-.175-.377-.262-.84-.262-1.387 0-.563.091-1.03.272-1.403.181-.375.422-.655.722-.841.303-.187.634-.281.994-.281.275 0 .504.047.687.141.186.091.335.206.448.345.115.136.202.27.262.402h.041v-2.46h1.359V194h-1.343v-.786h-.057a1.79 1.79 0 0 1-.272.406 1.34 1.34 0 0 1-.451.329 1.556 1.556 0 0 1-.671.131Zm.432-1.084a.866.866 0 0 0 .556-.179c.153-.121.27-.29.351-.508.083-.217.125-.472.125-.764 0-.291-.04-.545-.121-.76a1.097 1.097 0 0 0-.352-.499.895.895 0 0 0-.559-.176.88.88 0 0 0-.566.183c-.153.121-.27.289-.348.505a2.16 2.16 0 0 0-.119.747c0 .286.04.538.119.758.081.217.197.388.348.511a.88.88 0 0 0 .566.182Zm4.368 1.004-1.336-4.909h1.378l.761 3.298h.044l.793-3.298h1.352l.805 3.279h.042l.748-3.279h1.374L448.883 194h-1.441l-.844-3.087h-.061l-.843 3.087h-1.439Zm6.606 0v-4.909h1.362V194h-1.362Zm.684-5.542a.742.742 0 0 1-.521-.201.654.654 0 0 1-.214-.489c0-.188.071-.349.214-.483a.735.735 0 0 1 .521-.204c.203 0 .375.068.518.204a.634.634 0 0 1 .217.483.65.65 0 0 1-.217.489.73.73 0 0 1-.518.201Zm4.299.633v1.023h-2.957v-1.023h2.957Zm-2.286-1.176h1.362v4.576a.63.63 0 0 0 .057.295.317.317 0 0 0 .16.143.658.658 0 0 0 .243.042c.064 0 .128-.005.192-.016l.147-.029.214 1.013a3.557 3.557 0 0 1-.288.074c-.123.03-.273.048-.45.054a2.068 2.068 0 0 1-.863-.131 1.202 1.202 0 0 1-.572-.467c-.137-.21-.204-.477-.202-.799v-4.755Zm5.257 6.181c-.503 0-.936-.107-1.298-.32a2.157 2.157 0 0 1-.831-.895c-.192-.381-.287-.82-.287-1.316 0-.503.096-.944.29-1.324.196-.381.474-.678.835-.891.36-.215.788-.323 1.284-.323.429 0 .804.078 1.125.233.322.156.577.374.764.655.188.282.291.612.31.991h-1.285a.992.992 0 0 0-.287-.591.826.826 0 0 0-.604-.227.912.912 0 0 0-.553.173 1.102 1.102 0 0 0-.365.495 2.125 2.125 0 0 0-.131.789c0 .314.043.58.128.799.088.22.21.387.368.502a.912.912 0 0 0 .553.173.894.894 0 0 0 .418-.096.81.81 0 0 0 .31-.278c.084-.124.138-.272.163-.444h1.285a1.997 1.997 0 0 1-.307.99 1.847 1.847 0 0 1-.751.665c-.319.16-.697.24-1.134.24Zm4.344-2.934V194h-1.361v-6.545h1.323v2.502h.058c.11-.29.289-.517.537-.681.247-.166.557-.249.93-.249.341 0 .638.075.891.224.256.147.454.359.595.636.143.275.213.604.211.987V194h-1.362v-2.883c.002-.302-.074-.538-.23-.706-.153-.168-.369-.253-.646-.253a1 1 0 0 0-.492.119.838.838 0 0 0-.332.345 1.176 1.176 0 0 0-.122.54ZM393.052 322.951h1.707l1.802 4.397h.077l1.803-4.397h1.706v6.545h-1.342v-4.26h-.054l-1.694 4.228h-.914l-1.694-4.244h-.055v4.276h-1.342v-6.545Zm8.129 6.545v-4.909h1.361v4.909h-1.361Zm.684-5.542a.74.74 0 0 1-.521-.201.654.654 0 0 1-.214-.489c0-.188.071-.349.214-.483a.734.734 0 0 1 .521-.204c.202 0 .375.068.518.204a.634.634 0 0 1 .217.483.65.65 0 0 1-.217.489.73.73 0 0 1-.518.201Zm3.496 5.622a1.85 1.85 0 0 1-1.013-.288c-.301-.194-.539-.478-.716-.853-.175-.377-.262-.839-.262-1.387 0-.563.09-1.03.272-1.403.181-.375.421-.655.722-.841.302-.187.634-.281.994-.281.275 0 .504.047.687.141a1.3 1.3 0 0 1 .447.345c.115.136.203.27.263.403h.041v-2.461h1.358v6.545h-1.342v-.786h-.057a1.769 1.769 0 0 1-.272.406 1.34 1.34 0 0 1-.451.329 1.556 1.556 0 0 1-.671.131Zm.431-1.083c.22 0 .405-.06.557-.179.153-.122.27-.291.351-.509.083-.217.125-.472.125-.763 0-.292-.041-.546-.122-.761a1.1 1.1 0 0 0-.351-.499.897.897 0 0 0-.56-.175.878.878 0 0 0-.565.182c-.154.121-.27.289-.349.505a2.187 2.187 0 0 0-.118.748c0 .285.04.538.118.757.081.217.198.388.349.511a.879.879 0 0 0 .565.183Zm5.21 1.083a1.85 1.85 0 0 1-1.013-.288c-.301-.194-.539-.478-.716-.853-.175-.377-.262-.839-.262-1.387 0-.563.09-1.03.271-1.403.181-.375.422-.655.723-.841.302-.187.633-.281.994-.281a1.5 1.5 0 0 1 .687.141c.185.091.334.206.447.345.115.136.203.27.262.403h.042v-2.461h1.358v6.545h-1.342v-.786h-.058a1.763 1.763 0 0 1-.271.406 1.361 1.361 0 0 1-.451.329 1.556 1.556 0 0 1-.671.131Zm.431-1.083a.87.87 0 0 0 .556-.179c.154-.122.271-.291.352-.509.083-.217.124-.472.124-.763 0-.292-.04-.546-.121-.761a1.095 1.095 0 0 0-.352-.499.892.892 0 0 0-.559-.175.881.881 0 0 0-.566.182 1.111 1.111 0 0 0-.348.505 2.163 2.163 0 0 0-.118.748c0 .285.039.538.118.757.081.217.197.388.348.511a.882.882 0 0 0 .566.183Zm4.762-5.542v6.545h-1.362v-6.545h1.362Zm3.247 6.641c-.505 0-.94-.102-1.304-.307a2.102 2.102 0 0 1-.838-.876c-.196-.379-.294-.827-.294-1.345 0-.505.098-.948.294-1.33.196-.381.472-.678.828-.891.358-.213.778-.32 1.259-.32.324 0 .626.052.905.157.281.102.526.256.735.463.211.207.375.467.492.78.117.311.176.675.176 1.093v.374h-4.145v-.844h2.863c0-.196-.042-.37-.127-.521a.931.931 0 0 0-.355-.355 1.015 1.015 0 0 0-.521-.131c-.207 0-.39.048-.55.144a1.013 1.013 0 0 0-.371.381 1.074 1.074 0 0 0-.137.527v.802c0 .243.045.453.134.63a.986.986 0 0 0 .387.409c.166.096.363.144.591.144.151 0 .29-.022.416-.064a.832.832 0 0 0 .527-.505l1.259.083a1.718 1.718 0 0 1-.393.792 1.97 1.97 0 0 1-.761.525 2.872 2.872 0 0 1-1.07.185Z"/></g><defs><linearGradient id="b" x1="504.174" x2="504.174" y1="430.621" y2="463.855" gradientUnits="userSpaceOnUse"><stop stop-color="#181B21" stop-opacity="0"/><stop offset="1" stop-color="#181B21"/></linearGradient></defs></svg>