<svg xmlns="http://www.w3.org/2000/svg" width="708" height="708" fill="none"><g clip-path="url(#a)"><mask id="f" width="282" height="389" x="85" y="-9" maskUnits="userSpaceOnUse" style="mask-type:alpha"><path fill="url(#b)" d="M226.285 94.29h102.764v126.531H226.285z" transform="rotate(-90 226.285 94.29)"/><path fill="url(#c)" d="M215 175.999h20v29h-20z" transform="rotate(-90 215 175.999)"/><path fill="url(#d)" d="M308.295 327.602h-70.629v-19.917h50.713v-31.466h19.916v51.383Z"/><path fill="url(#e)" d="M163.187 371.45H91.721v-19.917h55.064v-17.406h16.402v37.323Z"/><path fill="#181B21" fill-rule="evenodd" d="M91.721 371.45h71.467v-37.323h-16.403v17.406H91.721v19.917ZM215 155.999v20h29v-20h-29ZM226.286-8.475V94.29h126.53V-8.475h-126.53Zm82.01 336.076h-70.63v-19.916h50.713v-31.466h19.917v51.382Zm-206.031-19.08h-11.38v-47.532h77.324v7.531h9.874v-2.51h10.879v-4.352h-6.192v-4.184h-41.675v-11.381h3.682v-3.013h-2.845v-12.72h-26.445v12.72H92.725v-15.565h-6.862v-1.841h6.025v-1.004l-1.84-10.377h1.84v-5.021h12.888v-5.691l9.707-12.72v-27.95h-8.87v-47.198h9.874v-27.95h3.18V84.75h28.62l17.574 4.184h23.264v11.381h3.515V97.47h75.483V61.653h-1.506l-4.184 6.36h-25.608l-2.678-5.021h-3.849V1.568h32.135V7.76h5.69V1.568h69.96V9.6h6.026v72.303h-6.026v6.528h6.026v31.632h-6.026v6.528h6.026v26.779h-6.026v4.686h-8.703v1.339h-17.574v-1.339h-6.694v-4.686h-6.193v15.732h-24.101v5.691h-56.819V157.22h54.476v-3.849h-78.998v-17.574h-4.352v27.114h-47.03v27.95h47.03v5.691h3.515v-6.695h25.44v-11.548h21.758v23.431h-31.131v8.871H191.64v-2.009h-3.515v10.21h4.352v-3.348h19.582v4.854h49.374v26.277h-11.047v6.193h4.519v6.862h6.528v-6.862h4.184v-72.304h67.617v12.888h33.641v15.23h-13.557v6.36h-16.235v6.862h6.026v30.796h-6.026v6.862h6.026v30.963h-6.026v6.528h6.026v31.298h-6.026v6.694h6.026v30.964h-6.026v6.694h6.026v1.507h-6.026v5.355h-31.298v-6.862h-6.694v6.862h-31.298v-6.862h-6.528v6.862h-31.13v-6.862h-6.695v6.862h-2.176v-28.787h-11.213v-3.18h-31.968v-46.863h-9.205v7.866H128.04v7.699h35.315v56.403h-6.862v5.524h-31.131v-5.524h-7.197v5.524H89.378V316.22h12.887v-7.699Zm90.212-61.76h36.821v6.193h-4.854v6.193h-3.347v39.499h-11.046v23.599h-7.197v-56.571h-6.36v-3.849h4.184v-12.218h-41.173v-3.682h-7.196v-2.678h28.285v-2.846h7.866v-3.347h4.017v9.707Zm-32.135 46.529a2.176 2.176 0 1 0-4.351 0 2.176 2.176 0 0 0 4.351 0Z" clip-rule="evenodd"/></mask><g mask="url(#f)"><path fill="#181B21" fill-rule="evenodd" d="M102.265 308.521h-11.38v-47.532h77.324v7.531h9.874v-2.51h10.879v-4.352h-6.192v-4.184h-41.675v-11.381h3.682v-3.013h-2.845v-12.72h-26.445v12.72H92.725v-15.565h-6.862v-1.841h6.025v-1.004l-1.84-10.377h1.84v-5.021h12.888v-5.691l9.707-12.72v-27.95h-8.87v-47.198h9.874v-27.95h3.18V84.75h28.62l17.574 4.184h23.264v11.381h3.515V97.47h75.483V61.653h-1.506l-4.184 6.36h-25.608l-2.678-5.021h-3.849V1.568h32.135V7.76h5.69V1.568h69.96V9.6h6.026v72.303h-6.026v6.528h6.026v31.632h-6.026v6.528h6.026v26.779h-6.026v4.686h-8.703v1.339h-17.574v-1.339h-6.694v-4.686h-6.193v15.732h-24.101v5.691h-56.819V157.22h54.476v-3.849h-78.998v-17.574h-4.352v27.114h-47.03v27.95h47.03v5.691h3.515v-6.695h25.44v-11.548h21.758v23.431h-31.131v8.871H191.64v-2.009h-3.515v10.21h4.352v-3.348h19.582v4.854h49.374v26.277h-11.047v6.193h4.519v6.862h6.528v-6.862h4.184v-72.304h67.617v12.888h33.641v15.23h-13.557v6.36h-16.235v6.862h6.026v30.796h-6.026v6.862h6.026v30.963h-6.026v6.528h6.026v31.298h-6.026v6.694h6.026v30.964h-6.026v6.694h6.026v1.507h-6.026v5.355h-31.298v-6.862h-6.694v6.862h-31.298v-6.862h-6.528v6.862h-31.13v-6.862h-6.695v6.862h-2.176v-28.787h-11.213v-3.18h-31.968v-46.863h-9.205v7.866H128.04v7.699h35.315v56.403h-6.862v5.524h-31.131v-5.524h-7.197v5.524H89.378V316.22h12.887v-7.699Zm90.212-61.76h36.821v6.193h-4.854v6.193h-3.347v39.499h-11.046v23.599h-7.197v-56.571h-6.36v-3.849h4.184v-12.218h-41.173v-3.682h-7.196v-2.678h28.285v-2.846h7.866v-3.347h4.017v9.707Zm-32.135 46.529a2.176 2.176 0 1 0-4.351 0 2.176 2.176 0 0 0 4.351 0Z" clip-rule="evenodd"/></g><mask id="g" width="282" height="379" x="85" y="1" maskUnits="userSpaceOnUse" style="mask-type:alpha"><path fill="#C4C4C4" fill-rule="evenodd" d="M102.265 308.521h-11.38v-47.532h77.324v7.531h9.874v-2.51h10.879v-4.352h-6.192v-4.184h-41.675v-11.381h3.682v-3.013h-2.845v-12.72h-26.445v12.72H92.725v-15.565h-6.862v-1.841h6.025v-1.004l-1.84-10.377h1.84v-5.021h12.888v-5.691l9.707-12.72v-27.95h-8.87v-47.198h9.874v-27.95h3.18V84.75h28.62l17.574 4.184h23.264v11.381h3.515V97.47h75.483V61.653h-1.506l-4.184 6.36h-25.608l-2.678-5.021h-3.849V1.568h32.135V7.76h5.69V1.568h69.96V9.6h6.026v72.303h-6.026v6.528h6.026v31.632h-6.026v6.528h6.026v26.779h-6.026v4.686h-8.703v1.339h-17.574v-1.339h-6.694v-4.686h-6.193v15.732h-24.101v5.691h-56.819V157.22h54.476v-3.849h-78.998v-17.574h-4.352v27.114h-47.03v27.95h47.03v5.691h3.515v-6.695h25.44v-11.548h21.758v23.431h-31.131v8.871H191.64v-2.009h-3.515v10.21h4.352v-3.348h19.582v4.854h49.374v26.277h-11.047v6.193h4.519v6.862h6.528v-6.862h4.184v-72.304h67.617v12.888h33.641v15.23h-13.557v6.36h-16.235v6.862h6.026v30.796h-6.026v6.862h6.026v30.963h-6.026v6.528h6.026v31.298h-6.026v6.694h6.026v30.964h-6.026v6.694h6.026v1.507h-6.026v5.355h-31.298v-6.862h-6.694v6.862h-31.298v-6.862h-6.528v6.862h-31.13v-6.862h-6.695v6.862h-2.176v-28.787h-11.213v-3.18h-31.968v-46.863h-9.205v7.866H128.04v7.699h35.315v56.403h-6.862v5.524h-31.131v-5.524h-7.197v5.524H89.378V316.22h12.887v-7.699Zm90.212-61.76h36.821v6.193h-4.854v6.193h-3.347v39.499h-11.046v23.599h-7.197v-56.571h-6.36v-3.849h4.184v-12.218h-41.173v-3.682h-7.196v-2.678h28.285v-2.846h7.866v-3.347h4.017v9.707Zm-32.135 46.529a2.176 2.176 0 1 0-4.351 0 2.176 2.176 0 0 0 4.351 0Z" clip-rule="evenodd"/></mask><g mask="url(#g)"><path fill="#272A30" d="M267.123 305.844v-27.448h19.75v27.448zm61.592 72.973v-14.394h15.398v14.394zm14.392-170.381v-15.063h23.097v15.063zm-75.984 18.746v-18.745h9.707v18.745zm-10.713 18.744v-20.419h3.682v20.419zm-35.48 20.419v-7.029h2.343v7.029zm3.347-3.68v-9.373h1.674v9.373zm-23.431 26.776v-21.088h1.674v21.088zm64.916-53.261 5.685-8.278 1.519 1.043-5.686 8.278zm.021-34.68 2.403-18.59 9.627 1.244-2.403 18.59zm40.838 177.317v-2.008h15.398v2.008zm-38.16 0v-2.008h30.126v2.008zm-38.16 0v-2.008h30.126v2.008zm29.457-72.973v-8.034h7.364v8.034zm-38.828-17.74v-21.758h11.381v21.758zm-10.377 20.753v-9.707h9.707v9.707zM92.725 358.062v-19.75h5.356v19.75zm-2.678-21.088v-19.75h8.034v19.75zm63.935-28.117v-8.034h15.063v8.034zm-39.5-45.189v-3.347h22.093v3.347zm3.014-34.814v-3.347h22.093v3.347zm1.338-48.869v-16.067h4.352v16.067zm48.203-88.707V89.27h20.754v2.008zm-52.555 99.75v-27.114h1.674v27.114zm-8.703-53.891v-21.423h11.046v21.423z"/><path fill="#272A30" d="m106.113 156.964 1.147-21.392 11.03.591-1.147 21.392zm44.186-12.762 6.149-16.408 15.978 5.988-6.15 16.408zm-11.381 46.826v-27.114h1.674v27.114zm19.478 48.666.728-3.267 7.515 1.675-.728 3.267zm-43.914 30.334-2.398-9.186 2.3-.6 2.399 9.185zm-8.64 59.917-6.423-6.992 6.33-5.814 6.423 6.991zm39.207 46.666-4.792-10.178 9.494-4.47 4.791 10.178z"/><path fill="#272A30" d="m139.588 363.401.737-11.226 10.47.687-.737 11.226zm81.342 7.717V355.72h7.364v15.398z"/><path fill="#272A30" d="m225.055 355.721-3.698-7.902 1.516-.71 3.698 7.902z"/><circle cx="269.298" cy="205.256" r="2.511" fill="#272A30" transform="rotate(-90 269.298 205.256)"/><path fill="#272A30" d="m129.545 349.674 1.025-15.7 15.7 1.026-1.025 15.7zm139.92-243.668v-8.703h8.368v8.703zm41.508 38.496-1.42-8.46 6.995-1.174 1.42 8.46zM271.475 4.246V.23h47.533v4.017zm-3.682 4.019V1.57h3.682v6.695z"/><path fill="#272A30" d="M319.006 13.284V1.568h17.741v11.716z"/><path fill="#272A30" d="M331.393 24.331V9.603h11.716v14.728zm-10.696 19.44-7.717-8.06 9.573-9.165 7.717 8.061z"/><path fill="#272A30" d="m314.338 34.707-7.716-8.06 8.354-7.998 7.717 8.061zm25.422 47.198v-31.13h2.343v31.13zm0 37.826V88.6h2.343v31.131z"/><path stroke="#272A30" d="M91.72 371.454h71.467m-65.776-19.917h49.374v-17.406m120.84-236.66h16.235V41.739m34.812 0v101.425h-9.205v-3.682H192.499m111.947 13.724h16.569m-12.72 174.395h-70.629v-19.917h50.713v-31.465h19.916v51.382Z"/></g><mask id="l" width="401" height="392" x="234" y="309" maskUnits="userSpaceOnUse" style="mask-type:alpha"><path fill="url(#h)" d="M387.461 693.133h67.282v72.303h-67.282z" transform="rotate(-90 387.461 693.133)"/><path fill="url(#i)" d="M526.377 446.768h41.173v49.541h-41.173z" transform="rotate(-90 526.377 446.768)"/><path fill="url(#j)" d="M526.377 460.827h13.055v37.156h-13.055z" transform="rotate(-90 526.377 460.827)"/><path fill="url(#k)" d="M530.395 638.907h50.211v72.303h-50.211z" transform="rotate(-90 530.395 638.907)"/><path fill="#181B21" fill-rule="evenodd" d="m252.395 701-8.033-8.034V559.574h12.887v-4.687h27.448v-10.711h-27.448v-12.218h-22.595v-15.231h10.377v-7.866h17.909v-6.527h-5.691v-28.286h4.686v-6.36h-4.686v-32.636h4.686v-6.36h-4.686v-5.189h9.373v-17.071h64.436v3.347h2.009v-1.674h5.021v-3.849h32.972V390.03h1.171v-3.18h1.172v-1.842h-2.343v-64.771h36.653v-10.879h5.691v11.883h2.343v-11.883h11.716v6.36h6.025v-6.36h32.135v6.36h6.192v-6.36h4.352v6.36h6.193v-6.36h32.469v6.36h6.025v-6.36h32.47v6.36h6.025v-6.36h69.29v8.368H635v72.136h-6.361v6.695H635v31.465h-6.361v6.36H635v26.444h-6.361v5.189h-8.201v1.339h-17.741v-1.339h-6.36v-5.189h-5.857v17.741h-24.436v4.017h-42.01v-4.017h-30.628v-7.531h-10.21v-83.852h-14.895v-5.69h-9.708v23.766h5.691v13.724h15.063c.535 0 .223 34.701 0 52.052h-77.659v-2.343h-4.184v87.031h16.402v-4.686h-2.343v-7.699h-7.03v-43.348h75.483v1.841h4.017v7.531l5.691 5.691v14.059h3.682v-43.516h38.495v38.327h-22.428v3.85h-1.339v13.557h-14.728v-4.017h-3.682v50.043h3.012v-3.85h12.386v-22.762h5.021v6.862h6.36v-6.862h30.461v6.862h6.36v-6.862h37.992v6.862h6.528v-6.862h31.298v6.862H635v30.461h-5.858v7.03H635v31.298h-5.858v6.695H635v30.795h-5.858v6.36H635v2.176h-5.858v4.686h-31.466v-6.36h-6.527v6.36h-31.298v-6.36h-6.527v6.36h-31.131v-6.36h-6.36v6.36h-19.749v-6.36h-3.348v-66.11h-32.971v-58.914h2.678v-3.514h-4.352v-6.528h-5.69v5.356h-3.85v4.686h3.85v47.868H415.58v10.209h-74.647v-72.973h-26.946v8.369h19.917v64.604h-5.021v28.118h12.05v-15.063h40.169v7.531h6.36v51.885h-.335V701H252.395Zm11.381-13.725h-6.527v-11.381h6.527v11.381Zm0-65.441h-6.527v-6.36h6.527v6.36Zm59.249 66.948h22.762v-9.708h-22.762v9.708Zm-38.328-190.466h-3.514v13.557h67.784l7.866-7.866v-18.411h-7.866v11.381h-62.931l-1.339 1.339Zm105.275-71.801v-7.029h12.051v18.912h15.732v-2.343h2.678v6.36h-21.59v-10.711h-42.01v27.783h-7.866v-9.038H332.9v-18.745h-2.009v1.171h-2.008v-1.673h2.008v-5.691h2.009v1.004h57.072Zm-73.14 6.36h-1.841v-1.673h1.841v1.673Zm96.572-93.224h2.678v41.173h11.381v24.77h-4.687v13.892h-2.343v9.54h-2.678v-9.54h-3.682v-22.093h-24.101v-7.197h-2.678v-2.678l-1.841-1.841h6.695a2.51 2.51 0 1 1 3.013 0h4.184l7.364-9.205h6.695v-36.821Zm99.082 121.007v4.017h51.047v-16.737h24.101v-1.841h-11.716v-40.501H526.88v-.002h32.971v-35.315h-2.51l-3.515 6.193h-25.942l-3.348-6.193h-2.678v34.478h2.678v55.901h-12.05ZM374.407 608.445a2.008 2.008 0 1 1 0 4.016 2.008 2.008 0 0 1 0-4.016Zm-29.457-60.587a2.008 2.008 0 1 0-4.016 0 2.008 2.008 0 0 0 4.016 0Zm89.04-184.607a2.176 2.176 0 1 0-4.353 0 2.176 2.176 0 0 0 4.353 0Zm36.988 18.912a2.176 2.176 0 1 1 0 4.353 2.176 2.176 0 0 1 0-4.353Zm55.399-69.122a2.176 2.176 0 1 0-4.351 0 2.176 2.176 0 0 0 4.351 0ZM331.56 550.202a2.008 2.008 0 1 1 .002 4.016 2.008 2.008 0 0 1-.002-4.016Zm-69.29-70.965a2.008 2.008 0 1 0-4.016 0 2.008 2.008 0 0 0 4.016 0Zm187.787 120.171a2.008 2.008 0 1 1 .002 4.016 2.008 2.008 0 0 1-.002-4.016Zm80.17 15.231v-32.47h88.036v87.869h-88.036V635.56h.167v-20.921h-.167Z" clip-rule="evenodd"/></mask><g mask="url(#l)"><path fill="#181B21" fill-rule="evenodd" d="m244.362 692.966 8.033 8.034h134.732v-14.728h23.097v-6.36h7.531v6.36h30.796v-6.36h6.695v-45.525h-74.144v-7.531h-40.169v15.063h-12.05v-28.118h5.021v-64.604h-19.917v-8.369h26.946v72.973h74.647v-10.209h36.821v-47.868h-3.85v-4.686h3.85v-5.356h5.69v6.528h4.352v3.514h-2.678v58.914h32.971v66.11h3.348v6.36h19.749v-6.36h6.36v6.36h31.131v-6.36h6.527v6.36h31.298v-6.36h6.527v6.36h31.466v-4.686H635v-2.176h-5.858v-6.36H635v-30.795h-5.858v-6.695H635v-31.298h-5.858v-7.03H635v-30.461h-5.858v-6.862h-31.298v6.862h-6.528v-6.862h-37.992v6.862h-6.36v-6.862h-30.461v6.862h-6.36v-6.862h-5.021v22.762h-12.386v3.85h-3.012v-50.043h3.682v4.017h14.728v-13.557h1.339v-3.85h22.428v-38.327h-38.495v43.516h-3.682v-14.059l-5.691-5.691v-7.531h-4.017v-1.841h-75.483v43.348h7.03v7.699h2.343v4.686h-16.402v-87.031h4.184v2.343h77.659c.223-17.351.535-52.052 0-52.052h-15.063V405.26h-5.691v-23.766h9.708v5.69h14.895v83.852h10.21v7.531h30.628v4.017h42.01v-4.017h24.436v-17.741h5.857v5.189h6.36v1.339h17.741v-1.339h8.201v-5.189H635v-26.444h-6.361v-6.36H635v-31.465h-6.361v-6.695H635v-72.136h-6.361v-8.368h-69.29v6.36h-6.025v-6.36h-32.47v6.36h-6.025v-6.36H482.36v6.36h-6.193v-6.36h-4.352v6.36h-6.192v-6.36h-32.135v6.36h-6.025v-6.36h-11.716v11.883h-2.343v-11.883h-5.691v10.879H371.06v64.771h2.343v1.842h-1.172v3.18h-1.171v14.226h-32.972v3.849h-5.021v1.674h-2.009v-3.347h-64.436v17.071h-9.373v5.189h4.686v6.36h-4.686v32.636h4.686v6.36h-4.686v28.286h5.691v6.527h-17.909v7.866h-10.377v15.231h22.595v12.218h27.448v10.711h-27.448v4.687h-12.887v133.392Zm12.887-5.691h6.527v-11.381h-6.527v11.381Zm0-65.441h6.527v-6.36h-6.527v6.36Zm88.538 66.948h-22.762v-9.708h22.762v9.708Zm-64.604-190.466h3.514l1.339-1.339h62.931v-11.381h7.866v18.411l-7.866 7.866h-67.784v-13.557Zm108.789-78.83v7.029H332.9v-1.004h-2.009v5.691h-2.008v1.673h2.008v-1.171h2.009v18.745h16.067v9.038h7.866v-27.783h42.01v10.711h21.59v-6.36h-2.678v2.343h-15.732v-18.912h-12.051Zm-74.981 13.389h1.841v-1.673h-1.841v1.673Zm101.091-93.224h-2.678v36.821h-6.695l-7.364 9.205h-4.184a2.51 2.51 0 1 0-3.013 0h-6.695l1.841 1.841v2.678h2.678v7.197h24.101v22.093h3.682v9.54h2.678v-9.54h2.343v-13.892h4.687v-24.77h-11.381v-41.173Zm96.404 125.024v-4.017h12.05v-55.901h-2.678v-34.478h2.678l3.348 6.193h25.942l3.515-6.193h2.51v35.315H526.88v40.503h60.754v1.841H526.88v12.72h36.653v4.017h-51.047ZM376.415 610.453a2.008 2.008 0 1 0-4.016 0 2.008 2.008 0 0 0 4.016 0Zm-33.473-64.603a2.008 2.008 0 1 1 0 4.016 2.008 2.008 0 0 1 0-4.016Zm88.872-184.775a2.176 2.176 0 1 1 0 4.353 2.176 2.176 0 0 1 0-4.353Zm41.34 23.264a2.176 2.176 0 1 0-4.353 0 2.176 2.176 0 0 0 4.353 0Zm51.047-73.474a2.176 2.176 0 1 1 0 4.351 2.176 2.176 0 0 1 0-4.351ZM333.569 552.21a2.008 2.008 0 1 0-4.016 0 2.008 2.008 0 0 0 4.016 0Zm-73.307-74.981a2.008 2.008 0 1 1 0 4.016 2.008 2.008 0 0 1 0-4.016Zm191.804 124.187a2.008 2.008 0 1 0-4.016 0 2.008 2.008 0 0 0 4.016 0Zm78.161-19.247v32.47h50.043v-25.106h20.586v46.027h-70.629v34.478h88.036v-87.869h-88.036Z" clip-rule="evenodd"/></g><mask id="m" width="401" height="392" x="234" y="309" maskUnits="userSpaceOnUse" style="mask-type:alpha"><path fill="#181B21" fill-rule="evenodd" d="m244.362 692.966 8.033 8.034h134.732v-14.728h23.097v-6.36h7.531v6.36h30.796v-6.36h6.695v-45.525h-74.144v-7.531h-40.169v15.063h-12.05v-28.118h5.021v-64.604h-19.917v-8.369h26.946v72.973h74.647v-10.209h36.821v-47.868h-3.85v-4.686h3.85v-5.356h5.69v6.528h4.352v3.514h-2.678v58.914h32.971v66.11h3.348v6.36h19.749v-6.36h6.36v6.36h31.131v-6.36h6.527v6.36h31.298v-6.36h6.527v6.36h31.466v-4.686H635v-2.176h-5.858v-6.36H635v-30.795h-5.858v-6.695H635v-31.298h-5.858v-7.03H635v-30.461h-5.858v-6.862h-31.298v6.862h-6.528v-6.862h-37.992v6.862h-6.36v-6.862h-30.461v6.862h-6.36v-6.862h-5.021v22.762h-12.386v3.85h-3.012v-50.043h3.682v4.017h14.728v-13.557h1.339v-3.85h22.428v-38.327h-38.495v43.516h-3.682v-14.059l-5.691-5.691v-7.531h-4.017v-1.841h-75.483v43.348h7.03v7.699h2.343v4.686h-16.402v-87.031h4.184v2.343h77.659c.223-17.351.535-52.052 0-52.052h-15.063V405.26h-5.691v-23.766h9.708v5.69h14.895v83.852h10.21v7.531h30.628v4.017h42.01v-4.017h24.436v-17.741h5.857v5.189h6.36v1.339h17.741v-1.339h8.201v-5.189H635v-26.444h-6.361v-6.36H635v-31.465h-6.361v-6.695H635v-72.136h-6.361v-8.368h-69.29v6.36h-6.025v-6.36h-32.47v6.36h-6.025v-6.36H482.36v6.36h-6.193v-6.36h-4.352v6.36h-6.192v-6.36h-32.135v6.36h-6.025v-6.36h-11.716v11.883h-2.343v-11.883h-5.691v10.879H371.06v64.771h2.343v1.842h-1.172v3.18h-1.171v14.226h-32.972v3.849h-5.021v1.674h-2.009v-3.347h-64.436v17.071h-9.373v5.189h4.686v6.36h-4.686v32.636h4.686v6.36h-4.686v28.286h5.691v6.527h-17.909v7.866h-10.377v15.231h22.595v12.218h27.448v10.711h-27.448v4.687h-12.887v133.392Zm12.887-5.691h6.527v-11.381h-6.527v11.381Zm0-65.441h6.527v-6.36h-6.527v6.36Zm88.538 66.948h-22.762v-9.708h22.762v9.708Zm-64.604-190.466h3.514l1.339-1.339h62.931v-11.381h7.866v18.411l-7.866 7.866h-67.784v-13.557Zm108.789-78.83v7.029H332.9v-1.004h-2.009v5.691h-2.008v1.673h2.008v-1.171h2.009v18.745h16.067v9.038h7.866v-27.783h42.01v10.711h21.59v-6.36h-2.678v2.343h-15.732v-18.912h-12.051Zm-74.981 13.389h1.841v-1.673h-1.841v1.673Zm101.091-93.224h-2.678v36.821h-6.695l-7.364 9.205h-4.184a2.51 2.51 0 1 0-3.013 0h-6.695l1.841 1.841v2.678h2.678v7.197h24.101v22.093h3.682v9.54h2.678v-9.54h2.343v-13.892h4.687v-24.77h-11.381v-41.173Zm96.404 125.024v-4.017h12.05v-55.901h-2.678v-34.478h2.678l3.348 6.193h25.942l3.515-6.193h2.51v35.315H526.88v40.503h60.754v1.841H526.88v12.72h36.653v4.017h-51.047ZM376.415 610.453a2.008 2.008 0 1 0-4.016 0 2.008 2.008 0 0 0 4.016 0Zm-33.473-64.603a2.008 2.008 0 1 1 0 4.016 2.008 2.008 0 0 1 0-4.016Zm88.872-184.775a2.176 2.176 0 1 1 0 4.353 2.176 2.176 0 0 1 0-4.353Zm41.34 23.264a2.176 2.176 0 1 0-4.353 0 2.176 2.176 0 0 0 4.353 0Zm51.047-73.474a2.176 2.176 0 1 1 0 4.351 2.176 2.176 0 0 1 0-4.351ZM333.569 552.21a2.008 2.008 0 1 0-4.016 0 2.008 2.008 0 0 0 4.016 0Zm-73.307-74.981a2.008 2.008 0 1 1 0 4.016 2.008 2.008 0 0 1 0-4.016Zm191.804 124.187a2.008 2.008 0 1 0-4.016 0 2.008 2.008 0 0 0 4.016 0Zm78.161-19.247v32.47h50.043v-25.106h20.586v46.027h-70.629v34.478h88.036v-87.869h-88.036Z" clip-rule="evenodd"/></mask><g mask="url(#m)"><path fill="#272A30" d="m421.605 657.629 1.025-15.7 15.7 1.026-1.025 15.7zm-37.826-12.365v-10.712h6.025v10.712zm0 20.085v-19.08h6.025v19.08zm-49.205 14.059v-10.377h11.046v10.377zm60.922-65.61v-10.377h19.75v10.377zm52.553-14.392v-36.821h4.017v36.821zm-42.846-86.697v-7.699h11.381v7.699zm70.965-49.541v-10.377h3.347v10.377zm-7.391-32.134-3.99-9.579 1.853-.772 3.99 9.579zm-73.281 91.718v-15.063h2.343v15.063zm20.754-18.746v-3.682H436v3.682z"/><path fill="#272A30" d="m431.646 508.341 2.927-7.192 11.131 4.53-2.926 7.192zm-43.849 61.157.138-14.21 14.93.144-.138 14.21zm-.83-15.26.49-22.085 9.869.22-.49 22.084zm-117.332 80.314v-10.377h20.419v10.377z"/><path fill="#272A30" d="M273.316 624.176v-10.377h10.377v10.377zm-10.711-61.59v-6.695h4.352v6.695zm25.44 29.121v-14.059h21.423v14.059zm23.432-50.88V512.04h28.453v28.787zm-77.325-8.702v-15.063h22.762v15.063zm105.778-4.352V512.04h13.724v15.733zm-12.051-74.981v-2.343h21.088v2.343zm-12.721-2.344v-16.402h18.076v16.402zm43.182-10.376v-8.034h16.737v8.034zm57.91-59.248v-22.762h12.72v22.762zm-15.064-4.352v-34.478h12.385v34.478zm-9.038 23.765v-2.678h18.745v2.678zm-20.753-33.472V353.71h1.674v13.055zm0-29.792v-16.737h14.059v16.737zm44.185-21.09v-6.025h11.716v6.025zm18.076 0v-6.025h31.8v6.025zm30.125 25.44v-11.381h10.712v11.381zm35.817 17.741v-11.381h10.712v11.381zm24.771 22.763v-11.381h33.139v11.381zm37.156 32.136v-8.703h8.368v8.703zm-54.466 46.67.573-15.54 14.291.527-.573 15.54zm95.972-8.177-1.42-8.46 6.995-1.174 1.42 8.46zm-83.013-140.255V300.82h33.139v11.381zm43.515 0v-4.017h47.533v4.017z"/><path fill="#272A30" d="M559.852 316.219v-6.695h3.682v6.695zm51.214 5.021v-11.716h17.741v11.716z"/><path fill="#272A30" d="M623.451 332.286v-14.728h11.716v14.728zm-10.693 19.441-7.716-8.061 9.572-9.164 7.717 8.061z"/><path fill="#272A30" d="m606.396 342.662-7.716-8.061 8.354-7.997 7.716 8.06zm25.424 47.197v-31.131h2.343v31.131zm0 37.829v-31.131h2.343v31.131zm-146.828-54.565-1.126-11.325 21.611-2.15 1.126 11.326zm-21.211-43.515v-11.381h10.712v11.381zM256.914 467.856v-32.804h2.678v32.804zm2.678 0v-3.682h2.678v3.682zm-2.008 33.808v-16.067h2.008v16.067zm9.037-83.016v-12.385h20.419v12.385zm73.029 77.379-1.72-2.063 7.457-6.215 1.72 2.064zm3.625 40.45v-8.703h10.377v8.703zm-33.806 3.011V517.73h2.008v21.758zm21.088 37.157v-20.754h3.013v20.754zm-22.893 87.433-6.229-9.383 9.203-6.109 6.229 9.383zm73.104-8.102v-20.754h3.013v20.754z"/><circle cx="266.119" cy="683.592" r="2.176" fill="#272A30" transform="rotate(-90 266.119 683.592)"/><circle cx="260.43" cy="613.297" r="2.176" fill="#272A30" transform="rotate(-90 260.43 613.297)"/><circle cx="332.732" cy="538.651" r="2.176" fill="#272A30" transform="rotate(-90 332.732 538.651)"/><circle cx="332.396" cy="534.301" r="2.176" fill="#272A30" transform="rotate(-90 332.396 534.301)"/><circle cx="337.084" cy="534.301" r="2.176" fill="#272A30" transform="rotate(-90 337.084 534.301)"/><circle cx="337.754" cy="538.651" r="2.176" fill="#272A30" transform="rotate(-90 337.754 538.651)"/><circle cx="303.609" cy="514.883" r="2.176" fill="#272A30" transform="rotate(-90 303.609 514.883)"/><circle cx="309.301" cy="514.883" r="2.176" fill="#272A30" transform="rotate(-90 309.301 514.883)"/><circle cx="261.768" cy="499.488" r="2.176" fill="#272A30" transform="rotate(-90 261.768 499.488)"/><circle cx="264.445" cy="426.849" r="2.176" fill="#272A30" transform="rotate(-90 264.445 426.849)"/><circle cx="335.075" cy="493.127" r="2.511" fill="#272A30" transform="rotate(-90 335.075 493.127)"/><circle cx="330.055" cy="493.127" r="2.511" fill="#272A30" transform="rotate(-90 330.055 493.127)"/><circle cx="330.055" cy="488.106" r="2.511" fill="#272A30" transform="rotate(-90 330.055 488.106)"/><circle cx="335.075" cy="488.106" r="2.511" fill="#272A30" transform="rotate(-90 335.075 488.106)"/><circle cx="424.786" cy="420.154" r="2.511" fill="#272A30" transform="rotate(-90 424.786 420.154)"/><circle cx="411.061" cy="314.042" r="2.511" fill="#272A30" transform="rotate(-90 411.061 314.042)"/><circle cx="422.442" cy="424.172" r="2.511" fill="#272A30" transform="rotate(-90 422.442 424.172)"/><circle cx="471.983" cy="425.844" r="2.511" fill="#272A30" transform="rotate(-90 471.983 425.844)"/><circle cx="471.983" cy="420.825" r="2.511" fill="#272A30" transform="rotate(-90 471.983 420.825)"/><circle cx="477.005" cy="420.825" r="2.511" fill="#272A30" transform="rotate(-90 477.005 420.825)"/><circle cx="477.005" cy="425.844" r="2.511" fill="#272A30" transform="rotate(-90 477.005 425.844)"/><circle cx="510.477" cy="463.335" r="2.511" fill="#272A30" transform="rotate(-90 510.477 463.335)"/><circle cx="259.258" cy="556.894" r="1.674" fill="#272A30" transform="rotate(-90 259.258 556.894)"/><path fill="#272A30" d="M514.495 325.76v-16.067h-31.633v6.192h-6.695v-6.192h-4.017v6.192h2.176v19.917h12.051V325.76h28.118Z"/><path stroke="#272A30" d="M383.779 679.408h71.467m-65.776-19.917h49.373v-17.406m120.84-236.659h16.235v-55.734m34.813 0v101.426h-9.205v-3.683h-13.725m8.704 13.725h16.569"/></g></g><g class="labels"><mask id="n" width="282" height="379" x="85" y="1" maskUnits="userSpaceOnUse" style="mask-type:alpha"><path fill="#181B21" fill-rule="evenodd" d="M102.267 308.522h-11.38v-47.533h77.323v7.532h9.875v-2.511h10.879v-4.352h-6.192v-4.184h-41.675v-11.381h3.682v-3.012h-2.845v-12.72h-26.445v12.72H92.727v-15.566h-6.862v-1.841h6.026v-1.004l-1.842-10.377h1.841v-5.021h12.888v-5.69l9.707-12.72v-27.951h-8.87v-47.198h9.874v-27.95h3.18V84.75h28.62l17.574 4.184h23.264v11.381h3.515V97.47h75.483V61.653h-1.506l-4.184 6.36h-25.608l-2.678-5.02H229.3V1.567h32.135V7.76h5.69V1.568h69.96v8.034h6.025v72.303h-6.025v6.527h6.025v31.633h-6.025v6.527h6.025v26.779h-6.025v4.686h-8.703v1.339h-17.574v-1.339h-6.694v-4.686h-6.193v15.733H273.82v5.69h-32.804v-17.573h30.461v-3.85h-78.998v-17.574h-4.352v27.114h-47.03v27.951h47.03v5.69h3.515v-6.695h25.44v-11.548h21.758v23.432h-31.131v8.87h-16.067v-2.008h-3.515v10.209h4.352v-3.347h19.582v4.853h49.374v26.277h-11.047v6.193h4.519v6.862h6.528v-6.862h4.184v-72.303h67.617v12.887h33.641v15.231H353.32v6.36h-16.235v6.862h6.025v30.796h-6.025v6.862h6.025v30.963h-6.025v6.527h6.025v31.298h-6.025v6.695h6.025v30.963h-6.025v6.695h6.025v1.506h-6.025v5.356h-31.298v-6.862h-6.694v6.862h-31.298v-6.862h-6.528v6.862h-31.13v-6.862h-6.695v6.862h-2.176v-28.788h-11.213v-3.18h-31.968v-46.863h-9.205v7.867h-40.838v7.699h35.315v56.403h-6.862v5.523h-31.131v-5.523h-7.197v5.523H89.38v-61.926h12.887v-7.699Zm90.212-61.76H229.3v6.192h-4.854v6.193h-3.347v39.499h-11.046v23.599h-7.197v-56.571h-6.36v-3.849h4.184v-12.218h-41.173v-3.682h-7.196v-2.678h28.285v-2.845h7.866v-3.348h4.017v9.708Zm-32.135 46.528a2.175 2.175 0 1 0-4.351.001 2.175 2.175 0 0 0 4.351-.001Z" clip-rule="evenodd"/></mask><g fill="#E44C4D" mask="url(#n)"><path fill-opacity=".25" stroke="#E44C4D" stroke-width="1.5" d="M340.441 280.738h-71.148a2 2 0 0 1-2-2v-95.25a2 2 0 0 1 2-2h59.767a2 2 0 0 1 2 2v9.892a2 2 0 0 0 2 2h7.381a2 2 0 0 1 2 2v81.358a2 2 0 0 1-2 2Z"/><path d="M300.418 227.294h2.672v7.206h1.824v-7.206h2.672v-1.522h-7.168v1.522Z"/></g><path fill="#7F838B" d="M213.355 192.5h4.19v-1.141h-2.806v-5.405h-1.384v6.546Zm6.4.092c.726 0 1.195-.316 1.435-.773h.038v.681h1.292v-3.312c0-1.169-.991-1.661-2.084-1.661-1.176 0-1.95.562-2.138 1.457l1.259.102c.093-.326.383-.566.872-.566.464 0 .729.234.729.636v.02c0 .316-.335.358-1.189.441-.971.089-1.844.415-1.844 1.511 0 .972.694 1.464 1.63 1.464Zm.39-.939c-.419 0-.719-.195-.719-.569 0-.384.316-.572.796-.64.297-.041.783-.111.946-.22v.521c0 .514-.425.908-1.023.908Zm5.159.926c.793 0 1.205-.457 1.393-.866h.058v.787h1.342v-6.546h-1.358v2.461h-.042c-.182-.4-.575-.888-1.396-.888-1.077 0-1.988.837-1.988 2.524 0 1.643.872 2.528 1.991 2.528Zm.431-1.083c-.668 0-1.032-.594-1.032-1.451 0-.85.358-1.435 1.032-1.435.662 0 1.033.559 1.033 1.435s-.377 1.451-1.033 1.451Zm5.21 1.083c.792 0 1.204-.457 1.393-.866h.058v.787h1.342v-6.546h-1.358v2.461h-.042c-.182-.4-.575-.888-1.397-.888-1.077 0-1.988.837-1.988 2.524 0 1.643.873 2.528 1.992 2.528Zm.431-1.083c-.668 0-1.032-.594-1.032-1.451 0-.85.358-1.435 1.032-1.435.662 0 1.032.559 1.032 1.435s-.377 1.451-1.032 1.451Zm5.638 1.099c1.214 0 2.032-.591 2.224-1.502l-1.259-.083c-.138.374-.489.569-.943.569-.681 0-1.112-.451-1.112-1.182v-.004h3.343v-.374c0-1.668-1.01-2.492-2.308-2.492-1.444 0-2.381 1.025-2.381 2.54 0 1.557.924 2.528 2.436 2.528Zm-1.09-3.045a1.036 1.036 0 0 1 1.058-1.007c.591 0 1 .422 1.003 1.007h-2.061Zm4.15 2.95h1.362v-2.778c0-.604.441-1.019 1.042-1.019.188 0 .447.032.575.073v-1.208a2.033 2.033 0 0 0-.428-.048c-.55 0-1.001.32-1.18.927h-.051v-.857h-1.32v4.91Zm16.579 122.095h2.004V320h1.368v-5.405h2.004v-1.141h-5.376v1.141Zm11.733.742h1.327c-.02-1.167-.978-1.972-2.436-1.972-1.435 0-2.486.792-2.48 1.981-.003.965.678 1.518 1.783 1.783l.713.179c.713.173 1.109.378 1.112.819-.003.479-.457.805-1.16.805-.719 0-1.237-.332-1.281-.988h-1.34c.036 1.416 1.049 2.148 2.637 2.148 1.598 0 2.538-.764 2.541-1.962-.003-1.09-.825-1.668-1.962-1.924l-.588-.141c-.569-.131-1.045-.342-1.036-.812 0-.421.374-.731 1.052-.731.661 0 1.067.3 1.118.815Zm4.851-.247h-.923v-1.176h-1.362v1.176h-.671v1.023h.671v2.557c-.006.962.649 1.438 1.637 1.397.351-.013.601-.083.738-.128l-.214-1.013c-.067.012-.211.044-.339.044-.272 0-.46-.102-.46-.479v-2.378h.923v-1.023Zm2.206 5.002c.726 0 1.196-.316 1.435-.773h.039V320h1.291v-3.312c0-1.169-.991-1.661-2.084-1.661-1.176 0-1.95.562-2.138 1.457l1.259.102c.093-.326.384-.566.873-.566.463 0 .728.234.728.636v.02c0 .316-.335.358-1.189.441-.971.089-1.844.415-1.844 1.511 0 .972.694 1.464 1.63 1.464Zm.39-.939c-.419 0-.719-.195-.719-.569 0-.384.316-.572.796-.64.297-.041.783-.111.946-.22v.521c0 .514-.425.908-1.023.908Zm3.35.847h1.362v-4.91h-1.362V320Zm.684-5.542c.406 0 .738-.31.738-.691 0-.377-.332-.687-.738-.687-.403 0-.735.31-.735.687 0 .381.332.691.735.691Zm1.687 5.542h1.362v-2.778c0-.604.441-1.019 1.042-1.019.188 0 .447.032.575.073v-1.208a2.033 2.033 0 0 0-.428-.048c-.55 0-1.001.32-1.18.927h-.051v-.857h-1.32V320Zm7.686-3.51c-.121-.904-.85-1.463-2.09-1.463-1.256 0-2.084.581-2.08 1.527-.004.735.46 1.211 1.419 1.403l.85.17c.428.086.623.243.629.489-.006.29-.322.498-.799.498-.485 0-.808-.208-.891-.607l-1.34.07c.128.94.927 1.518 2.228 1.518 1.272 0 2.183-.648 2.186-1.617-.003-.709-.466-1.134-1.419-1.329l-.888-.179c-.457-.099-.627-.256-.624-.493-.003-.294.33-.485.752-.485.473 0 .754.259.821.575l1.246-.077Zm-71.469-38.895h2.004V283h1.367v-5.405h2.004v-1.141h-5.375v1.141Zm7.66 5.5c1.49 0 2.416-1.019 2.416-2.531 0-1.521-.926-2.537-2.416-2.537-1.489 0-2.416 1.016-2.416 2.537 0 1.512.927 2.531 2.416 2.531Zm.007-1.054c-.688 0-1.039-.63-1.039-1.486 0-.857.351-1.49 1.039-1.49.674 0 1.025.633 1.025 1.49 0 .856-.351 1.486-1.025 1.486Zm3.214.959h1.361v-4.91h-1.361V283Zm.684-5.542c.406 0 .738-.31.738-.691 0-.377-.332-.687-.738-.687-.403 0-.735.31-.735.687 0 .381.332.691.735.691Zm3.048-1.004h-1.361V283h1.361v-6.546Zm3.247 6.641c1.215 0 2.033-.591 2.225-1.502l-1.26-.083c-.137.374-.489.569-.942.569-.681 0-1.113-.451-1.113-1.182v-.004h3.343v-.374c0-1.668-1.01-2.492-2.307-2.492-1.445 0-2.381 1.025-2.381 2.54 0 1.557.923 2.528 2.435 2.528Zm-1.09-3.045a1.037 1.037 0 0 1 1.058-1.007c.591 0 1.001.422 1.004 1.007h-2.062Zm6.762-1.96h-.924v-1.176h-1.361v1.176h-.671v1.023h.671v2.557c-.007.962.649 1.438 1.636 1.397.352-.013.601-.083.739-.128l-.215-1.013c-.067.012-.211.044-.338.044-.272 0-.461-.102-.461-.479v-2.378h.924v-1.023Zm4.82 1.4c-.121-.904-.85-1.463-2.09-1.463-1.256 0-2.084.581-2.081 1.527-.003.735.461 1.211 1.419 1.403l.85.17c.429.086.624.243.63.489-.006.29-.323.498-.799.498-.486 0-.808-.208-.892-.607l-1.339.07c.128.94.927 1.518 2.228 1.518 1.272 0 2.183-.648 2.186-1.617-.003-.709-.467-1.134-1.419-1.329l-.889-.179c-.457-.099-.626-.256-.623-.493-.003-.294.329-.485.751-.485.473 0 .755.259.822.575l1.246-.077Zm-91.172-31.036v4.133c0 .747-.525 1.288-1.33 1.288-.802 0-1.33-.541-1.33-1.288v-4.133h-1.383v4.251c0 1.432 1.08 2.387 2.713 2.387 1.627 0 2.713-.955 2.713-2.387v-4.251h-1.383Zm3.777 3.707c.003-.632.38-1.003.93-1.003.546 0 .876.358.872.959V255h1.362v-3.126c0-1.144-.671-1.847-1.694-1.847-.729 0-1.256.357-1.476.93h-.058v-.867h-1.298V255h1.362v-2.839Zm5.965 2.918c.793 0 1.205-.457 1.393-.866h.058V255h1.342v-6.546h-1.358v2.461h-.042c-.182-.4-.575-.888-1.396-.888-1.077 0-1.988.837-1.988 2.524 0 1.643.872 2.528 1.991 2.528Zm.431-1.083c-.668 0-1.032-.594-1.032-1.451 0-.85.358-1.435 1.032-1.435.662 0 1.033.559 1.033 1.435s-.377 1.451-1.033 1.451Zm5.638 1.099c1.214 0 2.033-.591 2.224-1.502l-1.259-.083c-.137.374-.489.569-.943.569-.68 0-1.112-.451-1.112-1.182v-.004h3.343v-.374c0-1.668-1.01-2.492-2.307-2.492-1.445 0-2.381 1.025-2.381 2.54 0 1.557.923 2.528 2.435 2.528Zm-1.09-3.045a1.037 1.037 0 0 1 1.058-1.007c.591 0 1 .422 1.004 1.007h-2.062Zm4.151 2.95h1.361v-2.778c0-.604.441-1.019 1.042-1.019.189 0 .447.032.575.073v-1.208a2.025 2.025 0 0 0-.428-.048c-.55 0-1 .32-1.179.927h-.051v-.857h-1.32V255Zm3.601 1.84h1.362v-2.627h.041c.189.409.601.866 1.394.866 1.118 0 1.991-.885 1.991-2.528 0-1.687-.911-2.524-1.988-2.524-.821 0-1.215.488-1.397.888h-.06v-.825h-1.343v6.75Zm1.333-4.295c0-.876.371-1.435 1.032-1.435.675 0 1.033.585 1.033 1.435 0 .857-.365 1.451-1.033 1.451-.655 0-1.032-.575-1.032-1.451Zm5.681 2.547c.726 0 1.196-.316 1.435-.773h.039V255h1.291v-3.312c0-1.169-.991-1.661-2.084-1.661-1.176 0-1.949.562-2.138 1.457l1.259.102c.093-.326.384-.566.873-.566.463 0 .728.234.728.636v.02c0 .316-.335.358-1.188.441-.972.089-1.845.415-1.845 1.511 0 .972.694 1.464 1.63 1.464Zm.39-.939c-.418 0-.719-.195-.719-.569 0-.384.317-.572.796-.64.297-.041.783-.111.946-.22v.521c0 .514-.425.908-1.023.908Zm7.435-2.663c-.122-.904-.85-1.463-2.09-1.463-1.256 0-2.084.581-2.081 1.527-.003.735.46 1.211 1.419 1.403l.85.17c.428.086.623.243.63.489-.007.29-.323.498-.799.498-.486 0-.809-.208-.892-.607l-1.339.07c.128.94.927 1.518 2.228 1.518 1.272 0 2.182-.648 2.186-1.617-.004-.709-.467-1.134-1.419-1.329l-.889-.179c-.457-.099-.626-.256-.623-.493-.003-.294.329-.485.751-.485.473 0 .754.259.821.575l1.247-.077Zm4.972 0c-.121-.904-.85-1.463-2.09-1.463-1.256 0-2.084.581-2.08 1.527-.004.735.46 1.211 1.419 1.403l.85.17c.428.086.623.243.629.489-.006.29-.322.498-.799.498-.485 0-.808-.208-.891-.607l-1.339.07c.127.94.926 1.518 2.227 1.518 1.272 0 2.183-.648 2.186-1.617-.003-.709-.466-1.134-1.419-1.329l-.888-.179c-.457-.099-.627-.256-.623-.493-.004-.294.329-.485.751-.485.473 0 .754.259.821.575l1.246-.077Zm-98.708-34.153h1.327c-.02-1.167-.978-1.972-2.436-1.972-1.435 0-2.486.792-2.48 1.981-.003.965.678 1.518 1.784 1.783l.712.179c.713.173 1.11.378 1.112.819-.003.479-.457.805-1.16.805-.719 0-1.236-.332-1.281-.988h-1.34c.036 1.416 1.049 2.148 2.637 2.148 1.598 0 2.538-.764 2.541-1.962-.003-1.09-.824-1.668-1.962-1.924l-.588-.141c-.57-.131-1.045-.342-1.036-.812 0-.421.374-.731 1.052-.731.661 0 1.067.3 1.118.815Zm3.64 4.755c.726 0 1.196-.316 1.435-.773h.039V222h1.291v-3.312c0-1.169-.991-1.661-2.084-1.661-1.176 0-1.95.562-2.138 1.457l1.259.102c.093-.326.384-.566.873-.566.463 0 .728.234.728.636v.02c0 .316-.335.358-1.189.441-.971.089-1.844.415-1.844 1.511 0 .972.694 1.464 1.63 1.464Zm.39-.939c-.418 0-.719-.195-.719-.569 0-.384.316-.572.796-.64.297-.041.783-.111.946-.22v.521c0 .514-.425.908-1.023.908Zm7.751-4.063h-1.441l-1.017 3.513h-.051l-1.019-3.513h-1.439l1.717 4.91h1.534l1.716-4.91Zm2.686 5.005c1.214 0 2.033-.591 2.224-1.502l-1.259-.083c-.137.374-.489.569-.943.569-.68 0-1.112-.451-1.112-1.182v-.004h3.343v-.374c0-1.668-1.01-2.492-2.307-2.492-1.445 0-2.381 1.025-2.381 2.54 0 1.557.923 2.528 2.435 2.528Zm-1.09-3.045a1.037 1.037 0 0 1 1.058-1.007c.591 0 1 .422 1.004 1.007h-2.062Zm-12.968 10.287h1.326c-.019-1.167-.978-1.972-2.435-1.972-1.435 0-2.486.792-2.48 1.981-.003.965.677 1.518 1.783 1.783l.713.179c.713.173 1.109.378 1.112.819-.003.479-.457.805-1.16.805-.72 0-1.237-.332-1.282-.988h-1.339c.035 1.416 1.049 2.148 2.637 2.148 1.598 0 2.538-.764 2.541-1.962-.003-1.09-.825-1.668-1.963-1.924l-.588-.141c-.569-.131-1.045-.342-1.035-.812 0-.421.374-.731 1.051-.731.662 0 1.068.3 1.119.815Zm2.24 6.503h1.362v-2.627h.041c.189.409.601.866 1.394.866 1.118 0 1.991-.885 1.991-2.528 0-1.687-.911-2.524-1.988-2.524-.822 0-1.215.488-1.397.888h-.061v-.825h-1.342v6.75Zm1.333-4.295c0-.876.371-1.435 1.032-1.435.675 0 1.032.585 1.032 1.435 0 .857-.364 1.451-1.032 1.451-.655 0-1.032-.575-1.032-1.451Zm6.499 2.55c1.49 0 2.417-1.019 2.417-2.531 0-1.521-.927-2.537-2.417-2.537-1.489 0-2.416 1.016-2.416 2.537 0 1.512.927 2.531 2.416 2.531Zm.007-1.054c-.687 0-1.039-.63-1.039-1.486 0-.857.352-1.49 1.039-1.49.674 0 1.026.633 1.026 1.49 0 .856-.352 1.486-1.026 1.486Zm5.825-3.951h-.924v-1.176h-1.361v1.176h-.671v1.023h.671v2.557c-.006.962.649 1.438 1.636 1.397.352-.013.601-.083.739-.128l-.215-1.013c-.067.012-.21.044-.338.044-.272 0-.461-.102-.461-.479v-2.378h.924v-1.023Zm.491-49.59h2.796c1.471 0 2.254-.768 2.254-1.809 0-.969-.694-1.554-1.439-1.589v-.064c.681-.153 1.183-.636 1.183-1.406 0-.981-.729-1.678-2.173-1.678h-2.621v6.546Zm1.384-1.132v-1.739h1.16c.665 0 1.077.384 1.077.924 0 .492-.336.815-1.109.815h-1.128Zm0-2.675v-1.62h1.051c.614 0 .962.316.962.789 0 .518-.422.831-.987.831h-1.026Zm4.46 3.807h1.361v-2.778c0-.604.441-1.019 1.042-1.019.189 0 .447.032.575.073v-1.208a2.025 2.025 0 0 0-.428-.048c-.55 0-1 .32-1.179.927h-.051v-.857h-1.32v4.91Zm3.601 0h1.362v-4.91h-1.362v4.91Zm.684-5.542c.406 0 .738-.31.738-.691 0-.377-.332-.687-.738-.687-.403 0-.735.31-.735.687 0 .381.332.691.735.691Zm3.496 5.621c.793 0 1.205-.457 1.394-.866h.057v.787h1.343v-6.546h-1.359v2.461h-.041c-.182-.4-.576-.888-1.397-.888-1.077 0-1.988.837-1.988 2.524 0 1.643.873 2.528 1.991 2.528Zm.432-1.083c-.668 0-1.033-.594-1.033-1.451 0-.85.358-1.435 1.033-1.435.661 0 1.032.559 1.032 1.435s-.377 1.451-1.032 1.451Zm5.612 2.947c1.403 0 2.4-.64 2.4-1.896v-4.957h-1.352v.825h-.051c-.182-.4-.582-.888-1.403-.888-1.077 0-1.988.837-1.988 2.508 0 1.634.885 2.394 1.991 2.394.783 0 1.221-.393 1.4-.799h.057v.898c0 .675-.431.937-1.022.937-.601 0-.905-.262-1.017-.56l-1.259.17c.163.773.921 1.368 2.244 1.368Zm.028-3.037c-.668 0-1.032-.53-1.032-1.377 0-.834.358-1.419 1.032-1.419.662 0 1.033.559 1.033 1.419 0 .866-.377 1.377-1.033 1.377Zm5.612 1.189c1.214 0 2.032-.591 2.224-1.502l-1.259-.083c-.138.374-.489.569-.943.569-.681 0-1.112-.451-1.112-1.182v-.004h3.343v-.374c0-1.668-1.01-2.492-2.308-2.492-1.444 0-2.381 1.025-2.381 2.54 0 1.557.924 2.528 2.436 2.528Zm-1.09-3.045a1.036 1.036 0 0 1 1.058-1.007c.591 0 1 .422 1.003 1.007h-2.061Zm-33.604-49.713h1.326c-.019-1.167-.978-1.972-2.435-1.972-1.435 0-2.487.792-2.48 1.981-.004.965.677 1.518 1.783 1.783l.713.179c.712.173 1.109.378 1.112.819-.003.479-.457.805-1.16.805-.719 0-1.237-.332-1.282-.988h-1.339c.035 1.416 1.048 2.148 2.637 2.148 1.598 0 2.537-.764 2.541-1.962-.004-1.09-.825-1.668-1.963-1.924l-.588-.141c-.569-.131-1.045-.342-1.035-.812 0-.421.374-.731 1.051-.731.662 0 1.068.3 1.119.815Zm3.601 1.824c.004-.632.39-1.003.946-1.003.553 0 .879.355.876.959v2.883h1.362v-3.126c.003-1.151-.675-1.847-1.698-1.847-.744 0-1.243.351-1.466.93h-.058v-2.503h-1.323v6.546h1.361v-2.839Zm6.411 2.934c1.215 0 2.033-.591 2.225-1.502l-1.26-.083c-.137.374-.489.569-.942.569-.681 0-1.113-.451-1.113-1.182v-.004h3.343v-.374c0-1.668-1.009-2.492-2.307-2.492-1.445 0-2.381 1.025-2.381 2.54 0 1.557.924 2.528 2.435 2.528Zm-1.09-3.045a1.037 1.037 0 0 1 1.058-1.007c.592 0 1.001.422 1.004 1.007h-2.062Zm6.388 3.045c1.215 0 2.033-.591 2.225-1.502l-1.26-.083c-.137.374-.489.569-.942.569-.681 0-1.113-.451-1.113-1.182v-.004h3.343v-.374c0-1.668-1.01-2.492-2.307-2.492-1.445 0-2.381 1.025-2.381 2.54 0 1.557.923 2.528 2.435 2.528Zm-1.09-3.045a1.037 1.037 0 0 1 1.058-1.007c.591 0 1.001.422 1.004 1.007h-2.062Zm6.762-1.96h-.924v-1.176h-1.361v1.176h-.671v1.023h.671v2.557c-.007.962.649 1.438 1.636 1.397.352-.013.601-.083.738-.128l-.214-1.013c-.067.012-.211.044-.338.044-.272 0-.461-.102-.461-.479v-2.378h.924v-1.023Zm4.82 1.4c-.121-.904-.85-1.463-2.09-1.463-1.256 0-2.084.581-2.081 1.527-.003.735.461 1.211 1.419 1.403l.85.17c.429.086.624.243.63.489-.006.29-.323.498-.799.498-.486 0-.809-.208-.892-.607l-1.339.07c.128.94.927 1.518 2.228 1.518 1.272 0 2.183-.648 2.186-1.617-.003-.709-.467-1.134-1.419-1.329l-.889-.179c-.457-.099-.626-.256-.623-.493-.003-.294.329-.485.751-.485.473 0 .755.259.822.575l1.246-.077Zm9.747 6.51h2.797c1.47 0 2.253-.768 2.253-1.809 0-.969-.694-1.554-1.438-1.589v-.064c.68-.153 1.182-.636 1.182-1.406 0-.981-.729-1.678-2.173-1.678h-2.621v6.546Zm1.384-1.132v-1.739h1.16c.665 0 1.077.384 1.077.924 0 .492-.335.815-1.109.815h-1.128Zm0-2.675v-1.62h1.051c.614 0 .962.316.962.789 0 .518-.422.831-.987.831h-1.026Zm4.46 3.807h1.361v-4.91h-1.361v4.91Zm.684-5.542c.405 0 .738-.31.738-.691 0-.377-.333-.687-.738-.687-.403 0-.736.31-.736.687 0 .381.333.691.736.691Zm3.898 7.485c1.403 0 2.401-.64 2.401-1.896v-4.957h-1.352v.825h-.051c-.183-.4-.582-.888-1.403-.888-1.078 0-1.988.837-1.988 2.508 0 1.634.885 2.394 1.991 2.394.783 0 1.221-.393 1.4-.799h.057v.898c0 .675-.431.937-1.023.937-.6 0-.904-.262-1.016-.56l-1.259.17c.163.773.92 1.368 2.243 1.368Zm.029-3.037c-.668 0-1.032-.53-1.032-1.377 0-.834.358-1.419 1.032-1.419.662 0 1.033.559 1.033 1.419 0 .866-.378 1.377-1.033 1.377Zm5.402 1.094h2.796c1.47 0 2.253-.768 2.253-1.809 0-.969-.693-1.554-1.438-1.589v-.064c.681-.153 1.183-.636 1.183-1.406 0-.981-.729-1.678-2.174-1.678h-2.62v6.546Zm1.384-1.132v-1.739h1.16c.664 0 1.077.384 1.077.924 0 .492-.336.815-1.109.815h-1.128Zm0-2.675v-1.62h1.051c.614 0 .962.316.962.789 0 .518-.422.831-.988.831h-1.025Zm6.677 3.902c1.49 0 2.417-1.019 2.417-2.531 0-1.521-.927-2.537-2.417-2.537-1.489 0-2.416 1.016-2.416 2.537 0 1.512.927 2.531 2.416 2.531Zm.007-1.054c-.687 0-1.039-.63-1.039-1.486 0-.857.352-1.49 1.039-1.49.674 0 1.026.633 1.026 1.49 0 .856-.352 1.486-1.026 1.486Zm4.167-3.951h-1.406l1.406 2.455-1.457 2.455h1.406l.952-1.698.969 1.698h1.39l-1.461-2.455 1.423-2.455h-1.397l-.924 1.717-.901-1.717Zm10.376-27.501c1.458 0 2.448-.949 2.445-2.272.003-1.253-.872-2.154-2.052-2.154-.575 0-1.07.24-1.301.562h-.038l.169-1.64h2.861v-1.13h-4.001l-.31 3.45 1.23.221c.201-.271.591-.44.978-.44.658.002 1.131.479 1.131 1.166 0 .681-.463 1.15-1.112 1.15-.55 0-.994-.345-1.026-.853h-1.342c.025 1.131 1.013 1.94 2.368 1.94Zm5.896.054c1.646 0 2.64-1.253 2.643-3.41.003-2.141-1.004-3.368-2.643-3.368-1.643 0-2.64 1.224-2.643 3.368-.007 2.151.994 3.407 2.643 3.41Zm0-1.147c-.751 0-1.237-.754-1.234-2.263.003-1.486.486-2.234 1.234-2.234.744 0 1.23.748 1.23 2.234.003 1.509-.482 2.263-1.23 2.263Zm9.807 39.504c1.994 0 3.202-1.234 3.202-3.28 0-2.039-1.208-3.266-3.183-3.266h-2.339v6.546h2.32Zm-.936-1.186v-4.174h.882c1.227 0 1.876.626 1.876 2.08 0 1.461-.649 2.094-1.88 2.094h-.878Zm6.457 1.278c.725 0 1.195-.316 1.435-.773h.038v.681h1.291v-3.312c0-1.169-.99-1.661-2.083-1.661-1.177 0-1.95.562-2.139 1.457l1.26.102c.092-.326.383-.566.872-.566.464 0 .729.234.729.636v.02c0 .316-.336.358-1.189.441-.972.089-1.844.415-1.844 1.511 0 .972.693 1.464 1.63 1.464Zm.39-.939c-.419 0-.719-.195-.719-.569 0-.384.316-.572.795-.64.298-.041.783-.111.946-.22v.521c0 .514-.425.908-1.022.908Zm3.35.847h1.361v-2.778c0-.604.441-1.019 1.042-1.019.189 0 .448.032.575.073v-1.208a2.018 2.018 0 0 0-.428-.048c-.55 0-1 .32-1.179.927h-.051v-.857h-1.32v4.91Zm3.601 0h1.362v-1.56l.367-.419 1.339 1.979h1.595l-1.914-2.784 1.822-2.126h-1.563l-1.573 1.864h-.073v-3.5h-1.362v6.546ZM284.976 85l.486-1.493h2.362l.486 1.492h1.483l-2.257-6.545h-1.783L283.493 85h1.483Zm.838-2.573.805-2.477h.051l.806 2.477h-1.662Zm6.687 2.572h1.384v-2.32h1.01l1.24 2.32h1.528l-1.39-2.543c.744-.32 1.157-.969 1.157-1.864 0-1.3-.86-2.138-2.346-2.138h-2.583V85Zm1.384-3.432v-1.982h.934c.799 0 1.185.355 1.185 1.007 0 .649-.386.975-1.179.975h-.94Zm5.816 3.525c.726 0 1.195-.316 1.435-.773h.038v.68h1.292v-3.31c0-1.17-.991-1.662-2.084-1.662-1.176 0-1.95.562-2.138 1.457l1.259.102c.093-.326.383-.566.872-.566.464 0 .729.234.729.636v.02c0 .316-.336.358-1.189.44-.971.09-1.844.416-1.844 1.512 0 .972.694 1.464 1.63 1.464Zm.39-.94c-.419 0-.719-.194-.719-.568 0-.384.316-.572.796-.64.297-.041.783-.111.946-.22v.52c0 .516-.425.909-1.023.909Zm3.35.847h1.361v-2.946c0-.543.346-.905.799-.905.448 0 .748.307.748.79v3.061h1.32v-2.997c0-.508.291-.854.786-.854.435 0 .761.272.761.819v3.032h1.358v-3.301c0-1.064-.632-1.671-1.546-1.671-.72 0-1.279.367-1.48.93h-.051c-.157-.57-.659-.93-1.333-.93-.662 0-1.163.351-1.368.93h-.058v-.867h-1.297V85Zm8.128 1.841h1.361v-2.627h.042c.188.41.601.866 1.393.866 1.119 0 1.991-.885 1.991-2.528 0-1.687-.91-2.525-1.987-2.525-.822 0-1.215.49-1.397.889h-.061v-.825h-1.342v6.75Zm1.333-4.295c0-.876.37-1.435 1.032-1.435.674 0 1.032.585 1.032 1.435 0 .856-.364 1.451-1.032 1.451-.655 0-1.032-.575-1.032-1.451Zm-1.564-56.208h1.327c-.02-1.167-.978-1.972-2.436-1.972-1.435 0-2.486.792-2.48 1.981-.003.965.678 1.518 1.783 1.784l.713.178c.713.173 1.109.378 1.112.819-.003.479-.457.805-1.16.805-.719 0-1.237-.332-1.281-.987h-1.339c.035 1.415 1.048 2.147 2.636 2.147 1.598 0 2.538-.764 2.541-1.962-.003-1.09-.825-1.668-1.962-1.924l-.588-.14c-.569-.132-1.045-.343-1.036-.813 0-.422.374-.732 1.052-.732.661 0 1.067.301 1.118.816Zm3.64 4.755c.726 0 1.196-.316 1.435-.773h.039v.68h1.291v-3.31c0-1.17-.991-1.663-2.084-1.663-1.176 0-1.95.563-2.138 1.458l1.259.102c.093-.326.384-.566.873-.566.463 0 .728.234.728.637v.019c0 .316-.335.358-1.189.44-.971.09-1.844.416-1.844 1.512 0 .972.694 1.464 1.63 1.464Zm.39-.94c-.419 0-.719-.194-.719-.568 0-.384.316-.572.796-.64.297-.041.783-.111.946-.22v.52c0 .515-.425.909-1.023.909Zm4.712-1.99c.003-.633.38-1.004.93-1.004.546 0 .875.358.872.959V31h1.362v-3.126c0-1.144-.672-1.848-1.694-1.848-.729 0-1.256.358-1.477.93h-.057v-.866h-1.298V31h1.362v-2.84Zm5.965 2.917c.792 0 1.205-.457 1.393-.866h.058V31h1.342v-6.546h-1.358v2.461h-.042c-.182-.4-.575-.889-1.397-.889-1.077 0-1.987.838-1.987 2.525 0 1.643.872 2.528 1.991 2.528Zm.431-1.083c-.668 0-1.032-.595-1.032-1.451 0-.85.358-1.435 1.032-1.435.662 0 1.032.56 1.032 1.435 0 .876-.377 1.451-1.032 1.451ZM329.902 31h1.342v-.787h.061c.189.41.601.866 1.393.866 1.119 0 1.992-.885 1.992-2.528 0-1.687-.911-2.524-1.988-2.524-.822 0-1.215.488-1.397.888h-.042v-2.46h-1.361V31Zm1.333-2.455c0-.876.37-1.435 1.032-1.435.674 0 1.032.585 1.032 1.435 0 .856-.364 1.451-1.032 1.451-.655 0-1.032-.575-1.032-1.451Zm5.682 2.547c.725 0 1.195-.316 1.435-.773h.038v.68h1.291v-3.31c0-1.17-.99-1.663-2.083-1.663-1.176 0-1.95.563-2.138 1.458l1.259.102c.092-.326.383-.566.872-.566.464 0 .729.234.729.637v.019c0 .316-.336.358-1.189.44-.972.09-1.844.416-1.844 1.512 0 .972.693 1.464 1.63 1.464Zm.39-.94c-.419 0-.719-.194-.719-.568 0-.384.316-.572.796-.64.297-.041.783-.111.946-.22v.52c0 .515-.426.909-1.023.909Zm5.561 2.79c1.403 0 2.401-.639 2.401-1.895V26.09h-1.352v.825h-.051c-.183-.4-.582-.889-1.404-.889-1.077 0-1.987.838-1.987 2.51 0 1.633.885 2.393 1.991 2.393.783 0 1.221-.393 1.4-.799h.057v.898c0 .675-.431.937-1.023.937-.601 0-.904-.262-1.016-.56l-1.259.17c.163.773.92 1.368 2.243 1.368Zm.029-3.035c-.668 0-1.032-.531-1.032-1.378 0-.834.358-1.419 1.032-1.419.662 0 1.032.56 1.032 1.419 0 .866-.377 1.378-1.032 1.378Zm7.459-2.417c-.122-.904-.851-1.463-2.091-1.463-1.256 0-2.083.581-2.08 1.527-.003.735.46 1.212 1.419 1.403l.85.17c.428.086.623.242.63.489-.007.29-.323.498-.799.498-.486 0-.809-.207-.892-.607l-1.339.07c.128.94.927 1.518 2.227 1.518 1.272 0 2.183-.648 2.186-1.617-.003-.71-.466-1.134-1.419-1.33l-.888-.178c-.457-.1-.627-.256-.623-.492-.004-.295.329-.486.751-.486.473 0 .754.259.821.575l1.247-.077ZM240.221 141.337h1.326c-.019-1.167-.978-1.972-2.435-1.972-1.435 0-2.487.792-2.48 1.981-.003.965.677 1.518 1.783 1.783l.713.179c.713.173 1.109.378 1.112.819-.003.479-.457.805-1.16.805-.719 0-1.237-.332-1.282-.988h-1.339c.035 1.416 1.049 2.148 2.637 2.148 1.598 0 2.538-.764 2.541-1.962-.003-1.09-.825-1.668-1.963-1.924l-.588-.141c-.569-.131-1.045-.342-1.035-.812 0-.421.374-.731 1.051-.731.662 0 1.068.3 1.119.815Zm4.458 4.758c1.307 0 2.129-.767 2.193-1.895h-1.285c-.08.524-.425.818-.892.818-.636 0-1.048-.533-1.048-1.473 0-.927.415-1.457 1.048-1.457.499 0 .818.329.892.818h1.285c-.058-1.135-.918-1.879-2.199-1.879-1.49 0-2.41 1.032-2.41 2.537 0 1.493.904 2.531 2.416 2.531Zm4.383-.003c.726 0 1.195-.316 1.435-.773h.039V146h1.291v-3.312c0-1.169-.991-1.661-2.084-1.661-1.176 0-1.95.562-2.138 1.457l1.259.102c.093-.326.384-.566.873-.566.463 0 .728.234.728.636v.02c0 .316-.335.358-1.189.441-.971.089-1.844.415-1.844 1.511 0 .972.694 1.464 1.63 1.464Zm.39-.939c-.419 0-.719-.195-.719-.569 0-.384.316-.572.796-.64.297-.041.783-.111.946-.22v.521c0 .514-.425.908-1.023.908Zm5.99-4.063h-.975v-.329c0-.332.134-.527.534-.527.163 0 .329.035.438.07l.239-1.023a3.589 3.589 0 0 0-.962-.134c-.923 0-1.61.521-1.61 1.589v.354h-.694v1.023h.694V146h1.361v-3.887h.975v-1.023Zm3.391 0h-.975v-.329c0-.332.134-.527.534-.527.163 0 .329.035.437.07l.24-1.023a3.589 3.589 0 0 0-.962-.134c-.924 0-1.611.521-1.611 1.589v.354h-.693v1.023h.693V146h1.362v-3.887h.975v-1.023Zm2.793 5.005c1.489 0 2.416-1.019 2.416-2.531 0-1.521-.927-2.537-2.416-2.537-1.49 0-2.417 1.016-2.417 2.537 0 1.512.927 2.531 2.417 2.531Zm.006-1.054c-.687 0-1.039-.63-1.039-1.486 0-.857.352-1.49 1.039-1.49.674 0 1.026.633 1.026 1.49 0 .856-.352 1.486-1.026 1.486Zm4.576-5.587h-1.362V146h1.362v-6.546Zm2.818 6.625c.793 0 1.205-.457 1.394-.866h.057V146h1.343v-6.546h-1.359v2.461h-.041c-.182-.4-.576-.888-1.397-.888-1.077 0-1.988.837-1.988 2.524 0 1.643.873 2.528 1.991 2.528Zm.432-1.083c-.668 0-1.033-.594-1.033-1.451 0-.85.358-1.435 1.033-1.435.661 0 1.032.559 1.032 1.435s-.377 1.451-1.032 1.451Zm3.4 1.004h1.361v-4.91h-1.361V146Zm.684-5.542c.406 0 .738-.31.738-.691 0-.377-.332-.687-.738-.687-.403 0-.735.31-.735.687 0 .381.332.691.735.691Zm3.049 2.703c.003-.632.38-1.003.93-1.003.546 0 .875.358.872.959V146h1.362v-3.126c0-1.144-.672-1.847-1.694-1.847-.729 0-1.256.357-1.477.93h-.057v-.867h-1.298V146h1.362v-2.839Zm6.367 4.782c1.403 0 2.401-.64 2.401-1.896v-4.957h-1.352v.825h-.051c-.183-.4-.582-.888-1.404-.888-1.077 0-1.987.837-1.987 2.508 0 1.634.885 2.394 1.991 2.394.783 0 1.221-.393 1.4-.799h.057v.898c0 .675-.431.937-1.023.937-.601 0-.904-.262-1.016-.56l-1.259.17c.163.773.92 1.368 2.243 1.368Zm.029-3.037c-.668 0-1.032-.53-1.032-1.377 0-.834.358-1.419 1.032-1.419.662 0 1.032.559 1.032 1.419 0 .866-.377 1.377-1.032 1.377ZM223.926 168h2.797c1.47 0 2.253-.768 2.253-1.809 0-.969-.694-1.554-1.438-1.589v-.064c.68-.153 1.182-.636 1.182-1.406 0-.981-.729-1.678-2.173-1.678h-2.621V168Zm1.384-1.132v-1.739h1.16c.665 0 1.077.384 1.077.924 0 .492-.335.815-1.109.815h-1.128Zm0-2.675v-1.62h1.051c.614 0 .962.316.962.789 0 .518-.421.831-.987.831h-1.026Zm10.038-.856h1.326c-.019-1.167-.978-1.972-2.435-1.972-1.435 0-2.486.792-2.48 1.981-.003.965.677 1.518 1.783 1.783l.713.179c.713.173 1.109.378 1.112.819-.003.479-.457.805-1.16.805-.719 0-1.237-.332-1.282-.988h-1.339c.035 1.416 1.049 2.148 2.637 2.148 1.598 0 2.538-.764 2.541-1.962-.003-1.09-.825-1.668-1.962-1.924l-.589-.141c-.568-.131-1.045-.342-1.035-.812 0-.421.374-.731 1.051-.731.662 0 1.068.3 1.119.815Zm2.24 4.663h1.362v-4.91h-1.362V168Zm.684-5.542c.406 0 .738-.31.738-.691 0-.377-.332-.687-.738-.687-.403 0-.735.31-.735.687 0 .381.332.691.735.691Zm3.496 5.621c.793 0 1.205-.457 1.394-.866h.057V168h1.343v-6.546h-1.359v2.461h-.041c-.182-.4-.576-.888-1.397-.888-1.077 0-1.988.837-1.988 2.524 0 1.643.873 2.528 1.991 2.528Zm.432-1.083c-.668 0-1.033-.594-1.033-1.451 0-.85.358-1.435 1.033-1.435.661 0 1.032.559 1.032 1.435s-.377 1.451-1.032 1.451Zm5.637 1.099c1.215 0 2.033-.591 2.225-1.502l-1.26-.083c-.137.374-.489.569-.942.569-.681 0-1.113-.451-1.113-1.182v-.004h3.343v-.374c0-1.668-1.01-2.492-2.307-2.492-1.445 0-2.381 1.025-2.381 2.54 0 1.557.923 2.528 2.435 2.528Zm-1.09-3.045a1.037 1.037 0 0 1 1.058-1.007c.592 0 1.001.422 1.004 1.007h-2.062Zm5.084 2.95h1.438l.844-3.088h.061l.844 3.088h1.441l1.333-4.91h-1.375l-.747 3.28h-.042l-.805-3.28h-1.352l-.793 3.299h-.045l-.76-3.299h-1.378l1.336 4.91Zm8.006.092c.725 0 1.195-.316 1.435-.773h.038V168h1.291v-3.312c0-1.169-.99-1.661-2.083-1.661-1.177 0-1.95.562-2.139 1.457l1.26.102c.092-.326.383-.566.872-.566.464 0 .729.234.729.636v.02c0 .316-.336.358-1.189.441-.972.089-1.844.415-1.844 1.511 0 .972.693 1.464 1.63 1.464Zm.39-.939c-.419 0-.719-.195-.719-.569 0-.384.316-.572.795-.64.298-.041.784-.111.947-.22v.521c0 .514-.426.908-1.023.908Zm4.711-5.699h-1.361V168h1.361v-6.546Zm1.01 6.546h1.361v-1.56l.368-.419 1.339 1.979h1.595l-1.915-2.784 1.822-2.126h-1.563l-1.572 1.864h-.074v-3.5h-1.361V168ZM137.933 346h2.797c1.47 0 2.253-.768 2.253-1.809 0-.969-.693-1.554-1.438-1.589v-.064c.681-.153 1.182-.636 1.182-1.406 0-.981-.728-1.678-2.173-1.678h-2.621V346Zm1.384-1.132v-1.739h1.16c.665 0 1.078.384 1.078.924 0 .492-.336.815-1.109.815h-1.129Zm0-2.675v-1.62h1.052c.613 0 .962.316.962.789 0 .518-.422.831-.988.831h-1.026Zm10.038-.856h1.327c-.019-1.167-.978-1.972-2.436-1.972-1.435 0-2.486.792-2.48 1.981-.003.965.678 1.518 1.784 1.783l.712.179c.713.173 1.109.378 1.113.819-.004.479-.457.805-1.161.805-.719 0-1.236-.332-1.281-.988h-1.339c.035 1.416 1.048 2.148 2.636 2.148 1.598 0 2.538-.764 2.541-1.962-.003-1.09-.824-1.668-1.962-1.924l-.588-.141c-.569-.131-1.045-.342-1.036-.812 0-.421.374-.731 1.052-.731.661 0 1.067.3 1.118.815Zm4.852-.247h-.924v-1.176h-1.361v1.176h-.672v1.023h.672v2.557c-.007.962.648 1.438 1.636 1.397.351-.013.601-.083.738-.128l-.214-1.013c-.067.012-.211.044-.339.044-.271 0-.46-.102-.46-.479v-2.378h.924v-1.023Zm2.205 5.002c.726 0 1.196-.316 1.435-.773h.039V346h1.291v-3.312c0-1.169-.991-1.661-2.084-1.661-1.176 0-1.949.562-2.138 1.457l1.259.102c.093-.326.384-.566.873-.566.463 0 .729.234.729.636v.02c0 .316-.336.358-1.189.441-.972.089-1.845.415-1.845 1.511 0 .972.694 1.464 1.63 1.464Zm.39-.939c-.418 0-.719-.195-.719-.569 0-.384.317-.572.796-.64.297-.041.783-.111.946-.22v.521c0 .514-.425.908-1.023.908Zm3.35.847h1.362v-4.91h-1.362V346Zm.684-5.542c.406 0 .739-.31.739-.691 0-.377-.333-.687-.739-.687-.402 0-.735.31-.735.687 0 .381.333.691.735.691Zm1.687 5.542h1.362v-2.778c0-.604.441-1.019 1.042-1.019.188 0 .447.032.575.073v-1.208a2.025 2.025 0 0 0-.428-.048c-.55 0-1 .32-1.179.927h-.052v-.857h-1.32V346Zm7.687-3.51c-.122-.904-.851-1.463-2.091-1.463-1.256 0-2.083.581-2.08 1.527-.003.735.46 1.211 1.419 1.403l.85.17c.428.086.623.243.63.489-.007.29-.323.498-.799.498-.486 0-.809-.208-.892-.607l-1.339.07c.128.94.927 1.518 2.227 1.518 1.272 0 2.183-.648 2.186-1.617-.003-.709-.466-1.134-1.419-1.329l-.888-.179c-.457-.099-.627-.256-.623-.493-.004-.294.329-.485.751-.485.473 0 .754.259.821.575l1.247-.077Zm-84.845-10.536v4.133c0 .747-.524 1.288-1.33 1.288-.802 0-1.33-.541-1.33-1.288v-4.133h-1.383v4.251c0 1.432 1.08 2.387 2.713 2.387 1.627 0 2.714-.955 2.714-2.387v-4.251h-1.384Zm3.777 3.707c.003-.632.38-1.003.93-1.003.547 0 .876.358.873.959v2.883h1.361v-3.126c0-1.144-.671-1.847-1.694-1.847-.728 0-1.256.357-1.476.93h-.058v-.867h-1.297v4.91h1.361v-2.839Zm5.965 2.918c.793 0 1.205-.457 1.394-.866h.057v.787H97.9v-6.546h-1.358v2.461h-.041c-.183-.4-.576-.888-1.397-.888-1.077 0-1.988.837-1.988 2.524 0 1.643.873 2.528 1.991 2.528Zm.432-1.083c-.668 0-1.033-.594-1.033-1.451 0-.85.358-1.435 1.033-1.435.661 0 1.032.559 1.032 1.435s-.377 1.451-1.032 1.451Zm5.637 1.099c1.215 0 2.033-.591 2.224-1.502l-1.259-.083c-.137.374-.489.569-.943.569-.68 0-1.112-.451-1.112-1.182v-.004h3.343v-.374c0-1.668-1.01-2.492-2.307-2.492-1.445 0-2.381 1.025-2.381 2.54 0 1.557.923 2.528 2.435 2.528Zm-1.09-3.045a1.037 1.037 0 0 1 1.058-1.007c.591 0 1 .422 1.004 1.007h-2.062Zm4.151 2.95h1.361v-2.778c0-.604.441-1.019 1.042-1.019.189 0 .448.032.575.073v-1.208a2.018 2.018 0 0 0-.428-.048c-.55 0-1 .32-1.179.927h-.051v-.857h-1.32v4.91Zm5.629 0h2.796c1.471 0 2.254-.768 2.254-1.809 0-.969-.694-1.554-1.439-1.589v-.064c.681-.153 1.183-.636 1.183-1.406 0-.981-.729-1.678-2.173-1.678h-2.621v6.546Zm1.384-1.132v-1.739h1.16c.665 0 1.077.384 1.077.924 0 .492-.336.815-1.109.815h-1.128Zm0-2.675v-1.62h1.051c.614 0 .962.316.962.789 0 .518-.422.831-.987.831h-1.026Zm.05 16.261v4.133c0 .747-.524 1.288-1.329 1.288-.803 0-1.33-.541-1.33-1.288v-4.133h-1.384v4.251c0 1.432 1.081 2.387 2.714 2.387 1.626 0 2.713-.955 2.713-2.387v-4.251H111.3Zm3.778 3.707c.003-.632.38-1.003.93-1.003.546 0 .875.358.872.959v2.883h1.362v-3.126c0-1.144-.671-1.847-1.694-1.847-.729 0-1.256.357-1.477.93h-.057v-.867h-1.298v4.91h1.362v-2.839Zm5.965 2.918c.792 0 1.205-.457 1.393-.866h.058v.787h1.342v-6.546h-1.358v2.461h-.042c-.182-.4-.575-.888-1.396-.888-1.078 0-1.988.837-1.988 2.524 0 1.643.872 2.528 1.991 2.528Zm.431-1.083c-.668 0-1.032-.594-1.032-1.451 0-.85.358-1.435 1.032-1.435.662 0 1.032.559 1.032 1.435s-.377 1.451-1.032 1.451Zm5.638 1.099c1.214 0 2.032-.591 2.224-1.502l-1.259-.083c-.138.374-.489.569-.943.569-.681 0-1.112-.451-1.112-1.182v-.004h3.343v-.374c0-1.668-1.01-2.492-2.308-2.492-1.444 0-2.381 1.025-2.381 2.54 0 1.557.924 2.528 2.436 2.528Zm-1.09-3.045a1.037 1.037 0 0 1 1.058-1.007c.591 0 1 .422 1.003 1.007h-2.061Zm4.15 2.95h1.362v-2.778c0-.604.441-1.019 1.042-1.019.188 0 .447.032.575.073v-1.208a2.025 2.025 0 0 0-.428-.048c-.55 0-1.001.32-1.18.927h-.051v-.857h-1.32v4.91Zm-18.752 7.337h1.326c-.019-1.167-.978-1.972-2.435-1.972-1.435 0-2.487.792-2.48 1.981-.003.965.677 1.518 1.783 1.783l.713.179c.713.173 1.109.378 1.112.819-.003.479-.457.805-1.16.805-.719 0-1.237-.332-1.282-.988h-1.339c.035 1.416 1.048 2.148 2.637 2.148 1.598 0 2.537-.764 2.541-1.962-.004-1.09-.825-1.668-1.963-1.924l-.588-.141c-.569-.131-1.045-.342-1.035-.812 0-.421.374-.731 1.051-.731.662 0 1.068.3 1.119.815Zm4.851-.247h-.924v-1.176h-1.361v1.176h-.671v1.023h.671v2.557c-.006.962.649 1.438 1.636 1.397.352-.013.601-.083.739-.128l-.215-1.013c-.067.012-.21.044-.338.044-.272 0-.461-.102-.461-.479v-2.378h.924v-1.023Zm2.206 5.002c.725 0 1.195-.316 1.435-.773h.038v.681h1.291v-3.312c0-1.169-.99-1.661-2.083-1.661-1.177 0-1.95.562-2.139 1.457l1.26.102c.092-.326.383-.566.872-.566.464 0 .729.234.729.636v.02c0 .316-.336.358-1.189.441-.972.089-1.844.415-1.844 1.511 0 .972.693 1.464 1.63 1.464Zm.39-.939c-.419 0-.719-.195-.719-.569 0-.384.316-.572.795-.64.298-.041.783-.111.946-.22v.521c0 .514-.425.908-1.022.908Zm3.35.847h1.361v-4.91h-1.361v4.91Zm.684-5.542c.406 0 .738-.31.738-.691 0-.377-.332-.687-.738-.687-.403 0-.735.31-.735.687 0 .381.332.691.735.691Zm1.687 5.542h1.361v-2.778c0-.604.441-1.019 1.042-1.019.189 0 .448.032.576.073v-1.208a2.035 2.035 0 0 0-.429-.048c-.549 0-1 .32-1.179.927h-.051v-.857h-1.32v4.91Zm7.686-3.51c-.121-.904-.85-1.463-2.09-1.463-1.256 0-2.084.581-2.081 1.527-.003.735.46 1.211 1.419 1.403l.85.17c.429.086.624.243.63.489-.006.29-.323.498-.799.498-.486 0-.809-.208-.892-.607l-1.339.07c.128.94.927 1.518 2.228 1.518 1.272 0 2.183-.648 2.186-1.617-.003-.709-.467-1.134-1.419-1.329l-.889-.179c-.457-.099-.626-.256-.623-.493-.003-.294.329-.485.751-.485.473 0 .754.259.822.575l1.246-.077Z"/><path fill="#E3E5EA" d="M15.054 157h2.46v-4.807h4.734v-2.029h-4.733v-2.772h5.244v-2.029h-7.705V157Zm11.59-11.637h-2.42V157h2.42v-11.637Zm5.739 11.807c2.648 0 4.295-1.813 4.295-4.5 0-2.705-1.647-4.511-4.295-4.511-2.648 0-4.296 1.806-4.296 4.511 0 2.687 1.648 4.5 4.296 4.5Zm.011-1.875c-1.221 0-1.846-1.119-1.846-2.642s.625-2.648 1.846-2.648c1.2 0 1.824 1.125 1.824 2.648 0 1.523-.625 2.642-1.824 2.642Zm9.657 1.875c2.648 0 4.296-1.813 4.296-4.5 0-2.705-1.648-4.511-4.296-4.511-2.647 0-4.295 1.806-4.295 4.511 0 2.687 1.648 4.5 4.295 4.5Zm.012-1.875c-1.222 0-1.847-1.119-1.847-2.642s.625-2.648 1.847-2.648c1.199 0 1.824 1.125 1.824 2.648 0 1.523-.625 2.642-1.824 2.642ZM47.777 157h2.42v-4.938c0-1.074.784-1.812 1.852-1.812.336 0 .796.056 1.023.13v-2.148a3.643 3.643 0 0 0-.761-.085c-.977 0-1.779.568-2.097 1.648h-.09v-1.523h-2.347V157Zm14.189.159c2.59 0 4.352-1.688 4.347-4.04.005-2.227-1.552-3.83-3.648-3.83-1.023 0-1.904.426-2.313 1h-.068l.301-2.914h5.086v-2.012h-7.114l-.551 6.137 2.187.392c.358-.483 1.051-.785 1.739-.785 1.17.006 2.011.853 2.011 2.074 0 1.211-.824 2.046-1.977 2.046-.977 0-1.767-.614-1.824-1.517h-2.386c.045 2.011 1.8 3.449 4.21 3.449Zm10.481.096c2.926 0 4.693-2.227 4.699-6.062.005-3.807-1.784-5.989-4.699-5.989-2.92 0-4.693 2.176-4.699 5.989-.011 3.824 1.767 6.057 4.699 6.062Zm0-2.04c-1.335 0-2.199-1.34-2.193-4.022.005-2.642.864-3.972 2.193-3.972 1.324 0 2.188 1.33 2.188 3.972.005 2.682-.859 4.022-2.188 4.022Z"/><path stroke="#999CA2" stroke-opacity=".25" stroke-width="1.6" d="M312.155 662.84h-40.352a2 2 0 0 1-2-2v-35.332a2 2 0 0 1 2-2h40.352a2 2 0 0 1 2 2v35.332a2 2 0 0 1-2 2Z"/><mask id="o" width="46" height="40" x="269" y="623" maskUnits="userSpaceOnUse" style="mask-type:alpha"><path fill="#C4C4C4" d="M312.155 662.84h-40.352a2 2 0 0 1-2-2v-35.332a2 2 0 0 1 2-2h40.352a2 2 0 0 1 2 2v35.332a2 2 0 0 1-2 2Z"/></mask><g fill="#999CA2" fill-opacity=".15" mask="url(#o)"><path d="m367.535 645.273-88.596-88.665 1.798-1.8 88.597 88.665zm3.598 10.813-88.596-88.665 1.798-1.8 88.597 88.665zm-3.598 3.6-88.596-88.665 1.798-1.8 88.597 88.665zm-3.599 3.6-88.596-88.665 1.798-1.8 88.597 88.665zm-3.598 3.601-88.596-88.665 1.798-1.8 88.597 88.665zm-3.598 3.601-88.596-88.665 1.798-1.8 88.597 88.665zm-3.597 3.6-88.596-88.665 1.798-1.8 88.597 88.665zm-3.598 3.601-88.596-88.665 1.798-1.8 88.597 88.665zm-3.598 3.6-88.596-88.665 1.798-1.8 88.597 88.665zm-3.597 3.601-88.596-88.665 1.798-1.8 88.597 88.665zm-3.598 3.601-88.596-88.665 1.798-1.8 88.597 88.665zm-3.598 3.6-88.596-88.665 1.798-1.8 88.597 88.665zm-3.597 3.601-88.596-88.665 1.798-1.8 88.597 88.665zm-3.598 3.601-88.596-88.665 1.798-1.8 88.597 88.665zm-3.6 3.6-88.596-88.665 1.798-1.8 88.597 88.665zm-3.597 3.601-88.596-88.665 1.798-1.8 88.597 88.665zm-3.598 3.601-88.596-88.665 1.798-1.8 88.597 88.665zm-3.598 3.6L224.97 625.03l1.798-1.8 88.597 88.665zm-3.597 3.601-88.596-88.665 1.798-1.8 88.597 88.665zm-3.598 3.6-88.596-88.665 1.798-1.8 88.597 88.665zm-3.598 3.601-88.596-88.665 1.798-1.8 88.597 88.665zm-3.597 3.601-88.596-88.665 1.798-1.8 88.597 88.665z"/></g><path fill="#E3E5EA" d="M287.402 648.172h4.972c2.613 0 4.005-1.364 4.005-3.216 0-1.721-1.233-2.761-2.557-2.824v-.113c1.211-.273 2.103-1.131 2.103-2.5 0-1.745-1.296-2.983-3.864-2.983h-4.659v11.636Zm2.46-2.011v-3.091h2.063c1.182 0 1.914.682 1.914 1.642 0 .875-.596 1.449-1.971 1.449h-2.006Zm0-4.756v-2.881h1.87c1.09 0 1.71.563 1.71 1.404 0 .92-.75 1.477-1.756 1.477h-1.824Z"/><path stroke="#999CA2" stroke-opacity=".25" stroke-width="1.6" d="M513.667 384.675h-24.452a2 2 0 0 1-2-2V328.43a2 2 0 0 1 2-2h24.452a2 2 0 0 1 2 2v54.245a2 2 0 0 1-2 2Z"/><mask id="p" width="29" height="59" x="487" y="326" maskUnits="userSpaceOnUse" style="mask-type:alpha"><path fill="#C4C4C4" d="M513.667 384.675h-24.452a2 2 0 0 1-2-2V328.43a2 2 0 0 1 2-2h24.452a2 2 0 0 1 2 2v54.245a2 2 0 0 1-2 2Z"/></mask><g fill="#999CA2" fill-opacity=".15" mask="url(#p)"><path d="m577.535 357.274-88.596-88.665 1.798-1.8 88.597 88.665zm3.598 10.813-88.596-88.665 1.798-1.8 88.597 88.665zm-3.598 3.599-88.596-88.665 1.798-1.8 88.597 88.665zm-3.599 3.601-88.596-88.665 1.798-1.8 88.597 88.665zm-3.598 3.601-88.596-88.665 1.798-1.8 88.597 88.665zm-3.598 3.601-88.596-88.665 1.798-1.8 88.597 88.665zm-3.597 3.6-88.596-88.665 1.798-1.8 88.597 88.665zm-3.598 3.601-88.596-88.665 1.798-1.8 88.597 88.665zm-3.598 3.6-88.596-88.665 1.798-1.8 88.597 88.665zm-3.597 3.601-88.596-88.665 1.798-1.8 88.597 88.665zm-3.598 3.601-88.596-88.665 1.798-1.8 88.597 88.665zm-3.598 3.6-88.596-88.665 1.798-1.8 88.597 88.665zm-3.597 3.601-88.596-88.665 1.798-1.8 88.597 88.665zm-3.598 3.601-88.596-88.665 1.798-1.8 88.597 88.665zm-3.6 3.6-88.596-88.665 1.798-1.8 88.597 88.665zm-3.597 3.601-88.596-88.665 1.798-1.8 88.597 88.665zm-3.598 3.6-88.596-88.665 1.798-1.8 88.597 88.665zm-3.598 3.6L434.97 337.03l1.798-1.8 88.597 88.665zm-3.597 3.602-88.596-88.665 1.798-1.8 88.597 88.665zm-3.598 3.599-88.596-88.665 1.798-1.8 88.597 88.665zm-3.598 3.601-88.596-88.665 1.798-1.8 88.597 88.665zm-3.597 3.601-88.596-88.665 1.798-1.8 88.597 88.665z"/></g><path fill="#E3E5EA" d="m497.714 363.173.864-2.654h4.199l.863 2.654h2.637l-4.012-11.637h-3.17l-4.017 11.637h2.636Zm1.489-4.574 1.432-4.404h.091l1.431 4.404h-2.954Z"/><mask id="q" width="401" height="393" x="234" y="309" maskUnits="userSpaceOnUse" style="mask-type:alpha"><path fill="#181B21" fill-rule="evenodd" d="m244.362 692.967 8.033 8.033h134.732v-14.728h23.097v-6.36h7.531v6.36h30.796v-6.36h6.695v-45.524h-74.144v-7.532h-40.169v15.063h-12.05v-28.118h5.021v-64.604h-19.917v-8.368h26.946v72.972h74.647v-10.209h36.821v-47.868h-3.85v-4.686h3.85v-5.356h5.69v6.528h4.352v3.514h-2.678v58.914h32.971v66.111h3.348v6.36h19.749v-6.36h6.36v6.36h31.131v-6.36h6.527v6.36h31.298v-6.36h6.527v6.36h31.466v-4.687H635v-2.175h-5.858v-6.36H635v-30.796h-5.858v-6.695H635v-31.298h-5.858v-7.029H635v-30.461h-5.858v-6.863h-31.298v6.863h-6.528v-6.863h-37.992v6.863h-6.36v-6.863h-30.461v6.863h-6.36v-6.863h-5.021v22.763h-12.386v3.849h-3.012v-50.043h3.682v4.017h14.728v-13.557h1.339v-3.85h22.428v-38.327h-38.495v43.516h-3.682v-14.059l-5.691-5.691v-7.531h-4.017v-1.841h-75.483v43.348h7.03v7.699h2.343v4.686h-16.402v-87.031h4.184v2.343h77.659c.223-17.35.535-52.052 0-52.052h-15.063V405.26h-5.691v-23.766h9.708v5.69h14.895v83.852h10.21v7.532h30.628v4.016h42.01v-4.016h24.436v-17.741h5.857v5.188h6.36v1.339h17.741v-1.339h8.201v-5.188H635v-26.445h-6.361v-6.36H635v-31.465h-6.361v-6.695H635v-72.135h-6.361v-8.369h-69.29v6.36h-6.025v-6.36h-32.47v6.36h-6.025v-6.36H482.36v6.36h-6.193v-6.36h-4.352v6.36h-6.192v-6.36h-32.135v6.36h-6.025v-6.36h-11.716v11.883h-2.343v-11.883h-5.691v10.879H371.06v64.772h2.343v1.841h-1.172v3.18h-1.171v14.226h-32.972v3.849h-5.021v1.674h-2.009v-3.347h-64.436v17.071h-9.373v5.189h4.686v6.36h-4.686v32.637h4.686v6.36h-4.686v28.285h5.691v6.527h-17.909v7.867h-10.377v15.23h22.595v12.218h27.448v10.712h-27.448v4.686h-12.887v133.393Zm12.887-5.692h6.527v-11.381h-6.527v11.381Zm0-65.441h6.527v-6.36h-6.527v6.36Zm88.538 66.948h-22.762v-9.708h22.762v9.708Zm-64.604-190.466h3.514l1.339-1.338h62.931v-11.382h7.866v18.411l-7.866 7.866h-67.784v-13.557Zm108.789-78.83v7.029H332.9v-1.004h-2.009v5.691h-2.008v1.673h2.008v-1.171h2.009v18.745h16.067v9.038h7.866v-27.783h42.01v10.711h21.59v-6.36h-2.678v2.344h-15.732v-18.913h-12.051Zm-74.981 13.389h1.841v-1.673h-1.841v1.673Zm101.091-93.224h-2.678v36.821h-6.695l-7.364 9.206h-4.184a2.51 2.51 0 1 0-3.013 0h-6.695l1.841 1.841v2.677h2.678v7.197h24.101v22.093h3.682v9.54h2.678v-9.54h2.343v-13.892h4.687v-24.77h-11.381v-41.173Zm96.404 125.024v-4.016h12.05v-55.901h-2.678V370.28h2.678l3.348 6.192h25.942l3.515-6.192h2.51v35.314H526.88v40.504h60.754v1.841H526.88v12.72h36.653v4.016h-51.047ZM376.415 610.454a2.008 2.008 0 1 0-4.016-.002 2.008 2.008 0 0 0 4.016.002Zm-33.473-64.604a2.008 2.008 0 1 1 0 4.016 2.008 2.008 0 0 1 0-4.016Zm88.872-184.774a2.175 2.175 0 1 1 .001 4.351 2.175 2.175 0 0 1-.001-4.351Zm41.34 23.263a2.175 2.175 0 1 0-4.351.001 2.175 2.175 0 0 0 4.351-.001Zm51.047-73.474a2.176 2.176 0 1 1 0 4.351 2.176 2.176 0 0 1 0-4.351ZM333.569 552.211a2.008 2.008 0 1 0-4.017-.001 2.008 2.008 0 0 0 4.017.001Zm-73.307-74.982a2.008 2.008 0 1 1 0 4.016 2.008 2.008 0 0 1 0-4.016Zm191.804 124.187a2.008 2.008 0 1 0-4.016 0 2.008 2.008 0 0 0 4.016 0Zm78.161-19.247v32.47h50.043v-25.106h20.586v46.027h-70.629v34.478h88.036v-87.869h-88.036Z" clip-rule="evenodd"/></mask><g fill="#30D9D4" mask="url(#q)"><path fill-opacity=".25" stroke="#30D9D4" stroke-width="1.5" d="M325.545 473.043h-61.943a2 2 0 0 1-2-2v-61.608a2 2 0 0 1 2-2h61.943a2 2 0 0 1 2 2v61.608a2 2 0 0 1-2 2Z"/><path d="M293.993 439.828c-.243-2.015-1.768-3.174-3.788-3.174-2.305 0-4.065 1.627-4.065 4.483 0 2.846 1.73 4.483 4.065 4.483 2.237 0 3.588-1.488 3.788-3.094l-1.866-.009c-.175.933-.908 1.47-1.892 1.47-1.326 0-2.225-.984-2.225-2.85 0-1.816.887-2.851 2.238-2.851 1.009 0 1.738.584 1.879 1.542h1.866Zm.883-1.534h2.672v7.206h1.824v-7.206h2.672v-1.521h-7.168v1.521Z"/></g><path fill="#7F838B" d="M291.561 686.746c-.182-1.511-1.327-2.381-2.842-2.381-1.729 0-3.049 1.221-3.049 3.362 0 2.135 1.298 3.363 3.049 3.363 1.678 0 2.692-1.116 2.842-2.321l-1.4-.006c-.131.7-.681 1.103-1.419 1.103-.994 0-1.668-.739-1.668-2.139 0-1.361.664-2.138 1.677-2.138.758 0 1.304.438 1.41 1.157h1.4Zm2.285 4.347c.726 0 1.196-.317 1.435-.774h.039V691h1.291v-3.311c0-1.17-.991-1.662-2.084-1.662-1.176 0-1.949.563-2.138 1.458l1.259.102c.093-.326.384-.566.873-.566.463 0 .728.233.728.636v.019c0 .317-.335.358-1.188.441-.972.09-1.845.416-1.845 1.512 0 .972.694 1.464 1.63 1.464Zm.39-.94c-.418 0-.719-.195-.719-.569 0-.383.317-.572.796-.639.297-.041.783-.112.946-.22v.521c0 .514-.425.907-1.023.907Zm5.961-4.062h-.923v-1.176h-1.362v1.176h-.671v1.023h.671v2.557c-.006.962.649 1.438 1.637 1.396.351-.012.6-.083.738-.128l-.214-1.013c-.067.013-.211.045-.339.045-.272 0-.46-.102-.46-.479v-2.378h.923v-1.023Zm1.775 4.909h1.438l.844-3.087h.06l.844 3.087h1.442l1.332-4.909h-1.374l-.748 3.279h-.041l-.806-3.279h-1.352l-.792 3.298h-.045l-.761-3.298h-1.377l1.336 4.909Zm8.005.093c.726 0 1.196-.317 1.435-.774h.039V691h1.291v-3.311c0-1.17-.991-1.662-2.084-1.662-1.176 0-1.949.563-2.138 1.458l1.259.102c.093-.326.384-.566.873-.566.463 0 .728.233.728.636v.019c0 .317-.335.358-1.188.441-.972.09-1.845.416-1.845 1.512 0 .972.694 1.464 1.63 1.464Zm.39-.94c-.418 0-.719-.195-.719-.569 0-.383.317-.572.796-.639.297-.041.783-.112.946-.22v.521c0 .514-.425.907-1.023.907Zm4.712-5.698h-1.362V691h1.362v-6.545Zm1.009 6.545h1.362v-1.559l.367-.419 1.34 1.978h1.594l-1.914-2.784 1.822-2.125h-1.563l-1.573 1.863h-.073v-3.499h-1.362V691Zm96.845-20h2.797c1.47 0 2.253-.767 2.253-1.809 0-.968-.693-1.553-1.438-1.588v-.064c.681-.154 1.182-.636 1.182-1.406 0-.982-.728-1.678-2.173-1.678h-2.621V671Zm1.384-1.131v-1.739h1.16c.665 0 1.078.384 1.078.924 0 .492-.336.815-1.109.815h-1.129Zm0-2.675v-1.621h1.052c.613 0 .962.317.962.79 0 .518-.422.831-.988.831h-1.026Zm10.038-.857h1.327c-.019-1.166-.978-1.972-2.436-1.972-1.435 0-2.486.793-2.48 1.982-.003.965.678 1.518 1.784 1.783l.712.179c.713.173 1.109.377 1.113.818-.004.48-.457.806-1.161.806-.719 0-1.236-.333-1.281-.988h-1.339c.035 1.416 1.048 2.148 2.636 2.148 1.598 0 2.538-.764 2.541-1.962-.003-1.09-.824-1.669-1.962-1.924l-.588-.141c-.569-.131-1.045-.342-1.036-.812 0-.422.374-.732 1.052-.732.661 0 1.067.301 1.118.815Zm4.852-.246h-.924v-1.176h-1.361v1.176h-.672v1.023h.672v2.557c-.007.962.648 1.438 1.636 1.396.351-.012.601-.083.738-.128l-.214-1.013c-.067.013-.211.045-.339.045-.271 0-.46-.102-.46-.479v-2.378h.924v-1.023Zm2.205 5.002c.726 0 1.196-.317 1.435-.774h.039V671h1.291v-3.311c0-1.17-.991-1.662-2.084-1.662-1.176 0-1.949.563-2.138 1.458l1.259.102c.093-.326.384-.566.873-.566.463 0 .729.233.729.636v.019c0 .317-.336.358-1.189.441-.972.09-1.845.416-1.845 1.512 0 .972.694 1.464 1.63 1.464Zm.39-.94c-.418 0-.719-.195-.719-.569 0-.383.317-.572.796-.639.297-.041.783-.112.946-.22v.521c0 .514-.425.907-1.023.907Zm3.35.847h1.362v-4.909h-1.362V671Zm.684-5.542c.406 0 .739-.31.739-.69 0-.377-.333-.687-.739-.687-.402 0-.735.31-.735.687 0 .38.333.69.735.69Zm1.687 5.542h1.362v-2.777c0-.604.441-1.02 1.042-1.02.188 0 .447.032.575.074v-1.208a2.025 2.025 0 0 0-.428-.048c-.55 0-1 .319-1.179.927h-.052v-.857h-1.32V671Zm7.687-3.509c-.122-.905-.851-1.464-2.091-1.464-1.256 0-2.083.582-2.08 1.528-.003.735.46 1.211 1.419 1.403l.85.169c.428.087.623.243.63.489-.007.291-.323.499-.799.499-.486 0-.809-.208-.892-.607l-1.339.07c.128.94.927 1.518 2.227 1.518 1.272 0 2.183-.649 2.186-1.617-.003-.71-.466-1.135-1.419-1.33l-.888-.179c-.457-.099-.627-.255-.623-.492-.004-.294.329-.486.751-.486.473 0 .754.259.821.576l1.247-.077Zm-155.324-83.245c-.182-1.511-1.326-2.381-2.841-2.381-1.729 0-3.049 1.221-3.049 3.362 0 2.135 1.298 3.363 3.049 3.363 1.678 0 2.691-1.116 2.841-2.321l-1.399-.006c-.131.7-.681 1.103-1.419 1.103-.994 0-1.669-.739-1.669-2.139 0-1.361.665-2.138 1.678-2.138.758 0 1.304.438 1.41 1.157h1.399Zm3.104 4.35c1.49 0 2.416-1.019 2.416-2.531 0-1.521-.926-2.538-2.416-2.538-1.489 0-2.416 1.017-2.416 2.538 0 1.512.927 2.531 2.416 2.531Zm.007-1.055c-.687 0-1.039-.629-1.039-1.486 0-.856.352-1.489 1.039-1.489.674 0 1.026.633 1.026 1.489 0 .857-.352 1.486-1.026 1.486Zm5.432 1.055c1.489 0 2.416-1.019 2.416-2.531 0-1.521-.927-2.538-2.416-2.538-1.49 0-2.416 1.017-2.416 2.538 0 1.512.926 2.531 2.416 2.531Zm.006-1.055c-.687 0-1.038-.629-1.038-1.486 0-.856.351-1.489 1.038-1.489.675 0 1.026.633 1.026 1.489 0 .857-.351 1.486-1.026 1.486Zm4.576-5.586h-1.362v6.545h1.362v-6.545Zm3.247 6.641c1.214 0 2.032-.591 2.224-1.502l-1.259-.083c-.138.374-.489.569-.943.569-.681 0-1.112-.451-1.112-1.183v-.003h3.343v-.374c0-1.668-1.01-2.493-2.308-2.493-1.444 0-2.381 1.026-2.381 2.541 0 1.556.924 2.528 2.436 2.528Zm-1.09-3.046a1.037 1.037 0 0 1 1.058-1.006c.591 0 1 .421 1.003 1.006h-2.061Zm4.15 2.95h1.362v-2.777c0-.604.441-1.02 1.042-1.02.188 0 .447.032.575.074v-1.208a2.025 2.025 0 0 0-.428-.048c-.55 0-1.001.319-1.18.927h-.051v-.857h-1.32v4.909Zm1.954-65.254c-.183-1.511-1.327-2.381-2.842-2.381-1.729 0-3.049 1.221-3.049 3.362 0 2.135 1.298 3.363 3.049 3.363 1.678 0 2.691-1.116 2.842-2.321l-1.4-.006c-.131.7-.681 1.103-1.419 1.103-.994 0-1.669-.739-1.669-2.139 0-1.361.665-2.138 1.678-2.138.758 0 1.304.438 1.41 1.157h1.4Zm3.103 4.35c1.49 0 2.417-1.019 2.417-2.531 0-1.521-.927-2.538-2.417-2.538-1.489 0-2.416 1.017-2.416 2.538 0 1.512.927 2.531 2.416 2.531Zm.007-1.055c-.687 0-1.039-.629-1.039-1.486 0-.856.352-1.489 1.039-1.489.674 0 1.026.633 1.026 1.489 0 .857-.352 1.486-1.026 1.486Zm4.575-1.879c.004-.633.381-1.003.93-1.003.547 0 .876.358.873.958v2.883h1.362v-3.126c0-1.144-.672-1.847-1.694-1.847-.729 0-1.256.358-1.477.93h-.057v-.866h-1.298v4.909h1.361v-2.838Zm5.518 0c.003-.633.38-1.003.93-1.003.547 0 .876.358.873.958v2.883h1.361v-3.126c0-1.144-.671-1.847-1.694-1.847-.728 0-1.256.358-1.476.93h-.058v-.866h-1.297v4.909h1.361v-2.838Zm6.393 2.934c1.215 0 2.033-.591 2.225-1.502l-1.259-.083c-.138.374-.489.569-.943.569-.681 0-1.112-.451-1.112-1.183v-.003h3.343v-.374c0-1.668-1.01-2.493-2.308-2.493-1.445 0-2.381 1.026-2.381 2.541 0 1.556.924 2.528 2.435 2.528Zm-1.089-3.046a1.035 1.035 0 0 1 1.057-1.006c.592 0 1.001.421 1.004 1.006h-2.061Zm6.368 3.046c1.307 0 2.129-.767 2.193-1.895h-1.285c-.08.524-.425.818-.892.818-.636 0-1.048-.534-1.048-1.473 0-.927.415-1.458 1.048-1.458.499 0 .818.329.892.818h1.285c-.058-1.134-.918-1.879-2.199-1.879-1.49 0-2.41 1.032-2.41 2.538 0 1.492.904 2.531 2.416 2.531Zm5.594-5.005h-.923v-1.176h-1.362v1.176h-.671v1.023h.671v2.557c-.006.962.649 1.438 1.637 1.396.351-.012.601-.083.738-.128l-.214-1.013c-.067.013-.211.045-.339.045-.272 0-.46-.102-.46-.479v-2.378h.923v-1.023Zm2.972 5.005c1.489 0 2.416-1.019 2.416-2.531 0-1.521-.927-2.538-2.416-2.538-1.49 0-2.416 1.017-2.416 2.538 0 1.512.926 2.531 2.416 2.531Zm.006-1.055c-.687 0-1.039-.629-1.039-1.486 0-.856.352-1.489 1.039-1.489.674 0 1.026.633 1.026 1.489 0 .857-.352 1.486-1.026 1.486Zm3.214.959h1.362v-2.777c0-.604.441-1.02 1.042-1.02.188 0 .447.032.575.074v-1.208a2.033 2.033 0 0 0-.428-.048c-.55 0-1.001.319-1.18.927h-.051v-.857h-1.32v4.909Zm17.512 54.455v6.545h1.343v-4.276h.054l1.694 4.244h.914l1.694-4.228h.054v4.26h1.342v-6.545h-1.706l-1.803 4.397h-.076l-1.803-4.397h-1.707Zm8.129 6.545h1.362v-4.909h-1.362v4.909Zm.684-5.542c.406 0 .738-.31.738-.69 0-.377-.332-.687-.738-.687-.403 0-.735.31-.735.687 0 .38.332.69.735.69Zm3.496 5.622c.793 0 1.205-.457 1.394-.866h.057v.786h1.343v-6.545h-1.359v2.461h-.041c-.183-.4-.576-.889-1.397-.889-1.077 0-1.988.838-1.988 2.525 0 1.643.873 2.528 1.991 2.528Zm.432-1.083c-.668 0-1.033-.595-1.033-1.451 0-.851.358-1.435 1.033-1.435.661 0 1.032.559 1.032 1.435 0 .875-.377 1.451-1.032 1.451Zm-12.31-62.042V532h1.343v-4.276h.054l1.694 4.244h.914l1.694-4.228h.054V532h1.342v-6.545h-1.706l-1.803 4.397h-.076l-1.803-4.397h-1.707Zm8.129 6.545h1.362v-4.909h-1.362V532Zm.684-5.542c.406 0 .738-.31.738-.69 0-.377-.332-.687-.738-.687-.403 0-.735.31-.735.687 0 .38.332.69.735.69Zm3.496 5.622c.793 0 1.205-.457 1.394-.866h.057V532h1.342v-6.545h-1.358v2.461h-.041c-.183-.4-.576-.889-1.397-.889-1.077 0-1.988.838-1.988 2.525 0 1.643.873 2.528 1.991 2.528Zm.432-1.083c-.668 0-1.033-.595-1.033-1.451 0-.851.358-1.435 1.033-1.435.661 0 1.032.559 1.032 1.435 0 .875-.377 1.451-1.032 1.451Zm5.427 1.003h2.797c1.47 0 2.253-.767 2.253-1.809 0-.968-.693-1.553-1.438-1.588v-.064c.681-.154 1.183-.636 1.183-1.406 0-.982-.729-1.678-2.174-1.678h-2.621V532Zm1.384-1.131v-1.739h1.161c.664 0 1.077.384 1.077.924 0 .492-.336.815-1.109.815h-1.129Zm0-2.675v-1.621h1.052c.613 0 .962.317.962.79 0 .518-.422.831-.988.831h-1.026Zm6.678 3.902c1.489 0 2.416-1.019 2.416-2.531 0-1.521-.927-2.538-2.416-2.538-1.489 0-2.416 1.017-2.416 2.538 0 1.512.927 2.531 2.416 2.531Zm.007-1.055c-.688 0-1.039-.629-1.039-1.486 0-.856.351-1.489 1.039-1.489.674 0 1.025.633 1.025 1.489 0 .857-.351 1.486-1.025 1.486Zm5.432 1.055c1.489 0 2.416-1.019 2.416-2.531 0-1.521-.927-2.538-2.416-2.538-1.49 0-2.417 1.017-2.417 2.538 0 1.512.927 2.531 2.417 2.531Zm.006-1.055c-.687 0-1.039-.629-1.039-1.486 0-.856.352-1.489 1.039-1.489.674 0 1.026.633 1.026 1.489 0 .857-.352 1.486-1.026 1.486Zm7.299-2.55c-.122-.905-.85-1.464-2.091-1.464-1.256 0-2.083.582-2.08 1.528-.003.735.46 1.211 1.419 1.403l.85.169c.428.087.623.243.63.489-.007.291-.323.499-.799.499-.486 0-.809-.208-.892-.607l-1.339.07c.128.94.927 1.518 2.227 1.518 1.272 0 2.183-.649 2.187-1.617-.004-.71-.467-1.135-1.419-1.33l-.889-.179c-.457-.099-.626-.255-.623-.492-.003-.294.329-.486.751-.486.473 0 .754.259.821.576l1.247-.077Zm3.499-1.4h-.924v-1.176h-1.361v1.176h-.671v1.023h.671v2.557c-.007.962.649 1.438 1.636 1.396.352-.012.601-.083.739-.128l-.215-1.013c-.067.013-.211.045-.338.045-.272 0-.461-.102-.461-.479v-2.378h.924v-1.023Zm56.881 25.005h2.004v5.404h1.367v-5.404h2.004v-1.141h-5.375v1.141Zm8.182-1.141v6.545h1.342v-4.276h.054l1.694 4.244h.914l1.694-4.228h.055v4.26h1.342v-6.545H478.8l-1.802 4.397h-.077l-1.803-4.397h-1.706Zm8.128 6.545h1.362v-4.909h-1.362v4.909Zm.684-5.542c.406 0 .739-.31.739-.69 0-.377-.333-.687-.739-.687-.402 0-.735.31-.735.687 0 .38.333.69.735.69Zm3.497 5.622c.792 0 1.204-.457 1.393-.866h.058v.786h1.342v-6.545h-1.358v2.461h-.042c-.182-.4-.575-.889-1.397-.889-1.077 0-1.988.838-1.988 2.525 0 1.643.873 2.528 1.992 2.528Zm.431-1.083c-.668 0-1.032-.595-1.032-1.451 0-.851.358-1.435 1.032-1.435.662 0 1.032.559 1.032 1.435 0 .875-.377 1.451-1.032 1.451Zm11.203-48.997h4.19v-1.141h-2.806v-5.404h-1.384v6.545Zm6.4.093c.726 0 1.195-.317 1.435-.774h.038v.681h1.292v-3.311c0-1.17-.991-1.662-2.084-1.662-1.176 0-1.95.563-2.138 1.458l1.259.102c.093-.326.383-.566.872-.566.464 0 .729.233.729.636v.019c0 .317-.335.358-1.189.441-.971.09-1.844.416-1.844 1.512 0 .972.694 1.464 1.63 1.464Zm.39-.94c-.419 0-.719-.195-.719-.569 0-.383.316-.572.796-.639.297-.041.783-.112.946-.22v.521c0 .514-.425.907-1.023.907Zm5.159.927c.793 0 1.205-.457 1.393-.866h.058v.786h1.342v-6.545h-1.358v2.461h-.042c-.182-.4-.575-.889-1.396-.889-1.077 0-1.988.838-1.988 2.525 0 1.643.872 2.528 1.991 2.528Zm.431-1.083c-.668 0-1.032-.595-1.032-1.451 0-.851.358-1.435 1.032-1.435.662 0 1.033.559 1.033 1.435 0 .875-.377 1.451-1.033 1.451Zm5.21 1.083c.792 0 1.204-.457 1.393-.866h.058v.786h1.342v-6.545h-1.358v2.461h-.042c-.182-.4-.575-.889-1.397-.889-1.077 0-1.988.838-1.988 2.525 0 1.643.873 2.528 1.992 2.528Zm.431-1.083c-.668 0-1.032-.595-1.032-1.451 0-.851.358-1.435 1.032-1.435.662 0 1.032.559 1.032 1.435 0 .875-.377 1.451-1.032 1.451Zm5.638 1.099c1.214 0 2.032-.591 2.224-1.502l-1.259-.083c-.138.374-.489.569-.943.569-.681 0-1.112-.451-1.112-1.183v-.003h3.343v-.374c0-1.668-1.01-2.493-2.308-2.493-1.444 0-2.381 1.026-2.381 2.541 0 1.556.924 2.528 2.436 2.528Zm-1.09-3.046a1.036 1.036 0 0 1 1.058-1.006c.591 0 1 .421 1.003 1.006h-2.061Zm4.15 2.95h1.362v-2.777c0-.604.441-1.02 1.042-1.02.188 0 .447.032.575.074v-1.208a2.033 2.033 0 0 0-.428-.048c-.55 0-1.001.319-1.18.927h-.051v-.857h-1.32v4.909ZM429.751 446h4.424v-1.141h-3.04v-1.563h2.8v-1.141h-2.8v-1.559h3.027v-1.141h-4.411V446Zm6.766-6.545h-1.362V446h1.362v-6.545Zm3.247 6.641c1.214 0 2.033-.591 2.224-1.502l-1.259-.083c-.137.374-.489.569-.943.569-.681 0-1.112-.451-1.112-1.183v-.003h3.343v-.374c0-1.668-1.01-2.493-2.307-2.493-1.445 0-2.382 1.026-2.382 2.541 0 1.556.924 2.528 2.436 2.528Zm-1.09-3.046a1.037 1.037 0 0 1 1.058-1.006c.591 0 1 .421 1.003 1.006h-2.061Zm8.587-1.959h-1.442l-1.016 3.513h-.051l-1.02-3.513h-1.438L444.01 446h1.534l1.717-4.909Zm1.875 5.002c.725 0 1.195-.317 1.435-.774h.038V446h1.291v-3.311c0-1.17-.991-1.662-2.084-1.662-1.176 0-1.949.563-2.138 1.458l1.259.102c.093-.326.384-.566.873-.566.463 0 .729.233.729.636v.019c0 .317-.336.358-1.189.441-.972.09-1.844.416-1.844 1.512 0 .972.693 1.464 1.63 1.464Zm.39-.94c-.419 0-.72-.195-.72-.569 0-.383.317-.572.796-.639.297-.041.783-.112.946-.22v.521c0 .514-.425.907-1.022.907Zm5.961-4.062h-.924v-1.176h-1.362v1.176h-.671v1.023h.671v2.557c-.006.962.649 1.438 1.637 1.396.351-.012.601-.083.738-.128l-.214-1.013c-.067.013-.211.045-.339.045-.271 0-.46-.102-.46-.479v-2.378h.924v-1.023Zm2.971 5.005c1.489 0 2.416-1.019 2.416-2.531 0-1.521-.927-2.538-2.416-2.538-1.49 0-2.416 1.017-2.416 2.538 0 1.512.926 2.531 2.416 2.531Zm.006-1.055c-.687 0-1.039-.629-1.039-1.486 0-.856.352-1.489 1.039-1.489.675 0 1.026.633 1.026 1.489 0 .857-.351 1.486-1.026 1.486Zm3.214.959h1.362v-2.777c0-.604.441-1.02 1.042-1.02.188 0 .447.032.575.074v-1.208a2.025 2.025 0 0 0-.428-.048c-.55 0-1.001.319-1.18.927h-.051v-.857h-1.32V446Zm-100.619 6.096h2.004v5.404h1.368v-5.404h2.004v-1.141h-5.376v1.141Zm7.661 5.5c1.489 0 2.416-1.019 2.416-2.531 0-1.521-.927-2.538-2.416-2.538-1.49 0-2.416 1.017-2.416 2.538 0 1.512.926 2.531 2.416 2.531Zm.006-1.055c-.687 0-1.039-.629-1.039-1.486 0-.856.352-1.489 1.039-1.489.675 0 1.026.633 1.026 1.489 0 .857-.351 1.486-1.026 1.486Zm3.214 2.8h1.362v-2.627h.041c.189.409.601.866 1.394.866 1.118 0 1.991-.885 1.991-2.528 0-1.687-.911-2.525-1.988-2.525-.821 0-1.215.489-1.397.889h-.06v-.825h-1.343v6.75Zm1.333-4.295c0-.876.371-1.435 1.032-1.435.675 0 1.033.584 1.033 1.435 0 .856-.365 1.451-1.033 1.451-.655 0-1.032-.576-1.032-1.451Zm6.309-4.091v6.545h1.342v-4.276h.055l1.694 4.244h.914l1.694-4.228h.054v4.26h1.342v-6.545h-1.706l-1.803 4.397h-.077l-1.802-4.397h-1.707Zm8.129 6.545h1.361v-4.909h-1.361v4.909Zm.684-5.542c.406 0 .738-.31.738-.69 0-.377-.332-.687-.738-.687-.403 0-.735.31-.735.687 0 .38.332.69.735.69Zm3.496 5.622c.793 0 1.205-.457 1.393-.866h.058v.786h1.342v-6.545h-1.358v2.461h-.042c-.182-.4-.575-.889-1.396-.889-1.077 0-1.988.838-1.988 2.525 0 1.643.872 2.528 1.991 2.528Zm.431-1.083c-.667 0-1.032-.595-1.032-1.451 0-.851.358-1.435 1.032-1.435.662 0 1.033.559 1.033 1.435 0 .875-.377 1.451-1.033 1.451ZM386.886 419h2.797c1.47 0 2.253-.767 2.253-1.809 0-.968-.694-1.553-1.438-1.588v-.064c.68-.154 1.182-.636 1.182-1.406 0-.982-.729-1.678-2.173-1.678h-2.621V419Zm1.384-1.131v-1.739h1.16c.665 0 1.077.384 1.077.924 0 .492-.335.815-1.109.815h-1.128Zm0-2.675v-1.621h1.051c.614 0 .962.317.962.79 0 .518-.421.831-.987.831h-1.026Zm5.86 3.899c.725 0 1.195-.317 1.435-.774h.038V419h1.291v-3.311c0-1.17-.991-1.662-2.084-1.662-1.176 0-1.949.563-2.138 1.458l1.259.102c.093-.326.384-.566.873-.566.463 0 .729.233.729.636v.019c0 .317-.336.358-1.189.441-.972.09-1.844.416-1.844 1.512 0 .972.693 1.464 1.63 1.464Zm.389-.94c-.418 0-.719-.195-.719-.569 0-.383.317-.572.796-.639.297-.041.783-.112.946-.22v.521c0 .514-.425.907-1.023.907Zm5.568.943c1.308 0 2.129-.767 2.193-1.895h-1.285c-.08.524-.425.818-.892.818-.636 0-1.048-.534-1.048-1.473 0-.927.416-1.458 1.048-1.458.499 0 .819.329.892.818h1.285c-.058-1.134-.917-1.879-2.199-1.879-1.489 0-2.41 1.032-2.41 2.538 0 1.492.905 2.531 2.416 2.531Zm2.984-.096h1.361v-1.559l.368-.419 1.339 1.978h1.595l-1.915-2.784 1.822-2.125h-1.563l-1.572 1.863h-.074v-3.499h-1.361V419Zm6.764.08c.792 0 1.205-.457 1.393-.866h.058V419h1.342v-6.545h-1.358v2.461h-.042c-.182-.4-.575-.889-1.396-.889-1.078 0-1.988.838-1.988 2.525 0 1.643.872 2.528 1.991 2.528Zm.431-1.083c-.668 0-1.032-.595-1.032-1.451 0-.851.358-1.435 1.032-1.435.662 0 1.033.559 1.033 1.435 0 .875-.378 1.451-1.033 1.451Zm5.618 1.099c1.49 0 2.417-1.019 2.417-2.531 0-1.521-.927-2.538-2.417-2.538-1.489 0-2.416 1.017-2.416 2.538 0 1.512.927 2.531 2.416 2.531Zm.007-1.055c-.687 0-1.039-.629-1.039-1.486 0-.856.352-1.489 1.039-1.489.674 0 1.026.633 1.026 1.489 0 .857-.352 1.486-1.026 1.486Zm5.432 1.055c1.489 0 2.416-1.019 2.416-2.531 0-1.521-.927-2.538-2.416-2.538-1.489 0-2.416 1.017-2.416 2.538 0 1.512.927 2.531 2.416 2.531Zm.006-1.055c-.687 0-1.038-.629-1.038-1.486 0-.856.351-1.489 1.038-1.489.675 0 1.026.633 1.026 1.489 0 .857-.351 1.486-1.026 1.486Zm3.215.959h1.361v-2.777c0-.604.441-1.02 1.042-1.02.188 0 .447.032.575.074v-1.208a2.025 2.025 0 0 0-.428-.048c-.55 0-1 .319-1.179.927h-.052v-.857h-1.319V419Zm-39.384-64.5h1.384v-2.704h2.809v2.704h1.381v-6.545h-1.381v2.7h-2.809v-2.7h-1.384v6.545Zm8.846.096c1.214 0 2.032-.591 2.224-1.502l-1.259-.083c-.138.374-.489.569-.943.569-.681 0-1.112-.451-1.112-1.183v-.003h3.343v-.374c0-1.668-1.01-2.493-2.308-2.493-1.444 0-2.381 1.026-2.381 2.541 0 1.556.924 2.528 2.436 2.528Zm-1.09-3.046a1.036 1.036 0 0 1 1.058-1.006c.591 0 1 .421 1.003 1.006h-2.061Zm5.55 3.043c.726 0 1.195-.317 1.435-.774h.038v.681h1.292v-3.311c0-1.17-.991-1.662-2.084-1.662-1.176 0-1.95.563-2.138 1.458l1.259.102c.093-.326.383-.566.872-.566.464 0 .729.233.729.636v.019c0 .317-.335.358-1.189.441-.971.09-1.844.416-1.844 1.512 0 .972.694 1.464 1.63 1.464Zm.39-.94c-.419 0-.719-.195-.719-.569 0-.383.316-.572.796-.639.297-.041.783-.112.946-.22v.521c0 .514-.425.907-1.023.907Zm7.751-4.062h-1.442l-1.016 3.513h-.051l-1.02-3.513h-1.438l1.717 4.909h1.534l1.716-4.909Zm2.686 5.005c1.214 0 2.032-.591 2.224-1.502l-1.259-.083c-.137.374-.489.569-.943.569-.681 0-1.112-.451-1.112-1.183v-.003h3.343v-.374c0-1.668-1.01-2.493-2.308-2.493-1.444 0-2.381 1.026-2.381 2.541 0 1.556.924 2.528 2.436 2.528Zm-1.09-3.046a1.037 1.037 0 0 1 1.058-1.006c.591 0 1 .421 1.003 1.006h-2.061Zm5.512.112c.003-.633.38-1.003.93-1.003.547 0 .876.358.873.958v2.883h1.361v-3.126c0-1.144-.671-1.847-1.694-1.847-.728 0-1.256.358-1.476.93h-.058v-.866h-1.297v4.909h1.361v-2.838Zm35.767-20.162c1.995 0 3.203-1.233 3.203-3.279 0-2.039-1.208-3.266-3.183-3.266h-2.34v6.545h2.32Zm-.936-1.186v-4.174h.882c1.227 0 1.876.627 1.876 2.081 0 1.461-.649 2.093-1.879 2.093h-.879Zm7.275 1.282c1.49 0 2.417-1.019 2.417-2.531 0-1.521-.927-2.538-2.417-2.538-1.489 0-2.416 1.017-2.416 2.538 0 1.512.927 2.531 2.416 2.531Zm.007-1.055c-.687 0-1.039-.629-1.039-1.486 0-.856.352-1.489 1.039-1.489.674 0 1.026.633 1.026 1.489 0 .857-.352 1.486-1.026 1.486Zm6.362-1.131c.003.658-.448 1.004-.937 1.004-.514 0-.846-.362-.85-.94v-2.883h-1.361v3.126c.003 1.147.674 1.847 1.662 1.847.738 0 1.269-.38 1.489-.956h.051v.892h1.307v-4.909h-1.361v2.819Zm2.395 2.09h1.342v-.786h.061c.189.409.601.866 1.394.866 1.118 0 1.991-.885 1.991-2.528 0-1.687-.911-2.525-1.988-2.525-.822 0-1.215.489-1.397.889h-.041v-2.461h-1.362v6.545Zm1.333-2.454c0-.876.371-1.435 1.032-1.435.674 0 1.032.584 1.032 1.435 0 .856-.364 1.451-1.032 1.451-.655 0-1.032-.576-1.032-1.451Zm5.644-4.091H470.2v6.545h1.362v-6.545Zm3.247 6.641c1.214 0 2.032-.591 2.224-1.502l-1.259-.083c-.138.374-.489.569-.943.569-.681 0-1.112-.451-1.112-1.183v-.003h3.343v-.374c0-1.668-1.01-2.493-2.308-2.493-1.444 0-2.381 1.026-2.381 2.541 0 1.556.924 2.528 2.436 2.528Zm-1.09-3.046a1.036 1.036 0 0 1 1.058-1.006c.591 0 1 .421 1.003 1.006h-2.061ZM576.976 381l.486-1.492h2.362l.486 1.492h1.483l-2.257-6.545h-1.783l-2.26 6.545h1.483Zm.838-2.573.805-2.477h.051l.806 2.477h-1.662Zm6.687 2.573h1.384v-2.32h1.01l1.24 2.32h1.528l-1.39-2.544c.744-.319 1.157-.968 1.157-1.863 0-1.301-.86-2.138-2.346-2.138h-2.583V381Zm1.384-3.432v-1.982h.934c.799 0 1.185.355 1.185 1.007 0 .649-.386.975-1.179.975h-.94Zm5.816 3.525c.726 0 1.195-.317 1.435-.774h.038V381h1.292v-3.311c0-1.17-.991-1.662-2.084-1.662-1.176 0-1.95.563-2.138 1.458l1.259.102c.093-.326.383-.566.872-.566.464 0 .729.233.729.636v.019c0 .317-.336.358-1.189.441-.971.09-1.844.416-1.844 1.512 0 .972.694 1.464 1.63 1.464Zm.39-.94c-.419 0-.719-.195-.719-.569 0-.383.316-.572.796-.639.297-.041.783-.112.946-.22v.521c0 .514-.425.907-1.023.907Zm3.35.847h1.361v-2.947c0-.543.346-.904.799-.904.448 0 .748.307.748.789V381h1.32v-2.998c0-.508.291-.853.786-.853.435 0 .761.272.761.818V381h1.358v-3.301c0-1.065-.632-1.672-1.546-1.672-.72 0-1.279.368-1.48.93h-.051c-.157-.569-.659-.93-1.333-.93-.662 0-1.163.352-1.368.93h-.058v-.866h-1.297V381Zm8.128 1.841h1.361v-2.627h.042c.188.409.601.866 1.393.866 1.119 0 1.991-.885 1.991-2.528 0-1.687-.91-2.525-1.987-2.525-.822 0-1.215.489-1.397.889h-.061v-.825h-1.342v6.75Zm1.333-4.295c0-.876.37-1.435 1.032-1.435.674 0 1.032.584 1.032 1.435 0 .856-.364 1.451-1.032 1.451-.655 0-1.032-.576-1.032-1.451Zm-1.564-48.209h1.327c-.02-1.166-.978-1.972-2.436-1.972-1.435 0-2.486.793-2.48 1.982-.003.965.678 1.518 1.783 1.783l.713.179c.713.173 1.109.377 1.112.818-.003.48-.457.806-1.16.806-.719 0-1.237-.333-1.281-.988h-1.339c.035 1.416 1.048 2.148 2.636 2.148 1.598 0 2.538-.764 2.541-1.962-.003-1.09-.825-1.669-1.962-1.924l-.588-.141c-.569-.131-1.045-.342-1.036-.812 0-.422.374-.732 1.052-.732.661 0 1.067.301 1.118.815Zm3.64 4.756c.726 0 1.196-.317 1.435-.774h.039V335h1.291v-3.311c0-1.17-.991-1.662-2.084-1.662-1.176 0-1.95.563-2.138 1.458l1.259.102c.093-.326.384-.566.873-.566.463 0 .728.233.728.636v.019c0 .317-.335.358-1.189.441-.971.09-1.844.416-1.844 1.512 0 .972.694 1.464 1.63 1.464Zm.39-.94c-.419 0-.719-.195-.719-.569 0-.383.316-.572.796-.639.297-.041.783-.112.946-.22v.521c0 .514-.425.907-1.023.907Zm4.712-1.991c.003-.633.38-1.003.93-1.003.546 0 .875.358.872.958V335h1.362v-3.126c0-1.144-.672-1.847-1.694-1.847-.729 0-1.256.358-1.477.93h-.057v-.866h-1.298V335h1.362v-2.838Zm5.965 2.918c.792 0 1.205-.457 1.393-.866h.058V335h1.342v-6.545h-1.358v2.461h-.042c-.182-.4-.575-.889-1.397-.889-1.077 0-1.987.838-1.987 2.525 0 1.643.872 2.528 1.991 2.528Zm.431-1.083c-.668 0-1.032-.595-1.032-1.451 0-.851.358-1.435 1.032-1.435.662 0 1.032.559 1.032 1.435 0 .875-.377 1.451-1.032 1.451Zm3.426 1.003h1.342v-.786h.061c.189.409.601.866 1.393.866 1.119 0 1.992-.885 1.992-2.528 0-1.687-.911-2.525-1.988-2.525-.822 0-1.215.489-1.397.889h-.042v-2.461h-1.361V335Zm1.333-2.454c0-.876.37-1.435 1.032-1.435.674 0 1.032.584 1.032 1.435 0 .856-.364 1.451-1.032 1.451-.655 0-1.032-.576-1.032-1.451Zm5.682 2.547c.725 0 1.195-.317 1.435-.774h.038V335h1.291v-3.311c0-1.17-.99-1.662-2.083-1.662-1.176 0-1.95.563-2.138 1.458l1.259.102c.092-.326.383-.566.872-.566.464 0 .729.233.729.636v.019c0 .317-.336.358-1.189.441-.972.09-1.844.416-1.844 1.512 0 .972.693 1.464 1.63 1.464Zm.39-.94c-.419 0-.719-.195-.719-.569 0-.383.316-.572.796-.639.297-.041.783-.112.946-.22v.521c0 .514-.426.907-1.023.907Zm5.561 2.79c1.403 0 2.401-.639 2.401-1.895v-4.957h-1.352v.825h-.051c-.183-.4-.582-.889-1.404-.889-1.077 0-1.987.838-1.987 2.509 0 1.633.885 2.394 1.991 2.394.783 0 1.221-.393 1.4-.799h.057v.898c0 .674-.431.936-1.023.936-.601 0-.904-.262-1.016-.559l-1.259.169c.163.774.92 1.368 2.243 1.368Zm.029-3.036c-.668 0-1.032-.53-1.032-1.377 0-.835.358-1.419 1.032-1.419.662 0 1.032.559 1.032 1.419 0 .866-.377 1.377-1.032 1.377Zm7.459-2.416c-.122-.905-.851-1.464-2.091-1.464-1.256 0-2.083.582-2.08 1.528-.003.735.46 1.211 1.419 1.403l.85.169c.428.087.623.243.63.489-.007.291-.323.499-.799.499-.486 0-.809-.208-.892-.607l-1.339.07c.128.94.927 1.518 2.227 1.518 1.272 0 2.183-.649 2.186-1.617-.003-.71-.466-1.135-1.419-1.33l-.888-.179c-.457-.099-.627-.255-.623-.492-.004-.294.329-.486.751-.486.473 0 .754.259.821.576l1.247-.077ZM519.926 476h2.797c1.47 0 2.253-.767 2.253-1.809 0-.968-.694-1.553-1.438-1.588v-.064c.68-.154 1.182-.636 1.182-1.406 0-.982-.729-1.678-2.173-1.678h-2.621V476Zm1.384-1.131v-1.739h1.16c.665 0 1.077.384 1.077.924 0 .492-.335.815-1.109.815h-1.128Zm0-2.675v-1.621h1.051c.614 0 .962.317.962.79 0 .518-.421.831-.987.831h-1.026Zm10.038-.857h1.326c-.019-1.166-.978-1.972-2.435-1.972-1.435 0-2.486.793-2.48 1.982-.003.965.677 1.518 1.783 1.783l.713.179c.713.173 1.109.377 1.112.818-.003.48-.457.806-1.16.806-.719 0-1.237-.333-1.282-.988h-1.339c.035 1.416 1.049 2.148 2.637 2.148 1.598 0 2.538-.764 2.541-1.962-.003-1.09-.825-1.669-1.962-1.924l-.589-.141c-.568-.131-1.045-.342-1.035-.812 0-.422.374-.732 1.051-.732.662 0 1.068.301 1.119.815Zm2.24 4.663h1.362v-4.909h-1.362V476Zm.684-5.542c.406 0 .738-.31.738-.69 0-.377-.332-.687-.738-.687-.403 0-.735.31-.735.687 0 .38.332.69.735.69Zm3.496 5.622c.793 0 1.205-.457 1.394-.866h.057V476h1.343v-6.545h-1.359v2.461h-.041c-.182-.4-.576-.889-1.397-.889-1.077 0-1.988.838-1.988 2.525 0 1.643.873 2.528 1.991 2.528Zm.432-1.083c-.668 0-1.033-.595-1.033-1.451 0-.851.358-1.435 1.033-1.435.661 0 1.032.559 1.032 1.435 0 .875-.377 1.451-1.032 1.451Zm5.637 1.099c1.215 0 2.033-.591 2.225-1.502l-1.26-.083c-.137.374-.489.569-.942.569-.681 0-1.113-.451-1.113-1.183v-.003h3.343v-.374c0-1.668-1.01-2.493-2.307-2.493-1.445 0-2.381 1.026-2.381 2.541 0 1.556.923 2.528 2.435 2.528Zm-1.09-3.046a1.037 1.037 0 0 1 1.058-1.006c.592 0 1.001.421 1.004 1.006h-2.062Zm5.084 2.95h1.438l.844-3.087h.061l.844 3.087h1.441l1.333-4.909h-1.375l-.747 3.279h-.042l-.805-3.279h-1.352l-.793 3.298h-.045l-.76-3.298h-1.378l1.336 4.909Zm8.006.093c.725 0 1.195-.317 1.435-.774h.038V476h1.291v-3.311c0-1.17-.99-1.662-2.083-1.662-1.177 0-1.95.563-2.139 1.458l1.26.102c.092-.326.383-.566.872-.566.464 0 .729.233.729.636v.019c0 .317-.336.358-1.189.441-.972.09-1.844.416-1.844 1.512 0 .972.693 1.464 1.63 1.464Zm.39-.94c-.419 0-.719-.195-.719-.569 0-.383.316-.572.795-.639.298-.041.784-.112.947-.22v.521c0 .514-.426.907-1.023.907Zm4.711-5.698h-1.361V476h1.361v-6.545Zm1.01 6.545h1.361v-1.559l.368-.419 1.339 1.978h1.595l-1.915-2.784 1.822-2.125h-1.563l-1.572 1.863h-.074v-3.499h-1.361V476Zm-18.727-23.663h1.326c-.019-1.166-.978-1.972-2.435-1.972-1.435 0-2.487.793-2.48 1.982-.003.965.677 1.518 1.783 1.783l.713.179c.713.173 1.109.377 1.112.818-.003.48-.457.806-1.16.806-.719 0-1.237-.333-1.282-.988h-1.339c.035 1.416 1.049 2.148 2.637 2.148 1.598 0 2.538-.764 2.541-1.962-.003-1.09-.825-1.669-1.963-1.924l-.588-.141c-.569-.131-1.045-.342-1.035-.812 0-.422.374-.732 1.051-.732.662 0 1.068.301 1.119.815Zm4.458 4.759c1.307 0 2.129-.767 2.193-1.895h-1.285c-.08.524-.425.818-.892.818-.636 0-1.048-.534-1.048-1.473 0-.927.415-1.458 1.048-1.458.499 0 .818.329.892.818h1.285c-.058-1.134-.918-1.879-2.199-1.879-1.49 0-2.41 1.032-2.41 2.538 0 1.492.904 2.531 2.416 2.531Zm4.383-.003c.726 0 1.195-.317 1.435-.774h.039V457h1.291v-3.311c0-1.17-.991-1.662-2.084-1.662-1.176 0-1.95.563-2.138 1.458l1.259.102c.093-.326.384-.566.873-.566.463 0 .728.233.728.636v.019c0 .317-.335.358-1.189.441-.971.09-1.844.416-1.844 1.512 0 .972.694 1.464 1.63 1.464Zm.39-.94c-.419 0-.719-.195-.719-.569 0-.383.316-.572.796-.639.297-.041.783-.112.946-.22v.521c0 .514-.425.907-1.023.907Zm5.99-4.062h-.975v-.329c0-.332.134-.527.534-.527.163 0 .329.035.438.07l.239-1.023a3.589 3.589 0 0 0-.962-.134c-.923 0-1.61.521-1.61 1.588v.355h-.694v1.023h.694V457h1.361v-3.886h.975v-1.023Zm3.391 0h-.975v-.329c0-.332.134-.527.534-.527.163 0 .329.035.437.07l.24-1.023a3.589 3.589 0 0 0-.962-.134c-.924 0-1.611.521-1.611 1.588v.355h-.693v1.023h.693V457h1.362v-3.886h.975v-1.023Zm2.793 5.005c1.489 0 2.416-1.019 2.416-2.531 0-1.521-.927-2.538-2.416-2.538-1.49 0-2.417 1.017-2.417 2.538 0 1.512.927 2.531 2.417 2.531Zm.006-1.055c-.687 0-1.039-.629-1.039-1.486 0-.856.352-1.489 1.039-1.489.674 0 1.026.633 1.026 1.489 0 .857-.352 1.486-1.026 1.486Zm4.576-5.586h-1.362V457h1.362v-6.545Zm2.818 6.625c.793 0 1.205-.457 1.394-.866h.057V457h1.343v-6.545h-1.359v2.461h-.041c-.182-.4-.576-.889-1.397-.889-1.077 0-1.988.838-1.988 2.525 0 1.643.873 2.528 1.991 2.528Zm.432-1.083c-.668 0-1.033-.595-1.033-1.451 0-.851.358-1.435 1.033-1.435.661 0 1.032.559 1.032 1.435 0 .875-.377 1.451-1.032 1.451Zm3.4 1.003h1.361v-4.909h-1.361V457Zm.684-5.542c.406 0 .738-.31.738-.69 0-.377-.332-.687-.738-.687-.403 0-.735.31-.735.687 0 .38.332.69.735.69Zm3.049 2.704c.003-.633.38-1.003.93-1.003.546 0 .875.358.872.958V457h1.362v-3.126c0-1.144-.672-1.847-1.694-1.847-.729 0-1.256.358-1.477.93h-.057v-.866h-1.298V457h1.362v-2.838Zm6.367 4.781c1.403 0 2.401-.639 2.401-1.895v-4.957h-1.352v.825h-.051c-.183-.4-.582-.889-1.404-.889-1.077 0-1.987.838-1.987 2.509 0 1.633.885 2.394 1.991 2.394.783 0 1.221-.393 1.4-.799h.057v.898c0 .674-.431.936-1.023.936-.601 0-.904-.262-1.016-.559l-1.259.169c.163.774.92 1.368 2.243 1.368Zm.029-3.036c-.668 0-1.032-.53-1.032-1.377 0-.835.358-1.419 1.032-1.419.662 0 1.032.559 1.032 1.419 0 .866-.377 1.377-1.032 1.377Zm-41.334 167.689h2.004V629h1.368v-5.404h2.004v-1.141h-5.376v1.141Zm11.733.741h1.327c-.02-1.166-.978-1.972-2.436-1.972-1.435 0-2.486.793-2.48 1.982-.003.965.678 1.518 1.783 1.783l.713.179c.713.173 1.109.377 1.112.818-.003.48-.457.806-1.16.806-.719 0-1.237-.333-1.281-.988h-1.34c.036 1.416 1.049 2.148 2.637 2.148 1.598 0 2.538-.764 2.541-1.962-.003-1.09-.825-1.669-1.962-1.924l-.588-.141c-.569-.131-1.045-.342-1.036-.812 0-.422.374-.732 1.052-.732.661 0 1.067.301 1.118.815Zm4.851-.246h-.923v-1.176h-1.362v1.176h-.671v1.023h.671v2.557c-.006.962.649 1.438 1.637 1.396.351-.012.601-.083.738-.128l-.214-1.013c-.067.013-.211.045-.339.045-.272 0-.46-.102-.46-.479v-2.378h.923v-1.023Zm2.206 5.002c.726 0 1.196-.317 1.435-.774h.039V629h1.291v-3.311c0-1.17-.991-1.662-2.084-1.662-1.176 0-1.95.563-2.138 1.458l1.259.102c.093-.326.384-.566.873-.566.463 0 .728.233.728.636v.019c0 .317-.335.358-1.189.441-.971.09-1.844.416-1.844 1.512 0 .972.694 1.464 1.63 1.464Zm.39-.94c-.419 0-.719-.195-.719-.569 0-.383.316-.572.796-.639.297-.041.783-.112.946-.22v.521c0 .514-.425.907-1.023.907Zm3.35.847h1.362v-4.909h-1.362V629Zm.684-5.542c.406 0 .738-.31.738-.69 0-.377-.332-.687-.738-.687-.403 0-.735.31-.735.687 0 .38.332.69.735.69Zm1.687 5.542h1.362v-2.777c0-.604.441-1.02 1.042-1.02.188 0 .447.032.575.074v-1.208a2.033 2.033 0 0 0-.428-.048c-.55 0-1.001.319-1.18.927h-.051v-.857h-1.32V629Zm7.686-3.509c-.121-.905-.85-1.464-2.09-1.464-1.256 0-2.084.582-2.08 1.528-.004.735.46 1.211 1.419 1.403l.85.169c.428.087.623.243.629.489-.006.291-.322.499-.799.499-.485 0-.808-.208-.891-.607l-1.34.07c.128.94.927 1.518 2.228 1.518 1.272 0 2.183-.649 2.186-1.617-.003-.71-.466-1.135-1.419-1.33l-.888-.179c-.457-.099-.627-.255-.624-.492-.003-.294.33-.486.752-.486.473 0 .754.259.821.576l1.246-.077Z"/><path fill="#E3E5EA" d="M153.148 660.5h2.46v-4.807h4.733v-2.028h-4.733v-2.773h5.245v-2.028h-7.705V660.5Zm11.591-11.636h-2.421V660.5h2.421v-11.636Zm5.738 11.807c2.647 0 4.295-1.813 4.295-4.5 0-2.705-1.648-4.512-4.295-4.512-2.648 0-4.296 1.807-4.296 4.512 0 2.687 1.648 4.5 4.296 4.5Zm.011-1.875c-1.222 0-1.847-1.12-1.847-2.642 0-1.523.625-2.648 1.847-2.648 1.199 0 1.824 1.125 1.824 2.648 0 1.522-.625 2.642-1.824 2.642Zm9.657 1.875c2.648 0 4.296-1.813 4.296-4.5 0-2.705-1.648-4.512-4.296-4.512-2.648 0-4.295 1.807-4.295 4.512 0 2.687 1.647 4.5 4.295 4.5Zm.012-1.875c-1.222 0-1.847-1.12-1.847-2.642 0-1.523.625-2.648 1.847-2.648 1.198 0 1.823 1.125 1.823 2.648 0 1.522-.625 2.642-1.823 2.642Zm5.713 1.704h2.421v-4.937c0-1.074.784-1.813 1.852-1.813.335 0 .796.057 1.023.131v-2.148a3.642 3.642 0 0 0-.761-.085c-.978 0-1.779.568-2.097 1.648h-.091v-1.523h-2.347v8.727Zm14.19.159c2.591 0 4.352-1.687 4.346-4.039.006-2.228-1.551-3.83-3.647-3.83-1.023 0-1.904.426-2.313 1h-.068l.301-2.915h5.085v-2.011h-7.113L196.1 655l2.187.392c.358-.483 1.051-.784 1.739-.784 1.17.006 2.011.852 2.011 2.074 0 1.21-.824 2.045-1.977 2.045-.978 0-1.767-.613-1.824-1.517h-2.386c.045 2.012 1.801 3.449 4.21 3.449Zm10.981-11.795h-2.313l-2.88 1.824v2.182l2.664-1.671h.069v9.301h2.46v-11.636Z"/></g><defs><linearGradient id="b" x1="229.8" x2="253.231" y1="150.526" y2="87.093" gradientUnits="userSpaceOnUse"><stop stop-color="#C4C4C4"/><stop offset="1" stop-color="#C4C4C4" stop-opacity="0"/></linearGradient><linearGradient id="c" x1="220.244" x2="220.244" y1="204.999" y2="175.999" gradientUnits="userSpaceOnUse"><stop stop-color="#C4C4C4"/><stop offset="1" stop-color="#C4C4C4" stop-opacity="0"/></linearGradient><linearGradient id="d" x1="237.666" x2="299.258" y1="327.602" y2="278.563" gradientUnits="userSpaceOnUse"><stop stop-color="#C4C4C4" stop-opacity="0"/><stop offset="1" stop-color="#C4C4C4"/></linearGradient><linearGradient id="e" x1="91.721" x2="149.295" y1="352.789" y2="346.178" gradientUnits="userSpaceOnUse"><stop stop-color="#C4C4C4" stop-opacity="0"/><stop offset="1" stop-color="#C4C4C4"/></linearGradient><linearGradient id="h" x1="421.102" x2="421.102" y1="693.133" y2="765.437" gradientUnits="userSpaceOnUse"><stop stop-color="#C4C4C4"/><stop offset="1" stop-color="#C4C4C4" stop-opacity="0"/></linearGradient><linearGradient id="i" x1="546.963" x2="546.963" y1="446.768" y2="496.309" gradientUnits="userSpaceOnUse"><stop stop-color="#C4C4C4" stop-opacity="0"/><stop offset="1" stop-color="#C4C4C4"/></linearGradient><linearGradient id="j" x1="532.904" x2="532.904" y1="460.827" y2="497.982" gradientUnits="userSpaceOnUse"><stop stop-color="#C4C4C4" stop-opacity="0"/><stop offset="1" stop-color="#C4C4C4"/></linearGradient><linearGradient id="k" x1="542.445" x2="580.605" y1="658.823" y2="686.774" gradientUnits="userSpaceOnUse"><stop stop-color="#C4C4C4"/><stop offset="1" stop-color="#C4C4C4" stop-opacity="0"/></linearGradient><clipPath id="a"><path fill="#fff" d="M0 708V0h708v708z"/></clipPath></defs></svg>